<?xml version="1.0" encoding="utf-8"?>
<!-- Generator: Adobe Illustrator 26.2.1, SVG Export Plug-In . SVG Version: 6.00 Build 0)  -->
<svg version="1.1" id="Layer_1" xmlns="http://www.w3.org/2000/svg" xmlns:xlink="http://www.w3.org/1999/xlink" x="0px" y="0px"
	 viewBox="0 0 371.3 150" style="enable-background:new 0 0 371.3 150;" xml:space="preserve">
<style type="text/css">
	.st0{fill:#FF60B2;stroke:#A42963;stroke-linejoin:round;stroke-miterlimit:10;}
	.st1{fill:#FF60B2;stroke:#942359;stroke-linejoin:round;stroke-miterlimit:10;}
	.st2{opacity:0.1;}
	.st3{fill:none;stroke:#942359;stroke-linecap:round;stroke-linejoin:round;stroke-miterlimit:10;}
	.st4{fill:none;stroke:#942359;stroke-linecap:round;stroke-miterlimit:10;}
	.st5{fill:#FFFFFF;stroke:#942359;stroke-linejoin:round;stroke-miterlimit:10;}
	.st6{fill:#942359;}
	.st7{fill:#FFFFFF;}
	.st8{fill:none;stroke:#942359;stroke-linejoin:round;stroke-miterlimit:10;}
	.st9{fill:#CDCED0;stroke:#686869;stroke-linejoin:round;stroke-miterlimit:10;}
	.st10{fill:#C669EA;stroke:#70327E;stroke-linejoin:round;stroke-miterlimit:10;}
	.st11{fill:#70327E;}
	.st12{fill:none;stroke:#70327E;stroke-linecap:round;stroke-linejoin:round;stroke-miterlimit:10;}
	.st13{clip-path:url(#SVGID_00000105412607896277644180000010264045439136151231_);}
	.st14{fill:none;stroke:#2AC5F4;stroke-width:6.1228;stroke-linejoin:round;stroke-miterlimit:10;}
	.st15{fill:none;stroke:#FF60B2;stroke-width:6.1228;stroke-linejoin:round;stroke-miterlimit:10;}
	.st16{fill:none;stroke:#FFF200;stroke-width:6.1228;stroke-linejoin:round;stroke-miterlimit:10;}
	.st17{fill:none;stroke:#70327E;stroke-linejoin:round;stroke-miterlimit:10;}
	.st18{fill:#F6EB25;}
	.st19{fill:#FFF200;stroke:#A1511A;stroke-linejoin:round;stroke-miterlimit:10;}
	.st20{fill:none;stroke:#A1511A;stroke-linecap:round;stroke-linejoin:round;stroke-miterlimit:10;}
	.st21{fill:#A1511A;}
	.st22{fill:#2AC5F4;stroke:#0B6A88;stroke-linejoin:round;stroke-miterlimit:10;}
	.st23{fill:#0B6A88;}
	.st24{fill:#0B6A88;stroke:#0B6A88;stroke-linecap:round;stroke-linejoin:round;stroke-miterlimit:10;}
	.st25{fill:#5FD3F7;}
	.st26{fill:#2AC5F4;}
	.st27{fill:none;stroke:#0A566E;stroke-linecap:round;stroke-linejoin:round;stroke-miterlimit:10;}
	.st28{clip-path:url(#SVGID_00000051359960085844739740000016709628175171837102_);}
	.st29{fill:#5FD3F7;stroke:#0A566E;stroke-linecap:round;stroke-linejoin:round;stroke-miterlimit:10;}
	.st30{fill:#2AC5F4;stroke:#0A566E;stroke-linecap:round;stroke-linejoin:round;stroke-miterlimit:10;}
	.st31{clip-path:url(#SVGID_00000147181664439756574840000012556619871834905749_);}
	.st32{opacity:0.1;stroke:#000000;stroke-width:0.2355;stroke-linecap:round;stroke-linejoin:round;stroke-miterlimit:10;}
	.st33{fill:none;stroke:#686869;stroke-linecap:round;stroke-linejoin:round;stroke-miterlimit:10;}
	.st34{fill:#0A566E;}
	.st35{fill:#CDCED0;stroke:#686869;stroke-linecap:round;stroke-linejoin:round;stroke-miterlimit:10;}
	.st36{fill:#CDCED0;stroke:#686869;stroke-miterlimit:10;}
	.st37{fill:#FF88C5;stroke:#70327E;stroke-linejoin:round;stroke-miterlimit:10;}
	.st38{fill:none;stroke:#FF4E15;stroke-width:5.7722;stroke-linejoin:round;stroke-miterlimit:10;}
	.st39{fill:none;stroke:#FF9F4C;stroke-width:5.7722;stroke-linejoin:round;stroke-miterlimit:10;}
	.st40{fill:none;stroke:#FFF200;stroke-width:5.7722;stroke-linejoin:round;stroke-miterlimit:10;}
	.st41{fill:none;stroke:#2AC5F4;stroke-width:5.7722;stroke-linejoin:round;stroke-miterlimit:10;}
	.st42{fill:none;stroke:#FF60B2;stroke-width:5.7722;stroke-linejoin:round;stroke-miterlimit:10;}
	.st43{fill:none;stroke:#B337E3;stroke-width:5.7722;stroke-linejoin:round;stroke-miterlimit:10;}
	.st44{fill:none;stroke:#FFFFFF;stroke-width:0.4497;stroke-linecap:round;stroke-miterlimit:10;}
	.st45{fill:none;stroke:#2AC5F4;stroke-linecap:round;stroke-linejoin:round;stroke-miterlimit:10;}
	.st46{fill:none;stroke:#404040;stroke-width:0.5685;stroke-linecap:round;stroke-linejoin:round;stroke-miterlimit:10;}
	.st47{fill:#E5E5E5;}
	.st48{fill:none;stroke:#808080;stroke-linecap:round;stroke-linejoin:round;stroke-miterlimit:10;}
	.st49{fill:#F16164;stroke:#701616;stroke-linejoin:round;stroke-miterlimit:10;}
	.st50{fill:#701616;}
	.st51{fill:none;stroke:#701616;stroke-linecap:round;stroke-linejoin:round;stroke-miterlimit:10;}
	.st52{fill:#FFF200;stroke:#06566E;stroke-linecap:round;stroke-linejoin:round;stroke-miterlimit:10;}
	.st53{fill:#FF9F4C;stroke:#000000;stroke-linecap:round;stroke-linejoin:round;stroke-miterlimit:10;}
	.st54{fill:none;stroke:#0A566E;stroke-width:0.8026;stroke-linecap:round;stroke-linejoin:round;stroke-miterlimit:10;}
	.st55{fill:#FFFFFF;stroke:#000000;stroke-linecap:round;stroke-linejoin:round;stroke-miterlimit:10;}
	.st56{clip-path:url(#SVGID_00000041260064366080955600000009940825283744628615_);}
	.st57{clip-path:url(#SVGID_00000136404659578557397930000009603476768919543985_);}
	.st58{clip-path:url(#SVGID_00000093864470011865497630000017650688519928424592_);}
	.st59{fill:none;stroke:#0A566E;stroke-width:1.884;stroke-linecap:round;stroke-miterlimit:10;}
	.st60{fill:#5FD3F7;stroke:#0A566E;stroke-miterlimit:10;}
	.st61{fill:#FF9F4C;stroke:#593314;stroke-linejoin:round;stroke-miterlimit:10;}
	.st62{fill:#FF9F4C;stroke:#701616;stroke-linejoin:round;stroke-miterlimit:10;}
	.st63{fill:#FF9F4C;stroke:#000000;stroke-linejoin:round;stroke-miterlimit:10;}
	.st64{fill:none;stroke:#000000;stroke-linecap:round;stroke-linejoin:round;stroke-miterlimit:10;}
	.st65{fill:none;stroke:#404040;stroke-width:0.8026;stroke-linecap:round;stroke-linejoin:round;stroke-miterlimit:10;}
	.st66{stroke:#000000;stroke-width:0.8026;stroke-linecap:round;stroke-linejoin:round;stroke-miterlimit:10;}
	.st67{stroke:#000000;stroke-width:0.4013;stroke-linecap:round;stroke-linejoin:round;stroke-miterlimit:10;}
	.st68{fill:#FF60B2;}
	.st69{fill:#FFF200;}
	.st70{fill:#CDCED0;}
	.st71{fill:none;stroke:#593314;stroke-linecap:round;stroke-linejoin:round;stroke-miterlimit:10;}
	.st72{fill:#593314;}
	.st73{fill:none;stroke:#593314;stroke-width:0.75;stroke-linecap:round;stroke-linejoin:round;stroke-miterlimit:10;}
	.st74{fill:#593314;stroke:#593314;stroke-width:0.2355;stroke-linecap:round;stroke-linejoin:round;stroke-miterlimit:10;}
	.st75{fill:none;stroke:#FF60B2;stroke-linecap:round;stroke-miterlimit:10;}
	.st76{fill:none;stroke:#2AC5F4;stroke-linecap:round;stroke-miterlimit:10;}
	.st77{fill:none;stroke:#FFF200;stroke-linecap:round;stroke-miterlimit:10;}
	.st78{fill:none;stroke:#FF9F4C;stroke-linecap:round;stroke-miterlimit:10;}
	.st79{fill:#FF9F4C;}
	.st80{fill:#A1511A;stroke:#A1511A;stroke-linecap:round;stroke-linejoin:round;stroke-miterlimit:10;}
	.st81{opacity:5.000000e-02;}
	.st82{fill:none;stroke:#686869;stroke-linejoin:round;stroke-miterlimit:10;}
	.st83{fill:#B337E3;}
	
		.st84{fill:none;stroke:#70327E;stroke-width:0.5;stroke-linecap:round;stroke-linejoin:round;stroke-miterlimit:10;stroke-dasharray:0,1;}
	.st85{fill:#ECCDF8;}
	.st86{fill:none;stroke:#70327E;stroke-linecap:round;stroke-miterlimit:10;}
	.st87{fill:#70327E;stroke:#70327E;stroke-linecap:round;stroke-linejoin:round;stroke-miterlimit:10;}
	.st88{fill:none;stroke:#70327E;stroke-width:0.5449;stroke-linejoin:round;stroke-miterlimit:10;}
	.st89{opacity:0.15;}
	.st90{fill:#FF4E15;}
	.st91{fill:none;stroke:#FFFFFF;stroke-width:0.5;stroke-linecap:round;stroke-miterlimit:10;}
	.st92{fill:#855191;}
	.st93{fill:none;stroke:#70327E;stroke-width:0.9405;stroke-linejoin:round;stroke-miterlimit:10;}
	.st94{fill:#FF4E15;stroke:#70327E;stroke-width:0.9405;stroke-linejoin:round;stroke-miterlimit:10;}
</style>
<g>
	<path class="st0" d="M179.5,106.4c0-4.6-2.3-5.4-2.3-9.9c0-2.5,0.7-6.6,2.4-6.6c-1.7,0-2.4-4.1-2.4-6.6c0-4.1,2.3-5.6,2.3-10.8
		c0-8.9-5.5-7.7-5.5-7.7l-0.1-4.4c0,0,10.1-1.8,10.1,12c0,4.5-1.9,7.8-1.9,11.4c0,3.4,4.2,3.4,4.2,3.4V92c0,0-3.3,0.4-3.3,4.5
		c0,4.7,2.5,4.7,2.5,9.3"/>
	<path class="st1" d="M165.4,106.4c0-4.6,2.3-5.4,2.3-9.9c0-2.5-0.7-6.6-2.4-6.6c1.7,0,2.4-4.1,2.4-6.6c0-4.1-2.3-5.6-2.3-10.8
		c0-8.9,5.5-7.7,5.5-7.7l0.1-4.4c0,0-10.1-1.8-10.1,12c0,4.5,1.9,7.8,1.9,11.4c0,3.4-4.2,3.4-4.2,3.4l1.2,4.8c0,0,2.1,0.5,2.1,4.6
		c0,4.7-2.5,4.7-2.5,9.3"/>
	<g class="st2">
		<path d="M177.5,88.3h1.4c0.8,0,1.4-0.6,1.4-1.4h0.9c0,1.3-1,2.3-2.3,2.3h-1C177.9,89.2,177.6,88.5,177.5,88.3z"/>
	</g>
	<g class="st2">
		<path d="M167.4,88.3H166c-0.8,0-1.4-0.6-1.4-1.4h-0.9c0,1.3,1,2.3,2.3,2.3h1C167,89.2,167.4,88.5,167.4,88.3z"/>
	</g>
	<path class="st3" d="M180.4,83.1c0,0,2.3-3.2,4.3-4.1c0.8-0.4,1.8-0.3,1.8,1.2"/>
	<path class="st4" d="M173.4,90.4c0,1.4,0,3.3-1.2,3.3c-1.2,0-1.2-1.9-1.2-3.3"/>
	<path class="st5" d="M180.5,87.9h-5.4c-1,0-1.8-0.8-1.8-1.8v-7.6c0-1,0.8-1.8,1.8-1.8h5.4c1,0,1.8,0.8,1.8,1.8v7.6
		C182.4,87.1,181.5,87.9,180.5,87.9z"/>
	<ellipse class="st6" cx="176.6" cy="82.5" rx="1.9" ry="4.1"/>
	<ellipse class="st7" cx="176.1" cy="82.8" rx="0.8" ry="1.2"/>
	<path class="st5" d="M169,87.9h-5.4c-1,0-1.8-0.8-1.8-1.8v-7.6c0-1,0.8-1.8,1.8-1.8h5.4c1,0,1.8,0.8,1.8,1.8v7.6
		C170.8,87.1,170,87.9,169,87.9z"/>
	<ellipse class="st6" cx="164.8" cy="82.5" rx="1.9" ry="4.1"/>
	<ellipse class="st7" cx="164.3" cy="82.8" rx="0.8" ry="1.2"/>
	<path class="st8" d="M170.8,82.5c0,0,1-0.9,2.4,0"/>
</g>
<g>
	<g>
		<path class="st9" d="M213.8,101.1c-4.1-12.4-2-20.7-1.9-21.1l2.7,0.7l-1.4-0.4l1.4,0.4c0,0.1-1.9,7.9,1.8,19.5L213.8,101.1z"/>
		<path class="st2" d="M211.1,82.9c0,0,1.1,1.2,3.4,1.4c0-0.3,0.1-1.2,0.2-1.5l-3.4-1.3C211.3,81.5,211.1,81.9,211.1,82.9z"/>
	</g>
	<g>
		<path class="st9" d="M219.4,101.1c-4.1-12.4-2-20.7-1.9-21.1l2.7,0.7l-1.4-0.4l1.4,0.4c0,0.1-1.9,7.9,1.8,19.5L219.4,101.1z"/>
	</g>
	<path class="st2" d="M216.6,84.4c0,0,2.7-0.2,3.6-1c0,0,0.1-1.1,0.1-1.3l-3.7,1C216.7,83.1,216.7,83.7,216.6,84.4z"/>
	<ellipse class="st10" cx="216" cy="71.9" rx="9.7" ry="11.1"/>
	<g>
		<ellipse class="st11" cx="216.4" cy="72.3" rx="1.5" ry="4.2"/>
		<ellipse class="st7" cx="216" cy="73.2" rx="0.5" ry="1.2"/>
	</g>
	<path class="st12" d="M209.1,67c0,0,0-1.4,1-1.6"/>
	<path class="st12" d="M218.1,67c0,0,0-1.4-1-1.6"/>
	<g>
		<ellipse class="st11" cx="210.6" cy="72.3" rx="1.5" ry="4.2"/>
		<ellipse class="st7" cx="210.2" cy="73.2" rx="0.5" ry="1.2"/>
	</g>
</g>
<g>
	<g>
		<g>
			<defs>
				<path id="SVGID_1_" d="M216.7,101.9h-12.1c0-4-2.7-7.2-6-7.2s-6,3.3-6,7.2h-12.1c0-12.1,8.1-22,18.1-22S216.7,89.7,216.7,101.9z
					"/>
			</defs>
			<clipPath id="SVGID_00000181776455111182725470000004238863195251445131_">
				<use xlink:href="#SVGID_1_"  style="overflow:visible;"/>
			</clipPath>
			<g style="clip-path:url(#SVGID_00000181776455111182725470000004238863195251445131_);">
				<path class="st14" d="M182.6,102.3c0-10.8,7.2-19.6,16.1-19.6s16.1,8.8,16.1,19.6"/>
			</g>
			<g style="clip-path:url(#SVGID_00000181776455111182725470000004238863195251445131_);">
				<path class="st15" d="M186.6,101.9c0-8.1,5.4-14.6,12-14.6c6.6,0,12,6.6,12,14.6"/>
			</g>
			<g style="clip-path:url(#SVGID_00000181776455111182725470000004238863195251445131_);">
				<path class="st16" d="M190.7,101.9c0-5.4,3.6-9.7,8-9.7c4.4,0,8,4.4,8,9.7"/>
			</g>
		</g>
		<g>
			<path class="st17" d="M216.7,101.9h-12.1c0-4-2.7-7.2-6-7.2s-6,3.3-6,7.2h-12.1c0-12.1,8.1-22,18.1-22S216.7,89.7,216.7,101.9z"
				/>
		</g>
	</g>
	<path class="st12" d="M199.7,90.9c0,0-0.2,2.1-1.5,2.1c-1.3,0-1.5-2.1-1.5-2.1"/>
	<polygon class="st18" points="197,93.9 195.3,94.7 196.2,96.5 198.9,95.9 199.2,94.3 	"/>
	<g>
		<g>
			<path class="st11" d="M195.3,89.6c-0.6-5.2-3.3-5.2-3.9,0c-0.8,1.1-0.6-2.5-0.4-2.9c0.3-1.9,2.6-3.1,4-1.4c1,1.2,1,2.9,0.8,4.3
				C195.8,89.9,195.3,89.9,195.3,89.6L195.3,89.6z"/>
		</g>
		<path class="st12" d="M190.5,84.6c0,0-0.1-1.2,1.1-1.4"/>
	</g>
	<g>
		<g>
			<path class="st11" d="M200.7,89.6c-0.2-1.4-0.2-3.1,0.8-4.3c1.4-1.6,3.7-0.5,4,1.4c0.2,0.4,0.4,4-0.4,2.9c-0.6-5.2-3.3-5.2-3.9,0
				C201.2,89.9,200.8,89.9,200.7,89.6L200.7,89.6z"/>
		</g>
		<path class="st12" d="M206,84.6c0,0,0.1-1.2-1.1-1.4"/>
	</g>
</g>
<g>
	<path class="st19" d="M160.1,85.5c-0.9-4.7-1.8-8.5-2.6-11.7c1.2-1.5,3-3.7,4.3-5.2l-1.5-4.1c-1.2,1.3-2.9,3.4-4.1,4.9
		c-2.9-9.3-5.5-10.6-7.7-10.4c-0.9,0.1-2.3,0.6-3.5,2.1c-1.7,2.3-2.7,6.6-2.8,12.6c-0.1,4.3,0.2,9.1,0.9,13.3c-4,5.8-5.3,8-5.4,8
		l4.4,0c0-0.1-0.6,0.9,2-3c3.4,14.5,9.1,22.9,15.3,22.2c0.2,0,0.4,0,0.6-0.1c0.6-0.1,1.5-0.5,2.2-1.5c2.3-3.4,0.9-12.5-1.7-25.2
		C160.4,86.7,160.2,86,160.1,85.5z M147.9,63.9c0.4-0.5,1.5-0.7,2,0c0.8,1.3,2,3.8,3.5,9.2c-2.5,3.2-4.9,6.4-7.1,9.5
		C145.5,75,145.9,66.7,147.9,63.9z M159.2,110.7C159.2,110.7,159.2,110.7,159.2,110.7c-3.8,0.4-9.1-7.1-12.1-22.6c0-0.1,0-0.1,0-0.2
		c2.2-3.2,4.7-6.7,7.5-10.3c0.6,2.5,1.2,5.3,1.9,8.7c0.1,0.5,0.3,1.3,0.4,2.2c0.7,3.1,1.8,8.4,2.4,13.2
		C160.1,108.5,159.4,110.3,159.2,110.7z"/>
	<path class="st9" d="M145.3,96.7c-0.4,0.1-0.4,0.2-0.7,0.2c-0.3,0.1-0.6,0.1-0.9,0.2c-0.6,0.1-1.2,0.2-1.7,0.3
		c-1.2,0.1-2.3,0.2-3.5,0.2c-2.3,0-4.6-0.2-6.8-0.5l-1.7-0.3c-0.6-0.1-1.1-0.2-1.7-0.3c-1.1-0.2-2.2-0.5-3.3-0.8
		c-1.1-0.3-2.1-0.7-3.2-1c-1.1-0.4-2.1-0.8-3.2-1.1c-0.6-0.2-0.9-0.8-0.7-1.4c0.2-0.5,0.8-0.8,1.3-0.7l0.1,0c1,0.3,2.1,0.6,3.1,0.9
		c1,0.2,2.1,0.5,3.1,0.8c1.1,0.2,2.1,0.4,3.2,0.6c0.5,0.1,1.1,0.2,1.6,0.2l1.6,0.2c2.1,0.2,4.2,0.2,6.3,0.1c1-0.1,2.1-0.2,3.1-0.4
		c0.5-0.1,1-0.2,1.5-0.3c0.2-0.1,0.5-0.1,0.7-0.2c0.2-0.1,0.6-0.2,0.6-0.2C144.7,93.9,145.1,95.9,145.3,96.7z"/>
	<path class="st2" d="M143.5,93.1c0,0,0,2.3,0.5,4.4c0.4-0.1,0.9-0.2,1.1-0.3c0-0.1,0-3.8-0.9-4.3C144,92.9,143.7,93,143.5,93.1z"/>
	<path class="st20" d="M144.2,92.2c3.4,14.5,9.1,22.9,15.3,22.2"/>
	<g>
		
			<ellipse transform="matrix(0.9506 -0.3104 0.3104 0.9506 -20.5892 51.097)" class="st21" cx="150.3" cy="90.2" rx="1.5" ry="3.5"/>
		<ellipse transform="matrix(0.9506 -0.3104 0.3104 0.9506 -20.3641 50.7819)" class="st7" cx="149.4" cy="89.4" rx="0.5" ry="1"/>
	</g>
	<g>
		
			<ellipse transform="matrix(0.9506 -0.3104 0.3104 0.9506 -19.9202 52.0272)" class="st21" cx="153.5" cy="88.6" rx="1.5" ry="3.5"/>
		<ellipse transform="matrix(0.9506 -0.3104 0.3104 0.9506 -19.695 51.7122)" class="st7" cx="152.6" cy="87.7" rx="0.5" ry="1"/>
	</g>
</g>
<g>
	<path class="st22" d="M234.6,72.7l-0.7,3.9c0,0-3.7-1-4.2-1c0,0.5-2.6,8.5-0.6,23.1c-3.5,0.3-6,0.2-6,0.2s-3-14.6,0.5-28
		c0.2-0.7,0.9-1.1,1.5-0.9C228,70.7,234.6,72.7,234.6,72.7z"/>
	<path class="st22" d="M240.5,74l-0.7,4c0,0,1.8,0.6,2,0.7c-0.1,0.6-1.6,6.6-1.5,19.8c1,0,3.6,0.1,3.6,0.1s-1.1-8.1,2.3-22.5
		C245.4,75.6,242.7,74.6,240.5,74z"/>
	<g>
		
			<ellipse transform="matrix(5.676292e-02 -0.9984 0.9984 5.676292e-02 135.7577 312.2899)" class="st23" cx="233.2" cy="84.3" rx="3.9" ry="1.5"/>
		
			<ellipse transform="matrix(0.9998 -1.821768e-02 1.821768e-02 0.9998 -1.4737 4.2713)" class="st7" cx="233.7" cy="83" rx="0.6" ry="1.2"/>
	</g>
	<g>
		
			<ellipse transform="matrix(5.676292e-02 -0.9984 0.9984 5.676292e-02 139.7971 317.5711)" class="st23" cx="238" cy="84.8" rx="3.9" ry="1.5"/>
		
			<ellipse transform="matrix(0.9998 -1.821768e-02 1.821768e-02 0.9998 -1.482 4.3591)" class="st7" cx="238.5" cy="83.5" rx="0.6" ry="1.2"/>
	</g>
	<g>
		<path class="st24" d="M235.7,91.9c-4.4,2.2-5.3-4.6-5.3-4.6s-0.5,6.9,1.9,7.7c0.4,0.2,1.3-0.4,1.4-2.6"/>
	</g>
</g>
<g>
	<polygon class="st25" points="241.6,130.3 241.3,134.6 257.7,134.8 256.6,130.4 	"/>
	<path class="st25" d="M241.3,134.6l-88.2,0.2l-4.8-30l-3,0.1l-0.4-4.2c0,0,49.5-3.7,101.9-3.3c0,2-0.6,4.4-0.6,4.4h-2.8
		L241.3,134.6z"/>
	<path class="st26" d="M243.4,104.1c0,0-39.2-1.6-94.6,2.5c-0.8-1.3-0.4-1.8-0.4-1.8s49.6-3.9,95-2.9
		C243.3,102.9,243.4,104.1,243.4,104.1z"/>
	<g>
		<path class="st26" d="M153.3,134.9l0-1.2c0.6,0,61.1-0.7,106.2-0.2l0,1.2C214.4,134.2,153.9,134.9,153.3,134.9z"/>
	</g>
	<path class="st26" d="M158.9,135.1c-0.1-1.2-0.1-2.4,0.1-3.6c1.2-6.3,7.3-10.4,13.6-9.2c4.6,0.9,8,4.4,9.1,8.7
		C182.1,132.5,161.6,134.3,158.9,135.1z"/>
	<path class="st26" d="M204,135.1c-0.1-1.2-0.1-2.4,0.1-3.6c1.2-6.3,7.3-10.4,13.6-9.2c4.6,0.9,8,4.4,9.1,8.7
		C227.1,132.5,206.7,134.3,204,135.1z"/>
	<path class="st27" d="M148.2,104.9c0.4,2.8,4.8,30,4.8,30s43.1,0,88.1,0l2.4-32.9"/>
	<path class="st27" d="M145.5,104.9l-0.7-4.2c57.4-3.5,102.2-3.3,102.2-3.3l-0.9,4.4C246.1,101.9,201.4,100.8,145.5,104.9z"/>
	<g>
		<path class="st27" d="M241.8,130.5c7.2,0,13,0,16.7,0l-0.8,4.3c-3.5,0-10.7,0-16.5,0"/>
	</g>
	<g>
		<path class="st7" d="M216.4,147.9c-1-0.2-2-0.5-2.9-1c-2.9-1.4-5.2-3.9-6.3-6.9c-1.1-3.1-0.9-6.4,0.5-9.3c2.4-5,7.9-7.8,13.3-6.7
			c1,0.2,2,0.5,2.9,1c2.9,1.4,5.2,3.9,6.3,6.9c1.1,3.1,0.9,6.4-0.5,9.3C227.3,146.1,221.8,148.9,216.4,147.9z"/>
		<g>
			<defs>
				<circle id="SVGID_00000096043017874594786180000002066721688763878283_" cx="218.7" cy="135.9" r="13.8"/>
			</defs>
			<clipPath id="SVGID_00000019657683971748208460000011398860688751256203_">
				<use xlink:href="#SVGID_00000096043017874594786180000002066721688763878283_"  style="overflow:visible;"/>
			</clipPath>
			<g style="clip-path:url(#SVGID_00000019657683971748208460000011398860688751256203_);">
				<line class="st27" x1="228.2" y1="115.8" x2="209.1" y2="155.9"/>
				<line class="st27" x1="198.6" y1="126.3" x2="238.7" y2="145.4"/>
				<line class="st27" x1="211.2" y1="115" x2="226.1" y2="156.8"/>
				<line class="st27" x1="197.8" y1="143.3" x2="239.6" y2="128.5"/>
			</g>
		</g>
		<circle class="st29" cx="218.7" cy="135.9" r="3.4"/>
		<path class="st30" d="M220.7,125.5L220.7,125.5c0.9,0.2,1.7,0.5,2.6,0.8c2.6,1.2,4.5,3.4,5.4,6c0.9,2.7,0.8,5.5-0.4,8.1
			c-2.1,4.4-6.8,6.8-11.6,5.9c-0.9-0.2-1.7-0.5-2.6-0.8c-2.6-1.2-4.5-3.4-5.4-6s-0.8-5.5,0.4-8.1C211.2,127,215.9,124.6,220.7,125.5
			 M221.3,122.3c-6-1.2-12.3,1.8-15.1,7.6c-3.3,6.9-0.4,15.1,6.5,18.4c1.1,0.5,2.2,0.9,3.3,1.1c6,1.2,12.3-1.8,15.1-7.6
			c3.3-6.9,0.4-15.1-6.5-18.4C223.5,122.9,222.4,122.5,221.3,122.3L221.3,122.3z"/>
	</g>
	<g>
		<path class="st7" d="M168.1,146.7c-5.7-3-8-9.9-5.4-15.8c2.8-6.1,10-8.9,16.1-6.1c0.2,0.1,0.5,0.2,0.7,0.4c5.7,3,8,9.9,5.4,15.8
			c-2.8,6.1-10,8.9-16.1,6.1C168.5,146.9,168.3,146.8,168.1,146.7z"/>
		<g>
			<defs>
				<circle id="SVGID_00000161630515799527520610000008357042440498612369_" cx="173.8" cy="135.9" r="13.8"/>
			</defs>
			<clipPath id="SVGID_00000121262199359257726430000001028103272029402301_">
				<use xlink:href="#SVGID_00000161630515799527520610000008357042440498612369_"  style="overflow:visible;"/>
			</clipPath>
			<g style="clip-path:url(#SVGID_00000121262199359257726430000001028103272029402301_);">
				<line class="st27" x1="182.8" y1="115.6" x2="164.7" y2="156.1"/>
				<line class="st27" x1="153.5" y1="126.8" x2="194" y2="145"/>
				<line class="st27" x1="165.9" y1="115.1" x2="181.7" y2="156.6"/>
				<line class="st27" x1="153" y1="143.8" x2="194.5" y2="128"/>
			</g>
		</g>
		<circle class="st29" cx="173.8" cy="135.9" r="3.4"/>
		<path class="st30" d="M180.2,123.7 M178.7,126.5c4.9,2.6,7,8.6,4.7,13.7c-1.2,2.6-3.3,4.6-5.9,5.6c-2.6,1-5.5,0.9-8.1-0.2
			c-0.2-0.1-0.4-0.2-0.6-0.3c-4.9-2.6-7-8.6-4.7-13.7c1.2-2.6,3.3-4.6,5.9-5.6c2.6-1,5.5-0.9,8.1,0.2
			C178.3,126.3,178.5,126.4,178.7,126.5L178.7,126.5z M180.2,123.7 M180.2,123.7c-0.3-0.1-0.5-0.3-0.8-0.4c-7-3.1-15.1,0-18.2,7
			c-3,6.7-0.2,14.5,6.1,17.8c0.3,0.1,0.5,0.3,0.8,0.4c7,3.1,15.1,0,18.2-7C189.4,134.8,186.6,127.1,180.2,123.7L180.2,123.7z"/>
	</g>
</g>
<path class="st2" d="M186,98.3c0,0-0.8,2.1,0,3c0.5,0.6,1.5,0.5,1.7,0.1C187.8,101,187.9,97.9,186,98.3z"/>
<path class="st9" d="M188.4,96.6c-0.7,0-2,0.4-2.2,2.4c-0.1,0.9,0.2,2.4,1.2,2.4c0.8,0,1.6-0.9,1.9-2.6
	C189.4,98.5,189.8,96.6,188.4,96.6z"/>
<path class="st2" d="M204.8,97.7c0,0-0.3,2.4,0.6,3.1c0.6,0.5,1.5,0.2,1.6-0.3C207.1,100.1,206.5,96.9,204.8,97.7z"/>
<path class="st9" d="M206.3,96c0.7,0,2,0.5,2.1,2.5c0.1,0.9-0.2,2.4-1.3,2.3c-0.8-0.1-1.5-1-1.9-2.7C205.2,97.9,204.9,95.9,206.3,96
	z"/>
<path class="st2" d="M195.1,98c0,0-0.3,4.9,1.3,9.9c0.1,0.5-0.5-0.1-0.5-0.1s-2.3-6.3-1.5-9.8C194.6,98,195.1,98,195.1,98z"/>
<path class="st32" d="M195.8,108.4l-2.5,4.9c-0.1,0.2-0.4,0.1-0.4-0.1l-0.2-1.8"/>
<g>
	<g>
		<path class="st9" d="M198.5,98.1c-1.8-3.6-3.5-3.9-4.7-3.8c-1.3,0.1-2.3,1-2.7,2.5c-1.1,3.6,0.3,8.5,1.2,11.1l0,0l-0.7,5.6
			l4.5-5.3c-0.8-1.8-2.5-6.9-1.7-10.1"/>
		<path class="st2" d="M195,96.5c0,0,0.4,0.6,0.6,1.6c0,0-1.1,0-1.1-0.1C194.5,98,194.8,96.5,195,96.5z"/>
		<path class="st33" d="M194.2,101.9c0,0-0.6-3.2,0.5-5.2"/>
	</g>
</g>
<path class="st32" d="M201.4,108.4l-2.5,4.9c-0.1,0.2-0.4,0.1-0.4-0.1l-0.2-1.8"/>
<path class="st2" d="M200.7,97.9c0,0-0.3,4.8,1.3,9.9c0.1,0.5-0.5-0.1-0.5-0.1s-2.4-6.1-1.5-9.7C200.3,98,200.7,97.9,200.7,97.9z"/>
<g>
	<g>
		<path class="st9" d="M204.1,97.9c-1.8-3.6-3.5-3.9-4.7-3.8c-1.3,0.1-2.3,1-2.7,2.5c-1.1,3.6,0.3,8.5,1.2,11l0,0l-0.6,5.6l4.4-5.3
			c-0.8-1.8-2.5-6.9-1.8-10"/>
		<path class="st2" d="M200.7,96.3c0,0,0.4,0.6,0.6,1.6c0,0-1.1,0.1-1.1,0.1C200.2,97.9,200.5,96.3,200.7,96.3z"/>
		<path class="st33" d="M199.9,101.7c0,0-0.6-3.2,0.5-5.2"/>
	</g>
	<path class="st34" d="M204.6,97.6c0,0-3.8,0.1-4.2,0.2c0,0.1-0.1,0.2-0.1,0.7c0.3,0.1,1.5,0,2.5-0.1
		C203.3,98.3,204.6,98.6,204.6,97.6z"/>
</g>
<g>
	<path class="st2" d="M165.2,101.6c0.5,0.1,1.7-0.4,2.4-1.9c0.2-0.4-0.8-0.1-0.8,0C166.8,99.9,165.2,101.6,165.2,101.6z"/>
	<g>
		<path class="st35" d="M169.2,99.2c0,0-0.8-3-3.3-2.5c-1.8,0.3-3.9,4.9-1.5,4.8c1.4,0,2.6-2.3,2.7-2.4"/>
	</g>
	<path class="st34" d="M170,98.9c0,0-2.7,0.1-2.7,0.1c0,0.1-0.1,0.7-0.1,0.7l2.7,0L170,98.9z"/>
	<path class="st2" d="M167.7,98.2c0,0,0.2,0.2,0.4,0.8c0,0-0.3,0.6-0.4,0.6c-0.1,0-0.3,0-0.4,0c-0.1,0,0.1-0.5,0.1-0.6
		C167.3,98.9,167.6,98.3,167.7,98.2z"/>
	<path class="st35" d="M166.7,99.7c0,0,0.7-1,0.8-1.2"/>
</g>
<path class="st2" d="M149.9,101c0,0,1,0.6,2,0.2c0.4-0.2,0.9-0.5,0.8-0.7c-0.2-0.2-0.4-0.1-0.8,0C151.4,100.5,150.1,101,149.9,101z"
	/>
<g>
	<g>
		<path class="st9" d="M155.8,100c0,0-1.7-3.9-5.4-2.1c-1.4,0.7-2.5,3.1-0.1,3c0.6,0,1.6-0.3,2.3-0.9"/>
	</g>
	<polygon class="st34" points="156.3,99.5 153,99.7 152.5,100.4 156.4,100.2 	"/>
</g>
<path class="st2" d="M227.9,97.2c0,0,0.1,4,3.2,3.7C232,100.8,229.2,97,227.9,97.2z"/>
<path class="st2" d="M242.9,97.2c0,0,0.1,4,3.2,3.7C247,100.8,244.1,97,242.9,97.2z"/>
<g>
	<path class="st36" d="M223.2,97.6c0,0,0.7-2.9,5-2.9c1.5,0,3.5,1.9,3.5,4.1c0,1-0.3,1.9-1.6,1.9c-1.3,0-3.2-0.9-3.7-3.4"/>
	<path class="st34" d="M222.6,97.2c0,0,3-0.1,3.6,0c0,0.3,0,0.7,0,0.7l-3.5,0L222.6,97.2z"/>
	<path class="st2" d="M226.2,96.4c0,0-0.7,0.1-1.2,0.7c-0.1,0.1,1.1,1.1,1.2,1S226.4,96.6,226.2,96.4z"/>
	<path class="st33" d="M226.8,98.7c0,0-0.4-0.7-0.6-1.9"/>
</g>
<g>
	<path class="st36" d="M240.1,97.4c0,0,0.7-2.9,5-2.9c1.5,0,3.4,2,3.4,4.1c0,1-0.3,1.9-1.7,1.9c-1.3,0-3.2-0.9-3.7-3.4"/>
	<path class="st34" d="M239.6,96.9c0,0,2.9-0.1,3.5,0c0,0.3,0,0.8,0,0.8l-3.5,0L239.6,96.9z"/>
	<path class="st2" d="M243.1,96.2c0,0-0.9,0.1-1,0.7c0,0.2,1.1,1.9,1.1,0.3C243.2,97,243.1,96.2,243.1,96.2z"/>
	<path class="st33" d="M243.7,98.5c0,0-0.4-0.7-0.5-1.9"/>
</g>
<g>
	<path class="st2" d="M172.7,101.3c0.5,0.1,1.7-0.4,2.4-1.9c0.2-0.4-0.8-0.1-0.8,0S172.7,101.3,172.7,101.3z"/>
	<g>
		<path class="st35" d="M176.7,98.9c0,0-0.8-3-3.3-2.5c-1.8,0.3-3.9,4.9-1.5,4.8c1.4,0,2.6-2.3,2.7-2.4"/>
	</g>
	<path class="st34" d="M177.3,98.5c0,0-2.4,0.1-2.5,0.1c0,0.1,0.1,0.6,0.1,0.6l2.5,0.2L177.3,98.5z"/>
	<path class="st2" d="M175.2,98c0,0,0.2,0.1,0.4,0.6c0,0-0.3,0.6-0.4,0.7c-0.3-0.1-0.5,0.1-0.3-0.6C174.9,98.7,175.1,98,175.2,98z"
		/>
	<path class="st35" d="M174.2,99.4c0,0,0.7-1,0.8-1.2"/>
</g>
<path class="st2" d="M153.3,98.8c0,0,0.5,0.5,0.5,1.1c0,0.2-0.9,0.2-0.8,0C152.9,99.7,153.3,99.2,153.3,98.8z"/>
<path class="st35" d="M151.7,100.5c0,0,0.8-0.1,1.3-1.4"/>
<path class="st37" d="M297.9,99.8l-8.4,1.6c-0.3,0.1-0.7-0.2-0.7-0.5l-1.6-8.4c-0.1-0.3,0.2-0.7,0.5-0.7l8.4-1.6
	c0.3-0.1,0.7,0.2,0.7,0.5l1.6,8.4C298.5,99.4,298.3,99.7,297.9,99.8z"/>
<g>
	<path class="st38" d="M346.4,67.1c0.2-0.9,0.3-2.3,0.3-2.5c0.6-8-1.3-16.7-5.3-25c-5.4-11-14.1-20.3-24.5-26.1
		c-10.4-5.8-23.3-8.4-37.2-7.6c-5.5,0.3-11,1.2-16.3,2.6c-8.1,2.1-16,5.3-23.2,9.6c-0.2,0.1-3.2,1.9-3.5,2.1"/>
	<path class="st39" d="M240.6,24.2c0.3-0.2,2.9-1.7,3.2-1.9c0.3-0.2,0.5-0.3,0.8-0.5c6.3-3.7,13.1-6.5,20.1-8.4c3-0.8,6-1.4,9-1.8
		c1.9-0.3,3.8-0.5,5.7-0.6c12.4-0.9,24.1,1.3,33.7,6.3c9.6,5,17.7,13.2,23,22.9c3.7,6.7,5.9,13.8,6.1,20.6c0,1,0,2.2,0,3.5
		c0,0.3-0.1,1.6-0.3,2.5"/>
	<path class="st40" d="M244.5,28.5c0.3-0.2,2.4-1.5,2.8-1.7c0.2-0.2,0.5-0.3,0.7-0.4c5.6-3.4,11.6-6,17.8-7.7c2.6-0.7,5.3-1.3,8-1.8
		c1.7-0.3,3.4-0.5,5.1-0.6c11-1,21.4,0.7,30.2,4.9c8.8,4.2,16.4,11.3,21.6,19.8c3.9,6.3,6.5,13,6.8,19.8c0,0.8,0.1,2.1,0.1,3.4
		c0,0.4-0.1,1.6-0.2,2.4"/>
	<path class="st41" d="M248.4,32.9c0.2-0.2,1.9-1.2,2.5-1.5c0.2-0.1,0.4-0.3,0.6-0.4c4.9-3.1,10.1-5.4,15.6-7c2.3-0.7,4.7-1.3,7-1.7
		c1.5-0.3,3-0.5,4.4-0.7c9.5-1,18.7,0.1,26.7,3.5c8,3.4,15.1,9.4,20.2,16.6c4.2,5.9,7,12.3,7.6,18.9c0,0.6,0.1,1.9,0.1,3.3
		c0,0.5,0,1.6-0.1,2.4"/>
	<path class="st42" d="M252.3,37.2c0.2-0.1,1.5-0.9,2.1-1.4c0.2-0.1,0.4-0.2,0.5-0.4c4.2-2.8,8.7-4.9,13.3-6.4c2-0.6,4-1.2,6-1.6
		c1.3-0.3,2.5-0.5,3.8-0.7c8.1-1.1,16-0.4,23.2,2.1c7.3,2.6,13.9,7.4,18.8,13.4c4.5,5.4,7.5,11.6,8.3,18c0,0.4,0.2,1.7,0.2,3.2
		c0,0.6,0,1.6,0,2.3"/>
	<path class="st43" d="M256.1,41.7c0.2-0.1,1.3-0.8,2.2-1.5c4.9-3.5,10.5-5.9,16.1-7.3c7.6-1.9,15.5-2,22.9-0.1
		c6.5,1.7,12.7,5.4,17.4,10.2c4.8,4.9,7.9,10.8,9,17.1c0.1,0.4,0.4,3.1,0.4,5.4"/>
	<circle class="st7" cx="277.8" cy="21.2" r="0.3"/>
	<circle class="st7" cx="290.4" cy="20.2" r="0.3"/>
	<circle class="st7" cx="283.4" cy="11.5" r="0.5"/>
	<circle class="st7" cx="286.2" cy="26.1" r="0.5"/>
	<circle class="st7" cx="289.5" cy="7.1" r="0.5"/>
	<circle class="st7" cx="277.7" cy="6.7" r="0.5"/>
	<g>
		<line class="st44" x1="278.9" y1="31.5" x2="279.1" y2="31"/>
		<line class="st44" x1="278.2" y1="32.8" x2="278.4" y2="32.3"/>
		<line class="st44" x1="278.3" y1="31.7" x2="278" y2="31.6"/>
		<line class="st44" x1="279.3" y1="32.3" x2="279" y2="32.1"/>
	</g>
	<path class="st45" d="M257.7,43.9c11.6-9.4,28.9-12.3,42.4-7.1c14.2,5.4,18.8,17.1,20.2,21.2"/>
	<path class="st45" d="M249.9,9.5c23.7-9.7,51.4-9.9,71.9,3.3c23.8,15.3,26.8,39.7,27.6,45.5"/>
	<circle class="st7" cx="323.8" cy="56" r="0.3"/>
	<circle class="st7" cx="344.2" cy="50.8" r="0.3"/>
	<circle class="st7" cx="332.8" cy="54" r="0.3"/>
	<circle class="st7" cx="311.3" cy="35.3" r="0.3"/>
	<circle class="st7" cx="335.4" cy="44.8" r="0.3"/>
	<circle class="st7" cx="340.5" cy="35.8" r="0.3"/>
	<circle class="st7" cx="324.2" cy="27.1" r="0.3"/>
	<circle class="st7" cx="327.6" cy="20.3" r="0.3"/>
	<circle class="st7" cx="336.6" cy="29.3" r="0.3"/>
	<circle class="st7" cx="318.7" cy="43.9" r="0.3"/>
	<circle class="st7" cx="311.9" cy="27.2" r="0.5"/>
	<circle class="st7" cx="326.2" cy="49.9" r="0.5"/>
	<circle class="st7" cx="310.4" cy="39.9" r="0.5"/>
	<circle class="st7" cx="333.6" cy="48.2" r="0.5"/>
	<circle class="st7" cx="310.5" cy="10.6" r="0.5"/>
	<circle class="st7" cx="334" cy="34.9" r="0.5"/>
	<circle class="st7" cx="341" cy="55.2" r="0.5"/>
	<circle class="st7" cx="316.3" cy="22.6" r="0.5"/>
	<circle class="st7" cx="322.1" cy="18.5" r="0.5"/>
	<circle class="st7" cx="344.2" cy="45.2" r="0.5"/>
	<circle class="st7" cx="331.7" cy="26.1" r="0.5"/>
	<circle class="st7" cx="248.2" cy="27.5" r="0.3"/>
	<circle class="st7" cx="247.7" cy="32.1" r="0.5"/>
	<circle class="st7" cx="257.5" cy="27" r="0.5"/>
	<circle class="st7" cx="321" cy="33.3" r="0.5"/>
	<g>
		<line class="st44" x1="329.2" y1="38.2" x2="329.6" y2="37.8"/>
		<line class="st44" x1="328.3" y1="39.3" x2="328.7" y2="38.9"/>
		<line class="st44" x1="328.6" y1="38.3" x2="328.4" y2="38.1"/>
		<line class="st44" x1="329.5" y1="39" x2="329.3" y2="38.8"/>
	</g>
	<circle class="st7" cx="265.8" cy="24.3" r="0.5"/>
	<circle class="st7" cx="273.5" cy="25.6" r="0.5"/>
	<g>
		<line class="st44" x1="271" y1="19.1" x2="271.3" y2="18.6"/>
		<line class="st44" x1="270" y1="20.2" x2="270.4" y2="19.7"/>
		<line class="st44" x1="270.4" y1="19.1" x2="270.1" y2="18.9"/>
		<line class="st44" x1="271.2" y1="19.9" x2="271" y2="19.7"/>
	</g>
	<g>
		<line class="st44" x1="316.9" y1="14.4" x2="317.2" y2="14.9"/>
		<line class="st44" x1="316.2" y1="13.1" x2="316.5" y2="13.6"/>
		<line class="st44" x1="317.1" y1="13.8" x2="317.3" y2="13.7"/>
		<line class="st44" x1="316.1" y1="14.3" x2="316.3" y2="14.2"/>
	</g>
	<circle class="st7" cx="296.9" cy="23" r="0.5"/>
	<circle class="st7" cx="303.7" cy="35.2" r="0.5"/>
	<circle class="st7" cx="302" cy="26.9" r="0.5"/>
	<g>
		<line class="st44" x1="297.8" y1="31.3" x2="298.4" y2="31.3"/>
		<line class="st44" x1="296.4" y1="31.4" x2="297" y2="31.4"/>
		<line class="st44" x1="297.4" y1="30.9" x2="297.4" y2="30.6"/>
		<line class="st44" x1="297.4" y1="32.1" x2="297.4" y2="31.8"/>
	</g>
	<circle class="st7" cx="271.1" cy="34.1" r="0.3"/>
	<circle class="st7" cx="302.6" cy="8.9" r="0.3"/>
	<circle class="st7" cx="253.2" cy="13.7" r="0.3"/>
	<circle class="st7" cx="247.5" cy="9.4" r="0.5"/>
	<circle class="st7" cx="309.2" cy="15.7" r="0.5"/>
	<circle class="st7" cx="251.4" cy="16.4" r="0.5"/>
	<circle class="st7" cx="261.7" cy="17.2" r="0.5"/>
	<circle class="st7" cx="296.3" cy="17.3" r="0.5"/>
	<circle class="st7" cx="272.2" cy="13.6" r="0.5"/>
	<circle class="st7" cx="265.1" cy="8.5" r="0.3"/>
	<g>
		<line class="st44" x1="305.2" y1="19.9" x2="305.5" y2="19.3"/>
		<line class="st44" x1="304.5" y1="21.1" x2="304.8" y2="20.6"/>
		<line class="st44" x1="304.6" y1="20" x2="304.4" y2="19.9"/>
		<line class="st44" x1="305.6" y1="20.6" x2="305.4" y2="20.4"/>
	</g>
	<g>
		<line class="st44" x1="245.3" y1="15.8" x2="245.6" y2="16.3"/>
		<line class="st44" x1="244.4" y1="14.7" x2="244.8" y2="15.1"/>
		<line class="st44" x1="245.3" y1="15.2" x2="245.6" y2="15"/>
		<line class="st44" x1="244.5" y1="15.9" x2="244.7" y2="15.7"/>
	</g>
	<path class="st46" d="M296.1,20.8"/>
	<g>
		<path class="st7" d="M262.3,39c0,0-0.7-4-4.7-5.5l0.1-0.3c1.7-1.9,1.8-4.9,0-6.9c-0.3-0.3-0.6-0.6-1-0.8l0.1-0.1
			c2.2-5,0.7-10.9-3.4-14.2c-3.5-2.8-8.4-3.4-12.6-1.4l-0.1,0.1c-0.9-0.9-1.9-1.7-3.2-2.4c-0.6-0.4-7.1-3.9-13.9-0.6
			c-5,2.5-8.8,8.1-8.1,14c0.5,4.6,3.5,7.5,4.6,8.5l0.3-0.1c-1.1,1.1-2,2.5-2.2,4.1c-0.2,1.4,0,2.8,0.5,4.1l-0.2,0
			c-3.8,3.4-5.2,8.6-3.7,13.2c2.4,7.1,10.3,8.3,11,8.4c4.4,0.6,10.4-1.1,13.1-5.8l0.2,0.2c0.2,0.2,3.1,2.1,6.1,1.2
			c2.5-0.8,3.6-2.5,3.7-2.8c2.8,0.6,5.2,0.1,7.8-1.3C261,48,262.7,43.9,262.3,39z"/>
		<path class="st47" d="M240.3,44.9c0,0,1.6,3.3,0,8.8c-0.1,0.3-0.8-0.2-0.8-0.2l-0.4-0.3C239.1,53.2,240.8,50.2,240.3,44.9z"/>
		<path class="st47" d="M223.9,41.8l-3.6-2l-1.8-2.5l-0.9,1.1C217.7,38.4,220,41.6,223.9,41.8z"/>
		<path class="st47" d="M240.7,9.8l1.9,2.5l2.3,4.8c0,0,0.4-4.2-2.7-7.7C241.8,8.9,240.7,9.8,240.7,9.8z"/>
		<path class="st47" d="M250.9,25.4l2.8-0.8l2.9,0.8l0.4-1.2C257,24.3,252.6,22.7,250.9,25.4z"/>
		<path class="st47" d="M256.5,34.7c0,0,1.6,0,2-0.6c0.1-0.1-0.8-0.5-0.8-0.5S257.3,34.2,256.5,34.7z"/>
		<path class="st47" d="M220.2,29.2l2.4-1.7l3.4-0.6c0,0-4.1-1.1-6.5,1.3C219.1,28.6,220,29,220.2,29.2z"/>
		<path class="st48" d="M256.8,25.4c2.2-5,0.7-10.9-3.4-14.2c-3.5-2.8-8.4-3.3-12.5-1.4"/>
		<path class="st48" d="M226.3,27.3c-3.8-0.5-7.4,2.2-8,6c-0.6,3.8,1.9,7.5,5.7,8.2"/>
		<path class="st48" d="M218.6,37.3c-3.8,3.4-5.2,8.6-3.7,13.2c2.4,7.1,10.3,8.3,10.9,8.4c4.6,0.6,10.7-1.1,13.3-6.2
			c2-4.1,0.7-8.3,0.4-9.3"/>
		<path class="st48" d="M239.1,53.2c0.2,0.2,2.7,2.2,6,1.3c2.8-0.8,4.1-3.1,4.5-3.9"/>
		<path class="st48" d="M244.7,17c-0.3-1.1-1.8-6.4-7.2-9.5c-0.6-0.4-7.1-3.9-13.9-0.6c-5,2.5-8.8,8.1-8.1,14
			c0.5,4.6,3.5,7.5,4.6,8.4"/>
		<path class="st48" d="M251.1,25.6c2.4-1.5,5.6-0.7,7.1,1.7s0.7,5.6-1.7,7.1"/>
	</g>
</g>
<g>
	<path class="st49" d="M244.8,34.9l4.4,21.6l21.9-3.1c0,0-1.6-5.9-5.1-24.7C264.3,28.8,245.9,34.4,244.8,34.9z"/>
	<g>
		<g>
			
				<ellipse transform="matrix(0.9695 -0.2451 0.2451 0.9695 -2.3631 63.9225)" class="st50" cx="255.7" cy="41.5" rx="1.4" ry="4.1"/>
		</g>
		<line class="st51" x1="254.7" y1="37.6" x2="254.3" y2="36.2"/>
		<line class="st51" x1="254.2" y1="38.7" x2="252.9" y2="38"/>
		<line class="st51" x1="255.8" y1="38.2" x2="256.6" y2="37"/>
	</g>
	<g>
		<g>
			
				<ellipse transform="matrix(0.9695 -0.2451 0.2451 0.9695 -2.8653 62.5342)" class="st50" cx="249.9" cy="42.8" rx="1.4" ry="4.1"/>
		</g>
		<line class="st51" x1="248.8" y1="38.9" x2="248.5" y2="37.5"/>
		<line class="st51" x1="248.3" y1="40" x2="247.1" y2="39.4"/>
		<line class="st51" x1="249.9" y1="39.5" x2="250.7" y2="38.4"/>
	</g>
	<path class="st51" d="M256.3,48.4c0,0-4.1-1.5-3.5,1.1"/>
</g>
<g>
	<path class="st2" d="M263.2,42.8c0,0,0.3,5.6,2.9,10.9c0.5-0.1,3.3-0.4,3.3-0.4S263.9,44.9,263.2,42.8z"/>
	<path class="st35" d="M268.4,53.5c-1.3-1.5-3.4-5.1-4.8-10.4c-0.3-1,0.3-2,1.3-2.3c1-0.3,2,0.3,2.3,1.3c1,3.7,3.1,8.2,4.4,8.8
		c0.3,0.1,1.8-0.2,2.3,0.1c0.3,0.2,0.7,1,0.3,2.1"/>
</g>
<path class="st35" d="M273.1,50.9c0,0-1.9,0.1-3.1,0.5"/>
<g>
	<path class="st35" d="M291.3,52.8c0,0-2.5-1.4-3.4-2.1c0-3.6-0.8-8.2-1.1-10.5l-1.9,0.3c0.3,2.1,1.3,8.4,1.1,12.4L291.3,52.8z"/>
	<path class="st2" d="M285.6,50.5l3.3,2c0,0-3.3,0.1-3.3,0.1C285.6,51.7,285.6,50.5,285.6,50.5z"/>
	<path class="st2" d="M284.9,43.6c0,0,3,2.5,3.2,3.2c0.1,0.2,0-0.2,0-0.2l-0.1-1.4l-1.4-2.2l-2.1-1.8
		C284.5,41.1,284.7,42.1,284.9,43.6z"/>
	<path class="st35" d="M287.6,52.8c0,0-2.4-1.5-3.4-2.2c0-3.6-0.6-8.2-0.7-9.3l-1.9,0.2c0.1,1,1,7.2,0.7,11.2L287.6,52.8z"/>
	<path class="st2" d="M281.6,45.6c0,0,0.2,1,0.2,1.2c0.1-0.1,2.3-2.3,2.6-2.9c0-0.3-0.2-1.9-0.2-2.1
		C284.1,41.7,281.4,44.5,281.6,45.6z"/>
	<path class="st52" d="M288.9,46.2l2-1c0,0-0.4-3-2.6-8.9c0.7-0.7,3.6-3.9,5.1-9.7c-0.5-0.6-1.7-1.9-1.7-1.9s-1.5,3.4-4.5,5.2
		c-0.1-1.1-2.2-8.4-3.2-10.4c-0.7,0.2-1.9,0.6-2.3,0.7c0,0.4,0.3,8.4-0.4,10.3c-0.8-0.2-2.9-0.5-5.7-4c-0.5,0.5-1.1,1.1-1.6,1.5
		c0.1,0.7,1.6,3.9,5.6,8.7c0.1,1.9-0.2,4.6-1.7,9.3c1.1,0.8,1.6,1.1,1.9,1.3c0.4-0.3,4.2-6,4.6-6.9
		C285.3,41.4,288.1,44.7,288.9,46.2z"/>
	<g>
		
			<ellipse transform="matrix(0.9926 -0.1216 0.1216 0.9926 -2.0084 34.6963)" class="st34" cx="283.4" cy="33.8" rx="1.1" ry="2.5"/>
		<ellipse transform="matrix(0.9926 -0.1216 0.1216 0.9926 -1.932 34.7116)" class="st7" cx="283.5" cy="33.2" rx="0.5" ry="0.9"/>
	</g>
	<g>
		<ellipse transform="matrix(0.9926 -0.1216 0.1216 0.9926 -1.9477 35.05)" class="st34" cx="286.3" cy="33.5" rx="1.1" ry="2.5"/>
		<ellipse transform="matrix(0.9926 -0.1216 0.1216 0.9926 -1.8713 35.0653)" class="st7" cx="286.4" cy="32.9" rx="0.5" ry="0.9"/>
	</g>
	<g>
		<path class="st27" d="M285.7,37.8c0,0-3,1.8-4.3-1.5"/>
	</g>
	<path class="st27" d="M278,37c0,0-2.9,1.5-3.1,1.7"/>
	<line class="st27" x1="289.9" y1="36.8" x2="292.8" y2="38"/>
	<line class="st27" x1="287.9" y1="27.2" x2="288.7" y2="24.1"/>
	<line class="st27" x1="279.9" y1="27.8" x2="278.2" y2="24.5"/>
</g>
<g>
	<polygon class="st25" points="292.8,43.9 293.8,53.3 298.5,53.7 299.7,48.1 296.5,49 299.5,45.7 299.7,41.6 	"/>
	<path class="st25" d="M256.1,55.1l13.6-1.6l9.8-0.5l12.9-0.1l10.7,0.9l1.8,39.5l5.4-0.3l-0.1-7l0.3-0.9l1.1-0.5l4.2-0.1l1.3,0.9
		l0.3,1.1l-0.1,6.5l6.5-0.3l-3.3-29.7l-0.7,0.2l-1.6-4.7l17.5-0.5l16.6,0.9l-1,4.2l-0.8,0.1L347.1,93l3,0.2l2.2,15.1l-2.2,15.4
		l16.5,24.8l-25.4-0.2L334,135l-0.3,7.6l-28.9,0.1l-0.1-7.8l-7.7,0.1l-39.7-9.6l-7.9-64.2L246,57L256.1,55.1z M254.6,61.4
		c0,0,3.8,34.2,4,36c10.1-1.1,41.6-0.7,41.6-0.7l-1.7-37.5C275.2,57.2,254.6,61.4,254.6,61.4z"/>
	<polygon class="st26" points="327.5,62.7 327,57.9 318.1,58.1 320.1,62.8 	"/>
	<polygon class="st26" points="331,92.5 328.7,62.6 320.5,62.9 323.8,92.4 	"/>
	<polygon class="st26" points="311.6,84.3 311.7,92.7 310.2,92.8 310.1,85.5 311.2,84.3 	"/>
	<polygon class="st26" points="292.5,43.7 293.8,52.7 295.1,52.7 294.9,48.9 295.5,47.9 295.7,42.7 	"/>
	<polygon class="st26" points="245.9,56.9 249.5,61.4 257.6,126.6 258.8,120 251.3,60 248.2,56.5 	"/>
	<path class="st26" d="M309.3,93c0,0-3.2,18.2,0.8,30.4c-1.3,0.1-3.7,0-3.7,0L305,93.2L309.3,93z"/>
	<path class="st26" d="M319.6,134.6l-14.8,0.4l0.1,1.6c0,0-0.1,2.9-0.2,3c-0.8,1.4,13.2,3.7,12.4,0.3c-0.4-1.5-1.3-2.8-2.5-3.7
		c2.8,0,6.1,0,9.5,0.1c-2.1,1.5-3.2,4.2-2.6,6.9c0.9,3.5,12.5-3.3,12.3-3.8c-0.3-0.5,0-2.5,0.2-2.5c0.3-1.2,0.1-2,0.1-2L319.6,134.6
		z"/>
	<polygon class="st25" points="333.3,123.1 332.4,134.8 334.2,134.7 335.1,123.4 	"/>
	<polygon class="st26" points="298.3,58.7 299.5,58.8 301.6,97.1 300,97.1 	"/>
	<path class="st26" d="M334.8,125.4c0,0-23.3-0.6-36.6,0.5c-1-1.1-1.1-1.8-1.1-1.8s27.4-1.2,37.7-0.7
		C334.8,124.2,334.8,125.4,334.8,125.4z"/>
	<path class="st26" d="M308.7,123.4c0,0,27.9-0.9,40.9,0.2c0.5-0.7,0.8-1.8,0.8-1.8s-18.1-1.1-41.8-0.1"/>
	<path class="st26" d="M257.2,125.3c-0.2-6.5,3.2-12.7,9.3-15.5c4.3-2,9.1-1.8,13.2,0C283.4,111.5,257.3,127.6,257.2,125.3z"/>
	<g>
		<path class="st53" d="M266.4,97l-4.1,0.2c1.5-1.2,0.7-3.1,0.6-3.4c-0.5,0.3-1.1,0.6-2.3,0.2c1.2-2.1,1.1-4.3,1-5.2
			c0,0,2.3-0.5,2.5-0.7"/>
	</g>
	<polyline class="st27" points="304.7,134.8 304.9,141 333.7,141 335,123.7 	"/>
	<path class="st27" d="M269.6,136.3c32.5-2.3,64.6-1.5,64.6-1.5l7,13.3c9.2-0.2,25.3,0,25.3,0L350,123.6"/>
	<path class="st27" d="M305.2,93.2c21.1-1.4,44.8,0,44.8,0l2.2,15.2c0,0,0,0-2.2,15.2c-27.8-0.9-43.8,0-43.8,0"/>
	<path class="st27" d="M257.5,126.8c0,0,23.2-2.5,48.7-3.3c-0.1-5.1-3.1-70-3.1-70s-22.1-3.3-57.3,3.3c1.1,1.4,3.5,4.4,3.5,4.4
		L257.5,126.8z"/>
	<path class="st27" d="M310.2,92.8l0-6.9c0.1-0.9,1-1.6,2.1-1.5l3.5,0c1.1,0.1,1.8,0.9,1.8,1.8l-0.1,6.4"/>
	<polyline class="st54" points="293.7,52.4 292.6,43.7 299.7,41.5 299.3,45.8 296.2,49.2 299.9,47.9 298.7,52.7 	"/>
	<g>
		<circle class="st55" cx="310.8" cy="143.1" r="6.7"/>
		<g>
			<defs>
				<circle id="SVGID_00000127014427075179816070000007700870848074637190_" cx="310.8" cy="143.1" r="6.7"/>
			</defs>
			<clipPath id="SVGID_00000084487803181249482780000009931003613247302554_">
				<use xlink:href="#SVGID_00000127014427075179816070000007700870848074637190_"  style="overflow:visible;"/>
			</clipPath>
			<g style="clip-path:url(#SVGID_00000084487803181249482780000009931003613247302554_);">
				<line class="st27" x1="300" y1="142.8" x2="321.6" y2="143.3"/>
				<line class="st27" x1="310.5" y1="153.9" x2="311" y2="132.3"/>
				<line class="st27" x1="302.9" y1="150.5" x2="318.6" y2="135.6"/>
				<line class="st27" x1="318.2" y1="150.9" x2="303.3" y2="135.2"/>
			</g>
			
				<use xlink:href="#SVGID_00000127014427075179816070000007700870848074637190_"  style="overflow:visible;fill:none;stroke:#0A566E;stroke-miterlimit:10;"/>
		</g>
	</g>
	<g>
		<circle class="st55" cx="327.6" cy="143.1" r="6.7"/>
		<g>
			<defs>
				<circle id="SVGID_00000122700472400908263610000010154930713390492830_" cx="327.6" cy="143.1" r="6.7"/>
			</defs>
			<clipPath id="SVGID_00000110436559390521374870000014737546605973367450_">
				<use xlink:href="#SVGID_00000122700472400908263610000010154930713390492830_"  style="overflow:visible;"/>
			</clipPath>
			<g style="clip-path:url(#SVGID_00000110436559390521374870000014737546605973367450_);">
				<line class="st27" x1="321" y1="134.5" x2="334.2" y2="151.6"/>
				<line class="st27" x1="319" y1="149.6" x2="336.1" y2="136.5"/>
				<line class="st27" x1="316.9" y1="141.7" x2="338.3" y2="144.4"/>
				<line class="st27" x1="326.2" y1="153.8" x2="329" y2="132.3"/>
			</g>
			
				<use xlink:href="#SVGID_00000122700472400908263610000010154930713390492830_"  style="overflow:visible;fill:none;stroke:#0A566E;stroke-miterlimit:10;"/>
		</g>
	</g>
	<path class="st27" d="M258.5,97.4c-0.6-3.7-3.9-36.2-3.9-36.2s20.9-3.7,43.8-2.1c0.2,5.1,1.7,37.7,1.7,37.7
		C280.2,96.4,278.3,96.4,258.5,97.4z"/>
	<path class="st27" d="M319.8,62.9l-1.7-4.7c0,0,19.8-0.9,34.3,0.4c-0.2,0.7-0.4,1.3-1.3,4.3C351.1,63,332.4,61.9,319.8,62.9z"/>
	<g>
		<line class="st27" x1="323.7" y1="92.6" x2="320.5" y2="62.9"/>
		<line class="st27" x1="347.2" y1="92.8" x2="350.4" y2="62.9"/>
	</g>
	<path class="st7" d="M280.6,147.5c-8.9,1.6-17.7-3.5-20.9-12c-3.6-9.7,1.3-20.6,11-24.3c1.1-0.4,2.2-0.7,3.4-0.9
		c8.9-1.6,17.7,3.5,20.9,12c3.6,9.7-1.3,20.6-11,24.3C282.9,146.9,281.7,147.3,280.6,147.5z"/>
	<g>
		<defs>
			<circle id="SVGID_00000093864949814183635410000002542178556876423851_" cx="277.4" cy="128.9" r="20.9"/>
		</defs>
		<clipPath id="SVGID_00000001656297843766748850000010724594778851758512_">
			<use xlink:href="#SVGID_00000093864949814183635410000002542178556876423851_"  style="overflow:visible;"/>
		</clipPath>
		<g style="clip-path:url(#SVGID_00000001656297843766748850000010724594778851758512_);">
			<line class="st27" x1="265.6" y1="97.5" x2="289.1" y2="160.3"/>
			<line class="st27" x1="246" y1="140.6" x2="308.8" y2="117.1"/>
			<line class="st27" x1="246.8" y1="115" x2="307.9" y2="142.8"/>
			<line class="st27" x1="263.5" y1="159.4" x2="291.2" y2="98.4"/>
		</g>
	</g>
	<circle class="st29" cx="277.4" cy="128.9" r="5.1"/>
	<path class="st30" d="M274.5,112.3c8-1.4,15.8,3.1,18.6,10.7c3.3,8.7-1.2,18.4-9.9,21.7c-1,0.4-2,0.6-3,0.8
		c-8,1.4-15.8-3.1-18.6-10.7c-1.6-4.2-1.4-8.8,0.4-12.9c1.9-4.1,5.2-7.2,9.4-8.8C272.4,112.7,273.5,112.5,274.5,112.3L274.5,112.3
		 M273.8,108.3c-1.3,0.2-2.5,0.6-3.8,1c-10.8,4-16.3,16.1-12.2,26.8c3.6,9.5,13.4,14.9,23.1,13.2c1.3-0.2,2.5-0.6,3.8-1
		c10.8-4,16.3-16.1,12.2-26.8C293.3,112,283.5,106.6,273.8,108.3L273.8,108.3z"/>
	<line class="st59" x1="325.4" y1="116" x2="325.4" y2="100.7"/>
	<line class="st59" x1="332.4" y1="116" x2="332.4" y2="100.7"/>
	<line class="st59" x1="339.3" y1="116" x2="339.3" y2="100.7"/>
	<line class="st59" x1="346.3" y1="116" x2="346.3" y2="100.7"/>
	<line class="st59" x1="357.8" y1="143.9" x2="349.8" y2="130.8"/>
	<line class="st59" x1="352.1" y1="143.9" x2="344.1" y2="130.8"/>
	<line class="st59" x1="346.4" y1="143.9" x2="338.4" y2="130.8"/>
	<g>
		<path class="st60" d="M328.1,145.5c-0.3,0.1-0.5,0.1-0.8,0c-6-0.7-12.2-0.5-16.4-0.2c-1.2,0.1-2.3-0.8-2.4-2
			c-0.1-1.2,0.8-2.3,2-2.4c4.4-0.4,11-0.6,17.3,0.2c1.2,0.2,2.1,1.3,1.9,2.5C329.7,144.6,329,145.3,328.1,145.5z"/>
	</g>
	<g>
		<path class="st27" d="M328.1,145.5c-0.3,0.1-0.5,0.1-0.8,0c-6-0.7-12.2-0.5-16.4-0.2c-1.2,0.1-2.3-0.8-2.4-2
			c-0.1-1.2,0.8-2.3,2-2.4c4.4-0.4,11-0.6,17.3,0.2c1.2,0.2,2.1,1.3,1.9,2.5C329.7,144.6,329,145.3,328.1,145.5z"/>
	</g>
</g>
<path class="st9" d="M83.5,119.6l-3.8,0.2c0,0.1,0.7,11.8-2.1,18.9c-2.1-1.5-5.4-4.5-10-10.4c0,0-5,1.1-9,7.9
	c1.2-0.3,4.7-2.4,8.6-2.5c4.1,4.8,7.6,7.9,10.4,9.3c0.3,0.1,0.5,0.2,0.8,0.2c0.7,0,1.3-0.4,1.7-1C84.4,134.6,83.5,120.2,83.5,119.6z
	"/>
<path class="st2" d="M79.5,122c0,0,2.5,0.1,4.5-0.1c0-0.4,0-1.4,0-1.7c-0.6,0-4.5,0.2-4.5,0.2S79.4,121.7,79.5,122z"/>
<path class="st9" d="M128.7,125c-0.8-0.3-5.6,4.2-7.2,5.7c-10-12.9-26.3-15.8-27.1-15.9l-0.6,3.7c0.2,0,18.8,4.5,28.6,18.9
	C127.3,129,129.1,125.1,128.7,125z"/>
<path class="st2" d="M96.6,119.7c0,0,4-1.5,6.1-2.9c-0.1,0-1.3-0.5-1.5-0.6c-0.3-0.1-6.8,2.7-6.8,2.7S95.5,119.3,96.6,119.7z"/>
<path class="st9" d="M94.3,99.4c0.4-0.5,0.7-0.9,1.1-1.3c0.4-0.4,0.7-0.8,1.1-1.2c0.7-0.8,1.5-1.6,2.3-2.3c1.6-1.5,3.2-2.9,5-4.1
	c1.8-1.3,3.7-2.3,5.6-3.2l1.5-0.6c0.5-0.2,1-0.4,1.5-0.5l0.8-0.3l0.8-0.2l1.6-0.4c0.5-0.1,1,0.2,1.2,0.7c0.1,0.5-0.2,1-0.6,1.2
	l-0.1,0l-1.4,0.5l-0.7,0.2l-0.7,0.3c-0.5,0.2-0.9,0.4-1.4,0.6l-1.3,0.7c-1.7,1-3.4,2.1-5,3.4c-1.6,1.3-3,2.6-4.4,4.1
	c-0.7,0.7-1.3,1.5-1.9,2.3c-0.3,0.4-0.6,0.8-0.9,1.2c-0.3,0.4-0.6,0.8-0.8,1.2l0,0c-0.6,0.9-1.7,1.1-2.6,0.6
	c-0.9-0.6-1.1-1.7-0.6-2.6C94.2,99.5,94.3,99.4,94.3,99.4z"/>
<path class="st2" d="M97.6,95.1c0,0,2.1,2.8,2.3,3.7c-0.1,0.2-0.4,0.5-0.5,0.7c-0.1,0.1-2.4-3.7-2.3-3.7
	C97.1,95.6,97.5,95.2,97.6,95.1z"/>
<path class="st61" d="M74.5,76.1c4.2,1.5,19.3,8.5,30.7,36.3c0.2,0.4,0,0.9-0.3,1.1c-2.8,2.3-15.4,10.4-39.4,5.2
	c1.2-1.9,14.1-15.7,8.1-41.9C73.5,76.3,74,75.9,74.5,76.1z"/>
<path class="st9" d="M63.6,118.9c-0.1,0.5-0.7,4.9-5.1,4.4l-1.1,5c0,0,1.4-0.6,2.4-2.2c2.2-0.2,4.1-1.3,5.3-3.3
	c1.1-1.7,1.3-3.4,1.3-3.6L63.6,118.9z"/>
<path class="st9" d="M57.8,116.2c-0.2,0.4-2.4,4.3-6.3,2.4l-2.8,4.4c0,0,1.6-0.1,3-1.3c2.2,0.6,4.3,0.2,6.1-1.3
	c1.6-1.2,2.4-2.8,2.5-3L57.8,116.2z"/>
<g>
	<path class="st62" d="M70.7,122.3c-5.8-2.5-11.6-4.9-17.3-7.3c1.1-2.6,1.7-3.9,2.6-6.4c6,2.4,11.9,4.9,17.9,7.4
		C72.7,118.5,72.1,119.8,70.7,122.3z"/>
	<path class="st62" d="M74.7,114.1c-6-2.5-12-4.9-18-7.4c0.9-2.6,1.3-3.8,2.1-6.4c6.2,2.4,12.4,4.9,18.6,7.3
		C76.4,110.2,75.8,111.5,74.7,114.1z"/>
</g>
<ellipse transform="matrix(0.2357 -0.9718 0.9718 0.2357 22.8133 200.0871)" class="st7" cx="138.6" cy="85.5" rx="0.4" ry="0.3"/>
<path class="st2" d="M265.9,96.4c0,0,1.8,8.1,4.1,8.5c2.2,0.3,2.6-0.6,2.6-0.8C272.5,103.9,266.2,96.4,265.9,96.4z"/>
<g>
	<path class="st63" d="M263.1,79.6c0,0,0-1.5-5.1-3c0,0,3.6-4.5,8.8-2"/>
	<polygon class="st7" points="266.8,98.5 265.1,93 263.9,88.2 261.9,88.8 260,88.1 258.7,85.1 259.2,81.4 261.2,79.6 263.6,79.6 
		264.3,78.2 265.2,77.4 270.1,74.1 269.9,72.7 275,69.9 277.1,69.1 278.2,69 279.4,71.5 285.5,70.1 289.6,69.7 291.1,70.7 292,74 
		291.7,78.1 290.6,80.5 288.3,83.4 286.8,85 285.2,85.5 285.6,87.1 284.8,88.7 282.9,89.7 279.4,90.4 280.1,92.5 281.4,92.3 
		281.8,96.7 281,96.9 279.3,99.5 276.3,102.6 273.5,104.2 271.7,104.5 269.5,103.2 267.6,100 	"/>
	<path class="st47" d="M270,75.3c0,0,1.7,3.6,2.4,4.5c0.2,0.3,1.2,1,2,1c1.2,0,1.8-0.3,1.8-0.3l-1.8-0.3l-2-1.7l-2.1-3.8L270,75.3z"
		/>
	<polygon class="st47" points="266.5,80 271.4,75.6 271.2,75.1 	"/>
	<path class="st47" d="M265.1,82.7c0-0.6-1.6-1.3-2.9-0.9c-0.2,0.1-0.7,0.2-1,0.6c-0.4,0.5-0.6,1.3-0.3,1.6
		C261.6,84.8,265.1,83.6,265.1,82.7z"/>
	<path class="st47" d="M261.3,86.1c0.2,0.1,0.3,0.1,0.5,0.1c0.2,0.1,0.4,0.1,0.6,0.1c1.4,0.1,2.5-0.4,2.6-0.2c0,0.1-0.4,0.4-0.7,0.6
		c-0.9,0.5-1.8,0.3-2.5,0.2C261.5,86.9,261.1,86.5,261.3,86.1z"/>
	<path class="st47" d="M277,90.7c0,0,1.6,1.6,2.5,1.7s0.5-0.4,0.5-0.4l-0.5-1.7L277,90.7z"/>
	<path class="st47" d="M269.2,83.8c0.1,0.1,0.1,0.5,0.2,0.6c0.2,0.5,0.6,1,0.9,1.5c2.4,2.8,6.4,3,9.8,2.5c1.2-0.2,2.4-0.4,3.5-0.8
		c0.4-0.1,2.4-0.9,1.7-1.7l-2.2,0.6l-6.3,1.3l-3.1-0.6l-3.4-2.2C270.3,84.9,269.2,83.8,269.2,83.8z"/>
	<path class="st47" d="M272.4,104.1c0,0,4.1-2.2,8.4-7.4c0.1,0.3-0.1,0.8-0.1,0.8l-3,3.9l-1.8,1.8l-3.2,1.6L272.4,104.1z"/>
	<path class="st47" d="M266.9,73.5c0,0,1.3,1,2.8,0.5c0.7-0.2,0.4,0.1-0.1,0.4c-0.6,0.3-1.4,1.5-1.8,1.2
		C267.3,75.3,267,74.7,266.9,73.5z"/>
	<path class="st64" d="M270.2,74.2c-2.9,1.3-5.8,3.2-6.5,5.4"/>
	<path class="st64" d="M269.4,83.3c0,0,1.7,5.5,10.5,3.9c7.8-1.4,10.9-5.8,11.7-9.5c0.3-1.2,0.7-4.4-1-7.4
		c-0.3-0.6-1.5-1.5-11.2,0.9"/>
	<path class="st64" d="M265.5,81.2c0,0-1.9-2.4-4.2-1.5c-1,0.4-2.4,1.4-2.5,4.5c0,1,0.6,3.9,1.8,4.4c0.5,0.2,2.3,0.3,4.2-0.7"/>
	<path class="st64" d="M267.4,99.5c0,0-2.7-6-3.4-11.2"/>
	<path class="st64" d="M277.1,90.8c0,0,6.1-0.6,7.6-2.2c0.6-0.7,1.1-1.8,0.6-3"/>
	<path class="st65" d="M288.2,94.7"/>
	<path class="st64" d="M281.4,92c-3.4,0.8-6.6,5.4-8.2,6c0,0-0.6-0.7-0.9-2"/>
	<path class="st66" d="M281.3,92.1c0,0,0.4,3.6,0.4,4.6c0.8-0.1,4.3-0.3,4.3-0.2C286.1,96.4,285.5,91.2,281.3,92.1z"/>
	<path class="st64" d="M267.4,83c0,0,2.3,1.3,3.6-1.2"/>
	<path class="st67" d="M264.8,86.1c0,0-0.5-2.3,0.1-3.4c-0.5-0.3-2.1-0.9-3.3-0.4c-0.5,0.2-0.9,1-0.9,2.1c0,0.8,0.4,2.2,1.3,2.3
		C262.9,86.7,264.4,86.3,264.8,86.1z"/>
	<g>
		<polygon points="265,80.4 270.1,74.4 271.2,75.4 265.5,80.9 265,80.4 		"/>
	</g>
	<path class="st64" d="M279.5,71c0,0,1.2-2.6,2.7-0.4"/>
	<path d="M288.6,70c0,0-1.7,0.9-0.7,2.7c0.4,0.8,1.6,1.4,2.5,1.3c0.6-0.1,1.4-0.4,1.4-0.6c0-0.1-0.7-2.4-0.7-2.4l-0.8-1.1L288.6,70z
		"/>
	<path class="st64" d="M267.4,99.5c0.8,1.8,2.5,6,6.1,4.8c3-1.1,6.8-5.5,8.1-7.8"/>
	<path class="st64" d="M279.4,90.6c0,0,0.2,1.4,0.8,1.7"/>
	<g>
		<polygon class="st68" points="264.1,66.7 266.6,67.8 268.7,68 271.6,71.2 270.7,71.9 269.5,72.6 266.8,72.1 264.8,70.5 		"/>
		<polygon class="st69" points="264.2,66.9 266.6,67.8 268.6,68.1 263.8,62.5 263.6,63.1 		"/>
		<polygon class="st26" points="264.9,70.8 267.9,72.4 270,73.1 270.1,73.7 266.8,75.5 265.8,76.2 265.2,73.2 		"/>
		<polyline class="st64" points="265.5,76.6 263,61.4 272.1,71.1 		"/>
		<path class="st64" d="M269.9,72.6c-1.1,0.1-3.8-0.4-5.4-2.3"/>
		<path class="st64" d="M269.4,68.5c0,0-3,0.1-5.5-1.7"/>
	</g>
	<path class="st64" d="M269.8,72.9c0,0,2.4,5.4,3.1,6.2c0.9,1.1,3.3,1.6,5.7,0.5c1.4-0.6,2.9-2.5,2.2-4.6c-0.5-1.3-1.2-3.4-2.7-6.2
		C273.1,70,269.8,72.9,269.8,72.9z"/>
	<ellipse transform="matrix(0.9455 -0.3255 0.3255 0.9455 -9.2679 94.1472)" cx="276.7" cy="74.8" rx="2.1" ry="3.9"/>
	<ellipse transform="matrix(0.9455 -0.3255 0.3255 0.9455 -8.8341 94.1463)" class="st7" cx="276.9" cy="73.5" rx="0.7" ry="1.2"/>
</g>
<path class="st37" d="M295.7,88.3l-8.4,1.6c-0.3,0.1-0.7-0.2-0.7-0.5l-1.6-8.4c-0.1-0.3,0.2-0.7,0.5-0.7l8.4-1.6
	c0.3-0.1,0.7,0.2,0.7,0.5l1.6,8.4C296.3,87.9,296,88.2,295.7,88.3z"/>
<path class="st2" d="M284.5,96.6c0,0-0.5,2.3,0.1,3.1s1.7,0.6,1.8,0.2C286.5,99.6,285.4,96.3,284.5,96.6z"/>
<path class="st70" d="M287.2,92.7c0,0-1.3,0.9-2.2,4.9c-0.1,0.3,0.2,2,1.1,2.1s2.6-0.2,4.1-3.6c0.3,0,1.6,0,1.6,0s-0.3-1.8-1.2-1.7
	c-2.1,0.1-2.6,0.7-2.8,1.2C287.5,95.3,287.2,92.7,287.2,92.7z"/>
<path class="st2" d="M286.3,97.6c0,0,0.3-1.1,0.8-1.9c-0.2-1.1-0.6-3.1-0.4-3.2c0.4-0.1,0.8,3.2,0.8,3.3
	C287.5,95.9,286.7,97.5,286.3,97.6z"/>
<path class="st11" d="M286.7,92.5c0,0,0.6,3.4,0.7,3.6c0.1,0.2,0.5-0.8,0.5-0.8s-0.2-3.1-0.8-3.1C286.6,92.3,286.8,92.4,286.7,92.5z
	"/>
<path class="st33" d="M288.2,99.2c-0.7,0.6-1.6,0.9-2.4,0.4c-1.8-1.4-0.1-4.9,1.1-6.7"/>
<path class="st33" d="M290.3,95.9"/>
<path class="st33" d="M286.6,97.7c0,0,1.4-3.4,3.4-3.3c1.4,0.1,1.9,1.5,1.9,2"/>
<path class="st2" d="M290.4,95.6c0,0,0.4,0,0.7,0.5c0,0,0.9,0,1.2,0c0,0.1,0,0.2,0,0.2c-0.3,0.1-1.9,0-1.9,0S290.2,95.8,290.4,95.6z
	"/>
<path class="st33" d="M287.2,93.8"/>
<polygon class="st11" points="286.7,92.4 287,94 287.6,93.6 287.3,92.4 286.9,92.2 "/>
<path class="st2" d="M296,96.4c0,0-0.9,1.4-0.1,2.7c0.4,0.6,1.4,0.5,1.7-0.1C297.7,98.6,297.1,96.2,296,96.4z"/>
<path class="st35" d="M298.2,95.2c-0.6-0.2-1.4,0.3-1.8,1.4c-0.2,0.6-0.5,2.1,0.4,2.5c0.5,0.2,1.7-0.2,2.2-1.9
	C299,97,299.3,95.5,298.2,95.2z"/>
<g>
	<path class="st12" d="M291.7,87.1c-1.2,1.1-2.6,1-3.6-0.6"/>
</g>
<g>
	<path class="st12" d="M290.4,84.5c0,0-0.6-3.2-1.8-3s-0.4,3.5-0.4,3.5"/>
	<path class="st12" d="M294.1,83.7c0,0-0.6-3.2-1.8-3c-1.2,0.2-0.4,3.5-0.4,3.5"/>
</g>
<g>
	<path class="st2" d="M249.7,55.9c0,0-0.1,3.1,1,6.7c0.2,0.5-0.5,0.1-0.5-0.1S248,58,249.7,55.9z"/>
	<g>
		<path class="st35" d="M254.1,55.2c-0.7-1.6-2.6-3.5-4.5-3.5c-1,0-2.4,0.5-3.6,2.6c-1.2,2.2-0.5,5.6,0.2,7.8l-1.3,4.8l5.6-3.9
			c-1.6-2.7-1.8-5.7-1.2-6.9"/>
	</g>
	<path class="st34" d="M249.5,55.8c0,0,2.9-0.5,6.1-1c0.1,0.4,0.1,0.7,0.1,0.7l-6,0.9L249.5,55.8z"/>
	<path class="st2" d="M250,54.9c0,0,0.8,0.1,0.8,0.7c-0.1,0-1.1,0.2-1.1,0.2S249.6,55.1,250,54.9z"/>
	<path class="st35" d="M249,57.4c0,0,0-1.2,0.8-2.2"/>
</g>
<g>
	<path class="st2" d="M255.6,54.7c0,0-0.4,3.1,0.5,6.7c0.1,0.5-0.5,0-0.5-0.1C255.6,61.2,253.7,56.6,255.6,54.7z"/>
	<g>
		<path class="st35" d="M259.8,54.4c-0.7-1.6-2.5-3.6-4.4-3.6c-1,0-2.5,0.4-3.7,2.5c-1.2,2.2-0.6,5.6,0,7.8l-1.4,4.7L256,62
			c-1.5-2.7-1.7-5.8-1-6.9"/>
	</g>
	<path class="st34" d="M255.2,54.9c0,0,2.9-0.6,6.1-1c0.1,0.4,0.1,0.7,0.1,0.7l-6.4,1.1L255.2,54.9z"/>
	<path class="st2" d="M255.4,53.9c0,0-0.1-0.4,1.4,0.6c-0.8,0.2-1.1,0.1-1.5,0.5C255,55,255.3,54.1,255.4,53.9z"/>
	<path class="st35" d="M254.6,56.5c0,0,0-1.2,0.9-2.2"/>
</g>
<path class="st34" d="M267.7,53.4c0,0,3.3-0.3,7.2-0.6l-0.1,0.4l-6.7,0.5L267.7,53.4z"/>
<path class="st34" d="M293.7,96.2c0,0-2.2,0-3.1-0.1l-0.1,0.6l3.2,0.2L293.7,96.2z"/>
<g>
	<path class="st51" d="M70.3,106.9c0,0-0.7,3.1-2.4,2.5c-1.4-0.6,0-3.3,0-3.3"/>
</g>
<g>
	<path class="st51" d="M72.3,107.8c0,0-1.6,2.8,0.2,3.4c1.5,0.5,2.2-2.5,2.2-2.5"/>
</g>
<path class="st51" d="M66.9,115.2c0,0,1,0.5,2.6,1.3"/>
<path class="st2" d="M64.1,102.2c0,0-0.7,2.2-0.6,7.8c-0.4-0.2-0.6-0.2-0.6-0.2l-0.4-1.6l0.7-4.6l0.8-1.1L64.1,102.2z"/>
<path class="st2" d="M63.5,111.1c0,0,0,1.3,0.3,3.6c0,0.2-0.1,0.1-0.2-0.2S63,111,63,110.9C63.1,110.9,63.5,111.1,63.5,111.1z"/>
<path class="st9" d="M72.1,105.5c-0.9-1.5-1.7-2.6-2.6-3.5c-0.9-0.9-2-1.8-3.2-2.3c-0.3-0.1-0.6-0.3-0.9-0.4l-0.1,0l-0.2-0.1
	c-0.1,0-0.2-0.1-0.4-0.1c-0.3,0-0.5-0.1-0.8,0c-0.6,0-1.1,0.3-1.6,0.6c-0.4,0.3-0.7,0.7-1,1c-0.5,0.7-0.7,1.4-0.9,2
	c-0.2,0.6-0.3,1.3-0.4,1.9c-0.2,1.3-0.2,2.5-0.1,3.7c0.1,2.4,0.6,4.8,1.4,7.1c0.2,0.5,0.8,0.8,1.3,0.7c0.6-0.2,0.9-0.8,0.7-1.4l0,0
	c-0.6-2.1-0.9-4.3-0.9-6.5c0-1.1,0.1-2.2,0.3-3.2c0.1-0.5,0.2-1,0.4-1.5c0.2-0.4,0.4-0.9,0.6-1.1c0.1-0.1,0.2-0.2,0.2-0.2
	c0.1,0,0,0,0.1,0"/>
<path class="st2" d="M65.1,101.4c0,0,0.6,1,0.6,1.1c0,0.1-0.2,0.3-0.4,0.2s-1-0.4-0.8-0.6C64.6,101.7,64.8,101.5,65.1,101.4z"/>
<polygon class="st50" points="74.2,105.9 64.2,101.9 63.9,102.8 73.9,106.7 "/>
<path class="st33" d="M63.3,103.4c0,0,0.5-1.4,1.5-1.9"/>
<path class="st71" d="M95.6,108.5c0,0-15.4,10.7-16.5-6.5"/>
<path class="st71" d="M78.3,101.7c0,0,0.9,0.7,1.7-0.2"/>
<g>
	<g>
		<path class="st72" d="M87,102.4c0.3,1.2,0.4,2.4,0.3,3.3c-0.7-0.1-2.1,0.2-2.8,0.8c-0.6-0.7-1.1-1.9-1.5-3.1
			c-0.7-2.6-0.4-4.9,0.7-5.2C84.8,98,86.3,99.8,87,102.4z"/>
	</g>
	<path class="st73" d="M84,107c0,0,1.2-1.7,4.1-1.1"/>
	<ellipse transform="matrix(0.9776 -0.2107 0.2107 0.9776 -19.5858 20.3354)" class="st7" cx="85.6" cy="102.1" rx="0.7" ry="1.3"/>
</g>
<g>
	<g>
		<path class="st72" d="M93.8,100.7c0.3,1.2,0.4,2.4,0.3,3.3c-0.7-0.1-2.1,0.2-2.8,0.8c-0.6-0.7-1.1-1.9-1.5-3.1
			c-0.7-2.6-0.4-4.9,0.7-5.2C91.6,96.3,93.1,98.1,93.8,100.7z"/>
	</g>
	<path class="st73" d="M90.8,105.2c0,0,1.2-1.7,4.1-1.1"/>
	<ellipse transform="matrix(0.9776 -0.2107 0.2107 0.9776 -19.0682 21.7261)" class="st7" cx="92.4" cy="100.4" rx="0.7" ry="1.3"/>
</g>
<path class="st74" d="M81.3,97.7c0,0,0.3-2.2,1.9-2c0.8,0.1-1.3-0.9-1.8-0.3S81,97.2,81.3,97.7z"/>
<path class="st74" d="M90.5,95.4c0,0,0.9-0.5,1.6,0.4C92.2,96.1,90.9,93.3,90.5,95.4z"/>
<path class="st33" d="M290.3,95.9c-0.6,0.7-1.3,2.5-2.2,3.3"/>
<path class="st2" d="M78.9,89.6c0,0,0.2-1.5-0.4-2.6c-0.3-0.4-0.6-1.2,0-1.2C78.8,85.8,79.7,88.8,78.9,89.6z"/>
<path class="st2" d="M80.9,85.8c0,0-0.1-1.2-0.8-2c-0.4-0.4-0.4-1.3,0.3-1.1c0.5,0.1,1,2,1,3C81.3,86,81,85.9,80.9,85.8z"/>
<path class="st71" d="M79.2,89.6c0.7-1.7-0.9-3.6-0.3-4.5c0.4-0.6,1.9,0.1,2.7,2.4c0.4-1.2-1.6-4.4-0.8-5.2c0.7-0.7,3,0.8,3.1,4.9
	c0.4-0.2,0.2-1.8,0.9-2.2c0.8-0.4,2,1.6,0.5,4.3"/>
<g>
	<path class="st7" d="M192.9,32.2l1.4-2.5l4-3.4c0,0,4.9-1.2,5.2-1.2c0.2,0,3.8,0.8,3.8,0.8l2.4,1.8l2.3,2.9l0.4,4.6l-1.9,5
		l-4.1,2.9l0,2.8l-1.7,3l-0.4,0.7l1.1,2.2l0.5,3l-1.7,4.1l-3.2,2.5l-4,1.1l-3.5-0.3l-3.2-1.4l-2.9-3l-1.4-2.9l0.2-3.5l-3.1-0.9
		l-3.7-3.2l-1-4.4l0.7-4.5l2.2-3.6l4.4-2.5l4.6-0.7L192.9,32.2z"/>
	<path class="st47" d="M205,40.3l1.4,2.6l1.1-0.6C207.5,42.3,206.1,40.3,205,40.3z"/>
	<path class="st47" d="M199.8,51.1c0,0,2.7,0.9,5,0.2c0.3-0.1-0.8-1.5-0.8-1.5S202.9,50.8,199.8,51.1z"/>
	<path class="st47" d="M186.3,51.6l4-0.6c0,0-0.3,1.3-3.9,2.2C186,53.2,186.3,51.6,186.3,51.6z"/>
	<path class="st47" d="M193,32.3l2.9,1.2c0,0-0.4-1.5-2.2-2.4C193.6,31.1,193,32.3,193,32.3z"/>
	<g>
		<path class="st48" d="M199.8,50.6c2.9,0.2,5.6-1.6,6.4-4.1c1-3.1-1.2-5.6-1.3-5.8"/>
		<path class="st48" d="M195.5,33.7c-0.9-0.6-4.1-2.5-8.2-1.8c-4.2,0.7-8.4,4.1-9,8.9c-0.4,3.1,0.7,7.5,4.3,9.5
			c3.3,1.8,6.8,0.5,7.4,0.3"/>
		<path class="st48" d="M206.4,43.1c0.5-0.2,4.5-1.9,5.7-6.3c1-3.5-0.2-7.4-3-9.7c-3.6-3-8.4-2.1-11.3-0.5c-3.1,1.7-4.4,4.6-4.8,5.6
			"/>
		<path class="st48" d="M186.2,51.3c-0.1,0.9-0.4,3.8,1.3,6.5c2.8,4.7,8.4,4.7,8.7,4.7c4,0,8.8-2.5,9.6-6.8c0.6-2.9-0.9-5.4-1.5-6.2
			"/>
	</g>
</g>
<g>
	<polygon class="st7" points="160.9,39.3 162.2,37.7 165.2,37 167.6,38.5 168.6,41.1 168,44 169.2,45.4 169.6,48.9 168.3,51.3 
		165.2,52 162.3,51 160,48.2 157.9,48.5 155.3,47.3 154.1,44.7 154.7,41.9 156.7,39.7 159.6,39.1 	"/>
	<path class="st47" d="M161.9,47.5c0,0,0.1,1.1-0.8,1.7c-0.4,0.2-0.4-1-0.4-1S160.9,48.1,161.9,47.5z"/>
	<path class="st47" d="M165.3,42.4c0,0,1.2-0.6,2.8-0.1c0.3,0.1-0.2,1.1-0.2,1.1S166,42.4,165.3,42.4z"/>
	<path class="st47" d="M160.3,39.8l0.1,2.6l1.2,2.1c0,0-1.8-0.7-2.7-4.7C159,39.5,159.9,39.4,160.3,39.8z"/>
	<g>
		<path class="st48" d="M161.9,44.1c-1.7-1.7-1.7-4.4-0.2-5.9c1.4-1.4,3.8-1.4,5.3-0.2c1.7,1.3,2.1,3.7,1,5.7"/>
		<path class="st48" d="M165.3,42.8c1.8,0.2,3.4,1.4,4.1,3c0.6,1.5,0.5,3.5-0.7,4.8c-1.7,1.8-4.7,1.5-6.5,0.2
			c-1.2-0.9-1.6-2.1-1.8-2.7"/>
		<path class="st48" d="M161.5,47.2c-1.6,1.4-3.9,1.7-5.5,0.7c-2.2-1.3-2.4-4.6-1-6.6c1.2-1.7,3.4-2.4,5.6-1.8"/>
	</g>
</g>
<path class="st75" d="M169.9,35.2c1.4-1.4,3.6-1.4,5,0c1.1,1.1,1.1,2.9,0,4c-0.9,0.9-2.3,0.9-3.2,0c-0.7-0.7-0.7-1.9,0-2.6
	c0.6-0.6,1.5-0.6,2.1,0c0.5,0.5,0.5,1.2,0,1.7c-0.4,0.4-1,0.4-1.3,0"/>
<path class="st76" d="M203.1,65.4c-1.4-1.4-3.7-1.4-5,0.1c-1.1,1.1-1.1,2.9,0,4c0.9,0.9,2.3,0.9,3.2,0c0.7-0.7,0.7-1.9,0-2.6
	c-0.6-0.6-1.5-0.6-2.1,0c-0.5,0.5-0.4,1.2,0,1.7c0.4,0.4,1,0.4,1.3,0"/>
<path class="st77" d="M158.2,51.3c-1.7-1-3.9-0.4-4.9,1.3c-0.8,1.4-0.3,3.1,1,3.9c1.1,0.6,2.5,0.3,3.1-0.8c0.5-0.9,0.2-2-0.6-2.5
	c-0.7-0.4-1.6-0.2-2,0.5c-0.3,0.6-0.1,1.3,0.4,1.6c0.4,0.3,1,0.1,1.3-0.3"/>
<path class="st77" d="M191.3,26.3c0-2-1.6-3.6-3.5-3.6c-1.6,0-2.9,1.3-2.9,2.8c0,1.3,1,2.3,2.3,2.3c1,0,1.8-0.8,1.8-1.8
	c0-0.8-0.6-1.5-1.5-1.5c-0.6,0-1.2,0.5-1.2,1.2c0,0.5,0.4,0.9,0.9,0.9"/>
<path class="st78" d="M159.3,35.7c0.7-1.8-0.3-3.9-2.1-4.6c-1.5-0.5-3.1,0.2-3.7,1.7c-0.4,1.2,0.2,2.5,1.3,2.9
	c0.9,0.4,2-0.1,2.3-1.1c0.3-0.8-0.1-1.6-0.9-1.9c-0.6-0.2-1.3,0.1-1.5,0.7c-0.2,0.5,0.1,1,0.6,1.2"/>
<circle class="st79" cx="180.5" cy="30.2" r="0.5"/>
<circle class="st79" cx="211.6" cy="50.1" r="0.5"/>
<circle class="st79" cx="226.6" cy="61.9" r="0.5"/>
<circle class="st68" cx="174.1" cy="47" r="0.5"/>
<circle class="st79" cx="160.2" cy="58.4" r="0.5"/>
<circle class="st68" cx="150.7" cy="41.4" r="0.5"/>
<circle class="st79" cx="192" cy="65.2" r="0.5"/>
<g>
	<line class="st77" x1="213.7" y1="24.1" x2="214.4" y2="24.3"/>
	<line class="st77" x1="212.3" y1="23.9" x2="212.9" y2="24"/>
	<line class="st77" x1="213.4" y1="23.6" x2="213.4" y2="23.3"/>
	<line class="st77" x1="213.2" y1="24.8" x2="213.2" y2="24.5"/>
</g>
<g>
	<line class="st77" x1="247.5" y1="4.6" x2="248.1" y2="4.7"/>
	<line class="st77" x1="246" y1="4.3" x2="246.6" y2="4.4"/>
	<line class="st77" x1="247.1" y1="4" x2="247.2" y2="3.7"/>
	<line class="st77" x1="246.9" y1="5.2" x2="246.9" y2="4.9"/>
</g>
<g>
	<line class="st77" x1="235.7" y1="63" x2="236.3" y2="63.1"/>
	<line class="st77" x1="234.2" y1="62.7" x2="234.8" y2="62.8"/>
	<line class="st77" x1="235.3" y1="62.4" x2="235.4" y2="62.1"/>
	<line class="st77" x1="235.1" y1="63.6" x2="235.2" y2="63.3"/>
</g>
<g>
	<line class="st77" x1="166.3" y1="55.4" x2="165.7" y2="55.3"/>
	<line class="st77" x1="167.8" y1="55.7" x2="167.2" y2="55.6"/>
	<line class="st77" x1="166.7" y1="55.9" x2="166.6" y2="56.2"/>
	<line class="st77" x1="166.9" y1="54.8" x2="166.9" y2="55.1"/>
</g>
<g>
	<line class="st76" x1="149.7" y1="47.4" x2="149.8" y2="46.8"/>
	<line class="st76" x1="149.7" y1="48.9" x2="149.7" y2="48.3"/>
	<line class="st76" x1="149.3" y1="47.9" x2="149" y2="47.8"/>
	<line class="st76" x1="150.5" y1="47.9" x2="150.2" y2="47.9"/>
</g>
<path class="st76" d="M212.4,15.8c-1.7-1-3.9-0.5-4.9,1.1c-0.8,1.3-0.4,3.1,0.9,3.9c1.1,0.7,2.5,0.4,3.1-0.7c0.5-0.9,0.3-2-0.6-2.5
	c-0.7-0.4-1.6-0.2-2,0.5c-0.3,0.5-0.2,1.3,0.4,1.6c0.4,0.3,1,0.1,1.3-0.3"/>
<circle class="st68" cx="200.2" cy="20.7" r="0.5"/>
<circle class="st68" cx="239.8" cy="4.1" r="0.5"/>
<circle class="st68" cx="182.8" cy="56.1" r="0.5"/>
<circle class="st68" cx="240" cy="58.8" r="0.5"/>
<circle class="st79" cx="216.9" cy="6.3" r="0.5"/>
<circle class="st26" cx="256.2" cy="2.2" r="0.5"/>
<g>
	<line class="st76" x1="175" y1="54" x2="174.7" y2="54.5"/>
	<line class="st76" x1="175.7" y1="52.7" x2="175.4" y2="53.2"/>
	<line class="st76" x1="175.6" y1="53.8" x2="175.8" y2="54"/>
	<line class="st76" x1="174.5" y1="53.2" x2="174.8" y2="53.4"/>
</g>
<ellipse transform="matrix(0.9535 -0.3013 0.3013 0.9535 -1.7172 77.2986)" class="st7" cx="249.7" cy="44.2" rx="0.5" ry="1.3"/>
<ellipse transform="matrix(0.9535 -0.3013 0.3013 0.9535 -0.9223 78.9358)" class="st7" cx="255.4" cy="42.5" rx="0.5" ry="1.3"/>
<polygon class="st80" points="152.7,95.1 156.1,92.1 155.8,95.7 "/>
<g>
	<g>
		<circle class="st70" cx="32.6" cy="146.7" r="2.8"/>
		<path class="st81" d="M32.9,147.4l2.5-0.9c0,0-0.4-2.8-3-2.6s-2.5,2.7-2.5,3.4C30.3,146.5,32.1,145.8,32.9,147.4z"/>
		<circle class="st82" cx="32.6" cy="146.7" r="2.8"/>
		<path class="st70" d="M31.8,143.1l0.3,3.6c0,0.4,0.5,0.6,0.8,0.4l4.1-4.5"/>
		<polygon class="st81" points="32.2,145.2 34.7,145.1 36.9,142.8 31.9,143.1 		"/>
		<path class="st82" d="M31.8,142.9l0.3,3.8c0,0.4,0.5,0.6,0.8,0.4l3.9-4.6"/>
	</g>
	<g>
		<circle class="st70" cx="21.9" cy="146.7" r="2.8"/>
		<path class="st81" d="M22.1,147.4l2.5-0.9c0,0-0.4-2.8-3-2.6s-2.5,2.7-2.5,3.4C19.6,146.5,21.3,145.8,22.1,147.4z"/>
		<circle class="st82" cx="21.9" cy="146.7" r="2.8"/>
		<path class="st70" d="M21.1,144l0.2,2.6c0,0.4,0.5,0.6,0.8,0.4l4.6-3.4"/>
		<polygon class="st81" points="21.3,145.6 23.8,145.4 26.2,143.6 21.1,143.9 		"/>
		<path class="st82" d="M21.1,143.8l0.3,2.9c0,0.4,0.5,0.6,0.8,0.4l4.7-3.7"/>
	</g>
	<g>
		<circle class="st70" cx="10.9" cy="146.6" r="2.8"/>
		<path class="st81" d="M11.1,147.3l2.5-0.9c0,0-0.4-2.8-3-2.6s-2.5,2.7-2.5,3.4C8.6,146.4,10.3,145.7,11.1,147.3z"/>
		<circle class="st82" cx="10.9" cy="146.6" r="2.8"/>
		<path class="st70" d="M10.1,144.5l0.2,2.2c0,0.4,0.5,0.6,0.8,0.4l4.3-2.9"/>
		<polygon class="st81" points="10.3,145.9 12.8,145.7 15.1,144.3 10.2,144.7 		"/>
		<path class="st82" d="M10.1,144.5l0.2,2.2c0,0.4,0.5,0.6,0.8,0.4l4.3-2.9"/>
	</g>
	<g>
		<path class="st79" d="M4.9,140.1l34-2.6l0.2,2c0.1,1.5-1,2.8-2.5,2.9l-28.3,2.1c-1.6,0.1-3-1.1-3.2-2.7L4.9,140.1z"/>
		<polygon class="st69" points="5.7,131.1 37.5,128.7 38.9,137.5 5.2,140 		"/>
		<polygon class="st26" points="6.2,123.9 36.3,121.6 37.5,128.7 5.7,131.1 		"/>
		<polygon class="st68" points="6.6,116.7 35.2,114.6 36.3,121.6 6.2,123.9 		"/>
		<path class="st83" d="M9.9,109.4l21-1.6c2.1-0.2,3.9,1.4,4.1,3.5l0.2,3.3l-28.5,2.1l0.2-3.8C6.7,111.1,8,109.5,9.9,109.4z"/>
	</g>
	<path class="st17" d="M30.7,143l-22.3,1.7c-1.7,0.1-3.2-1.2-3.4-2.9l1.8-29.1c-0.1-1.7,1.2-3.2,2.9-3.4l18.3-1.4"/>
	<path class="st17" d="M36.3,142.6l-16.7,1.3c-1.6,0.1-3.1-1-3.3-2.6l-4.6-28.6c-0.3-1.8,1-3.5,2.9-3.6l16.7-1.3
		c1.6-0.1,3.1,1,3.3,2.6l4.6,28.6C39.4,140.7,38.1,142.4,36.3,142.6z"/>
	<g>
		<line class="st84" x1="23" y1="108.3" x2="28.7" y2="143.1"/>
	</g>
	<path class="st85" d="M18.5,132l-3.2-17.9c-0.2-1.1,0.5-2.1,1.7-2.2l12.8-1c1.1-0.1,2.2,0.7,2.4,1.9l3.2,17.9
		c0.2,1.1-0.5,2.1-1.7,2.2l-12.8,1C19.7,134,18.7,133.1,18.5,132z"/>
	<g>
		<ellipse transform="matrix(0.9818 -0.1898 0.1898 0.9818 -22.05 7.5673)" class="st11" cx="28.5" cy="118.9" rx="2.1" ry="4.5"/>
		
			<ellipse transform="matrix(0.9972 -7.495125e-02 7.495125e-02 0.9972 -9.0948 2.5187)" class="st85" cx="29" cy="122.4" rx="2.1" ry="1.7"/>
		<ellipse transform="matrix(0.9853 -0.1709 0.1709 0.9853 -19.7525 6.7324)" class="st7" cx="29.2" cy="118.1" rx="0.8" ry="1.4"/>
		<path class="st86" d="M29.1,112.9c0,0,1.5,0.1,1.7,1.6"/>
		<path class="st86" d="M26.8,121.9c0,0,1.8-2.5,4.1-0.4"/>
		
			<ellipse transform="matrix(0.9818 -0.1898 0.1898 0.9818 -22.3215 6.4244)" class="st11" cx="22.4" cy="119.7" rx="2.1" ry="4.5"/>
		
			<ellipse transform="matrix(0.9972 -7.495125e-02 7.495125e-02 0.9972 -9.1753 2.0637)" class="st85" cx="22.9" cy="123.3" rx="2.1" ry="1.7"/>
		<ellipse transform="matrix(0.9853 -0.1709 0.1709 0.9853 -19.9868 5.7021)" class="st7" cx="23.1" cy="118.9" rx="0.8" ry="1.4"/>
		<path class="st86" d="M20.7,122.7c0,0,1.8-2.5,4.1-0.4"/>
	</g>
	<path class="st87" d="M29.6,125.9c-6.5,5.5-10.3-1-10.3-1s1,6.7,3.9,6.7c2.6,0,3-3.5,3-3.5"/>
	<path class="st12" d="M18.5,124.8c0,0,1,0.4,1.2-0.6"/>
	<path class="st88" d="M18.5,132l-3.2-17.9c-0.2-1.1,0.5-2.1,1.7-2.2l12.8-1c1.1-0.1,2.2,0.7,2.4,1.9l3.2,17.9
		c0.2,1.1-0.5,2.1-1.7,2.2l-12.8,1C19.7,134,18.7,133.1,18.5,132z"/>
	<line class="st84" x1="6.6" y1="116.7" x2="15.5" y2="116.1"/>
	<line class="st84" x1="32.4" y1="114.8" x2="35.2" y2="114.6"/>
	<line class="st84" x1="6.2" y1="123.9" x2="16.6" y2="123.1"/>
	<line class="st84" x1="33.7" y1="121.8" x2="36.3" y2="121.6"/>
	<line class="st84" x1="5.7" y1="131.1" x2="17.8" y2="130.1"/>
	<line class="st84" x1="5.2" y1="140" x2="38.9" y2="137.5"/>
	<line class="st84" x1="35" y1="128.8" x2="37.5" y2="128.7"/>
	<path class="st89" d="M9.5,127.9l1.5-0.1c1.1-0.1,2.1,0.8,2.2,1.9l0.2,3.1c0.1,1.1-0.8,2.1-1.9,2.2l-1.5,0.1
		c-1.1,0.1-2.1-0.8-2.2-1.9l-0.2-3.1C7.5,129,8.4,128,9.5,127.9z"/>
	<path class="st90" d="M9.1,127.2l1.5-0.1c1.1-0.1,2.1,0.8,2.2,1.9L13,132c0.1,1.1-0.8,2.1-1.9,2.2l-1.5,0.1
		c-1.1,0.1-2.1-0.8-2.2-1.9l-0.2-3.1C7.1,128.3,7.9,127.3,9.1,127.2z"/>
	<path class="st17" d="M9.1,127.2l1.5-0.1c1.1-0.1,2.1,0.8,2.2,1.9L13,132c0.1,1.1-0.8,2.1-1.9,2.2l-1.5,0.1
		c-1.1,0.1-2.1-0.8-2.2-1.9l-0.2-3.1C7.1,128.3,7.9,127.3,9.1,127.2z"/>
	<g>
		<line class="st12" x1="10.1" y1="130.7" x2="2.7" y2="124.4"/>
		<circle class="st11" cx="2.7" cy="124.4" r="2"/>
		<path class="st91" d="M1.6,124.6c-0.1-0.3,0-0.8,0.4-1"/>
	</g>
	<g>
		<path class="st92" d="M36.3,140.6L21,141.8c-0.8,0.1-1.6-0.5-1.8-1.3l-0.5-3c-0.1-0.8,0.4-1.5,1.3-1.5l15.4-1.2
			c0.8-0.1,1.6,0.5,1.8,1.3l0.5,3C37.7,139.9,37.1,140.5,36.3,140.6z"/>
		<g>
			<path class="st7" d="M20.8,138.6L20.8,138.6L20.8,138.6l-0.3-1.4l0.1-0.1l0.3,0.3l0.1,0.8L20.8,138.6z M20.7,136.9l0.1-0.1
				l1.2-0.1l0.1,0.1l-0.2,0.4l-0.9,0.1L20.7,136.9z M22.2,138.5l0.2,0.2l-0.1,0.3l-1,0.1l-0.2-0.2l0.1-0.3L22.2,138.5z M22.7,140.5
				l-0.1,0.1l-1.2,0.1l-0.1-0.1l0.2-0.4l0.9-0.1L22.7,140.5z M22.6,138.8L22.6,138.8L22.6,138.8l0.3,1.4l-0.1,0.1l-0.3-0.3l-0.1-0.8
				L22.6,138.8z"/>
			<path class="st7" d="M24.2,138.4L24.2,138.4L24.2,138.4l-0.3-1.4l0.1-0.1l0.3,0.3l0.1,0.8L24.2,138.4z M25.5,138.2l0.2,0.2
				l-0.1,0.3l-1,0.1l-0.2-0.2l0.1-0.3L25.5,138.2z M25.6,136.7l0.1,0.1l0.3,1.4l-0.1,0l0,0l-0.3-0.3l-0.1-0.8L25.6,136.7z
				 M25.9,138.6L25.9,138.6L25.9,138.6l0.3,1.4l-0.1,0.1l-0.3-0.3l-0.1-0.8L25.9,138.6z"/>
			<path class="st7" d="M27.6,138.1L27.6,138.1L27.6,138.1l-0.3-1.4l0.1-0.1l0.3,0.3l0.1,0.8L27.6,138.1z M27.4,136.4l0.1-0.1
				l1.2-0.1l0.1,0.1l-0.2,0.4l-0.9,0.1L27.4,136.4z M28.9,137.9l0.2,0.2l-0.1,0.3l-1,0.1l-0.2-0.2l0.1-0.3L28.9,137.9z M29.5,140
				l-0.1,0.1l-1.2,0.1l-0.1-0.1l0.2-0.4l0.9-0.1L29.5,140z M29,136.5l0.1,0.1l0.3,1.4l-0.1,0l0,0l-0.3-0.3l-0.1-0.8L29,136.5z
				 M29.3,138.3L29.3,138.3L29.3,138.3l0.3,1.4l-0.1,0.1l-0.3-0.3l-0.1-0.8L29.3,138.3z"/>
			<path class="st7" d="M30.7,136.2l0.1-0.1L32,136l0.1,0.1l-0.2,0.4l-0.9,0.1L30.7,136.2z M32.2,137.7l0.2,0.2l-0.1,0.3l-1,0.1
				l-0.2-0.2l0.1-0.3L32.2,137.7z M32.8,139.8l-0.1,0.1l-1.2,0.1l-0.1-0.1l0.2-0.4l0.9-0.1L32.8,139.8z M32.3,136.2l0.1,0.1l0.3,1.4
				l-0.1,0l0,0l-0.3-0.3l-0.1-0.8L32.3,136.2z M32.6,138.1L32.6,138.1L32.6,138.1l0.3,1.4l-0.1,0.1l-0.3-0.3l-0.1-0.8L32.6,138.1z"
				/>
			<path class="st7" d="M35.1,136l0.1,0.1l0.3,1.4l-0.1,0l0,0l-0.3-0.3l-0.1-0.8L35.1,136z M35.4,137.9L35.4,137.9L35.4,137.9
				l0.3,1.4l-0.1,0.1l-0.3-0.3l-0.1-0.8L35.4,137.9z"/>
		</g>
		<path class="st17" d="M36.3,140.6L21,141.8c-0.8,0.1-1.6-0.5-1.8-1.3l-0.5-3c-0.1-0.8,0.4-1.5,1.3-1.5l15.4-1.2
			c0.8-0.1,1.6,0.5,1.8,1.3l0.5,3C37.7,139.9,37.1,140.5,36.3,140.6z"/>
	</g>
	<path class="st86" d="M19.5,113.7c0,0-1.4,0.6-1,2.2"/>
	<g>
		<g>
			<line class="st93" x1="15.2" y1="109" x2="15" y2="106.3"/>
			<path class="st94" d="M14.5,101.1L14.5,101.1c1.6-0.1,3,0.8,3.1,2l0.3,3l-5.8,0.5l-0.3-3C11.7,102.3,12.9,101.2,14.5,101.1z"/>
			<line class="st17" x1="12.2" y1="104.2" x2="17.5" y2="103.8"/>
		</g>
		<g>
			<line class="st93" x1="26.5" y1="108" x2="26.3" y2="105.4"/>
			<path class="st94" d="M25.9,100.1L25.9,100.1c1.6-0.1,3,0.8,3.1,2l0.3,3l-5.8,0.5l-0.3-3C23,101.4,24.3,100.3,25.9,100.1z"/>
			<line class="st17" x1="23.5" y1="103.3" x2="28.8" y2="102.9"/>
		</g>
	</g>
</g>
<path class="st12" d="M213.1,78.9c5.8,0.8,6.7-4.4,6.7-4.4"/>
</svg>
