<?xml version="1.0" encoding="utf-8"?>
<!-- Generator: Adobe Illustrator 26.1.0, SVG Export Plug-In . SVG Version: 6.00 Build 0)  -->
<svg version="1.1" id="Layer_1" xmlns="http://www.w3.org/2000/svg" xmlns:xlink="http://www.w3.org/1999/xlink" x="0px" y="0px"
	 viewBox="0 0 371.34 150" style="enable-background:new 0 0 371.34 150;" xml:space="preserve">
<style type="text/css">
	.st0{fill:#FF60B2;stroke:#A42963;stroke-linejoin:round;stroke-miterlimit:10;}
	.st1{fill:#FF60B2;stroke:#942359;stroke-linejoin:round;stroke-miterlimit:10;}
	.st2{opacity:0.1;}
	.st3{fill:none;stroke:#942359;stroke-linecap:round;stroke-linejoin:round;stroke-miterlimit:10;}
	.st4{fill:none;stroke:#942359;stroke-linecap:round;stroke-miterlimit:10;}
	.st5{fill:#FFFFFF;stroke:#942359;stroke-linejoin:round;stroke-miterlimit:10;}
	.st6{fill:#942359;}
	.st7{fill:#FFFFFF;}
	.st8{fill:none;stroke:#942359;stroke-linejoin:round;stroke-miterlimit:10;}
	.st9{fill:#CDCED0;stroke:#686869;stroke-linejoin:round;stroke-miterlimit:10;}
	.st10{fill:#C669EA;stroke:#70327E;stroke-linejoin:round;stroke-miterlimit:10;}
	.st11{fill:#70327E;}
	.st12{fill:none;stroke:#70327E;stroke-linecap:round;stroke-linejoin:round;stroke-miterlimit:10;}
	.st13{clip-path:url(#SVGID_00000152256330368002130460000010963153179633118114_);}
	.st14{fill:none;stroke:#2AC5F4;stroke-width:6.1228;stroke-linejoin:round;stroke-miterlimit:10;}
	.st15{fill:none;stroke:#FF60B2;stroke-width:6.1228;stroke-linejoin:round;stroke-miterlimit:10;}
	.st16{fill:none;stroke:#FFF200;stroke-width:6.1228;stroke-linejoin:round;stroke-miterlimit:10;}
	.st17{fill:none;stroke:#70327E;stroke-linejoin:round;stroke-miterlimit:10;}
	.st18{fill:#F6EB25;}
	.st19{fill:#FFF200;stroke:#A1511A;stroke-linejoin:round;stroke-miterlimit:10;}
	.st20{fill:none;stroke:#A1511A;stroke-linecap:round;stroke-linejoin:round;stroke-miterlimit:10;}
	.st21{fill:#A1511A;}
	.st22{fill:#2AC5F4;stroke:#0B6A88;stroke-linejoin:round;stroke-miterlimit:10;}
	.st23{fill:#0B6A88;}
	.st24{fill:#0B6A88;stroke:#0B6A88;stroke-linecap:round;stroke-linejoin:round;stroke-miterlimit:10;}
	.st25{fill:#5FD3F7;}
	.st26{fill:#2AC5F4;}
	.st27{fill:none;stroke:#0A566E;stroke-linecap:round;stroke-linejoin:round;stroke-miterlimit:10;}
	.st28{clip-path:url(#SVGID_00000115515557388020244890000016178751326053555629_);}
	.st29{fill:#5FD3F7;stroke:#0A566E;stroke-linecap:round;stroke-linejoin:round;stroke-miterlimit:10;}
	.st30{fill:#2AC5F4;stroke:#0A566E;stroke-linecap:round;stroke-linejoin:round;stroke-miterlimit:10;}
	.st31{clip-path:url(#SVGID_00000127006040190919496270000000470819350263901833_);}
	.st32{opacity:0.1;stroke:#000000;stroke-width:0.2355;stroke-linecap:round;stroke-linejoin:round;stroke-miterlimit:10;}
	.st33{fill:none;stroke:#686869;stroke-linecap:round;stroke-linejoin:round;stroke-miterlimit:10;}
	.st34{fill:#0A566E;}
	.st35{fill:#CDCED0;stroke:#686869;stroke-linecap:round;stroke-linejoin:round;stroke-miterlimit:10;}
	.st36{fill:#CDCED0;stroke:#686869;stroke-miterlimit:10;}
	.st37{fill:#FF88C5;stroke:#70327E;stroke-linejoin:round;stroke-miterlimit:10;}
	.st38{fill:none;stroke:#FF4E15;stroke-width:5.7722;stroke-linejoin:round;stroke-miterlimit:10;}
	.st39{fill:none;stroke:#FF9F4C;stroke-width:5.7722;stroke-linejoin:round;stroke-miterlimit:10;}
	.st40{fill:none;stroke:#FFF200;stroke-width:5.7722;stroke-linejoin:round;stroke-miterlimit:10;}
	.st41{fill:none;stroke:#2AC5F4;stroke-width:5.7722;stroke-linejoin:round;stroke-miterlimit:10;}
	.st42{fill:none;stroke:#FF60B2;stroke-width:5.7722;stroke-linejoin:round;stroke-miterlimit:10;}
	.st43{fill:none;stroke:#B337E3;stroke-width:5.7722;stroke-linejoin:round;stroke-miterlimit:10;}
	.st44{fill:none;stroke:#FFFFFF;stroke-width:0.4497;stroke-linecap:round;stroke-miterlimit:10;}
	.st45{fill:none;stroke:#2AC5F4;stroke-linecap:round;stroke-linejoin:round;stroke-miterlimit:10;}
	.st46{fill:none;stroke:#404040;stroke-width:0.5685;stroke-linecap:round;stroke-linejoin:round;stroke-miterlimit:10;}
	.st47{fill:#E5E5E5;}
	.st48{fill:none;stroke:#808080;stroke-linecap:round;stroke-linejoin:round;stroke-miterlimit:10;}
	.st49{fill:#F16164;stroke:#701616;stroke-linejoin:round;stroke-miterlimit:10;}
	.st50{fill:#701616;}
	.st51{fill:none;stroke:#701616;stroke-linecap:round;stroke-linejoin:round;stroke-miterlimit:10;}
	.st52{fill:#FFF200;stroke:#06566E;stroke-linecap:round;stroke-linejoin:round;stroke-miterlimit:10;}
	.st53{fill:#FF9F4C;stroke:#000000;stroke-linecap:round;stroke-linejoin:round;stroke-miterlimit:10;}
	.st54{fill:none;stroke:#0A566E;stroke-width:0.8026;stroke-linecap:round;stroke-linejoin:round;stroke-miterlimit:10;}
	.st55{fill:#FFFFFF;stroke:#000000;stroke-linecap:round;stroke-linejoin:round;stroke-miterlimit:10;}
	.st56{clip-path:url(#SVGID_00000160162434344641454810000001161206260188712619_);}
	.st57{clip-path:url(#SVGID_00000146467041557304663150000008756306621401363091_);}
	.st58{clip-path:url(#SVGID_00000035526222209363454040000007298315758711388054_);}
	.st59{fill:none;stroke:#0A566E;stroke-width:1.884;stroke-linecap:round;stroke-miterlimit:10;}
	.st60{fill:#5FD3F7;stroke:#0A566E;stroke-miterlimit:10;}
	.st61{fill:#FF9F4C;stroke:#593314;stroke-linejoin:round;stroke-miterlimit:10;}
	.st62{fill:#FF9F4C;stroke:#701616;stroke-linejoin:round;stroke-miterlimit:10;}
	.st63{fill:#FF9F4C;stroke:#000000;stroke-linejoin:round;stroke-miterlimit:10;}
	.st64{fill:none;stroke:#000000;stroke-linecap:round;stroke-linejoin:round;stroke-miterlimit:10;}
	.st65{fill:none;stroke:#404040;stroke-width:0.8026;stroke-linecap:round;stroke-linejoin:round;stroke-miterlimit:10;}
	.st66{stroke:#000000;stroke-width:0.8026;stroke-linecap:round;stroke-linejoin:round;stroke-miterlimit:10;}
	.st67{stroke:#000000;stroke-width:0.4013;stroke-linecap:round;stroke-linejoin:round;stroke-miterlimit:10;}
	.st68{fill:#FF60B2;}
	.st69{fill:#FFF200;}
	.st70{fill:#CDCED0;}
	.st71{fill:none;stroke:#593314;stroke-linecap:round;stroke-linejoin:round;stroke-miterlimit:10;}
	.st72{fill:#593314;}
	.st73{fill:none;stroke:#593314;stroke-width:0.75;stroke-linecap:round;stroke-linejoin:round;stroke-miterlimit:10;}
	.st74{fill:#593314;stroke:#593314;stroke-width:0.2355;stroke-linecap:round;stroke-linejoin:round;stroke-miterlimit:10;}
	.st75{fill:none;stroke:#FF60B2;stroke-linecap:round;stroke-miterlimit:10;}
	.st76{fill:none;stroke:#2AC5F4;stroke-linecap:round;stroke-miterlimit:10;}
	.st77{fill:none;stroke:#FFF200;stroke-linecap:round;stroke-miterlimit:10;}
	.st78{fill:none;stroke:#FF9F4C;stroke-linecap:round;stroke-miterlimit:10;}
	.st79{fill:#FF9F4C;}
	.st80{fill:#A1511A;stroke:#A1511A;stroke-linecap:round;stroke-linejoin:round;stroke-miterlimit:10;}
	.st81{opacity:0.05;}
	.st82{fill:none;stroke:#686869;stroke-linejoin:round;stroke-miterlimit:10;}
	.st83{fill:#B337E3;}
	
		.st84{fill:none;stroke:#70327E;stroke-width:0.5;stroke-linecap:round;stroke-linejoin:round;stroke-miterlimit:10;stroke-dasharray:0,1;}
	.st85{fill:#ECCDF8;}
	.st86{fill:none;stroke:#70327E;stroke-linecap:round;stroke-miterlimit:10;}
	.st87{fill:#70327E;stroke:#70327E;stroke-linecap:round;stroke-linejoin:round;stroke-miterlimit:10;}
	.st88{fill:none;stroke:#70327E;stroke-width:0.5449;stroke-linejoin:round;stroke-miterlimit:10;}
	.st89{opacity:0.15;}
	.st90{fill:#FF4E15;}
	.st91{fill:none;stroke:#FFFFFF;stroke-width:0.5;stroke-linecap:round;stroke-miterlimit:10;}
	.st92{fill:#855191;}
	.st93{font-family:'DSEG7ClassicMini-Bold';}
	.st94{font-size:3.9999px;}
	.st95{fill:none;stroke:#70327E;stroke-width:0.9405;stroke-linejoin:round;stroke-miterlimit:10;}
	.st96{fill:#FF4E15;stroke:#70327E;stroke-width:0.9405;stroke-linejoin:round;stroke-miterlimit:10;}
</style>
<g>
	<path class="st0" d="M179.52,106.39c0-4.63-2.31-5.35-2.31-9.91c0-2.53,0.72-6.58,2.39-6.58c-1.66,0-2.39-4.05-2.39-6.58
		c0-4.14,2.31-5.64,2.31-10.85c0-8.91-5.5-7.74-5.5-7.74l-0.14-4.41c0,0,10.05-1.81,10.05,12.05c0,4.53-1.87,7.81-1.87,11.39
		c0,3.43,4.19,3.43,4.19,3.43v4.86c0,0-3.29,0.42-3.29,4.51c0,4.74,2.47,4.74,2.47,9.31"/>
	<path class="st1" d="M165.4,106.39c0-4.63,2.31-5.35,2.31-9.91c0-2.53-0.72-6.58-2.39-6.58c1.66,0,2.39-4.05,2.39-6.58
		c0-4.14-2.31-5.64-2.31-10.85c0-8.91,5.5-7.74,5.5-7.74l0.14-4.41c0,0-10.05-1.81-10.05,12.05c0,4.53,1.87,7.81,1.87,11.39
		c0,3.43-4.19,3.43-4.19,3.43l1.16,4.81c0,0,2.13,0.47,2.13,4.56c0,4.74-2.47,4.74-2.47,9.31"/>
	<g class="st2">
		<path d="M177.52,88.25h1.42c0.75,0,1.37-0.61,1.37-1.37h0.94c0,1.27-1.04,2.31-2.31,2.31h-1
			C177.94,89.19,177.57,88.54,177.52,88.25z"/>
	</g>
	<g class="st2">
		<path d="M167.39,88.25h-1.42c-0.75,0-1.37-0.61-1.37-1.37h-0.94c0,1.27,1.04,2.31,2.31,2.31h1
			C166.98,89.19,167.35,88.54,167.39,88.25z"/>
	</g>
	<path class="st3" d="M180.44,83.11c0,0,2.34-3.21,4.34-4.11c0.85-0.38,1.84-0.26,1.84,1.25"/>
	<path class="st4" d="M173.37,90.38c0,1.41,0,3.35-1.16,3.35c-1.16,0-1.16-1.93-1.16-3.35"/>
	<path class="st5" d="M180.52,87.92h-5.45c-1.02,0-1.84-0.82-1.84-1.84v-7.56c0-1.02,0.82-1.84,1.84-1.84h5.45
		c1.02,0,1.84,0.82,1.84,1.84v7.56C182.35,87.1,181.53,87.92,180.52,87.92z"/>
	<ellipse class="st6" cx="176.6" cy="82.51" rx="1.92" ry="4.08"/>
	<ellipse class="st7" cx="176.08" cy="82.76" rx="0.76" ry="1.21"/>
	<path class="st5" d="M168.98,87.92h-5.45c-1.02,0-1.84-0.82-1.84-1.84v-7.56c0-1.02,0.82-1.84,1.84-1.84h5.45
		c1.02,0,1.84,0.82,1.84,1.84v7.56C170.81,87.1,169.99,87.92,168.98,87.92z"/>
	<ellipse class="st6" cx="164.8" cy="82.51" rx="1.92" ry="4.08"/>
	<ellipse class="st7" cx="164.28" cy="82.76" rx="0.76" ry="1.21"/>
	<path class="st8" d="M170.81,82.55c0,0,1-0.89,2.42,0"/>
</g>
<g>
	<g>
		<path class="st9" d="M213.77,101.12c-4.07-12.41-1.99-20.72-1.9-21.06l2.73,0.71l-1.37-0.36l1.37,0.35
			c-0.02,0.08-1.95,7.91,1.85,19.47L213.77,101.12z"/>
		<path class="st2" d="M211.06,82.95c0,0,1.11,1.15,3.44,1.39c0.01-0.33,0.09-1.2,0.15-1.49l-3.36-1.31
			C211.29,81.54,211.14,81.91,211.06,82.95z"/>
	</g>
	<g>
		<path class="st9" d="M219.44,101.12c-4.07-12.41-1.99-20.72-1.9-21.06l2.73,0.71l-1.37-0.36l1.37,0.35
			c-0.02,0.08-1.95,7.91,1.85,19.47L219.44,101.12z"/>
	</g>
	<path class="st2" d="M216.63,84.39c0,0,2.68-0.15,3.62-0.97c0,0,0.11-1.1,0.15-1.29l-3.68,1.01
		C216.72,83.14,216.66,83.72,216.63,84.39z"/>
	<ellipse class="st10" cx="216.02" cy="71.9" rx="9.7" ry="11.13"/>
	<g>
		<ellipse class="st11" cx="216.38" cy="72.26" rx="1.46" ry="4.17"/>
		<ellipse class="st7" cx="216" cy="73.23" rx="0.55" ry="1.21"/>
	</g>
	<path class="st12" d="M209.15,67.02c0,0-0.03-1.43,1-1.61"/>
	<path class="st12" d="M218.13,67.02c0,0,0.03-1.43-1-1.61"/>
	<g>
		<ellipse class="st11" cx="210.6" cy="72.26" rx="1.46" ry="4.17"/>
		<ellipse class="st7" cx="210.17" cy="73.23" rx="0.55" ry="1.21"/>
	</g>
</g>
<g>
	<g>
		<g>
			<defs>
				<path id="SVGID_1_" d="M216.71,101.87h-12.12c0-4-2.67-7.25-5.95-7.25s-5.95,3.25-5.95,7.25h-12.12
					c0-12.14,8.11-22.02,18.07-22.02S216.71,89.73,216.71,101.87z"/>
			</defs>
			<clipPath id="SVGID_00000070076961592607648180000017105852381366775173_">
				<use xlink:href="#SVGID_1_"  style="overflow:visible;"/>
			</clipPath>
			<g style="clip-path:url(#SVGID_00000070076961592607648180000017105852381366775173_);">
				<path class="st14" d="M182.59,102.28c0-10.78,7.2-19.55,16.05-19.55s16.05,8.77,16.05,19.55"/>
			</g>
			<g style="clip-path:url(#SVGID_00000070076961592607648180000017105852381366775173_);">
				<path class="st15" d="M186.63,101.86c0-8.07,5.39-14.63,12.01-14.63c6.62,0,12.01,6.56,12.01,14.63"/>
			</g>
			<g style="clip-path:url(#SVGID_00000070076961592607648180000017105852381366775173_);">
				<path class="st16" d="M190.67,101.86c0-5.35,3.58-9.71,7.97-9.71c4.4,0,7.97,4.36,7.97,9.71"/>
			</g>
		</g>
		<g>
			<path class="st17" d="M216.71,101.87h-12.12c0-4-2.67-7.25-5.95-7.25s-5.95,3.25-5.95,7.25h-12.12
				c0-12.14,8.11-22.02,18.07-22.02S216.71,89.73,216.71,101.87z"/>
		</g>
	</g>
	<path class="st12" d="M199.73,90.9c0,0-0.17,2.08-1.48,2.08c-1.32,0-1.48-2.08-1.48-2.08"/>
	<polygon class="st18" points="197.05,93.87 195.31,94.68 196.19,96.49 198.93,95.86 199.17,94.3 	"/>
	<g>
		<g>
			<path class="st11" d="M195.33,89.61c-0.59-5.21-3.31-5.16-3.88,0.01c-0.79,1.1-0.61-2.49-0.41-2.88c0.31-1.9,2.56-3.07,4-1.45
				c0.99,1.25,0.99,2.89,0.76,4.34C195.76,89.9,195.34,89.87,195.33,89.61L195.33,89.61z"/>
		</g>
		<path class="st12" d="M190.5,84.57c0,0-0.06-1.23,1.14-1.38"/>
	</g>
	<g>
		<g>
			<path class="st11" d="M200.72,89.63c-0.22-1.45-0.23-3.09,0.76-4.34c1.43-1.62,3.68-0.46,4,1.45c0.21,0.39,0.36,4.03-0.41,2.87
				c-0.58-5.19-3.3-5.18-3.88,0C201.17,89.88,200.76,89.89,200.72,89.63L200.72,89.63z"/>
		</g>
		<path class="st12" d="M206.02,84.57c0,0,0.06-1.23-1.14-1.38"/>
	</g>
</g>
<g>
	<path class="st19" d="M160.14,85.5c-0.9-4.65-1.77-8.5-2.61-11.69c1.24-1.53,3.04-3.73,4.32-5.17l-1.45-4.07
		c-1.19,1.34-2.92,3.45-4.11,4.91c-2.94-9.26-5.51-10.64-7.72-10.41c-0.94,0.1-2.32,0.55-3.5,2.14c-1.73,2.33-2.67,6.58-2.81,12.63
		c-0.1,4.27,0.24,9.12,0.93,13.31c-3.99,5.8-5.33,7.96-5.39,8.05l4.39,0.03c0.05-0.07-0.59,0.94,2.02-3.02
		c3.35,14.51,9.08,22.86,15.33,22.21c0.19-0.02,0.38-0.05,0.57-0.08c0.63-0.12,1.53-0.48,2.23-1.53c2.25-3.38,0.93-12.52-1.75-25.2
		C160.39,86.73,160.23,86.01,160.14,85.5z M147.92,63.94c0.37-0.5,1.55-0.67,1.96,0c0.76,1.26,2,3.83,3.52,9.16
		c-2.48,3.18-4.87,6.45-7.05,9.51C145.52,74.95,145.85,66.73,147.92,63.94z M159.22,110.67c-0.02,0-0.04,0-0.05,0.01
		c-3.76,0.39-9.02-7.14-12-22.6c-0.01-0.07-0.03-0.14-0.04-0.21c2.18-3.17,4.72-6.74,7.45-10.3c0.59,2.45,1.22,5.31,1.87,8.65
		c0.1,0.52,0.26,1.26,0.45,2.17c0.66,3.14,1.77,8.4,2.38,13.17C160.14,108.47,159.43,110.29,159.22,110.67z"/>
	<path class="st9" d="M145.34,96.73c-0.39,0.12-0.43,0.17-0.74,0.24c-0.3,0.07-0.59,0.12-0.89,0.18c-0.59,0.1-1.17,0.19-1.75,0.25
		c-1.16,0.14-2.31,0.19-3.46,0.21c-2.3,0.03-4.57-0.15-6.81-0.46l-1.68-0.27c-0.56-0.09-1.11-0.22-1.66-0.33
		c-1.11-0.21-2.19-0.51-3.28-0.79c-1.09-0.28-2.15-0.65-3.22-0.98c-1.06-0.37-2.1-0.76-3.15-1.14c-0.57-0.21-0.87-0.84-0.66-1.41
		c0.2-0.55,0.79-0.84,1.34-0.68l0.06,0.02c1.04,0.31,2.07,0.63,3.1,0.92c1.05,0.25,2.08,0.55,3.14,0.75c1.05,0.2,2.1,0.43,3.16,0.57
		c0.53,0.07,1.06,0.17,1.59,0.22l1.59,0.16c2.12,0.17,4.24,0.21,6.34,0.06c1.04-0.08,2.08-0.19,3.1-0.37
		c0.51-0.08,1.01-0.19,1.5-0.31c0.24-0.06,0.49-0.12,0.72-0.19c0.22-0.06,0.63-0.2,0.63-0.2C144.69,93.9,145.08,95.94,145.34,96.73z
		"/>
	<path class="st2" d="M143.47,93.05c0,0-0.03,2.34,0.54,4.39c0.42-0.09,0.88-0.17,1.08-0.26c0.01-0.08,0.01-3.8-0.93-4.33
		C143.97,92.9,143.72,92.98,143.47,93.05z"/>
	<path class="st20" d="M144.19,92.23c3.35,14.51,9.08,22.86,15.33,22.21"/>
	<g>
		
			<ellipse transform="matrix(0.9506 -0.3104 0.3104 0.9506 -20.5892 51.097)" class="st21" cx="150.27" cy="90.25" rx="1.47" ry="3.49"/>
		
			<ellipse transform="matrix(0.9506 -0.3104 0.3104 0.9506 -20.3641 50.7819)" class="st7" cx="149.39" cy="89.38" rx="0.5" ry="1"/>
	</g>
	<g>
		
			<ellipse transform="matrix(0.9506 -0.3104 0.3104 0.9506 -19.9202 52.0272)" class="st21" cx="153.53" cy="88.61" rx="1.47" ry="3.49"/>
		<ellipse transform="matrix(0.9506 -0.3104 0.3104 0.9506 -19.695 51.7122)" class="st7" cx="152.65" cy="87.74" rx="0.5" ry="1"/>
	</g>
</g>
<g>
	<path class="st22" d="M234.62,72.7l-0.66,3.94c0,0-3.65-0.95-4.23-0.95c-0.04,0.5-2.61,8.51-0.58,23.07
		c-3.49,0.29-6.02,0.25-6.02,0.25s-2.98-14.57,0.51-28.03c0.18-0.68,0.86-1.11,1.54-0.94C228.05,70.74,234.62,72.7,234.62,72.7z"/>
	<path class="st22" d="M240.49,74.02l-0.66,4.03c0,0,1.78,0.58,2.03,0.66c-0.12,0.62-1.62,6.6-1.54,19.84
		c1.04,0,3.57,0.08,3.57,0.08s-1.08-8.13,2.28-22.49C245.39,75.63,242.69,74.56,240.49,74.02z"/>
	<g>
		
			<ellipse transform="matrix(0.0568 -0.9984 0.9984 0.0568 135.7577 312.2899)" class="st23" cx="233.15" cy="84.3" rx="3.92" ry="1.55"/>
		
			<ellipse transform="matrix(0.9998 -0.0182 0.0182 0.9998 -1.4737 4.2713)" class="st7" cx="233.7" cy="83.02" rx="0.57" ry="1.24"/>
	</g>
	<g>
		
			<ellipse transform="matrix(0.0568 -0.9984 0.9984 0.0568 139.7971 317.5711)" class="st23" cx="237.97" cy="84.8" rx="3.92" ry="1.55"/>
		
			<ellipse transform="matrix(0.9998 -0.0182 0.0182 0.9998 -1.482 4.3591)" class="st7" cx="238.52" cy="83.52" rx="0.57" ry="1.24"/>
	</g>
	<g>
		<path class="st24" d="M235.7,91.89c-4.41,2.24-5.32-4.56-5.32-4.56s-0.49,6.87,1.94,7.75c0.44,0.16,1.27-0.43,1.42-2.64"/>
	</g>
</g>
<g>
	<polygon class="st25" points="241.61,130.26 241.27,134.62 257.72,134.76 256.65,130.39 	"/>
	<path class="st25" d="M241.27,134.62l-88.21,0.2l-4.77-30.01l-2.95,0.07l-0.4-4.16c0,0,49.54-3.69,101.9-3.29
		c0,2.01-0.6,4.43-0.6,4.43h-2.82L241.27,134.62z"/>
	<path class="st26" d="M243.35,104.11c0,0-39.23-1.59-94.59,2.53c-0.8-1.33-0.44-1.82-0.44-1.82s49.6-3.9,95.03-2.92
		C243.27,102.87,243.35,104.11,243.35,104.11z"/>
	<g>
		<path class="st26" d="M153.3,134.91l-0.01-1.2c0.61-0.01,61.1-0.7,106.2-0.18l-0.01,1.2C214.38,134.21,153.9,134.91,153.3,134.91z
			"/>
	</g>
	<path class="st26" d="M158.93,135.1c-0.14-1.17-0.11-2.39,0.12-3.61c1.21-6.28,7.28-10.38,13.55-9.18c4.6,0.89,8.04,4.39,9.07,8.67
		C182.05,132.54,161.59,134.33,158.93,135.1z"/>
	<path class="st26" d="M204.01,135.1c-0.14-1.17-0.11-2.39,0.12-3.61c1.21-6.28,7.28-10.38,13.55-9.18c4.6,0.89,8.04,4.39,9.07,8.67
		C227.13,132.54,206.67,134.33,204.01,135.1z"/>
	<path class="st27" d="M148.23,104.87c0.4,2.82,4.82,29.97,4.82,29.97s43.07,0,88.13,0l2.37-32.94"/>
	<path class="st27" d="M145.45,104.87l-0.67-4.17c57.4-3.47,102.23-3.3,102.23-3.3l-0.86,4.44
		C246.15,101.85,201.35,100.78,145.45,104.87z"/>
	<g>
		<path class="st27" d="M241.84,130.48c7.17,0,13,0.03,16.67,0.03l-0.84,4.33c-3.51,0-10.67,0-16.5,0"/>
	</g>
	<g>
		<path class="st7" d="M216.38,147.87c-1.01-0.2-2.01-0.52-2.95-0.97c-2.94-1.4-5.16-3.86-6.25-6.94c-1.09-3.07-0.92-6.38,0.48-9.33
			c2.39-5.02,7.87-7.79,13.32-6.74c1.01,0.2,2.01,0.52,2.95,0.97c2.94,1.4,5.16,3.86,6.25,6.94c1.09,3.07,0.92,6.38-0.48,9.33
			C227.3,146.15,221.83,148.92,216.38,147.87z"/>
		<g>
			<defs>
				<circle id="SVGID_00000017484358945726475420000003324905642483123628_" cx="218.68" cy="135.88" r="13.81"/>
			</defs>
			<clipPath id="SVGID_00000004541916042460609060000012096825146137909182_">
				<use xlink:href="#SVGID_00000017484358945726475420000003324905642483123628_"  style="overflow:visible;"/>
			</clipPath>
			<g style="clip-path:url(#SVGID_00000004541916042460609060000012096825146137909182_);">
				<line class="st27" x1="228.22" y1="115.83" x2="209.13" y2="155.93"/>
				<line class="st27" x1="198.63" y1="126.34" x2="238.72" y2="145.43"/>
				<line class="st27" x1="211.25" y1="114.96" x2="226.1" y2="156.81"/>
				<line class="st27" x1="197.75" y1="143.31" x2="239.6" y2="128.46"/>
			</g>
		</g>
		<circle class="st29" cx="218.68" cy="135.88" r="3.4"/>
		<path class="st30" d="M220.67,125.47L220.67,125.47c0.88,0.17,1.74,0.45,2.56,0.84c2.56,1.22,4.48,3.36,5.43,6.02
			c0.95,2.67,0.8,5.54-0.42,8.1c-2.08,4.36-6.83,6.77-11.56,5.86c-0.88-0.17-1.74-0.45-2.56-0.84c-2.56-1.22-4.48-3.36-5.43-6.02
			s-0.8-5.54,0.42-8.1C211.18,126.97,215.94,124.56,220.67,125.47 M221.28,122.32c-6.03-1.16-12.31,1.83-15.07,7.63
			c-3.28,6.88-0.35,15.12,6.53,18.4c1.09,0.52,2.21,0.88,3.33,1.1c6.03,1.16,12.31-1.83,15.07-7.63c3.28-6.88,0.35-15.12-6.53-18.4
			C223.53,122.9,222.41,122.54,221.28,122.32L221.28,122.32z"/>
	</g>
	<g>
		<path class="st7" d="M168.05,146.66c-5.66-2.99-8.04-9.92-5.42-15.77c2.75-6.14,9.98-8.9,16.12-6.15
			c0.25,0.11,0.49,0.23,0.73,0.36c5.66,2.99,8.04,9.92,5.42,15.77c-2.75,6.14-9.98,8.9-16.12,6.15
			C168.53,146.91,168.29,146.79,168.05,146.66z"/>
		<g>
			<defs>
				<circle id="SVGID_00000046307656563827621940000010768318311088700857_" cx="173.77" cy="135.88" r="13.81"/>
			</defs>
			<clipPath id="SVGID_00000124841268843303788220000009574419520811840439_">
				<use xlink:href="#SVGID_00000046307656563827621940000010768318311088700857_"  style="overflow:visible;"/>
			</clipPath>
			<g style="clip-path:url(#SVGID_00000124841268843303788220000009574419520811840439_);">
				<line class="st27" x1="182.84" y1="115.62" x2="164.69" y2="156.15"/>
				<line class="st27" x1="153.5" y1="126.81" x2="194.03" y2="144.96"/>
				<line class="st27" x1="165.85" y1="115.14" x2="181.68" y2="156.63"/>
				<line class="st27" x1="153.02" y1="143.79" x2="194.51" y2="127.97"/>
			</g>
		</g>
		<circle class="st29" cx="173.77" cy="135.88" r="3.4"/>
		<path class="st30" d="M180.23,123.68 M178.73,126.52c4.91,2.6,6.98,8.61,4.71,13.69c-1.16,2.58-3.25,4.56-5.9,5.57
			c-2.64,1.01-5.52,0.93-8.11-0.23c-0.21-0.1-0.43-0.2-0.63-0.31c-4.91-2.6-6.98-8.61-4.71-13.69c1.16-2.58,3.25-4.56,5.9-5.57
			c2.64-1.01,5.52-0.93,8.11,0.23C178.31,126.31,178.53,126.41,178.73,126.52L178.73,126.52z M180.23,123.68 M180.23,123.68
			c-0.27-0.14-0.54-0.28-0.82-0.4c-6.96-3.12-15.13,0-18.24,6.96c-2.99,6.68-0.24,14.47,6.14,17.84c0.27,0.14,0.54,0.28,0.82,0.4
			c6.96,3.12,15.13,0,18.24-6.96C189.36,134.85,186.61,127.05,180.23,123.68L180.23,123.68z"/>
	</g>
</g>
<path class="st2" d="M186.02,98.25c0,0-0.82,2.13,0.01,3.03c0.51,0.56,1.53,0.49,1.67,0.1C187.85,100.99,187.95,97.92,186.02,98.25z
	"/>
<path class="st9" d="M188.4,96.56c-0.74-0.01-1.99,0.42-2.19,2.44c-0.09,0.86,0.15,2.42,1.23,2.37c0.8-0.03,1.58-0.92,1.94-2.6
	C189.44,98.5,189.77,96.58,188.4,96.56z"/>
<path class="st2" d="M204.81,97.67c0,0-0.32,2.38,0.64,3.13c0.59,0.46,1.53,0.15,1.58-0.28C207.08,100.08,206.54,96.89,204.81,97.67
	z"/>
<path class="st9" d="M206.28,95.95c0.74,0.01,1.97,0.48,2.11,2.51c0.06,0.86-0.23,2.41-1.31,2.33c-0.8-0.06-1.54-0.97-1.85-2.66
	C205.18,97.86,204.92,95.93,206.28,95.95z"/>
<path class="st2" d="M195.06,98.03c0,0-0.31,4.85,1.27,9.88c0.15,0.47-0.51-0.08-0.51-0.08s-2.34-6.31-1.45-9.8
	C194.64,98.01,195.06,98.03,195.06,98.03z"/>
<path class="st32" d="M195.84,108.44l-2.51,4.87c-0.1,0.19-0.39,0.13-0.41-0.08l-0.15-1.84"/>
<g>
	<g>
		<path class="st9" d="M198.46,98.07c-1.75-3.59-3.49-3.9-4.73-3.8c-1.25,0.1-2.26,1.02-2.69,2.46c-1.09,3.63,0.28,8.53,1.16,11.06
			l0,0l-0.67,5.6l4.45-5.31c-0.76-1.76-2.49-6.88-1.74-10.06"/>
		<path class="st2" d="M195.02,96.45c0,0,0.42,0.56,0.63,1.6c0,0-1.11-0.03-1.12-0.06C194.52,97.96,194.79,96.45,195.02,96.45z"/>
		<path class="st33" d="M194.23,101.88c0,0-0.6-3.22,0.51-5.2"/>
	</g>
</g>
<path class="st32" d="M201.43,108.44l-2.51,4.87c-0.1,0.19-0.39,0.13-0.41-0.08l-0.15-1.84"/>
<path class="st2" d="M200.73,97.86c0,0-0.28,4.78,1.3,9.92c0.15,0.48-0.51-0.08-0.51-0.08s-2.42-6.14-1.53-9.71
	C200.26,97.97,200.73,97.86,200.73,97.86z"/>
<g>
	<g>
		<path class="st9" d="M204.14,97.88c-1.77-3.58-3.51-3.89-4.75-3.78c-1.25,0.11-2.25,1.03-2.68,2.47
			c-1.07,3.63,0.33,8.53,1.22,11.05l0,0l-0.64,5.6l4.42-5.33c-0.77-1.76-2.53-6.87-1.79-10.05"/>
		<path class="st2" d="M200.7,96.29c0,0,0.42,0.56,0.63,1.6c0,0-1.14,0.1-1.15,0.07C200.17,97.93,200.47,96.29,200.7,96.29z"/>
		<path class="st33" d="M199.93,101.71c0,0-0.61-3.21,0.48-5.21"/>
	</g>
	<path class="st34" d="M204.64,97.57c0,0-3.77,0.15-4.17,0.16c-0.03,0.11-0.05,0.18-0.13,0.67c0.35,0.14,1.48-0.02,2.45-0.1
		C203.28,98.26,204.59,98.57,204.64,97.57z"/>
</g>
<g>
	<path class="st2" d="M165.23,101.6c0.5,0.05,1.7-0.42,2.45-1.88c0.2-0.4-0.77-0.14-0.84,0.03
		C166.77,99.91,165.23,101.6,165.23,101.6z"/>
	<g>
		<path class="st35" d="M169.17,99.19c0,0-0.81-3.02-3.31-2.53c-1.76,0.35-3.85,4.88-1.5,4.83c1.41-0.03,2.57-2.27,2.7-2.37"/>
	</g>
	<path class="st34" d="M170.03,98.87c0,0-2.68,0.06-2.74,0.07c-0.01,0.07-0.09,0.74-0.09,0.74l2.71,0.05L170.03,98.87z"/>
	<path class="st2" d="M167.74,98.25c0,0,0.24,0.22,0.39,0.8c0,0-0.34,0.58-0.44,0.62c-0.1-0.01-0.29-0.01-0.41,0
		c-0.1-0.01,0.13-0.52,0.09-0.62C167.35,98.95,167.56,98.28,167.74,98.25z"/>
	<path class="st35" d="M166.69,99.66c0,0,0.69-1,0.78-1.18"/>
</g>
<path class="st2" d="M149.88,100.96c0,0,1.01,0.58,2.01,0.17c0.37-0.15,0.94-0.51,0.79-0.74c-0.15-0.23-0.36-0.13-0.82,0.01
	C151.41,100.54,150.1,100.98,149.88,100.96z"/>
<g>
	<g>
		<path class="st9" d="M155.81,99.98c0,0-1.75-3.89-5.45-2.14c-1.42,0.67-2.54,3.13-0.11,3.04c0.55-0.02,1.63-0.26,2.26-0.89"/>
	</g>
	<polygon class="st34" points="156.31,99.55 152.97,99.73 152.47,100.38 156.36,100.24 	"/>
</g>
<path class="st2" d="M227.93,97.16c0,0,0.09,4.03,3.24,3.74C231.99,100.83,229.15,96.96,227.93,97.16z"/>
<path class="st2" d="M242.92,97.16c0,0,0.09,4.03,3.24,3.74C246.97,100.83,244.13,96.96,242.92,97.16z"/>
<g>
	<path class="st36" d="M223.24,97.64c0,0,0.7-2.94,4.99-2.92c1.47,0.01,3.46,1.93,3.49,4.09c0.01,1.04-0.26,1.89-1.65,1.9
		c-1.27,0.01-3.21-0.86-3.72-3.35"/>
	<path class="st34" d="M222.56,97.16c0,0,3.01-0.05,3.6-0.03c-0.01,0.28,0.01,0.71,0.01,0.71l-3.54,0.05L222.56,97.16z"/>
	<path class="st2" d="M226.21,96.43c0,0-0.72,0.06-1.19,0.69c-0.11,0.14,1.13,1.13,1.21,1S226.35,96.6,226.21,96.43z"/>
	<path class="st33" d="M226.82,98.66c0,0-0.42-0.66-0.57-1.88"/>
</g>
<g>
	<path class="st36" d="M240.15,97.42c0,0,0.73-2.94,5.02-2.86c1.47,0.03,3.44,1.98,3.44,4.13c0,1.04-0.28,1.89-1.67,1.88
		c-1.27,0-3.19-0.89-3.68-3.4"/>
	<path class="st34" d="M239.6,96.93c0,0,2.89-0.05,3.48-0.02c-0.01,0.28-0.03,0.8-0.03,0.8l-3.53-0.01L239.6,96.93z"/>
	<path class="st2" d="M243.11,96.25c0,0-0.87,0.1-1,0.66c-0.04,0.15,1.1,1.95,1.07,0.3C243.17,96.98,243.11,96.25,243.11,96.25z"/>
	<path class="st33" d="M243.71,98.49c0,0-0.41-0.67-0.54-1.88"/>
</g>
<g>
	<path class="st2" d="M172.72,101.32c0.5,0.05,1.7-0.42,2.45-1.88c0.2-0.4-0.77-0.14-0.84,0.03S172.72,101.32,172.72,101.32z"/>
	<g>
		<path class="st35" d="M176.67,98.91c0,0-0.81-3.02-3.31-2.53c-1.76,0.35-3.85,4.88-1.5,4.83c1.41-0.03,2.57-2.27,2.7-2.37"/>
	</g>
	<path class="st34" d="M177.25,98.55c0,0-2.44,0.11-2.5,0.12c-0.01,0.07,0.06,0.61,0.06,0.61l2.49,0.24L177.25,98.55z"/>
	<path class="st2" d="M175.23,97.97c0,0,0.23,0.06,0.39,0.65c0,0-0.3,0.57-0.42,0.7c-0.34-0.09-0.53,0.08-0.32-0.55
		C174.91,98.66,175.06,98,175.23,97.97z"/>
	<path class="st35" d="M174.18,99.38c0,0,0.69-1,0.78-1.18"/>
</g>
<path class="st2" d="M153.25,98.83c0,0,0.5,0.54,0.48,1.05c-0.01,0.22-0.88,0.16-0.83-0.01C152.94,99.7,153.31,99.21,153.25,98.83z"
	/>
<path class="st35" d="M151.7,100.52c0,0,0.79-0.12,1.32-1.43"/>
<path class="st37" d="M297.94,99.77l-8.39,1.62c-0.35,0.07-0.68-0.16-0.75-0.51l-1.62-8.39c-0.07-0.35,0.16-0.68,0.51-0.75
	l8.39-1.62c0.35-0.07,0.68,0.16,0.75,0.51l1.62,8.39C298.51,99.36,298.29,99.7,297.94,99.77z"/>
<g>
	<path class="st38" d="M346.38,67.07c0.17-0.9,0.31-2.3,0.33-2.52c0.59-8.05-1.25-16.69-5.35-25.03
		c-5.41-11.03-14.11-20.28-24.51-26.05c-10.45-5.8-23.3-8.43-37.19-7.58c-5.5,0.33-10.96,1.19-16.3,2.56
		c-8.13,2.07-15.97,5.31-23.2,9.6c-0.16,0.09-3.16,1.88-3.53,2.11"/>
	<path class="st39" d="M240.63,24.22c0.33-0.21,2.9-1.73,3.18-1.91c0.27-0.17,0.54-0.32,0.81-0.48c6.28-3.7,13.05-6.51,20.07-8.36
		c2.97-0.79,5.98-1.4,9.02-1.84c1.89-0.27,3.78-0.48,5.68-0.62c12.43-0.89,24.06,1.28,33.67,6.28c9.6,4.99,17.7,13.19,23.04,22.95
		c3.69,6.74,5.91,13.76,6.12,20.63c0.03,1,0.01,2.21-0.03,3.46c-0.01,0.32-0.12,1.6-0.26,2.47"/>
	<path class="st40" d="M244.51,28.54c0.29-0.18,2.42-1.46,2.83-1.72c0.24-0.15,0.48-0.29,0.72-0.44c5.57-3.39,11.59-5.96,17.82-7.7
		c2.64-0.74,5.32-1.33,8.02-1.77c1.68-0.27,3.37-0.49,5.06-0.64c10.98-0.97,21.38,0.7,30.16,4.88c8.83,4.18,16.38,11.29,21.63,19.78
		c3.91,6.32,6.49,13.02,6.84,19.76c0.04,0.81,0.05,2.06,0.06,3.37c0,0.43-0.07,1.59-0.19,2.42"/>
	<path class="st41" d="M248.39,32.89c0.24-0.16,1.94-1.19,2.48-1.54c0.21-0.14,0.42-0.27,0.63-0.4c4.86-3.07,10.12-5.42,15.57-7.05
		c2.32-0.69,4.67-1.26,7.03-1.69c1.47-0.27,2.95-0.49,4.44-0.66c9.52-1.05,18.71,0.13,26.66,3.48c8.05,3.37,15.11,9.37,20.23,16.61
		c4.17,5.9,7.04,12.29,7.56,18.89c0.05,0.62,0.11,1.9,0.14,3.29c0.01,0.54-0.03,1.57-0.11,2.37"/>
	<path class="st42" d="M252.27,37.21c0.2-0.14,1.46-0.91,2.13-1.35c0.18-0.12,0.36-0.24,0.54-0.35c4.15-2.75,8.66-4.87,13.31-6.39
		c1.99-0.65,4.01-1.19,6.04-1.62c1.27-0.27,2.54-0.5,3.82-0.68c8.07-1.13,16.03-0.44,23.16,2.08c7.27,2.56,13.87,7.41,18.82,13.45
		c4.46,5.44,7.55,11.55,8.28,18.02c0.05,0.43,0.16,1.74,0.23,3.2c0.03,0.64,0.02,1.55-0.04,2.32"/>
	<path class="st43" d="M256.09,41.69c0.19-0.14,1.33-0.84,2.22-1.48c4.92-3.5,10.46-5.87,16.09-7.31
		c7.62-1.94,15.53-2.02,22.86-0.06c6.5,1.74,12.69,5.37,17.43,10.24c4.8,4.93,7.91,10.83,9.04,17.13c0.07,0.37,0.44,3.15,0.36,5.38"
		/>
	<circle class="st7" cx="277.76" cy="21.24" r="0.31"/>
	<circle class="st7" cx="290.43" cy="20.23" r="0.31"/>
	<circle class="st7" cx="283.4" cy="11.54" r="0.5"/>
	<circle class="st7" cx="286.17" cy="26.11" r="0.5"/>
	<circle class="st7" cx="289.53" cy="7.08" r="0.5"/>
	<circle class="st7" cx="277.69" cy="6.71" r="0.5"/>
	<g>
		<line class="st44" x1="278.86" y1="31.54" x2="279.15" y2="31.03"/>
		<line class="st44" x1="278.16" y1="32.8" x2="278.45" y2="32.28"/>
		<line class="st44" x1="278.29" y1="31.71" x2="278.03" y2="31.56"/>
		<line class="st44" x1="279.28" y1="32.26" x2="279.02" y2="32.12"/>
	</g>
	<path class="st45" d="M257.71,43.89c11.6-9.37,28.92-12.29,42.44-7.13c14.18,5.42,18.78,17.11,20.24,21.24"/>
	<path class="st45" d="M249.9,9.48c23.73-9.71,51.4-9.95,71.94,3.29c23.81,15.35,26.83,39.7,27.61,45.47"/>
	<circle class="st7" cx="323.75" cy="55.96" r="0.31"/>
	<circle class="st7" cx="344.19" cy="50.77" r="0.31"/>
	<circle class="st7" cx="332.76" cy="53.99" r="0.31"/>
	<circle class="st7" cx="311.31" cy="35.28" r="0.31"/>
	<circle class="st7" cx="335.37" cy="44.81" r="0.31"/>
	<circle class="st7" cx="340.45" cy="35.78" r="0.31"/>
	<circle class="st7" cx="324.22" cy="27.11" r="0.31"/>
	<circle class="st7" cx="327.64" cy="20.33" r="0.31"/>
	<circle class="st7" cx="336.63" cy="29.27" r="0.31"/>
	<circle class="st7" cx="318.69" cy="43.91" r="0.31"/>
	<circle class="st7" cx="311.91" cy="27.19" r="0.5"/>
	<circle class="st7" cx="326.17" cy="49.88" r="0.5"/>
	<circle class="st7" cx="310.4" cy="39.93" r="0.5"/>
	<circle class="st7" cx="333.63" cy="48.25" r="0.5"/>
	<circle class="st7" cx="310.52" cy="10.65" r="0.5"/>
	<circle class="st7" cx="333.99" cy="34.88" r="0.5"/>
	<circle class="st7" cx="340.98" cy="55.21" r="0.5"/>
	<circle class="st7" cx="316.34" cy="22.64" r="0.5"/>
	<circle class="st7" cx="322.09" cy="18.49" r="0.5"/>
	<circle class="st7" cx="344.19" cy="45.22" r="0.5"/>
	<circle class="st7" cx="331.69" cy="26.11" r="0.5"/>
	<circle class="st7" cx="248.21" cy="27.51" r="0.31"/>
	<circle class="st7" cx="247.73" cy="32.14" r="0.5"/>
	<circle class="st7" cx="257.47" cy="27.04" r="0.5"/>
	<circle class="st7" cx="321.02" cy="33.27" r="0.5"/>
	<g>
		<line class="st44" x1="329.24" y1="38.22" x2="329.62" y2="37.77"/>
		<line class="st44" x1="328.31" y1="39.31" x2="328.69" y2="38.86"/>
		<line class="st44" x1="328.65" y1="38.27" x2="328.42" y2="38.08"/>
		<line class="st44" x1="329.52" y1="39.01" x2="329.29" y2="38.81"/>
	</g>
	<circle class="st7" cx="265.81" cy="24.3" r="0.5"/>
	<circle class="st7" cx="273.49" cy="25.65" r="0.5"/>
	<g>
		<line class="st44" x1="270.95" y1="19.09" x2="271.33" y2="18.64"/>
		<line class="st44" x1="270.02" y1="20.18" x2="270.4" y2="19.74"/>
		<line class="st44" x1="270.36" y1="19.14" x2="270.13" y2="18.95"/>
		<line class="st44" x1="271.22" y1="19.88" x2="271" y2="19.69"/>
	</g>
	<g>
		<line class="st44" x1="316.89" y1="14.37" x2="317.16" y2="14.9"/>
		<line class="st44" x1="316.23" y1="13.1" x2="316.5" y2="13.62"/>
		<line class="st44" x1="317.07" y1="13.8" x2="317.33" y2="13.67"/>
		<line class="st44" x1="316.05" y1="14.33" x2="316.32" y2="14.19"/>
	</g>
	<circle class="st7" cx="296.87" cy="22.95" r="0.5"/>
	<circle class="st7" cx="303.73" cy="35.21" r="0.5"/>
	<circle class="st7" cx="302.05" cy="26.95" r="0.5"/>
	<g>
		<line class="st44" x1="297.8" y1="31.35" x2="298.39" y2="31.35"/>
		<line class="st44" x1="296.37" y1="31.35" x2="296.96" y2="31.35"/>
		<line class="st44" x1="297.38" y1="30.93" x2="297.38" y2="30.63"/>
		<line class="st44" x1="297.38" y1="32.07" x2="297.38" y2="31.77"/>
	</g>
	<circle class="st7" cx="271.06" cy="34.07" r="0.31"/>
	<circle class="st7" cx="302.56" cy="8.91" r="0.31"/>
	<circle class="st7" cx="253.17" cy="13.67" r="0.31"/>
	<circle class="st7" cx="247.52" cy="9.39" r="0.5"/>
	<circle class="st7" cx="309.22" cy="15.66" r="0.5"/>
	<circle class="st7" cx="251.37" cy="16.41" r="0.5"/>
	<circle class="st7" cx="261.74" cy="17.23" r="0.5"/>
	<circle class="st7" cx="296.28" cy="17.29" r="0.5"/>
	<circle class="st7" cx="272.18" cy="13.61" r="0.5"/>
	<circle class="st7" cx="265.08" cy="8.45" r="0.31"/>
	<g>
		<line class="st44" x1="305.21" y1="19.85" x2="305.5" y2="19.34"/>
		<line class="st44" x1="304.52" y1="21.1" x2="304.8" y2="20.59"/>
		<line class="st44" x1="304.64" y1="20.02" x2="304.38" y2="19.87"/>
		<line class="st44" x1="305.64" y1="20.57" x2="305.38" y2="20.43"/>
	</g>
	<g>
		<line class="st44" x1="245.28" y1="15.81" x2="245.65" y2="16.27"/>
		<line class="st44" x1="244.39" y1="14.68" x2="244.75" y2="15.15"/>
		<line class="st44" x1="245.35" y1="15.21" x2="245.58" y2="15.03"/>
		<line class="st44" x1="244.45" y1="15.92" x2="244.69" y2="15.74"/>
	</g>
	<path class="st46" d="M296.08,20.77"/>
	<g>
		<path class="st7" d="M262.34,38.98c0,0-0.68-4.02-4.75-5.47l0.06-0.27c1.72-1.94,1.75-4.9-0.02-6.88
			c-0.29-0.33-0.62-0.6-0.97-0.83l0.06-0.08c2.16-5.04,0.73-10.88-3.42-14.2c-3.52-2.82-8.42-3.35-12.57-1.43l-0.11,0.09
			c-0.87-0.88-1.91-1.71-3.16-2.43c-0.62-0.36-7.13-3.94-13.87-0.63c-5.04,2.47-8.8,8.08-8.1,14.02c0.54,4.59,3.53,7.53,4.56,8.46
			l0.28-0.14c-1.14,1.06-1.95,2.49-2.21,4.14c-0.23,1.42-0.01,2.82,0.54,4.06l-0.17-0.05c-3.76,3.4-5.2,8.6-3.67,13.21
			c2.36,7.13,10.29,8.28,10.96,8.36c4.43,0.56,10.38-1.1,13.11-5.78l0.22,0.17c0.19,0.16,3.08,2.12,6.09,1.2
			c2.48-0.77,3.59-2.5,3.72-2.84c2.84,0.62,5.24,0.08,7.84-1.33C261.02,48.03,262.73,43.9,262.34,38.98z"/>
		<path class="st47" d="M240.31,44.91c0,0,1.61,3.33-0.04,8.78c-0.09,0.3-0.8-0.19-0.8-0.19l-0.36-0.33
			C239.11,53.17,240.82,50.19,240.31,44.91z"/>
		<path class="st47" d="M223.92,41.82l-3.56-1.98l-1.78-2.47l-0.91,1.07C217.67,38.45,219.99,41.62,223.92,41.82z"/>
		<path class="st47" d="M240.73,9.84l1.94,2.47l2.26,4.82c0,0,0.39-4.17-2.67-7.7C241.81,8.93,240.73,9.84,240.73,9.84z"/>
		<path class="st47" d="M250.86,25.42l2.83-0.79l2.92,0.82l0.43-1.18C257.04,24.27,252.65,22.67,250.86,25.42z"/>
		<path class="st47" d="M256.49,34.7c0,0,1.59-0.03,1.97-0.6c0.07-0.11-0.76-0.46-0.76-0.46S257.31,34.2,256.49,34.7z"/>
		<path class="st47" d="M220.23,29.24l2.39-1.69l3.39-0.61c0,0-4.09-1.12-6.54,1.29C219.14,28.57,220.01,29.04,220.23,29.24z"/>
		<path class="st48" d="M256.75,25.43c2.16-5.03,0.72-10.87-3.41-14.18c-3.52-2.81-8.4-3.35-12.55-1.43"/>
		<path class="st48" d="M226.26,27.25c-3.85-0.48-7.43,2.21-8.04,6.04c-0.61,3.82,1.95,7.49,5.75,8.24"/>
		<path class="st48" d="M218.59,37.3c-3.75,3.39-5.19,8.59-3.67,13.19c2.35,7.12,10.27,8.26,10.95,8.35
			c4.6,0.59,10.75-1.09,13.31-6.21c2.05-4.1,0.74-8.27,0.37-9.33"/>
		<path class="st48" d="M239.11,53.24c0.24,0.2,2.72,2.15,5.97,1.29c2.84-0.75,4.1-3.09,4.46-3.92"/>
		<path class="st48" d="M244.75,16.99c-0.28-1.07-1.83-6.41-7.21-9.5c-0.62-0.36-7.11-3.93-13.85-0.63c-5.03,2.46-8.78,8.06-8.08,14
			c0.54,4.58,3.52,7.52,4.55,8.45"/>
		<path class="st48" d="M251.1,25.56c2.44-1.48,5.61-0.7,7.09,1.73s0.7,5.61-1.73,7.09"/>
	</g>
</g>
<g>
	<path class="st49" d="M244.84,34.86l4.4,21.65l21.9-3.1c0,0-1.63-5.95-5.11-24.71C264.27,28.83,245.93,34.4,244.84,34.86z"/>
	<g>
		<g>
			
				<ellipse transform="matrix(0.9695 -0.2451 0.2451 0.9695 -2.3631 63.9225)" class="st50" cx="255.69" cy="41.46" rx="1.42" ry="4.15"/>
		</g>
		<line class="st51" x1="254.67" y1="37.57" x2="254.33" y2="36.22"/>
		<line class="st51" x1="254.15" y1="38.71" x2="252.94" y2="38.03"/>
		<line class="st51" x1="255.76" y1="38.17" x2="256.57" y2="37.04"/>
	</g>
	<g>
		<g>
			
				<ellipse transform="matrix(0.9695 -0.2451 0.2451 0.9695 -2.8653 62.5342)" class="st50" cx="249.86" cy="42.78" rx="1.42" ry="4.15"/>
		</g>
		<line class="st51" x1="248.84" y1="38.9" x2="248.5" y2="37.55"/>
		<line class="st51" x1="248.32" y1="40.03" x2="247.11" y2="39.35"/>
		<line class="st51" x1="249.93" y1="39.5" x2="250.74" y2="38.37"/>
	</g>
	<path class="st51" d="M256.33,48.45c0,0-4.14-1.47-3.5,1.09"/>
</g>
<g>
	<path class="st2" d="M263.17,42.85c0,0,0.29,5.58,2.9,10.85c0.55-0.06,3.27-0.38,3.27-0.38S263.91,44.89,263.17,42.85z"/>
	<path class="st35" d="M268.42,53.52c-1.34-1.51-3.37-5.08-4.84-10.36c-0.28-1,0.31-2.04,1.31-2.32c1-0.28,2.04,0.31,2.32,1.31
		c1.05,3.75,3.07,8.18,4.42,8.79c0.3,0.14,1.77-0.2,2.25,0.07c0.34,0.19,0.66,1,0.33,2.13"/>
</g>
<path class="st35" d="M273.08,50.9c0,0-1.92,0.06-3.09,0.48"/>
<g>
	<path class="st35" d="M291.29,52.77c0,0-2.47-1.42-3.4-2.14c-0.05-3.65-0.76-8.18-1.09-10.48l-1.86,0.28
		c0.31,2.14,1.3,8.38,1.08,12.39L291.29,52.77z"/>
	<path class="st2" d="M285.56,50.51l3.3,2c0,0-3.32,0.1-3.32,0.06C285.57,51.67,285.56,50.51,285.56,50.51z"/>
	<path class="st2" d="M284.91,43.57c0,0,2.97,2.54,3.24,3.21c0.07,0.17-0.02-0.19-0.02-0.19l-0.12-1.41l-1.4-2.21l-2.08-1.84
		C284.52,41.12,284.72,42.08,284.91,43.57z"/>
	<path class="st35" d="M287.63,52.82c0,0-2.45-1.47-3.37-2.2c0.02-3.65-0.6-8.19-0.71-9.33l-1.87,0.25
		c0.08,0.97,0.95,7.22,0.67,11.24L287.63,52.82z"/>
	<path class="st2" d="M281.59,45.58c0,0,0.18,1.02,0.17,1.21c0.15-0.15,2.34-2.34,2.58-2.88c-0.02-0.26-0.2-1.93-0.24-2.08
		C284.07,41.68,281.38,44.52,281.59,45.58z"/>
	<path class="st52" d="M288.92,46.2l1.99-0.98c0,0-0.42-3.02-2.58-8.94c0.73-0.69,3.65-3.89,5.05-9.66
		c-0.47-0.61-1.73-1.88-1.73-1.88s-1.46,3.42-4.46,5.22c-0.08-1.06-2.18-8.35-3.22-10.39c-0.66,0.18-1.92,0.56-2.26,0.71
		c0,0.42,0.33,8.42-0.43,10.28c-0.79-0.22-2.85-0.53-5.69-4.01c-0.48,0.49-1.11,1.07-1.55,1.48c0.14,0.68,1.57,3.87,5.57,8.7
		c0.08,1.94-0.19,4.61-1.66,9.35c1.11,0.78,1.58,1.1,1.92,1.29c0.38-0.27,4.18-6.02,4.6-6.93C285.35,41.37,288.14,44.7,288.92,46.2z
		"/>
	<g>
		
			<ellipse transform="matrix(0.9926 -0.1216 0.1216 0.9926 -2.0084 34.6963)" class="st34" cx="283.35" cy="33.81" rx="1.06" ry="2.52"/>
		
			<ellipse transform="matrix(0.9926 -0.1216 0.1216 0.9926 -1.932 34.7116)" class="st7" cx="283.52" cy="33.19" rx="0.5" ry="0.85"/>
	</g>
	<g>
		
			<ellipse transform="matrix(0.9926 -0.1216 0.1216 0.9926 -1.9477 35.05)" class="st34" cx="286.28" cy="33.49" rx="1.06" ry="2.52"/>
		
			<ellipse transform="matrix(0.9926 -0.1216 0.1216 0.9926 -1.8713 35.0653)" class="st7" cx="286.45" cy="32.87" rx="0.5" ry="0.85"/>
	</g>
	<g>
		<path class="st27" d="M285.65,37.84c0,0-2.97,1.77-4.25-1.51"/>
	</g>
	<path class="st27" d="M278.04,37c0,0-2.88,1.53-3.15,1.7"/>
	<line class="st27" x1="289.87" y1="36.83" x2="292.83" y2="37.98"/>
	<line class="st27" x1="287.94" y1="27.21" x2="288.72" y2="24.07"/>
	<line class="st27" x1="279.95" y1="27.8" x2="278.25" y2="24.55"/>
</g>
<g>
	<polygon class="st25" points="292.76,43.93 293.77,53.26 298.53,53.73 299.74,48.09 296.52,49.03 299.47,45.68 299.74,41.65 	"/>
	<path class="st25" d="M256.11,55.07l13.63-1.61l9.8-0.54l12.89-0.13l10.67,0.87l1.81,39.54l5.37-0.34l-0.13-7.05l0.34-0.94
		l1.14-0.47l4.16-0.13l1.28,0.87l0.34,1.07l-0.13,6.51l6.51-0.27l-3.29-29.67l-0.74,0.2l-1.61-4.7l17.52-0.47l16.65,0.94l-1.01,4.16
		l-0.81,0.13L347.14,93l2.95,0.2l2.22,15.1l-2.22,15.37l16.51,24.77l-25.44-0.2l-7.18-13.22l-0.27,7.59l-28.93,0.07l-0.13-7.79
		l-7.72,0.07l-39.74-9.6l-7.92-64.24l-3.29-4.09L256.11,55.07z M254.63,61.38c0,0,3.83,34.17,3.96,36.05
		c10.14-1.14,41.55-0.74,41.55-0.74l-1.68-37.53C275.17,57.16,254.63,61.38,254.63,61.38z"/>
	<polygon class="st26" points="327.48,62.73 326.97,57.86 318.14,58.06 320.08,62.77 	"/>
	<polygon class="st26" points="330.99,92.49 328.69,62.63 320.52,62.88 323.75,92.41 	"/>
	<polygon class="st26" points="311.63,84.33 311.72,92.68 310.25,92.78 310.13,85.52 311.21,84.32 	"/>
	<polygon class="st26" points="292.49,43.71 293.79,52.7 295.08,52.67 294.95,48.88 295.48,47.87 295.74,42.72 	"/>
	<polygon class="st26" points="245.93,56.9 249.47,61.43 257.62,126.62 258.77,120.04 251.25,60.03 248.25,56.5 	"/>
	<path class="st26" d="M309.25,92.99c0,0-3.21,18.24,0.76,30.45c-1.3,0.06-3.72-0.01-3.72-0.01L305,93.24L309.25,92.99z"/>
	<path class="st26" d="M319.55,134.59l-14.82,0.44l0.12,1.6c0,0-0.11,2.94-0.16,3.03c-0.8,1.4,13.24,3.75,12.37,0.27
		c-0.39-1.54-1.3-2.81-2.49-3.68c2.84-0.05,6.09-0.04,9.47,0.06c-2.14,1.5-3.25,4.21-2.58,6.89c0.87,3.48,12.54-3.3,12.29-3.76
		c-0.26-0.49-0.02-2.51,0.22-2.48c0.31-1.2,0.11-1.99,0.11-1.99L319.55,134.59z"/>
	<polygon class="st25" points="333.28,123.14 332.36,134.78 334.2,134.75 335.05,123.37 	"/>
	<polygon class="st26" points="298.3,58.75 299.54,58.85 301.6,97.13 299.98,97.1 	"/>
	<path class="st26" d="M334.76,125.35c0,0-23.28-0.56-36.56,0.5c-0.96-1.06-1.11-1.79-1.11-1.79s27.38-1.25,37.72-0.67
		C334.81,124.23,334.76,125.35,334.76,125.35z"/>
	<path class="st26" d="M308.7,123.37c0,0,27.86-0.88,40.91,0.17c0.53-0.66,0.85-1.82,0.85-1.82s-18.15-1.13-41.79-0.06"/>
	<path class="st26" d="M257.19,125.28c-0.19-6.53,3.24-12.71,9.25-15.48c4.31-1.99,9.1-1.82,13.24,0.05
		C283.4,111.53,257.25,127.64,257.19,125.28z"/>
	<g>
		<path class="st53" d="M266.38,97.04l-4.08,0.2c1.47-1.25,0.7-3.07,0.61-3.43c-0.47,0.34-1.13,0.63-2.29,0.15
			c1.25-2.13,1.1-4.26,0.99-5.24c0,0,2.3-0.5,2.54-0.72"/>
	</g>
	<polyline class="st27" points="304.73,134.85 304.87,140.95 333.66,140.95 335.02,123.71 	"/>
	<path class="st27" d="M269.57,136.34c32.51-2.33,64.57-1.49,64.57-1.49l6.99,13.31c9.16-0.23,25.35-0.01,25.35-0.01l-16.48-24.59"
		/>
	<path class="st27" d="M305.18,93.17c21.08-1.39,44.82,0,44.82,0l2.23,15.19c0,0,0,0-2.23,15.19c-27.85-0.93-43.83,0-43.83,0"/>
	<path class="st27" d="M257.5,126.84c0,0,23.23-2.53,48.67-3.29c-0.09-5.15-3.06-69.98-3.06-69.98s-22.1-3.29-57.34,3.28
		c1.05,1.41,3.47,4.4,3.47,4.4L257.5,126.84z"/>
	<path class="st27" d="M310.16,92.77l-0.05-6.9c0.08-0.9,1.01-1.55,2.07-1.46l3.47,0c1.06,0.1,1.77,0.89,1.76,1.78l-0.09,6.36"/>
	<polyline class="st54" points="293.71,52.37 292.64,43.72 299.71,41.5 299.3,45.81 296.16,49.17 299.88,47.94 298.67,52.74 	"/>
	<g>
		<circle class="st55" cx="310.76" cy="143.05" r="6.72"/>
		<g>
			<defs>
				<circle id="SVGID_00000114759390898092101010000008663246816314452891_" cx="310.76" cy="143.05" r="6.72"/>
			</defs>
			<clipPath id="SVGID_00000150081196633589992650000018023024772152376505_">
				<use xlink:href="#SVGID_00000114759390898092101010000008663246816314452891_"  style="overflow:visible;"/>
			</clipPath>
			<g style="clip-path:url(#SVGID_00000150081196633589992650000018023024772152376505_);">
				<line class="st27" x1="299.96" y1="142.77" x2="321.56" y2="143.34"/>
				<line class="st27" x1="310.48" y1="153.85" x2="311.05" y2="132.26"/>
				<line class="st27" x1="302.93" y1="150.49" x2="318.6" y2="135.62"/>
				<line class="st27" x1="318.2" y1="150.89" x2="303.33" y2="135.22"/>
			</g>
			
				<use xlink:href="#SVGID_00000114759390898092101010000008663246816314452891_"  style="overflow:visible;fill:none;stroke:#0A566E;stroke-miterlimit:10;"/>
		</g>
	</g>
	<g>
		<circle class="st55" cx="327.58" cy="143.05" r="6.72"/>
		<g>
			<defs>
				<circle id="SVGID_00000140707945960220472650000000085771152238697601_" cx="327.58" cy="143.05" r="6.72"/>
			</defs>
			<clipPath id="SVGID_00000088837894875871396320000007289173577701378204_">
				<use xlink:href="#SVGID_00000140707945960220472650000000085771152238697601_"  style="overflow:visible;"/>
			</clipPath>
			<g style="clip-path:url(#SVGID_00000088837894875871396320000007289173577701378204_);">
				<line class="st27" x1="320.99" y1="134.49" x2="334.16" y2="151.61"/>
				<line class="st27" x1="319.02" y1="149.64" x2="336.14" y2="136.47"/>
				<line class="st27" x1="316.87" y1="141.66" x2="338.29" y2="144.45"/>
				<line class="st27" x1="326.18" y1="153.76" x2="328.97" y2="132.34"/>
			</g>
			
				<use xlink:href="#SVGID_00000140707945960220472650000000085771152238697601_"  style="overflow:visible;fill:none;stroke:#0A566E;stroke-miterlimit:10;"/>
		</g>
	</g>
	<path class="st27" d="M258.51,97.45c-0.61-3.75-3.9-36.2-3.9-36.2s20.91-3.74,43.8-2.11c0.16,5.14,1.7,37.67,1.7,37.67
		C280.22,96.36,278.34,96.38,258.51,97.45z"/>
	<path class="st27" d="M319.84,62.88l-1.75-4.66c0,0,19.82-0.93,34.29,0.43c-0.23,0.66-0.41,1.34-1.32,4.31
		C351.06,62.96,332.36,61.94,319.84,62.88z"/>
	<g>
		<line class="st27" x1="323.72" y1="92.55" x2="320.48" y2="62.93"/>
		<line class="st27" x1="347.15" y1="92.77" x2="350.42" y2="62.93"/>
	</g>
	<path class="st7" d="M280.57,147.46c-8.91,1.55-17.68-3.48-20.86-11.96c-3.65-9.73,1.3-20.62,11.04-24.26
		c1.11-0.41,2.25-0.73,3.4-0.93c8.91-1.55,17.68,3.48,20.86,11.96c3.65,9.73-1.3,20.62-11.04,24.26
		C282.87,146.94,281.73,147.26,280.57,147.46z"/>
	<g>
		<defs>
			<circle id="SVGID_00000000939309655284748980000010679795945058452651_" cx="277.36" cy="128.88" r="20.85"/>
		</defs>
		<clipPath id="SVGID_00000070828921113757069530000015272698251209290928_">
			<use xlink:href="#SVGID_00000000939309655284748980000010679795945058452651_"  style="overflow:visible;"/>
		</clipPath>
		<g style="clip-path:url(#SVGID_00000070828921113757069530000015272698251209290928_);">
			<line class="st27" x1="265.59" y1="97.48" x2="289.13" y2="160.28"/>
			<line class="st27" x1="245.96" y1="140.65" x2="308.77" y2="117.11"/>
			<line class="st27" x1="246.83" y1="114.99" x2="307.89" y2="142.76"/>
			<line class="st27" x1="263.48" y1="159.41" x2="291.25" y2="98.35"/>
		</g>
	</g>
	<circle class="st29" cx="277.36" cy="128.88" r="5.13"/>
	<path class="st30" d="M274.49,112.28c7.96-1.39,15.8,3.11,18.64,10.69c3.26,8.7-1.16,18.42-9.86,21.68
		c-0.99,0.37-2.01,0.65-3.04,0.83c-7.96,1.39-15.8-3.11-18.64-10.69c-1.58-4.21-1.42-8.79,0.44-12.88c1.86-4.1,5.21-7.22,9.42-8.8
		C272.44,112.74,273.46,112.46,274.49,112.28L274.49,112.28 M273.8,108.33c-1.26,0.22-2.52,0.56-3.76,1.02
		c-10.79,4.04-16.25,16.06-12.21,26.85c3.58,9.54,13.4,14.92,23.09,13.23c1.26-0.22,2.52-0.56,3.76-1.02
		c10.79-4.04,16.25-16.06,12.21-26.85C293.31,112.02,283.49,106.64,273.8,108.33L273.8,108.33z"/>
	<line class="st59" x1="325.4" y1="116" x2="325.4" y2="100.72"/>
	<line class="st59" x1="332.37" y1="116" x2="332.37" y2="100.72"/>
	<line class="st59" x1="339.33" y1="116" x2="339.33" y2="100.72"/>
	<line class="st59" x1="346.3" y1="116" x2="346.3" y2="100.72"/>
	<line class="st59" x1="357.81" y1="143.88" x2="349.85" y2="130.84"/>
	<line class="st59" x1="352.09" y1="143.88" x2="344.13" y2="130.84"/>
	<line class="st59" x1="346.38" y1="143.88" x2="338.42" y2="130.84"/>
	<g>
		<path class="st60" d="M328.14,145.5c-0.26,0.06-0.53,0.08-0.81,0.05c-5.97-0.75-12.22-0.5-16.42-0.17
			c-1.22,0.1-2.28-0.81-2.38-2.02c-0.1-1.22,0.81-2.28,2.02-2.38c4.4-0.35,10.98-0.6,17.32,0.19c1.21,0.15,2.07,1.25,1.92,2.46
			C329.68,144.56,329,145.29,328.14,145.5z"/>
	</g>
	<g>
		<path class="st27" d="M328.14,145.5c-0.26,0.06-0.53,0.08-0.81,0.05c-5.97-0.75-12.22-0.5-16.42-0.17
			c-1.22,0.1-2.28-0.81-2.38-2.02c-0.1-1.22,0.81-2.28,2.02-2.38c4.4-0.35,10.98-0.6,17.32,0.19c1.21,0.15,2.07,1.25,1.92,2.46
			C329.68,144.56,329,145.29,328.14,145.5z"/>
	</g>
</g>
<path class="st9" d="M83.49,119.57l-3.76,0.24c0.01,0.13,0.72,11.75-2.08,18.92c-2.14-1.49-5.36-4.47-10.03-10.36
	c0,0-5,1.14-8.96,7.94c1.2-0.27,4.69-2.35,8.59-2.46c4.1,4.8,7.6,7.91,10.42,9.26c0.26,0.13,0.54,0.18,0.81,0.18
	c0.67,0,1.31-0.35,1.65-0.97C84.41,134.56,83.53,120.18,83.49,119.57z"/>
<path class="st2" d="M79.45,122.04c0,0,2.47,0.13,4.47-0.09c-0.01-0.44-0.03-1.37-0.05-1.68c-0.59,0.02-4.47,0.25-4.47,0.25
	S79.45,121.73,79.45,122.04z"/>
<path class="st9" d="M128.66,124.95c-0.78-0.26-5.57,4.15-7.21,5.69c-9.98-12.92-26.32-15.76-27.09-15.88l-0.61,3.72
	c0.19,0.03,18.82,4.48,28.6,18.86C127.31,128.99,129.14,125.11,128.66,124.95z"/>
<path class="st2" d="M96.58,119.68c0,0,3.98-1.47,6.12-2.87c-0.14-0.05-1.26-0.48-1.54-0.56c-0.28-0.08-6.78,2.73-6.78,2.73
	S95.54,119.29,96.58,119.68z"/>
<path class="st9" d="M94.3,99.41c0.37-0.5,0.7-0.9,1.06-1.33c0.35-0.42,0.71-0.83,1.08-1.23c0.73-0.8,1.49-1.57,2.27-2.32
	c1.57-1.49,3.24-2.86,5.01-4.09c1.76-1.25,3.66-2.31,5.62-3.22l1.49-0.64c0.51-0.19,1.02-0.36,1.53-0.53l0.77-0.26l0.79-0.2
	l1.57-0.39c0.52-0.13,1.05,0.19,1.18,0.71c0.12,0.5-0.16,1-0.63,1.16l-0.09,0.03l-1.43,0.47l-0.71,0.23l-0.69,0.3
	c-0.46,0.2-0.92,0.39-1.38,0.59l-1.33,0.7c-1.75,0.97-3.43,2.07-4.97,3.35c-1.55,1.27-3.01,2.65-4.36,4.13
	c-0.67,0.75-1.32,1.5-1.94,2.29c-0.31,0.39-0.61,0.79-0.9,1.19c-0.28,0.39-0.58,0.82-0.81,1.18l-0.02,0.03
	c-0.56,0.88-1.72,1.14-2.6,0.59c-0.88-0.56-1.14-1.72-0.59-2.6C94.25,99.48,94.28,99.44,94.3,99.41z"/>
<path class="st2" d="M97.59,95.13c0,0,2.06,2.82,2.26,3.69c-0.13,0.16-0.44,0.55-0.53,0.66c-0.06,0.08-2.38-3.65-2.32-3.73
	C97.09,95.64,97.49,95.24,97.59,95.13z"/>
<path class="st61" d="M74.51,76.05c4.2,1.47,19.27,8.49,30.7,36.34c0.17,0.4,0.05,0.87-0.29,1.14c-2.77,2.28-15.37,10.43-39.37,5.15
	c1.22-1.86,14.11-15.73,8.1-41.86C73.53,76.32,74.02,75.88,74.51,76.05z"/>
<path class="st9" d="M63.58,118.92c-0.06,0.5-0.75,4.87-5.07,4.43l-1.12,5.04c0,0,1.45-0.63,2.39-2.21c2.24-0.18,4.09-1.31,5.3-3.28
	c1.05-1.71,1.29-3.44,1.31-3.64L63.58,118.92z"/>
<path class="st9" d="M57.85,116.22c-0.23,0.45-2.37,4.32-6.28,2.43L48.79,123c0,0,1.58-0.1,3-1.26c2.16,0.59,4.29,0.16,6.1-1.27
	c1.57-1.24,2.39-2.8,2.47-2.97L57.85,116.22z"/>
<g>
	<path class="st62" d="M70.72,122.33c-5.77-2.48-11.55-4.93-17.35-7.34c1.14-2.57,1.67-3.85,2.64-6.42
		c5.98,2.41,11.93,4.86,17.88,7.35C72.71,118.48,72.07,119.77,70.72,122.33z"/>
	<path class="st62" d="M74.72,114.06c-5.99-2.49-12.01-4.93-18.03-7.35c0.92-2.56,1.33-3.84,2.07-6.39
		c6.2,2.41,12.39,4.85,18.56,7.32C76.37,110.21,75.85,111.49,74.72,114.06z"/>
</g>
<ellipse transform="matrix(0.2357 -0.9718 0.9718 0.2357 22.8133 200.0871)" class="st7" cx="138.62" cy="85.54" rx="0.43" ry="0.25"/>
<path class="st2" d="M265.85,96.44c0,0,1.81,8.13,4.06,8.47c2.25,0.34,2.57-0.64,2.59-0.82C272.52,103.91,266.21,96.4,265.85,96.44z
	"/>
<g>
	<path class="st63" d="M263.12,79.64c0,0-0.03-1.52-5.05-3.02c0,0,3.59-4.52,8.8-2"/>
	<polygon class="st7" points="266.83,98.51 265.13,93.03 263.93,88.2 261.9,88.82 260.04,88.05 258.74,85.07 259.18,81.42 
		261.24,79.58 263.62,79.59 264.29,78.18 265.18,77.4 270.14,74.14 269.92,72.66 275.05,69.91 277.07,69.11 278.24,69.01 
		279.44,71.5 285.49,70.15 289.63,69.74 291.09,70.73 291.99,74.02 291.7,78.14 290.65,80.52 288.28,83.4 286.8,84.95 285.18,85.53 
		285.56,87.14 284.79,88.75 282.85,89.73 279.41,90.38 280.08,92.49 281.36,92.29 281.78,96.66 281.02,96.94 279.27,99.47 
		276.31,102.56 273.48,104.24 271.68,104.47 269.54,103.24 267.59,100.01 	"/>
	<path class="st47" d="M269.98,75.25c0,0,1.71,3.6,2.44,4.51c0.25,0.31,1.18,1.02,2.04,1.05c1.18,0.03,1.84-0.33,1.84-0.33
		l-1.81-0.34l-1.96-1.71l-2.08-3.79L269.98,75.25z"/>
	<polygon class="st47" points="266.47,80.03 271.41,75.58 271.2,75.13 	"/>
	<path class="st47" d="M265.09,82.69c-0.02-0.6-1.64-1.28-2.9-0.94c-0.22,0.06-0.66,0.18-1,0.59c-0.39,0.48-0.57,1.28-0.28,1.63
		C261.6,84.8,265.12,83.59,265.09,82.69z"/>
	<path class="st47" d="M261.27,86.13c0.16,0.06,0.34,0.07,0.5,0.12c0.19,0.05,0.39,0.08,0.58,0.1c1.41,0.09,2.54-0.4,2.61-0.19
		c0.05,0.13-0.4,0.42-0.68,0.57c-0.9,0.46-1.8,0.31-2.46,0.19C261.52,86.86,261.11,86.49,261.27,86.13z"/>
	<path class="st47" d="M277.05,90.69c0,0,1.55,1.62,2.54,1.75s0.45-0.38,0.45-0.38l-0.55-1.66L277.05,90.69z"/>
	<path class="st47" d="M269.19,83.78c0.1,0.11,0.14,0.47,0.2,0.61c0.23,0.53,0.56,1.02,0.95,1.46c2.45,2.76,6.39,2.95,9.8,2.46
		c1.18-0.17,2.37-0.37,3.49-0.8c0.39-0.15,2.41-0.92,1.65-1.66l-2.17,0.56l-6.34,1.33l-3.09-0.56l-3.44-2.24
		C270.25,84.93,269.19,83.78,269.19,83.78z"/>
	<path class="st47" d="M272.42,104.07c0,0,4.14-2.16,8.44-7.45c0.12,0.33-0.12,0.8-0.12,0.8l-3.03,3.9l-1.77,1.81l-3.23,1.61
		L272.42,104.07z"/>
	<path class="st47" d="M266.85,73.47c0,0,1.32,1.03,2.79,0.52c0.69-0.24,0.43,0.11-0.14,0.38c-0.57,0.27-1.38,1.45-1.78,1.17
		C267.31,75.27,267.01,74.68,266.85,73.47z"/>
	<path class="st64" d="M270.2,74.15c-2.86,1.3-5.81,3.15-6.5,5.42"/>
	<path class="st64" d="M269.44,83.31c0,0,1.72,5.5,10.55,3.94c7.76-1.37,10.87-5.79,11.7-9.48c0.28-1.22,0.65-4.39-1.01-7.38
		c-0.34-0.61-1.53-1.5-11.2,0.95"/>
	<path class="st64" d="M265.49,81.18c0,0-1.89-2.35-4.22-1.53c-1.05,0.37-2.42,1.37-2.54,4.49c-0.04,1.05,0.58,3.93,1.79,4.41
		c0.53,0.21,2.29,0.34,4.24-0.74"/>
	<path class="st64" d="M267.4,99.54c0,0-2.66-5.98-3.44-11.21"/>
	<path class="st64" d="M277.06,90.8c0,0,6.11-0.64,7.63-2.23c0.62-0.65,1.07-1.81,0.61-2.96"/>
	<path class="st65" d="M288.17,94.69"/>
	<path class="st64" d="M281.36,92.04c-3.42,0.78-6.58,5.36-8.2,5.97c0,0-0.58-0.75-0.94-1.97"/>
	<path class="st66" d="M281.32,92.08c0,0,0.44,3.58,0.42,4.57c0.85-0.09,4.33-0.26,4.32-0.22C286.05,96.42,285.5,91.2,281.32,92.08z
		"/>
	<path class="st64" d="M267.4,82.98c0,0,2.29,1.35,3.65-1.18"/>
	<path class="st67" d="M264.81,86.13c0,0-0.47-2.28,0.09-3.38c-0.52-0.32-2.12-0.91-3.35-0.36c-0.45,0.2-0.89,0.98-0.87,2.05
		c0.01,0.78,0.39,2.22,1.3,2.25C262.88,86.72,264.39,86.27,264.81,86.13z"/>
	<g>
		<polygon points="264.96,80.39 270.12,74.37 271.19,75.36 265.55,80.94 264.96,80.39 		"/>
	</g>
	<path class="st64" d="M279.5,71.02c0,0,1.18-2.63,2.74-0.36"/>
	<path d="M288.61,69.98c0,0-1.66,0.94-0.69,2.74c0.42,0.78,1.61,1.36,2.45,1.27c0.6-0.07,1.42-0.44,1.39-0.57
		c-0.02-0.12-0.72-2.36-0.72-2.36l-0.75-1.09L288.61,69.98z"/>
	<path class="st64" d="M267.4,99.54c0.78,1.76,2.53,5.99,6.08,4.75c3.02-1.05,6.81-5.46,8.14-7.85"/>
	<path class="st64" d="M279.43,90.64c0,0,0.16,1.4,0.8,1.67"/>
	<g>
		<polygon class="st68" points="264.13,66.68 266.59,67.85 268.72,68.02 271.61,71.24 270.69,71.94 269.54,72.58 266.84,72.08 
			264.83,70.54 		"/>
		<polygon class="st69" points="264.18,66.87 266.57,67.81 268.64,68.1 263.79,62.47 263.63,63.08 		"/>
		<polygon class="st26" points="264.92,70.77 267.92,72.44 270.03,73.08 270.07,73.73 266.79,75.46 265.79,76.23 265.19,73.16 		"/>
		<polyline class="st64" points="265.48,76.57 263,61.39 272.07,71.09 		"/>
		<path class="st64" d="M269.88,72.63c-1.12,0.06-3.76-0.38-5.41-2.34"/>
		<path class="st64" d="M269.42,68.48c0,0-3.04,0.09-5.48-1.67"/>
	</g>
	<path class="st64" d="M269.79,72.85c0,0,2.37,5.36,3.1,6.24c0.9,1.09,3.27,1.64,5.72,0.49c1.36-0.63,2.94-2.45,2.2-4.64
		c-0.46-1.35-1.17-3.38-2.69-6.17C273.14,70.03,269.79,72.85,269.79,72.85z"/>
	<ellipse transform="matrix(0.9455 -0.3255 0.3255 0.9455 -9.2679 94.1472)" cx="276.7" cy="74.77" rx="2.12" ry="3.92"/>
	
		<ellipse transform="matrix(0.9455 -0.3255 0.3255 0.9455 -8.8341 94.1463)" class="st7" cx="276.92" cy="73.47" rx="0.75" ry="1.19"/>
</g>
<path class="st37" d="M295.7,88.3l-8.39,1.62c-0.35,0.07-0.68-0.16-0.75-0.51l-1.62-8.39c-0.07-0.35,0.16-0.68,0.51-0.75l8.39-1.62
	c0.35-0.07,0.68,0.16,0.75,0.51l1.62,8.39C296.27,87.9,296.04,88.24,295.7,88.3z"/>
<path class="st2" d="M284.47,96.56c0,0-0.52,2.29,0.1,3.13s1.69,0.56,1.81,0.24C286.5,99.61,285.37,96.26,284.47,96.56z"/>
<path class="st70" d="M287.19,92.69c0,0-1.27,0.91-2.18,4.95c-0.07,0.3,0.24,1.97,1.11,2.15s2.58-0.24,4.13-3.55
	c0.25,0.02,1.61,0.04,1.61,0.04s-0.34-1.76-1.19-1.73c-2.13,0.1-2.56,0.68-2.83,1.19C287.47,95.29,287.19,92.69,287.19,92.69z"/>
<path class="st2" d="M286.27,97.64c0,0,0.26-1.08,0.83-1.93c-0.22-1.14-0.6-3.13-0.4-3.19c0.43-0.12,0.8,3.2,0.77,3.28
	C287.45,95.88,286.66,97.49,286.27,97.64z"/>
<path class="st11" d="M286.7,92.5c0,0,0.65,3.4,0.72,3.65c0.07,0.25,0.54-0.8,0.54-0.8s-0.16-3.1-0.78-3.07
	C286.57,92.31,286.79,92.37,286.7,92.5z"/>
<path class="st33" d="M288.15,99.19c-0.7,0.57-1.61,0.92-2.35,0.36c-1.8-1.36-0.1-4.94,1.1-6.72"/>
<path class="st33" d="M290.34,95.9"/>
<path class="st33" d="M286.64,97.69c0,0,1.38-3.4,3.43-3.31c1.4,0.06,1.85,1.52,1.89,1.95"/>
<path class="st2" d="M290.41,95.64c0,0,0.35-0.03,0.66,0.46c0.02,0.02,0.88,0,1.2,0.04c0.03,0.13,0.03,0.17,0.04,0.21
	c-0.32,0.06-1.89-0.02-1.89-0.02S290.25,95.76,290.41,95.64z"/>
<path class="st33" d="M287.17,93.76"/>
<polygon class="st11" points="286.67,92.38 286.99,94.01 287.64,93.57 287.27,92.43 286.87,92.18 "/>
<path class="st2" d="M295.96,96.4c0,0-0.93,1.44-0.1,2.67c0.38,0.56,1.43,0.54,1.67-0.1C297.68,98.55,297.1,96.23,295.96,96.4z"/>
<path class="st35" d="M298.23,95.23c-0.62-0.17-1.4,0.33-1.81,1.38c-0.22,0.56-0.48,2.1,0.37,2.48c0.47,0.21,1.71-0.17,2.15-1.86
	C298.99,97.02,299.26,95.5,298.23,95.23z"/>
<g>
	<path class="st12" d="M291.71,87.05c-1.18,1.1-2.62,0.96-3.61-0.63"/>
</g>
<g>
	<path class="st12" d="M290.42,84.45c0,0-0.64-3.25-1.8-3s-0.42,3.47-0.42,3.47"/>
	<path class="st12" d="M294.06,83.69c0,0-0.64-3.25-1.8-3c-1.16,0.25-0.42,3.47-0.42,3.47"/>
</g>
<g>
	<path class="st2" d="M249.7,55.94c0,0-0.12,3.08,1.03,6.65c0.15,0.47-0.46,0.08-0.47-0.07S247.99,57.95,249.7,55.94z"/>
	<g>
		<path class="st35" d="M254.06,55.19c-0.73-1.57-2.6-3.53-4.5-3.52c-1.01,0.01-2.45,0.46-3.59,2.57c-1.18,2.19-0.48,5.64,0.22,7.83
			l-1.31,4.75l5.59-3.88c-1.62-2.66-1.82-5.74-1.19-6.92"/>
	</g>
	<path class="st34" d="M249.51,55.79c0,0,2.93-0.55,6.12-1.01c0.09,0.36,0.15,0.74,0.15,0.74l-6.02,0.86L249.51,55.79z"/>
	<path class="st2" d="M250.02,54.9c0,0,0.77,0.09,0.8,0.65c-0.09,0.01-1.05,0.22-1.05,0.22S249.61,55.15,250.02,54.9z"/>
	<path class="st35" d="M248.97,57.43c0,0,0-1.21,0.85-2.24"/>
</g>
<g>
	<path class="st2" d="M255.58,54.7c0,0-0.38,3.06,0.48,6.71c0.11,0.48-0.46,0.04-0.46-0.11C255.59,61.15,253.71,56.57,255.58,54.7z"
		/>
	<g>
		<path class="st35" d="M259.79,54.37c-0.69-1.59-2.5-3.6-4.4-3.64c-1.01-0.02-2.46,0.39-3.66,2.47c-1.24,2.15-0.64,5.63,0,7.84
			l-1.44,4.72l5.7-3.72c-1.54-2.71-1.66-5.79-0.99-6.95"/>
	</g>
	<path class="st34" d="M255.21,54.91c0,0,2.88-0.6,6.09-0.98c0.08,0.36,0.15,0.74,0.15,0.74l-6.37,1.1L255.21,54.91z"/>
	<path class="st2" d="M255.42,53.94c0,0-0.05-0.44,1.39,0.65c-0.75,0.16-1.15,0.12-1.48,0.49
		C254.99,54.96,255.27,54.12,255.42,53.94z"/>
	<path class="st35" d="M254.63,56.46c0,0,0.03-1.21,0.91-2.22"/>
</g>
<path class="st34" d="M267.68,53.39c0,0,3.28-0.33,7.21-0.58l-0.1,0.43l-6.69,0.47L267.68,53.39z"/>
<path class="st34" d="M293.71,96.16c0,0-2.16-0.05-3.13-0.05l-0.15,0.64l3.24,0.24L293.71,96.16z"/>
<g>
	<path class="st51" d="M70.28,106.95c0,0-0.66,3.14-2.4,2.48c-1.45-0.59,0.02-3.29,0.02-3.29"/>
</g>
<g>
	<path class="st51" d="M72.34,107.79c0,0-1.58,2.79,0.16,3.45c1.48,0.51,2.16-2.48,2.16-2.48"/>
</g>
<path class="st51" d="M66.9,115.25c0,0,1.03,0.52,2.6,1.3"/>
<path class="st2" d="M64.14,102.2c0,0-0.68,2.24-0.64,7.75c-0.42-0.17-0.61-0.24-0.61-0.24l-0.37-1.6l0.66-4.61l0.78-1.14
	L64.14,102.2z"/>
<path class="st2" d="M63.55,111.12c0,0,0.01,1.25,0.31,3.59c0.02,0.19-0.1,0.14-0.19-0.21s-0.67-3.53-0.61-3.6
	C63.07,110.93,63.55,111.12,63.55,111.12z"/>
<path class="st9" d="M72.1,105.5c-0.86-1.53-1.7-2.59-2.59-3.5c-0.91-0.93-1.97-1.81-3.18-2.35c-0.3-0.13-0.61-0.25-0.93-0.36
	l-0.12-0.04l-0.18-0.05c-0.11-0.04-0.25-0.06-0.37-0.09c-0.26-0.04-0.54-0.06-0.83-0.04c-0.58,0.04-1.15,0.27-1.57,0.58
	c-0.43,0.3-0.73,0.66-0.97,1c-0.46,0.69-0.71,1.36-0.9,2c-0.18,0.65-0.3,1.28-0.38,1.91c-0.15,1.25-0.17,2.48-0.1,3.7
	c0.15,2.43,0.6,4.81,1.42,7.1c0.19,0.54,0.78,0.85,1.34,0.68c0.58-0.17,0.92-0.78,0.75-1.36l0-0.01c-0.61-2.09-0.9-4.31-0.89-6.49
	c0.01-1.09,0.09-2.17,0.28-3.2c0.1-0.51,0.22-1.01,0.38-1.46c0.16-0.45,0.36-0.86,0.57-1.11c0.1-0.13,0.2-0.2,0.25-0.22
	c0.05-0.02,0.05,0.02,0.07,0.02"/>
<path class="st2" d="M65.09,101.41c0,0,0.6,0.96,0.58,1.07c-0.02,0.11-0.2,0.25-0.44,0.16s-1.03-0.36-0.82-0.64
	C64.61,101.72,64.85,101.45,65.09,101.41z"/>
<polygon class="st50" points="74.24,105.9 64.23,101.9 63.88,102.75 73.94,106.7 "/>
<path class="st33" d="M63.29,103.43c0,0,0.52-1.4,1.48-1.87"/>
<path class="st71" d="M95.61,108.52c0,0-15.35,10.73-16.5-6.49"/>
<path class="st71" d="M78.28,101.69c0,0,0.88,0.73,1.7-0.17"/>
<g>
	<g>
		<path class="st72" d="M86.97,102.42c0.34,1.24,0.44,2.42,0.34,3.35c-0.7-0.08-2.09,0.15-2.76,0.84c-0.58-0.75-1.11-1.85-1.46-3.14
			c-0.7-2.58-0.4-4.9,0.67-5.19C84.83,97.99,86.27,99.84,86.97,102.42z"/>
	</g>
	<path class="st73" d="M83.99,106.97c0,0,1.24-1.74,4.06-1.11"/>
	
		<ellipse transform="matrix(0.9776 -0.2107 0.2107 0.9776 -19.5858 20.3354)" class="st7" cx="85.65" cy="102.09" rx="0.74" ry="1.26"/>
</g>
<g>
	<g>
		<path class="st72" d="M93.76,100.68c0.34,1.24,0.44,2.42,0.34,3.35c-0.7-0.08-2.09,0.15-2.76,0.84c-0.58-0.75-1.11-1.85-1.46-3.14
			c-0.7-2.58-0.4-4.9,0.67-5.19C91.62,96.26,93.05,98.11,93.76,100.68z"/>
	</g>
	<path class="st73" d="M90.78,105.23c0,0,1.24-1.74,4.06-1.11"/>
	
		<ellipse transform="matrix(0.9776 -0.2107 0.2107 0.9776 -19.0682 21.7261)" class="st7" cx="92.43" cy="100.35" rx="0.74" ry="1.26"/>
</g>
<path class="st74" d="M81.26,97.67c0,0,0.33-2.18,1.94-1.96c0.76,0.1-1.32-0.92-1.84-0.26S81.02,97.22,81.26,97.67z"/>
<path class="st74" d="M90.48,95.4c0,0,0.93-0.5,1.62,0.45C92.25,96.05,90.89,93.3,90.48,95.4z"/>
<path class="st33" d="M290.34,95.9c-0.65,0.65-1.29,2.55-2.19,3.28"/>
<path class="st2" d="M78.86,89.59c0,0,0.24-1.47-0.42-2.57c-0.27-0.44-0.6-1.21,0.02-1.24C78.75,85.77,79.7,88.83,78.86,89.59z"/>
<path class="st2" d="M80.87,85.81c0,0-0.14-1.22-0.85-2.04c-0.36-0.41-0.45-1.25,0.32-1.11c0.53,0.1,0.99,2,0.96,2.96
	C81.28,86.02,81.01,85.89,80.87,85.81z"/>
<path class="st71" d="M79.24,89.62c0.74-1.7-0.93-3.64-0.33-4.54c0.39-0.59,1.89,0.11,2.72,2.37c0.42-1.2-1.64-4.43-0.8-5.22
	c0.72-0.68,2.97,0.8,3.15,4.91c0.42-0.21,0.25-1.81,0.91-2.16c0.78-0.41,2.03,1.65,0.46,4.29"/>
<g>
	<path class="st7" d="M192.95,32.21l1.38-2.52l4.02-3.41c0,0,4.94-1.19,5.16-1.18c0.22,0,3.78,0.83,3.78,0.83l2.39,1.79l2.34,2.93
		l0.38,4.65l-1.93,4.96l-4.07,2.87l-0.05,2.76l-1.67,3l-0.39,0.71l1.13,2.22l0.53,3l-1.68,4.08l-3.25,2.48l-4.04,1.13l-3.46-0.33
		l-3.19-1.37l-2.95-3.04l-1.41-2.95l0.18-3.48l-3.14-0.86l-3.74-3.2l-1-4.39l0.69-4.46l2.23-3.59l4.42-2.46l4.58-0.74L192.95,32.21z
		"/>
	<path class="st47" d="M205,40.31l1.44,2.6l1.07-0.57C207.52,42.34,206.11,40.25,205,40.31z"/>
	<path class="st47" d="M199.76,51.06c0,0,2.74,0.89,5.04,0.22c0.33-0.1-0.75-1.52-0.75-1.52S202.94,50.76,199.76,51.06z"/>
	<path class="st47" d="M186.3,51.57l4-0.64c0,0-0.25,1.27-3.9,2.18C186.02,53.19,186.3,51.57,186.3,51.57z"/>
	<path class="st47" d="M193.01,32.35l2.88,1.22c0,0-0.37-1.48-2.16-2.36C193.56,31.12,193.01,32.35,193.01,32.35z"/>
	<g>
		<path class="st48" d="M199.83,50.62c2.95,0.16,5.57-1.6,6.37-4.14c0.97-3.05-1.18-5.63-1.31-5.78"/>
		<path class="st48" d="M195.54,33.67c-0.88-0.56-4.1-2.47-8.17-1.76c-4.21,0.74-8.42,4.12-9.04,8.9c-0.4,3.13,0.65,7.49,4.32,9.48
			c3.33,1.8,6.81,0.55,7.41,0.32"/>
		<path class="st48" d="M206.41,43.12c0.49-0.2,4.51-1.91,5.72-6.34c0.97-3.53-0.23-7.41-3.02-9.71c-3.62-2.98-8.43-2.12-11.31-0.5
			c-3.12,1.75-4.43,4.61-4.84,5.64"/>
		<path class="st48" d="M186.15,51.34c-0.13,0.94-0.39,3.75,1.28,6.52c2.82,4.65,8.43,4.7,8.72,4.7c3.95-0.04,8.77-2.47,9.62-6.76
			c0.58-2.93-0.95-5.41-1.47-6.2"/>
	</g>
</g>
<g>
	<polygon class="st7" points="160.92,39.34 162.22,37.67 165.25,36.99 167.58,38.53 168.61,41.12 167.99,43.99 169.19,45.41 
		169.57,48.94 168.3,51.25 165.19,51.95 162.34,51 160.04,48.18 157.86,48.54 155.26,47.34 154.15,44.7 154.69,41.87 156.67,39.71 
		159.57,39.07 	"/>
	<path class="st47" d="M161.89,47.47c0,0,0.07,1.08-0.82,1.67c-0.36,0.24-0.37-0.98-0.37-0.98S160.94,48.07,161.89,47.47z"/>
	<path class="st47" d="M165.27,42.39c0,0,1.23-0.59,2.79-0.05c0.31,0.11-0.24,1.07-0.24,1.07S166.03,42.38,165.27,42.39z"/>
	<path class="st47" d="M160.35,39.75l0.14,2.58l1.19,2.08c0,0-1.79-0.7-2.65-4.72C158.98,39.48,159.9,39.38,160.35,39.75z"/>
	<g>
		<path class="st48" d="M161.86,44.11c-1.71-1.7-1.69-4.4-0.16-5.9c1.43-1.41,3.79-1.38,5.32-0.2c1.66,1.28,2.12,3.74,0.96,5.67"/>
		<path class="st48" d="M165.29,42.83c1.83,0.21,3.39,1.37,4.06,3.02c0.62,1.52,0.51,3.52-0.73,4.85c-1.69,1.81-4.7,1.5-6.46,0.18
			c-1.19-0.89-1.64-2.13-1.82-2.72"/>
		<path class="st48" d="M161.53,47.25c-1.65,1.44-3.92,1.71-5.51,0.72c-2.17-1.34-2.43-4.61-1-6.65c1.17-1.67,3.41-2.43,5.58-1.85"
			/>
	</g>
</g>
<path class="st75" d="M169.87,35.15c1.39-1.4,3.64-1.41,5.05-0.03c1.12,1.11,1.13,2.92,0.02,4.04c-0.89,0.9-2.33,0.9-3.23,0.02
	c-0.72-0.71-0.72-1.87-0.01-2.58c0.57-0.57,1.49-0.58,2.07-0.01c0.46,0.45,0.46,1.19,0.01,1.65c-0.36,0.37-0.96,0.37-1.32,0.01"/>
<path class="st76" d="M203.08,65.43c-1.41-1.38-3.67-1.35-5.04,0.05c-1.1,1.13-1.08,2.93,0.04,4.04c0.9,0.88,2.35,0.87,3.23-0.04
	c0.71-0.72,0.69-1.88-0.03-2.58c-0.58-0.56-1.5-0.55-2.07,0.02c-0.45,0.46-0.44,1.2,0.02,1.65c0.37,0.36,0.96,0.35,1.32-0.01"/>
<path class="st77" d="M158.15,51.27c-1.7-1-3.88-0.44-4.88,1.26c-0.8,1.36-0.35,3.11,1.01,3.91c1.09,0.64,2.49,0.28,3.13-0.81
	c0.51-0.87,0.22-1.99-0.65-2.5c-0.7-0.41-1.59-0.18-2,0.52c-0.33,0.56-0.14,1.27,0.41,1.6c0.44,0.26,1.02,0.11,1.28-0.33"/>
<path class="st77" d="M191.35,26.29c0.01-1.97-1.57-3.58-3.54-3.59c-1.58-0.01-2.86,1.26-2.87,2.83c-0.01,1.26,1.01,2.29,2.27,2.3
	c1.01,0.01,1.83-0.81,1.84-1.81c0.01-0.81-0.64-1.47-1.45-1.47c-0.65,0-1.17,0.52-1.18,1.16c0,0.52,0.41,0.94,0.93,0.94"/>
<path class="st78" d="M159.3,35.66c0.69-1.85-0.25-3.9-2.1-4.59c-1.48-0.55-3.12,0.2-3.67,1.68c-0.44,1.18,0.16,2.5,1.34,2.94
	c0.95,0.35,2-0.13,2.35-1.08c0.28-0.76-0.1-1.6-0.86-1.88c-0.61-0.22-1.28,0.08-1.5,0.69c-0.18,0.48,0.07,1.02,0.55,1.2"/>
<circle class="st79" cx="180.48" cy="30.25" r="0.52"/>
<circle class="st79" cx="211.59" cy="50.09" r="0.52"/>
<circle class="st79" cx="226.57" cy="61.85" r="0.52"/>
<circle class="st68" cx="174.11" cy="46.96" r="0.52"/>
<circle class="st79" cx="160.15" cy="58.35" r="0.52"/>
<circle class="st68" cx="150.68" cy="41.42" r="0.52"/>
<circle class="st79" cx="191.98" cy="65.19" r="0.52"/>
<g>
	<line class="st77" x1="213.74" y1="24.14" x2="214.35" y2="24.26"/>
	<line class="st77" x1="212.27" y1="23.87" x2="212.88" y2="23.98"/>
	<line class="st77" x1="213.39" y1="23.63" x2="213.45" y2="23.32"/>
	<line class="st77" x1="213.17" y1="24.8" x2="213.23" y2="24.5"/>
</g>
<g>
	<line class="st77" x1="247.45" y1="4.55" x2="248.06" y2="4.67"/>
	<line class="st77" x1="245.98" y1="4.27" x2="246.59" y2="4.39"/>
	<line class="st77" x1="247.1" y1="4.04" x2="247.16" y2="3.73"/>
	<line class="st77" x1="246.88" y1="5.21" x2="246.94" y2="4.9"/>
</g>
<g>
	<line class="st77" x1="235.68" y1="62.95" x2="236.29" y2="63.07"/>
	<line class="st77" x1="234.21" y1="62.68" x2="234.81" y2="62.79"/>
	<line class="st77" x1="235.33" y1="62.44" x2="235.38" y2="62.13"/>
	<line class="st77" x1="235.11" y1="63.61" x2="235.16" y2="63.31"/>
</g>
<g>
	<line class="st77" x1="166.35" y1="55.41" x2="165.74" y2="55.29"/>
	<line class="st77" x1="167.82" y1="55.69" x2="167.22" y2="55.57"/>
	<line class="st77" x1="166.7" y1="55.93" x2="166.64" y2="56.23"/>
	<line class="st77" x1="166.92" y1="54.75" x2="166.86" y2="55.06"/>
</g>
<g>
	<line class="st76" x1="149.73" y1="47.44" x2="149.76" y2="46.82"/>
	<line class="st76" x1="149.66" y1="48.94" x2="149.69" y2="48.32"/>
	<line class="st76" x1="149.27" y1="47.86" x2="148.96" y2="47.85"/>
	<line class="st76" x1="150.46" y1="47.91" x2="150.15" y2="47.9"/>
</g>
<path class="st76" d="M212.39,15.81c-1.67-1.05-3.87-0.55-4.92,1.12c-0.84,1.33-0.44,3.1,0.9,3.94c1.07,0.67,2.48,0.35,3.15-0.72
	c0.54-0.85,0.28-1.98-0.57-2.52c-0.68-0.43-1.59-0.22-2.01,0.46c-0.34,0.55-0.18,1.27,0.37,1.61c0.44,0.28,1.01,0.14,1.29-0.29"/>
<circle class="st68" cx="200.19" cy="20.75" r="0.52"/>
<circle class="st68" cx="239.81" cy="4.13" r="0.52"/>
<circle class="st68" cx="182.75" cy="56.07" r="0.52"/>
<circle class="st68" cx="240.02" cy="58.83" r="0.52"/>
<circle class="st79" cx="216.88" cy="6.3" r="0.52"/>
<circle class="st26" cx="256.2" cy="2.25" r="0.52"/>
<g>
	<line class="st76" x1="174.96" y1="53.99" x2="174.66" y2="54.53"/>
	<line class="st76" x1="175.68" y1="52.67" x2="175.38" y2="53.21"/>
	<line class="st76" x1="175.56" y1="53.81" x2="175.83" y2="53.96"/>
	<line class="st76" x1="174.51" y1="53.24" x2="174.78" y2="53.39"/>
</g>
<ellipse transform="matrix(0.9535 -0.3013 0.3013 0.9535 -1.7172 77.2986)" class="st7" cx="249.74" cy="44.22" rx="0.51" ry="1.34"/>
<ellipse transform="matrix(0.9535 -0.3013 0.3013 0.9535 -0.9223 78.9358)" class="st7" cx="255.44" cy="42.46" rx="0.51" ry="1.34"/>
<polygon class="st80" points="152.66,95.14 156.11,92.12 155.84,95.72 "/>
<g>
	<g>
		<circle class="st70" cx="32.63" cy="146.69" r="2.78"/>
		<path class="st81" d="M32.89,147.39l2.51-0.9c0,0-0.37-2.76-2.98-2.56s-2.53,2.73-2.48,3.43C30.34,146.5,32.05,145.8,32.89,147.39
			z"/>
		<circle class="st82" cx="32.63" cy="146.69" r="2.78"/>
		<path class="st70" d="M31.77,143.09l0.3,3.59c0.03,0.38,0.46,0.59,0.78,0.38l4.13-4.5"/>
		<polygon class="st81" points="32.17,145.25 34.71,145.06 36.9,142.76 31.86,143.12 		"/>
		<path class="st82" d="M31.8,142.9l0.27,3.79c0.03,0.38,0.46,0.59,0.78,0.38l3.94-4.56"/>
	</g>
	<g>
		<circle class="st70" cx="21.87" cy="146.69" r="2.78"/>
		<path class="st81" d="M22.13,147.39l2.51-0.9c0,0-0.37-2.76-2.98-2.56s-2.53,2.73-2.48,3.43C19.58,146.5,21.29,145.8,22.13,147.39
			z"/>
		<circle class="st82" cx="21.87" cy="146.69" r="2.78"/>
		<path class="st70" d="M21.11,144.03l0.2,2.65c0.03,0.38,0.46,0.59,0.78,0.38l4.56-3.44"/>
		<polygon class="st81" points="21.3,145.57 23.84,145.38 26.24,143.56 21.09,143.92 		"/>
		<path class="st82" d="M21.06,143.75l0.25,2.93c0.03,0.38,0.46,0.59,0.78,0.38l4.7-3.69"/>
	</g>
	<g>
		<circle class="st70" cx="10.87" cy="146.64" r="2.78"/>
		<path class="st81" d="M11.12,147.34l2.51-0.9c0,0-0.37-2.76-2.98-2.56s-2.53,2.73-2.48,3.43
			C8.57,146.45,10.28,145.75,11.12,147.34z"/>
		<circle class="st82" cx="10.87" cy="146.64" r="2.78"/>
		<path class="st70" d="M10.14,144.46l0.16,2.17c0.03,0.38,0.46,0.59,0.78,0.38l4.34-2.86"/>
		<polygon class="st81" points="10.26,145.91 12.8,145.72 15.1,144.3 10.15,144.68 		"/>
		<path class="st82" d="M10.14,144.46l0.16,2.17c0.03,0.38,0.46,0.59,0.78,0.38l4.34-2.86"/>
	</g>
	<g>
		<path class="st79" d="M4.94,140.07l33.98-2.55l0.15,2.04c0.11,1.5-1.01,2.8-2.51,2.92L8.23,144.6c-1.62,0.12-3.04-1.09-3.16-2.72
			L4.94,140.07z"/>
		<polygon class="st69" points="5.67,131.05 37.47,128.66 38.92,137.51 5.17,140.05 		"/>
		<polygon class="st26" points="6.18,123.89 36.34,121.62 37.47,128.66 5.67,131.05 		"/>
		<polygon class="st68" points="6.64,116.73 35.2,114.58 36.34,121.62 6.18,123.89 		"/>
		<path class="st83" d="M9.86,109.36l20.98-1.58c2.09-0.16,3.91,1.41,4.07,3.5l0.25,3.3l-28.52,2.14l0.19-3.84
			C6.69,111.08,8.05,109.5,9.86,109.36z"/>
	</g>
	<path class="st17" d="M30.73,142.97l-22.3,1.68c-1.73,0.13-3.24-1.17-3.37-2.9l1.83-29.13c-0.13-1.73,1.17-3.24,2.9-3.37l18.3-1.38
		"/>
	<path class="st17" d="M36.26,142.55l-16.67,1.25c-1.63,0.12-3.08-1.02-3.34-2.63l-4.61-28.64c-0.29-1.82,1.03-3.49,2.87-3.63
		l16.67-1.25c1.63-0.12,3.08,1.02,3.34,2.63l4.61,28.64C39.42,140.74,38.09,142.42,36.26,142.55z"/>
	<g>
		<line class="st84" x1="23.02" y1="108.26" x2="28.68" y2="143.06"/>
	</g>
	<path class="st85" d="M18.48,132.01l-3.22-17.86c-0.2-1.11,0.54-2.07,1.66-2.16l12.78-0.96c1.12-0.08,2.18,0.75,2.38,1.85
		l3.22,17.86c0.2,1.11-0.54,2.07-1.66,2.16l-12.78,0.96C19.75,133.95,18.68,133.12,18.48,132.01z"/>
	<g>
		
			<ellipse transform="matrix(0.9818 -0.1898 0.1898 0.9818 -22.05 7.5673)" class="st11" cx="28.48" cy="118.89" rx="2.13" ry="4.51"/>
		
			<ellipse transform="matrix(0.9972 -0.075 0.075 0.9972 -9.0948 2.5187)" class="st85" cx="29.01" cy="122.43" rx="2.07" ry="1.73"/>
		
			<ellipse transform="matrix(0.9853 -0.1709 0.1709 0.9853 -19.7525 6.7324)" class="st7" cx="29.23" cy="118.1" rx="0.8" ry="1.4"/>
		<path class="st86" d="M29.1,112.91c0,0,1.5,0.07,1.75,1.65"/>
		<path class="st86" d="M26.84,121.89c0,0,1.77-2.53,4.15-0.41"/>
		
			<ellipse transform="matrix(0.9818 -0.1898 0.1898 0.9818 -22.3215 6.4244)" class="st11" cx="22.38" cy="119.73" rx="2.13" ry="4.51"/>
		
			<ellipse transform="matrix(0.9972 -0.075 0.075 0.9972 -9.1753 2.0637)" class="st85" cx="22.91" cy="123.28" rx="2.07" ry="1.73"/>
		
			<ellipse transform="matrix(0.9853 -0.1709 0.1709 0.9853 -19.9868 5.7021)" class="st7" cx="23.13" cy="118.95" rx="0.8" ry="1.4"/>
		<path class="st86" d="M20.74,122.73c0,0,1.77-2.53,4.15-0.41"/>
	</g>
	<path class="st87" d="M29.63,125.94c-6.46,5.53-10.25-1.02-10.25-1.02s0.98,6.66,3.95,6.65c2.62-0.01,3.03-3.51,3.03-3.51"/>
	<path class="st12" d="M18.54,124.78c0,0,0.97,0.44,1.25-0.58"/>
	<path class="st88" d="M18.48,132.01l-3.22-17.86c-0.2-1.11,0.54-2.07,1.66-2.16l12.78-0.96c1.12-0.08,2.18,0.75,2.38,1.85
		l3.22,17.86c0.2,1.11-0.54,2.07-1.66,2.16l-12.78,0.96C19.75,133.95,18.68,133.12,18.48,132.01z"/>
	<line class="st84" x1="6.64" y1="116.73" x2="15.52" y2="116.06"/>
	<line class="st84" x1="32.42" y1="114.79" x2="35.2" y2="114.58"/>
	<line class="st84" x1="6.18" y1="123.91" x2="16.64" y2="123.12"/>
	<line class="st84" x1="33.68" y1="121.82" x2="36.34" y2="121.62"/>
	<line class="st84" x1="5.67" y1="131.05" x2="17.77" y2="130.14"/>
	<line class="st84" x1="5.17" y1="140.05" x2="38.92" y2="137.51"/>
	<line class="st84" x1="34.97" y1="128.85" x2="37.47" y2="128.66"/>
	<path class="st89" d="M9.53,127.93l1.47-0.11c1.14-0.09,2.13,0.77,2.22,1.91l0.23,3.05c0.09,1.14-0.77,2.13-1.91,2.22l-1.47,0.11
		c-1.14,0.09-2.13-0.77-2.22-1.91l-0.23-3.05C7.54,129.01,8.39,128.01,9.53,127.93z"/>
	<path class="st90" d="M9.07,127.19l1.47-0.11c1.14-0.09,2.13,0.77,2.22,1.91l0.23,3.05c0.09,1.14-0.77,2.13-1.91,2.22l-1.47,0.11
		c-1.14,0.09-2.13-0.77-2.22-1.91l-0.23-3.05C7.07,128.26,7.93,127.27,9.07,127.19z"/>
	<path class="st17" d="M9.07,127.19l1.47-0.11c1.14-0.09,2.13,0.77,2.22,1.91l0.23,3.05c0.09,1.14-0.77,2.13-1.91,2.22l-1.47,0.11
		c-1.14,0.09-2.13-0.77-2.22-1.91l-0.23-3.05C7.07,128.26,7.93,127.27,9.07,127.19z"/>
	<g>
		<line class="st12" x1="10.07" y1="130.67" x2="2.68" y2="124.4"/>
		<circle class="st11" cx="2.68" cy="124.4" r="2"/>
		<path class="st91" d="M1.56,124.58c-0.11-0.31-0.03-0.79,0.39-1"/>
	</g>
	<g>
		<path class="st92" d="M36.32,140.61l-15.35,1.15c-0.83,0.06-1.62-0.52-1.76-1.3l-0.54-2.98c-0.14-0.78,0.42-1.46,1.25-1.53
			l15.35-1.15c0.83-0.06,1.62,0.52,1.76,1.3l0.54,2.98C37.71,139.86,37.15,140.55,36.32,140.61z"/>
		<text transform="matrix(0.755 -0.0567 0.1783 0.984 20.6237 140.8112)" class="st7 st93 st94">54931</text>
		<path class="st17" d="M36.32,140.61l-15.35,1.15c-0.83,0.06-1.62-0.52-1.76-1.3l-0.54-2.98c-0.14-0.78,0.42-1.46,1.25-1.53
			l15.35-1.15c0.83-0.06,1.62,0.52,1.76,1.3l0.54,2.98C37.71,139.86,37.15,140.55,36.32,140.61z"/>
	</g>
	<path class="st86" d="M19.49,113.69c0,0-1.38,0.6-1.04,2.17"/>
	<g>
		<g>
			<line class="st95" x1="15.18" y1="108.95" x2="14.97" y2="106.3"/>
			<path class="st96" d="M14.53,101.06L14.53,101.06c1.61-0.13,3,0.77,3.1,2l0.27,3.01l-5.85,0.46l-0.27-3.01
				C11.68,102.29,12.91,101.19,14.53,101.06z"/>
			<line class="st17" x1="12.17" y1="104.24" x2="17.48" y2="103.77"/>
		</g>
		<g>
			<line class="st95" x1="26.54" y1="108.03" x2="26.33" y2="105.38"/>
			<path class="st96" d="M25.89,100.14L25.89,100.14c1.61-0.13,3,0.77,3.1,2l0.27,3.01l-5.85,0.46l-0.27-3.01
				C23.05,101.37,24.28,100.27,25.89,100.14z"/>
			<line class="st17" x1="23.53" y1="103.32" x2="28.85" y2="102.86"/>
		</g>
	</g>
</g>
<path class="st12" d="M213.06,78.92c5.78,0.79,6.69-4.4,6.69-4.4"/>
</svg>
