<svg id="Layer_1" data-name="Layer 1" xmlns="http://www.w3.org/2000/svg" xmlns:xlink="http://www.w3.org/1999/xlink" viewBox="0 0 203.11 150"><defs><style>.cls-1{fill:none;}.cls-2{clip-path:url(#clip-path);}.cls-3,.cls-5{fill:#fcee20;}.cls-3{stroke:#0b6a88;}.cls-3,.cls-8{stroke-linejoin:round;}.cls-4{fill:#0b6a88;}.cls-6{fill:#fff;}.cls-7{clip-path:url(#clip-path-2);}.cls-8{fill:#c5c6c8;stroke:#909395;stroke-width:5.09px;}</style><clipPath id="clip-path"><rect class="cls-1" y="23.47" width="205.15" height="126.53"/></clipPath><clipPath id="clip-path-2"><rect class="cls-1" x="9.72" y="271.35" width="114.49" height="104.1"/></clipPath></defs><g class="cls-2"><path class="cls-3" d="M17,105.27l4.94-16.74,63.74,8.89,7.14-64,17.44-.64,11.86,63.25L185,82.47l6.16,16.32L135,130l30.7,56.57-13.94,10.5L105.91,152,63.5,200.37l-14.68-9.43,26.41-58.69Z"/><ellipse class="cls-4" cx="117.06" cy="113.84" rx="4.69" ry="11.04" transform="translate(-16.3 19.62) rotate(-8.96)"/><ellipse class="cls-5" cx="118.4" cy="122.52" rx="6.05" ry="4.79" transform="translate(-17.64 19.94) rotate(-8.96)"/><ellipse class="cls-4" cx="100.92" cy="116.39" rx="4.69" ry="11.04" transform="translate(-16.9 17.14) rotate(-8.96)"/><ellipse class="cls-5" cx="102.26" cy="125.07" rx="6.05" ry="4.79" transform="translate(-18.23 17.45) rotate(-8.96)"/><path class="cls-4" d="M109.48,134.13c-4.45-2.67-20.92-12.37-26-15.37a.76.76,0,0,0-1.13.83l5.94,26.51a.76.76,0,0,0,1.11.5l20.07-11.15A.76.76,0,0,0,109.48,134.13Z"/><ellipse class="cls-6" cx="118.13" cy="107.42" rx="1.09" ry="2.45" transform="translate(-26.43 39.62) rotate(-17.16)"/><ellipse class="cls-6" cx="101.82" cy="110.24" rx="1.09" ry="2.45" transform="translate(-27.99 34.94) rotate(-17.16)"/></g><g class="cls-7"><path class="cls-8" d="M69.68,193c2.53-17.57,30.2-32,30.2-32l-.79-17.53L117.29,166S78.81,185,81.67,201"/></g></svg>