<svg data-name="Layer 1" xmlns="http://www.w3.org/2000/svg" viewBox="0 0 150 150"><defs><clipPath id="a"><path d="M79.32 70.42 72.89 93l17.84 18 36.92-7.38s2.47-38 2.35-38.16S85.51 67 85.51 67l-6.25 2Z" style="fill:none"/></clipPath></defs><path style="stroke-linejoin:round;fill:#c4c5c7;stroke:#8f9294" d="m124.05 52.02-27.08 6.06 3.76 8.72 33.5-8.1-3.48-20.37-6.7 13.69z"/><path d="m17.42 69.38-1.65-10.49 37.39-11.72-12.74-37.05 9.43-4.9 23 31.71 31.07-23.87 7.64 7.38-22.73 31.8 31.63 23.13-4.93 9.4-37-12.87-10.73 37.68-10.54-1.36L56.51 69Z" style="stroke:#0b6a88;fill:#fcee20;stroke-linejoin:round"/><path d="M76.25 50.66a5.24 5.24 0 0 0-.78.3 41.71 41.71 0 0 0-4.74 3.18 14.29 14.29 0 0 1-8.3 2.29c-1.7-.06-4.15-1-5.4.69a3.37 3.37 0 0 0-.2 3.11c2.11 6 10.67 8.77 16.42 7.53a11.68 11.68 0 0 0 5.7-3 10.78 10.78 0 0 0 3.44-8.43c-.25-2.42-1.65-5.42-4.32-5.81a4.17 4.17 0 0 0-1.82.14Z" style="fill:#fff"/><path d="M61.92 51.9s.9-4.9 6.08-3.37M71.46 46.61s.9-4.91 6.09-3.37" style="stroke-width:2px;stroke-linecap:round;stroke:#0b6a88;stroke-linejoin:round;fill:none"/><path d="M60.55 64.94s9.54-8.94 19.78-2.25C79 65.83 75.6 67.12 73 67.88c-2.41.71-7-.2-7-.2Z" style="fill:#f05124"/><path d="M76.25 50.66a5.24 5.24 0 0 0-.78.3 41.71 41.71 0 0 0-4.74 3.18 14.29 14.29 0 0 1-8.3 2.29c-1.7-.06-4.15-1-5.4.69a3.37 3.37 0 0 0-.2 3.11c2.11 6 10.67 8.77 16.42 7.53a11.68 11.68 0 0 0 5.7-3 10.78 10.78 0 0 0 3.44-8.43c-.25-2.42-1.65-5.42-4.32-5.81a4.17 4.17 0 0 0-1.82.14Z" style="stroke-linecap:round;stroke:#0b6a88;stroke-linejoin:round;fill:none"/><g style="clip-path:url(#a)"><path style="stroke-linejoin:round;fill:#c4c5c7;stroke:#8f9294" d="m94.23 92.23-.26-18.31-20.06-2.43-.96 8.6 12.13 1.47.2 18.93 20.61 1.55-11.66-9.81z"/></g></svg>