<?xml version="1.0" encoding="UTF-8"?><svg id="a" xmlns="http://www.w3.org/2000/svg" viewBox="0 0 150 150"><defs><style>.b{fill:#fff;}.c{fill:#0b6a88;}.d{fill:none;stroke-linecap:round;stroke-miterlimit:10;}.d,.e{stroke:#0b6a88;}.e{fill:#fcee20;}.e,.f{stroke-linejoin:round;}.f{fill:#c5c6c8;stroke:#909395;}</style></defs><g><polygon class="f" points="86.89 143.2 86.66 118.37 79.46 117.93 79.73 149.49 95.09 149.49 86.89 143.2"/><polygon class="f" points="64.22 143.2 64.44 118.37 71.65 117.93 71.43 143.37 73.47 149.49 61.06 149.49 64.22 143.2"/><path class="e" d="M35.58,92.17l2.46-7.5,28.7,4.89,4.1-28.82,7.89-.06,4.5,28.76,28.62-5.29,2.56,7.46-25.79,13.35,13.11,25.99-6.44,4.56-20.13-21.03-19.83,21.31-6.51-4.46,12.74-26.17-25.98-12.99Z"/></g><g><g><ellipse class="c" cx="70.87" cy="97.9" rx="4.99" ry="2.12" transform="translate(-27.62 167.96) rotate(-89.53)"/><ellipse class="b" cx="70.93" cy="95.96" rx=".77" ry="1.38" transform="translate(-3.11 2.38) rotate(-1.88)"/></g><g><ellipse class="c" cx="79.13" cy="97.9" rx="4.99" ry="2.12" transform="translate(-19.43 176.22) rotate(-89.53)"/><ellipse class="b" cx="79.19" cy="95.96" rx=".77" ry="1.38" transform="translate(-3.11 2.65) rotate(-1.88)"/></g></g><path class="d" d="M66.62,103.13s2.55,4.6,9.09,3.38"/></svg>