<?xml version="1.0" encoding="UTF-8"?><svg id="a" xmlns="http://www.w3.org/2000/svg" viewBox="0 0 150 150"><defs><style>.b{fill:#fff;}.c{fill:#0b6a88;}.d{fill:none;stroke-linecap:round;stroke-miterlimit:10;}.d,.e{stroke:#0b6a88;}.e{fill:#fcee20;}.e,.f{stroke-linejoin:round;}.f{fill:#c5c6c8;stroke:#909395;}</style></defs><polygon class="f" points="105.35 139.21 94.75 117.63 88.06 120.32 101.87 148.7 113.74 138.9 105.35 139.21"/><path class="f" d="M74.51,142.47c4.38-9.4,4.28-18.62,.27-24.42l-6.69,3.77s4.16,7.23,2.58,11.99c-1.11,3.34-5.2,11.3-5.2,11.3l10.17,4.4,4.58-.04-2.86-2.7-2.85-4.3Z"/><path class="e" d="M36.35,99.62l1.02-7.83,29.1-.55-1.35-29.08,7.74-1.53,9.78,27.42,27.14-10.53,3.91,6.86-22.85,17.93,17.72,23.09-5.48,5.68-23.7-16.91-15.51,24.63-7.23-3.17,7.64-28.09-27.94-7.92Z"/><g><g><ellipse class="c" cx="77.33" cy="99.48" rx="2.12" ry="4.99" transform="translate(-18.6 17.79) rotate(-11.73)"/><ellipse class="b" cx="78.02" cy="98.28" rx=".77" ry="1.38" transform="translate(-21.56 21.93) rotate(-14.08)"/></g><g><ellipse class="c" cx="85.4" cy="97.74" rx="2.12" ry="4.99" transform="translate(-18.08 19.4) rotate(-11.73)"/><ellipse class="b" cx="86.09" cy="96.53" rx=".77" ry="1.38" transform="translate(-20.9 23.84) rotate(-14.08)"/></g></g><path class="d" d="M75.75,105.49s3.26,4.12,9.52,1.86"/></svg>