<svg xmlns="http://www.w3.org/2000/svg" viewBox="0 0 150 150"><path d="m105.35 139.21-10.6-21.58-6.69 2.69 13.81 28.38 11.87-9.8zm-30.84 3.26c4.38-9.4 4.28-18.62.27-24.42l-6.69 3.77s4.16 7.23 2.58 11.99c-1.11 3.34-5.2 11.3-5.2 11.3l10.17 4.4 4.58-.04-2.86-2.7z" style="stroke-linejoin:round;fill:#c5c6c8;stroke:#909395"/><path d="m36.35 99.62 1.02-7.83 29.1-.55-1.35-29.08 7.74-1.53 9.78 27.42 27.14-10.53 3.91 6.86-22.85 17.93 17.72 23.09-5.48 5.68-23.7-16.91-15.51 24.63-7.23-3.17 7.64-28.09-27.94-7.92Z" style="stroke:#0b6a88;fill:#fcee20;stroke-linejoin:round"/><ellipse cx="77.33" cy="99.48" rx="2.12" ry="4.99" style="fill:#0b6a88" transform="rotate(-11.73 77.292 99.43)"/><ellipse cx="78.02" cy="98.28" rx=".77" ry="1.38" style="fill:#fff" transform="rotate(-14.08 78.01 98.257)"/><ellipse cx="85.4" cy="97.74" rx="2.12" ry="4.99" style="fill:#0b6a88" transform="rotate(-11.73 85.39 97.704)"/><ellipse cx="86.09" cy="96.53" rx=".77" ry="1.38" style="fill:#fff" transform="rotate(-14.08 86.073 96.54)"/><path d="M75.75 105.49s3.26 4.12 9.52 1.86" style="fill:none;stroke-linecap:round;stroke-miterlimit:10;stroke:#0b6a88"/></svg>