<svg data-name="Layer 1" xmlns="http://www.w3.org/2000/svg" viewBox="0 0 203.11 150"><defs><clipPath id="a"><path style="fill:none" d="M0 23.47h205.15V150H0z"/></clipPath><clipPath id="b"><path style="fill:none" d="M9.72 271.35h114.49v104.1H9.72z"/></clipPath></defs><g style="clip-path:url(#a)"><path d="m17 105.27 4.94-16.74 63.74 8.89 7.14-64 17.44-.64 11.86 63.25L185 82.47l6.16 16.32L135 130l30.7 56.57-13.94 10.5L105.91 152 63.5 200.37l-14.68-9.43 26.41-58.69Z" style="stroke-linejoin:round;stroke:#0b6a88;fill:#fcee20"/><ellipse cx="117.06" cy="113.84" rx="4.69" ry="11.04" transform="rotate(-8.96 117.057 113.83)" style="fill:#0b6a88"/><ellipse cx="118.4" cy="122.52" rx="6.05" ry="4.79" transform="rotate(-8.96 118.429 122.541)" style="fill:#fcee20"/><ellipse cx="100.92" cy="116.39" rx="4.69" ry="11.04" transform="rotate(-8.96 100.93 116.419)" style="fill:#0b6a88"/><ellipse cx="102.26" cy="125.07" rx="6.05" ry="4.79" transform="rotate(-8.96 102.244 125.061)" style="fill:#fcee20"/><path d="M109.48 134.13c-4.45-2.67-20.92-12.37-26-15.37a.76.76 0 0 0-1.13.83l5.94 26.51a.76.76 0 0 0 1.11.5l20.07-11.15a.76.76 0 0 0 .01-1.32Z" style="fill:#0b6a88"/><ellipse cx="118.13" cy="107.42" rx="1.09" ry="2.45" transform="rotate(-17.16 118.082 107.397)" style="fill:#fff"/><ellipse cx="101.82" cy="110.24" rx="1.09" ry="2.45" transform="rotate(-17.16 101.793 110.227)" style="fill:#fff"/></g><g style="clip-path:url(#b)"><path d="M69.68 193c2.53-17.57 30.2-32 30.2-32l-.79-17.53 18.2 22.53s-38.48 19-35.62 35" style="fill:#c5c6c8;stroke:#909395;stroke-width:5.09px;stroke-linejoin:round"/></g></svg>