<svg id="Layer_1" data-name="Layer 1" xmlns="http://www.w3.org/2000/svg" xmlns:xlink="http://www.w3.org/1999/xlink" viewBox="0 0 150 150"><defs><style>.cls-1,.cls-5,.cls-7{fill:none;}.cls-2{fill:#c4c5c7;stroke:#8f9294;}.cls-2,.cls-3,.cls-5,.cls-7{stroke-linejoin:round;}.cls-3{fill:#fcee20;}.cls-3,.cls-5,.cls-7{stroke:#0b6a88;}.cls-4{fill:#fff;}.cls-5,.cls-7{stroke-linecap:round;}.cls-5{stroke-width:2px;}.cls-6{fill:#f05124;}.cls-8{clip-path:url(#clip-path);}</style><clipPath id="clip-path"><path class="cls-1" d="M79.32,70.42,72.89,93l17.84,18,36.92-7.38s2.47-38,2.35-38.16S85.51,67,85.51,67l-6.25,2Z"/></clipPath></defs><polygon class="cls-2" points="124.05 52.02 96.97 58.08 100.73 66.8 134.23 58.7 130.75 38.33 124.05 52.02"/><path class="cls-3" d="M17.42,69.38,15.77,58.89,53.16,47.17,40.42,10.12l9.43-4.9,23,31.71,31.07-23.87,7.64,7.38L88.83,52.24l31.63,23.13-4.93,9.4-37-12.87L67.8,109.58l-10.54-1.36L56.51,69Z"/><path class="cls-4" d="M76.25,50.66a5.24,5.24,0,0,0-.78.3,41.71,41.71,0,0,0-4.74,3.18,14.29,14.29,0,0,1-8.3,2.29c-1.7-.06-4.15-1-5.4.69a3.37,3.37,0,0,0-.2,3.11c2.11,6,10.67,8.77,16.42,7.53a11.68,11.68,0,0,0,5.7-3,10.78,10.78,0,0,0,3.44-8.43c-.25-2.42-1.65-5.42-4.32-5.81A4.17,4.17,0,0,0,76.25,50.66Z"/><path class="cls-5" d="M61.92,51.9S62.82,47,68,48.53"/><path class="cls-5" d="M71.46,46.61s.9-4.91,6.09-3.37"/><path class="cls-6" d="M60.55,64.94S70.09,56,80.33,62.69C79,65.83,75.6,67.12,73,67.88c-2.41.71-7-.2-7-.2Z"/><path class="cls-7" d="M76.25,50.66a5.24,5.24,0,0,0-.78.3,41.71,41.71,0,0,0-4.74,3.18,14.29,14.29,0,0,1-8.3,2.29c-1.7-.06-4.15-1-5.4.69a3.37,3.37,0,0,0-.2,3.11c2.11,6,10.67,8.77,16.42,7.53a11.68,11.68,0,0,0,5.7-3,10.78,10.78,0,0,0,3.44-8.43c-.25-2.42-1.65-5.42-4.32-5.81A4.17,4.17,0,0,0,76.25,50.66Z"/><g class="cls-8"><polygon class="cls-2" points="94.23 92.23 93.97 73.92 73.91 71.49 72.95 80.09 85.08 81.56 85.28 100.49 105.89 102.04 94.23 92.23"/></g></svg>