<?xml version="1.0" encoding="UTF-8"?><svg id="a" xmlns="http://www.w3.org/2000/svg" xmlns:xlink="http://www.w3.org/1999/xlink" viewBox="0 0 203.11 150"><defs><style>.d{fill:none;}.e{fill:#c5c6c8;stroke:#909395;stroke-width:5.09px;}.e,.f{stroke-linejoin:round;}.g{fill:#fff;}.h,.f{fill:#fcee20;}.i{fill:#0b6a88;}.j{clip-path:url(#c);}.k{clip-path:url(#b);}.f{stroke:#0b6a88;}</style><clipPath id="b"><rect class="d" y="23.47" width="205.15" height="126.53"/></clipPath><clipPath id="c"><rect class="d" x="9.72" y="271.35" width="114.49" height="104.1"/></clipPath></defs><g class="k"><g><path class="f" d="M16.95,105.27l4.94-16.74,63.74,8.89,7.13-63.96,17.44-.65,11.87,63.26,62.91-13.6,6.17,16.33-56.11,31.23,30.7,56.57-13.94,10.5-45.89-45.13-42.41,48.41-14.68-9.43,26.41-58.69-58.28-26.97Z"/><g><ellipse class="i" cx="117.06" cy="113.84" rx="4.69" ry="11.04" transform="translate(-16.3 19.62) rotate(-8.96)"/><ellipse class="h" cx="118.4" cy="122.52" rx="6.05" ry="4.79" transform="translate(-17.64 19.94) rotate(-8.96)"/></g><g><ellipse class="i" cx="100.92" cy="116.39" rx="4.69" ry="11.04" transform="translate(-16.9 17.14) rotate(-8.96)"/><ellipse class="h" cx="102.26" cy="125.07" rx="6.05" ry="4.79" transform="translate(-18.23 17.45) rotate(-8.96)"/></g><path class="i" d="M109.48,134.13c-4.45-2.67-20.92-12.38-26.02-15.38-.58-.34-1.27,.18-1.13,.83l5.93,26.51c.11,.5,.67,.75,1.12,.5l20.06-11.15c.51-.29,.54-1.02,.03-1.32Z"/><ellipse class="g" cx="118.13" cy="107.42" rx="1.09" ry="2.45" transform="translate(-26.43 39.62) rotate(-17.16)"/><ellipse class="g" cx="101.82" cy="110.24" rx="1.09" ry="2.45" transform="translate(-27.99 34.94) rotate(-17.16)"/></g></g><g class="j"><path class="e" d="M69.68,192.96c2.52-17.57,30.2-31.99,30.2-31.99l-.79-17.53,18.21,22.59s-38.49,18.93-35.63,34.97"/></g></svg>