<svg xmlns="http://www.w3.org/2000/svg" viewBox="0 0 150 150"><defs><clipPath id="a"><path d="m79.32 70.42-6.42 22.6 17.83 17.97 36.93-7.39s2.46-38.04 2.35-38.16-44.49 1.54-44.49 1.54l-6.25 1.97.06 1.46Z" style="fill:none"/></clipPath></defs><path d="m124.05 52.02-27.08 6.06 3.76 8.72 33.5-8.09-3.48-20.38z" style="stroke-linejoin:round;fill:#c4c5c7;stroke:#8f9294"/><path d="m17.42 69.38-1.64-10.5 37.39-11.72-12.75-37.04 9.43-4.9 23.01 31.72 31.07-23.87 7.65 7.38-22.74 31.8 31.63 23.13-4.94 9.41-37-12.88-10.72 37.69-10.54-1.37-.76-39.17-39.09.34Z" style="stroke:#0b6a88;stroke-linejoin:round;fill:#fcee20"/><path d="M76.25 50.66q-.405.12-.78.3c-1.73.8-3.15 2.16-4.75 3.18-2.47 1.6-5.35 2.4-8.3 2.29-1.7-.06-4.15-.98-5.4.68-.65.87-.56 2.09-.2 3.11 2.12 6.02 10.67 8.77 16.42 7.53 2.14-.46 4.13-1.5 5.7-3.03 2.19-2.14 3.76-5.32 3.44-8.43-.25-2.42-1.66-5.42-4.32-5.8-.61-.09-1.23-.01-1.82.17Z" style="fill:#fff"/><path d="M61.92 51.9s.9-4.92 6.08-3.37m3.46-1.92s.9-4.92 6.08-3.37" style="fill:none;stroke-linecap:round;stroke:#0b6a88;stroke-linejoin:round"/><path d="M60.55 64.94S70.1 56 80.33 62.69c-1.37 3.14-4.72 4.43-7.3 5.19-2.4.71-6.97-.2-6.97-.2l-5.51-2.73Z" style="fill:#f05124"/><path d="M76.25 50.66q-.405.12-.78.3c-1.73.8-3.15 2.16-4.75 3.18-2.47 1.6-5.35 2.4-8.3 2.29-1.7-.06-4.15-.98-5.4.68-.65.87-.56 2.09-.2 3.11 2.12 6.02 10.67 8.77 16.42 7.53 2.14-.46 4.13-1.5 5.7-3.03 2.19-2.14 3.76-5.32 3.44-8.43-.25-2.42-1.66-5.42-4.32-5.8-.61-.09-1.23-.01-1.82.17Z" style="fill:none;stroke-linecap:round;stroke:#0b6a88;stroke-linejoin:round"/><g style="clip-path:url(#a)"><path d="m94.23 92.23-.26-18.31-20.06-2.43-.96 8.6 12.13 1.47.2 18.93 20.61 1.55z" style="stroke-linejoin:round;fill:#c4c5c7;stroke:#8f9294"/></g></svg>