<svg id="Layer_1" data-name="Layer 1" xmlns="http://www.w3.org/2000/svg" viewBox="0 0 150 150"><defs><style>.cls-1{fill:#c5c6c8;stroke:#909395;}.cls-1,.cls-2{stroke-linejoin:round;}.cls-2,.cls-4{fill:#fcee20;}.cls-2,.cls-6{stroke:#0b6a88;}.cls-3{fill:#0b6a88;}.cls-5{fill:#fff;}.cls-6{fill:none;stroke-linecap:round;stroke-miterlimit:10;}</style></defs><polygon class="cls-1" points="54.24 86.28 66.37 80.14 62.27 68.58 56.22 70.75 58.67 77.76 45.8 83 51.49 97.27 54.24 86.28"/><polygon class="cls-1" points="67.77 92.12 77.67 82.79 78.49 73.59 58.75 91.36 68.24 103.43 67.77 92.12"/><path class="cls-2" d="M37.36,32.32,42,25.92,67.84,39.28,80.49,13.07,88,15.41,83.58,44.18l28.88,3.65.18,7.89L84,60.61l4.61,28.74-7.53,2.39L68.29,65.6,42.93,79.88l-4.84-6.23L58.17,52.58Z"/><ellipse class="cls-3" cx="72.01" cy="48.74" rx="4.99" ry="2.12" transform="translate(11.04 110.73) rotate(-79.57)"/><ellipse class="cls-4" cx="71.57" cy="51.23" rx="3.26" ry="2.73" transform="translate(8.23 112.34) rotate(-79.57)"/><ellipse class="cls-5" cx="73.32" cy="46.25" rx="1.11" ry="0.49" transform="translate(24.24 117.7) rotate(-87.76)"/><ellipse class="cls-3" cx="77.99" cy="49.92" rx="4.99" ry="2.12" transform="translate(14.77 117.58) rotate(-79.57)"/><ellipse class="cls-4" cx="77.56" cy="52.41" rx="3.26" ry="2.73" transform="translate(11.97 119.19) rotate(-79.57)"/><ellipse class="cls-5" cx="79.3" cy="47.43" rx="1.11" ry="0.49" transform="translate(28.8 124.82) rotate(-87.76)"/><path class="cls-6" d="M68.61,56.36a4.23,4.23,0,0,0,3-5.86"/><path class="cls-6" d="M76.76,59.19a4.22,4.22,0,0,1,1.88-6.3"/><path class="cls-6" d="M71.79,54.05s2,3.12,4.43,1.31"/></svg>