<svg xmlns="http://www.w3.org/2000/svg" viewBox="0 0 150 150"><path d="m54.24 86.28 12.13-6.14-4.1-11.56-6.05 2.17 2.45 7.01L45.8 83l5.69 14.27zm13.53 5.84 9.91-9.33.81-9.2-19.74 17.77 9.49 12.07z" style="stroke-linejoin:round;fill:#c5c6c8;stroke:#909395"/><path d="m37.36 32.32 4.62-6.4 25.86 13.36 12.65-26.22 7.54 2.34-4.44 28.77 28.88 3.65.18 7.89-28.63 4.9 4.6 28.74-7.52 2.39L68.3 65.6 42.94 79.89l-4.85-6.23 20.08-21.07-20.81-20.26Z" style="fill:#fcee20;stroke:#0b6a88;stroke-linejoin:round"/><ellipse cx="72.01" cy="48.74" rx="4.99" ry="2.12" style="fill:#0b6a88" transform="rotate(-79.57 72.007 48.736)"/><ellipse cx="71.57" cy="51.23" rx="3.26" ry="2.73" style="fill:#fcee20" transform="rotate(-79.57 71.568 51.228)"/><ellipse cx="73.32" cy="46.25" rx="1.11" ry=".49" style="fill:#fff" transform="rotate(-87.76 73.317 46.247)"/><ellipse cx="77.99" cy="49.92" rx="4.99" ry="2.12" style="fill:#0b6a88" transform="rotate(-79.57 77.985 49.922)"/><ellipse cx="77.56" cy="52.41" rx="3.26" ry="2.73" style="fill:#fcee20" transform="rotate(-79.57 77.551 52.408)"/><ellipse cx="79.3" cy="47.43" rx="1.11" ry=".49" style="fill:#fff" transform="rotate(-87.76 79.299 47.436)"/><path d="M68.61 56.36s4.61-1.06 2.99-5.86m5.16 8.69s-2.6-3.95 1.88-6.3" style="fill:none;stroke-linecap:round;stroke-miterlimit:10;stroke:#0b6a88"/><path d="M71.79 54.05s1.99 3.12 4.42 1.31" style="fill:none;stroke-linecap:round;stroke-miterlimit:10;stroke:#0b6a88"/></svg>