<?xml version="1.0" encoding="UTF-8"?><svg id="a" xmlns="http://www.w3.org/2000/svg" viewBox="0 0 150 150"><defs><style>.b{fill:#fff;}.c,.d{fill:#fcee20;}.e{fill:#0b6a88;}.f{fill:none;stroke-linecap:round;stroke-miterlimit:10;}.f,.d{stroke:#0b6a88;}.d,.g{stroke-linejoin:round;}.g{fill:#c5c6c8;stroke:#909395;}</style></defs><polygon class="g" points="54.24 86.28 66.37 80.14 62.27 68.58 56.22 70.75 58.67 77.76 45.8 83 51.49 97.27 54.24 86.28"/><polygon class="g" points="67.77 92.12 77.68 82.79 78.49 73.59 58.75 91.36 68.24 103.43 67.77 92.12"/><path class="d" d="M37.36,32.32l4.62-6.4,25.86,13.36,12.65-26.22,7.54,2.34-4.44,28.77,28.88,3.65,.18,7.89-28.63,4.9,4.6,28.74-7.52,2.39-12.8-26.14-25.36,14.29-4.85-6.23,20.08-21.07-20.81-20.26Z"/><g><ellipse class="e" cx="72.01" cy="48.74" rx="4.99" ry="2.12" transform="translate(11.04 110.73) rotate(-79.57)"/><ellipse class="c" cx="71.57" cy="51.23" rx="3.26" ry="2.73" transform="translate(8.23 112.34) rotate(-79.57)"/></g><ellipse class="b" cx="73.32" cy="46.25" rx="1.11" ry=".49" transform="translate(24.24 117.7) rotate(-87.76)"/><g><ellipse class="e" cx="77.99" cy="49.92" rx="4.99" ry="2.12" transform="translate(14.77 117.58) rotate(-79.57)"/><ellipse class="c" cx="77.56" cy="52.41" rx="3.26" ry="2.73" transform="translate(11.97 119.19) rotate(-79.57)"/></g><ellipse class="b" cx="79.3" cy="47.43" rx="1.11" ry=".49" transform="translate(28.8 124.82) rotate(-87.76)"/><g><path class="f" d="M68.61,56.36s4.61-1.06,2.99-5.86"/><path class="f" d="M76.76,59.19s-2.6-3.95,1.88-6.3"/><path class="f" d="M71.79,54.05s1.99,3.12,4.42,1.31"/></g></svg>