<svg xmlns="http://www.w3.org/2000/svg" viewBox="0 0 203.11 150"><defs><clipPath id="a"><path d="M0 23.47h205.15V150H0z" style="fill:none"/></clipPath><clipPath id="b"><path d="M9.72 271.35h114.49v104.1H9.72z" style="fill:none"/></clipPath></defs><g style="clip-path:url(#a)"><path d="m16.95 105.27 4.94-16.74 63.74 8.89 7.13-63.96 17.44-.65 11.87 63.26 62.91-13.6 6.17 16.33-56.11 31.23 30.7 56.57-13.94 10.5-45.89-45.13-42.41 48.41-14.68-9.43 26.41-58.69-58.28-26.97Z" style="stroke-linejoin:round;fill:#fcee20;stroke:#0b6a88"/><ellipse cx="117.06" cy="113.84" rx="4.69" ry="11.04" style="fill:#0b6a88" transform="rotate(-8.96 117.057 113.83)"/><ellipse cx="118.4" cy="122.52" rx="6.05" ry="4.79" style="fill:#fcee20" transform="rotate(-8.96 118.429 122.541)"/><ellipse cx="100.92" cy="116.39" rx="4.69" ry="11.04" style="fill:#0b6a88" transform="rotate(-8.96 100.93 116.419)"/><ellipse cx="102.26" cy="125.07" rx="6.05" ry="4.79" style="fill:#fcee20" transform="rotate(-8.96 102.244 125.061)"/><path d="M109.48 134.13c-4.45-2.67-20.92-12.38-26.02-15.38-.58-.34-1.27.18-1.13.83l5.93 26.51c.11.5.67.75 1.12.5l20.06-11.15c.51-.29.54-1.02.03-1.32Z" style="fill:#0b6a88"/><ellipse cx="118.13" cy="107.42" rx="1.09" ry="2.45" style="fill:#fff" transform="rotate(-17.16 118.082 107.397)"/><ellipse cx="101.82" cy="110.24" rx="1.09" ry="2.45" style="fill:#fff" transform="rotate(-17.16 101.793 110.227)"/></g><g style="clip-path:url(#b)"><path d="M69.68 192.96c2.52-17.57 30.2-31.99 30.2-31.99l-.79-17.53 18.21 22.59S78.81 184.96 81.67 201" style="fill:#c5c6c8;stroke:#909395;stroke-width:5.09px;stroke-linejoin:round"/></g></svg>