<svg xmlns="http://www.w3.org/2000/svg" viewBox="0 0 150 150"><path style="fill:#c5c6c8;stroke:#909395;stroke-linejoin:round" d="m86.89 143.2-.23-24.83-7.2-.44.27 31.56h15.36l-8.2-6.29zM64.22 143.2l.22-24.83 7.21-.44-.22 25.44 2.04 6.12H61.06l3.16-6.29z"/><path d="m35.58 92.17 2.46-7.5 28.7 4.89 4.1-28.82 7.89-.06 4.5 28.76 28.62-5.29 2.56 7.46-25.79 13.35 13.11 25.99-6.44 4.56-20.13-21.03-19.83 21.31-6.51-4.46 12.74-26.17-25.98-12.99Z" style="stroke-linejoin:round;fill:#fcee20;stroke:#0b6a88"/><ellipse cx="70.87" cy="97.9" rx="4.99" ry="2.12" transform="rotate(-89.53 70.862 97.904)" style="fill:#0b6a88"/><ellipse cx="70.93" cy="95.96" rx=".77" ry="1.38" transform="rotate(-1.88 70.973 95.963)" style="fill:#fff"/><ellipse cx="79.13" cy="97.9" rx="4.99" ry="2.12" transform="rotate(-89.53 79.12 97.905)" style="fill:#0b6a88"/><ellipse cx="79.19" cy="95.96" rx=".77" ry="1.38" transform="rotate(-1.88 79.2 96.098)" style="fill:#fff"/><path d="M66.62 103.13s2.55 4.6 9.09 3.38" style="stroke:#0b6a88;fill:none;stroke-linecap:round;stroke-miterlimit:10"/></svg>