<svg data-name="Layer 1" xmlns="http://www.w3.org/2000/svg" viewBox="0 0 150 150"><path style="stroke-linejoin:round;fill:#c5c6c8;stroke:#909395" d="m54.24 86.28 12.13-6.14-4.1-11.56-6.05 2.17 2.45 7.01L45.8 83l5.69 14.27 2.75-10.99zM67.77 92.12l9.9-9.33.82-9.2-19.74 17.77 9.49 12.07-.47-11.31z"/><path d="m37.36 32.32 4.64-6.4 25.84 13.36 12.65-26.21L88 15.41l-4.42 28.77 28.88 3.65.18 7.89L84 60.61l4.61 28.74-7.53 2.39L68.29 65.6 42.93 79.88l-4.84-6.23 20.08-21.07Z" style="stroke:#0b6a88;fill:#fcee20;stroke-linejoin:round"/><ellipse cx="72.01" cy="48.74" rx="4.99" ry="2.12" transform="rotate(-79.57 72.007 48.736)" style="fill:#0b6a88"/><ellipse cx="71.57" cy="51.23" rx="3.26" ry="2.73" transform="rotate(-79.57 71.568 51.228)" style="fill:#fcee20"/><ellipse cx="73.32" cy="46.25" rx="1.11" ry=".49" transform="rotate(-87.76 73.317 46.247)" style="fill:#fff"/><ellipse cx="77.99" cy="49.92" rx="4.99" ry="2.12" transform="rotate(-79.57 77.985 49.922)" style="fill:#0b6a88"/><ellipse cx="77.56" cy="52.41" rx="3.26" ry="2.73" transform="rotate(-79.57 77.551 52.408)" style="fill:#fcee20"/><ellipse cx="79.3" cy="47.43" rx="1.11" ry=".49" transform="rotate(-87.76 79.299 47.436)" style="fill:#fff"/><path d="M68.61 56.36a4.23 4.23 0 0 0 3-5.86M76.76 59.19a4.22 4.22 0 0 1 1.88-6.3" style="fill:none;stroke-linecap:round;stroke-miterlimit:10;stroke:#0b6a88"/><path d="M71.79 54.05s2 3.12 4.43 1.31" style="fill:none;stroke-linecap:round;stroke-miterlimit:10;stroke:#0b6a88"/></svg>