<svg xmlns="http://www.w3.org/2000/svg" viewBox="0 0 150 150"><defs><filter id="a" filterUnits="userSpaceOnUse"><feOffset dx=".21" dy=".21"/><feGaussianBlur result="c"/><feFlood flood-color="#000" flood-opacity=".15"/><feComposite in2="c" operator="in"/><feComposite in="SourceGraphic"/></filter></defs><path style="stroke-linejoin:round;stroke:#70327e;fill:none" d="M47.74 29.38v-9.35"/><path d="M47.74 5.68c4.35 0 7.89 3.54 7.89 7.89v6.45H39.85v-6.45c0-4.35 3.54-7.89 7.89-7.89Z" style="fill:#f05124;stroke-linejoin:round;stroke:#70327e"/><path style="stroke-linejoin:round;stroke:#70327e;fill:none" d="M39.85 13.57h15.78M87.98 29.38v-9.35"/><path d="M87.98 5.68c4.35 0 7.89 3.54 7.89 7.89v6.45H80.09v-6.45c0-4.35 3.54-7.89 7.89-7.89Z" style="fill:#f05124;stroke-linejoin:round;stroke:#70327e"/><path style="stroke-linejoin:round;stroke:#70327e;fill:none" d="M80.09 13.57h15.78"/><circle cx="93.23" cy="141.56" r="8.44" style="fill:#c5c7c9;stroke:#929497;stroke-linejoin:round"/><path d="M91.53 134.78v6.62c0 1.16 1.25 1.9 2.27 1.33l13.79-7.68" style="fill:#c5c7c9;stroke:#929497;stroke-linejoin:round"/><circle cx="60.8" cy="141.56" r="8.44" style="fill:#c5c7c9;stroke:#929497;stroke-linejoin:round"/><path d="M59.1 134.78v6.62c0 1.16 1.25 1.9 2.27 1.33l13.79-7.68" style="fill:#c5c7c9;stroke:#929497;stroke-linejoin:round"/><circle cx="28.12" cy="141.56" r="8.44" style="fill:#c5c7c9;stroke:#929497;stroke-linejoin:round"/><path d="M26.42 134.78v6.62c0 1.16 1.25 1.9 2.27 1.33l13.79-7.68" style="fill:#c5c7c9;stroke:#929497;stroke-linejoin:round"/><path d="M11.66 120.3h103.49v6.22c0 4.56-3.7 8.26-8.26 8.26H20.6c-4.94 0-8.94-4.01-8.94-8.94v-5.53Z" style="fill:#f89e4f"/><path style="fill:#fcee20" d="M15.93 93.17h96.86l2.36 27.13H12.37l3.56-27.13z"/><path style="fill:#2dc5f4" d="M19.12 71.59h91.84l1.83 21.58H15.93l3.19-21.58z"/><path style="fill:#f063a4" d="M22.12 50.01h87.01l1.83 21.58H19.12l3-21.58z"/><path d="M33.56 28.43h63.91c6.36 0 11.52 5.16 11.52 11.52v10.06H22.12l1.44-11.58c0-5.52 4.48-10 10-10Z" style="fill:#9253a1"/><path d="M89.12 134.96H21.2c-5.27 0-9.54-4.27-9.54-9.54l12.18-87.79c0-5.27 4.27-9.54 9.54-9.54h55.74" style="stroke-linejoin:round;stroke:#70327e;fill:none"/><path d="M105.95 134.96H55.19c-4.96 0-9.09-3.8-9.51-8.73l-7.44-87.8c-.47-5.57 3.92-10.35 9.51-10.35h50.76c4.96 0 9.09 3.8 9.51 8.73l7.44 87.8c.47 5.57-3.92 10.35-9.51 10.35Z" style="stroke-linejoin:round;stroke:#70327e;fill:none"/><path style="stroke-dasharray:0 0 0 1.65;stroke-width:.83px;stroke-linecap:round;stroke-linejoin:round;stroke:#70327e;fill:none" d="m82.89 134.78-9.23-106.7"/><path d="m54.52 99-5.7-54.83c-.35-3.4 2.12-6.16 5.52-6.16h38.93c3.4 0 6.44 2.76 6.8 6.16l5.7 54.83c.35 3.4-2.12 6.16-5.52 6.16H61.31c-3.4 0-6.44-2.76-6.8-6.16Z" style="fill:#e4d4e7"/><ellipse cx="64.72" cy="61.51" rx="4.48" ry="13.69" transform="rotate(-6.64 64.752 61.526)" style="fill:#70327e"/><ellipse cx="87.77" cy="61.51" rx="4.48" ry="13.69" transform="rotate(-6.64 87.84 61.569)" style="fill:#70327e"/><path d="M89.95 82.5c.87 8.34-3.59 15.1-9.96 15.1s-12.23-6.76-13.1-15.1" style="stroke-miterlimit:10;stroke-linecap:round;stroke:#70327e;fill:none"/><path d="M59.86 105.16h41.85l3.4-2.26.65-3.89-5.7-54.83s-13.91 39.01-40.21 60.99Z" style="opacity:.5;fill:#fff"/><path d="m54.52 99-5.7-54.83c-.35-3.4 2.12-6.16 5.52-6.16h38.93c3.4 0 6.44 2.76 6.8 6.16l5.7 54.83c.35 3.4-2.12 6.16-5.52 6.16H61.31c-3.4 0-6.44-2.76-6.8-6.16Z" style="stroke-linejoin:round;stroke:#70327e;fill:none"/><path style="stroke:#fff;stroke-miterlimit:10;stroke-linecap:round;fill:none" d="m98.76 52.78 2.56 24.62M102 83.97l.4 3.8M54.86 40.75h11.48M70.4 40.75h3.69"/><path style="stroke-dasharray:0 0 0 1.65;stroke-width:.83px;stroke-linecap:round;stroke-linejoin:round;stroke:#70327e;fill:none" d="M22.12 50.01h27.07M100.65 50.01h8.48M19.12 71.65h31.85M102.86 71.59h8.1M15.93 93.17h36.85M12.37 120.3h102.78M105.18 93.17h7.61"/><rect x="20.82" y="82.24" width="17.02" height="21.86" rx="6.28" ry="6.28" style="fill:#f05124;stroke-linejoin:round;stroke:#70327e"/><path style="stroke-linecap:round;stroke-linejoin:round;stroke:#70327e;fill:none" d="M29.33 93.17V72.54"/><circle cx="29.33" cy="72.54" r="4.99" style="fill:#70327e"/><path d="M104.48 128.32H61.75c-2.32 0-4.38-1.77-4.61-3.96l-.87-8.36c-.23-2.19 1.46-3.96 3.78-3.96h42.73c2.32 0 4.38 1.77 4.61 3.96l.87 8.36c.23 2.19-1.46 3.96-3.78 3.96Z" style="fill:#855191"/><g style="filter:url(#a)"><path d="m61.38 119.75-.09.14h-.15l-.42-4.01.23-.34.89 1.02.23 2.17-.68 1.02Zm-.12-4.69.22-.34h3.43l.29.34-.67 1.03h-2.39l-.88-1.03Zm3.89 4.49.58.68-.44.68h-2.91l-.58-.68.44-.68h2.91Zm1.13 5.86-.22.34h-3.43l-.29-.34.67-1.03h2.39l.88 1.03Zm-.12-4.69.09-.14h.15l.42 4.02-.23.33-.89-1.02-.23-2.17.68-1.02ZM69.06 119.75l-.09.14h-.15l-.42-4.01.23-.34.89 1.02.23 2.17-.68 1.02Zm3.77-.2.58.68-.44.68h-2.91l-.58-.68.44-.68h2.91Zm.46-4.01.29.33.42 4.02h-.15l-.12-.14-.89-1.02-.23-2.17.68-1.02Zm.54 5.18.09-.14h.15l.42 4.02-.23.33-.89-1.02-.23-2.17.68-1.02ZM76.94 119.75l-.09.14h-.15l-.42-4.01.23-.34.89 1.02.23 2.17-.68 1.02Zm-.12-4.69.22-.34h3.43l.29.34-.67 1.03H77.7l-.88-1.03Zm3.89 4.49.58.68-.44.68h-2.91l-.58-.68.44-.68h2.91Zm1.13 5.86-.22.34h-3.43l-.29-.34.67-1.03h2.39l.88 1.03Zm-.66-9.87.29.33.42 4.02h-.15l-.12-.14-.89-1.02-.23-2.17.68-1.02Zm.54 5.18.09-.14h.15l.42 4.02-.23.33-.89-1.02-.23-2.17.68-1.02ZM84.34 115.06l.22-.34h3.43l.29.34-.67 1.03h-2.39l-.88-1.03Zm3.89 4.49.58.68-.44.68h-2.91l-.58-.68.44-.68h2.91Zm1.13 5.86-.22.34h-3.43l-.29-.34.67-1.03h2.39l.88 1.03Zm-.66-9.87.29.33.42 4.02h-.15l-.12-.14-.89-1.02-.23-2.17.68-1.02Zm.54 5.18.09-.14h.15l.42 4.02-.23.33-.89-1.02-.23-2.17.68-1.02ZM94.68 115.55l.29.33.42 4.02h-.15l-.12-.14-.89-1.02-.23-2.17.68-1.02Zm.54 5.18.09-.14h.15l.42 4.02-.23.33-.89-1.02-.23-2.17.68-1.02ZM98.33 119.75l-.09.14h-.15l-.42-4.01.23-.34.89 1.02.23 2.17-.68 1.02Zm-.12-4.69.22-.34h3.43l.29.34-.67 1.03h-2.39l-.88-1.03Zm4.35.49.29.33.42 4.02h-.15l-.12-.14-.89-1.02-.23-2.17.68-1.02Zm.54 5.18.09-.14h.15l.42 4.02-.23.33-.89-1.02-.23-2.17.68-1.02Z" style="fill:#fff"/></g><path d="M60.04 127.85s29.08-1.63 45.34-15.26c.85.18 1.69 1.21 2.11 4.34.42 3.14.78 8.81.78 8.81l-1.89 2.59-43.43.12-2.91-.6Z" style="opacity:.15;fill:#fff"/><path d="M104.48 128.32H61.75c-2.32 0-4.38-1.77-4.61-3.96l-.87-8.36c-.23-2.19 1.46-3.96 3.78-3.96h42.73c2.32 0 4.38 1.77 4.61 3.96l.87 8.36c.23 2.19-1.46 3.96-3.78 3.96Z" style="stroke-linejoin:round;stroke:#70327e;fill:none"/></svg>