<svg xmlns="http://www.w3.org/2000/svg" viewBox="0 0 150 150"><defs><filter id="a" filterUnits="userSpaceOnUse"><feOffset dx=".21" dy=".21"/><feGaussianBlur result="c"/><feFlood flood-color="#000" flood-opacity=".15"/><feComposite in2="c" operator="in"/><feComposite in="SourceGraphic"/></filter></defs><path d="M47.74 29.38v-9.35" style="fill:none;stroke:#70327e;stroke-linejoin:round"/><path d="M47.74 5.68c4.35 0 7.89 3.54 7.89 7.89v6.45H39.85v-6.45c0-4.35 3.54-7.89 7.89-7.89Z" style="stroke:#70327e;stroke-linejoin:round;fill:#f05124"/><path d="M39.85 13.57h15.78m32.35 15.81v-9.35" style="fill:none;stroke:#70327e;stroke-linejoin:round"/><path d="M87.98 5.68c4.35 0 7.89 3.54 7.89 7.89v6.45H80.09v-6.45c0-4.35 3.54-7.89 7.89-7.89Z" style="stroke:#70327e;stroke-linejoin:round;fill:#f05124"/><path d="M80.09 13.57h15.78" style="fill:none;stroke:#70327e;stroke-linejoin:round"/><circle cx="93.23" cy="141.56" r="8.44" style="stroke-linejoin:round;fill:#c5c7c9;stroke:#929497"/><path d="M91.53 134.78v6.62c0 1.16 1.25 1.9 2.27 1.33l13.79-7.68" style="stroke-linejoin:round;fill:#c5c7c9;stroke:#929497"/><circle cx="60.8" cy="141.56" r="8.44" style="stroke-linejoin:round;fill:#c5c7c9;stroke:#929497"/><path d="M59.1 134.78v6.62c0 1.16 1.25 1.9 2.27 1.33l13.79-7.68" style="stroke-linejoin:round;fill:#c5c7c9;stroke:#929497"/><circle cx="28.12" cy="141.56" r="8.44" style="stroke-linejoin:round;fill:#c5c7c9;stroke:#929497"/><path d="M26.42 134.78v6.62c0 1.16 1.25 1.9 2.27 1.33l13.79-7.68" style="stroke-linejoin:round;fill:#c5c7c9;stroke:#929497"/><path d="M11.66 120.3h103.49v6.22c0 4.56-3.7 8.26-8.26 8.26H20.6c-4.94 0-8.94-4.01-8.94-8.94v-5.53Z" style="fill:#f89e4f"/><path d="M15.93 93.17h96.86l2.36 27.13H12.37z" style="fill:#fcee20"/><path d="M19.12 71.59h91.84l1.83 21.58H15.93z" style="fill:#2dc5f4"/><path d="M22.12 50.01h87.01l1.83 21.58H19.12z" style="fill:#f063a4"/><path d="M33.56 28.43h63.91c6.36 0 11.52 5.16 11.52 11.52v10.06H22.12l1.44-11.58c0-5.52 4.48-10 10-10" style="fill:#9253a1"/><path d="M89.12 134.96H21.2c-5.27 0-9.54-4.27-9.54-9.54l12.18-87.79c0-5.27 4.27-9.54 9.54-9.54h55.74" style="fill:none;stroke:#70327e;stroke-linejoin:round"/><path d="M105.95 134.96H55.19c-4.96 0-9.09-3.8-9.51-8.73l-7.44-87.8c-.47-5.57 3.92-10.35 9.51-10.35h50.76c4.96 0 9.09 3.8 9.51 8.73l7.44 87.8c.47 5.57-3.92 10.35-9.51 10.35Z" style="fill:none;stroke:#70327e;stroke-linejoin:round"/><path d="m82.89 134.78-9.23-106.7" style="fill:none;stroke:#70327e;stroke-linejoin:round;stroke-linecap:round;stroke-dasharray:0 0 0 1.65;stroke-width:.83px"/><path d="m54.52 99-5.7-54.83c-.35-3.4 2.12-6.16 5.52-6.16h38.93c3.4 0 6.44 2.76 6.8 6.16l5.7 54.83c.35 3.4-2.12 6.16-5.52 6.16H61.31c-3.4 0-6.44-2.76-6.8-6.16Z" style="fill:#e4d4e7"/><ellipse cx="64.72" cy="61.51" rx="4.48" ry="13.69" style="fill:#70327e" transform="rotate(-6.64 64.752 61.526)"/><ellipse cx="87.77" cy="61.51" rx="4.48" ry="13.69" style="fill:#70327e" transform="rotate(-6.64 87.84 61.569)"/><path d="M89.95 82.5c.87 8.34-3.59 15.1-9.96 15.1s-12.23-6.76-13.1-15.1" style="fill:none;stroke:#70327e;stroke-linecap:round;stroke-miterlimit:10"/><path d="M59.86 105.16h41.85l3.4-2.26.65-3.89-5.7-54.83s-13.91 39.01-40.21 60.99Z" style="fill:#fff;opacity:.5"/><path d="m54.52 99-5.7-54.83c-.35-3.4 2.12-6.16 5.52-6.16h38.93c3.4 0 6.44 2.76 6.8 6.16l5.7 54.83c.35 3.4-2.12 6.16-5.52 6.16H61.31c-3.4 0-6.44-2.76-6.8-6.16Z" style="fill:none;stroke:#70327e;stroke-linejoin:round"/><path d="m98.76 52.78 2.56 24.62m.68 6.57.4 3.8M54.86 40.75h11.48m4.06 0h3.69" style="fill:none;stroke-linecap:round;stroke-miterlimit:10;stroke:#fff"/><path d="M22.12 50.01h27.07m51.46 0h8.48M19.12 71.65h31.85m51.89-.06h8.1M15.93 93.17h36.85M12.37 120.3h102.78m-9.97-27.13h7.61" style="fill:none;stroke:#70327e;stroke-linejoin:round;stroke-linecap:round;stroke-dasharray:0 0 0 1.65;stroke-width:.83px"/><rect width="17.02" height="21.86" x="20.82" y="82.24" rx="6.28" ry="6.28" style="stroke:#70327e;stroke-linejoin:round;fill:#f05124"/><path d="M29.33 93.17V72.54" style="fill:none;stroke:#70327e;stroke-linejoin:round;stroke-linecap:round"/><circle cx="29.33" cy="72.54" r="4.99" style="fill:#70327e"/><path d="M104.48 128.32H61.75c-2.32 0-4.38-1.77-4.61-3.96l-.87-8.36c-.23-2.19 1.46-3.96 3.78-3.96h42.73c2.32 0 4.38 1.77 4.61 3.96l.87 8.36c.23 2.19-1.46 3.96-3.78 3.96" style="fill:#855191"/><g style="filter:url(#a)"><path d="m61.38 119.75-.09.14h-.15l-.42-4.01.23-.34.89 1.02.23 2.17-.68 1.02Zm-.12-4.69.22-.34h3.43l.29.34-.67 1.03h-2.39zm3.89 4.49.58.68-.44.68h-2.91l-.58-.68.44-.68zm1.13 5.86-.22.34h-3.43l-.29-.34.67-1.03h2.39zm-.12-4.69.09-.14h.15l.42 4.02-.23.33-.89-1.02-.23-2.17.68-1.02Zm2.9-.97-.09.14h-.15l-.42-4.01.23-.34.89 1.02.23 2.17-.68 1.02Zm3.77-.2.58.68-.44.68h-2.91l-.58-.68.44-.68zm.46-4.01.29.33.42 4.02h-.15l-.12-.14-.89-1.02-.23-2.17zm.54 5.18.09-.14h.15l.42 4.02-.23.33-.89-1.02-.23-2.17.68-1.02Zm3.11-.97-.09.14h-.15l-.42-4.01.23-.34.89 1.02.23 2.17-.68 1.02Zm-.12-4.69.22-.34h3.43l.29.34-.67 1.03H77.7zm3.89 4.49.58.68-.44.68h-2.91l-.58-.68.44-.68zm1.13 5.86-.22.34h-3.43l-.29-.34.67-1.03h2.39zm-.66-9.87.29.33.42 4.02h-.15l-.12-.14-.89-1.02-.23-2.17zm.54 5.18.09-.14h.15l.42 4.02-.23.33-.89-1.02-.23-2.17.68-1.02Zm2.62-5.66.22-.34h3.43l.29.34-.67 1.03h-2.39zm3.89 4.49.58.68-.44.68h-2.91l-.58-.68.44-.68zm1.13 5.86-.22.34h-3.43l-.29-.34.67-1.03h2.39zm-.66-9.87.29.33.42 4.02h-.15l-.12-.14-.89-1.02-.23-2.17zm.54 5.18.09-.14h.15l.42 4.02-.23.33-.89-1.02-.23-2.17.68-1.02Zm5.44-5.17.29.33.42 4.02h-.15l-.12-.14-.89-1.02-.23-2.17zm.54 5.18.09-.14h.15l.42 4.02-.23.33-.89-1.02-.23-2.17.68-1.02Zm3.11-.98-.09.14h-.15l-.42-4.01.23-.34.89 1.02.23 2.17-.68 1.02Zm-.12-4.69.22-.34h3.43l.29.34-.67 1.03h-2.39zm4.35.49.29.33.42 4.02h-.15l-.12-.14-.89-1.02-.23-2.17zm.54 5.18.09-.14h.15l.42 4.02-.23.33-.89-1.02-.23-2.17.68-1.02Z" style="fill:#fff"/></g><path d="M60.04 127.85s29.08-1.63 45.34-15.26c.85.18 1.69 1.21 2.11 4.34.42 3.14.78 8.81.78 8.81l-1.89 2.59-43.43.12z" style="fill:#fff;opacity:.15"/><path d="M104.48 128.32H61.75c-2.32 0-4.38-1.77-4.61-3.96l-.87-8.36c-.23-2.19 1.46-3.96 3.78-3.96h42.73c2.32 0 4.38 1.77 4.61 3.96l.87 8.36c.23 2.19-1.46 3.96-3.78 3.96Z" style="fill:none;stroke:#70327e;stroke-linejoin:round"/></svg>