<svg xmlns="http://www.w3.org/2000/svg" viewBox="0 0 150 150"><defs><style>.cls-1{isolation:isolate;}.cls-10,.cls-13,.cls-15,.cls-16,.cls-2{fill:none;}.cls-10,.cls-13,.cls-16,.cls-2,.cls-3{stroke:#70327e;}.cls-10,.cls-16,.cls-2,.cls-3,.cls-4{stroke-linejoin:round;}.cls-3{fill:#f05124;}.cls-4{fill:#c5c7c9;stroke:#929497;}.cls-5{fill:#f89e4f;}.cls-6{fill:#fcee20;}.cls-7{fill:#2dc5f4;}.cls-8{fill:#f063a4;}.cls-9{fill:#9253a1;}.cls-10,.cls-13,.cls-15,.cls-16{stroke-linecap:round;}.cls-10{stroke-width:0.83px;stroke-dasharray:0 1.65;}.cls-11{fill:#e4d4e7;}.cls-12{fill:#70327e;}.cls-13,.cls-15{stroke-miterlimit:10;}.cls-14,.cls-24,.cls-25{fill:#fff;}.cls-14{opacity:0.5;}.cls-15{stroke:#fff;}.cls-17{fill:#855191;}.cls-18{mix-blend-mode:multiply;}.cls-18,.cls-25{opacity:0.15;}.cls-19,.cls-24{font-size:11.1px;font-family:DSEG7ClassicMini-Bold, DSEG7 Classic Mini;font-weight:700;letter-spacing:0.1em;}.cls-20{letter-spacing:0.12em;}.cls-21{letter-spacing:0.08em;}.cls-22{letter-spacing:-0.1em;}.cls-23{letter-spacing:0.1em;}</style></defs><g class="cls-1"><g id="Layer_1" data-name="Layer 1"><line class="cls-2" x1="47.74" y1="29.38" x2="47.74" y2="20.03"/><path class="cls-3" d="M47.74,5.68h0a7.89,7.89,0,0,1,7.89,7.89V20a0,0,0,0,1,0,0H39.85a0,0,0,0,1,0,0V13.57A7.89,7.89,0,0,1,47.74,5.68Z"/><line class="cls-2" x1="39.85" y1="13.57" x2="55.63" y2="13.57"/><line class="cls-2" x1="87.98" y1="29.38" x2="87.98" y2="20.03"/><path class="cls-3" d="M88,5.68h0a7.89,7.89,0,0,1,7.89,7.89V20a0,0,0,0,1,0,0H80.09a0,0,0,0,1,0,0V13.57A7.89,7.89,0,0,1,88,5.68Z"/><line class="cls-2" x1="80.09" y1="13.57" x2="95.87" y2="13.57"/><circle class="cls-4" cx="93.23" cy="141.56" r="8.44"/><path class="cls-4" d="M91.53,134.78v6.62a1.52,1.52,0,0,0,2.26,1.33l13.79-7.68"/><circle class="cls-4" cx="60.8" cy="141.56" r="8.44"/><path class="cls-4" d="M59.1,134.78v6.62a1.53,1.53,0,0,0,2.27,1.33l13.79-7.68"/><circle class="cls-4" cx="28.12" cy="141.56" r="8.44"/><path class="cls-4" d="M26.42,134.78v6.62a1.53,1.53,0,0,0,2.27,1.33l13.79-7.68"/><path class="cls-5" d="M11.66,120.3H115.15a0,0,0,0,1,0,0v6.22a8.26,8.26,0,0,1-8.26,8.26H20.6a8.94,8.94,0,0,1-8.94-8.94V120.3A0,0,0,0,1,11.66,120.3Z"/><polygon class="cls-6" points="15.93 93.17 112.79 93.17 115.15 120.3 12.37 120.3 15.93 93.17"/><polygon class="cls-7" points="19.12 71.59 110.96 71.59 112.79 93.17 15.93 93.17 19.12 71.59"/><polygon class="cls-8" points="22.12 50.01 109.13 50.01 110.96 71.59 19.12 71.59 22.12 50.01"/><path class="cls-9" d="M33.56,28.43H97.47A11.51,11.51,0,0,1,109,39.94V50H22.12l1.44-11.58A10,10,0,0,1,33.56,28.43Z"/><path class="cls-2" d="M89.12,135H21.2a9.54,9.54,0,0,1-9.54-9.54L23.84,37.63a9.55,9.55,0,0,1,9.54-9.55H89.12"/><path class="cls-2" d="M106,135H55.19a9.54,9.54,0,0,1-9.51-8.73l-7.44-87.8a9.54,9.54,0,0,1,9.5-10.35H98.51a9.54,9.54,0,0,1,9.5,8.74l7.45,87.8A9.54,9.54,0,0,1,106,135Z"/><line class="cls-10" x1="82.89" y1="134.78" x2="73.66" y2="28.08"/><path class="cls-11" d="M54.52,99l-5.7-54.83A5.45,5.45,0,0,1,54.34,38H93.27a7,7,0,0,1,6.8,6.16L105.76,99a5.44,5.44,0,0,1-5.51,6.16H61.31A7,7,0,0,1,54.52,99Z"/><ellipse class="cls-12" cx="64.72" cy="61.51" rx="4.48" ry="13.69" transform="translate(-6.68 7.9) rotate(-6.64)"/><ellipse class="cls-12" cx="87.77" cy="61.51" rx="4.48" ry="13.69" transform="translate(-6.53 10.57) rotate(-6.64)"/><path class="cls-13" d="M90,82.5c.87,8.34-3.59,15.1-10,15.1S67.77,90.84,66.9,82.5"/><path class="cls-14" d="M59.86,105.16H101.7l3.41-2.27.65-3.89-5.69-54.83S86.15,83.18,59.86,105.16Z"/><path class="cls-2" d="M54.52,99l-5.7-54.83A5.45,5.45,0,0,1,54.34,38H93.27a7,7,0,0,1,6.8,6.16L105.76,99a5.44,5.44,0,0,1-5.51,6.16H61.31A7,7,0,0,1,54.52,99Z"/><line class="cls-15" x1="98.76" y1="52.78" x2="101.32" y2="77.4"/><line class="cls-15" x1="102" y1="83.97" x2="102.4" y2="87.77"/><line class="cls-15" x1="54.86" y1="40.75" x2="66.34" y2="40.75"/><line class="cls-15" x1="70.4" y1="40.75" x2="74.09" y2="40.75"/><line class="cls-10" x1="22.12" y1="50.01" x2="49.19" y2="50.01"/><line class="cls-10" x1="100.65" y1="50.01" x2="109.13" y2="50.01"/><line class="cls-10" x1="19.12" y1="71.65" x2="50.97" y2="71.65"/><line class="cls-10" x1="102.86" y1="71.59" x2="110.96" y2="71.59"/><line class="cls-10" x1="15.93" y1="93.17" x2="52.78" y2="93.17"/><line class="cls-10" x1="12.37" y1="120.3" x2="115.15" y2="120.3"/><line class="cls-10" x1="105.18" y1="93.17" x2="112.79" y2="93.17"/><rect class="cls-3" x="20.82" y="82.24" width="17.02" height="21.86" rx="6.28"/><line class="cls-16" x1="29.33" y1="93.17" x2="29.33" y2="72.54"/><circle class="cls-12" cx="29.33" cy="72.54" r="4.99"/><path class="cls-17" d="M104.48,128.32H61.75a4.65,4.65,0,0,1-4.61-4L56.26,116A3.61,3.61,0,0,1,60,112h42.73a4.64,4.64,0,0,1,4.61,4l.87,8.36A3.61,3.61,0,0,1,104.48,128.32Z"/><g class="cls-18"><text class="cls-19" transform="matrix(0.76, 0, 0.1, 0.99, 61.12, 125.97)">5<tspan class="cls-20" x="10.14" y="0">4</tspan><tspan class="cls-21" x="20.55" y="0">9</tspan><tspan class="cls-22" x="30.48" y="0">3</tspan><tspan class="cls-20" x="38.39" y="0">1</tspan><tspan class="cls-23" x="48.8" y="0">7</tspan></text></g><text class="cls-24" transform="matrix(0.76, 0, 0.1, 0.99, 60.92, 125.76)">5<tspan class="cls-20" x="10.14" y="0">4</tspan><tspan class="cls-21" x="20.55" y="0">9</tspan><tspan class="cls-22" x="30.48" y="0">3</tspan><tspan class="cls-20" x="38.39" y="0">1</tspan><tspan class="cls-23" x="48.8" y="0">7</tspan></text><path class="cls-25" d="M60,127.85s29.08-1.63,45.33-15.26c.85.18,1.69,1.21,2.11,4.35s.78,8.8.78,8.8l-1.88,2.6L63,128.46Z"/><path class="cls-2" d="M104.48,128.32H61.75a4.65,4.65,0,0,1-4.61-4L56.26,116A3.61,3.61,0,0,1,60,112h42.73a4.64,4.64,0,0,1,4.61,4l.87,8.36A3.61,3.61,0,0,1,104.48,128.32Z"/></g></g></svg>