<svg xmlns="http://www.w3.org/2000/svg" viewBox="0 0 150 150"><g data-name="Layer 1" style="isolation:isolate"><path style="stroke-linejoin:round;stroke:#70327e;fill:none" d="M66.12 29.38v-9.35"/><path d="M66.12 5.69A7.89 7.89 0 0 1 74 13.58V20H58.23v-6.42a7.89 7.89 0 0 1 7.89-7.89Z" style="fill:#f05124;stroke-linejoin:round;stroke:#70327e"/><path style="stroke-linejoin:round;stroke:#70327e;fill:none" d="M58.23 13.58h15.78M106.35 29.38v-9.35"/><path d="M106.35 5.69a7.89 7.89 0 0 1 7.89 7.89V20H98.46v-6.42a7.89 7.89 0 0 1 7.89-7.89Z" style="fill:#f05124;stroke-linejoin:round;stroke:#70327e"/><path style="stroke-linejoin:round;stroke:#70327e;fill:none" d="M98.46 13.58h15.78"/><path d="M86.22 150a5 5 0 0 1-5-5v-8.2a5 5 0 0 1 10 0v8.2a5 5 0 0 1-5 5Z" style="stroke:#929497;fill:#c5c7c9;stroke-linejoin:round"/><path style="stroke-width:2px;stroke-linecap:round;stroke:#929497;stroke-linejoin:round;fill:none" d="M78.8 135.3v5.36M93.63 135.3v5.36"/><path d="M111.47 150a5 5 0 0 1-5-5v-8.2a5 5 0 0 1 10 0v8.2a5 5 0 0 1-5 5Z" style="stroke:#929497;fill:#c5c7c9;stroke-linejoin:round"/><path style="stroke-width:2px;stroke-linecap:round;stroke:#929497;stroke-linejoin:round;fill:none" d="M104.05 135.3v5.36M118.88 135.3v5.36"/><path d="M61 150a5 5 0 0 1-5-5v-8.2a5 5 0 0 1 10 0v8.2a5 5 0 0 1-5 5Z" style="stroke:#929497;fill:#c5c7c9;stroke-linejoin:round"/><path style="stroke-width:2px;stroke-linecap:round;stroke:#929497;stroke-linejoin:round;fill:none" d="M53.55 135.3v5.36M68.38 135.3v5.36"/><rect x="34.22" y="82.24" width="17.02" height="21.86" rx="6.28" style="fill:#f05124;stroke-linejoin:round;stroke:#70327e"/><rect x="121.22" y="82.24" width="17.02" height="21.86" rx="6.28" style="fill:#f05124;stroke-linejoin:round;stroke:#70327e"/><path style="stroke-linejoin:round;stroke:#70327e;fill:none" d="M34.22 93.17h-5.05V72.54M138.25 93.17h5.05V72.54"/><circle cx="143.3" cy="72.54" r="4.99" style="fill:#70327e"/><circle cx="29.17" cy="72.54" r="4.99" style="fill:#70327e"/><path d="M52.22 28.09h68.21a9.31 9.31 0 0 1 9.31 9.31V50h-87V37.57a9.49 9.49 0 0 1 9.48-9.48Z" style="fill:#9253a1"/><path style="fill:#2dc5f4" d="M42.73 71.59h87v21.58h-87z"/><path style="fill:#f063a4" d="M42.73 50.01h87v21.58h-87z"/><path style="fill:#fcee20" d="M42.73 93.17h87v27.14h-87z"/><path d="M42.73 120.3h87v4.7a10.32 10.32 0 0 1-10.32 10.32H52.15a9.42 9.42 0 0 1-9.42-9.42v-5.6Z" style="fill:#f89e4f"/><rect x="42.73" y="28.09" width="87" height="106.88" rx="9.54" style="stroke-linejoin:round;stroke:#70327e;fill:none"/><path style="stroke-width:.83px;stroke-dasharray:0 1.65;stroke-linecap:round;stroke-linejoin:round;stroke:#70327e;fill:none" d="M86.23 134.78V28.09"/><rect x="52.66" y="38.02" width="67.14" height="67.14" rx="6.16" transform="rotate(90 86.235 71.585)" style="fill:#e4d4e7"/><ellipse cx="71.13" cy="61.52" rx="5.9" ry="13.61" style="fill:#70327e"/><ellipse cx="101.34" cy="61.52" rx="5.9" ry="13.61" style="fill:#70327e"/><path d="M101.34 82.5a15.11 15.11 0 0 1-30.21 0" style="stroke-miterlimit:10;stroke-linecap:round;stroke:#70327e;fill:none"/><path d="M58.82 105.16h54.83l4.77-2.26 1.38-3.9V44.17s-23.54 39.01-60.98 60.99Z" style="opacity:.5;fill:#fff"/><rect x="52.66" y="38.02" width="67.14" height="67.14" rx="6.16" transform="rotate(90 86.235 71.585)" style="stroke-linejoin:round;stroke:#70327e;fill:none"/><path style="stroke:#fff;stroke-miterlimit:10;stroke-linecap:round;fill:none" d="M116.92 52.78V77.4M116.92 83.97v3.8M61.04 40.75h15.04M81.39 40.75h4.84"/><path style="stroke-width:.83px;stroke-dasharray:0 1.65;stroke-linecap:round;stroke-linejoin:round;stroke:#70327e;fill:none" d="M42.73 50.01h9.93M119.8 50.01h9.93M42.73 71.59h9.93M119.8 71.59h9.93M42.73 93.17h9.93M119.8 93.17h9.93M42.73 120.3h18.63M110.88 120.3h18.85"/><rect x="52.66" y="112.04" width="67.14" height="16.28" rx="3.96" style="fill:#855191"/><g style="opacity:.15;mix-blend-mode:multiply"><text transform="translate(58.1 125.88)" style="font-size:11.04px;font-family:DSEG7ClassicMini-Bold,DSEG7 Classic Mini;font-weight:700;letter-spacing:.08em">5<tspan x="9.88" y="0" style="letter-spacing:.11em">4</tspan><tspan x="20.06" y="0" style="letter-spacing:.06em">9</tspan><tspan x="29.73" y="0" style="letter-spacing:-.13em">3</tspan><tspan x="37.29" y="0" style="letter-spacing:.11em">1</tspan><tspan x="47.47" y="0" style="letter-spacing:.1em">7</tspan></text></g><text transform="translate(57.89 125.68)" style="font-size:11.04px;font-family:DSEG7ClassicMini-Bold,DSEG7 Classic Mini;font-weight:700;letter-spacing:.08em;fill:#fff">5<tspan x="9.88" y="0" style="letter-spacing:.11em">4</tspan><tspan x="20.06" y="0" style="letter-spacing:.06em">9</tspan><tspan x="29.73" y="0" style="letter-spacing:-.13em">3</tspan><tspan x="37.29" y="0" style="letter-spacing:.11em">1</tspan><tspan x="47.47" y="0" style="letter-spacing:.1em">7</tspan></text><path d="M56 127.85s38.42-1.62 61.64-15.26c1.09.18 2.06 1.21 2.18 4.35s-.19 8.8-.19 8.8l-2.83 2.6-57.06.12Z" style="opacity:.15;fill:#fff"/><rect x="52.66" y="112.04" width="67.14" height="16.28" rx="3.96" style="stroke-linejoin:round;stroke:#70327e;fill:none"/></g></svg>