<svg xmlns="http://www.w3.org/2000/svg" viewBox="0 0 150 150"><defs><style>.cls-1{isolation:isolate;}.cls-12,.cls-14,.cls-16,.cls-2,.cls-5{fill:none;}.cls-12,.cls-14,.cls-2,.cls-3{stroke:#70327e;}.cls-12,.cls-2,.cls-3,.cls-4,.cls-5{stroke-linejoin:round;}.cls-3{fill:#f05124;}.cls-4{fill:#c5c7c9;}.cls-4,.cls-5{stroke:#929497;}.cls-12,.cls-14,.cls-16,.cls-5{stroke-linecap:round;}.cls-5{stroke-width:2px;}.cls-6{fill:#70327e;}.cls-7{fill:#9253a1;}.cls-8{fill:#2dc5f4;}.cls-9{fill:#f063a4;}.cls-10{fill:#fcee20;}.cls-11{fill:#f89e4f;}.cls-12{stroke-width:0.83px;stroke-dasharray:0 1.65;}.cls-13{fill:#e4d4e7;}.cls-14,.cls-16{stroke-miterlimit:10;}.cls-15,.cls-24,.cls-25{fill:#fff;}.cls-15{opacity:0.5;}.cls-16{stroke:#fff;}.cls-17{fill:#855191;}.cls-18{mix-blend-mode:multiply;}.cls-18,.cls-25{opacity:0.15;}.cls-19,.cls-24{font-size:11.04px;font-family:DSEG7ClassicMini-Bold, DSEG7 Classic Mini;font-weight:700;letter-spacing:0.08em;}.cls-20{letter-spacing:0.11em;}.cls-21{letter-spacing:0.06em;}.cls-22{letter-spacing:-0.13em;}.cls-23{letter-spacing:0.1em;}</style></defs><g class="cls-1"><g id="Layer_1" data-name="Layer 1"><line class="cls-2" x1="66.12" y1="29.38" x2="66.12" y2="20.03"/><path class="cls-3" d="M66.12,5.69h0A7.89,7.89,0,0,1,74,13.58V20a0,0,0,0,1,0,0H58.23a0,0,0,0,1,0,0V13.58A7.89,7.89,0,0,1,66.12,5.69Z"/><line class="cls-2" x1="58.23" y1="13.58" x2="74.01" y2="13.58"/><line class="cls-2" x1="106.35" y1="29.38" x2="106.35" y2="20.03"/><path class="cls-3" d="M106.35,5.69h0a7.89,7.89,0,0,1,7.89,7.89V20a0,0,0,0,1,0,0H98.46a0,0,0,0,1,0,0V13.58A7.89,7.89,0,0,1,106.35,5.69Z"/><line class="cls-2" x1="98.46" y1="13.58" x2="114.24" y2="13.58"/><path class="cls-4" d="M86.22,150a5,5,0,0,1-5-5V136.8a5,5,0,0,1,10,0V145A5,5,0,0,1,86.22,150Z"/><line class="cls-5" x1="78.8" y1="135.3" x2="78.8" y2="140.66"/><line class="cls-5" x1="93.63" y1="135.3" x2="93.63" y2="140.66"/><path class="cls-4" d="M111.47,150a5,5,0,0,1-5-5V136.8a5,5,0,0,1,10,0V145A5,5,0,0,1,111.47,150Z"/><line class="cls-5" x1="104.05" y1="135.3" x2="104.05" y2="140.66"/><line class="cls-5" x1="118.88" y1="135.3" x2="118.88" y2="140.66"/><path class="cls-4" d="M61,150a5,5,0,0,1-5-5V136.8a5,5,0,0,1,10,0V145A5,5,0,0,1,61,150Z"/><line class="cls-5" x1="53.55" y1="135.3" x2="53.55" y2="140.66"/><line class="cls-5" x1="68.38" y1="135.3" x2="68.38" y2="140.66"/><rect class="cls-3" x="34.22" y="82.24" width="17.02" height="21.86" rx="6.28"/><rect class="cls-3" x="121.22" y="82.24" width="17.02" height="21.86" rx="6.28"/><polyline class="cls-2" points="34.22 93.17 29.17 93.17 29.17 72.54"/><polyline class="cls-2" points="138.25 93.17 143.3 93.17 143.3 72.54"/><circle class="cls-6" cx="143.3" cy="72.54" r="4.99"/><circle class="cls-6" cx="29.17" cy="72.54" r="4.99"/><path class="cls-7" d="M52.22,28.09h68.21a9.31,9.31,0,0,1,9.31,9.31V50a0,0,0,0,1,0,0h-87a0,0,0,0,1,0,0V37.57A9.49,9.49,0,0,1,52.22,28.09Z"/><rect class="cls-8" x="42.73" y="71.59" width="87" height="21.58"/><rect class="cls-9" x="42.73" y="50.01" width="87" height="21.58"/><rect class="cls-10" x="42.73" y="93.17" width="87" height="27.14"/><path class="cls-11" d="M42.73,120.3h87a0,0,0,0,1,0,0V125a10.32,10.32,0,0,1-10.32,10.32H52.15a9.42,9.42,0,0,1-9.42-9.42V120.3A0,0,0,0,1,42.73,120.3Z"/><rect class="cls-2" x="42.73" y="28.09" width="87" height="106.88" rx="9.54"/><line class="cls-12" x1="86.23" y1="134.78" x2="86.23" y2="28.09"/><rect class="cls-13" x="52.66" y="38.02" width="67.14" height="67.14" rx="6.16" transform="translate(157.82 -14.65) rotate(90)"/><ellipse class="cls-6" cx="71.13" cy="61.52" rx="5.9" ry="13.61"/><ellipse class="cls-6" cx="101.34" cy="61.52" rx="5.9" ry="13.61"/><path class="cls-14" d="M101.34,82.5a15.11,15.11,0,0,1-30.21,0"/><path class="cls-15" d="M58.82,105.16h54.83l4.77-2.26L119.8,99V44.17S96.26,83.18,58.82,105.16Z"/><rect class="cls-2" x="52.66" y="38.02" width="67.14" height="67.14" rx="6.16" transform="translate(157.82 -14.65) rotate(90)"/><line class="cls-16" x1="116.92" y1="52.78" x2="116.92" y2="77.4"/><line class="cls-16" x1="116.92" y1="83.97" x2="116.92" y2="87.77"/><line class="cls-16" x1="61.04" y1="40.75" x2="76.08" y2="40.75"/><line class="cls-16" x1="81.39" y1="40.75" x2="86.23" y2="40.75"/><line class="cls-12" x1="42.73" y1="50.01" x2="52.66" y2="50.01"/><line class="cls-12" x1="119.8" y1="50.01" x2="129.73" y2="50.01"/><line class="cls-12" x1="42.73" y1="71.59" x2="52.66" y2="71.59"/><line class="cls-12" x1="119.8" y1="71.59" x2="129.73" y2="71.59"/><line class="cls-12" x1="42.73" y1="93.17" x2="52.66" y2="93.17"/><line class="cls-12" x1="119.8" y1="93.17" x2="129.73" y2="93.17"/><line class="cls-12" x1="42.73" y1="120.3" x2="61.36" y2="120.3"/><line class="cls-12" x1="110.88" y1="120.3" x2="129.73" y2="120.3"/><rect class="cls-17" x="52.66" y="112.04" width="67.14" height="16.28" rx="3.96"/><g class="cls-18"><text class="cls-19" transform="translate(58.1 125.88)">5<tspan class="cls-20" x="9.88" y="0">4</tspan><tspan class="cls-21" x="20.06" y="0">9</tspan><tspan class="cls-22" x="29.73" y="0">3</tspan><tspan class="cls-20" x="37.29" y="0">1</tspan><tspan class="cls-23" x="47.47" y="0">7</tspan></text></g><text class="cls-24" transform="translate(57.89 125.68)">5<tspan class="cls-20" x="9.88" y="0">4</tspan><tspan class="cls-21" x="20.06" y="0">9</tspan><tspan class="cls-22" x="29.73" y="0">3</tspan><tspan class="cls-20" x="37.29" y="0">1</tspan><tspan class="cls-23" x="47.47" y="0">7</tspan></text><path class="cls-25" d="M56,127.85s38.42-1.62,61.64-15.26c1.09.18,2.06,1.21,2.18,4.35s-.19,8.8-.19,8.8l-2.83,2.6-57.06.12Z"/><rect class="cls-2" x="52.66" y="112.04" width="67.14" height="16.28" rx="3.96"/></g></g></svg>