<svg xmlns="http://www.w3.org/2000/svg" viewBox="0 0 150 150"><g data-name="Layer 1" style="isolation:isolate"><path style="stroke-linejoin:round;stroke:#70327e;fill:none" d="M47.74 29.38v-9.35"/><path d="M47.74 5.68a7.89 7.89 0 0 1 7.89 7.89V20H39.85v-6.43a7.89 7.89 0 0 1 7.89-7.89Z" style="fill:#f05124;stroke-linejoin:round;stroke:#70327e"/><path style="stroke-linejoin:round;stroke:#70327e;fill:none" d="M39.85 13.57h15.78M87.98 29.38v-9.35"/><path d="M88 5.68a7.89 7.89 0 0 1 7.89 7.89V20h-15.8v-6.43A7.89 7.89 0 0 1 88 5.68Z" style="fill:#f05124;stroke-linejoin:round;stroke:#70327e"/><path style="stroke-linejoin:round;stroke:#70327e;fill:none" d="M80.09 13.57h15.78"/><circle cx="93.23" cy="141.56" r="8.44" style="fill:#c5c7c9;stroke:#929497;stroke-linejoin:round"/><path d="M91.53 134.78v6.62a1.52 1.52 0 0 0 2.26 1.33l13.79-7.68" style="fill:#c5c7c9;stroke:#929497;stroke-linejoin:round"/><circle cx="60.8" cy="141.56" r="8.44" style="fill:#c5c7c9;stroke:#929497;stroke-linejoin:round"/><path d="M59.1 134.78v6.62a1.53 1.53 0 0 0 2.27 1.33l13.79-7.68" style="fill:#c5c7c9;stroke:#929497;stroke-linejoin:round"/><circle cx="28.12" cy="141.56" r="8.44" style="fill:#c5c7c9;stroke:#929497;stroke-linejoin:round"/><path d="M26.42 134.78v6.62a1.53 1.53 0 0 0 2.27 1.33l13.79-7.68" style="fill:#c5c7c9;stroke:#929497;stroke-linejoin:round"/><path d="M11.66 120.3h103.49v6.22a8.26 8.26 0 0 1-8.26 8.26H20.6a8.94 8.94 0 0 1-8.94-8.94v-5.54Z" style="fill:#f89e4f"/><path style="fill:#fcee20" d="M15.93 93.17h96.86l2.36 27.13H12.37l3.56-27.13z"/><path style="fill:#2dc5f4" d="M19.12 71.59h91.84l1.83 21.58H15.93l3.19-21.58z"/><path style="fill:#f063a4" d="M22.12 50.01h87.01l1.83 21.58H19.12l3-21.58z"/><path d="M33.56 28.43h63.91A11.51 11.51 0 0 1 109 39.94V50H22.12l1.44-11.58a10 10 0 0 1 10-9.99Z" style="fill:#9253a1"/><path d="M89.12 135H21.2a9.54 9.54 0 0 1-9.54-9.54l12.18-87.83a9.55 9.55 0 0 1 9.54-9.55h55.74" style="stroke-linejoin:round;stroke:#70327e;fill:none"/><path d="M106 135H55.19a9.54 9.54 0 0 1-9.51-8.73l-7.44-87.8a9.54 9.54 0 0 1 9.5-10.35h50.77a9.54 9.54 0 0 1 9.5 8.74l7.45 87.8A9.54 9.54 0 0 1 106 135Z" style="stroke-linejoin:round;stroke:#70327e;fill:none"/><path style="stroke-width:.83px;stroke-dasharray:0 1.65;stroke-linecap:round;stroke-linejoin:round;stroke:#70327e;fill:none" d="m82.89 134.78-9.23-106.7"/><path d="m54.52 99-5.7-54.83A5.45 5.45 0 0 1 54.34 38h38.93a7 7 0 0 1 6.8 6.16L105.76 99a5.44 5.44 0 0 1-5.51 6.16H61.31A7 7 0 0 1 54.52 99Z" style="fill:#e4d4e7"/><ellipse cx="64.72" cy="61.51" rx="4.48" ry="13.69" transform="rotate(-6.64 64.752 61.526)" style="fill:#70327e"/><ellipse cx="87.77" cy="61.51" rx="4.48" ry="13.69" transform="rotate(-6.64 87.84 61.569)" style="fill:#70327e"/><path d="M90 82.5c.87 8.34-3.59 15.1-10 15.1s-12.23-6.76-13.1-15.1" style="stroke-miterlimit:10;stroke-linecap:round;stroke:#70327e;fill:none"/><path d="M59.86 105.16h41.84l3.41-2.27.65-3.89-5.69-54.83s-13.92 39.01-40.21 60.99Z" style="opacity:.5;fill:#fff"/><path d="m54.52 99-5.7-54.83A5.45 5.45 0 0 1 54.34 38h38.93a7 7 0 0 1 6.8 6.16L105.76 99a5.44 5.44 0 0 1-5.51 6.16H61.31A7 7 0 0 1 54.52 99Z" style="stroke-linejoin:round;stroke:#70327e;fill:none"/><path style="stroke:#fff;stroke-miterlimit:10;stroke-linecap:round;fill:none" d="m98.76 52.78 2.56 24.62M102 83.97l.4 3.8M54.86 40.75h11.48M70.4 40.75h3.69"/><path style="stroke-width:.83px;stroke-dasharray:0 1.65;stroke-linecap:round;stroke-linejoin:round;stroke:#70327e;fill:none" d="M22.12 50.01h27.07M100.65 50.01h8.48M19.12 71.65h31.85M102.86 71.59h8.1M15.93 93.17h36.85M12.37 120.3h102.78M105.18 93.17h7.61"/><rect x="20.82" y="82.24" width="17.02" height="21.86" rx="6.28" style="fill:#f05124;stroke-linejoin:round;stroke:#70327e"/><path style="stroke-linecap:round;stroke-linejoin:round;stroke:#70327e;fill:none" d="M29.33 93.17V72.54"/><circle cx="29.33" cy="72.54" r="4.99" style="fill:#70327e"/><path d="M104.48 128.32H61.75a4.65 4.65 0 0 1-4.61-4l-.88-8.32a3.61 3.61 0 0 1 3.74-4h42.73a4.64 4.64 0 0 1 4.61 4l.87 8.36a3.61 3.61 0 0 1-3.73 3.96Z" style="fill:#855191"/><g style="opacity:.15;mix-blend-mode:multiply"><text transform="matrix(.76 0 .1 .99 61.12 125.97)" style="font-size:11.1px;font-family:DSEG7ClassicMini-Bold,DSEG7 Classic Mini;font-weight:700;letter-spacing:.1em">5<tspan x="10.14" y="0" style="letter-spacing:.12em">4</tspan><tspan x="20.55" y="0" style="letter-spacing:.08em">9</tspan><tspan x="30.48" y="0" style="letter-spacing:-.1em">3</tspan><tspan x="38.39" y="0" style="letter-spacing:.12em">1</tspan><tspan x="48.8" y="0" style="letter-spacing:.1em">7</tspan></text></g><text transform="matrix(.76 0 .1 .99 60.92 125.76)" style="font-size:11.1px;font-family:DSEG7ClassicMini-Bold,DSEG7 Classic Mini;font-weight:700;letter-spacing:.1em;fill:#fff">5<tspan x="10.14" y="0" style="letter-spacing:.12em">4</tspan><tspan x="20.55" y="0" style="letter-spacing:.08em">9</tspan><tspan x="30.48" y="0" style="letter-spacing:-.1em">3</tspan><tspan x="38.39" y="0" style="letter-spacing:.12em">1</tspan><tspan x="48.8" y="0" style="letter-spacing:.1em">7</tspan></text><path d="M60 127.85s29.08-1.63 45.33-15.26c.85.18 1.69 1.21 2.11 4.35s.78 8.8.78 8.8l-1.88 2.6-43.34.12Z" style="opacity:.15;fill:#fff"/><path d="M104.48 128.32H61.75a4.65 4.65 0 0 1-4.61-4l-.88-8.32a3.61 3.61 0 0 1 3.74-4h42.73a4.64 4.64 0 0 1 4.61 4l.87 8.36a3.61 3.61 0 0 1-3.73 3.96Z" style="stroke-linejoin:round;stroke:#70327e;fill:none"/></g></svg>