<svg xmlns="http://www.w3.org/2000/svg" viewBox="0 0 150 150"><defs><filter id="a" filterUnits="userSpaceOnUse"><feOffset dx=".21" dy=".21"/><feGaussianBlur result="c"/><feFlood flood-color="#000" flood-opacity=".15"/><feComposite in2="c" operator="in"/><feComposite in="SourceGraphic"/></filter></defs><path style="stroke-linejoin:round;stroke:#70327e;fill:none" d="M66.12 29.38v-9.35"/><path d="M66.12 5.69c4.35 0 7.89 3.54 7.89 7.89v6.45H58.23v-6.45c0-4.35 3.54-7.89 7.89-7.89Z" style="fill:#f05124;stroke-linejoin:round;stroke:#70327e"/><path style="stroke-linejoin:round;stroke:#70327e;fill:none" d="M58.23 13.58h15.78M106.35 29.38v-9.35"/><path d="M106.35 5.69c4.35 0 7.89 3.54 7.89 7.89v6.45H98.46v-6.45c0-4.35 3.54-7.89 7.89-7.89Z" style="fill:#f05124;stroke-linejoin:round;stroke:#70327e"/><path style="stroke-linejoin:round;stroke:#70327e;fill:none" d="M98.46 13.58h15.78"/><path d="M86.22 150c-2.77 0-5.01-2.24-5.01-5.01v-8.19c0-2.77 2.24-5.01 5.01-5.01s5.01 2.24 5.01 5.01v8.19c0 2.77-2.24 5.01-5.01 5.01Z" style="fill:#c5c7c9;stroke:#929497;stroke-linejoin:round"/><path style="stroke:#929497;stroke-width:2px;stroke-linecap:round;stroke-linejoin:round;fill:none" d="M78.8 135.3v5.36M93.63 135.3v5.36"/><path d="M111.47 150c-2.77 0-5.01-2.24-5.01-5.01v-8.19c0-2.77 2.24-5.01 5.01-5.01s5.01 2.24 5.01 5.01v8.19c0 2.77-2.24 5.01-5.01 5.01Z" style="fill:#c5c7c9;stroke:#929497;stroke-linejoin:round"/><path style="stroke:#929497;stroke-width:2px;stroke-linecap:round;stroke-linejoin:round;fill:none" d="M104.05 135.3v5.36M118.88 135.3v5.36"/><path d="M60.97 150c-2.77 0-5.01-2.24-5.01-5.01v-8.19c0-2.77 2.24-5.01 5.01-5.01s5.01 2.24 5.01 5.01v8.19c0 2.77-2.24 5.01-5.01 5.01Z" style="fill:#c5c7c9;stroke:#929497;stroke-linejoin:round"/><path style="stroke:#929497;stroke-width:2px;stroke-linecap:round;stroke-linejoin:round;fill:none" d="M53.55 135.3v5.36M68.38 135.3v5.36"/><rect x="34.22" y="82.24" width="17.02" height="21.86" rx="6.28" ry="6.28" style="fill:#f05124;stroke-linejoin:round;stroke:#70327e"/><rect x="121.22" y="82.24" width="17.02" height="21.86" rx="6.28" ry="6.28" style="fill:#f05124;stroke-linejoin:round;stroke:#70327e"/><path style="stroke-linejoin:round;stroke:#70327e;fill:none" d="M34.22 93.17h-5.05V72.54M138.25 93.17h5.05V72.54"/><circle cx="143.3" cy="72.54" r="4.99" style="fill:#70327e"/><circle cx="29.17" cy="72.54" r="4.99" style="fill:#70327e"/><path d="M52.22 28.09h68.21c5.14 0 9.31 4.17 9.31 9.31v12.62H42.73V37.58c0-5.24 4.25-9.49 9.49-9.49Z" style="fill:#9253a1"/><path style="fill:#2dc5f4" d="M42.73 71.59h87v21.58h-87z"/><path style="fill:#f063a4" d="M42.73 50.01h87v21.58h-87z"/><path style="fill:#fcee20" d="M42.73 93.17h87v27.14h-87z"/><path d="M42.73 120.3h87v4.68c0 5.69-4.62 10.32-10.32 10.32H52.15c-5.2 0-9.42-4.22-9.42-9.42v-5.58Z" style="fill:#f89e4f"/><rect x="42.73" y="28.09" width="87" height="106.88" rx="9.54" ry="9.54" style="stroke-linejoin:round;stroke:#70327e;fill:none"/><path style="stroke-linecap:round;stroke-dasharray:0 0 0 1.65;stroke-width:.83px;stroke-linejoin:round;stroke:#70327e;fill:none" d="M86.23 134.78V28.09"/><rect x="52.66" y="38.02" width="67.14" height="67.14" rx="6.16" ry="6.16" transform="rotate(90 86.235 71.585)" style="fill:#e4d4e7"/><ellipse cx="71.13" cy="61.52" rx="5.9" ry="13.61" style="fill:#70327e"/><ellipse cx="101.34" cy="61.52" rx="5.9" ry="13.61" style="fill:#70327e"/><path d="M101.34 82.5c0 8.34-6.76 15.1-15.1 15.1s-15.1-6.76-15.1-15.1" style="stroke-miterlimit:10;stroke-linecap:round;stroke:#70327e;fill:none"/><path d="M58.82 105.16h54.83l4.77-2.26 1.39-3.89V44.17s-23.54 39-60.99 60.99Z" style="opacity:.5;fill:#fff"/><rect x="52.66" y="38.02" width="67.14" height="67.14" rx="6.16" ry="6.16" transform="rotate(90 86.235 71.585)" style="stroke-linejoin:round;stroke:#70327e;fill:none"/><path style="stroke:#fff;stroke-miterlimit:10;stroke-linecap:round;fill:none" d="M116.92 52.78V77.4M116.92 83.97v3.8M61.04 40.75h15.04M81.39 40.75h4.84"/><path style="stroke-linecap:round;stroke-dasharray:0 0 0 1.65;stroke-width:.83px;stroke-linejoin:round;stroke:#70327e;fill:none" d="M42.73 50.01h9.93M119.8 50.01h9.93M42.73 71.59h9.93M119.8 71.59h9.93M42.73 93.17h9.93M119.8 93.17h9.93M42.73 120.3h18.63M110.88 120.3h18.85"/><rect x="52.66" y="112.04" width="67.14" height="16.28" rx="3.96" ry="3.96" style="fill:#855191"/><g style="filter:url(#a)"><path d="m59.33 119.67-.14.14h-.2v-4.01l.34-.34 1.03 1.02v2.17l-1.03 1.02Zm.49-4.69.33-.34h4.5l.33.34-1.02 1.03h-3.14l-1.02-1.03Zm4.49 4.49.67.68-.67.68h-3.82l-.67-.68.67-.68h3.82Zm.67 5.86-.33.34h-4.5l-.33-.34 1.02-1.03h3.14l1.02 1.03Zm.49-4.69.14-.14h.2v4.02l-.34.33-1.03-1.02v-2.17l1.03-1.02ZM69.21 119.67l-.14.14h-.2v-4.01l.34-.34 1.03 1.02v2.17l-1.03 1.02Zm4.98-.2.67.68-.67.68h-3.82l-.67-.68.67-.68h3.82Zm1.16-4.01.34.33v4.02h-.2l-.14-.14-1.03-1.02v-2.17l1.03-1.02Zm0 5.18.14-.14h.2v4.02l-.34.33-1.03-1.02v-2.17l1.03-1.02ZM79.39 119.67l-.14.14h-.2v-4.01l.34-.34 1.03 1.02v2.17l-1.03 1.02Zm.49-4.69.33-.34h4.5l.33.34-1.02 1.03h-3.14l-1.02-1.03Zm4.49 4.49.67.68-.67.68h-3.82l-.67-.68.67-.68h3.82Zm.67 5.86-.33.34h-4.5l-.33-.34 1.02-1.03h3.14l1.02 1.03Zm.49-9.87.34.33v4.02h-.2l-.14-.14-1.03-1.02v-2.17l1.03-1.02Zm0 5.18.14-.14h.2v4.02l-.34.33-1.03-1.02v-2.17l1.03-1.02ZM89.54 114.98l.33-.34h4.5l.33.34-1.02 1.03h-3.14l-1.02-1.03Zm4.49 4.49.67.68-.67.68h-3.82l-.67-.68.67-.68h3.82Zm.67 5.86-.33.34h-4.5l-.33-.34 1.02-1.03h3.14l1.02 1.03Zm.49-9.87.34.33v4.02h-.2l-.14-.14-1.03-1.02v-2.17l1.03-1.02Zm0 5.18.14-.14h.2v4.02l-.34.33-1.03-1.02v-2.17l1.03-1.02ZM102.76 115.46l.34.33v4.02h-.2l-.14-.14-1.03-1.02v-2.17l1.03-1.02Zm0 5.18.14-.14h.2v4.02l-.34.33-1.03-1.02v-2.17l1.03-1.02ZM106.8 119.67l-.14.14h-.2v-4.01l.34-.34 1.03 1.02v2.17l-1.03 1.02Zm.49-4.69.33-.34h4.5l.33.34-1.02 1.03h-3.14l-1.02-1.03Zm5.65.49.34.33v4.02h-.2l-.14-.14-1.03-1.02v-2.17l1.03-1.02Zm0 5.18.14-.14h.2v4.02l-.34.33-1.03-1.02v-2.17l1.03-1.02Z" style="fill:#fff"/></g><path d="M55.99 127.85s38.42-1.63 61.65-15.26c1.09.18 2.05 1.21 2.17 4.34s-.18 8.81-.18 8.81l-2.84 2.59-57.06.12-3.74-.6Z" style="opacity:.15;fill:#fff"/><rect x="52.66" y="112.04" width="67.14" height="16.28" rx="3.96" ry="3.96" style="stroke-linejoin:round;stroke:#70327e;fill:none"/></svg>