<?xml version="1.0" encoding="UTF-8"?><svg id="a" xmlns="http://www.w3.org/2000/svg" xmlns:xlink="http://www.w3.org/1999/xlink" viewBox="0 0 150 150"><defs><style>.d,.e,.f,.g,.h{fill:none;}.d,.e,.f,.i{stroke:#70327e;}.d,.e,.h,.i,.j{stroke-linejoin:round;}.k{fill:#f89e4f;}.l{fill:#f063a4;}.m{fill:#e4d4e7;}.n,.o,.p{fill:#fff;}.q{fill:#fcee20;}.r{fill:#855191;}.s{fill:#9253a1;}.t{fill:#70327e;}.u{fill:#2dc5f4;}.v{filter:url(#b);}.e{stroke-dasharray:0 0 0 1.65;stroke-width:.83px;}.e,.f,.g,.h{stroke-linecap:round;}.f,.g{stroke-miterlimit:10;}.g{stroke:#fff;}.h{stroke-width:2px;}.h,.j{stroke:#929497;}.o{opacity:.15;}.i{fill:#f05124;}.j{fill:#c5c7c9;}.p{opacity:.5;}</style><filter id="b" filterUnits="userSpaceOnUse"><feOffset dx=".21" dy=".21"/><feGaussianBlur result="c" stdDeviation="0"/><feFlood flood-color="#000" flood-opacity=".15"/><feComposite in2="c" operator="in"/><feComposite in="SourceGraphic"/></filter></defs><g><g><line class="d" x1="66.12" y1="29.38" x2="66.12" y2="20.03"/><path class="i" d="M66.12,5.69h0c4.35,0,7.89,3.54,7.89,7.89v6.45h-15.78v-6.45c0-4.35,3.54-7.89,7.89-7.89Z"/><line class="d" x1="58.23" y1="13.58" x2="74.01" y2="13.58"/></g><g><line class="d" x1="106.35" y1="29.38" x2="106.35" y2="20.03"/><path class="i" d="M106.35,5.69h0c4.35,0,7.89,3.54,7.89,7.89v6.45h-15.78v-6.45c0-4.35,3.54-7.89,7.89-7.89Z"/><line class="d" x1="98.46" y1="13.58" x2="114.24" y2="13.58"/></g></g><g><path class="j" d="M86.22,150c-2.77,0-5.01-2.24-5.01-5.01v-8.19c0-2.77,2.24-5.01,5.01-5.01s5.01,2.24,5.01,5.01v8.19c0,2.77-2.24,5.01-5.01,5.01Z"/><line class="h" x1="78.8" y1="135.3" x2="78.8" y2="140.66"/><line class="h" x1="93.63" y1="135.3" x2="93.63" y2="140.66"/></g><g><path class="j" d="M111.47,150c-2.77,0-5.01-2.24-5.01-5.01v-8.19c0-2.77,2.24-5.01,5.01-5.01s5.01,2.24,5.01,5.01v8.19c0,2.77-2.24,5.01-5.01,5.01Z"/><line class="h" x1="104.05" y1="135.3" x2="104.05" y2="140.66"/><line class="h" x1="118.88" y1="135.3" x2="118.88" y2="140.66"/></g><g><path class="j" d="M60.97,150c-2.77,0-5.01-2.24-5.01-5.01v-8.19c0-2.77,2.24-5.01,5.01-5.01s5.01,2.24,5.01,5.01v8.19c0,2.77-2.24,5.01-5.01,5.01Z"/><line class="h" x1="53.55" y1="135.3" x2="53.55" y2="140.66"/><line class="h" x1="68.38" y1="135.3" x2="68.38" y2="140.66"/></g><rect class="i" x="34.22" y="82.24" width="17.02" height="21.86" rx="6.28" ry="6.28"/><rect class="i" x="121.22" y="82.24" width="17.02" height="21.86" rx="6.28" ry="6.28"/><polyline class="d" points="34.22 93.17 29.17 93.17 29.17 72.54"/><polyline class="d" points="138.25 93.17 143.3 93.17 143.3 72.54"/><circle class="t" cx="143.3" cy="72.54" r="4.99"/><circle class="t" cx="29.17" cy="72.54" r="4.99"/><g><path class="s" d="M52.22,28.09H120.43c5.14,0,9.31,4.17,9.31,9.31v12.62H42.73v-12.44c0-5.24,4.25-9.49,9.49-9.49Z"/><rect class="u" x="42.73" y="71.59" width="87" height="21.58"/><rect class="l" x="42.73" y="50.01" width="87" height="21.58"/><rect class="q" x="42.73" y="93.17" width="87" height="27.14"/><path class="k" d="M42.73,120.3h87v4.68c0,5.69-4.62,10.32-10.32,10.32H52.15c-5.2,0-9.42-4.22-9.42-9.42v-5.58h0Z"/></g><rect class="d" x="42.73" y="28.09" width="87" height="106.88" rx="9.54" ry="9.54"/><line class="e" x1="86.23" y1="134.78" x2="86.23" y2="28.09"/><rect class="m" x="52.66" y="38.02" width="67.14" height="67.14" rx="6.16" ry="6.16" transform="translate(157.82 -14.65) rotate(90)"/><g><ellipse class="t" cx="71.13" cy="61.52" rx="5.9" ry="13.61"/><ellipse class="t" cx="101.34" cy="61.52" rx="5.9" ry="13.61"/></g><path class="f" d="M101.34,82.5c0,8.34-6.76,15.1-15.1,15.1s-15.1-6.76-15.1-15.1"/><path class="p" d="M58.82,105.16h54.83l4.77-2.26,1.39-3.89V44.17s-23.54,39-60.99,60.99Z"/><rect class="d" x="52.66" y="38.02" width="67.14" height="67.14" rx="6.16" ry="6.16" transform="translate(157.82 -14.65) rotate(90)"/><line class="g" x1="116.92" y1="52.78" x2="116.92" y2="77.4"/><line class="g" x1="116.92" y1="83.97" x2="116.92" y2="87.77"/><line class="g" x1="61.04" y1="40.75" x2="76.08" y2="40.75"/><line class="g" x1="81.39" y1="40.75" x2="86.23" y2="40.75"/><g><line class="e" x1="42.73" y1="50.01" x2="52.66" y2="50.01"/><line class="e" x1="119.8" y1="50.01" x2="129.73" y2="50.01"/></g><g><line class="e" x1="42.73" y1="71.59" x2="52.66" y2="71.59"/><line class="e" x1="119.8" y1="71.59" x2="129.73" y2="71.59"/></g><g><line class="e" x1="42.73" y1="93.17" x2="52.66" y2="93.17"/><line class="e" x1="119.8" y1="93.17" x2="129.73" y2="93.17"/></g><g><line class="e" x1="42.73" y1="120.3" x2="61.36" y2="120.3"/><line class="e" x1="110.88" y1="120.3" x2="129.73" y2="120.3"/></g><g><rect class="r" x="52.66" y="112.04" width="67.14" height="16.28" rx="3.96" ry="3.96"/><g class="v"><path class="n" d="M59.33,119.67l-.14,.14h-.2v-4.01l.34-.34,1.03,1.02v2.17l-1.03,1.02Zm.49-4.69l.33-.34h4.5l.33,.34-1.02,1.03h-3.14l-1.02-1.03Zm4.49,4.49l.67,.68-.67,.68h-3.82l-.67-.68,.67-.68h3.82Zm.67,5.86l-.33,.34h-4.5l-.33-.34,1.02-1.03h3.14l1.02,1.03Zm.49-4.69l.14-.14h.2v4.02l-.34,.33-1.03-1.02v-2.17l1.03-1.02Z"/><path class="n" d="M69.21,119.67l-.14,.14h-.2v-4.01l.34-.34,1.03,1.02v2.17l-1.03,1.02Zm4.98-.2l.67,.68-.67,.68h-3.82l-.67-.68,.67-.68h3.82Zm1.16-4.01l.34,.33v4.02h-.2l-.14-.14-1.03-1.02v-2.17l1.03-1.02Zm0,5.18l.14-.14h.2v4.02l-.34,.33-1.03-1.02v-2.17l1.03-1.02Z"/><path class="n" d="M79.39,119.67l-.14,.14h-.2v-4.01l.34-.34,1.03,1.02v2.17l-1.03,1.02Zm.49-4.69l.33-.34h4.5l.33,.34-1.02,1.03h-3.14l-1.02-1.03Zm4.49,4.49l.67,.68-.67,.68h-3.82l-.67-.68,.67-.68h3.82Zm.67,5.86l-.33,.34h-4.5l-.33-.34,1.02-1.03h3.14l1.02,1.03Zm.49-9.87l.34,.33v4.02h-.2l-.14-.14-1.03-1.02v-2.17l1.03-1.02Zm0,5.18l.14-.14h.2v4.02l-.34,.33-1.03-1.02v-2.17l1.03-1.02Z"/><path class="n" d="M89.54,114.98l.33-.34h4.5l.33,.34-1.02,1.03h-3.14l-1.02-1.03Zm4.49,4.49l.67,.68-.67,.68h-3.82l-.67-.68,.67-.68h3.82Zm.67,5.86l-.33,.34h-4.5l-.33-.34,1.02-1.03h3.14l1.02,1.03Zm.49-9.87l.34,.33v4.02h-.2l-.14-.14-1.03-1.02v-2.17l1.03-1.02Zm0,5.18l.14-.14h.2v4.02l-.34,.33-1.03-1.02v-2.17l1.03-1.02Z"/><path class="n" d="M102.76,115.46l.34,.33v4.02h-.2l-.14-.14-1.03-1.02v-2.17l1.03-1.02Zm0,5.18l.14-.14h.2v4.02l-.34,.33-1.03-1.02v-2.17l1.03-1.02Z"/><path class="n" d="M106.8,119.67l-.14,.14h-.2v-4.01l.34-.34,1.03,1.02v2.17l-1.03,1.02Zm.49-4.69l.33-.34h4.5l.33,.34-1.02,1.03h-3.14l-1.02-1.03Zm5.65,.49l.34,.33v4.02h-.2l-.14-.14-1.03-1.02v-2.17l1.03-1.02Zm0,5.18l.14-.14h.2v4.02l-.34,.33-1.03-1.02v-2.17l1.03-1.02Z"/></g><path class="o" d="M55.99,127.85s38.42-1.63,61.65-15.26c1.09,.18,2.05,1.21,2.17,4.34s-.18,8.81-.18,8.81l-2.84,2.59-57.06,.12-3.74-.6Z"/><rect class="d" x="52.66" y="112.04" width="67.14" height="16.28" rx="3.96" ry="3.96"/></g></svg>