<svg data-name="Layer 1" xmlns="http://www.w3.org/2000/svg" viewBox="0 0 150 150"><path d="m91.78 121.31-3.84 14L91 149.5H79.51l5.12-4.3-2.39-9.66a2.65 2.65 0 0 1 .06-1.12l3.09-11.28M57.3 120.81l4 14.47-3.08 14.22h11.5l-5.12-4.3 2.4-9.66a3 3 0 0 0-.06-1.12l-3.1-11.28" style="stroke-linejoin:round;fill:#c5c7c9;stroke:#929497"/><path d="M64.25 92.33a39.91 39.91 0 0 0 1.32-10.13c0-9.85-6.34-12.59-8.43-12.59a8.28 8.28 0 0 0 5.71-3.43 19 19 0 0 0 2.7-10.36C65.17 42.92 59 36.89 59 29.35c0-6.27 9.39-6.09 9.39-6.09V15.9S51 15.55 51 28.71c0 9.28 6 10.92 6 24.93 0 6.45-3.59 10.8-13.44 10.8v10.34c9.85 0 13.44 4.35 13.44 10.8A35.24 35.24 0 0 1 56 94M54.39 98.87c-1.62 3.78-3.4 6.57-3.4 11.64 0 13.16 17.37 12.81 17.37 12.81V116s-9.39.18-9.39-6.08c0-3.75 1.72-7.38 3.31-11.42M95.75 99.19c1.58 3.62 3.26 6.39 3.26 11.32 0 13.16-17.37 12.81-17.37 12.81V116s9.39.18 9.39-6.08c0-3.75-1.54-7.13-3.13-11.17M94.06 94.45a42.64 42.64 0 0 1-1-8.87c0-6.45 3.59-10.8 13.44-10.8V64.44c-9.85 0-13.44-4.35-13.44-10.8 0-14 6-15.65 6-24.93C99 15.55 81.64 15.9 81.64 15.9v7.36S91 23.08 91 29.35c0 7.54-6.22 13.56-6.58 26.47 0 0 .54 7.63 2.7 10.37a8.37 8.37 0 0 0 5.71 3.42c-2.09 0-8.43 2.74-8.43 12.59a40.28 40.28 0 0 0 1.28 9.8" style="stroke:#a42963;fill:#f063a4;stroke-linejoin:round"/><rect x="62.97" y="55.63" width="9.91" height="15.28" rx="2.13" style="stroke-width:2px;fill:#fff;stroke:#a42963;stroke-linejoin:round"/><ellipse cx="67.93" cy="63.27" rx="1.9" ry="4.23" style="fill:#a42963"/><path d="M63 63s-9.41-12.23-12.8-6.81" style="stroke-linecap:round;fill:none;stroke-width:2px;stroke:#a42963;stroke-linejoin:round"/><rect x="77.12" y="55.63" width="9.91" height="15.28" rx="2.13" transform="rotate(180 82.07 63.27)" style="stroke-width:2px;fill:#fff;stroke:#a42963;stroke-linejoin:round"/><ellipse cx="82.07" cy="63.27" rx="1.9" ry="4.23" style="fill:#a42963"/><path d="M87 63s9.38-12.26 12.77-6.84" style="stroke-linecap:round;fill:none;stroke-width:2px;stroke:#a42963;stroke-linejoin:round"/><path d="M73 63.93a4.33 4.33 0 0 1 4 0" style="fill:none;stroke-width:2px;stroke:#a42963;stroke-linejoin:round"/><path d="M77.65 74.68a2.65 2.65 0 0 1-5.3 0" style="stroke-linecap:round;fill:none;stroke:#a42963;stroke-linejoin:round"/><path d="M71.89 86a34.24 34.24 0 0 1-6.49 5.39c-3.4 2.16-7.34 3.27-10.61 2.19a7.6 7.6 0 0 1-1.18-.46 7.4 7.4 0 0 1-1.1-.62 10.94 10.94 0 0 1-1-.77 5.23 5.23 0 0 1-.68-.8 8 8 0 0 1-1.09-4.7 28 28 0 0 1 2.4-9.67 12.8 12.8 0 0 0-3-1.15c-1.52-.33-3-.5-3-.5a54.96 54.96 0 0 0-1.22 3.89 28.39 28.39 0 0 0-1 7.41 13.66 13.66 0 0 0 2.37 8 11.19 11.19 0 0 0 1.55 1.68 15.44 15.44 0 0 0 1.7 1.25 12 12 0 0 0 1.85 1 11.4 11.4 0 0 0 2 .69 15.31 15.31 0 0 0 8-.05 22.6 22.6 0 0 0 6.8-3.18 38.57 38.57 0 0 0 6.84-6M74.63 82.87a2.27 2.27 0 0 1 3.56 2.81" style="stroke-linejoin:round;fill:#c5c7c9;stroke:#929497"/><path d="M103.91 74.89c.43 1.21.87 2.63 1.21 3.89a28.39 28.39 0 0 1 1 7.41 13.66 13.66 0 0 1-2.37 8 11.19 11.19 0 0 1-1.55 1.68 15.44 15.44 0 0 1-1.7 1.25 12 12 0 0 1-1.85 1 11.4 11.4 0 0 1-2 .69 15.31 15.31 0 0 1-8-.05 22.6 22.6 0 0 1-6.8-3.18 43.52 43.52 0 0 1-10.1-9.88 2.27 2.27 0 0 1 3.56-2.81 39 39 0 0 0 9.23 8.5c3.4 2.16 7.34 3.27 10.61 2.19a7.6 7.6 0 0 0 1.18-.46 7.4 7.4 0 0 0 1.1-.62 10.94 10.94 0 0 0 1-.77 5.23 5.23 0 0 0 .68-.8 8 8 0 0 0 1.09-4.7 28.57 28.57 0 0 0-2.41-9.67" style="stroke-linejoin:round;fill:#c5c7c9;stroke:#929497"/><path d="M93.05 85.58c0-6.45 3.59-10.8 13.44-10.8M43.51 74.78c9.85 0 13.44 4.35 13.44 10.8" style="fill:none;stroke:#a42963;stroke-linejoin:round"/><ellipse cx="68.37" cy="62.59" rx=".74" ry="1.22" style="fill:#fff"/><ellipse cx="82.56" cy="62.59" rx=".74" ry="1.22" style="fill:#fff"/></svg>