<?xml version="1.0" encoding="UTF-8"?><svg id="a" xmlns="http://www.w3.org/2000/svg" viewBox="0 0 150 150"><defs><style>.b{stroke-linecap:round;}.b,.c,.d,.e{stroke:#a42963;}.b,.c,.d,.e,.f,.g{stroke-linejoin:round;}.b,.d{fill:none;}.h,.c{fill:#fff;}.i{fill:#a42963;}.c,.d{stroke-width:2px;}.e{fill:#f063a4;}.f{fill:#c5c7c9;stroke:#929497;}.g{fill:#c5c6c8;stroke:#909395;}</style></defs><path class="g" d="M30.26,71.5c-1.69-.19-3.32,1.03-3.75,2.91-5.79,25.19-7.01,46.3-7.06,47.19-.12,2.09,1.32,3.84,3.22,3.93,1.89,.08,3.52-1.54,3.64-3.63,.01-.21,1.24-21.32,6.86-45.78,.47-2.04-.64-4.07-2.48-4.54-.14-.04-.28-.06-.42-.08Z"/><path class="g" d="M83.27,125.17c-1.68,.31-3.38-.8-3.95-2.65-7.52-24.73-10.21-45.7-10.32-46.58-.26-2.07,1.05-3.93,2.94-4.14,1.88-.21,3.62,1.3,3.88,3.37,.03,.21,2.72,21.18,10.02,45.19,.61,2-.36,4.1-2.16,4.7-.14,.05-.28,.08-.42,.11Z"/><polyline class="f" points="64.8 122.75 78.34 148.93 88.28 142.9 82.08 141.26 70.77 120.01"/><path class="f" d="M45.17,120.01c2.7,9.03-.69,25.19-.69,25.19l5.28,4.29h-12.93s4.82-17.16,1.06-30.2"/><g><path class="e" d="M41.43,98.45c-1.59,4.04-3.32,7.66-3.32,11.41,0,6.27,9.4,6.09,9.4,6.09v7.36s-17.37,.36-17.37-12.81c0-5.08,1.66-7.92,3.4-11.64,1.2-2.55,1.65-4.86,1.65-4.86,.55-2.25,.91-4.96,.91-8.43,0-6.45-3.6-10.8-13.44-10.8v-10.34c9.85,0,13.44-4.35,13.44-10.8,0-14.01-5.96-15.65-5.96-24.93,0-13.16,17.37-12.81,17.37-12.81v7.36s-9.4-.18-9.4,6.09c0,7.54,6.21,13.56,6.59,26.47,.18,6.09-2.7,10.36-2.7,10.36-1.99,2.55-4.53,3.43-5.71,3.43,2.08,0,8.43,2.75,8.43,12.59,0,3.86-.57,7.26-1.32,10.13,0,0-.69,2.88-1.97,6.12Z"/><path class="e" d="M74.89,99.19c1.52,3.64,3.26,6.39,3.26,11.32,0,13.16-17.37,12.81-17.37,12.81v-7.36s9.4,.18,9.4-6.09c0-3.75-1.46-7.16-3.13-11.16-1.12-2.67-2.22-6.7-2.22-6.7-.7-2.77-1.25-6.12-1.25-9.8,0-9.85,6.34-12.59,8.43-12.59-1.18,0-3.7-.89-5.7-3.42-2.16-2.74-2.71-10.36-2.71-10.36,.37-12.91,6.59-18.94,6.59-26.47,0-6.27-9.4-6.09-9.4-6.09v-7.36s17.37-.36,17.37,12.81c0,9.28-5.96,10.92-5.96,24.93,0,6.45,3.6,10.8,13.44,10.8v10.34c-9.85,0-13.44,4.35-13.44,10.8,0,3.28,.52,6.68,1.02,8.87,0,0,.69,2.36,1.68,4.74Z"/></g><g><rect class="c" x="49.12" y="55.63" width="9.91" height="15.28" rx="2.13" ry="2.13"/><ellipse class="i" cx="55.7" cy="63.27" rx="1.9" ry="4.23"/><path class="d" d="M49.12,63.03s-20.5-9.5-17.93-.35"/></g><rect class="c" x="63.26" y="55.63" width="9.91" height="15.28" rx="2.13" ry="2.13" transform="translate(136.44 126.54) rotate(180)"/><ellipse class="i" cx="69.84" cy="63.27" rx="1.9" ry="4.23"/><path class="d" d="M59.13,63.93c.52-.31,1.23-.51,2.02-.51s1.5,.19,2.02,.51"/><ellipse class="h" cx="56.14" cy="62.59" rx=".74" ry="1.22"/><ellipse class="h" cx="70.33" cy="62.59" rx=".74" ry="1.22"/><path class="b" d="M55.83,75.53s2.97,2.36,6.69,.2"/></svg>