<svg xmlns="http://www.w3.org/2000/svg" viewBox="0 0 150 150"><path d="M108.7 102.71h-.33c-4.95-.2-8.84-4.96-12.25-14.98-2.12-6.24-3.3-12.33-3.35-12.59-.42-2.17 1-4.26 3.17-4.68s4.27 1 4.68 3.17c1.87 9.69 5.7 19.67 8.03 21.02.74-.47 3.82-3.25 7.94-18.14a4 4 0 0 1 4.92-2.79c2.13.59 3.38 2.79 2.79 4.92-4.66 16.83-9.34 24.07-15.6 24.07ZM50.57 71.18c-1.7.08-3.11 1.56-3.23 3.48-1.63 25.8.58 46.82.67 47.71.22 2.08 1.93 3.58 3.81 3.35s3.22-2.09 3-4.17c-.02-.21-2.23-21.24-.64-46.29.13-2.08-1.29-3.91-3.18-4.07a2 2 0 0 0-.43 0Z" style="stroke-linejoin:round;fill:#c5c6c8;stroke:#909395"/><path d="m84.65 120.03.21 29.47h11.5l-5.12-4.3-.03-24.91m-25.23-.26-.17 25.18 1.72 4.29H57.44l1.96-4.3.02-24.91" style="stroke-linejoin:round;fill:#c5c7c9;stroke:#929497"/><path d="M62.28 98.45c-1.59 4.04-3.32 7.66-3.32 11.41 0 6.27 9.4 6.09 9.4 6.09v7.36s-17.37.36-17.37-12.81c0-5.08 1.66-7.92 3.4-11.64 1.2-2.55 1.65-4.86 1.65-4.86.55-2.25.91-4.96.91-8.43 0-6.45-3.6-10.8-13.44-10.8V64.43c9.85 0 13.44-4.35 13.44-10.8 0-14.01-5.96-15.65-5.96-24.93 0-13.16 17.37-12.81 17.37-12.81v7.36s-9.4-.18-9.4 6.09c0 7.54 6.21 13.56 6.59 26.47.18 6.09-2.7 10.36-2.7 10.36-1.99 2.55-4.53 3.43-5.71 3.43 2.08 0 8.43 2.75 8.43 12.59 0 3.86-.57 7.26-1.32 10.13 0 0-.69 2.88-1.97 6.12Zm33.47.74c1.52 3.64 3.26 6.39 3.26 11.32 0 13.16-17.37 12.81-17.37 12.81v-7.36s9.4.18 9.4-6.09c0-3.75-1.46-7.16-3.13-11.16-1.12-2.67-2.22-6.7-2.22-6.7-.7-2.77-1.25-6.12-1.25-9.8 0-9.85 6.34-12.59 8.43-12.59-1.18 0-3.7-.89-5.7-3.42-2.16-2.74-2.71-10.36-2.71-10.36.37-12.91 6.59-18.94 6.59-26.47 0-6.27-9.4-6.09-9.4-6.09v-7.36s17.37-.36 17.37 12.81c0 9.28-5.96 10.92-5.96 24.93 0 6.45 3.6 10.8 13.44 10.8V74.8c-9.85 0-13.44 4.35-13.44 10.8 0 3.28.52 6.68 1.02 8.87 0 0 .69 2.36 1.68 4.74Z" style="stroke:#a42963;stroke-linejoin:round;fill:#f063a4"/><rect width="9.91" height="15.28" x="62.97" y="55.63" rx="2.13" ry="2.13" style="stroke:#a42963;stroke-linejoin:round;fill:#fff;stroke-width:2px"/><ellipse cx="67.93" cy="63.27" rx="1.9" ry="4.23" style="fill:#a42963"/><path d="M62.97 63.03S53.59 50.77 50.2 56.2" style="stroke-linecap:round;stroke:#a42963;stroke-linejoin:round;stroke-width:2px;fill:none"/><rect width="9.91" height="15.28" x="77.12" y="55.63" rx="2.13" ry="2.13" style="stroke:#a42963;stroke-linejoin:round;fill:#fff;stroke-width:2px" transform="rotate(180 82.07 63.27)"/><ellipse cx="82.07" cy="63.27" rx="1.9" ry="4.23" style="fill:#a42963"/><path d="M87.03 63.03s9.38-12.26 12.77-6.83" style="stroke-linecap:round;stroke:#a42963;stroke-linejoin:round;stroke-width:2px;fill:none"/><path d="M72.98 63.93c.52-.31 1.23-.51 2.02-.51s1.5.19 2.02.51" style="stroke:#a42963;stroke-linejoin:round;stroke-width:2px;fill:none"/><ellipse cx="68.37" cy="62.59" rx=".74" ry="1.22" style="fill:#fff"/><ellipse cx="82.56" cy="62.59" rx=".74" ry="1.22" style="fill:#fff"/><path d="M80.66 73.49s-5.85.8-9.57.58c0 1.02.04 6.43 3.69 6.21s2.3-5.92 2.3-5.92" style="fill:#f9c5dd;stroke-linecap:round;stroke:#a42963;stroke-linejoin:round"/></svg>