<svg data-name="Layer 1" xmlns="http://www.w3.org/2000/svg" viewBox="0 0 150 150"><path style="stroke-linejoin:round;fill:#c5c7c9;stroke:#929497" d="m34.07 149.53 37.3-.21v-11.49l-4.3 5.11-24.91.03"/><path d="M16.77 124.15c-2 3.86-4.07 7.29-4.45 11-.63 6.24 8.74 7 8.74 7l-.74 7.33S3 148.11 4.32 135c.51-5 2.45-7.71 4.56-11.24A23.56 23.56 0 0 0 11 119.1a35 35 0 0 0 1.76-8.3c.65-6.41-2.5-11.1-12.29-12.09l1-10.29c9.8 1 13.82-3 14.46-9.39 1.41-13.94-4.36-16.18-3.43-25.41 1.32-13.09 18.57-11 18.57-11l-.7 7.38s-9.34-1.12-10 5.11c-.75 7.5 4.82 14.12 3.9 27a19 19 0 0 1-3.72 10 8.32 8.32 0 0 1-6 2.83c2.07.21 8.11 3.58 7.12 13.38a39.8 39.8 0 0 1-2.33 10 50.75 50.75 0 0 1-2.57 5.83ZM48.34 125.72c1.43 3.69 3.1 6.48 3 11.41-.35 13.16-17.71 12.34-17.71 12.34l.2-7.36s9.39.43 9.56-5.84c.1-3.74-1.27-7.19-2.84-11.24a70.07 70.07 0 0 1-2-6.75 40.51 40.51 0 0 1-1-9.84c.26-9.84 6.67-12.42 8.76-12.36a8.35 8.35 0 0 1-5.61-3.58c-2.09-2.79-2.43-10.43-2.43-10.43.71-12.89 7.09-18.75 7.29-26.28.17-6.27-9.23-6.34-9.23-6.34l.2-7.36s17.37.11 17 13.27c-.25 9.27-6.25 10.75-6.63 24.76C46.69 86.57 50.17 91 60 91.28l-.27 10.33c-9.85-.26-13.56 4-13.73 10.44a42.45 42.45 0 0 0 .78 8.89 49.77 49.77 0 0 0 1.56 4.78Z" style="stroke:#a42963;fill:#f063a4;stroke-linejoin:round"/><rect x="26.74" y="84.25" width="9.91" height="15.28" rx="2.13" transform="rotate(8.61 31.697 91.864)" style="stroke-width:2px;fill:#fff;stroke:#a42963;stroke-linejoin:round"/><path d="M26.83 90.91S13.89 82.13 9.72 87" style="stroke-linecap:round;fill:none;stroke-width:2px;stroke:#a42963;stroke-linejoin:round"/><rect x="40.73" y="86.37" width="9.91" height="15.28" rx="2.13" transform="rotate(-171.39 45.684 94.01)" style="stroke-width:2px;fill:#fff;stroke:#a42963;stroke-linejoin:round"/><path d="M36.6 93.3a4 4 0 0 1 2.07-.2 3.94 3.94 0 0 1 1.91.81" style="fill:none;stroke-width:2px;stroke:#a42963;stroke-linejoin:round"/><path d="M28.78 93.82s2.19 3.29 4.68.71M47.9 96.72s-3.07 2.49-4.69-.71" style="stroke-miterlimit:10;stroke-linecap:round;fill:none;stroke:#a42963"/><path d="M30.16 109.57s-4.45 3.89-2.15 5.12c1.54.84 2.16-1.39.61-2.57" style="fill:#f9c5dd;stroke-linecap:round;stroke:#a42963;stroke-linejoin:round"/><path d="M58.19 147.63h-.4a3.81 3.81 0 0 1-3.39-4.18 15.17 15.17 0 0 0 .1-2.72 3.81 3.81 0 0 1 7.59-.61 24.3 24.3 0 0 1-.12 4.12 3.8 3.8 0 0 1-3.78 3.39ZM19.2 149.51l34-.19v-11.49l-4.31 5.11H19.16a3.26 3.26 0 0 0-3.27 3.27 3.28 3.28 0 0 0 3.31 3.3Z" style="stroke-linejoin:round;fill:#c5c7c9;stroke:#929497"/><path d="M23.67 144c-5.31 0-9.46-1.59-12.37-4.77-7.38-8.07-2.94-22.49-2.4-24.11a4 4 0 0 1 7.6 2.49c-1 3-2.89 12.3.71 16.22 2.71 2.95 8.49 2.35 12.86 1.33a4 4 0 0 1 1.82 7.8 36.82 36.82 0 0 1-8.22 1.04Z" style="stroke-linejoin:round;fill:#c5c7c9;stroke:#929497"/></svg>