<svg data-name="Layer 1" xmlns="http://www.w3.org/2000/svg" viewBox="0 0 150 150"><path d="M108.7 102.71h-.33c-5-.2-8.84-5-12.25-15a105.71 105.71 0 0 1-3.35-12.59 4 4 0 0 1 7.86-1.51c1.86 9.7 5.7 19.68 8 21 .74-.48 3.82-3.26 7.94-18.14a4 4 0 1 1 7.71 2.14c-4.63 16.86-9.28 24.1-15.58 24.1ZM50.57 71.18a3.56 3.56 0 0 0-3.23 3.48 308.86 308.86 0 0 0 .66 47.71 3.55 3.55 0 0 0 3.81 3.35 3.68 3.68 0 0 0 3-4.17 307.14 307.14 0 0 1-.64-46.29A3.73 3.73 0 0 0 51 71.19a2.06 2.06 0 0 0-.43-.01Z" style="stroke-linejoin:round;fill:#c5c6c8;stroke:#909395"/><path style="fill:#c5c7c9;stroke:#929497;stroke-linejoin:round" d="m84.65 120.03.21 29.47h11.5l-5.12-4.3-.03-24.91M65.98 120.03l-.17 25.18 1.72 4.29H57.44l1.96-4.3.02-24.91"/><path d="M62.28 98.45c-1.59 4-3.31 7.67-3.31 11.42 0 6.26 9.39 6.08 9.39 6.08v7.37S51 123.67 51 110.51c0-5.07 1.66-7.92 3.4-11.64A23.38 23.38 0 0 0 56 94a35.24 35.24 0 0 0 1-8.42c0-6.45-3.59-10.8-13.44-10.8V64.44c9.85 0 13.44-4.35 13.44-10.8 0-14-6-15.65-6-24.93C51 15.55 68.36 15.9 68.36 15.9v7.36S59 23.08 59 29.35c0 7.54 6.2 13.57 6.58 26.47a19 19 0 0 1-2.7 10.36 8.28 8.28 0 0 1-5.71 3.43c2.09 0 8.43 2.74 8.43 12.59a39.91 39.91 0 0 1-1.32 10.13 51.08 51.08 0 0 1-2 6.12ZM95.75 99.19c1.52 3.64 3.26 6.39 3.26 11.32 0 13.16-17.37 12.81-17.37 12.81V116s9.39.18 9.39-6.08c0-3.75-1.45-7.16-3.13-11.17A67.59 67.59 0 0 1 85.68 92a40.28 40.28 0 0 1-1.25-9.81c0-9.85 6.34-12.59 8.43-12.59a8.37 8.37 0 0 1-5.71-3.42c-2.16-2.74-2.7-10.37-2.7-10.37.36-12.9 6.55-18.92 6.55-26.46 0-6.27-9.39-6.09-9.39-6.09V15.9S99 15.55 99 28.71c0 9.28-6 10.92-6 24.93 0 6.45 3.59 10.8 13.44 10.8v10.34c-9.85 0-13.44 4.35-13.44 10.8a42.64 42.64 0 0 0 1 8.87s.75 2.36 1.75 4.74Z" style="stroke:#a42963;fill:#f063a4;stroke-linejoin:round"/><rect x="62.97" y="55.63" width="9.91" height="15.28" rx="2.13" style="stroke-width:2px;fill:#fff;stroke:#a42963;stroke-linejoin:round"/><ellipse cx="67.93" cy="63.27" rx="1.9" ry="4.23" style="fill:#a42963"/><path d="M63 63s-9.41-12.23-12.8-6.81" style="stroke-linecap:round;fill:none;stroke-width:2px;stroke:#a42963;stroke-linejoin:round"/><rect x="77.12" y="55.63" width="9.91" height="15.28" rx="2.13" transform="rotate(180 82.07 63.27)" style="stroke-width:2px;fill:#fff;stroke:#a42963;stroke-linejoin:round"/><ellipse cx="82.07" cy="63.27" rx="1.9" ry="4.23" style="fill:#a42963"/><path d="M87 63s9.38-12.26 12.77-6.84" style="stroke-linecap:round;fill:none;stroke-width:2px;stroke:#a42963;stroke-linejoin:round"/><path d="M73 63.93a4.33 4.33 0 0 1 4 0" style="fill:none;stroke-width:2px;stroke:#a42963;stroke-linejoin:round"/><ellipse cx="68.37" cy="62.59" rx=".74" ry="1.22" style="fill:#fff"/><ellipse cx="82.56" cy="62.59" rx=".74" ry="1.22" style="fill:#fff"/><path d="M80.66 73.49a63.24 63.24 0 0 1-9.57.58c0 1 0 6.43 3.69 6.21s2.3-5.91 2.3-5.91" style="fill:#f9c5dd;stroke-linecap:round;stroke:#a42963;stroke-linejoin:round"/></svg>