<?xml version="1.0" encoding="UTF-8"?><svg id="a" xmlns="http://www.w3.org/2000/svg" viewBox="0 0 150 150"><defs><style>.b,.c,.d,.e,.f,.g{stroke:#a42963;}.b,.c,.d,.e,.f,.g,.h{stroke-linejoin:round;}.b,.c,.d,.f{fill:none;}.b,.d{stroke-linecap:round;}.i,.e{fill:#fff;}.j{fill:#a42963;}.d,.e,.f{stroke-width:2px;}.g{fill:#f063a4;}.h{fill:#c5c7c9;stroke:#929497;}</style></defs><path class="h" d="M91.78,121.31l-3.84,13.97,3.06,14.22h-11.49l5.12-4.3-2.39-9.66c-.05-.37-.03-.75,.06-1.12l3.1-11.28"/><path class="h" d="M57.3,120.81l3.98,14.47-3.06,14.22h11.49l-5.12-4.3,2.39-9.66c.05-.37,.03-.75-.06-1.12l-3.1-11.28"/><g><path class="g" d="M64.25,92.33c.75-2.87,1.32-6.27,1.32-10.13,0-9.85-6.34-12.59-8.43-12.59,1.18,0,3.72-.88,5.71-3.43,0,0,2.88-4.27,2.7-10.36-.38-12.91-6.59-18.94-6.59-26.47,0-6.27,9.4-6.09,9.4-6.09v-7.36s-17.37-.36-17.37,12.81c0,9.28,5.96,10.92,5.96,24.93,0,6.45-3.6,10.8-13.44,10.8v10.34c9.85,0,13.44,4.35,13.44,10.8,0,3.47-.36,6.17-.91,8.43"/><path class="g" d="M54.39,98.87c-1.62,3.78-3.4,6.57-3.4,11.64,0,13.16,17.37,12.81,17.37,12.81v-7.36s-9.4,.18-9.4-6.09c0-3.75,1.72-7.38,3.32-11.41"/><path class="g" d="M95.75,99.19c1.58,3.62,3.26,6.39,3.26,11.32,0,13.16-17.37,12.81-17.37,12.81v-7.36s9.4,.18,9.4-6.09c0-3.75-1.54-7.13-3.13-11.16"/><path class="g" d="M94.06,94.45c-.5-2.18-1.02-5.58-1.02-8.87,0-6.45,3.6-10.8,13.44-10.8v-10.34c-9.85,0-13.44-4.35-13.44-10.8,0-14.01,5.96-15.65,5.96-24.93,0-13.16-17.37-12.81-17.37-12.81v7.36s9.4-.18,9.4,6.09c0,7.54-6.22,13.56-6.59,26.47,0,0,.54,7.62,2.71,10.36,2,2.53,4.53,3.42,5.7,3.42-2.08,0-8.43,2.75-8.43,12.59,0,3.69,.55,7.03,1.25,9.8"/></g><g><g><rect class="e" x="62.97" y="55.63" width="9.91" height="15.28" rx="2.13" ry="2.13"/><ellipse class="j" cx="67.93" cy="63.27" rx="1.9" ry="4.23"/><path class="d" d="M62.97,63.03s-9.38-12.26-12.77-6.83"/></g><g><rect class="e" x="77.12" y="55.63" width="9.91" height="15.28" rx="2.13" ry="2.13" transform="translate(164.14 126.54) rotate(180)"/><ellipse class="j" cx="82.07" cy="63.27" rx="1.9" ry="4.23"/><path class="d" d="M87.03,63.03s9.38-12.26,12.77-6.83"/></g></g><path class="f" d="M72.98,63.93c.52-.31,1.23-.51,2.02-.51s1.5,.19,2.02,.51"/><path class="b" d="M77.65,74.68s0,2.54-2.65,2.54c-2.65,0-2.65-2.54-2.65-2.54"/><path class="h" d="M71.89,85.98c-2,2.08-4.16,3.94-6.49,5.39-3.39,2.15-7.34,3.26-10.61,2.19-.4-.14-.81-.26-1.18-.46-.39-.16-.74-.4-1.09-.62-.35-.22-.68-.52-.97-.76-.26-.25-.49-.51-.68-.81-.8-1.16-1.14-2.84-1.09-4.7,.09-3.09,1.08-6.55,2.41-9.67,0,0-1.52-.83-3.04-1.15s-3.04-.5-3.04-.5c-.43,1.21-.88,2.63-1.22,3.9-.6,2.35-1.03,4.79-1.01,7.41,.03,2.57,.55,5.51,2.38,8.01,.45,.61,.97,1.18,1.54,1.68,.57,.46,1.1,.88,1.7,1.25,.6,.36,1.2,.71,1.85,.97,.63,.3,1.29,.5,1.96,.69,2.67,.75,5.47,.61,7.98-.05,2.53-.65,4.77-1.84,6.8-3.18,2.57-1.74,4.82-3.78,6.83-5.97"/><path class="h" d="M74.63,82.87c.79-.97,2.22-1.12,3.19-.33,.95,.77,1.11,2.16,.37,3.13"/><path class="h" d="M103.91,74.89c.42,1.21,.87,2.63,1.21,3.9,.6,2.35,1.03,4.79,1.01,7.41-.03,2.57-.55,5.51-2.38,8.01-.45,.61-.97,1.18-1.54,1.68-.57,.46-1.1,.88-1.7,1.25-.6,.36-1.2,.71-1.85,.97-.63,.3-1.29,.5-1.96,.69-2.67,.75-5.47,.61-7.98-.05-2.53-.65-4.77-1.84-6.8-3.18-4.05-2.74-7.29-6.22-10.09-9.88-.74-.97-.58-2.36,.37-3.13,.97-.79,2.4-.64,3.19,.33,2.72,3.33,5.79,6.35,9.23,8.5,3.39,2.15,7.34,3.26,10.61,2.19,.4-.14,.81-.26,1.18-.46,.39-.16,.74-.4,1.09-.62,.35-.22,.68-.52,.97-.76,.26-.25,.49-.51,.68-.81,.8-1.16,1.14-2.84,1.09-4.7-.09-3.03-1.13-6.6-2.41-9.66"/><path class="c" d="M93.05,85.58c0-6.45,3.6-10.8,13.44-10.8"/><path class="c" d="M43.51,74.78c9.85,0,13.44,4.35,13.44,10.8"/><ellipse class="i" cx="68.37" cy="62.59" rx=".74" ry="1.22"/><ellipse class="i" cx="82.56" cy="62.59" rx=".74" ry="1.22"/></svg>