<svg xmlns="http://www.w3.org/2000/svg" viewBox="0 0 150 150"><path d="m91.78 121.31-3.84 13.97L91 149.5H79.51l5.12-4.3-2.39-9.66c-.05-.37-.03-.75.06-1.12l3.1-11.28m-28.1-2.33 3.98 14.47-3.06 14.22h11.49l-5.12-4.3 2.39-9.66c.05-.37.03-.75-.06-1.12l-3.1-11.28" style="stroke-linejoin:round;fill:#c5c7c9;stroke:#929497"/><path d="M64.25 92.33c.75-2.87 1.32-6.27 1.32-10.13 0-9.85-6.34-12.59-8.43-12.59 1.18 0 3.72-.88 5.71-3.43 0 0 2.88-4.27 2.7-10.36-.38-12.91-6.59-18.94-6.59-26.47 0-6.27 9.4-6.09 9.4-6.09V15.9s-17.37-.36-17.37 12.81c0 9.28 5.96 10.92 5.96 24.93 0 6.45-3.6 10.8-13.44 10.8v10.34c9.85 0 13.44 4.35 13.44 10.8 0 3.47-.36 6.17-.91 8.43m-1.65 4.86c-1.62 3.78-3.4 6.57-3.4 11.64 0 13.16 17.37 12.81 17.37 12.81v-7.36s-9.4.18-9.4-6.09c0-3.75 1.72-7.38 3.32-11.41m33.47.73c1.58 3.62 3.26 6.39 3.26 11.32 0 13.16-17.37 12.81-17.37 12.81v-7.36s9.4.18 9.4-6.09c0-3.75-1.54-7.13-3.13-11.16m6.15-4.26c-.5-2.18-1.02-5.58-1.02-8.87 0-6.45 3.6-10.8 13.44-10.8V64.44c-9.85 0-13.44-4.35-13.44-10.8 0-14.01 5.96-15.65 5.96-24.93C99 15.55 81.63 15.9 81.63 15.9v7.36s9.4-.18 9.4 6.09c0 7.54-6.22 13.56-6.59 26.47 0 0 .54 7.62 2.71 10.36 2 2.53 4.53 3.42 5.7 3.42-2.08 0-8.43 2.75-8.43 12.59 0 3.69.55 7.03 1.25 9.8" style="stroke:#a42963;stroke-linejoin:round;fill:#f063a4"/><rect width="9.91" height="15.28" x="62.97" y="55.63" rx="2.13" ry="2.13" style="stroke:#a42963;stroke-linejoin:round;fill:#fff;stroke-width:2px"/><ellipse cx="67.93" cy="63.27" rx="1.9" ry="4.23" style="fill:#a42963"/><path d="M62.97 63.03S53.59 50.77 50.2 56.2" style="stroke:#a42963;stroke-linejoin:round;fill:none;stroke-linecap:round;stroke-width:2px"/><rect width="9.91" height="15.28" x="77.12" y="55.63" rx="2.13" ry="2.13" style="stroke:#a42963;stroke-linejoin:round;fill:#fff;stroke-width:2px" transform="rotate(180 82.07 63.27)"/><ellipse cx="82.07" cy="63.27" rx="1.9" ry="4.23" style="fill:#a42963"/><path d="M87.03 63.03s9.38-12.26 12.77-6.83" style="stroke:#a42963;stroke-linejoin:round;fill:none;stroke-linecap:round;stroke-width:2px"/><path d="M72.98 63.93c.52-.31 1.23-.51 2.02-.51s1.5.19 2.02.51" style="stroke:#a42963;stroke-linejoin:round;fill:none;stroke-width:2px"/><path d="M77.65 74.68s0 2.54-2.65 2.54-2.65-2.54-2.65-2.54" style="stroke:#a42963;stroke-linejoin:round;fill:none;stroke-linecap:round"/><path d="M71.89 85.98c-2 2.08-4.16 3.94-6.49 5.39-3.39 2.15-7.34 3.26-10.61 2.19-.4-.14-.81-.26-1.18-.46-.39-.16-.74-.4-1.09-.62s-.68-.52-.97-.76c-.26-.25-.49-.51-.68-.81-.8-1.16-1.14-2.84-1.09-4.7.09-3.09 1.08-6.55 2.41-9.67 0 0-1.52-.83-3.04-1.15s-3.04-.5-3.04-.5c-.43 1.21-.88 2.63-1.22 3.9-.6 2.35-1.03 4.79-1.01 7.41.03 2.57.55 5.51 2.38 8.01.45.61.97 1.18 1.54 1.68.57.46 1.1.88 1.7 1.25.6.36 1.2.71 1.85.97.63.3 1.29.5 1.96.69 2.67.75 5.47.61 7.98-.05 2.53-.65 4.77-1.84 6.8-3.18 2.57-1.74 4.82-3.78 6.83-5.97m-.29-6.73a2.265 2.265 0 0 1 3.56 2.8" style="stroke-linejoin:round;fill:#c5c7c9;stroke:#929497"/><path d="M103.91 74.89c.42 1.21.87 2.63 1.21 3.9.6 2.35 1.03 4.79 1.01 7.41-.03 2.57-.55 5.51-2.38 8.01-.45.61-.97 1.18-1.54 1.68-.57.46-1.1.88-1.7 1.25-.6.36-1.2.71-1.85.97-.63.3-1.29.5-1.96.69-2.67.75-5.47.61-7.98-.05-2.53-.65-4.77-1.84-6.8-3.18-4.05-2.74-7.29-6.22-10.09-9.88a2.265 2.265 0 0 1 3.56-2.8c2.72 3.33 5.79 6.35 9.23 8.5 3.39 2.15 7.34 3.26 10.61 2.19.4-.14.81-.26 1.18-.46.39-.16.74-.4 1.09-.62s.68-.52.97-.76c.26-.25.49-.51.68-.81.8-1.16 1.14-2.84 1.09-4.7-.09-3.03-1.13-6.6-2.41-9.66" style="stroke-linejoin:round;fill:#c5c7c9;stroke:#929497"/><path d="M93.05 85.58c0-6.45 3.6-10.8 13.44-10.8m-62.98 0c9.85 0 13.44 4.35 13.44 10.8" style="stroke:#a42963;stroke-linejoin:round;fill:none"/><ellipse cx="68.37" cy="62.59" rx=".74" ry="1.22" style="fill:#fff"/><ellipse cx="82.56" cy="62.59" rx=".74" ry="1.22" style="fill:#fff"/></svg>