<svg data-name="Layer 1" xmlns="http://www.w3.org/2000/svg" viewBox="0 0 150 150"><defs><clipPath id="a"><path style="fill:none" d="M0 0h150v150H0z"/></clipPath></defs><g style="clip-path:url(#a)"><path d="M54.33 164.29a76.27 76.27 0 0 0 2.54-19.47c0-18.93-12.19-24.21-16.2-24.21 2.27 0 7.16-1.69 11-6.59a36.66 36.66 0 0 0 5.19-19.91C56.13 69.29 44.2 57.7 44.2 43.21c0-12 18.06-11.7 18.06-11.7V17.36S28.84 16.67 28.84 42c0 17.84 11.47 21 11.47 47.94 0 12.39-6.92 20.76-25.85 20.76v19.87c18.93 0 25.85 8.37 25.85 20.77a67.51 67.51 0 0 1-1.76 16.21M111.65 168.36a81.79 81.79 0 0 1-2-17.05c0-12.4 6.92-20.77 25.85-20.77v-19.87c-18.93 0-25.85-8.37-25.85-20.76 0-26.94 11.47-30.1 11.47-47.94 0-25.3-33.4-24.61-33.4-24.61v14.15s18.06-.35 18.06 11.7c0 14.49-12 26.08-12.66 50.9 0 0 1 14.65 5.2 19.92 3.85 4.87 8.7 6.58 11 6.58-4 0-16.2 5.28-16.2 24.21a77.63 77.63 0 0 0 2.4 18.85" style="stroke-linejoin:round;stroke:#a42963;fill:#f063a4"/><rect x="51.88" y="93.73" width="19.05" height="29.38" rx="4.1" style="stroke-width:3px;fill:#fff;stroke-linejoin:round;stroke:#a42963"/><path d="M51.88 108s-18-23.56-24.56-13.13" style="stroke-linecap:round;stroke-width:3px;stroke-linejoin:round;stroke:#a42963;fill:none"/><path d="M57.29 110.54c0-3.32 1.84-6 4.11-6s4.12 2.69 4.12 6" style="stroke-miterlimit:10;stroke-width:2px;stroke-linecap:round;stroke:#a42963;fill:none"/><rect x="79.07" y="93.73" width="19.05" height="29.38" rx="4.1" transform="rotate(180 88.595 108.425)" style="stroke-width:3px;fill:#fff;stroke-linejoin:round;stroke:#a42963"/><path d="M98.12 108s18-23.56 24.56-13.13" style="stroke-linecap:round;stroke-width:3px;stroke-linejoin:round;stroke:#a42963;fill:none"/><path d="M92.71 110.54c0-3.32-1.84-6-4.11-6s-4.12 2.69-4.12 6" style="stroke-miterlimit:10;stroke-width:2px;stroke-linecap:round;stroke:#a42963;fill:none"/><path d="M71.12 109.7a8.17 8.17 0 0 1 7.76 0" style="stroke-width:3px;stroke-linejoin:round;stroke:#a42963;fill:none"/><path d="M80.09 126.9a5.09 5.09 0 0 1-10.18 0" style="stroke-linecap:round;stroke-linejoin:round;stroke:#a42963;fill:none"/></g></svg>