<svg id="Layer_1" data-name="Layer 1" xmlns="http://www.w3.org/2000/svg" xmlns:xlink="http://www.w3.org/1999/xlink" viewBox="0 0 150 150"><defs><style>.cls-1,.cls-5,.cls-6,.cls-7,.cls-8{fill:none;}.cls-2{clip-path:url(#clip-path);}.cls-3{fill:#f063a4;}.cls-3,.cls-4,.cls-5,.cls-6,.cls-7,.cls-8{stroke:#a42963;}.cls-3,.cls-4,.cls-5,.cls-7,.cls-8{stroke-linejoin:round;}.cls-4{fill:#fff;}.cls-4,.cls-5,.cls-7{stroke-width:3px;}.cls-5,.cls-6,.cls-8{stroke-linecap:round;}.cls-6{stroke-miterlimit:10;stroke-width:2px;}</style><clipPath id="clip-path"><rect class="cls-1" width="150" height="150"/></clipPath></defs><g class="cls-2"><path class="cls-3" d="M54.33,164.29a76.27,76.27,0,0,0,2.54-19.47c0-18.93-12.19-24.21-16.2-24.21,2.27,0,7.16-1.69,11-6.59a36.66,36.66,0,0,0,5.19-19.91c-.73-24.82-12.66-36.41-12.66-50.9,0-12,18.06-11.7,18.06-11.7V17.36S28.84,16.67,28.84,42c0,17.84,11.47,21,11.47,47.94,0,12.39-6.92,20.76-25.85,20.76v19.87c18.93,0,25.85,8.37,25.85,20.77a67.51,67.51,0,0,1-1.76,16.21"/><path class="cls-3" d="M111.65,168.36a81.79,81.79,0,0,1-2-17.05c0-12.4,6.92-20.77,25.85-20.77V110.67c-18.93,0-25.85-8.37-25.85-20.76,0-26.94,11.47-30.1,11.47-47.94,0-25.3-33.4-24.61-33.4-24.61V31.51s18.06-.35,18.06,11.7c0,14.49-12,26.08-12.66,50.9,0,0,1,14.65,5.2,19.92,3.85,4.87,8.7,6.58,11,6.58-4,0-16.2,5.28-16.2,24.21a77.63,77.63,0,0,0,2.4,18.85"/><rect class="cls-4" x="51.88" y="93.73" width="19.05" height="29.38" rx="4.1"/><path class="cls-5" d="M51.88,108s-18-23.56-24.56-13.13"/><path class="cls-6" d="M57.29,110.54c0-3.32,1.84-6,4.11-6s4.12,2.69,4.12,6"/><rect class="cls-4" x="79.07" y="93.73" width="19.05" height="29.38" rx="4.1" transform="translate(177.19 216.85) rotate(180)"/><path class="cls-5" d="M98.12,108s18-23.56,24.56-13.13"/><path class="cls-6" d="M92.71,110.54c0-3.32-1.84-6-4.11-6s-4.12,2.69-4.12,6"/><path class="cls-7" d="M71.12,109.7a8.17,8.17,0,0,1,7.76,0"/><path class="cls-8" d="M80.09,126.9a5.09,5.09,0,0,1-10.18,0"/></g></svg>