<svg xmlns="http://www.w3.org/2000/svg" viewBox="0 0 150 150"><path d="m34.07 149.53 37.3-.21v-11.49l-4.3 5.11-24.91.03" style="stroke-linejoin:round;fill:#c5c7c9;stroke:#929497"/><path d="M16.77 124.15c-1.99 3.86-4.07 7.29-4.44 11.02-.63 6.23 8.74 7 8.74 7l-.74 7.32s-17.32-1.39-16-14.48c.51-5.05 2.45-7.71 4.55-11.24 1.45-2.42 2.13-4.67 2.13-4.67.77-2.19 1.41-4.85 1.76-8.3.65-6.42-2.5-11.11-12.29-12.1l1.04-10.29c9.8.99 13.81-2.98 14.46-9.4 1.41-13.94-4.36-16.17-3.43-25.4 1.32-13.09 18.57-11 18.57-11l-.74 7.32s-9.33-1.12-9.96 5.11c-.76 7.5 4.82 14.12 3.9 27-.43 6.08-3.73 10.03-3.73 10.03-2.23 2.34-4.85 2.96-6.02 2.84 2.07.21 8.11 3.58 7.12 13.37-.39 3.84-1.3 7.17-2.33 9.95 0 0-.97 2.79-2.57 5.89Zm31.57 1.57c1.43 3.68 3.09 6.48 2.96 11.41-.35 13.16-17.71 12.34-17.71 12.34l.2-7.36s9.39.43 9.56-5.83c.1-3.75-1.27-7.2-2.83-11.24-1.05-2.7-2.04-6.76-2.04-6.76-.62-2.79-1.08-6.15-.98-9.83.26-9.84 6.68-12.42 8.76-12.36-1.18-.03-3.68-.99-5.61-3.57-2.09-2.8-2.43-10.43-2.43-10.43.71-12.9 7.09-18.76 7.29-26.29.17-6.26-9.23-6.34-9.23-6.34l.2-7.36s17.38.11 17.02 13.27c-.25 9.28-6.25 10.76-6.63 24.76-.17 6.45 3.31 10.89 13.15 11.16l-.28 10.33c-9.84-.26-13.56 3.99-13.73 10.44-.09 3.28.34 6.7.78 8.89 0 0 .63 2.38 1.56 4.78Z" style="stroke:#a42963;stroke-linejoin:round;fill:#f063a4"/><rect width="9.91" height="15.28" x="26.74" y="84.25" rx="2.13" ry="2.13" style="stroke:#a42963;stroke-linejoin:round;stroke-width:2px;fill:#fff" transform="rotate(8.61 31.697 91.864)"/><path d="M26.83 90.91s-12.95-8.78-17.11-3.92" style="stroke-linecap:round;stroke:#a42963;stroke-linejoin:round;fill:none;stroke-width:2px"/><rect width="9.91" height="15.28" x="40.73" y="86.37" rx="2.13" ry="2.13" style="stroke:#a42963;stroke-linejoin:round;stroke-width:2px;fill:#fff" transform="rotate(-171.39 45.684 94.01)"/><path d="M36.6 93.3c.56-.23 1.29-.32 2.07-.2s1.45.42 1.92.8" style="stroke:#a42963;stroke-linejoin:round;fill:none;stroke-width:2px"/><path d="M28.78 93.82s2.19 3.29 4.68.71m14.44 2.19s-3.07 2.49-4.68-.71" style="stroke-linecap:round;stroke:#a42963;stroke-miterlimit:10;fill:none"/><path d="M30.16 109.57s-4.45 3.88-2.15 5.12c1.54.83 2.16-1.4.61-2.58" style="fill:#f9c5dd;stroke-linecap:round;stroke:#a42963;stroke-linejoin:round"/><path d="M58.19 147.63c-.13 0-.27 0-.4-.02a3.806 3.806 0 0 1-3.39-4.18c.17-1.65.1-2.71.1-2.72-.15-2.09 1.41-3.92 3.5-4.08a3.81 3.81 0 0 1 4.09 3.47c.01.17.13 1.75-.12 4.13a3.817 3.817 0 0 1-3.78 3.41Zm-38.99 1.88 34.01-.19v-11.49l-4.3 5.12-29.73.02c-1.81 0-3.27 1.47-3.27 3.27 0 1.81 1.48 3.28 3.29 3.27Z" style="stroke-linejoin:round;fill:#c5c7c9;stroke:#929497"/><path d="M23.67 144.03c-5.32 0-9.46-1.6-12.37-4.77-7.38-8.06-2.94-22.49-2.4-24.11.69-2.1 2.95-3.24 5.05-2.55s3.24 2.95 2.55 5.04c-.96 2.96-2.89 12.3.71 16.22 2.71 2.95 8.49 2.35 12.86 1.33a4 4 0 0 1 4.8 2.99 4 4 0 0 1-2.99 4.8q-4.485 1.05-8.22 1.05Z" style="stroke-linejoin:round;fill:#c5c7c9;stroke:#929497"/></svg>