<svg xmlns="http://www.w3.org/2000/svg" viewBox="0 0 150 150"><defs><clipPath id="a"><path style="fill:none" d="M0 0h150v150H0z"/></clipPath></defs><g style="clip-path:url(#a)"><path d="M54.33 164.29c1.44-5.52 2.54-12.05 2.54-19.48 0-18.93-12.2-24.21-16.2-24.21 2.27 0 7.16-1.69 10.98-6.59 0 0 5.53-8.2 5.19-19.91-.73-24.82-12.66-36.41-12.66-50.9 0-12.05 18.07-11.7 18.07-11.7V17.35s-33.4-.68-33.4 24.62c0 17.84 11.47 20.99 11.47 47.93 0 12.4-6.92 20.76-25.85 20.76v19.87c18.93 0 25.85 8.37 25.85 20.76 0 6.66-.7 11.87-1.76 16.21M111.65 168.36c-.96-4.2-1.96-10.74-1.96-17.05 0-12.4 6.92-20.76 25.85-20.76v-19.87c-18.93 0-25.85-8.37-25.85-20.76 0-26.94 11.47-30.09 11.47-47.93 0-25.3-33.4-24.62-33.4-24.62v14.15s18.07-.34 18.07 11.7c0 14.49-11.96 26.08-12.66 50.9 0 0 1.04 14.65 5.2 19.92 3.85 4.87 8.7 6.58 10.97 6.58-4 0-16.2 5.28-16.2 24.21 0 7.09 1.06 13.52 2.4 18.85" style="fill:#f063a4;stroke-linejoin:round;stroke:#a42963"/><rect x="51.88" y="93.73" width="19.05" height="29.38" rx="4.1" ry="4.1" style="fill:#fff;stroke-width:3px;stroke-linejoin:round;stroke:#a42963"/><path d="M51.88 107.95S33.84 84.38 27.32 94.81" style="stroke-width:3px;stroke-linecap:round;stroke-linejoin:round;stroke:#a42963;fill:none"/><path d="M57.29 110.54c0-3.32 1.84-6.02 4.12-6.02s4.12 2.69 4.12 6.02" style="stroke-miterlimit:10;stroke-width:2px;stroke-linecap:round;stroke:#a42963;fill:none"/><rect x="79.07" y="93.73" width="19.05" height="29.38" rx="4.1" ry="4.1" transform="rotate(180 88.595 108.425)" style="fill:#fff;stroke-width:3px;stroke-linejoin:round;stroke:#a42963"/><path d="M98.12 107.95s18.04-23.57 24.56-13.14" style="stroke-width:3px;stroke-linecap:round;stroke-linejoin:round;stroke:#a42963;fill:none"/><path d="M92.71 110.54c0-3.32-1.84-6.02-4.12-6.02-2.27 0-4.12 2.69-4.12 6.02" style="stroke-miterlimit:10;stroke-width:2px;stroke-linecap:round;stroke:#a42963;fill:none"/><path d="M71.12 109.7c.99-.6 2.36-.98 3.88-.98s2.89.37 3.88.98" style="stroke-width:3px;stroke-linejoin:round;stroke:#a42963;fill:none"/><path d="M80.09 126.9s0 4.89-5.09 4.89-5.09-4.89-5.09-4.89" style="stroke-linecap:round;stroke-linejoin:round;stroke:#a42963;fill:none"/></g></svg>