<svg data-name="Layer 1" xmlns="http://www.w3.org/2000/svg" viewBox="0 0 150 150"><path d="M30.26 71.5a3.57 3.57 0 0 0-3.75 2.91 309.56 309.56 0 0 0-7.06 47.19 3.57 3.57 0 0 0 3.22 3.93 3.69 3.69 0 0 0 3.64-3.63 307.13 307.13 0 0 1 6.86-45.79 3.73 3.73 0 0 0-2.49-4.53 3.1 3.1 0 0 0-.42-.08ZM83.27 125.17a3.57 3.57 0 0 1-4-2.64A310.12 310.12 0 0 1 69 76a3.56 3.56 0 0 1 2.94-4.14 3.67 3.67 0 0 1 3.88 3.37 308.56 308.56 0 0 0 10 45.19 3.73 3.73 0 0 1-2.16 4.7 3.06 3.06 0 0 1-.39.05Z" style="stroke-linejoin:round;fill:#c5c6c8;stroke:#909395"/><path style="fill:#c5c7c9;stroke:#929497;stroke-linejoin:round" d="m64.8 122.75 13.54 26.18 9.94-6.03-6.2-1.64-11.31-21.25M45.17 120c2.7 9-.69 25.2-.69 25.2l5.28 4.29H36.83s4.81-17.17 1.05-30.21"/><path d="M41.43 98.45c-1.59 4-3.32 7.67-3.32 11.42 0 6.26 9.4 6.08 9.4 6.08v7.37s-17.37.35-17.37-12.81c0-5.07 1.65-7.92 3.4-11.64A24.12 24.12 0 0 0 35.19 94a35.24 35.24 0 0 0 .91-8.43c0-6.45-3.6-10.8-13.44-10.8V64.44c9.84 0 13.44-4.35 13.44-10.8 0-14-6-15.65-6-24.93 0-13.16 17.37-12.81 17.37-12.81v7.36s-9.4-.18-9.4 6.09c0 7.54 6.21 13.57 6.59 26.47A19 19 0 0 1 42 66.18a8.3 8.3 0 0 1-5.71 3.43c2.08 0 8.43 2.74 8.43 12.59a39.91 39.91 0 0 1-1.32 10.13 51.08 51.08 0 0 1-1.97 6.12ZM74.89 99.19c1.53 3.64 3.27 6.39 3.27 11.32 0 13.16-17.38 12.81-17.38 12.81V116s9.4.18 9.4-6.08c0-3.75-1.46-7.16-3.13-11.17A68.86 68.86 0 0 1 64.82 92a40.8 40.8 0 0 1-1.24-9.81c0-9.85 6.34-12.59 8.42-12.59a8.36 8.36 0 0 1-5.7-3.42c-2.17-2.74-2.71-10.37-2.71-10.37.37-12.91 6.59-18.93 6.59-26.47 0-6.27-9.4-6.09-9.4-6.09V15.9s17.38-.35 17.38 12.81c0 9.28-6 10.92-6 24.93 0 6.45 3.6 10.8 13.45 10.8v10.34c-9.85 0-13.45 4.35-13.45 10.8a42.57 42.57 0 0 0 1 8.87s.74 2.36 1.73 4.74Z" style="stroke:#a42963;fill:#f063a4;stroke-linejoin:round"/><rect x="49.12" y="55.63" width="9.91" height="15.28" rx="2.13" style="stroke-width:2px;fill:#fff;stroke:#a42963;stroke-linejoin:round"/><ellipse cx="55.7" cy="63.27" rx="1.9" ry="4.23" style="fill:#a42963"/><path d="M49.12 63s-20.5-9.51-17.93-.35" style="fill:none;stroke-width:2px;stroke:#a42963;stroke-linejoin:round"/><rect x="63.26" y="55.63" width="9.91" height="15.28" rx="2.13" transform="rotate(180 68.22 63.27)" style="stroke-width:2px;fill:#fff;stroke:#a42963;stroke-linejoin:round"/><ellipse cx="69.84" cy="63.27" rx="1.9" ry="4.23" style="fill:#a42963"/><path d="M59.13 63.93a4 4 0 0 1 2-.5 3.93 3.93 0 0 1 2 .5" style="fill:none;stroke-width:2px;stroke:#a42963;stroke-linejoin:round"/><ellipse cx="56.14" cy="62.59" rx=".74" ry="1.22" style="fill:#fff"/><ellipse cx="70.33" cy="62.59" rx=".74" ry="1.22" style="fill:#fff"/><path d="M55.83 75.53a6.06 6.06 0 0 0 6.69.2" style="stroke-linecap:round;fill:none;stroke:#a42963;stroke-linejoin:round"/></svg>