<svg xmlns="http://www.w3.org/2000/svg" viewBox="0 0 150 150"><path d="M72.68 128.36v16.21l1.82 4.96h-9.58l2.97-4.92v-16.25m13.14 0v16.21l-1.81 4.96h9.58l-2.97-4.92v-16.25" style="stroke-linejoin:round;fill:#c5c7c9;stroke:#929497"/><path d="M50.83 109.78h52.05v18.58H50.83zm0-23.94h52.05v18.58H50.83z" style="stroke-linejoin:round;stroke:#701616;fill:#f89e4f"/><path d="M80.78 97.34h7.44" style="fill:none;stroke-linecap:round;stroke-linejoin:round;stroke:#701616"/><path d="M68.68 93.64c0-2.84 1.42-2.06 3.18-2.06s3.18-.78 3.18 2.06-1.42 5.14-3.18 5.14-3.18-2.3-3.18-5.14" style="fill:#701616"/><path d="M67.79 91.78h8.15" style="fill:none;stroke-linecap:round;stroke-linejoin:round;stroke:#701616"/><path d="M84.5 91.48c-1.76 0-3.18 2.3-3.18 5.14 0 .13 0 .25.01.37h6.34c0-.12.01-.24.01-.37 0-2.84-1.42-5.14-3.18-5.14" style="fill:#701616"/><path d="m80.6 92.79 7.08-3.42m-8.96 23.06H75" style="fill:none;stroke-linecap:round;stroke-linejoin:round;stroke:#701616"/><ellipse cx="73.53" cy="94.17" rx=".82" ry="1.22" style="fill:#fff"/><ellipse cx="85.39" cy="94.17" rx=".82" ry="1.22" style="fill:#fff"/></svg>