<svg data-name="Layer 1" xmlns="http://www.w3.org/2000/svg" viewBox="0 0 150 150"><path style="stroke-linejoin:round;fill:#c5c7c9;stroke:#929497" d="M36.84 149.47H58v-10.39l-4.91 5.59H36.84"/><path style="stroke:#701616;fill:#f89e4f;stroke-linejoin:round" d="M.5 130.89h43.31v18.58H.5z"/><path transform="rotate(4.16 22.808 119.378)" style="stroke:#701616;fill:#f89e4f;stroke-linejoin:round" d="M1.16 110.06h43.31v18.58H1.16z"/><path d="M20.22 149.47s1.17-10.39 3.51-10.39 3.51 10.39 3.51 10.39Z" style="stroke-linejoin:round;fill:#c5c7c9;stroke:#929497"/><path d="M35.27 135.27c-2.61-.41-2.93 1.45-2.93 1.45s.11 1.54 1-.38M27.3 122.6a4.06 4.06 0 0 1 5.25.37M35.84 123.24a4.08 4.08 0 0 1 5.26.37M47.15 127.18l1.32-.07-1.06 2.02 1.49-.2M49.48 118.3l2.81-.14-2.25 4.28 3.16-.42M49.91 104.96l3.68-.19-2.94 5.62 4.14-.55" style="fill:none;stroke-linecap:round;stroke:#701616;stroke-linejoin:round"/></svg>