<svg xmlns="http://www.w3.org/2000/svg" viewBox="0 0 150 150"><path d="M36.84 149.47H58v-10.39l-4.91 5.59H36.84" style="stroke-linejoin:round;fill:#c5c7c9;stroke:#929497"/><path d="M.5 130.89h43.31v18.58H.5z" style="stroke-linejoin:round;stroke:#701616;fill:#f89e4f"/><path d="M1.16 110.06h43.31v18.58H1.16z" style="stroke-linejoin:round;stroke:#701616;fill:#f89e4f" transform="rotate(4.16 22.808 119.378)"/><path d="M20.22 149.47s1.17-10.39 3.51-10.39 3.51 10.39 3.51 10.39h-7.01Z" style="stroke-linejoin:round;fill:#c5c7c9;stroke:#929497"/><path d="M35.27 135.27c-2.61-.41-2.93 1.45-2.93 1.45s.11 1.54 1.01-.37M27.3 122.6s2.81-2.07 5.25.37m3.29.27s2.81-2.07 5.25.37m6.06 3.57 1.32-.07-1.06 2.02 1.49-.2m.58-10.63 2.81-.14-2.25 4.28 3.16-.42m-3.29-17.06 3.68-.19-2.94 5.62 4.14-.55" style="fill:none;stroke-linecap:round;stroke-linejoin:round;stroke:#701616"/></svg>