<svg id="Layer_1" data-name="Layer 1" xmlns="http://www.w3.org/2000/svg" viewBox="0 0 150 150"><defs><style>.cls-1{fill:#c5c7c9;stroke:#929497;}.cls-1,.cls-2,.cls-3{stroke-linejoin:round;}.cls-2{fill:#f89e4f;}.cls-2,.cls-3{stroke:#701616;}.cls-3{fill:none;stroke-linecap:round;}</style></defs><polyline class="cls-1" points="36.84 149.47 58 149.47 58 144.67 58 144.67 58 139.08 53.09 144.67 36.84 144.67"/><rect class="cls-2" x="0.5" y="130.89" width="43.31" height="18.58"/><rect class="cls-2" x="1.16" y="110.06" width="43.31" height="18.58" transform="translate(8.72 -1.34) rotate(4.16)"/><path class="cls-1" d="M20.22,149.47s1.17-10.39,3.51-10.39,3.51,10.39,3.51,10.39Z"/><path class="cls-3" d="M35.27,135.27c-2.61-.41-2.93,1.45-2.93,1.45s.11,1.54,1-.38"/><path class="cls-3" d="M27.3,122.6a4.06,4.06,0,0,1,5.25.37"/><path class="cls-3" d="M35.84,123.24a4.08,4.08,0,0,1,5.26.37"/><polyline class="cls-3" points="47.15 127.18 48.47 127.11 47.41 129.13 48.9 128.93"/><polyline class="cls-3" points="49.48 118.3 52.29 118.16 50.04 122.44 53.2 122.02"/><polyline class="cls-3" points="49.91 104.96 53.59 104.77 50.65 110.39 54.79 109.84"/></svg>