<?xml version="1.0" encoding="UTF-8"?><svg id="a" xmlns="http://www.w3.org/2000/svg" viewBox="0 0 150 150"><defs><style>.b{fill:none;stroke-linecap:round;}.b,.c,.d{stroke-linejoin:round;}.b,.d{stroke:#701616;}.e{fill:#fff;}.f{fill:#701616;}.c{fill:#c5c7c9;stroke:#929497;}.d{fill:#f89e4f;}</style></defs><g><polyline class="c" points="81.19 128.36 81.19 149.53 85.98 149.53 85.98 149.53 91.57 149.53 85.98 144.61 85.98 128.36"/><polyline class="c" points="65.8 128.36 65.8 149.53 61 149.53 61 149.53 55.41 149.53 61 144.61 61 128.36"/></g><rect class="d" x="47.47" y="109.78" width="52.05" height="18.58"/><rect class="d" x="47.47" y="85.84" width="52.05" height="18.58"/><g><g><line class="b" x1="62.4" y1="94.14" x2="70.02" y2="94.14"/><path class="f" d="M63.6,94.9c0,2.78,1.17,5.04,2.61,5.04s2.61-2.25,2.61-5.04c0-.15-.02-.3-.02-.45h-5.17c0,.15-.02,.29-.02,.45Z"/></g><g><line class="b" x1="76.97" y1="94.14" x2="84.59" y2="94.14"/><path class="f" d="M78.17,94.9c0,2.78,1.17,5.04,2.61,5.04s2.61-2.25,2.61-5.04c0-.15-.02-.3-.02-.45h-5.17c0,.15-.02,.29-.02,.45Z"/></g></g><line class="b" x1="68.28" y1="114.18" x2="78.71" y2="114.18"/><ellipse class="e" cx="67.2" cy="96.36" rx=".82" ry="1.22"/><ellipse class="e" cx="81.95" cy="96.36" rx=".82" ry="1.22"/></svg>