<svg data-name="Layer 1" xmlns="http://www.w3.org/2000/svg" viewBox="0 0 150 150"><path style="stroke-linejoin:round;fill:#c5c7c9;stroke:#929497" d="M87.95 149.47h21.17v-10.39l-4.92 5.59H87.95"/><path style="stroke:#701616;fill:#f89e4f;stroke-linejoin:round" d="M51.61 130.89h43.31v18.58H51.61zM51.61 106.95h43.31v18.58H51.61z"/><path d="M79 116c0 2.68-1.82 4.85-4.06 4.85s-4.07-2.17-4.07-4.85M91 116c0 2.68-1.82 4.85-4.06 4.85s-4.07-2.17-4.07-4.85M76.7 111.78l2.98 2.38M85.48 111.78l-2.98 2.38M77.12 136.09s9.57-4.63 9.84-.24" style="fill:none;stroke-linecap:round;stroke:#701616;stroke-linejoin:round"/><path d="M64.65 149.47s1.17-10.39 3.51-10.39 3.5 10.39 3.5 10.39Z" style="stroke-linejoin:round;fill:#c5c7c9;stroke:#929497"/></svg>