<svg id="Layer_1" data-name="Layer 1" xmlns="http://www.w3.org/2000/svg" viewBox="0 0 150 150"><defs><style>.cls-1{fill:#c5c7c9;stroke:#929497;}.cls-1,.cls-2,.cls-3{stroke-linejoin:round;}.cls-2{fill:#f89e4f;}.cls-2,.cls-3{stroke:#701616;}.cls-3{fill:none;stroke-linecap:round;}.cls-4{fill:#701616;}.cls-5{fill:#fff;}</style></defs><polyline class="cls-1" points="72.68 128.36 72.68 144.57 74.5 149.53 64.92 149.53 67.89 144.61 67.89 128.36"/><polyline class="cls-1" points="81.03 128.36 81.03 144.57 79.22 149.53 88.8 149.53 85.83 144.61 85.83 128.36"/><rect class="cls-2" x="50.83" y="109.78" width="52.05" height="18.58"/><rect class="cls-2" x="50.83" y="85.84" width="52.05" height="18.58"/><line class="cls-3" x1="80.78" y1="97.34" x2="88.22" y2="97.34"/><path class="cls-4" d="M68.68,93.64c0-2.84,1.43-2.06,3.18-2.06s3.19-.78,3.19,2.06-1.43,5.14-3.19,5.14S68.68,96.48,68.68,93.64Z"/><line class="cls-3" x1="67.79" y1="91.78" x2="75.94" y2="91.78"/><path class="cls-4" d="M84.5,91.48c-1.76,0-3.18,2.3-3.18,5.14,0,.14,0,.25,0,.37h6.34c0-.12,0-.23,0-.37C87.68,93.78,86.26,91.48,84.5,91.48Z"/><line class="cls-3" x1="80.6" y1="92.79" x2="87.68" y2="89.37"/><line class="cls-3" x1="78.72" y1="112.43" x2="75" y2="112.43"/><ellipse class="cls-5" cx="73.53" cy="94.17" rx="0.82" ry="1.22"/><ellipse class="cls-5" cx="85.39" cy="94.17" rx="0.82" ry="1.22"/></svg>