<svg data-name="Layer 1" xmlns="http://www.w3.org/2000/svg" viewBox="0 0 150 150"><path style="stroke-linejoin:round;fill:#c5c7c9;stroke:#929497" d="M72.68 128.36v16.21l1.82 4.96h-9.58l2.97-4.92v-16.25M81.03 128.36v16.21l-1.81 4.96h9.58l-2.97-4.92v-16.25"/><path style="stroke:#701616;fill:#f89e4f;stroke-linejoin:round" d="M50.83 109.78h52.05v18.58H50.83zM50.83 85.84h52.05v18.58H50.83z"/><path style="fill:none;stroke-linecap:round;stroke:#701616;stroke-linejoin:round" d="M80.78 97.34h7.44"/><path d="M68.68 93.64c0-2.84 1.43-2.06 3.18-2.06s3.19-.78 3.19 2.06-1.43 5.14-3.19 5.14-3.18-2.3-3.18-5.14Z" style="fill:#701616"/><path style="fill:none;stroke-linecap:round;stroke:#701616;stroke-linejoin:round" d="M67.79 91.78h8.15"/><path d="M84.5 91.48c-1.76 0-3.18 2.3-3.18 5.14v.37h6.34v-.37c.02-2.84-1.4-5.14-3.16-5.14Z" style="fill:#701616"/><path style="fill:none;stroke-linecap:round;stroke:#701616;stroke-linejoin:round" d="m80.6 92.79 7.08-3.42M78.72 112.43H75"/><ellipse cx="73.53" cy="94.17" rx=".82" ry="1.22" style="fill:#fff"/><ellipse cx="85.39" cy="94.17" rx=".82" ry="1.22" style="fill:#fff"/></svg>