<svg id="Layer_1" data-name="Layer 1" xmlns="http://www.w3.org/2000/svg" viewBox="0 0 150 150"><defs><style>.cls-1{fill:#c5c7c9;stroke:#929497;}.cls-1,.cls-2,.cls-3{stroke-linejoin:round;}.cls-2{fill:#f89e4f;}.cls-2,.cls-3{stroke:#701616;}.cls-3{fill:none;stroke-linecap:round;}.cls-4{fill:#701616;}.cls-5{fill:#fff;}</style></defs><polyline class="cls-1" points="81.19 128.36 81.19 149.53 85.98 149.53 85.98 149.53 91.58 149.53 85.98 144.61 85.98 128.36"/><polyline class="cls-1" points="65.8 128.36 65.8 149.53 61 149.53 61 149.53 55.41 149.53 61 144.61 61 128.36"/><rect class="cls-2" x="47.47" y="109.78" width="52.05" height="18.58"/><rect class="cls-2" x="47.47" y="85.84" width="52.05" height="18.58"/><line class="cls-3" x1="62.4" y1="94.14" x2="70.02" y2="94.14"/><path class="cls-4" d="M63.6,94.9c0,2.78,1.17,5,2.61,5s2.6-2.25,2.6-5c0-.15,0-.3,0-.45H63.62C63.62,94.6,63.6,94.75,63.6,94.9Z"/><line class="cls-3" x1="76.97" y1="94.14" x2="84.59" y2="94.14"/><path class="cls-4" d="M78.17,94.9c0,2.78,1.17,5,2.61,5s2.61-2.25,2.61-5c0-.15,0-.3,0-.45H78.2C78.19,94.6,78.17,94.75,78.17,94.9Z"/><line class="cls-3" x1="68.28" y1="114.18" x2="78.71" y2="114.18"/><ellipse class="cls-5" cx="67.2" cy="96.36" rx="0.82" ry="1.22"/><ellipse class="cls-5" cx="81.95" cy="96.36" rx="0.82" ry="1.22"/></svg>