<svg data-name="Layer 1" xmlns="http://www.w3.org/2000/svg" viewBox="0 0 150 150"><path style="stroke-linejoin:round;fill:#c5c7c9;stroke:#929497" d="M79.7 128.36v21.17H90.08l-5.58-4.92v-16.25M72.1 128.36v16.21l1.81 4.96h-9.58l2.97-4.92v-16.25"/><path style="stroke:#701616;fill:#f89e4f;stroke-linejoin:round" d="M48.97 109.78h52.05v18.58H48.97zM48.97 85.84h52.05v18.58H48.97z"/><path d="M77.74 94.92c0 2.68-1.82 4.85-4.06 4.85s-4.07-2.17-4.07-4.85M89.78 94.92c0 2.68-1.82 4.85-4.06 4.85s-4.07-2.17-4.07-4.85M75.46 90.67l2.98 2.38M84.24 90.67l-2.98 2.38M75.88 115s9.57-4.63 9.84-.24" style="fill:none;stroke-linecap:round;stroke:#701616;stroke-linejoin:round"/></svg>