<svg xmlns="http://www.w3.org/2000/svg" viewBox="0 0 150 150"><path d="M79.7 128.36v21.17h10.38l-5.59-4.92v-16.25m-12.39 0v16.21l1.81 4.96h-9.58l2.97-4.92v-16.25" style="stroke-linejoin:round;fill:#c5c7c9;stroke:#929497"/><path d="M48.97 109.78h52.05v18.58H48.97zm0-23.94h52.05v18.58H48.97z" style="stroke-linejoin:round;stroke:#701616;fill:#f89e4f"/><path d="M77.74 94.92c0 2.67-1.82 4.84-4.07 4.84s-4.07-2.17-4.07-4.84m20.18 0c0 2.67-1.82 4.84-4.07 4.84s-4.07-2.17-4.07-4.84m-6.18-4.25 2.98 2.38m5.8-2.38-2.98 2.38m-5.38 21.93s9.56-4.63 9.83-.24" style="fill:none;stroke-linecap:round;stroke-linejoin:round;stroke:#701616"/></svg>