<svg xmlns="http://www.w3.org/2000/svg" viewBox="0 0 150 150"><path d="M81.19 128.36v21.17h10.38l-5.59-4.92v-16.25m-20.18 0v21.17H55.41l5.59-4.92v-16.25" style="stroke-linejoin:round;fill:#c5c7c9;stroke:#929497"/><path d="M47.47 109.78h52.05v18.58H47.47zm0-23.94h52.05v18.58H47.47z" style="stroke-linejoin:round;stroke:#701616;fill:#f89e4f"/><path d="M62.4 94.14h7.62" style="fill:none;stroke-linecap:round;stroke-linejoin:round;stroke:#701616"/><path d="M63.6 94.9c0 2.78 1.17 5.04 2.61 5.04s2.61-2.25 2.61-5.04c0-.15-.02-.3-.02-.45h-5.17c0 .15-.02.29-.02.45Z" style="fill:#701616"/><path d="M76.97 94.14h7.62" style="fill:none;stroke-linecap:round;stroke-linejoin:round;stroke:#701616"/><path d="M78.17 94.9c0 2.78 1.17 5.04 2.61 5.04s2.61-2.25 2.61-5.04c0-.15-.02-.3-.02-.45H78.2c0 .15-.02.29-.02.45Z" style="fill:#701616"/><path d="M68.28 114.18h10.43" style="fill:none;stroke-linecap:round;stroke-linejoin:round;stroke:#701616"/><ellipse cx="67.2" cy="96.36" rx=".82" ry="1.22" style="fill:#fff"/><ellipse cx="81.95" cy="96.36" rx=".82" ry="1.22" style="fill:#fff"/></svg>