<svg id="Layer_1" data-name="Layer 1" xmlns="http://www.w3.org/2000/svg" viewBox="0 0 150 150"><defs><style>.cls-1{fill:#c5c7c9;stroke:#929497;}.cls-1,.cls-2,.cls-3{stroke-linejoin:round;}.cls-2{fill:#f89e4f;}.cls-2,.cls-3{stroke:#701616;}.cls-3{fill:none;stroke-linecap:round;}</style></defs><polyline class="cls-1" points="87.95 149.47 109.12 149.47 109.12 144.67 109.12 144.67 109.12 139.08 104.2 144.67 87.95 144.67"/><rect class="cls-2" x="51.61" y="130.89" width="43.31" height="18.58"/><rect class="cls-2" x="51.61" y="106.95" width="43.31" height="18.58"/><path class="cls-3" d="M79,116c0,2.68-1.82,4.85-4.06,4.85s-4.07-2.17-4.07-4.85"/><path class="cls-3" d="M91,116c0,2.68-1.82,4.85-4.06,4.85s-4.07-2.17-4.07-4.85"/><line class="cls-3" x1="76.7" y1="111.78" x2="79.68" y2="114.16"/><line class="cls-3" x1="85.48" y1="111.78" x2="82.5" y2="114.16"/><path class="cls-3" d="M77.12,136.09s9.57-4.63,9.84-.24"/><path class="cls-1" d="M64.65,149.47s1.17-10.39,3.51-10.39,3.5,10.39,3.5,10.39Z"/></svg>