<svg xmlns="http://www.w3.org/2000/svg" viewBox="0 0 150 150"><path style="fill:#c5c7c9;stroke:#929497;stroke-linejoin:round" d="M81.19 128.36v21.17H91.57l-5.59-4.92v-16.25M65.8 128.36v21.17H55.41l5.59-4.92v-16.25"/><path style="fill:#f89e4f;stroke:#701616;stroke-linejoin:round" d="M47.47 109.78h52.05v18.58H47.47zM47.47 85.84h52.05v18.58H47.47z"/><path style="stroke:#701616;stroke-linejoin:round;fill:none;stroke-linecap:round" d="M62.4 94.14h7.62"/><path d="M63.6 94.9c0 2.78 1.17 5.04 2.61 5.04s2.61-2.25 2.61-5.04c0-.15-.02-.3-.02-.45h-5.17c0 .15-.02.29-.02.45Z" style="fill:#701616"/><path style="stroke:#701616;stroke-linejoin:round;fill:none;stroke-linecap:round" d="M76.97 94.14h7.62"/><path d="M78.17 94.9c0 2.78 1.17 5.04 2.61 5.04s2.61-2.25 2.61-5.04c0-.15-.02-.3-.02-.45H78.2c0 .15-.02.29-.02.45Z" style="fill:#701616"/><path style="stroke:#701616;stroke-linejoin:round;fill:none;stroke-linecap:round" d="M68.28 114.18h10.43"/><ellipse cx="67.2" cy="96.36" rx=".82" ry="1.22" style="fill:#fff"/><ellipse cx="81.95" cy="96.36" rx=".82" ry="1.22" style="fill:#fff"/></svg>