<svg id="Layer_1" data-name="Layer 1" xmlns="http://www.w3.org/2000/svg" viewBox="0 0 150 150"><defs><style>.cls-1{fill:#c5c7c9;stroke:#929497;}.cls-1,.cls-2,.cls-3{stroke-linejoin:round;}.cls-2{fill:#f89e4f;}.cls-2,.cls-3{stroke:#701616;}.cls-3{fill:none;stroke-linecap:round;}</style></defs><polyline class="cls-1" points="79.7 128.36 79.7 149.53 84.5 149.53 84.5 149.53 90.08 149.53 84.5 144.61 84.5 128.36"/><polyline class="cls-1" points="72.1 128.36 72.1 144.57 73.91 149.53 64.33 149.53 67.3 144.61 67.3 128.36"/><rect class="cls-2" x="48.97" y="109.78" width="52.05" height="18.58"/><rect class="cls-2" x="48.97" y="85.84" width="52.05" height="18.58"/><path class="cls-3" d="M77.74,94.92c0,2.68-1.82,4.85-4.06,4.85s-4.07-2.17-4.07-4.85"/><path class="cls-3" d="M89.78,94.92c0,2.68-1.82,4.85-4.06,4.85s-4.07-2.17-4.07-4.85"/><line class="cls-3" x1="75.46" y1="90.67" x2="78.44" y2="93.05"/><line class="cls-3" x1="84.24" y1="90.67" x2="81.26" y2="93.05"/><path class="cls-3" d="M75.88,115s9.57-4.63,9.84-.24"/></svg>