<svg xmlns="http://www.w3.org/2000/svg" viewBox="0 0 150 150"><path d="M87.95 149.47h21.17v-10.39l-4.92 5.59H87.95" style="stroke-linejoin:round;fill:#c5c7c9;stroke:#929497"/><path d="M51.61 130.89h43.31v18.58H51.61zm0-23.94h43.31v18.58H51.61z" style="stroke-linejoin:round;stroke:#701616;fill:#f89e4f"/><path d="M78.98 116.03c0 2.67-1.82 4.84-4.07 4.84s-4.07-2.17-4.07-4.84m20.18 0c0 2.67-1.82 4.84-4.07 4.84s-4.07-2.17-4.07-4.84m-6.18-4.25 2.98 2.38m5.8-2.38-2.98 2.38m-5.38 21.93s9.56-4.63 9.83-.24" style="fill:none;stroke-linecap:round;stroke-linejoin:round;stroke:#701616"/><path d="M64.65 149.47s1.17-10.39 3.51-10.39 3.51 10.39 3.51 10.39h-7.01Z" style="stroke-linejoin:round;fill:#c5c7c9;stroke:#929497"/></svg>