<?xml version="1.0" encoding="UTF-8"?><svg id="a" xmlns="http://www.w3.org/2000/svg" viewBox="0 0 150 150"><defs><style>.b{fill:none;stroke-linecap:round;}.b,.c,.d{stroke-linejoin:round;}.b,.d{stroke:#701616;}.c{fill:#c5c7c9;stroke:#929497;}.d{fill:#f89e4f;}</style></defs><g><polyline class="c" points="79.7 128.36 79.7 149.53 84.49 149.53 84.49 149.53 90.08 149.53 84.49 144.61 84.49 128.36"/><polyline class="c" points="72.1 128.36 72.1 144.57 73.91 149.53 64.33 149.53 67.3 144.61 67.3 128.36"/></g><rect class="d" x="48.97" y="109.78" width="52.05" height="18.58"/><rect class="d" x="48.97" y="85.84" width="52.05" height="18.58"/><path class="b" d="M77.74,94.92c0,2.67-1.82,4.84-4.07,4.84s-4.07-2.17-4.07-4.84"/><path class="b" d="M89.78,94.92c0,2.67-1.82,4.84-4.07,4.84s-4.07-2.17-4.07-4.84"/><line class="b" x1="75.46" y1="90.67" x2="78.44" y2="93.05"/><line class="b" x1="84.24" y1="90.67" x2="81.26" y2="93.05"/><path class="b" d="M75.88,114.98s9.56-4.63,9.83-.24"/></svg>