<svg xmlns="http://www.w3.org/2000/svg" viewBox="0 0 150 150"><path style="fill:#c5c7c9;stroke:#929497;stroke-linejoin:round" d="M87.95 149.47h21.17v-10.39l-4.92 5.59H87.95"/><path style="fill:#f89e4f;stroke:#701616;stroke-linejoin:round" d="M51.61 130.89h43.31v18.58H51.61zM51.61 106.95h43.31v18.58H51.61z"/><path d="M78.98 116.03c0 2.67-1.82 4.84-4.07 4.84s-4.07-2.17-4.07-4.84M91.02 116.03c0 2.67-1.82 4.84-4.07 4.84s-4.07-2.17-4.07-4.84M76.7 111.78l2.98 2.38M85.48 111.78l-2.98 2.38M77.12 136.09s9.56-4.63 9.83-.24" style="stroke:#701616;stroke-linejoin:round;fill:none;stroke-linecap:round"/><path d="M64.65 149.47s1.17-10.39 3.51-10.39 3.51 10.39 3.51 10.39h-7.01Z" style="fill:#c5c7c9;stroke:#929497;stroke-linejoin:round"/></svg>