<?xml version="1.0" encoding="UTF-8"?><svg id="a" xmlns="http://www.w3.org/2000/svg" viewBox="0 0 150 150"><defs><style>.b{fill:none;stroke-linecap:round;}.b,.c,.d{stroke-linejoin:round;}.b,.d{stroke:#701616;}.e{fill:#fff;}.f{fill:#701616;}.c{fill:#c5c7c9;stroke:#929497;}.d{fill:#f89e4f;}</style></defs><g><polyline class="c" points="72.68 128.36 72.68 144.57 74.5 149.53 64.92 149.53 67.89 144.61 67.89 128.36"/><polyline class="c" points="81.03 128.36 81.03 144.57 79.22 149.53 88.8 149.53 85.83 144.61 85.83 128.36"/></g><rect class="d" x="50.83" y="109.78" width="52.05" height="18.58"/><rect class="d" x="50.83" y="85.84" width="52.05" height="18.58"/><line class="b" x1="80.78" y1="97.34" x2="88.22" y2="97.34"/><path class="f" d="M68.68,93.64c0-2.84,1.42-2.06,3.18-2.06s3.18-.78,3.18,2.06-1.42,5.14-3.18,5.14-3.18-2.3-3.18-5.14Z"/><line class="b" x1="67.79" y1="91.78" x2="75.94" y2="91.78"/><path class="f" d="M84.5,91.48c-1.76,0-3.18,2.3-3.18,5.14,0,.13,0,.25,.01,.37h6.34c0-.12,.01-.24,.01-.37,0-2.84-1.42-5.14-3.18-5.14Z"/><line class="b" x1="80.6" y1="92.79" x2="87.68" y2="89.37"/><line class="b" x1="78.72" y1="112.43" x2="75" y2="112.43"/><ellipse class="e" cx="73.53" cy="94.17" rx=".82" ry="1.22"/><ellipse class="e" cx="85.39" cy="94.17" rx=".82" ry="1.22"/></svg>