<svg xmlns="http://www.w3.org/2000/svg" viewBox="0 0 150 150"><path d="M111.61 95.45c-1.78-.03-3.55-.14-5.32-.34-1.62-.18-3.2-.71-4.82-.79-.67-.03-1.47.02-2.08.35-.66.36-1.1 1.1-1.62 1.63-2.41 2.48-6.24 2.24-8.9.38-1.34-.93-2.53-1.77-4.21-1.83-1.51-.05-3.37.36-4.5 1.42-1.17 1.1-1.59 2.77-2.04 4.25-.55 1.79-1.01 3.61-1.41 5.44-1.49 6.76-2 13.67-3.64 20.4-.69 2.83-1.64 5.53-4.31 7.07-3.1 1.78-7.26 1.46-10.55.41-1.62-.52-3.18-1.24-4.67-2.06-6.35-3.49-12.36-7.57-17.76-12.41-5.08-4.55-9.73-9.62-13.32-15.44-1.04-1.68-2.12-3.34-3.09-5.06-2.44-4.33-4.73-8.92-6.39-13.61-1.32-3.72-1.79-7.47-1.58-11.4.08-1.55.2-3.1.43-4.64.14-.96.29-1.93.44-2.89.11-.7.49-1.74.25-2.41-.11-.3-.35-.52-.58-.74-4.4-4.17-8-9.86-5.42-16.04.79-1.9 2.08-3.8 3.77-5 2.37-1.68 5.04-2.91 7.57-4.31 1.21-.67 2.44-1.47 3.24-2.62s1.23-2.55 1.51-3.92c.5-2.44.74-5.11 1.64-7.44.82-2.13 2.18-4.06 3.93-5.53 3.16-2.66 7.82-4.1 11.77-2.41 1.29.55 2.42 1.38 3.56 2.19.99.7 2.32 1.83 3.53 2.07.84.17 1.6-.48 2.29-1 2.47-1.86 5.51-2.65 8.53-3.07 4.2-.58 8.47-.63 12.68-.16 3.67.4 7.37 1.43 10.81 2.77 3.14 1.22 6.38 2.21 9.49 3.55 2.26.98 4.46 2.09 6.53 3.43s4.06 2.68 5.53 4.63c2.06 2.73 2.92 6.15 4.02 9.33 1 2.89 2.15 5.71 3.45 8.48 1.13 2.42 2.33 4.7 4.16 6.69 1.85 2.01 4.03 3.69 6.3 5.19 5.57 3.68 11.42 6.66 15.69 11.96 1.31 1.62 2.23 3.47 2.56 5.53.43 2.67.02 5.37-1.32 7.73-1.26 2.23-3.43 3.64-5.63 4.85-3.09 1.69-6.35 3.33-9.77 4.23-3.47.91-7.09 1.23-10.67 1.19h-.07Z" style="fill:#fff"/><path d="M56.33 29.97c-.04 2.82-.59 5.36-1.44 7.84-1.13 3.32-2.9 6.25-5.35 8.76-1.61 1.65-3.26 3.25-4.9 4.86-.2.19-.66.55-.67.85 0 .09.03.19.06.28.48 1.3 1.26 2.46 1.65 3.78.33 1.15.76 2.2.97 3.37.49 2.67.86 5.38.81 8.1-.06 3.27-.77 6.59-2.49 9.37-.87 1.4-1.69 2.95-2.75 4.23-1.03 1.25-2.13 2.44-3.2 3.64-.21.23-.45.43-.67.65-2.46 2.33-6.87 2.02-9.52.23-.36-.24-.7-.51-.94-.87-.27-.39-.41-.86-.56-1.31a39.5 39.5 0 0 0-3.36-7.65c-.36-.63-.74-1.24-1.14-1.84-.89-1.3-1.93-2.49-3.09-3.55-.5-.45-.86-.96-1.39-1.38a79 79 0 0 1-7.59-6.88c-1.27-1.31-2.5-2.68-3.45-4.24-1.05-1.73-1.46-3.46-1.66-5.45-.16-1.57-.12-3.16.11-4.72.09-.57.2-1.15.46-1.67.27-.54.68-1 1.04-1.48.74-.98 1.35-2.11 2.36-2.81.49-.35 1.06-.57 1.62-.81 1.36-.58 2.61-1.36 3.94-1.97 1.21-.56 2.29-1.33 3.41-2.07.74-.48 1.38-1.11 1.87-1.85.36-.54.79-.83.99-1.5.19-.62.31-1.23.41-1.85s.37-1.25.56-1.85c.41-1.29.81-2.59 1.37-3.82 1.8-4.02 4.08-7.86 8.22-9.81.23-.11.47-.21.7-.31.72-.29 1.46-.5 2.23-.6 1.17-.14 2.35.01 3.5.23 1.01.19 2 .42 2.99.7.55.16 1.1.33 1.59.62.56.33 1.01.81 1.49 1.25.57.53 1.19 1 1.84 1.42.43.28.93.55 1.44.49 1.13-.13 2.18-2.05 3.37-1.05.57.48 1.17.94 1.66 1.5 1.85 2.1 3.02 4.54 3.4 7.33.09.67.08 1.36.11 1.86Z" style="fill:#734c31"/><path d="M131.21 85.42c-1.04.05-2.02-.27-2.69-1.3-.15-.24-.32-.47-.46-.72-.22-.42-.57-.61-.99-.66-.27-.03-.54-.02-.81-.03-.44-.02-.88-.02-1.31-.07-.47-.05-.92-.22-1.31-.52-.7-.54-.94-1.34-.63-2.21.12-.33.29-.66.51-.93.26-.33.59-.6.89-.88.2-.19.43-.36.62-.56.37-.4.49-.86.26-1.39-.11-.26-.24-.52-.35-.79-.47-1.2-.27-2.06.7-2.88.34-.29.72-.54 1.1-.76 1.13-.66 2.32-1.15 3.56-1.53.94-.29 1.87-.61 2.8-.9.29-.09.59-.14.88-.22.26-.07.51-.17.76-.26.36-.14.67-.01.92.25.28.29.35.74.17 1.1-.08.16-.18.31-.3.43-.52.49-1.35 1.28-1.61 1.96-.11.3-.03.72-.03 1.04v1.43c-.02.58-.02 1.16.05 1.74.12.97.47 1.9.59 2.87.15 1.11 0 2.24.26 3.33.1.42.24.89 0 1.24-.13.18-.33.28-.53.37-.92.42-2.03.83-3.08.88ZM83.85 61.78c-.73 0-1.41-.18-2.05-.5-3.25-1.62-5.06-4.21-5.22-7.87-.05-1.06.01-2.13.29-3.17.16-.61.39-1.18.76-1.68.38-.51.92-.67 1.39-.46.49.22.94.91.65 1.55-.11.24-.21.49-.31.73-.2.5-.33 1.01-.31 1.55 0 .08.03.23.07.24.11.02.23 0 .33-.04.4-.19.77-.44 1.19-.58.97-.31 1.84-.06 2.57.63.15.15.27.35.35.55.2.52-.05.99-.59 1.12-.17.04-.35.08-.52.08-.55-.02-.9.31-1.23.69-.8.92-.96 2.69.32 3.68.31.24.65.46.99.66.19.11.43.21.63.18.77-.12 1.56-.19 2.31-.45.17-.06.31-.17.48-.23.55-.19 1.22.18 1.35.74.11.45.04.88-.24 1.26-.32.44-.74.76-1.25.95-.29.11-.59.2-.89.26-.35.06-.7.07-1.06.11Zm30.7 1.54c.26.08.61.17.95.31.69.28 1.28.71 1.84 1.19.53.46 1.03.94 1.53 1.43.32.31.53.69.7 1.11.48 1.21-.65 2.22-1.78 2.02-.18-.03-.36-.09-.52-.18-1.32-.67-2.54-1.46-3.45-2.67-.29-.39-.54-.79-.68-1.25-.12-.4-.13-.8.06-1.18.25-.52.71-.72 1.35-.77Zm-5.3-4.57c-.65.01-1.07-.15-1.41-.44-.41-.36-.83-.74-1.16-1.17-.49-.64-.91-1.34-1.35-2.01-.08-.12-.13-.26-.19-.39-.25-.48-.16-.92.18-1.33.43-.52.97-.64 1.58-.36.13.06.26.14.38.23.93.73 1.8 1.52 2.51 2.47.31.42.52.89.61 1.4.1.51-.08.94-.43 1.3-.25.26-.57.31-.72.31Zm-4.65.95c.02 1.01-.54 1.53-1.45 1.45-.46-.04-.84-.25-1.17-.56-.74-.7-1.03-1.59-1.05-2.57-.01-.73.69-1.27 1.34-1.03 1.13.41 1.89 1.22 2.27 2.37.05.14.04.29.05.35Zm13.31 14.15c-.62-.08-1.16-.42-1.54-1-.28-.43-.11-1.04.35-1.48.39-.37.82-.42 1.3-.11.37.24.71.51.94.9.22.38.26.75.03 1.14-.23.38-.57.55-1.08.55m-3.51 9.7c-1.28-.02-1.98-.96-1.68-2.02.28-.99 1.23-1.59 2.13-1.36.79.2 1.36.81 1.43 1.51.06.57-.42 1.33-1.07 1.62-.31.14-.65.2-.81.25" style="fill:#ca926a"/><path d="M134.15 70.27c-.25.12-.5.25-.74.38-.86.47-1.52 1.24-2.15 1.98-.42.49-.84.99-1.12 1.57-.25.5-.39 1.06-.53 1.6-.26 1.02-.2 2.05.29 3 .13.25.29.49.45.72.36.53.58 1.12.97 1.63.42.56.95 1.04 1.48 1.5 1.26 1.11 2.55 2.21 3.99 3.07.22.13.46.26.71.26.56.01.93-.87 1.29-1.2.6-.55 1.2-1.09 1.79-1.63.86-.78 1.73-1.57 2.44-2.5.71-.92 1.27-1.99 1.42-3.15.13-.99-.04-2.31-.76-3.08-.4-.42-1.02-.73-1.5-1.07l-3.58-2.46-.44-.3-2.72-.95c-.43.22-.87.42-1.3.63Z"/><path d="M12.84 64.35c-1.76 3.81-1.8 8.65-1.39 12.72.7 6.98 3.21 13.76 6.31 20 3.35 6.76 7.48 12.92 12.93 18.16 5.36 5.15 11.26 9.74 17.58 13.67 4.86 3.03 9.66 6.07 15.62 5.93 2.18-.05 4.41-.69 6.01-2.17 1.16-1.07 1.91-2.51 2.55-3.96 2.32-5.25 2.91-11.15 3.59-16.84.61-5.08.7-11.49 4.16-15.63 1.79-2.14 3.91-2.1 6.19-.93 2.36 1.21 4.49 2.58 7.18 2.94 2.89.39 5.8-3.01 6.22-4.87" style="fill:none;stroke:#000;stroke-linejoin:round"/><path d="M76.89 79.17c8.12 8.28 19.63 14.51 31.12 16.22 6.64.99 13.88.35 19.94-2.7 3.6-1.81 6.89-4.19 9.89-6.87 2.25-2.02 6.75-5.35 6.81-8.64.08-4.24-5.43-5.96-8.42-7.62-4.97-2.75-9.92-5.56-14.43-9.04-3.59-2.77-7.06-5.95-9.81-9.63-2.16-2.89-3.76-6.2-4.82-9.64-1.01-3.27-1.7-6.72-3.61-9.62-3.37-5.13-10.34-8.14-15.75-10.58-6.3-2.83-13.1-5.29-20.1-5.79-6.75-.48-14.79 1.07-20.04 5.66-2.66-2.56-5.97-4.32-6.51-4.54-2.89-1.22-6.09-1.53-8.92-.06-5.84 3.03-8.69 8.42-9.96 14.62-.64 3.12-1.12 6.28-1.68 9.41-.41 2.29-.68 4.85-1.64 7" style="stroke-linecap:round;fill:none;stroke:#000;stroke-linejoin:round"/><path d="M21.67 33.67s-2.09 4.25-10.17 7.46c-5.33 2.12-7.37 9.7-5.39 14.64 1.11 2.77 3.1 5.1 5.22 7.2 6.02 5.96 13.11 10.94 15.51 19.51.73 2.59 3.01 5.08 6.53 5.08s8.6-2.9 12.54-12.33c1-2.39 3.01-8.19.41-17.93-1.26-4.75-10.67-15.34-8.81-22.59.96-3.72 4.15-7.15 4.15-7.15m95.55 58.45s-6.74-4.56-7.77-8.19 5.91-8.71 5.91-8.71" style="stroke-linecap:round;fill:none;stroke:#000;stroke-linejoin:round"/><ellipse cx="84.41" cy="51.76" rx="6.91" ry="8.32"/><circle cx="86.3" cy="50.53" r="2.97" style="fill:#fff"/></svg>