<svg id="Layer_1" data-name="Layer 1" xmlns="http://www.w3.org/2000/svg" viewBox="0 0 150 150"><defs><style>.cls-1{fill:#c5c6c8;stroke:#909395;}.cls-1,.cls-2,.cls-3,.cls-4,.cls-5{stroke-linejoin:round;}.cls-2{fill:#2dc5f4;}.cls-2,.cls-3,.cls-4,.cls-5{stroke:#0b6a88;}.cls-3{fill:none;}.cls-3,.cls-4{stroke-width:2px;}.cls-4,.cls-5,.cls-7{fill:#fff;}.cls-5{stroke-linecap:round;}.cls-6{fill:#0b6a88;}</style></defs><path class="cls-1" d="M71.16,57.6c1.49,18.8,4.92,56,2.25,83.89v0a26.25,26.25,0,0,1,5.26,8.15H61.15c-.72-.51,1.29-5.47,3.61-8.24a419.22,419.22,0,0,0-2-83"/><path class="cls-1" d="M85.68,47.46c.09,10.2,6.2,59.25,2.87,93.94v0L101,149.62l-21.86,0a415.57,415.57,0,0,0-2.24-98.22"/><path class="cls-2" d="M106.47,103.52a16.94,16.94,0,0,1-2.56.25c-4.24.07-8.1-1.56-9.75-5.67a15.78,15.78,0,0,1-.71-2.31,53.53,53.53,0,0,1-1-5.7l-3.66-31.2L56.23,62.72l5.3,45.14L50,109.22,44.7,64.07,35,65.22l.09-12,73-8.57,2.87,11.65-10.58,1.24,3.52,30c.1.87.22,1.74.36,2.6a7.47,7.47,0,0,0,.75,2.31A3.85,3.85,0,0,0,106.49,94a4.59,4.59,0,0,0,2.73.34,9.32,9.32,0,0,0,2.5-.66,17.44,17.44,0,0,0,2.43-1.24l.9,7.68c0,.24-2.11,1.19-2.39,1.33a25.66,25.66,0,0,1-2.81,1.18A20.7,20.7,0,0,1,106.47,103.52Z"/><path class="cls-3" d="M84.28,39a119.15,119.15,0,0,0-14.09.53,117.62,117.62,0,0,0-13.84,2.75"/><circle class="cls-4" cx="52.62" cy="43.65" r="12.23"/><path class="cls-5" d="M38.76,33.89A9.21,9.21,0,0,1,42.67,30"/><circle class="cls-6" cx="53.21" cy="43.37" r="5.49"/><circle class="cls-7" cx="55.39" cy="44.77" r="2.17"/><circle class="cls-7" cx="52.25" cy="43.29" r="0.97"/><circle class="cls-7" cx="52.49" cy="45.07" r="0.44"/><path class="cls-6" d="M76.8,53.18A6.25,6.25,0,0,1,66.43,54.4a.65.65,0,0,1,.08-.91.63.63,0,0,1,.75-.06,7.21,7.21,0,0,0,4.46,1.22,7.14,7.14,0,0,0,4-2.22.65.65,0,0,1,1,.75Z"/><circle class="cls-4" cx="87.88" cy="39.51" r="12.23"/><circle class="cls-6" cx="88.5" cy="39.24" r="5.49"/><circle class="cls-7" cx="90.68" cy="40.64" r="2.17"/><circle class="cls-7" cx="87.55" cy="39.16" r="0.97"/><circle class="cls-7" cx="87.79" cy="40.93" r="0.44"/><path class="cls-5" d="M99.1,26.8a9.33,9.33,0,0,0-4.7-2.86"/></svg>