<svg data-name="Layer 1" xmlns="http://www.w3.org/2000/svg" viewBox="0 0 150 150"><path d="M71.16 57.6c1.49 18.8 4.92 56 2.25 83.89a26.25 26.25 0 0 1 5.26 8.15H61.15c-.72-.51 1.29-5.47 3.61-8.24a419.22 419.22 0 0 0-2-83M85.68 47.46c.09 10.2 6.2 59.25 2.87 93.94l12.45 8.22H79.14A415.57 415.57 0 0 0 76.9 51.4" style="stroke-linejoin:round;fill:#c5c6c8;stroke:#909395"/><path d="M106.47 103.52a16.94 16.94 0 0 1-2.56.25c-4.24.07-8.1-1.56-9.75-5.67a15.78 15.78 0 0 1-.71-2.31 53.53 53.53 0 0 1-1-5.7l-3.66-31.2-32.56 3.83 5.3 45.14L50 109.22l-5.3-45.15-9.7 1.15.09-12 73-8.57 2.87 11.65-10.58 1.24 3.52 30c.1.87.22 1.74.36 2.6a7.47 7.47 0 0 0 .75 2.31 3.85 3.85 0 0 0 1.48 1.55 4.59 4.59 0 0 0 2.73.34 9.32 9.32 0 0 0 2.5-.66 17.44 17.44 0 0 0 2.43-1.24l.9 7.68c0 .24-2.11 1.19-2.39 1.33a25.66 25.66 0 0 1-2.81 1.18 20.7 20.7 0 0 1-3.38.89Z" style="stroke:#0b6a88;fill:#2dc5f4;stroke-linejoin:round"/><path d="M84.28 39a119.15 119.15 0 0 0-14.09.53 117.62 117.62 0 0 0-13.84 2.75" style="stroke-width:2px;fill:none;stroke:#0b6a88;stroke-linejoin:round"/><circle cx="52.62" cy="43.65" r="12.23" style="fill:#fff;stroke-width:2px;stroke:#0b6a88;stroke-linejoin:round"/><path d="M38.76 33.89A9.21 9.21 0 0 1 42.67 30" style="stroke-linecap:round;fill:#fff;stroke:#0b6a88;stroke-linejoin:round"/><circle cx="53.21" cy="43.37" r="5.49" style="fill:#0b6a88"/><circle cx="55.39" cy="44.77" r="2.17" style="fill:#fff"/><circle cx="52.25" cy="43.29" r=".97" style="fill:#fff"/><circle cx="52.49" cy="45.07" r=".44" style="fill:#fff"/><path d="M76.8 53.18a6.25 6.25 0 0 1-10.37 1.22.65.65 0 0 1 .08-.91.63.63 0 0 1 .75-.06 7.21 7.21 0 0 0 4.46 1.22 7.14 7.14 0 0 0 4-2.22.65.65 0 0 1 1 .75Z" style="fill:#0b6a88"/><circle cx="87.88" cy="39.51" r="12.23" style="fill:#fff;stroke-width:2px;stroke:#0b6a88;stroke-linejoin:round"/><circle cx="88.5" cy="39.24" r="5.49" style="fill:#0b6a88"/><circle cx="90.68" cy="40.64" r="2.17" style="fill:#fff"/><circle cx="87.55" cy="39.16" r=".97" style="fill:#fff"/><circle cx="87.79" cy="40.93" r=".44" style="fill:#fff"/><path d="M99.1 26.8a9.33 9.33 0 0 0-4.7-2.86" style="stroke-linecap:round;fill:#fff;stroke:#0b6a88;stroke-linejoin:round"/></svg>