<svg xmlns="http://www.w3.org/2000/svg" viewBox="0 0 150 150"><path d="M80.9 59.96c5.22 8.61 35.15 47.16 49.82 78.27v-.02c2.08.09 14.64.65 14.64.65L126.94 150c-15.19-32.53-34.46-61.25-51.49-82.32m-51.07 33.86 29.69 20.35s7.01-17.29 12.72-58.1c.58-4.13 7.69-2.64 7.09 1.96-5.5 42.1-14.1 63.06-14.1 63.06a3.7 3.7 0 0 1-2.28 2.47c-.73.27-1.51.29-2.24.09-.39-.11-.76-.28-1.1-.51l-27.93-19.14c-2.02.53-14.19 3.69-14.19 3.69l12.33-13.88Z" style="stroke-linejoin:round;fill:#c5c6c8;stroke:#909395"/><path d="M127.6 107.39c-.83.14-1.68.22-2.52.24-4.19.07-8.01-1.53-9.63-5.59-.3-.74-.52-1.51-.7-2.29-.4-1.73-.72-3.6-.96-5.62l-3.62-30.8-32.18 3.78 5.23 44.57-11.38 1.34-5.23-44.57-9.63 1.13.09-11.84 72.09-8.46 2.83 11.5-10.45 1.23 3.48 29.63c.1.86.22 1.71.36 2.56s.39 1.61.74 2.28.85 1.18 1.48 1.54q.945.54 2.7.33c.86-.1 1.68-.32 2.47-.64q1.185-.495 2.4-1.23l.89 7.58c.02.23-2.08 1.18-2.36 1.31-.9.44-1.83.83-2.77 1.16-1.09.38-2.21.68-3.34.87Z" style="stroke-linejoin:round;stroke:#0b6a88;fill:#2dc5f4"/><path d="M105.7 43.74s-7.75-.21-13.92.52c-6.17.72-13.66 2.72-13.66 2.72" style="stroke-linejoin:round;stroke:#0b6a88;fill:none;stroke-width:2px"/><circle cx="74.44" cy="48.29" r="12.08" style="stroke-linejoin:round;fill:#fff;stroke:#0b6a88;stroke-width:2px"/><path d="M60.76 38.64c.86-1.62 2.2-2.97 3.86-3.83" style="stroke-linecap:round;stroke-linejoin:round;fill:#fff;stroke:#0b6a88"/><circle cx="78.02" cy="50.31" r="5.42" style="fill:#0b6a88"/><circle cx="80.17" cy="51.69" r="2.14" style="fill:#fff"/><circle cx="77.08" cy="50.23" r=".95" style="fill:#fff"/><circle cx="77.31" cy="51.98" r=".43" style="fill:#fff"/><ellipse cx="90.52" cy="58.54" rx="1.48" ry="1.15" style="fill:#f05124" transform="rotate(-82.77 90.522 58.535)"/><path d="M98.32 57.7c-1.87 3.96-7.51 4.62-10.25 1.2-.23-.27-.2-.68.07-.91.22-.18.52-.2.75-.06 1.29.8 2.88 1.38 4.39 1.19 1.51-.17 2.93-1.1 4-2.18.49-.52 1.37.13 1.03.75Z" style="fill:#0b6a88"/><path d="M15.62 53.3C4.68 46.46 1.35 32.04 8.19 21.1c6.84-10.95 21.25-14.28 32.2-7.44 9.7 6.06 13.4 18.07 9.36 28.34l7.43 9.7-11.98-2.42c-7.46 8.14-19.88 10.08-29.58 4.02Z" style="stroke-linejoin:round;fill:#fff;stroke:#ce7328"/><path d="m42.03 35.26-.72 8.13-27.63-5.17.73-8.15" style="stroke-linejoin:round;stroke:#ce7328;fill:#f89e4f"/><path d="M41.07 42.56c-2.76-.52-1.55-7.01-4.31-7.52-2.76-.52-3.97 5.97-6.74 5.46-2.76-.52-1.55-7.01-4.31-7.52s-3.98 5.97-6.74 5.45-1.55-7.01-4.32-7.52" style="stroke-linejoin:round;fill:none;stroke:#ce7328"/><path d="m24.45 21.9 17.58 13.36-27.62-5.19z" style="stroke-linejoin:round;stroke:#ce7328;fill:#f89e4f"/><circle cx="14.41" cy="30.07" r="2.45" style="fill:#ce7328"/><circle cx="24.45" cy="21.9" r="2.45" style="fill:#ce7328"/><path d="m13.33 27.87 9.55-7.84 3.02 3.85-9.95 8.09z" style="fill:#ce7328"/><circle cx="109.25" cy="44.2" r="12.08" style="stroke-linejoin:round;fill:#fff;stroke:#0b6a88;stroke-width:2px"/><circle cx="112.86" cy="46.23" r="5.42" style="fill:#0b6a88"/><circle cx="115.01" cy="47.61" r="2.14" style="fill:#fff"/><circle cx="111.92" cy="46.15" r=".95" style="fill:#fff"/><circle cx="112.16" cy="47.9" r=".43" style="fill:#fff"/><path d="M120.33 31.65a9.2 9.2 0 0 0-4.64-2.83" style="stroke-linecap:round;stroke-linejoin:round;fill:#fff;stroke:#0b6a88"/></svg>