<?xml version="1.0" encoding="UTF-8"?><svg id="a" xmlns="http://www.w3.org/2000/svg" viewBox="0 0 150 150"><defs><style>.b{stroke-linecap:round;}.b,.c,.d,.e,.f,.g,.h,.i{stroke-linejoin:round;}.b,.j,.d,.f{fill:#fff;}.b,.d,.e,.h{stroke:#0b6a88;}.c,.e{fill:none;}.c,.f,.i{stroke:#ce7328;}.k{fill:#f05124;}.l{fill:#ce7328;}.m{fill:#0b6a88;}.d,.e{stroke-width:2px;}.g{fill:#c5c6c8;stroke:#909395;}.h{fill:#2dc5f4;}.i{fill:#f89e4f;}</style></defs><path class="g" d="M80.9,59.96c5.22,8.61,35.15,47.16,49.82,78.27v-.02c2.08,.09,14.64,.65,14.64,.65l-18.42,11.14c-15.19-32.53-34.46-61.25-51.49-82.32"/><g><path class="g" d="M24.38,101.54l29.69,20.35s7.01-17.29,12.72-58.1c.58-4.13,7.69-2.64,7.09,1.96-5.5,42.1-14.1,63.06-14.1,63.06-.32,1.14-1.17,2.06-2.28,2.47-.73,.27-1.51,.29-2.24,.09-.39-.11-.76-.28-1.1-.51l-27.93-19.14h0c-2.02,.53-14.19,3.69-14.19,3.69l12.33-13.88Z"/><path class="h" d="M127.6,107.39c-.83,.14-1.68,.22-2.52,.24-4.19,.07-8.01-1.53-9.63-5.59-.3-.74-.52-1.51-.7-2.29-.4-1.73-.72-3.6-.96-5.62l-3.62-30.8-32.18,3.78,5.23,44.57-11.38,1.34-5.23-44.57-9.63,1.13,.09-11.84,72.09-8.46,2.83,11.5-10.45,1.23,3.48,29.63c.1,.86,.22,1.71,.36,2.56,.14,.85,.39,1.61,.74,2.28,.35,.67,.85,1.18,1.48,1.54,.63,.36,1.53,.47,2.7,.33,.86-.1,1.68-.32,2.47-.64,.79-.33,1.59-.74,2.4-1.23l.89,7.58c.02,.23-2.08,1.18-2.36,1.31-.9,.44-1.83,.83-2.77,1.16-1.09,.38-2.21,.68-3.34,.87Z"/><path class="e" d="M105.7,43.74s-7.75-.21-13.92,.52c-6.17,.72-13.66,2.72-13.66,2.72"/><g><circle class="d" cx="74.44" cy="48.29" r="12.08"/><path class="b" d="M60.76,38.64c.86-1.62,2.2-2.97,3.86-3.83"/><circle class="m" cx="78.02" cy="50.31" r="5.42"/><circle class="j" cx="80.17" cy="51.69" r="2.14"/><circle class="j" cx="77.08" cy="50.23" r=".95"/><circle class="j" cx="77.31" cy="51.98" r=".43"/></g><ellipse class="k" cx="90.52" cy="58.54" rx="1.48" ry="1.15" transform="translate(21.06 140.97) rotate(-82.77)"/><path class="m" d="M98.32,57.7c-1.87,3.96-7.51,4.62-10.25,1.2-.23-.27-.2-.68,.07-.91,.22-.18,.52-.2,.75-.06,1.29,.8,2.88,1.38,4.39,1.19,1.51-.17,2.93-1.1,4-2.18,.49-.52,1.37,.13,1.03,.75h0Z"/><path class="f" d="M15.62,53.3C4.68,46.46,1.35,32.04,8.19,21.1c6.84-10.95,21.25-14.28,32.2-7.44,9.7,6.06,13.4,18.07,9.36,28.34l7.43,9.7-11.98-2.42c-7.46,8.14-19.88,10.08-29.58,4.02Z"/><g><polyline class="i" points="42.03 35.26 41.31 43.39 13.68 38.22 14.41 30.07"/><path class="c" d="M41.07,42.56c-2.76-.52-1.55-7.01-4.31-7.52-2.76-.52-3.97,5.97-6.74,5.46-2.76-.52-1.55-7.01-4.31-7.52s-3.98,5.97-6.74,5.45-1.55-7.01-4.32-7.52"/><polygon class="i" points="24.45 21.9 42.03 35.26 14.41 30.07 24.45 21.9"/><circle class="l" cx="14.41" cy="30.07" r="2.45"/><circle class="l" cx="24.45" cy="21.9" r="2.45"/><polygon class="l" points="13.33 27.87 22.88 20.03 25.9 23.88 15.95 31.97 13.33 27.87"/></g><g><circle class="d" cx="109.25" cy="44.2" r="12.08"/><circle class="m" cx="112.86" cy="46.23" r="5.42"/><circle class="j" cx="115.01" cy="47.61" r="2.14"/><circle class="j" cx="111.92" cy="46.15" r=".95"/><circle class="j" cx="112.16" cy="47.9" r=".43"/><path class="b" d="M120.33,31.65c-1.22-1.38-2.83-2.37-4.64-2.83"/></g></g></svg>