<svg data-name="Layer 1" xmlns="http://www.w3.org/2000/svg" viewBox="0 0 150 150"><path d="M80.9 60c5.22 8.61 35.15 47.16 49.83 78.27l14.65.65L127 150a411.06 411.06 0 0 0-51.5-82.32M24.38 101.54l29.69 20.34s7-17.29 12.72-58.1c.58-4.12 7.69-2.64 7.09 2-5.5 42.1-14.1 63.06-14.1 63.06a3.68 3.68 0 0 1-4.53 2.56 3.87 3.87 0 0 1-1.09-.51l-27.93-19.17L12 115.41Z" style="stroke-linejoin:round;fill:#c5c6c8;stroke:#909395"/><path d="M127.6 107.39a16.29 16.29 0 0 1-2.52.24c-4.19.07-8-1.53-9.63-5.59a16.66 16.66 0 0 1-.7-2.28 52.21 52.21 0 0 1-1-5.63l-3.61-30.8L78 67.11l5.23 44.57L71.85 113l-5.23-44.55L57 69.58l.09-11.85 72.09-8.46 2.82 11.5L121.56 62 125 91.63c.1.86.22 1.71.36 2.56a7 7 0 0 0 .74 2.28 3.73 3.73 0 0 0 1.52 1.53 4.42 4.42 0 0 0 2.7.33 9.08 9.08 0 0 0 2.47-.64 18.2 18.2 0 0 0 2.4-1.23l.89 7.58c0 .24-2.09 1.18-2.36 1.32a25.07 25.07 0 0 1-2.78 1.16 21 21 0 0 1-3.34.87Z" style="stroke:#0b6a88;fill:#2dc5f4;stroke-linejoin:round"/><path d="M105.7 43.74a116.58 116.58 0 0 0-13.92.51A117.25 117.25 0 0 0 78.13 47" style="stroke-width:2px;fill:none;stroke:#0b6a88;stroke-linejoin:round"/><circle cx="74.44" cy="48.29" r="12.08" style="fill:#fff;stroke-width:2px;stroke:#0b6a88;stroke-linejoin:round"/><path d="M60.76 38.64a9.12 9.12 0 0 1 3.86-3.82" style="stroke-linecap:round;fill:#fff;stroke:#0b6a88;stroke-linejoin:round"/><circle cx="78.02" cy="50.31" r="5.42" style="fill:#0b6a88"/><circle cx="80.17" cy="51.69" r="2.14" style="fill:#fff"/><circle cx="77.08" cy="50.23" r=".95" style="fill:#fff"/><circle cx="77.31" cy="51.98" r=".43" style="fill:#fff"/><ellipse cx="90.52" cy="58.54" rx="1.48" ry="1.15" transform="rotate(-82.77 90.522 58.535)" style="fill:#f05124"/><path d="M98.32 57.7a6.17 6.17 0 0 1-10.25 1.2.64.64 0 0 1 .08-.91.65.65 0 0 1 .75-.06 6.09 6.09 0 0 0 8.39-1 .65.65 0 0 1 1 .75Z" style="fill:#0b6a88"/><path d="M15.62 53.3A23.37 23.37 0 1 1 49.75 42l7.43 9.7-12-2.42a23.36 23.36 0 0 1-29.56 4.02Z" style="stroke:#ce7328;fill:#fff;stroke-linejoin:round"/><path style="fill:#f89e4f;stroke:#ce7328;stroke-linejoin:round" d="m42.03 35.26-.72 8.13-27.63-5.17.73-8.15"/><path d="M41.07 42.56c-2.76-.52-1.55-7-4.31-7.52s-4 6-6.74 5.45-1.55-7-4.31-7.52-4 6-6.74 5.45-1.55-7-4.32-7.52" style="stroke:#ce7328;fill:none;stroke-linejoin:round"/><path style="fill:#f89e4f;stroke:#ce7328;stroke-linejoin:round" d="m24.45 21.9 17.58 13.36-27.62-5.19 10.04-8.17z"/><circle cx="14.41" cy="30.07" r="2.45" style="fill:#ce7328"/><circle cx="24.45" cy="21.9" r="2.45" style="fill:#ce7328"/><path style="fill:#ce7328" d="m13.33 27.87 9.55-7.84 3.02 3.85-9.95 8.09-2.62-4.1z"/><circle cx="109.25" cy="44.2" r="12.08" style="fill:#fff;stroke-width:2px;stroke:#0b6a88;stroke-linejoin:round"/><circle cx="112.86" cy="46.23" r="5.42" style="fill:#0b6a88"/><circle cx="115.01" cy="47.61" r="2.14" style="fill:#fff"/><circle cx="111.92" cy="46.15" r=".95" style="fill:#fff"/><circle cx="112.16" cy="47.9" r=".43" style="fill:#fff"/><path d="M120.33 31.65a9.22 9.22 0 0 0-4.64-2.83" style="stroke-linecap:round;fill:#fff;stroke:#0b6a88;stroke-linejoin:round"/></svg>