<svg xmlns="http://www.w3.org/2000/svg" viewBox="0 0 150 150"><path d="M71.16 57.6c1.49 18.79 4.92 55.99 2.25 83.88v-.02c3.3 3.15 5.27 8.15 5.27 8.15H61.16c-.73-.51 1.29-5.47 3.61-8.24 2.32-30.17.96-59.13-2.04-82.97m22.95-10.94c.09 10.2 6.2 59.25 2.87 93.93v-.02c1.77 1.16 12.48 8.24 12.48 8.24l-21.86-.02c3.61-36.19 1.69-71.07-2.24-98.23" style="stroke-linejoin:round;fill:#c5c6c8;stroke:#909395"/><path d="M106.47 103.52c-.84.14-1.7.23-2.55.24-4.25.07-8.11-1.55-9.75-5.66-.3-.75-.53-1.53-.71-2.31-.41-1.75-.73-3.65-.97-5.7l-3.66-31.2-32.59 3.83 5.3 45.14-11.53 1.35-5.3-45.14-9.75 1.15.09-12 73.02-8.57 2.87 11.65-10.58 1.24 3.52 30.02c.1.87.22 1.73.36 2.59q.21 1.29.75 2.31t1.5 1.56c.64.36 1.55.48 2.74.34.87-.1 1.7-.32 2.5-.65s1.61-.75 2.43-1.24l.9 7.68c.02.24-2.11 1.19-2.39 1.33-.91.45-1.85.84-2.81 1.17-1.1.38-2.23.68-3.39.88Z" style="stroke-linejoin:round;stroke:#0b6a88;fill:#2dc5f4"/><path d="M84.28 39.04s-7.85-.21-14.1.53c-6.25.73-13.83 2.75-13.83 2.75" style="stroke-linejoin:round;stroke:#0b6a88;stroke-width:2px;fill:none"/><circle cx="52.62" cy="43.65" r="12.23" style="fill:#fff;stroke-linejoin:round;stroke:#0b6a88;stroke-width:2px"/><path d="M38.76 33.89c.87-1.64 2.23-3 3.91-3.88" style="stroke-linecap:round;fill:#fff;stroke-linejoin:round;stroke:#0b6a88"/><circle cx="53.21" cy="43.37" r="5.49" style="fill:#0b6a88"/><circle cx="55.39" cy="44.77" r="2.17" style="fill:#fff"/><circle cx="52.25" cy="43.29" r=".97" style="fill:#fff"/><circle cx="52.49" cy="45.07" r=".44" style="fill:#fff"/><path d="M76.8 53.18c-1.9 4-7.6 4.67-10.37 1.22-.23-.27-.2-.68.07-.91.22-.19.52-.2.75-.06 1.31.81 2.92 1.4 4.46 1.22 1.54-.17 2.97-1.12 4.05-2.21.49-.52 1.37.13 1.03.75Z" style="fill:#0b6a88"/><circle cx="87.88" cy="39.51" r="12.23" style="fill:#fff;stroke-linejoin:round;stroke:#0b6a88;stroke-width:2px"/><circle cx="88.5" cy="39.24" r="5.49" style="fill:#0b6a88"/><circle cx="90.68" cy="40.64" r="2.17" style="fill:#fff"/><circle cx="87.55" cy="39.16" r=".97" style="fill:#fff"/><circle cx="87.79" cy="40.93" r=".44" style="fill:#fff"/><path d="M99.1 26.8a9.26 9.26 0 0 0-4.7-2.86" style="stroke-linecap:round;fill:#fff;stroke-linejoin:round;stroke:#0b6a88"/></svg>