<svg id="Layer_1" data-name="Layer 1" xmlns="http://www.w3.org/2000/svg" xmlns:xlink="http://www.w3.org/1999/xlink" viewBox="0 0 150 150"><defs><style>.cls-1,.cls-10,.cls-8{fill:none;}.cls-2{clip-path:url(#clip-path);}.cls-3{fill:#f05124;}.cls-4{fill:#f89e4f;}.cls-5{fill:#fcee20;}.cls-6{fill:#f063a4;}.cls-7{fill:#9253a1;}.cls-10,.cls-8,.cls-9{stroke:#0b6a88;stroke-linejoin:round;}.cls-8,.cls-9{stroke-width:2px;}.cls-9{fill:#2dc5f4;}.cls-10{stroke-linecap:round;stroke-width:20px;}</style><clipPath id="clip-path"><path class="cls-1" d="M132.7,103.41,24.23,63.27,17.32,90a6.54,6.54,0,0,0,4.07,7.78l102.94,38Z"/></clipPath></defs><g class="cls-2"><polygon class="cls-3" points="144.95 115.97 146.93 109.49 14.26 60.48 12.27 66.97 144.95 115.97"/><polygon class="cls-4" points="142.96 122.43 144.94 115.94 12.27 66.94 10.28 73.42 142.96 122.43"/><polygon class="cls-5" points="140.97 128.88 142.95 122.4 10.27 73.39 8.29 79.88 140.97 128.88"/><polygon class="cls-6" points="138.98 135.34 140.96 128.85 8.28 79.85 6.3 86.34 138.98 135.34"/><polygon class="cls-7" points="136.99 141.79 138.97 135.31 6.29 86.3 4.31 92.79 136.99 141.79"/></g><path class="cls-8" d="M132.89,103.58l-8.42,32.55L22.74,99a8.32,8.32,0,0,1-5.21-9.9l6.56-25.33"/><polygon class="cls-9" points="70.43 37.39 132.89 103.58 24.09 63.81 70.43 37.39"/><line class="cls-10" x1="73.92" y1="35.41" x2="24.09" y2="63.81"/></svg>