<svg xmlns="http://www.w3.org/2000/svg" viewBox="0 0 150 150"><defs><clipPath id="a"><path d="M132.7 103.41 24.23 63.27l-6.91 26.72a6.55 6.55 0 0 0 4.07 7.78l102.94 38 8.37-32.37Z" style="fill:none"/></clipPath></defs><g style="clip-path:url(#a)"><path d="m144.95 115.97 1.98-6.48L14.26 60.48l-1.99 6.49z" style="fill:#f05124"/><path d="m142.96 122.43 1.98-6.49-132.67-49-1.99 6.49z" style="fill:#f89e4f"/><path d="m140.97 128.88 1.98-6.48L10.27 73.39l-1.98 6.49z" style="fill:#fcee20"/><path d="m138.98 135.34 1.98-6.49-132.68-49-1.98 6.49z" style="fill:#f063a4"/><path d="m136.99 141.79 1.98-6.48L6.29 86.3l-1.98 6.49z" style="fill:#9253a1"/></g><path d="m132.89 103.58-8.42 32.56-101.73-37.1a8.32 8.32 0 0 1-5.21-9.9l6.55-25.33" style="fill:none;stroke:#0b6a88;stroke-linejoin:round;stroke-width:2px"/><path d="m70.43 37.39 62.46 66.19-108.8-39.77z" style="stroke:#0b6a88;stroke-linejoin:round;fill:#2dc5f4;stroke-width:2px"/><path d="m73.92 35.41-49.83 28.4" style="fill:none;stroke-linecap:round;stroke-width:20px;stroke:#0b6a88;stroke-linejoin:round"/></svg>