<svg data-name="Layer 1" xmlns="http://www.w3.org/2000/svg" viewBox="0 0 150 150"><defs><clipPath id="a"><path d="M132.7 103.41 24.23 63.27 17.32 90a6.54 6.54 0 0 0 4.07 7.78l102.94 38Z" style="fill:none"/></clipPath></defs><g style="clip-path:url(#a)"><path style="fill:#f05124" d="m144.95 115.97 1.98-6.48L14.26 60.48l-1.99 6.49 132.68 49z"/><path style="fill:#f89e4f" d="m142.96 122.43 1.98-6.49-132.67-49-1.99 6.48 132.68 49.01z"/><path style="fill:#fcee20" d="m140.97 128.88 1.98-6.48L10.27 73.39l-1.98 6.49 132.68 49z"/><path style="fill:#f063a4" d="m138.98 135.34 1.98-6.49-132.68-49-1.98 6.49 132.68 49z"/><path style="fill:#9253a1" d="m136.99 141.79 1.98-6.48L6.29 86.3l-1.98 6.49 132.68 49z"/></g><path d="m132.89 103.58-8.42 32.55L22.74 99a8.32 8.32 0 0 1-5.21-9.9l6.56-25.33" style="stroke-width:2px;stroke:#0b6a88;stroke-linejoin:round;fill:none"/><path style="fill:#2dc5f4;stroke-width:2px;stroke:#0b6a88;stroke-linejoin:round" d="m70.43 37.39 62.46 66.19-108.8-39.77 46.34-26.42z"/><path style="stroke-linecap:round;stroke-width:20px;stroke:#0b6a88;stroke-linejoin:round;fill:none" d="m73.92 35.41-49.83 28.4"/></svg>