<?xml version="1.0" encoding="UTF-8"?><svg id="a" xmlns="http://www.w3.org/2000/svg" xmlns:xlink="http://www.w3.org/1999/xlink" viewBox="0 0 150 150"><defs><style>.c,.d,.e{fill:none;}.f{fill:#f89e4f;}.g{fill:#f063a4;}.h{fill:#f05124;}.i{fill:#fcee20;}.j{fill:#9253a1;}.d{stroke-linecap:round;stroke-width:20px;}.d,.k,.e{stroke:#0b6a88;stroke-linejoin:round;}.k{fill:#2dc5f4;}.k,.e{stroke-width:2px;}.l{clip-path:url(#b);}</style><clipPath id="b"><path class="c" d="M132.7,103.41L24.23,63.27l-6.91,26.72c-.84,3.25,.92,6.62,4.07,7.78l102.94,38,8.37-32.37Z"/></clipPath></defs><g class="l"><g><polygon class="h" points="144.95 115.97 146.93 109.49 14.26 60.48 12.27 66.97 144.95 115.97"/><polygon class="f" points="142.96 122.43 144.94 115.94 12.27 66.94 10.28 73.43 142.96 122.43"/><polygon class="i" points="140.97 128.88 142.95 122.4 10.27 73.39 8.29 79.88 140.97 128.88"/><polygon class="g" points="138.98 135.34 140.96 128.85 8.28 79.85 6.3 86.34 138.98 135.34"/><polygon class="j" points="136.99 141.79 138.97 135.31 6.29 86.3 4.31 92.79 136.99 141.79"/></g></g><path class="e" d="M132.89,103.58l-8.42,32.56L22.74,99.04c-4.03-1.47-6.28-5.75-5.21-9.9l6.55-25.33"/><polygon class="k" points="70.43 37.39 132.89 103.58 24.09 63.81 70.43 37.39"/><line class="d" x1="73.92" y1="35.41" x2="24.09" y2="63.81"/></svg>