<?xml version="1.0" encoding="UTF-8"?><svg id="a" xmlns="http://www.w3.org/2000/svg" xmlns:xlink="http://www.w3.org/1999/xlink" viewBox="0 0 150 150"><defs><style>.c,.d,.e,.f,.g,.h{fill:none;}.i,.d{stroke-linecap:round;}.i,.d,.e,.f,.g,.h,.j{stroke-linejoin:round;}.i,.j{fill:#c5c7c9;stroke:#929497;}.d,.e{stroke:#70327e;}.f{stroke:#2dc5f4;}.f,.g,.h{stroke-width:13px;}.g{stroke:#fcee20;}.h{stroke:#f063a4;}.k{clip-path:url(#b);}</style><clipPath id="b"><path class="c" d="M128.67,120.37h-36c0-9.75-7.93-17.67-17.67-17.67s-17.67,7.93-17.67,17.67H21.33c0-29.6,24.08-53.67,53.67-53.67s53.67,24.08,53.67,53.67Z"/></clipPath></defs><polyline class="j" points="66.02 101.36 66.02 143.8 62.55 149.45 74.59 149.45 73.08 143.94 73.08 101.36"/><polyline class="j" points="83.98 101.36 83.98 143.8 93.03 149.42 76.92 149.42 76.92 101.36"/><g><path class="i" d="M131.19,105.37c7.46-4.05,10.36-8.53,11.44-11.83,1.2-3.65,.72-7.5-1.35-10.82-1.89-3.03-4.57-4.91-7.96-5.56-7.53-1.46-16.44,3.8-19.53,5.83l3.18,3.89c3.5-2.24,10.41-5.78,15.4-4.81,2,.39,3.52,1.47,4.66,3.3,.9,1.45,1.78,3.77,.84,6.62-1.15,3.49-4.67,6.79-10.16,9.55-.26,.13-1.56,.67-1.7,1.89l1.19,4.37c.4,.68,2.43,1.55,4.84,.29,4.36-2.27,2.96-4.81,2.96-4.81"/><path class="i" d="M15,103.27s-1.4,2.54,2.96,4.81c2.41,1.26,4.44,.39,4.84-.29l1.19-4.37c-.14-1.22-1.44-1.76-1.7-1.89-5.5-2.76-9.02-6.05-10.16-9.55-.93-2.85-.06-5.17,.84-6.62,1.14-1.83,2.66-2.91,4.66-3.3,4.99-.97,11.9,2.57,15.4,4.81l3.18-3.89c-3.08-2.03-12-7.29-19.53-5.83-3.39,.66-6.07,2.53-7.96,5.56-2.07,3.32-2.55,7.16-1.35,10.82,1.08,3.3,3.98,7.78,11.44,11.83"/><g class="k"><path class="f" d="M27.33,121.38c0-26.29,21.39-47.67,47.67-47.67s47.67,21.39,47.67,47.67"/><path class="h" d="M39.33,120.34c0-19.67,16-35.67,35.67-35.67s35.67,16,35.67,35.67"/><path class="g" d="M51.33,120.34c0-13.05,10.62-23.67,23.67-23.67s23.67,10.62,23.67,23.67"/></g><path class="e" d="M128.67,120.37h-36c0-9.75-7.93-17.67-17.67-17.67s-17.67,7.93-17.67,17.67H21.33c0-29.6,24.08-53.67,53.67-53.67s53.67,24.08,53.67,53.67Z"/><path class="d" d="M79.11,93.27s.43,4.24-4.11,4.24c-4.54,0-4.11-4.24-4.11-4.24"/><g><g><path class="d" d="M93.58,81.76s.34-2.54-2-2.9"/><path class="d" d="M81.82,87.68c0-2.37,2-5.96,4.47-5.96s4.47,3.58,4.47,5.96"/></g><g><path class="d" d="M56.42,81.76s-.34-2.54,2-2.9"/><path class="d" d="M68.18,87.68c0-2.37-2-5.96-4.47-5.96-2.47,0-4.47,3.58-4.47,5.96"/></g></g></g></svg>