<svg xmlns="http://www.w3.org/2000/svg" viewBox="0 0 150 150"><defs><clipPath id="a"><path d="M128.67 120.37h-36c0-9.75-7.93-17.67-17.67-17.67s-17.67 7.93-17.67 17.67h-36c0-29.6 24.08-53.67 53.67-53.67s53.67 24.08 53.67 53.67" style="fill:none"/></clipPath></defs><path d="M66.02 101.36v42.44l-3.47 5.65h12.04l-1.51-5.51v-42.58m10.9 0v42.44l9.05 5.62H76.92v-48.06" style="stroke-linejoin:round;fill:#c5c7c9;stroke:#929497"/><path d="M131.19 105.37c7.46-4.05 10.36-8.53 11.44-11.83 1.2-3.65.72-7.5-1.35-10.82-1.89-3.03-4.57-4.91-7.96-5.56-7.53-1.46-16.44 3.8-19.53 5.83l3.18 3.89c3.5-2.24 10.41-5.78 15.4-4.81 2 .39 3.52 1.47 4.66 3.3.9 1.45 1.78 3.77.84 6.62-1.15 3.49-4.67 6.79-10.16 9.55-.26.13-1.56.67-1.7 1.89l1.19 4.37c.4.68 2.43 1.55 4.84.29 4.36-2.27 2.96-4.81 2.96-4.81m-120-.01s-1.4 2.54 2.96 4.81c2.41 1.26 4.44.39 4.84-.29l1.19-4.37c-.14-1.22-1.44-1.76-1.7-1.89-5.5-2.76-9.02-6.05-10.16-9.55-.93-2.85-.06-5.17.84-6.62 1.14-1.83 2.66-2.91 4.66-3.3 4.99-.97 11.9 2.57 15.4 4.81l3.18-3.89c-3.08-2.03-12-7.29-19.53-5.83-3.39.66-6.07 2.53-7.96 5.56-2.07 3.32-2.55 7.16-1.35 10.82 1.08 3.3 3.98 7.78 11.44 11.83" style="stroke-linecap:round;stroke-linejoin:round;fill:#c5c7c9;stroke:#929497"/><g style="clip-path:url(#a)"><path d="M27.33 121.38c0-26.29 21.39-47.67 47.67-47.67s47.67 21.39 47.67 47.67" style="fill:none;stroke-linejoin:round;stroke:#2dc5f4;stroke-width:13px"/><path d="M39.33 120.34c0-19.67 16-35.67 35.67-35.67s35.67 16 35.67 35.67" style="fill:none;stroke-linejoin:round;stroke-width:13px;stroke:#f063a4"/><path d="M51.33 120.34c0-13.05 10.62-23.67 23.67-23.67s23.67 10.62 23.67 23.67" style="fill:none;stroke-linejoin:round;stroke-width:13px;stroke:#fcee20"/></g><path d="M128.67 120.37h-36c0-9.75-7.93-17.67-17.67-17.67s-17.67 7.93-17.67 17.67h-36c0-29.6 24.08-53.67 53.67-53.67s53.67 24.08 53.67 53.67Z" style="fill:none;stroke-linejoin:round;stroke:#70327e"/><path d="M79.11 93.27s.43 4.24-4.11 4.24-4.11-4.24-4.11-4.24m22.69-11.51s.34-2.54-2-2.9m-9.76 8.82c0-2.37 2-5.96 4.47-5.96s4.47 3.58 4.47 5.96m-34.34-5.92s-.34-2.54 2-2.9m9.76 8.82c0-2.37-2-5.96-4.47-5.96s-4.47 3.58-4.47 5.96" style="fill:none;stroke-linecap:round;stroke-linejoin:round;stroke:#70327e"/></svg>