<svg data-name="Layer 1" xmlns="http://www.w3.org/2000/svg" xmlns:xlink="http://www.w3.org/1999/xlink" viewBox="0 0 175 150"><defs><linearGradient id="a" x1="148.28" y1="232.07" x2="148.28" y2="303.6" gradientTransform="matrix(1 0 0 -1 0 342.84)" gradientUnits="userSpaceOnUse"><stop offset="0" stop-color="#9253a1"/><stop offset=".25" stop-color="#2dc5f4"/><stop offset=".5" stop-color="#f063a4"/><stop offset=".75" stop-color="#f89e4f"/><stop offset="1" stop-color="#fcee20"/></linearGradient><linearGradient id="d" x1="939.96" y1="232.07" x2="939.96" y2="303.6" gradientTransform="rotate(180 483.34 171.42)" xlink:href="#a"/><clipPath id="b"><circle cx="87.52" cy="75.01" r="39.56" style="fill:none"/></clipPath><clipPath id="c"><path d="M129.31 120.62c-15.17 10.62-23.58 20.07-42.8 20.07s-27.62-9.45-42.8-20.07V29.4C58.89 40 67.29 49.47 86.51 49.47s27.63-9.47 42.8-20.07Z" style="fill:none"/></clipPath></defs><g style="clip-path:url(#b)"><g style="clip-path:url(#c)"><path d="M43.71 120.62c15.18 10.62 23.58 20.07 42.8 20.07s27.63-9.45 42.8-20.07c-15.17 10.62-23.58 20.07-42.8 20.07s-27.62-9.45-42.8-20.07Z" style="fill:#b337e3"/><path d="M43.71 120.46c15.18 10.62 23.58 20.07 42.8 20.07s27.63-9.45 42.8-20.07v.16c-15.17 10.62-23.58 20.07-42.8 20.07s-27.62-9.45-42.8-20.07Z" style="fill:#b337e3"/><path d="M43.71 120.3c15.18 10.62 23.58 20.07 42.8 20.07s27.63-9.45 42.8-20.07v.16c-15.17 10.62-23.58 20.07-42.8 20.07s-27.62-9.45-42.8-20.07Z" style="fill:#b238e3"/><path d="M43.71 120.14c15.18 10.62 23.58 20.07 42.8 20.07s27.63-9.45 42.8-20.07v.16c-15.17 10.62-23.58 20.07-42.8 20.07s-27.62-9.45-42.8-20.07Z" style="fill:#b139e3"/><path d="M43.71 120c15.18 10.61 23.58 20.07 42.8 20.07s27.63-9.45 42.8-20.07v.16c-15.17 10.62-23.58 20.07-42.8 20.07s-27.62-9.45-42.8-20.07Z" style="fill:#b03ae3"/><path d="M43.71 119.82c15.18 10.61 23.58 20.07 42.8 20.07s27.63-9.46 42.8-20.07v.18c-15.17 10.62-23.58 20.07-42.8 20.07s-27.62-9.48-42.8-20.07Z" style="fill:#af3be3"/><path d="M43.71 119.66c15.18 10.61 23.58 20.07 42.8 20.07s27.63-9.46 42.8-20.07v.16c-15.17 10.61-23.58 20.07-42.8 20.07s-27.62-9.46-42.8-20.07Z" style="fill:#ae3ce4"/><path d="M43.71 119.5c15.18 10.61 23.58 20.07 42.8 20.07s27.63-9.46 42.8-20.07v.16c-15.17 10.61-23.58 20.07-42.8 20.07s-27.62-9.46-42.8-20.07Z" style="fill:#ad3de4"/><path d="M43.71 119.34c15.18 10.61 23.58 20.07 42.8 20.07s27.63-9.46 42.8-20.07v.16c-15.17 10.61-23.58 20.07-42.8 20.07s-27.62-9.46-42.8-20.07Z" style="fill:#ac3ee4"/><path d="M43.71 119.18c15.18 10.61 23.58 20.07 42.8 20.07s27.63-9.46 42.8-20.07v.16c-15.17 10.61-23.58 20.07-42.8 20.07s-27.62-9.41-42.8-20.07Z" style="fill:#ab3fe4"/><path d="M43.71 119c15.18 10.61 23.58 20.07 42.8 20.07s27.63-9.46 42.8-20.07v.16c-15.17 10.61-23.58 20.07-42.8 20.07s-27.62-9.46-42.8-20.07Z" style="fill:#aa40e4"/><path d="M43.71 118.86c15.18 10.61 23.58 20.06 42.8 20.06s27.63-9.45 42.8-20.06v.14c-15.17 10.61-23.58 20.07-42.8 20.07s-27.62-9.44-42.8-20.07Z" style="fill:#a941e4"/><path d="M43.71 118.69c15.18 10.62 23.58 20.07 42.8 20.07s27.63-9.45 42.8-20.07v.17c-15.17 10.61-23.58 20.06-42.8 20.06s-27.62-9.45-42.8-20.06Z" style="fill:#a842e4"/><path d="M43.71 118.53c15.18 10.62 23.58 20.07 42.8 20.07s27.63-9.45 42.8-20.07v.16c-15.17 10.62-23.58 20.07-42.8 20.07s-27.62-9.45-42.8-20.07Z" style="fill:#a743e4"/><path d="M43.71 118.37c15.18 10.62 23.58 20.07 42.8 20.07s27.63-9.45 42.8-20.07v.16c-15.17 10.62-23.58 20.07-42.8 20.07s-27.62-9.45-42.8-20.07Z" style="fill:#a644e5"/><path d="M43.71 118.21c15.18 10.62 23.58 20.07 42.8 20.07s27.63-9.45 42.8-20.07v.16c-15.17 10.62-23.58 20.07-42.8 20.07s-27.62-9.44-42.8-20.07Z" style="fill:#a545e5"/><path d="M43.71 118.05c15.18 10.62 23.58 20.07 42.8 20.07s27.63-9.45 42.8-20.07v.16c-15.17 10.62-23.58 20.07-42.8 20.07s-27.62-9.45-42.8-20.07Z" style="fill:#a446e5"/><path d="M43.71 117.89C58.89 128.51 67.29 138 86.51 138s27.63-9.45 42.8-20.07v.16c-15.17 10.62-23.58 20.07-42.8 20.07s-27.62-9.45-42.8-20.07Z" style="fill:#a347e5"/><path d="M43.71 117.73c15.18 10.62 23.58 20.07 42.8 20.07s27.63-9.45 42.8-20.07v.16C114.14 128.51 105.73 138 86.51 138s-27.62-9.45-42.8-20.07Z" style="fill:#a248e5"/><path d="M43.71 117.57c15.18 10.62 23.58 20.07 42.8 20.07s27.63-9.45 42.8-20.07v.16c-15.17 10.62-23.58 20.07-42.8 20.07s-27.62-9.45-42.8-20.07Z" style="fill:#a249e5"/><path d="M43.71 117.41c15.18 10.62 23.58 20.07 42.8 20.07s27.63-9.45 42.8-20.07v.16c-15.17 10.62-23.58 20.07-42.8 20.07s-27.62-9.45-42.8-20.07Z" style="fill:#a14ae5"/><path d="M43.71 117.25c15.18 10.61 23.58 20.07 42.8 20.07s27.63-9.46 42.8-20.07v.16c-15.17 10.62-23.58 20.07-42.8 20.07s-27.62-9.48-42.8-20.07Z" style="fill:#a04be5"/><path d="M43.71 117.09c15.18 10.61 23.58 20.07 42.8 20.07s27.63-9.46 42.8-20.07v.16c-15.17 10.61-23.58 20.07-42.8 20.07s-27.62-9.46-42.8-20.07Z" style="fill:#9f4ce6"/><path d="M43.71 116.93C58.89 127.54 67.29 137 86.51 137s27.63-9.46 42.8-20.07v.16c-15.17 10.61-23.58 20.07-42.8 20.07s-27.62-9.46-42.8-20.07Z" style="fill:#9e4de6"/><path d="M43.71 116.77c15.18 10.61 23.58 20.07 42.8 20.07s27.63-9.46 42.8-20.07v.16C114.14 127.54 105.73 137 86.51 137s-27.62-9.46-42.8-20.07Z" style="fill:#9d4ee6"/><path d="M43.71 116.61c15.18 10.61 23.58 20.07 42.8 20.07s27.63-9.46 42.8-20.07v.16c-15.17 10.61-23.58 20.07-42.8 20.07s-27.62-9.46-42.8-20.07Z" style="fill:#9c4fe6"/><path d="M43.71 116.45c15.18 10.61 23.58 20.07 42.8 20.07s27.63-9.46 42.8-20.07v.16c-15.17 10.61-23.58 20.07-42.8 20.07s-27.62-9.46-42.8-20.07Z" style="fill:#9b50e6"/><path d="M43.71 116.29c15.18 10.61 23.58 20.07 42.8 20.07s27.63-9.46 42.8-20.07v.16c-15.17 10.61-23.58 20.07-42.8 20.07s-27.62-9.46-42.8-20.07Z" style="fill:#9a51e6"/><path d="M43.71 116.12c15.18 10.62 23.58 20.07 42.8 20.07s27.63-9.45 42.8-20.07v.17c-15.17 10.61-23.58 20.07-42.8 20.07s-27.62-9.46-42.8-20.07Z" style="fill:#9952e6"/><path d="M43.71 116c15.18 10.58 23.58 20 42.8 20s27.63-9.45 42.8-20.07v.16c-15.17 10.62-23.58 20.07-42.8 20.07s-27.62-9.45-42.8-20.07Z" style="fill:#9853e6"/><path d="M43.71 115.8c15.18 10.62 23.58 20.07 42.8 20.07s27.63-9.45 42.8-20.07v.2c-15.17 10.58-23.58 20-42.8 20s-27.62-9.42-42.8-20Z" style="fill:#9754e6"/><path d="M43.71 115.64c15.18 10.62 23.58 20.07 42.8 20.07s27.63-9.45 42.8-20.07v.16c-15.17 10.62-23.58 20.07-42.8 20.07s-27.62-9.45-42.8-20.07Z" style="fill:#9655e7"/><path d="M43.71 115.48c15.18 10.62 23.58 20.07 42.8 20.07s27.63-9.45 42.8-20.07v.16c-15.17 10.62-23.58 20.07-42.8 20.07s-27.62-9.45-42.8-20.07Z" style="fill:#9556e7"/><path d="M43.71 115.32c15.18 10.62 23.58 20.07 42.8 20.07s27.63-9.45 42.8-20.07v.16c-15.17 10.62-23.58 20.07-42.8 20.07s-27.62-9.45-42.8-20.07Z" style="fill:#9457e7"/><path d="M43.71 115.16c15.18 10.62 23.58 20.07 42.8 20.07s27.63-9.45 42.8-20.07v.16c-15.17 10.62-23.58 20.07-42.8 20.07s-27.62-9.45-42.8-20.07Z" style="fill:#9358e7"/><path d="M43.71 115c15.18 10.62 23.58 20.07 42.8 20.07s27.63-9.45 42.8-20.07v.16c-15.17 10.62-23.58 20.07-42.8 20.07s-27.62-9.45-42.8-20.07Z" style="fill:#9259e7"/><path d="M43.71 114.84c15.18 10.62 23.58 20.07 42.8 20.07s27.63-9.45 42.8-20.07v.16c-15.17 10.62-23.58 20.07-42.8 20.07s-27.62-9.45-42.8-20.07Z" style="fill:#915ae7"/><path d="M43.71 114.68c15.18 10.61 23.58 20.07 42.8 20.07s27.63-9.45 42.8-20.07v.16c-15.17 10.62-23.58 20.07-42.8 20.07s-27.62-9.45-42.8-20.07Z" style="fill:#905be7"/><path d="M43.71 114.52c15.18 10.61 23.58 20.07 42.8 20.07s27.63-9.46 42.8-20.07v.16c-15.17 10.62-23.58 20.07-42.8 20.07s-27.62-9.46-42.8-20.07Z" style="fill:#8f5ce7"/><path d="M43.71 114.36c15.18 10.61 23.58 20.07 42.8 20.07s27.63-9.46 42.8-20.07v.16c-15.17 10.61-23.58 20.07-42.8 20.07s-27.62-9.46-42.8-20.07Z" style="fill:#8e5de8"/><path d="M43.71 114.2c15.18 10.61 23.58 20.07 42.8 20.07s27.63-9.46 42.8-20.07v.16c-15.17 10.61-23.58 20.07-42.8 20.07s-27.62-9.43-42.8-20.07Z" style="fill:#8d5ee8"/><path d="M43.71 114c15.18 10.61 23.58 20.07 42.8 20.07s27.63-9.46 42.8-20.07v.16c-15.17 10.61-23.58 20.07-42.8 20.07s-27.62-9.46-42.8-20.07Z" style="fill:#8c5fe8"/><path d="M43.71 113.88C58.89 124.49 67.29 134 86.51 134s27.63-9.46 42.8-20.07v.07c-15.17 10.61-23.58 20.07-42.8 20.07s-27.62-9.42-42.8-20.07Z" style="fill:#8b60e8"/><path d="M43.71 113.72c15.18 10.61 23.58 20.07 42.8 20.07s27.63-9.46 42.8-20.07v.16C114.14 124.49 105.73 134 86.51 134s-27.62-9.46-42.8-20.07Z" style="fill:#8a61e8"/><path d="M43.71 113.56c15.18 10.61 23.58 20.06 42.8 20.06s27.63-9.45 42.8-20.06v.16c-15.17 10.61-23.58 20.07-42.8 20.07s-27.62-9.46-42.8-20.07Z" style="fill:#8962e8"/><path d="M43.71 113.39c15.18 10.62 23.58 20.07 42.8 20.07s27.63-9.45 42.8-20.07v.17c-15.17 10.61-23.58 20.06-42.8 20.06s-27.62-9.45-42.8-20.06Z" style="fill:#8863e8"/><path d="M43.71 113.23c15.18 10.62 23.58 20.07 42.8 20.07s27.63-9.45 42.8-20.07v.16c-15.17 10.62-23.58 20.07-42.8 20.07s-27.62-9.46-42.8-20.07Z" style="fill:#8764e8"/><path d="M43.71 113.07c15.18 10.62 23.58 20.07 42.8 20.07s27.63-9.45 42.8-20.07v.16c-15.17 10.62-23.58 20.07-42.8 20.07s-27.62-9.45-42.8-20.07Z" style="fill:#8665e9"/><path d="M43.71 112.91C58.89 123.53 67.29 133 86.51 133s27.63-9.45 42.8-20.07v.16c-15.17 10.62-23.58 20.07-42.8 20.07s-27.62-9.45-42.8-20.07Z" style="fill:#8566e9"/><path d="M43.71 112.75c15.18 10.62 23.58 20.07 42.8 20.07s27.63-9.45 42.8-20.07v.16C114.14 123.53 105.73 133 86.51 133s-27.62-9.45-42.8-20.07Z" style="fill:#8467e9"/><path d="M43.71 112.59c15.18 10.62 23.58 20.07 42.8 20.07s27.63-9.45 42.8-20.07v.16c-15.17 10.62-23.58 20.07-42.8 20.07s-27.62-9.45-42.8-20.07Z" style="fill:#8368e9"/><path d="M43.71 112.43c15.18 10.62 23.58 20.07 42.8 20.07s27.63-9.45 42.8-20.07v.16c-15.17 10.62-23.58 20.07-42.8 20.07s-27.62-9.45-42.8-20.07Z" style="fill:#8269e9"/><path d="M43.71 112.27c15.18 10.62 23.58 20.07 42.8 20.07s27.63-9.45 42.8-20.07v.16c-15.17 10.62-23.58 20.07-42.8 20.07s-27.62-9.45-42.8-20.07Z" style="fill:#816ae9"/><path d="M43.71 112.11c15.18 10.62 23.58 20.07 42.8 20.07s27.63-9.45 42.8-20.07v.16c-15.17 10.62-23.58 20.07-42.8 20.07s-27.62-9.45-42.8-20.07Z" style="fill:#806be9"/><path d="M43.71 112c15.18 10.56 23.58 20 42.8 20s27.63-9.46 42.8-20.07v.16c-15.17 10.62-23.58 20.07-42.8 20.07s-27.62-9.45-42.8-20.07Z" style="fill:#806ce9"/><path d="M43.71 111.79c15.18 10.61 23.58 20.07 42.8 20.07s27.63-9.46 42.8-20.07v.21c-15.17 10.56-23.58 20-42.8 20s-27.62-9.44-42.8-20Z" style="fill:#7f6dea"/><path d="M43.71 111.63c15.18 10.61 23.58 20.07 42.8 20.07s27.63-9.46 42.8-20.07v.16c-15.17 10.61-23.58 20.07-42.8 20.07s-27.62-9.46-42.8-20.07Z" style="fill:#7e6eea"/><path d="M43.71 111.47c15.18 10.61 23.58 20.07 42.8 20.07s27.63-9.46 42.8-20.07v.16c-15.17 10.61-23.58 20.07-42.8 20.07s-27.62-9.46-42.8-20.07Z" style="fill:#7d6fea"/><path d="M43.71 111.31c15.18 10.61 23.58 20.07 42.8 20.07s27.63-9.46 42.8-20.07v.16c-15.17 10.61-23.58 20.07-42.8 20.07s-27.62-9.46-42.8-20.07Z" style="fill:#7c70ea"/><path d="M43.71 111.15c15.18 10.61 23.58 20.07 42.8 20.07s27.63-9.46 42.8-20.07v.16c-15.17 10.61-23.58 20.07-42.8 20.07s-27.62-9.46-42.8-20.07Z" style="fill:#7b71ea"/><path d="M43.71 111c15.18 10.61 23.58 20.07 42.8 20.07s27.63-9.46 42.8-20.07v.16c-15.17 10.61-23.58 20.07-42.8 20.07s-27.62-9.46-42.8-20.07Z" style="fill:#7a72ea"/><path d="M43.71 110.82c15.18 10.62 23.58 20.07 42.8 20.07s27.63-9.45 42.8-20.07v.18c-15.17 10.61-23.58 20.07-42.8 20.07S58.89 121.6 43.71 111Z" style="fill:#7973ea"/><path d="M43.71 110.66c15.18 10.62 23.58 20.07 42.8 20.07s27.63-9.45 42.8-20.07v.16c-15.17 10.62-23.58 20.07-42.8 20.07s-27.62-9.45-42.8-20.07Z" style="fill:#7874ea"/><path d="M43.71 110.5c15.18 10.62 23.58 20.07 42.8 20.07s27.63-9.45 42.8-20.07v.16c-15.17 10.62-23.58 20.07-42.8 20.07s-27.62-9.45-42.8-20.07Z" style="fill:#7775ea"/><path d="M43.71 110.34c15.18 10.62 23.58 20.07 42.8 20.07s27.63-9.45 42.8-20.07v.16c-15.17 10.62-23.58 20.07-42.8 20.07s-27.62-9.45-42.8-20.07Z" style="fill:#7676eb"/><path d="M43.71 110.18c15.18 10.62 23.58 20.07 42.8 20.07s27.63-9.45 42.8-20.07v.16c-15.17 10.62-23.58 20.07-42.8 20.07s-27.62-9.41-42.8-20.07Z" style="fill:#7577eb"/><path d="M43.71 110c15.18 10.62 23.58 20.07 42.8 20.07s27.63-9.45 42.8-20.07v.16c-15.17 10.62-23.58 20.07-42.8 20.07s-27.62-9.45-42.8-20.07Z" style="fill:#7478eb"/><path d="M43.71 109.86c15.18 10.62 23.58 20.07 42.8 20.07s27.63-9.45 42.8-20.07v.14c-15.17 10.62-23.58 20.07-42.8 20.07s-27.62-9.43-42.8-20.07Z" style="fill:#7379eb"/><path d="M43.71 109.7c15.18 10.62 23.58 20.07 42.8 20.07s27.63-9.45 42.8-20.07v.16c-15.17 10.62-23.58 20.07-42.8 20.07s-27.62-9.45-42.8-20.07Z" style="fill:#727aeb"/><path d="M43.71 109.54c15.18 10.62 23.58 20.07 42.8 20.07s27.63-9.45 42.8-20.07v.16c-15.17 10.62-23.58 20.07-42.8 20.07s-27.62-9.45-42.8-20.07Z" style="fill:#717beb"/><path d="M43.71 109.38c15.18 10.61 23.58 20.07 42.8 20.07s27.63-9.45 42.8-20.07v.16c-15.17 10.62-23.58 20.07-42.8 20.07s-27.62-9.45-42.8-20.07Z" style="fill:#707ceb"/><path d="M43.71 109.22c15.18 10.61 23.58 20.07 42.8 20.07s27.63-9.46 42.8-20.07v.16c-15.17 10.62-23.58 20.07-42.8 20.07s-27.62-9.45-42.8-20.07Z" style="fill:#6f7deb"/><path d="M43.71 109.06c15.18 10.61 23.58 20.07 42.8 20.07s27.63-9.46 42.8-20.07v.16c-15.17 10.61-23.58 20.07-42.8 20.07s-27.62-9.46-42.8-20.07Z" style="fill:#6e7fec"/><path d="M43.71 108.9c15.18 10.61 23.58 20.1 42.8 20.1s27.63-9.46 42.8-20.07v.16c-15.17 10.61-23.58 20.07-42.8 20.07s-27.62-9.46-42.8-20.07Z" style="fill:#6d80ec"/><path d="M43.71 108.74c15.18 10.61 23.58 20.07 42.8 20.07s27.63-9.46 42.8-20.07v.16c-15.17 10.61-23.58 20.1-42.8 20.1s-27.62-9.46-42.8-20.07Z" style="fill:#6c81ec"/><path d="M43.71 108.58c15.18 10.61 23.58 20.07 42.8 20.07s27.63-9.46 42.8-20.07v.16c-15.17 10.61-23.58 20.07-42.8 20.07s-27.62-9.46-42.8-20.07Z" style="fill:#6b82ec"/><path d="M43.71 108.42c15.18 10.61 23.58 20.07 42.8 20.07s27.63-9.46 42.8-20.07v.16c-15.17 10.61-23.58 20.07-42.8 20.07s-27.62-9.46-42.8-20.07Z" style="fill:#6a83ec"/><path d="M43.71 108.26c15.18 10.61 23.58 20.07 42.8 20.06s27.63-9.45 42.8-20.06v.16c-15.17 10.61-23.58 20.07-42.8 20.07s-27.62-9.49-42.8-20.07Z" style="fill:#6984ec"/><path d="M43.71 108.09c15.18 10.62 23.58 20.07 42.8 20.07s27.63-9.45 42.8-20.07v.17c-15.17 10.61-23.58 20.06-42.8 20.06s-27.62-9.45-42.8-20.06Z" style="fill:#6885ec"/><path d="M43.71 107.93C58.89 118.55 67.29 128 86.51 128s27.63-9.45 42.8-20.07v.16c-15.17 10.62-23.58 20.07-42.8 20.07s-27.62-9.45-42.8-20.07Z" style="fill:#6786ec"/><path d="M43.71 107.77c15.18 10.62 23.58 20.07 42.8 20.07s27.63-9.45 42.8-20.07v.16C114.14 118.55 105.73 128 86.51 128s-27.62-9.45-42.8-20.07Z" style="fill:#6687ed"/><path d="M43.71 107.61c15.18 10.62 23.58 20.07 42.8 20.07s27.63-9.45 42.8-20.07v.16c-15.17 10.62-23.58 20.07-42.8 20.07s-27.62-9.45-42.8-20.07Z" style="fill:#6588ed"/><path d="M43.71 107.45c15.18 10.62 23.58 20.07 42.8 20.07s27.63-9.45 42.8-20.07v.16c-15.17 10.62-23.58 20.07-42.8 20.07s-27.62-9.45-42.8-20.07Z" style="fill:#6489ed"/><path d="M43.71 107.29c15.18 10.62 23.58 20.07 42.8 20.07s27.63-9.45 42.8-20.07v.16c-15.17 10.62-23.58 20.07-42.8 20.07s-27.62-9.45-42.8-20.07Z" style="fill:#638aed"/><path d="M43.71 107.13c15.18 10.62 23.58 20.07 42.8 20.07s27.63-9.45 42.8-20.07v.16c-15.17 10.62-23.58 20.07-42.8 20.07s-27.62-9.45-42.8-20.07Z" style="fill:#628bed"/><path d="M43.71 107c15.18 10.59 23.58 20 42.8 20s27.63-9.45 42.8-20.07v.16c-15.17 10.62-23.58 20.07-42.8 20.07s-27.62-9.45-42.8-20.07Z" style="fill:#618ced"/><path d="M43.71 106.81c15.18 10.62 23.58 20.07 42.8 20.07s27.63-9.45 42.8-20.07v.19c-15.17 10.59-23.58 20-42.8 20s-27.62-9.41-42.8-20Z" style="fill:#608ded"/><path d="M43.71 106.65c15.18 10.61 23.58 20.07 42.8 20.07s27.63-9.46 42.8-20.07v.16c-15.17 10.62-23.58 20.07-42.8 20.07s-27.62-9.45-42.8-20.07Z" style="fill:#5f8eed"/><path d="M43.71 106.49c15.18 10.61 23.58 20.07 42.8 20.07s27.63-9.46 42.8-20.07v.16c-15.17 10.61-23.58 20.07-42.8 20.07s-27.62-9.46-42.8-20.07Z" style="fill:#5e8fed"/><path d="M43.71 106.33c15.18 10.61 23.58 20.07 42.8 20.07s27.63-9.46 42.8-20.07v.16c-15.17 10.61-23.58 20.07-42.8 20.07s-27.62-9.46-42.8-20.07Z" style="fill:#5d90ee"/><path d="M43.71 106.17c15.18 10.61 23.58 20.07 42.8 20.07s27.63-9.46 42.8-20.07v.16c-15.17 10.61-23.58 20.07-42.8 20.07s-27.62-9.46-42.8-20.07Z" style="fill:#5d91ee"/><path d="M43.71 106c15.18 10.61 23.58 20.07 42.8 20.07s27.63-9.46 42.8-20.07v.16c-15.17 10.61-23.58 20.07-42.8 20.07s-27.62-9.46-42.8-20.07Z" style="fill:#5c92ee"/><path d="M43.71 105.85c15.18 10.61 23.58 20.07 42.8 20.07s27.63-9.46 42.8-20.07v.15c-15.17 10.61-23.58 20.07-42.8 20.07s-27.62-9.45-42.8-20.07Z" style="fill:#5b93ee"/><path d="M43.71 105.69c15.18 10.61 23.58 20.07 42.8 20.07s27.63-9.46 42.8-20.07v.16c-15.17 10.61-23.58 20.07-42.8 20.07s-27.62-9.46-42.8-20.07Z" style="fill:#5a94ee"/><path d="M43.71 105.52c15.18 10.62 23.58 20.07 42.8 20.07s27.63-9.45 42.8-20.07v.17c-15.17 10.61-23.58 20.07-42.8 20.07s-27.62-9.46-42.8-20.07Z" style="fill:#5995ee"/><path d="M43.71 105.36c15.18 10.62 23.58 20.07 42.8 20.07s27.63-9.45 42.8-20.07v.16c-15.17 10.62-23.58 20.07-42.8 20.07s-27.62-9.45-42.8-20.07Z" style="fill:#5896ee"/><path d="M43.71 105.2c15.18 10.62 23.58 20.07 42.8 20.07s27.63-9.45 42.8-20.07v.16c-15.17 10.62-23.58 20.07-42.8 20.07s-27.62-9.43-42.8-20.07Z" style="fill:#5797ee"/><path d="M43.71 105c15.18 10.62 23.58 20.07 42.8 20.07s27.63-9.45 42.8-20.07v.16c-15.17 10.62-23.58 20.07-42.8 20.07s-27.62-9.45-42.8-20.07Z" style="fill:#5698ef"/><path d="M43.71 104.88C58.89 115.5 67.29 125 86.51 125s27.63-9.45 42.8-20.07v.07c-15.17 10.62-23.58 20.07-42.8 20.07s-27.62-9.41-42.8-20.07Z" style="fill:#5599ef"/><path d="M43.71 104.72c15.18 10.62 23.58 20.07 42.8 20.07s27.63-9.45 42.8-20.07v.16C114.14 115.5 105.73 125 86.51 125s-27.62-9.45-42.8-20.07Z" style="fill:#549aef"/><path d="M43.71 104.56c15.18 10.62 23.58 20.07 42.8 20.07s27.63-9.45 42.8-20.07v.16c-15.17 10.62-23.58 20.07-42.8 20.07s-27.62-9.45-42.8-20.07Z" style="fill:#539bef"/><path d="M43.71 104.4c15.18 10.62 23.58 20.07 42.8 20.07s27.63-9.45 42.8-20.07v.16c-15.17 10.62-23.58 20.07-42.8 20.07s-27.62-9.45-42.8-20.07Z" style="fill:#529cef"/><path d="M43.71 104.24c15.18 10.62 23.58 20.07 42.8 20.07s27.63-9.45 42.8-20.07v.16c-15.17 10.62-23.58 20.07-42.8 20.07S58.89 115 43.71 104.4Z" style="fill:#519def"/><path d="M43.71 104.08c15.18 10.62 23.58 20.07 42.8 20.07s27.63-9.45 42.8-20.07v.16c-15.17 10.62-23.58 20.07-42.8 20.07s-27.62-9.45-42.8-20.07Z" style="fill:#509eef"/><path d="M43.71 103.92C58.89 114.53 67.29 124 86.51 124s27.63-9.46 42.8-20.07v.16c-15.17 10.62-23.58 20.07-42.8 20.07s-27.62-9.45-42.8-20.07Z" style="fill:#4f9fef"/><path d="M43.71 103.76c15.18 10.61 23.58 20.07 42.8 20.07s27.63-9.46 42.8-20.07v.16C114.14 114.53 105.73 124 86.51 124s-27.62-9.46-42.8-20.07Z" style="fill:#4ea0f0"/><path d="M43.71 103.6c15.18 10.61 23.58 20.07 42.8 20.07s27.63-9.46 42.8-20.07v.16c-15.17 10.61-23.58 20.07-42.8 20.07s-27.62-9.46-42.8-20.07Z" style="fill:#4da1f0"/><path d="M43.71 103.44c15.18 10.61 23.58 20.07 42.8 20.07s27.63-9.46 42.8-20.07v.16c-15.17 10.61-23.58 20.07-42.8 20.07s-27.62-9.46-42.8-20.07Z" style="fill:#4ca2f0"/><path d="M43.71 103.28c15.18 10.61 23.58 20.07 42.8 20.07s27.63-9.46 42.8-20.07v.16c-15.17 10.61-23.58 20.07-42.8 20.07s-27.62-9.46-42.8-20.07Z" style="fill:#4ba3f0"/><path d="M43.71 103.12c15.18 10.61 23.58 20.07 42.8 20.07s27.63-9.46 42.8-20.07v.16c-15.17 10.61-23.58 20.07-42.8 20.07s-27.62-9.46-42.8-20.07Z" style="fill:#4aa4f0"/><path d="M43.71 103c15.18 10.57 23.58 20 42.8 20s27.63-9.46 42.8-20.07v.16c-15.17 10.61-23.58 20.07-42.8 20.07s-27.62-9.46-42.8-20.07Z" style="fill:#49a5f0"/><path d="M43.71 102.79c15.18 10.62 23.58 20.07 42.8 20.07s27.63-9.45 42.8-20.07v.21c-15.17 10.57-23.58 20-42.8 20s-27.62-9.43-42.8-20Z" style="fill:#48a6f0"/><path d="M43.71 102.63c15.18 10.62 23.58 20.07 42.8 20.07s27.63-9.45 42.8-20.07v.16c-15.17 10.62-23.58 20.07-42.8 20.07s-27.62-9.45-42.8-20.07Z" style="fill:#47a7f0"/><path d="M43.71 102.47c15.18 10.62 23.58 20.07 42.8 20.07s27.63-9.45 42.8-20.07v.16c-15.17 10.62-23.58 20.07-42.8 20.07s-27.62-9.45-42.8-20.07Z" style="fill:#46a8f1"/><path d="M43.71 102.31c15.18 10.62 23.58 20.07 42.8 20.07s27.63-9.45 42.8-20.07v.16c-15.17 10.62-23.58 20.07-42.8 20.07s-27.62-9.45-42.8-20.07Z" style="fill:#45a9f1"/><path d="M43.71 102.15c15.18 10.62 23.58 20.07 42.8 20.07s27.63-9.45 42.8-20.07v.16c-15.17 10.62-23.58 20.07-42.8 20.07s-27.62-9.45-42.8-20.07Z" style="fill:#44aaf1"/><path d="M43.71 102c15.18 10.62 23.58 20.07 42.8 20.07s27.63-9.45 42.8-20.07v.16c-15.17 10.62-23.58 20.07-42.8 20.07s-27.62-9.45-42.8-20.07Z" style="fill:#43abf1"/><path d="M43.71 101.83c15.18 10.62 23.58 20.07 42.8 20.07s27.63-9.45 42.8-20.07v.17c-15.17 10.62-23.58 20.07-42.8 20.07s-27.62-9.46-42.8-20.07Z" style="fill:#42acf1"/><path d="M43.71 101.67c15.18 10.62 23.58 20.07 42.8 20.07s27.63-9.45 42.8-20.07v.16c-15.17 10.62-23.58 20.07-42.8 20.07s-27.62-9.45-42.8-20.07Z" style="fill:#41adf1"/><path d="M43.71 101.51c15.18 10.62 23.58 20.07 42.8 20.07s27.63-9.45 42.8-20.07v.16c-15.17 10.62-23.58 20.07-42.8 20.07s-27.62-9.45-42.8-20.07Z" style="fill:#40aef1"/><path d="M43.71 101.35c15.18 10.61 23.58 20.07 42.8 20.07s27.63-9.46 42.8-20.07v.16c-15.17 10.62-23.58 20.07-42.8 20.07s-27.62-9.45-42.8-20.07Z" style="fill:#3faff1"/><path d="M43.71 101.19c15.18 10.61 23.58 20.07 42.8 20.07s27.63-9.46 42.8-20.07v.16c-15.17 10.61-23.58 20.07-42.8 20.07s-27.62-9.42-42.8-20.07Z" style="fill:#3eb0f1"/><path d="M43.71 101c15.18 10.61 23.58 20.07 42.8 20.07s27.63-9.46 42.8-20.07v.16c-15.17 10.61-23.58 20.07-42.8 20.07s-27.62-9.46-42.8-20.07Z" style="fill:#3db1f2"/><path d="M43.71 100.87c15.18 10.61 23.58 20.07 42.8 20.07s27.63-9.46 42.8-20.07v.13c-15.17 10.61-23.58 20.07-42.8 20.07s-27.62-9.43-42.8-20.07Z" style="fill:#3cb2f2"/><path d="M43.71 100.71c15.18 10.61 23.58 20.07 42.8 20.07s27.63-9.46 42.8-20.07v.16c-15.17 10.61-23.58 20.07-42.8 20.07s-27.62-9.46-42.8-20.07Z" style="fill:#3bb3f2"/><path d="M43.71 100.55c15.18 10.61 23.58 20.07 42.8 20.07s27.63-9.46 42.8-20.07v.16c-15.17 10.61-23.58 20.07-42.8 20.07s-27.62-9.46-42.8-20.07Z" style="fill:#3bb4f2"/><path d="M43.71 100.39c15.18 10.61 23.58 20.07 42.8 20.07s27.63-9.46 42.8-20.07v.16c-15.17 10.61-23.58 20.07-42.8 20.07s-27.62-9.46-42.8-20.07Z" style="fill:#3ab5f2"/><path d="M43.71 100.22c15.18 10.62 23.58 20.07 42.8 20.07s27.63-9.45 42.8-20.07v.17c-15.17 10.61-23.58 20.07-42.8 20.07s-27.62-9.46-42.8-20.07Z" style="fill:#39b6f2"/><path d="M43.71 100.06c15.18 10.62 23.58 20.07 42.8 20.07s27.63-9.45 42.8-20.07v.16c-15.17 10.62-23.58 20.07-42.8 20.07s-27.62-9.45-42.8-20.07Z" style="fill:#38b7f2"/><path d="M43.71 99.9c15.18 10.62 23.58 20.1 42.8 20.1s27.63-9.45 42.8-20.07v.16c-15.17 10.62-23.58 20.07-42.8 20.07s-27.62-9.45-42.8-20.07Z" style="fill:#37b8f2"/><path d="M43.71 99.74c15.18 10.62 23.58 20.07 42.8 20.07s27.63-9.45 42.8-20.07v.16c-15.17 10.62-23.58 20.1-42.8 20.1s-27.62-9.45-42.8-20.07Z" style="fill:#36b9f3"/><path d="M43.71 99.58c15.18 10.62 23.58 20.07 42.8 20.07s27.63-9.45 42.8-20.07v.16c-15.17 10.62-23.58 20.07-42.8 20.07s-27.62-9.45-42.8-20.07Z" style="fill:#35baf3"/><path d="M43.71 99.42c15.18 10.62 23.58 20.07 42.8 20.07s27.63-9.45 42.8-20.07v.16c-15.17 10.62-23.58 20.07-42.8 20.07s-27.62-9.45-42.8-20.07Z" style="fill:#34bbf3"/><path d="M43.71 99.26c15.18 10.62 23.58 20.07 42.8 20.07s27.63-9.45 42.8-20.07v.16c-15.17 10.62-23.58 20.07-42.8 20.07S58.89 110 43.71 99.42Z" style="fill:#33bcf3"/><path d="M43.71 99.1c15.18 10.62 23.58 20.07 42.8 20.07s27.63-9.45 42.8-20.07v.16c-15.17 10.62-23.58 20.07-42.8 20.07s-27.62-9.45-42.8-20.07Z" style="fill:#32bdf3"/><path d="M43.71 98.94C58.89 109.56 67.29 119 86.51 119s27.63-9.45 42.8-20.07v.16c-15.17 10.62-23.58 20.07-42.8 20.07s-27.62-9.45-42.8-20.07Z" style="fill:#31bef3"/><path d="M43.71 98.78c15.18 10.61 23.58 20.07 42.8 20.07s27.63-9.46 42.8-20.07v.16C114.14 109.56 105.73 119 86.51 119s-27.62-9.45-42.8-20.07Z" style="fill:#30bff3"/><path d="M43.71 98.62c15.18 10.61 23.58 20.07 42.8 20.07s27.63-9.46 42.8-20.07v.16c-15.17 10.61-23.58 20.07-42.8 20.07s-27.62-9.46-42.8-20.07Z" style="fill:#2fc0f3"/><path d="M43.71 98.46c15.18 10.61 23.58 20.07 42.8 20.07s27.63-9.46 42.8-20.07v.16c-15.17 10.61-23.58 20.07-42.8 20.07s-27.62-9.46-42.8-20.07Z" style="fill:#2ec1f4"/><path d="M43.71 98.3c15.18 10.61 23.58 20.07 42.8 20.07s27.63-9.46 42.8-20.07v.16c-15.17 10.61-23.58 20.07-42.8 20.07s-27.62-9.46-42.8-20.07Z" style="fill:#2dc2f4"/><path d="M43.71 98.14c15.18 10.61 23.58 20.07 42.8 20.07s27.63-9.46 42.8-20.07v.16c-15.17 10.61-23.58 20.07-42.8 20.07s-27.62-9.46-42.8-20.07Z" style="fill:#2cc3f4"/><path d="M43.71 98c15.18 10.61 23.58 20.07 42.8 20.07s27.63-9.46 42.8-20.07v.16c-15.17 10.61-23.58 20.07-42.8 20.07s-27.62-9.46-42.8-20.07Z" style="fill:#2bc4f4"/><path d="M43.71 97.82c15.18 10.61 23.58 20.07 42.8 20.07s27.63-9.46 42.8-20.07V98c-15.17 10.61-23.58 20.07-42.8 20.07S58.89 108.59 43.71 98Z" style="fill:#2ac5f4"/><path d="M43.71 97.71c15.18 10.61 23.58 20.07 42.8 20.07s27.63-9.46 42.8-20.07v.11c-15.17 10.61-23.58 20.07-42.8 20.07s-27.62-9.46-42.8-20.07Z" style="fill:#2ac5f4"/><path d="M43.71 97.6c15.18 10.62 23.58 20.07 42.8 20.07s27.63-9.45 42.8-20.07v.11c-15.17 10.61-23.58 20.07-42.8 20.07s-27.62-9.46-42.8-20.07Z" style="fill:#2bc5f4"/><path d="M43.71 97.49c15.18 10.62 23.58 20.07 42.8 20.07s27.63-9.45 42.8-20.07v.11c-15.17 10.62-23.58 20.07-42.8 20.07s-27.62-9.45-42.8-20.07Z" style="fill:#2cc4f3"/><path d="M43.71 97.39c15.18 10.61 23.58 20.07 42.8 20.07s27.63-9.46 42.8-20.07v.1c-15.17 10.62-23.58 20.07-42.8 20.07s-27.62-9.45-42.8-20.07Z" style="fill:#2dc4f3"/><path d="M43.71 97.28c15.18 10.62 23.58 20.07 42.8 20.07s27.63-9.45 42.8-20.07v.11c-15.17 10.61-23.58 20.07-42.8 20.07S58.89 108 43.71 97.39Z" style="fill:#2ec3f3"/><path d="M43.71 97.17c15.18 10.62 23.58 20.07 42.8 20.07s27.63-9.45 42.8-20.07v.11c-15.17 10.62-23.58 20.07-42.8 20.07s-27.62-9.45-42.8-20.07Z" style="fill:#2fc3f2"/><path d="M43.71 97.07c15.18 10.61 23.58 20.07 42.8 20.07s27.63-9.46 42.8-20.07v.1c-15.17 10.62-23.58 20.07-42.8 20.07s-27.62-9.45-42.8-20.07Z" style="fill:#30c2f2"/><path d="M43.71 97c15.18 10.57 23.58 20 42.8 20s27.63-9.46 42.8-20.07v.11c-15.17 10.61-23.58 20.07-42.8 20.07s-27.62-9.46-42.8-20.07Z" style="fill:#31c2f2"/><path d="M43.71 96.85c15.18 10.62 23.58 20.07 42.8 20.07s27.63-9.45 42.8-20.07V97c-15.17 10.57-23.58 20-42.8 20s-27.62-9.43-42.8-20Z" style="fill:#32c1f2"/><path d="M43.71 96.75c15.18 10.61 23.58 20.07 42.8 20.07s27.63-9.46 42.8-20.07v.1c-15.17 10.62-23.58 20.07-42.8 20.07s-27.62-9.45-42.8-20.07Z" style="fill:#33c1f1"/><path d="M43.71 96.64c15.18 10.61 23.58 20.07 42.8 20.07s27.63-9.46 42.8-20.07v.11c-15.17 10.61-23.58 20.07-42.8 20.07s-27.62-9.46-42.8-20.07Z" style="fill:#34c0f1"/><path d="M43.71 96.53c15.18 10.62 23.58 20.07 42.8 20.07s27.63-9.45 42.8-20.07v.11c-15.17 10.61-23.58 20.07-42.8 20.07s-27.62-9.46-42.8-20.07Z" style="fill:#35c0f1"/><path d="M43.71 96.42c15.18 10.62 23.58 20.07 42.8 20.07s27.63-9.45 42.8-20.07v.11c-15.17 10.62-23.58 20.07-42.8 20.07s-27.62-9.45-42.8-20.07Z" style="fill:#36bff0"/><path d="M43.71 96.32c15.18 10.61 23.58 20.07 42.8 20.07s27.63-9.46 42.8-20.07v.1c-15.17 10.62-23.58 20.07-42.8 20.07S58.89 107 43.71 96.42Z" style="fill:#37bff0"/><path d="M43.71 96.21c15.18 10.62 23.58 20.07 42.8 20.07s27.63-9.45 42.8-20.07v.11c-15.17 10.61-23.58 20.07-42.8 20.07s-27.62-9.46-42.8-20.07Z" style="fill:#38bef0"/><path d="M43.71 96.1c15.18 10.62 23.58 20.07 42.8 20.07s27.63-9.45 42.8-20.07v.11c-15.17 10.62-23.58 20.07-42.8 20.07s-27.62-9.45-42.8-20.07Z" style="fill:#39beef"/><path d="M43.71 96c15.18 10.61 23.58 20.07 42.8 20.07s27.63-9.46 42.8-20.07v.1c-15.17 10.62-23.58 20.07-42.8 20.07s-27.62-9.45-42.8-20.07Z" style="fill:#3abdef"/><path d="M43.71 95.89C58.89 106.5 67.29 116 86.51 116s27.63-9.46 42.8-20.07V96c-15.17 10.61-23.58 20.07-42.8 20.07S58.89 106.61 43.71 96Z" style="fill:#3bbdef"/><path d="M43.71 95.78c15.18 10.62 23.58 20.07 42.8 20.07s27.63-9.45 42.8-20.07v.11C114.14 106.5 105.73 116 86.51 116s-27.62-9.46-42.8-20.07Z" style="fill:#3cbcee"/><path d="M43.71 95.67c15.18 10.62 23.58 20.07 42.8 20.07s27.63-9.45 42.8-20.07v.11c-15.17 10.62-23.58 20.07-42.8 20.07s-27.62-9.45-42.8-20.07Z" style="fill:#3dbcee"/><path d="M43.71 95.57c15.18 10.61 23.58 20.07 42.8 20.07s27.63-9.46 42.8-20.07v.1c-15.17 10.62-23.58 20.07-42.8 20.07s-27.62-9.45-42.8-20.07Z" style="fill:#3ebbee"/><path d="M43.71 95.46c15.18 10.62 23.58 20.07 42.8 20.07s27.63-9.45 42.8-20.07v.11c-15.17 10.61-23.58 20.07-42.8 20.07s-27.62-9.46-42.8-20.07Z" style="fill:#3fbbed"/><path d="M43.71 95.35c15.18 10.62 23.58 20.07 42.8 20.07s27.63-9.45 42.8-20.07v.11c-15.17 10.62-23.58 20.07-42.8 20.07s-27.62-9.45-42.8-20.07Z" style="fill:#40bbed"/><path d="M43.71 95.25c15.18 10.61 23.58 20.07 42.8 20.07s27.63-9.46 42.8-20.07v.1c-15.17 10.62-23.58 20.07-42.8 20.07S58.89 106 43.71 95.35Z" style="fill:#41baed"/><path d="M43.71 95.14c15.18 10.61 23.58 20.07 42.8 20.07s27.63-9.46 42.8-20.07v.11c-15.17 10.61-23.58 20.07-42.8 20.07s-27.62-9.46-42.8-20.07Z" style="fill:#42baed"/><path d="M43.71 95c15.18 10.62 23.58 20.07 42.8 20.07s27.63-9.45 42.8-20.07v.11c-15.17 10.61-23.58 20.07-42.8 20.07s-27.62-9.46-42.8-20.07Z" style="fill:#43b9ec"/><path d="M43.71 94.92C58.89 105.54 67.29 115 86.51 115s27.63-9.46 42.8-20.08V95c-15.17 10.62-23.58 20.07-42.8 20.07S58.89 105.65 43.71 95Z" style="fill:#44b9ec"/><path d="M43.71 94.82c15.18 10.61 23.58 20.07 42.8 20.07s27.63-9.46 42.8-20.07v.1C114.14 105.54 105.73 115 86.51 115s-27.62-9.46-42.8-20.08Z" style="fill:#45b8ec"/><path d="M43.71 94.71c15.18 10.62 23.58 20.07 42.8 20.07s27.63-9.45 42.8-20.07v.11c-15.17 10.61-23.58 20.07-42.8 20.07s-27.62-9.46-42.8-20.07Z" style="fill:#46b8eb"/><path d="M43.71 94.6c15.18 10.62 23.58 20.07 42.8 20.07s27.63-9.45 42.8-20.07v.11c-15.17 10.62-23.58 20.07-42.8 20.07s-27.62-9.45-42.8-20.07Z" style="fill:#47b7eb"/><path d="M43.71 94.5c15.18 10.61 23.58 20.07 42.8 20.07s27.63-9.46 42.8-20.07v.1c-15.17 10.62-23.58 20.07-42.8 20.07s-27.62-9.45-42.8-20.07Z" style="fill:#48b7eb"/><path d="M43.71 94.39c15.18 10.62 23.58 20.07 42.8 20.07s27.63-9.45 42.8-20.07v.11c-15.17 10.61-23.58 20.07-42.8 20.07s-27.62-9.46-42.8-20.07Z" style="fill:#49b6ea"/><path d="M43.71 94.28c15.18 10.62 23.58 20.07 42.8 20.07s27.63-9.45 42.8-20.07v.11c-15.17 10.62-23.58 20.07-42.8 20.07S58.89 105 43.71 94.39Z" style="fill:#4ab6ea"/><path d="M43.71 94.18c15.18 10.61 23.58 20.07 42.8 20.07s27.63-9.46 42.8-20.07v.1c-15.17 10.62-23.58 20.07-42.8 20.07s-27.62-9.45-42.8-20.07Z" style="fill:#4bb5ea"/><path d="M43.71 94.07c15.18 10.61 23.58 20.07 42.8 20.07s27.63-9.46 42.8-20.07v.11c-15.17 10.61-23.58 20.07-42.8 20.07s-27.62-9.46-42.8-20.07Z" style="fill:#4cb5e9"/><path d="M43.71 94c15.18 10.58 23.58 20 42.8 20s27.63-9.45 42.8-20.07v.11c-15.17 10.61-23.58 20.07-42.8 20.07s-27.62-9.46-42.8-20.07Z" style="fill:#4db4e9"/><path d="M43.71 93.85c15.18 10.62 23.58 20.07 42.8 20.07s27.63-9.45 42.8-20.07V94c-15.17 10.58-23.58 20-42.8 20s-27.62-9.42-42.8-20Z" style="fill:#4eb4e9"/><path d="M43.71 93.75c15.18 10.61 23.58 20.07 42.8 20.07s27.63-9.46 42.8-20.07v.1c-15.17 10.62-23.58 20.07-42.8 20.07s-27.62-9.45-42.8-20.07Z" style="fill:#4fb3e8"/><path d="M43.71 93.64c15.18 10.62 23.58 20.07 42.8 20.07s27.63-9.45 42.8-20.07v.11c-15.17 10.61-23.58 20.07-42.8 20.07s-27.62-9.46-42.8-20.07Z" style="fill:#50b3e8"/><path d="M43.71 93.53c15.18 10.62 23.58 20.07 42.8 20.07s27.63-9.45 42.8-20.07v.11c-15.17 10.62-23.58 20.07-42.8 20.07s-27.62-9.45-42.8-20.07Z" style="fill:#51b2e8"/><path d="M43.71 93.43C58.89 104 67.29 113.5 86.51 113.5s27.63-9.46 42.8-20.07v.1c-15.17 10.62-23.58 20.07-42.8 20.07s-27.62-9.45-42.8-20.07Z" style="fill:#52b2e8"/><path d="M43.71 93.32c15.18 10.61 23.58 20.07 42.8 20.07s27.63-9.46 42.8-20.07v.11c-15.17 10.57-23.58 20.07-42.8 20.07s-27.62-9.5-42.8-20.07Z" style="fill:#53b1e7"/><path d="M43.71 93.21c15.18 10.62 23.58 20.07 42.8 20.07s27.63-9.45 42.8-20.07v.11c-15.17 10.61-23.58 20.07-42.8 20.07s-27.62-9.46-42.8-20.07Z" style="fill:#54b1e7"/><path d="M43.71 93.1c15.18 10.62 23.58 20.07 42.8 20.07s27.63-9.45 42.8-20.07v.11c-15.17 10.62-23.58 20.07-42.8 20.07s-27.62-9.45-42.8-20.07Z" style="fill:#55b1e7"/><path d="M43.71 93c15.18 10.61 23.58 20.07 42.8 20.07s27.63-9.46 42.8-20.07v.1c-15.17 10.62-23.58 20.07-42.8 20.07s-27.62-9.45-42.8-20.07Z" style="fill:#56b0e6"/><path d="M43.71 92.89C58.89 103.51 67.29 113 86.51 113s27.63-9.45 42.8-20.07V93c-15.17 10.61-23.58 20.07-42.8 20.07S58.89 103.61 43.71 93Z" style="fill:#57b0e6"/><path d="M43.71 92.78c15.18 10.62 23.58 20.07 42.8 20.07s27.63-9.45 42.8-20.07v.11C114.14 103.51 105.73 113 86.51 113s-27.62-9.45-42.8-20.07Z" style="fill:#58afe6"/><path d="M43.71 92.68c15.18 10.61 23.58 20.07 42.8 20.07s27.63-9.46 42.8-20.07v.1c-15.17 10.62-23.58 20.07-42.8 20.07s-27.62-9.45-42.8-20.07Z" style="fill:#59afe5"/><path d="M43.71 92.57c15.18 10.62 23.58 20.07 42.8 20.07s27.63-9.45 42.8-20.07v.11c-15.17 10.61-23.58 20.07-42.8 20.07s-27.62-9.46-42.8-20.07Z" style="fill:#5aaee5"/><path d="M43.71 92.46c15.18 10.62 23.58 20.07 42.8 20.07s27.63-9.45 42.8-20.07v.11c-15.17 10.62-23.58 20.07-42.8 20.07s-27.62-9.45-42.8-20.07Z" style="fill:#5baee5"/><path d="M43.71 92.36c15.18 10.61 23.58 20.07 42.8 20.07s27.63-9.46 42.8-20.07v.1c-15.17 10.62-23.58 20.07-42.8 20.07s-27.62-9.45-42.8-20.07Z" style="fill:#5cade4"/><path d="M43.71 92.25c15.18 10.61 23.58 20.07 42.8 20.07s27.63-9.46 42.8-20.07v.11c-15.17 10.61-23.58 20.07-42.8 20.07S58.89 103 43.71 92.36Z" style="fill:#5dade4"/><path d="M43.71 92.14c15.18 10.62 23.58 20.07 42.8 20.07s27.63-9.45 42.8-20.07v.11c-15.17 10.61-23.58 20.07-42.8 20.07s-27.62-9.46-42.8-20.07Z" style="fill:#5eace4"/><path d="M43.71 92c15.18 10.62 23.58 20.07 42.8 20.07s27.63-9.45 42.8-20.07v.11c-15.17 10.62-23.58 20.07-42.8 20.07s-27.62-9.45-42.8-20.07Z" style="fill:#5face4"/><path d="M43.71 91.93C58.89 102.54 67.29 112 86.51 112s27.63-9.46 42.8-20.07V92c-15.17 10.62-23.58 20.07-42.8 20.07S58.89 102.65 43.71 92Z" style="fill:#60abe3"/><path d="M43.71 91.82c15.18 10.62 23.58 20.07 42.8 20.07s27.63-9.45 42.8-20.07v.11C114.14 102.54 105.73 112 86.51 112s-27.62-9.46-42.8-20.07Z" style="fill:#61abe3"/><path d="M43.71 91.71c15.18 10.62 23.58 20.07 42.8 20.07s27.63-9.45 42.8-20.07v.11c-15.17 10.62-23.58 20.07-42.8 20.07s-27.62-9.45-42.8-20.07Z" style="fill:#62aae3"/><path d="M43.71 91.61c15.18 10.61 23.58 20.07 42.8 20.07s27.63-9.46 42.8-20.07v.1c-15.17 10.62-23.58 20.07-42.8 20.07s-27.62-9.45-42.8-20.07Z" style="fill:#63aae2"/><path d="M43.71 91.5c15.18 10.61 23.58 20.07 42.8 20.07s27.63-9.46 42.8-20.07v.11c-15.17 10.61-23.58 20.07-42.8 20.07s-27.62-9.46-42.8-20.07Z" style="fill:#64a9e2"/><path d="M43.71 91.39c15.18 10.62 23.58 20.07 42.8 20.07s27.63-9.45 42.8-20.07v.11c-15.17 10.61-23.58 20.07-42.8 20.07s-27.62-9.46-42.8-20.07Z" style="fill:#65a9e2"/><path d="M43.71 91.28c15.18 10.62 23.58 20.07 42.8 20.07s27.63-9.45 42.8-20.07v.11c-15.17 10.62-23.58 20.07-42.8 20.07S58.89 102 43.71 91.39Z" style="fill:#66a8e1"/><path d="M43.71 91.18c15.18 10.61 23.58 20.07 42.8 20.07s27.63-9.46 42.8-20.07v.1c-15.17 10.62-23.58 20.07-42.8 20.07s-27.62-9.45-42.8-20.07Z" style="fill:#67a8e1"/><path d="M43.71 91.07c15.18 10.62 23.58 20.07 42.8 20.07s27.63-9.45 42.8-20.07v.11c-15.17 10.61-23.58 20.07-42.8 20.07s-27.62-9.46-42.8-20.07Z" style="fill:#68a7e1"/><path d="M43.71 91c15.18 10.58 23.58 20 42.8 20s27.63-9.45 42.8-20.07v.11c-15.17 10.62-23.58 20.07-42.8 20.07s-27.62-9.45-42.8-20.07Z" style="fill:#69a7e0"/><path d="M43.71 90.86c15.18 10.61 23.58 20.07 42.8 20.07s27.63-9.46 42.8-20.07V91c-15.17 10.58-23.58 20-42.8 20s-27.62-9.42-42.8-20Z" style="fill:#6aa7e0"/><path d="M43.71 90.75c15.18 10.61 23.58 20.07 42.8 20.07s27.63-9.46 42.8-20.07v.11c-15.17 10.61-23.58 20.07-42.8 20.07s-27.62-9.46-42.8-20.07Z" style="fill:#6ba6e0"/><path d="M43.71 90.64c15.18 10.62 23.58 20.07 42.8 20.07s27.63-9.45 42.8-20.07v.11c-15.17 10.61-23.58 20.07-42.8 20.07s-27.62-9.46-42.8-20.07Z" style="fill:#6ca6df"/><path d="M43.71 90.54c15.18 10.61 23.58 20.07 42.8 20.07s27.63-9.46 42.8-20.07v.1c-15.17 10.62-23.58 20.07-42.8 20.07s-27.62-9.45-42.8-20.07Z" style="fill:#6da5df"/><path d="M43.71 90.43C58.89 101 67.29 110.5 86.51 110.5s27.63-9.46 42.8-20.07v.11c-15.17 10.61-23.58 20.07-42.8 20.07s-27.62-9.46-42.8-20.07Z" style="fill:#6ea5df"/><path d="M43.71 90.32c15.18 10.62 23.58 20.07 42.8 20.07s27.63-9.45 42.8-20.07v.11c-15.17 10.57-23.58 20.07-42.8 20.07s-27.62-9.5-42.8-20.07Z" style="fill:#6fa4df"/><path d="M43.71 90.21c15.18 10.62 23.58 20.07 42.8 20.07s27.63-9.45 42.8-20.07v.11c-15.17 10.62-23.58 20.07-42.8 20.07s-27.62-9.45-42.8-20.07Z" style="fill:#70a4de"/><path d="M43.71 90.11c15.18 10.61 23.58 20.07 42.8 20.07s27.63-9.46 42.8-20.07v.1c-15.17 10.62-23.58 20.07-42.8 20.07s-27.62-9.45-42.8-20.07Z" style="fill:#71a3de"/><path d="M43.71 90c15.18 10.62 23.58 20.07 42.8 20.07s27.63-9.45 42.8-20.07v.11c-15.17 10.61-23.58 20.07-42.8 20.07s-27.62-9.46-42.8-20.07Z" style="fill:#72a3de"/><path d="M43.71 89.89C58.89 100.51 67.29 110 86.51 110s27.63-9.45 42.8-20.07V90c-15.17 10.62-23.58 20.07-42.8 20.07S58.89 100.62 43.71 90Z" style="fill:#73a2dd"/><path d="M43.71 89.79c15.18 10.61 23.58 20.07 42.8 20.07s27.63-9.46 42.8-20.07v.1C114.14 100.51 105.73 110 86.51 110s-27.62-9.45-42.8-20.07Z" style="fill:#74a2dd"/><path d="M43.71 89.68c15.18 10.61 23.58 20.07 42.8 20.07s27.63-9.46 42.8-20.07v.11c-15.17 10.61-23.58 20.07-42.8 20.07s-27.62-9.46-42.8-20.07Z" style="fill:#75a1dd"/><path d="M43.71 89.57c15.18 10.62 23.58 20.07 42.8 20.07s27.63-9.45 42.8-20.07v.11c-15.17 10.61-23.58 20.07-42.8 20.07s-27.62-9.46-42.8-20.07Z" style="fill:#76a1dc"/><path d="M43.71 89.46c15.18 10.62 23.58 20.07 42.8 20.07s27.63-9.45 42.8-20.07v.11c-15.17 10.62-23.58 20.07-42.8 20.07s-27.62-9.45-42.8-20.07Z" style="fill:#77a0dc"/><path d="M43.71 89.36c15.18 10.61 23.58 20.07 42.8 20.07s27.63-9.46 42.8-20.07v.1c-15.17 10.62-23.58 20.07-42.8 20.07s-27.62-9.45-42.8-20.07Z" style="fill:#78a0dc"/><path d="M43.71 89.25c15.18 10.62 23.58 20.07 42.8 20.07s27.63-9.45 42.8-20.07v.11c-15.17 10.61-23.58 20.07-42.8 20.07S58.89 100 43.71 89.36Z" style="fill:#799fdb"/><path d="M43.71 89.14c15.18 10.62 23.58 20.07 42.8 20.07s27.63-9.45 42.8-20.07v.11c-15.17 10.62-23.58 20.07-42.8 20.07s-27.62-9.45-42.8-20.07Z" style="fill:#7a9fdb"/><path d="M43.71 89c15.18 10.61 23.58 20.07 42.8 20.07s27.63-9.46 42.8-20.07v.1c-15.17 10.62-23.58 20.07-42.8 20.07s-27.62-9.45-42.8-20.07Z" style="fill:#7b9edb"/><path d="M43.71 88.93C58.89 99.54 67.29 109 86.51 109s27.63-9.46 42.8-20.07V89c-15.17 10.61-23.58 20.07-42.8 20.07S58.89 99.65 43.71 89Z" style="fill:#7c9eda"/><path d="M43.71 88.82c15.18 10.62 23.58 20.07 42.8 20.07s27.63-9.45 42.8-20.07v.11C114.14 99.54 105.73 109 86.51 109s-27.62-9.46-42.8-20.07Z" style="fill:#7d9dda"/><path d="M43.71 88.71c15.18 10.62 23.58 20.08 42.8 20.08s27.63-9.46 42.8-20.08v.11c-15.17 10.62-23.58 20.07-42.8 20.07s-27.62-9.45-42.8-20.07Z" style="fill:#7e9dda"/><path d="M43.71 88.61c15.18 10.61 23.58 20.07 42.8 20.07s27.63-9.46 42.8-20.07v.1c-15.17 10.62-23.58 20.07-42.8 20.08s-27.62-9.46-42.8-20.08Z" style="fill:#7f9dda"/><path d="M43.71 88.5c15.18 10.62 23.58 20.07 42.8 20.07s27.63-9.45 42.8-20.07v.11c-15.17 10.61-23.58 20.07-42.8 20.07s-27.62-9.46-42.8-20.07Z" style="fill:#809cd9"/><path d="M43.71 88.39c15.18 10.61 23.58 20.07 42.8 20.07s27.63-9.45 42.8-20.07v.11c-15.17 10.62-23.58 20.07-42.8 20.07s-27.62-9.45-42.8-20.07Z" style="fill:#819cd9"/><path d="M43.71 88.29c15.18 10.61 23.58 20.07 42.8 20.07s27.63-9.46 42.8-20.07v.1c-15.17 10.62-23.58 20.07-42.8 20.07S58.89 99 43.71 88.39Z" style="fill:#829bd9"/><path d="M43.71 88.18c15.18 10.62 23.58 20.07 42.8 20.07s27.63-9.45 42.8-20.07v.11c-15.17 10.61-23.58 20.07-42.8 20.07s-27.62-9.46-42.8-20.07Z" style="fill:#839bd8"/><path d="M43.71 88.07c15.18 10.62 23.58 20.07 42.8 20.07s27.63-9.45 42.8-20.07v.11c-15.17 10.62-23.58 20.07-42.8 20.07s-27.62-9.45-42.8-20.07Z" style="fill:#849ad8"/><path d="M43.71 88c15.18 10.58 23.58 20 42.8 20s27.63-9.46 42.8-20.07v.1c-15.17 10.62-23.58 20.07-42.8 20.07s-27.62-9.45-42.8-20.07Z" style="fill:#859ad8"/><path d="M43.71 87.86c15.18 10.61 23.58 20.07 42.8 20.07s27.63-9.46 42.8-20.07V88c-15.17 10.58-23.58 20-42.8 20s-27.62-9.42-42.8-20Z" style="fill:#8699d7"/><path d="M43.71 87.75c15.18 10.62 23.58 20.07 42.8 20.07s27.63-9.45 42.8-20.07v.11c-15.17 10.61-23.58 20.07-42.8 20.07s-27.62-9.46-42.8-20.07Z" style="fill:#8799d7"/><path d="M43.71 87.64c15.18 10.62 23.58 20.07 42.8 20.07s27.63-9.45 42.8-20.07v.11c-15.17 10.62-23.58 20.07-42.8 20.07s-27.62-9.45-42.8-20.07Z" style="fill:#8898d7"/><path d="M43.71 87.54c15.18 10.61 23.58 20.07 42.8 20.07s27.63-9.46 42.8-20.07v.1c-15.17 10.62-23.58 20.07-42.8 20.07s-27.62-9.45-42.8-20.07Z" style="fill:#8998d6"/><path d="M43.71 87.43c15.18 10.62 23.58 20.07 42.8 20.07s27.63-9.45 42.8-20.07v.11c-15.17 10.61-23.58 20.07-42.8 20.07s-27.62-9.46-42.8-20.07Z" style="fill:#8a97d6"/><path d="M43.71 87.32c15.18 10.62 23.58 20.07 42.8 20.07s27.63-9.45 42.8-20.07v.11c-15.17 10.62-23.58 20.07-42.8 20.07s-27.62-9.45-42.8-20.07Z" style="fill:#8b97d6"/><path d="M43.71 87.22c15.18 10.61 23.58 20.07 42.8 20.07s27.63-9.46 42.8-20.07v.1c-15.17 10.62-23.58 20.07-42.8 20.07s-27.62-9.45-42.8-20.07Z" style="fill:#8c96d5"/><path d="M43.71 87.11c15.18 10.61 23.58 20.07 42.8 20.07s27.63-9.46 42.8-20.07v.11c-15.17 10.61-23.58 20.07-42.8 20.07s-27.62-9.46-42.8-20.07Z" style="fill:#8d96d5"/><path d="M43.71 87c15.18 10.62 23.58 20.07 42.8 20.07s27.63-9.45 42.8-20.07v.11c-15.17 10.61-23.58 20.07-42.8 20.07s-27.62-9.46-42.8-20.07Z" style="fill:#8e95d5"/><path d="M43.71 86.89C58.89 97.51 67.29 107 86.51 107s27.63-9.46 42.8-20.08V87c-15.17 10.62-23.58 20.07-42.8 20.07S58.89 97.62 43.71 87Z" style="fill:#8f95d5"/><path d="M43.71 86.79c15.18 10.61 23.58 20.07 42.8 20.07s27.63-9.46 42.8-20.07v.1C114.14 97.51 105.73 107 86.51 107s-27.62-9.46-42.8-20.08Z" style="fill:#9094d4"/><path d="M43.71 86.68c15.18 10.62 23.58 20.07 42.8 20.07s27.63-9.45 42.8-20.07v.11c-15.17 10.61-23.58 20.07-42.8 20.07s-27.62-9.46-42.8-20.07Z" style="fill:#9194d4"/><path d="M43.71 86.57c15.18 10.62 23.58 20.07 42.8 20.07s27.63-9.45 42.8-20.07v.11c-15.17 10.62-23.58 20.07-42.8 20.07s-27.62-9.45-42.8-20.07Z" style="fill:#9293d4"/><path d="M43.71 86.47c15.18 10.61 23.58 20.07 42.8 20.07s27.63-9.46 42.8-20.07v.1c-15.17 10.62-23.58 20.07-42.8 20.07s-27.62-9.45-42.8-20.07Z" style="fill:#9393d3"/><path d="M43.71 86.36c15.18 10.64 23.58 20.07 42.8 20.07s27.63-9.46 42.8-20.07v.11c-15.17 10.61-23.58 20.07-42.8 20.07s-27.62-9.46-42.8-20.07Z" style="fill:#9593d3"/><path d="M43.71 86.25c15.18 10.62 23.58 20.07 42.8 20.07s27.63-9.45 42.8-20.07v.11c-15.17 10.61-23.58 20.07-42.8 20.07S58.89 97 43.71 86.36Z" style="fill:#9692d3"/><path d="M43.71 86.14c15.18 10.62 23.58 20.08 42.8 20.08s27.63-9.46 42.8-20.08v.11c-15.17 10.62-23.58 20.07-42.8 20.07s-27.62-9.45-42.8-20.07Z" style="fill:#9792d2"/><path d="M43.71 86c15.18 10.61 23.58 20.07 42.8 20.07s27.63-9.46 42.8-20.07v.1c-15.17 10.62-23.58 20.08-42.8 20.08s-27.62-9.46-42.8-20.08Z" style="fill:#9891d2"/><path d="M43.71 85.93C58.89 96.55 67.29 106 86.51 106s27.63-9.45 42.8-20.07V86c-15.17 10.61-23.58 20.07-42.8 20.07S58.89 96.65 43.71 86Z" style="fill:#9991d2"/><path d="M43.71 85.82c15.18 10.62 23.58 20.07 42.8 20.07s27.63-9.45 42.8-20.07v.11C114.14 96.55 105.73 106 86.51 106s-27.62-9.45-42.8-20.07Z" style="fill:#9a90d1"/><path d="M43.71 85.72c15.18 10.61 23.58 20.07 42.8 20.07s27.63-9.46 42.8-20.07v.1c-15.17 10.62-23.58 20.07-42.8 20.07s-27.62-9.45-42.8-20.07Z" style="fill:#9b90d1"/><path d="M43.71 85.61c15.18 10.62 23.58 20.07 42.8 20.07s27.63-9.45 42.8-20.07v.11c-15.17 10.61-23.58 20.07-42.8 20.07s-27.62-9.46-42.8-20.07Z" style="fill:#9c8fd1"/><path d="M43.71 85.5c15.18 10.62 23.58 20.07 42.8 20.07s27.63-9.45 42.8-20.07v.11c-15.17 10.62-23.58 20.07-42.8 20.07s-27.62-9.45-42.8-20.07Z" style="fill:#9d8fd1"/><path d="M43.71 85.4c15.18 10.6 23.58 20.07 42.8 20.07s27.63-9.47 42.8-20.07v.1c-15.17 10.62-23.58 20.07-42.8 20.07s-27.62-9.45-42.8-20.07Z" style="fill:#9e8ed0"/><path d="M43.71 85.29c15.18 10.61 23.58 20.07 42.8 20.07s27.63-9.46 42.8-20.07v.11c-15.17 10.61-23.58 20.07-42.8 20.07S58.89 96 43.71 85.4Z" style="fill:#9f8ed0"/><path d="M43.71 85.18c15.18 10.62 23.58 20.07 42.8 20.07s27.63-9.45 42.8-20.07v.11c-15.17 10.61-23.58 20.07-42.8 20.07s-27.62-9.46-42.8-20.07Z" style="fill:#a08dd0"/><path d="M43.71 85.07c15.18 10.62 23.58 20.07 42.8 20.07s27.63-9.45 42.8-20.07v.11c-15.17 10.62-23.58 20.07-42.8 20.07s-27.62-9.45-42.8-20.07Z" style="fill:#a18dcf"/><path d="M43.71 85c15.18 10.58 23.58 20 42.8 20s27.63-9.46 42.8-20.07v.1c-15.17 10.62-23.58 20.07-42.8 20.07s-27.62-9.45-42.8-20.07Z" style="fill:#a28ccf"/><path d="M43.71 84.86c15.18 10.62 23.58 20.07 42.8 20.07s27.63-9.45 42.8-20.07V85c-15.17 10.58-23.58 20-42.8 20s-27.62-9.42-42.8-20Z" style="fill:#a38ccf"/><path d="M43.71 84.75c15.18 10.62 23.58 20.07 42.8 20.07s27.63-9.45 42.8-20.07v.11c-15.17 10.62-23.58 20.07-42.8 20.07s-27.62-9.45-42.8-20.07Z" style="fill:#a48bce"/><path d="M43.71 84.65c15.18 10.61 23.58 20.07 42.8 20.07s27.63-9.46 42.8-20.07v.1c-15.17 10.62-23.58 20.07-42.8 20.07s-27.62-9.45-42.8-20.07Z" style="fill:#a58bce"/><path d="M43.71 84.54c15.18 10.61 23.58 20.07 42.8 20.07s27.63-9.46 42.8-20.07v.11c-15.17 10.61-23.58 20.07-42.8 20.07s-27.62-9.46-42.8-20.07Z" style="fill:#a68ace"/><path d="M43.71 84.43c15.18 10.62 23.58 20.07 42.8 20.07s27.63-9.45 42.8-20.07v.11c-15.17 10.61-23.58 20.07-42.8 20.07s-27.62-9.46-42.8-20.07Z" style="fill:#a78acd"/><path d="M43.71 84.32c15.18 10.62 23.58 20.08 42.8 20.08s27.63-9.46 42.8-20.08v.11c-15.17 10.62-23.58 20.07-42.8 20.07s-27.62-9.45-42.8-20.07Z" style="fill:#a889cd"/><path d="M43.71 84.22c15.18 10.61 23.58 20.07 42.8 20.07s27.63-9.46 42.8-20.07v.1c-15.17 10.62-23.58 20.08-42.8 20.08s-27.62-9.46-42.8-20.08Z" style="fill:#a989cd"/><path d="M43.71 84.11c15.18 10.62 23.58 20.07 42.8 20.07s27.63-9.45 42.8-20.07v.11c-15.17 10.61-23.58 20.07-42.8 20.07s-27.62-9.46-42.8-20.07Z" style="fill:#a8c"/><path d="M43.71 84c15.18 10.62 23.58 20.07 42.8 20.07s27.63-9.45 42.8-20.07v.11c-15.17 10.62-23.58 20.07-42.8 20.07s-27.62-9.45-42.8-20.07Z" style="fill:#ab88cc"/><path d="M43.71 83.9C58.89 94.51 67.29 104 86.51 104s27.63-9.46 42.8-20.07V84c-15.17 10.62-23.58 20.07-42.8 20.07S58.89 94.62 43.71 84Z" style="fill:#ac88cc"/><path d="M43.71 83.79c15.18 10.62 23.58 20.07 42.8 20.07s27.63-9.45 42.8-20.07v.11c-15.17 10.61-23.58 20.1-42.8 20.1s-27.62-9.49-42.8-20.1Z" style="fill:#ad87cc"/><path d="M43.71 83.68c15.18 10.62 23.58 20.07 42.8 20.07s27.63-9.45 42.8-20.07v.11c-15.17 10.62-23.58 20.07-42.8 20.07s-27.62-9.45-42.8-20.07Z" style="fill:#ae87cb"/><path d="M43.71 83.58c15.18 10.61 23.58 20.07 42.8 20.07s27.63-9.46 42.8-20.07v.1c-15.17 10.62-23.58 20.07-42.8 20.07s-27.62-9.45-42.8-20.07Z" style="fill:#af86cb"/><path d="M43.71 83.47c15.18 10.61 23.58 20.07 42.8 20.07s27.63-9.46 42.8-20.07v.11c-15.17 10.61-23.58 20.07-42.8 20.07s-27.62-9.46-42.8-20.07Z" style="fill:#b086cb"/><path d="M43.71 83.36c15.18 10.64 23.58 20.07 42.8 20.07s27.63-9.45 42.8-20.07v.11c-15.17 10.61-23.58 20.07-42.8 20.07s-27.62-9.46-42.8-20.07Z" style="fill:#b185ca"/><path d="M43.71 83.25c15.18 10.62 23.58 20.07 42.8 20.07s27.63-9.45 42.8-20.07v.11c-15.17 10.62-23.58 20.07-42.8 20.07S58.89 94 43.71 83.36Z" style="fill:#b285ca"/><path d="M43.71 83.15c15.18 10.61 23.58 20.07 42.8 20.07s27.63-9.46 42.8-20.07v.1c-15.17 10.62-23.58 20.07-42.8 20.07s-27.62-9.45-42.8-20.07Z" style="fill:#b384ca"/><path d="M43.71 83c15.18 10.62 23.58 20.07 42.8 20.07s27.63-9.45 42.8-20.07v.11c-15.17 10.61-23.58 20.07-42.8 20.07s-27.62-9.46-42.8-20.07Z" style="fill:#b484c9"/><path d="M43.71 82.93C58.89 93.55 67.29 103 86.51 103s27.63-9.45 42.8-20.07V83c-15.17 10.62-23.58 20.07-42.8 20.07S58.89 93.66 43.71 83Z" style="fill:#b583c9"/><path d="M43.71 82.83c15.18 10.61 23.58 20.07 42.8 20.07s27.63-9.46 42.8-20.07v.1C114.14 93.55 105.73 103 86.51 103s-27.62-9.45-42.8-20.07Z" style="fill:#b683c9"/><path d="M43.71 82.72c15.18 10.61 23.58 20.07 42.8 20.07s27.63-9.46 42.8-20.07v.11c-15.17 10.61-23.58 20.07-42.8 20.07s-27.62-9.46-42.8-20.07Z" style="fill:#b782c8"/><path d="M43.71 82.61c15.18 10.62 23.58 20.07 42.8 20.07s27.63-9.45 42.8-20.07v.11c-15.17 10.61-23.58 20.07-42.8 20.07s-27.62-9.46-42.8-20.07Z" style="fill:#b882c8"/><path d="M43.71 82.5c15.18 10.62 23.58 20.08 42.8 20.08s27.63-9.46 42.8-20.08v.11c-15.17 10.62-23.58 20.07-42.8 20.07s-27.62-9.45-42.8-20.07Z" style="fill:#b981c8"/><path d="M43.71 82.4c15.18 10.6 23.58 20.07 42.8 20.07s27.63-9.47 42.8-20.07v.1c-15.17 10.62-23.58 20.08-42.8 20.08s-27.62-9.46-42.8-20.08Z" style="fill:#ba81c7"/><path d="M43.71 82.29c15.18 10.62 23.58 20.07 42.8 20.07s27.63-9.45 42.8-20.07v.11c-15.17 10.61-23.58 20.07-42.8 20.07S58.89 93 43.71 82.4Z" style="fill:#bb80c7"/><path d="M43.71 82.18c15.18 10.62 23.58 20.07 42.8 20.07s27.63-9.45 42.8-20.07v.11c-15.17 10.62-23.58 20.07-42.8 20.07s-27.62-9.45-42.8-20.07Z" style="fill:#bc80c7"/><path d="M43.71 82.08c15.18 10.61 23.58 20.07 42.8 20.07s27.63-9.46 42.8-20.07v.1c-15.17 10.62-23.58 20.07-42.8 20.07s-27.62-9.45-42.8-20.07Z" style="fill:#bd7fc7"/><path d="M43.71 82c15.18 10.59 23.58 20 42.8 20s27.63-9.45 42.8-20.07v.11c-15.17 10.61-23.58 20.07-42.8 20.07s-27.62-9.46-42.8-20.07Z" style="fill:#be7fc6"/><path d="M43.71 81.86c15.18 10.62 23.58 20.07 42.8 20.07s27.63-9.45 42.8-20.07V82c-15.17 10.59-23.58 20-42.8 20s-27.62-9.41-42.8-20Z" style="fill:#bf7ec6"/><path d="M43.71 81.76c15.18 10.61 23.58 20.07 42.8 20.07s27.63-9.46 42.8-20.07v.1c-15.17 10.62-23.58 20.07-42.8 20.07s-27.62-9.45-42.8-20.07Z" style="fill:#c07ec6"/><path d="M43.71 81.65c15.18 10.61 23.58 20.07 42.8 20.07s27.63-9.46 42.8-20.07v.11c-15.17 10.61-23.58 20.07-42.8 20.07s-27.62-9.46-42.8-20.07Z" style="fill:#c17ec5"/><path d="M43.71 81.54c15.18 10.62 23.58 20.07 42.8 20.07s27.63-9.45 42.8-20.07v.11c-15.17 10.61-23.58 20.07-42.8 20.07s-27.62-9.46-42.8-20.07Z" style="fill:#c27dc5"/><path d="M43.71 81.43c15.18 10.62 23.58 20.07 42.8 20.07s27.63-9.45 42.8-20.07v.11c-15.17 10.62-23.58 20.07-42.8 20.07s-27.62-9.45-42.8-20.07Z" style="fill:#c37dc5"/><path d="M43.71 81.33c15.18 10.61 23.58 20.07 42.8 20.07s27.63-9.46 42.8-20.07v.1c-15.17 10.62-23.58 20.07-42.8 20.07s-27.62-9.45-42.8-20.07Z" style="fill:#c47cc4"/><path d="M43.71 81.22c15.18 10.62 23.58 20.07 42.8 20.07s27.63-9.45 42.8-20.07v.11c-15.17 10.61-23.58 20.07-42.8 20.07s-27.62-9.46-42.8-20.07Z" style="fill:#c57cc4"/><path d="M43.71 81.11c15.18 10.62 23.58 20.07 42.8 20.07s27.63-9.45 42.8-20.07v.11c-15.17 10.62-23.58 20.07-42.8 20.07s-27.62-9.45-42.8-20.07Z" style="fill:#c67bc4"/><path d="M43.71 81c15.18 10.61 23.58 20.07 42.8 20.07s27.63-9.46 42.8-20.07v.1c-15.17 10.62-23.58 20.07-42.8 20.07s-27.62-9.45-42.8-20.07Z" style="fill:#c77bc3"/><path d="M43.71 80.9C58.89 91.51 67.29 101 86.51 101s27.63-9.46 42.8-20.07V81c-15.17 10.61-23.58 20.07-42.8 20.07S58.89 91.62 43.71 81Z" style="fill:#c87ac3"/><path d="M43.71 80.79c15.18 10.62 23.58 20.07 42.8 20.07s27.63-9.45 42.8-20.07v.11c-15.17 10.61-23.58 20.1-42.8 20.1s-27.62-9.49-42.8-20.1Z" style="fill:#c97ac3"/><path d="M43.71 80.68c15.18 10.62 23.58 20.08 42.8 20.08s27.63-9.46 42.8-20.08v.11c-15.17 10.62-23.58 20.07-42.8 20.07s-27.62-9.45-42.8-20.07Z" style="fill:#ca79c3"/><path d="M43.71 80.58c15.18 10.61 23.58 20.07 42.8 20.07s27.63-9.46 42.8-20.07v.1c-15.17 10.62-23.58 20.08-42.8 20.08s-27.62-9.46-42.8-20.08Z" style="fill:#cb79c2"/><path d="M43.71 80.47c15.18 10.62 23.58 20.07 42.8 20.07s27.63-9.45 42.8-20.07v.11c-15.17 10.61-23.58 20.07-42.8 20.07s-27.62-9.46-42.8-20.07Z" style="fill:#cc78c2"/><path d="M43.71 80.36c15.18 10.64 23.58 20.07 42.8 20.07s27.63-9.45 42.8-20.07v.11c-15.17 10.62-23.58 20.07-42.8 20.07s-27.62-9.45-42.8-20.07Z" style="fill:#cd78c2"/><path d="M43.71 80.26c15.18 10.61 23.58 20.07 42.8 20.07s27.63-9.46 42.8-20.07v.1c-15.17 10.62-23.58 20.07-42.8 20.07S58.89 91 43.71 80.36Z" style="fill:#ce77c1"/><path d="M43.71 80.15c15.18 10.62 23.58 20.07 42.8 20.07s27.63-9.45 42.8-20.07v.11c-15.17 10.61-23.58 20.07-42.8 20.07s-27.62-9.46-42.8-20.07Z" style="fill:#cf77c1"/><path d="M43.71 80c15.18 10.62 23.58 20.07 42.8 20.07s27.63-9.45 42.8-20.07v.11c-15.17 10.62-23.58 20.07-42.8 20.07s-27.62-9.45-42.8-20.07Z" style="fill:#d076c1"/><path d="M43.71 79.94C58.89 90.55 67.29 100 86.51 100s27.63-9.46 42.8-20.07V80c-15.17 10.62-23.58 20.07-42.8 20.07S58.89 90.66 43.71 80Z" style="fill:#d176c0"/><path d="M43.71 79.83C58.89 90.44 67.29 99.9 86.51 99.9s27.63-9.46 42.8-20.07v.11C114.14 90.55 105.73 100 86.51 100s-27.62-9.46-42.8-20.07Z" style="fill:#d275c0"/><path d="M43.71 79.72c15.18 10.62 23.58 20.07 42.8 20.07s27.63-9.45 42.8-20.07v.11c-15.17 10.61-23.58 20.07-42.8 20.07s-27.62-9.46-42.8-20.07Z" style="fill:#d375c0"/><path d="M43.71 79.61c15.18 10.62 23.58 20.07 42.8 20.07s27.63-9.45 42.8-20.07v.11c-15.17 10.62-23.58 20.07-42.8 20.07s-27.62-9.45-42.8-20.07Z" style="fill:#d474bf"/><path d="M43.71 79.51c15.18 10.61 23.58 20.07 42.8 20.07s27.63-9.46 42.8-20.07v.1c-15.17 10.62-23.58 20.07-42.8 20.07s-27.62-9.45-42.8-20.07Z" style="fill:#d574bf"/><path d="M43.71 79.4C58.89 90 67.29 99.47 86.51 99.47s27.63-9.47 42.8-20.07v.11c-15.17 10.61-23.58 20.07-42.8 20.07s-27.62-9.46-42.8-20.07Z" style="fill:#d674bf"/><path d="M43.71 79.29c15.18 10.62 23.58 20.07 42.8 20.07s27.63-9.45 42.8-20.07v.11c-15.17 10.6-23.58 20.07-42.8 20.07S58.89 90 43.71 79.4Z" style="fill:#d773be"/><path d="M43.71 79.19c15.18 10.61 23.58 20.07 42.8 20.07s27.63-9.46 42.8-20.07v.1c-15.17 10.62-23.58 20.07-42.8 20.07s-27.62-9.45-42.8-20.07Z" style="fill:#d873be"/><path d="M43.71 79.08c15.18 10.61 23.58 20.07 42.8 20.07s27.63-9.46 42.8-20.07v.11c-15.17 10.61-23.58 20.07-42.8 20.07s-27.62-9.46-42.8-20.07Z" style="fill:#d972be"/><path d="M43.71 79c15.18 10.59 23.58 20 42.8 20s27.63-9.45 42.8-20.07v.11c-15.17 10.61-23.58 20.07-42.8 20.07s-27.62-9.46-42.8-20.07Z" style="fill:#da72be"/><path d="M43.71 78.86c15.18 10.62 23.58 20.08 42.8 20.08s27.63-9.46 42.8-20.08V79c-15.17 10.59-23.58 20-42.8 20s-27.62-9.41-42.8-20Z" style="fill:#db71bd"/><path d="M43.71 78.76c15.18 10.61 23.58 20.07 42.8 20.07s27.63-9.46 42.8-20.07v.1c-15.17 10.62-23.58 20.08-42.8 20.08s-27.62-9.46-42.8-20.08Z" style="fill:#dc71bd"/><path d="M43.71 78.65c15.18 10.62 23.58 20.07 42.8 20.07s27.63-9.45 42.8-20.07v.11c-15.17 10.61-23.58 20.07-42.8 20.07s-27.62-9.46-42.8-20.07Z" style="fill:#dd70bd"/><path d="M43.71 78.54c15.18 10.62 23.58 20.07 42.8 20.07s27.63-9.45 42.8-20.07v.11c-15.17 10.62-23.58 20.07-42.8 20.07s-27.62-9.45-42.8-20.07Z" style="fill:#de70bc"/><path d="M43.71 78.44c15.18 10.61 23.58 20.07 42.8 20.07s27.63-9.46 42.8-20.07v.1c-15.17 10.62-23.58 20.07-42.8 20.07s-27.62-9.45-42.8-20.07Z" style="fill:#df6fbc"/><path d="M43.71 78.33C58.89 88.94 67.29 98.4 86.51 98.4s27.63-9.46 42.8-20.07v.11c-15.17 10.61-23.58 20.07-42.8 20.07s-27.62-9.46-42.8-20.07Z" style="fill:#e06fbc"/><path d="M43.71 78.22c15.18 10.62 23.58 20.07 42.8 20.07s27.63-9.45 42.8-20.07v.11c-15.17 10.61-23.58 20.07-42.8 20.07s-27.62-9.46-42.8-20.07Z" style="fill:#e16ebb"/><path d="M43.71 78.11c15.18 10.62 23.58 20.08 42.8 20.08s27.63-9.46 42.8-20.08v.11c-15.17 10.62-23.58 20.07-42.8 20.07s-27.62-9.45-42.8-20.07Z" style="fill:#e26ebb"/><path d="M43.71 78c15.18 10.61 23.58 20.07 42.8 20.07s27.63-9.46 42.8-20.07v.1c-15.17 10.62-23.58 20.08-42.8 20.08s-27.62-9.46-42.8-20.08Z" style="fill:#e36dbb"/><path d="M43.71 77.9C58.89 88.52 67.29 98 86.51 98s27.63-9.45 42.8-20.07V78c-15.17 10.61-23.58 20.07-42.8 20.07S58.89 88.62 43.71 78Z" style="fill:#e46dba"/><path d="M43.71 77.79c15.18 10.62 23.58 20.07 42.8 20.07s27.63-9.45 42.8-20.07v.11C114.14 88.52 105.73 98 86.51 98s-27.62-9.48-42.8-20.1Z" style="fill:#e56cba"/><path d="M43.71 77.69c15.18 10.61 23.58 20.07 42.8 20.07s27.63-9.46 42.8-20.07v.1c-15.17 10.62-23.58 20.07-42.8 20.07s-27.62-9.45-42.8-20.07Z" style="fill:#e66cba"/><path d="M43.71 77.58c15.18 10.62 23.58 20.07 42.8 20.07s27.63-9.45 42.8-20.07v.11c-15.17 10.61-23.58 20.07-42.8 20.07s-27.62-9.46-42.8-20.07Z" style="fill:#e76bb9"/><path d="M43.71 77.47c15.18 10.62 23.58 20.07 42.8 20.07s27.63-9.45 42.8-20.07v.11c-15.17 10.62-23.58 20.07-42.8 20.07s-27.62-9.45-42.8-20.07Z" style="fill:#e86bb9"/><path d="M43.71 77.37C58.89 88 67.29 97.44 86.51 97.44s27.63-9.46 42.8-20.07v.1c-15.17 10.62-23.58 20.07-42.8 20.07s-27.62-9.45-42.8-20.07Z" style="fill:#e96ab9"/><path d="M43.71 77.26c15.18 10.61 23.58 20.07 42.8 20.07s27.63-9.46 42.8-20.07v.11C114.14 88 105.73 97.44 86.51 97.44S58.89 88 43.71 77.37Z" style="fill:#ea6ab9"/><path d="M43.71 77.15c15.18 10.62 23.58 20.07 42.8 20.07s27.63-9.45 42.8-20.07v.11c-15.17 10.61-23.58 20.07-42.8 20.07s-27.62-9.46-42.8-20.07Z" style="fill:#eb6ab8"/><path d="M43.71 77c15.18 10.62 23.58 20.08 42.8 20.08s27.63-9.46 42.8-20.08v.11c-15.17 10.62-23.58 20.07-42.8 20.07s-27.62-9.45-42.8-20.07Z" style="fill:#ec69b8"/><path d="M43.71 76.94C58.89 87.55 67.29 97 86.51 97s27.63-9.46 42.8-20.07V77c-15.17 10.62-23.58 20.07-42.8 20.08S58.89 87.66 43.71 77Z" style="fill:#ed69b8"/><path d="M43.71 76.83C58.89 87.45 67.29 96.9 86.51 96.9s27.63-9.45 42.8-20.07v.11C114.14 87.55 105.73 97 86.51 97s-27.62-9.46-42.8-20.07Z" style="fill:#ee68b7"/><path d="M43.71 76.72c15.18 10.62 23.58 20.07 42.8 20.07s27.63-9.45 42.8-20.07v.11c-15.17 10.62-23.58 20.07-42.8 20.07s-27.62-9.45-42.8-20.07Z" style="fill:#ef68b7"/><path d="M43.71 76.62c15.18 10.61 23.58 20.07 42.8 20.07s27.63-9.46 42.8-20.07v.1c-15.17 10.62-23.58 20.07-42.8 20.07s-27.62-9.45-42.8-20.07Z" style="fill:#f067b7"/><path d="M43.71 76.51c15.18 10.61 23.58 20.07 42.8 20.07s27.63-9.46 42.8-20.07v.11c-15.17 10.61-23.58 20.07-42.8 20.07s-27.62-9.46-42.8-20.07Z" style="fill:#f167b6"/><path d="M43.71 76.4C58.89 87 67.29 96.47 86.51 96.47s27.63-9.47 42.8-20.07v.11c-15.17 10.61-23.58 20.07-42.8 20.07s-27.62-9.46-42.8-20.07Z" style="fill:#f266b6"/><path d="M43.71 76.29c15.18 10.62 23.58 20.08 42.8 20.08s27.63-9.46 42.8-20.08v.11c-15.17 10.6-23.58 20.07-42.8 20.07S58.89 87 43.71 76.4Z" style="fill:#f366b6"/><path d="M43.71 76.19c15.18 10.61 23.58 20.07 42.8 20.07s27.63-9.46 42.8-20.07v.1c-15.17 10.62-23.58 20.08-42.8 20.08s-27.62-9.46-42.8-20.08Z" style="fill:#f465b5"/><path d="M43.71 76.08c15.18 10.62 23.58 20.07 42.8 20.07s27.63-9.45 42.8-20.07v.11c-15.17 10.61-23.58 20.07-42.8 20.07s-27.62-9.46-42.8-20.07Z" style="fill:#f565b5"/><path d="M43.71 76c15.18 10.59 23.58 20 42.8 20s27.63-9.45 42.8-20.07v.11c-15.17 10.62-23.58 20.07-42.8 20.07s-27.62-9.41-42.8-20.03Z" style="fill:#f664b5"/><path d="M43.71 75.87c15.18 10.61 23.58 20.07 42.8 20.07s27.63-9.46 42.8-20.07V76c-15.17 10.59-23.58 20-42.8 20s-27.62-9.41-42.8-20Z" style="fill:#f764b4"/><path d="M43.71 75.76c15.18 10.62 23.58 20.07 42.8 20.07s27.63-9.46 42.8-20.07v.11c-15.17 10.61-23.58 20.07-42.8 20.07s-27.62-9.46-42.8-20.07Z" style="fill:#f863b4"/><path d="M43.71 75.65c15.18 10.62 23.58 20.07 42.8 20.07s27.63-9.45 42.8-20.07v.11c-15.17 10.61-23.58 20.07-42.8 20.07s-27.62-9.45-42.8-20.07Z" style="fill:#f963b4"/><path d="M43.71 75.54c15.18 10.62 23.58 20.08 42.8 20.08s27.63-9.46 42.8-20.08v.11c-15.17 10.62-23.58 20.07-42.8 20.07s-27.62-9.45-42.8-20.07Z" style="fill:#fa62b4"/><path d="M43.71 75.44c15.18 10.61 23.58 20.07 42.8 20.07s27.63-9.46 42.8-20.07v.1c-15.17 10.62-23.58 20.08-42.8 20.08s-27.62-9.46-42.8-20.08Z" style="fill:#fb62b3"/><path d="M43.71 75.33C58.89 86 67.29 95.4 86.51 95.4s27.63-9.45 42.8-20.07v.11c-15.17 10.61-23.58 20.07-42.8 20.07s-27.62-9.46-42.8-20.07Z" style="fill:#fc61b3"/><path d="M43.71 75.22c15.18 10.62 23.58 20.08 42.8 20.07s27.63-9.45 42.8-20.07v.11C114.14 86 105.73 95.4 86.51 95.4S58.89 86 43.71 75.33Z" style="fill:#fd61b3"/><path d="M43.71 75.12c15.18 10.61 23.58 20.07 42.8 20.07s27.63-9.46 42.8-20.07v.1c-15.17 10.62-23.58 20.07-42.8 20.07s-27.62-9.45-42.8-20.07Z" style="fill:#fe60b2"/><path d="M43.71 75c15.18 10.62 23.58 20.07 42.8 20.07s27.63-9.45 42.8-20.07v.11c-15.17 10.61-23.58 20.07-42.8 20.07s-27.62-9.46-42.8-20.07Z" style="fill:#ff60b2"/><path d="M43.71 74.78c15.18 10.62 23.58 20.08 42.8 20.07s27.63-9.45 42.8-20.07V75c-15.17 10.62-23.58 20.07-42.8 20.07S58.89 85.63 43.71 75Z" style="fill:#ff60b2"/><path d="M43.71 74.56c15.18 10.61 23.58 20.07 42.8 20.07s27.63-9.46 42.8-20.07v.22c-15.17 10.62-23.58 20.07-42.8 20.07s-27.62-9.45-42.8-20.07Z" style="fill:#ff61b1"/><path d="M43.71 74.33C58.89 85 67.29 94.4 86.51 94.4s27.63-9.45 42.8-20.07v.23c-15.17 10.61-23.58 20.07-42.8 20.07s-27.62-9.46-42.8-20.07Z" style="fill:#ff61b0"/><path d="M43.71 74.11c15.18 10.61 23.58 20.07 42.8 20.07s27.63-9.46 42.8-20.07v.22C114.14 85 105.73 94.4 86.51 94.4S58.89 85 43.71 74.33Z" style="fill:#ff62af"/><path d="M43.71 73.88C58.89 84.5 67.29 94 86.51 94s27.63-9.45 42.8-20.07v.23c-15.17 10.61-23.58 20.07-42.8 20.07s-27.62-9.46-42.8-20.07Z" style="fill:#ff63ae"/><path d="M43.71 73.65c15.18 10.62 23.58 20.08 42.8 20.08s27.63-9.46 42.8-20.08v.23C114.14 84.5 105.73 94 86.51 94s-27.62-9.5-42.8-20.12Z" style="fill:#ff63ad"/><path d="M43.71 73.43C58.89 84.05 67.29 93.5 86.51 93.5s27.63-9.46 42.8-20.07v.22c-15.17 10.62-23.58 20.08-42.8 20.08s-27.62-9.46-42.8-20.08Z" style="fill:#ff64ac"/><path d="M43.71 73.2c15.18 10.62 23.58 20.07 42.8 20.07s27.63-9.45 42.8-20.07v.23C114.14 84 105.73 93.5 86.51 93.5s-27.62-9.45-42.8-20.07Z" style="fill:#ff64ab"/><path d="M43.71 73c15.18 10.61 23.58 20.07 42.8 20.07s27.63-9.46 42.8-20.07v.22c-15.17 10.62-23.58 20.07-42.8 20.07s-27.62-9.47-42.8-20.09Z" style="fill:#ff65aa"/><path d="M43.71 72.75c15.18 10.62 23.58 20.07 42.8 20.07s27.63-9.45 42.8-20.07V73c-15.17 10.61-23.58 20.07-42.8 20.07S58.89 83.59 43.71 73Z" style="fill:#ff66a9"/><path d="M43.71 72.53C58.89 83.14 67.29 92.6 86.51 92.6s27.63-9.46 42.8-20.07v.22c-15.17 10.62-23.58 20.07-42.8 20.07s-27.62-9.45-42.8-20.07Z" style="fill:#ff66a8"/><path d="M43.71 72.3c15.18 10.62 23.58 20.07 42.8 20.07s27.63-9.45 42.8-20.07v.23c-15.17 10.61-23.58 20.07-42.8 20.07s-27.62-9.46-42.8-20.07Z" style="fill:#ff67a7"/><path d="M43.71 72.07c15.18 10.62 23.58 20.08 42.8 20.08s27.63-9.46 42.8-20.08v.23c-15.17 10.62-23.58 20.07-42.8 20.07s-27.62-9.45-42.8-20.07Z" style="fill:#ff68a6"/><path d="M43.71 71.85c15.18 10.61 23.58 20.07 42.8 20.07s27.63-9.46 42.8-20.07v.22c-15.17 10.62-23.58 20.08-42.8 20.08s-27.62-9.46-42.8-20.08Z" style="fill:#ff68a5"/><path d="M43.71 71.62c15.18 10.62 23.58 20.07 42.8 20.07s27.63-9.45 42.8-20.07v.23c-15.17 10.61-23.58 20.07-42.8 20.07s-27.62-9.46-42.8-20.07Z" style="fill:#ff69a4"/><path d="M43.71 71.4C58.89 82 67.29 91.47 86.51 91.47s27.63-9.47 42.8-20.07v.22c-15.17 10.62-23.58 20.07-42.8 20.07s-27.62-9.45-42.8-20.07Z" style="fill:#ff69a3"/><path d="M43.71 71.17c15.18 10.62 23.58 20.07 42.8 20.07s27.63-9.45 42.8-20.07v.23c-15.17 10.6-23.58 20.07-42.8 20.07S58.89 82 43.71 71.4Z" style="fill:#ff6aa2"/><path d="M43.71 71c15.18 10.56 23.58 20 42.8 20s27.63-9.46 42.8-20.07v.22c-15.17 10.62-23.58 20.07-42.8 20.07s-27.62-9.45-42.8-20.07Z" style="fill:#ff6ba1"/><path d="M43.71 70.72c15.18 10.62 23.58 20.07 42.8 20.07s27.63-9.45 42.8-20.07V71c-15.17 10.56-23.58 20-42.8 20s-27.62-9.44-42.8-20Z" style="fill:#ff6ba0"/><path d="M43.71 70.49c15.18 10.62 23.58 20.08 42.8 20.07s27.63-9.45 42.8-20.07v.23c-15.17 10.62-23.58 20.07-42.8 20.07s-27.62-9.45-42.8-20.07Z" style="fill:#ff6c9f"/><path d="M43.71 70.27c15.18 10.61 23.58 20.07 42.8 20.07s27.63-9.46 42.8-20.07v.22c-15.17 10.62-23.58 20.07-42.8 20.07s-27.62-9.45-42.8-20.07Z" style="fill:#ff6d9e"/><path d="M43.71 70c15.18 10.62 23.58 20.07 42.8 20.07s27.63-9.45 42.8-20.07v.23c-15.17 10.61-23.58 20.07-42.8 20.07s-27.62-9.46-42.8-20.07Z" style="fill:#ff6d9d"/><path d="M43.71 69.82c15.18 10.61 23.58 20.07 42.8 20.07s27.63-9.46 42.8-20.07V70c-15.17 10.62-23.58 20.07-42.8 20.07S58.89 80.66 43.71 70Z" style="fill:#ff6e9c"/><path d="M43.71 69.59c15.18 10.62 23.58 20.07 42.8 20.07s27.63-9.45 42.8-20.07v.23c-15.17 10.61-23.58 20.07-42.8 20.07s-27.62-9.46-42.8-20.07Z" style="fill:#ff6e9b"/><path d="M43.71 69.36C58.89 80 67.29 89.44 86.51 89.44s27.63-9.46 42.8-20.08v.23c-15.17 10.62-23.58 20.07-42.8 20.07s-27.62-9.45-42.8-20.07Z" style="fill:#ff6f9a"/><path d="M43.71 69.14c15.18 10.62 23.58 20.07 42.8 20.07s27.63-9.46 42.8-20.07v.22C114.14 80 105.73 89.44 86.51 89.44S58.89 80 43.71 69.36Z" style="fill:#ff7099"/><path d="M43.71 68.91C58.89 79.53 67.29 89 86.51 89s27.63-9.45 42.8-20.07v.23c-15.17 10.61-23.58 20.07-42.8 20.07s-27.62-9.45-42.8-20.07Z" style="fill:#ff7098"/><path d="M43.71 68.69c15.18 10.61 23.58 20.07 42.8 20.07s27.63-9.46 42.8-20.07v.22C114.14 79.53 105.73 89 86.51 89s-27.62-9.45-42.8-20.07Z" style="fill:#ff7197"/><path d="M43.71 68.46c15.18 10.62 23.58 20.07 42.8 20.07s27.63-9.45 42.8-20.07v.23c-15.17 10.61-23.58 20.07-42.8 20.07s-27.62-9.46-42.8-20.07Z" style="fill:#ff7296"/><path d="M43.71 68.24c15.18 10.61 23.58 20.07 42.8 20.07s27.63-9.46 42.8-20.07v.22c-15.17 10.62-23.58 20.07-42.8 20.07s-27.62-9.45-42.8-20.07Z" style="fill:#ff7295"/><path d="M43.71 68c15.18 10.62 23.58 20.07 42.8 20.07s27.63-9.45 42.8-20.07v.23c-15.17 10.61-23.58 20.07-42.8 20.07s-27.62-9.46-42.8-20.07Z" style="fill:#ff7394"/><path d="M43.71 67.78c15.18 10.62 23.58 20.08 42.8 20.08s27.63-9.46 42.8-20.08V68c-15.17 10.62-23.58 20.07-42.8 20.07S58.89 78.63 43.71 68Z" style="fill:#ff7493"/><path d="M43.71 67.56c15.18 10.61 23.58 20.07 42.8 20.07s27.63-9.46 42.8-20.07v.22c-15.17 10.62-23.58 20.08-42.8 20.08s-27.62-9.46-42.8-20.08Z" style="fill:#ff7492"/><path d="M43.71 67.33C58.89 78 67.29 87.4 86.51 87.4s27.63-9.45 42.8-20.07v.23c-15.17 10.61-23.58 20.07-42.8 20.07s-27.62-9.46-42.8-20.07Z" style="fill:#ff7591"/><path d="M43.71 67.11c15.18 10.61 23.58 20.07 42.8 20.07s27.63-9.46 42.8-20.07v.22C114.14 78 105.73 87.4 86.51 87.4S58.89 78 43.71 67.33Z" style="fill:#ff7590"/><path d="M43.71 66.88C58.89 77.5 67.29 87 86.51 87s27.63-9.45 42.8-20.07v.23c-15.17 10.61-23.58 20.07-42.8 20.07s-27.62-9.46-42.8-20.07Z" style="fill:#ff768f"/><path d="M43.71 66.65c15.18 10.62 23.58 20.08 42.8 20.08s27.63-9.46 42.8-20.08v.23C114.14 77.5 105.73 87 86.51 87s-27.62-9.5-42.8-20.12Z" style="fill:#ff778e"/><path d="M43.71 66.43C58.89 77.05 67.29 86.5 86.51 86.5s27.63-9.45 42.8-20.07v.22c-15.17 10.62-23.58 20.08-42.8 20.08s-27.62-9.46-42.8-20.08Z" style="fill:#ff778d"/><path d="M43.71 66.2c15.18 10.62 23.58 20.08 42.8 20.07s27.63-9.45 42.8-20.07v.23c-15.17 10.62-23.58 20.07-42.8 20.07s-27.62-9.45-42.8-20.07Z" style="fill:#ff788c"/><path d="M43.71 66c15.18 10.61 23.58 20.07 42.8 20.07s27.63-9.46 42.8-20.07v.22c-15.17 10.62-23.58 20.07-42.8 20.07s-27.62-9.47-42.8-20.09Z" style="fill:#ff798b"/><path d="M43.71 65.75c15.18 10.62 23.58 20.07 42.8 20.07s27.63-9.45 42.8-20.07V66c-15.17 10.61-23.58 20.07-42.8 20.07S58.89 76.59 43.71 66Z" style="fill:#ff798a"/><path d="M43.71 65.53C58.89 76.14 67.29 85.6 86.51 85.6s27.63-9.46 42.8-20.07v.22c-15.17 10.62-23.58 20.07-42.8 20.07s-27.62-9.45-42.8-20.07Z" style="fill:#ff7a89"/><path d="M43.71 65.3c15.18 10.62 23.58 20.07 42.8 20.07s27.63-9.45 42.8-20.07v.23c-15.17 10.61-23.58 20.07-42.8 20.07s-27.62-9.46-42.8-20.07Z" style="fill:#ff7a88"/><path d="M43.71 65.07c15.18 10.62 23.58 20.08 42.8 20.08s27.63-9.46 42.8-20.08v.23c-15.17 10.62-23.58 20.07-42.8 20.07s-27.62-9.45-42.8-20.07Z" style="fill:#ff7b87"/><path d="M43.71 64.85c15.18 10.61 23.58 20.07 42.8 20.07s27.63-9.46 42.8-20.07v.22c-15.17 10.62-23.58 20.08-42.8 20.08s-27.62-9.46-42.8-20.08Z" style="fill:#ff7c86"/><path d="M43.71 64.62c15.18 10.62 23.58 20.07 42.8 20.07s27.63-9.45 42.8-20.07v.23c-15.17 10.61-23.58 20.07-42.8 20.07s-27.62-9.46-42.8-20.07Z" style="fill:#ff7c85"/><path d="M43.71 64.4C58.89 75 67.29 84.47 86.51 84.47s27.63-9.47 42.8-20.07v.22c-15.17 10.62-23.58 20.07-42.8 20.07s-27.62-9.45-42.8-20.07Z" style="fill:#ff7d84"/><path d="M43.71 64.17c15.18 10.62 23.58 20.07 42.8 20.07s27.63-9.45 42.8-20.07v.23c-15.17 10.6-23.58 20.07-42.8 20.07S58.89 75 43.71 64.4Z" style="fill:#ff7e83"/><path d="M43.71 64c15.18 10.56 23.58 20 42.8 20s27.63-9.46 42.8-20.07v.22c-15.17 10.62-23.58 20.07-42.8 20.07s-27.62-9.45-42.8-20.07Z" style="fill:#ff7e82"/><path d="M43.71 63.72c15.18 10.62 23.58 20.07 42.8 20.07s27.63-9.45 42.8-20.07V64c-15.17 10.56-23.58 20-42.8 20s-27.62-9.44-42.8-20Z" style="fill:#ff7f81"/><path d="M43.71 63.49c15.18 10.62 23.58 20.08 42.8 20.08s27.63-9.46 42.8-20.08v.23c-15.17 10.62-23.58 20.07-42.8 20.07s-27.62-9.45-42.8-20.07Z" style="fill:#ff8080"/><path d="M43.71 63.27c15.18 10.61 23.58 20.07 42.8 20.07s27.63-9.46 42.8-20.07v.22c-15.17 10.62-23.58 20.07-42.8 20.08s-27.62-9.46-42.8-20.08Z" style="fill:#ff807e"/><path d="M43.71 63c15.18 10.62 23.58 20.07 42.8 20.07s27.63-9.45 42.8-20.07v.23c-15.17 10.61-23.58 20.07-42.8 20.07s-27.62-9.46-42.8-20.07Z" style="fill:#ff817d"/><path d="M43.71 62.82c15.18 10.61 23.58 20.07 42.8 20.07s27.63-9.46 42.8-20.07V63c-15.17 10.62-23.58 20.07-42.8 20.07S58.89 73.66 43.71 63Z" style="fill:#ff817c"/><path d="M43.71 62.59c15.18 10.62 23.58 20.07 42.8 20.07s27.63-9.45 42.8-20.07v.23c-15.17 10.61-23.58 20.07-42.8 20.07s-27.62-9.46-42.8-20.07Z" style="fill:#ff827b"/><path d="M43.71 62.36C58.89 73 67.29 82.44 86.51 82.44s27.63-9.46 42.8-20.08v.23c-15.17 10.62-23.58 20.07-42.8 20.07s-27.62-9.45-42.8-20.07Z" style="fill:#ff837a"/><path d="M43.71 62.14c15.18 10.62 23.58 20.07 42.8 20.07s27.63-9.46 42.8-20.07v.22C114.14 73 105.73 82.44 86.51 82.44S58.89 73 43.71 62.36Z" style="fill:#ff8379"/><path d="M43.71 61.91C58.89 72.53 67.29 82 86.51 82s27.63-9.45 42.8-20.07v.23c-15.17 10.61-23.58 20.07-42.8 20.07s-27.62-9.45-42.8-20.07Z" style="fill:#ff8478"/><path d="M43.71 61.69c15.18 10.61 23.58 20.07 42.8 20.07s27.63-9.46 42.8-20.07v.22C114.14 72.53 105.73 82 86.51 82s-27.62-9.45-42.8-20.07Z" style="fill:#ff8577"/><path d="M43.71 61.46c15.18 10.62 23.58 20.07 42.8 20.07s27.63-9.45 42.8-20.07v.23c-15.17 10.61-23.58 20.07-42.8 20.07s-27.62-9.46-42.8-20.07Z" style="fill:#ff8576"/><path d="M43.71 61.24c15.18 10.61 23.58 20.07 42.8 20.07s27.63-9.46 42.8-20.07v.22c-15.17 10.62-23.58 20.07-42.8 20.07s-27.62-9.45-42.8-20.07Z" style="fill:#ff8675"/><path d="M43.71 61c15.18 10.62 23.58 20.07 42.8 20.07s27.63-9.45 42.8-20.07v.23c-15.17 10.61-23.58 20.07-42.8 20.07s-27.62-9.46-42.8-20.07Z" style="fill:#ff8674"/><path d="M43.71 60.78c15.18 10.62 23.58 20.08 42.8 20.08s27.63-9.46 42.8-20.08V61c-15.17 10.62-23.58 20.07-42.8 20.07S58.89 71.63 43.71 61Z" style="fill:#ff8773"/><path d="M43.71 60.56c15.18 10.61 23.58 20.07 42.8 20.07s27.63-9.46 42.8-20.07v.22c-15.17 10.62-23.58 20.08-42.8 20.08s-27.62-9.46-42.8-20.08Z" style="fill:#ff8872"/><path d="M43.71 60.33C58.89 71 67.29 80.4 86.51 80.4s27.63-9.45 42.8-20.07v.23c-15.17 10.61-23.58 20.07-42.8 20.07s-27.62-9.46-42.8-20.07Z" style="fill:#ff8871"/><path d="M43.71 60.11c15.18 10.61 23.58 20.07 42.8 20.07s27.63-9.46 42.8-20.07v.22C114.14 71 105.73 80.4 86.51 80.4S58.89 71 43.71 60.33Z" style="fill:#ff8970"/><path d="M43.71 59.88C58.89 70.5 67.29 80 86.51 80s27.63-9.45 42.8-20.07v.23c-15.17 10.61-23.58 20.07-42.8 20.07s-27.62-9.46-42.8-20.07Z" style="fill:#ff8a6f"/><path d="M43.71 59.66c15.18 10.61 23.58 20.07 42.8 20.07s27.63-9.46 42.8-20.07v.22C114.14 70.5 105.73 80 86.51 80s-27.62-9.5-42.8-20.12Z" style="fill:#ff8a6e"/><path d="M43.71 59.43C58.89 70.05 67.29 79.5 86.51 79.5s27.63-9.45 42.8-20.07v.23c-15.17 10.61-23.58 20.07-42.8 20.07s-27.62-9.46-42.8-20.07Z" style="fill:#ff8b6d"/><path d="M43.71 59.2c15.18 10.62 23.58 20.08 42.8 20.08s27.63-9.46 42.8-20.08v.23c-15.17 10.62-23.58 20.07-42.8 20.07s-27.62-9.45-42.8-20.07Z" style="fill:#ff8b6c"/><path d="M43.71 59c15.18 10.61 23.58 20.07 42.8 20.07s27.63-9.46 42.8-20.07v.22c-15.17 10.62-23.58 20.07-42.8 20.08s-27.62-9.48-42.8-20.1Z" style="fill:#ff8c6b"/><path d="M43.71 58.75c15.18 10.62 23.58 20.07 42.8 20.07s27.63-9.45 42.8-20.07V59c-15.17 10.61-23.58 20.07-42.8 20.07S58.89 69.59 43.71 59Z" style="fill:#ff8d6a"/><path d="M43.71 58.53C58.89 69.14 67.29 78.6 86.51 78.6s27.63-9.46 42.8-20.07v.22c-15.17 10.62-23.58 20.07-42.8 20.07s-27.62-9.45-42.8-20.07Z" style="fill:#ff8d69"/><path d="M43.71 58.3c15.18 10.62 23.58 20.07 42.8 20.07s27.63-9.45 42.8-20.07v.23c-15.17 10.61-23.58 20.07-42.8 20.07s-27.62-9.46-42.8-20.07Z" style="fill:#ff8e68"/><path d="M43.71 58.07c15.18 10.62 23.58 20.08 42.8 20.08s27.63-9.46 42.8-20.08v.23c-15.17 10.62-23.58 20.07-42.8 20.07s-27.62-9.45-42.8-20.07Z" style="fill:#ff8f67"/><path d="M43.71 57.85c15.18 10.62 23.58 20.07 42.8 20.07s27.63-9.46 42.8-20.07v.22c-15.17 10.62-23.58 20.08-42.8 20.08s-27.62-9.46-42.8-20.08Z" style="fill:#ff8f66"/><path d="M43.71 57.62c15.18 10.62 23.58 20.07 42.8 20.07s27.63-9.45 42.8-20.07v.23c-15.17 10.61-23.58 20.07-42.8 20.07s-27.62-9.45-42.8-20.07Z" style="fill:#ff9065"/><path d="M43.71 57.4C58.89 68 67.29 77.47 86.51 77.47s27.63-9.47 42.8-20.07v.22c-15.17 10.62-23.58 20.07-42.8 20.07s-27.62-9.45-42.8-20.07Z" style="fill:#ff9164"/><path d="M43.71 57.17c15.18 10.62 23.58 20.07 42.8 20.07s27.63-9.45 42.8-20.07v.23c-15.17 10.6-23.58 20.07-42.8 20.07S58.89 68 43.71 57.4Z" style="fill:#ff9163"/><path d="M43.71 57c15.18 10.56 23.58 20 42.8 20s27.63-9.46 42.8-20.07v.22c-15.17 10.62-23.58 20.07-42.8 20.07s-27.62-9.45-42.8-20.07Z" style="fill:#ff9262"/><path d="M43.71 56.72c15.18 10.62 23.58 20.07 42.8 20.07s27.63-9.45 42.8-20.07V57c-15.17 10.56-23.58 20-42.8 20s-27.62-9.44-42.8-20Z" style="fill:#ff9261"/><path d="M43.71 56.49c15.18 10.62 23.58 20.08 42.8 20.08s27.63-9.46 42.8-20.08v.23c-15.17 10.62-23.58 20.07-42.8 20.07s-27.62-9.45-42.8-20.07Z" style="fill:#ff9360"/><path d="M43.71 56.27c15.18 10.61 23.58 20.07 42.8 20.07s27.63-9.46 42.8-20.07v.22c-15.17 10.62-23.58 20.08-42.8 20.08s-27.62-9.46-42.8-20.08Z" style="fill:#ff945f"/><path d="M43.71 56c15.18 10.62 23.58 20.07 42.8 20.07s27.63-9.45 42.8-20.07v.23c-15.17 10.61-23.58 20.07-42.8 20.07s-27.62-9.46-42.8-20.07Z" style="fill:#ff945e"/><path d="M43.71 55.82c15.18 10.61 23.58 20.07 42.8 20.07s27.63-9.46 42.8-20.07V56c-15.17 10.62-23.58 20.07-42.8 20.07S58.89 66.66 43.71 56Z" style="fill:#ff955d"/><path d="M43.71 55.59c15.18 10.62 23.58 20.07 42.8 20.07s27.63-9.45 42.8-20.07v.23c-15.17 10.61-23.58 20.07-42.8 20.07s-27.62-9.46-42.8-20.07Z" style="fill:#ff965c"/><path d="M43.71 55.36C58.89 66 67.29 75.44 86.51 75.44s27.63-9.46 42.8-20.08v.23c-15.17 10.62-23.58 20.07-42.8 20.07s-27.62-9.45-42.8-20.07Z" style="fill:#ff965b"/><path d="M43.71 55.14c15.18 10.62 23.58 20.07 42.8 20.07s27.63-9.45 42.8-20.07v.22C114.14 66 105.73 75.44 86.51 75.44S58.89 66 43.71 55.36Z" style="fill:#ff975a"/><path d="M43.71 54.91C58.89 65.53 67.29 75 86.51 75s27.63-9.45 42.8-20.07v.23c-15.17 10.62-23.58 20.07-42.8 20.07s-27.62-9.45-42.8-20.07Z" style="fill:#ff9759"/><path d="M43.71 54.69c15.18 10.61 23.58 20.07 42.8 20.07s27.63-9.46 42.8-20.07v.22C114.14 65.53 105.73 75 86.51 75s-27.62-9.45-42.8-20.07Z" style="fill:#ff9858"/><path d="M43.71 54.46c15.18 10.62 23.58 20.07 42.8 20.07s27.63-9.45 42.8-20.07v.23c-15.17 10.61-23.58 20.07-42.8 20.07s-27.62-9.46-42.8-20.07Z" style="fill:#ff9957"/><path d="M43.71 54.24c15.18 10.61 23.58 20.07 42.8 20.07s27.63-9.46 42.8-20.07v.22c-15.17 10.62-23.58 20.07-42.8 20.07s-27.62-9.45-42.8-20.07Z" style="fill:#ff9956"/><path d="M43.71 54c15.18 10.62 23.58 20.07 42.8 20.07s27.63-9.45 42.8-20.07v.23c-15.17 10.61-23.58 20.07-42.8 20.07s-27.62-9.46-42.8-20.07Z" style="fill:#ff9a55"/><path d="M43.71 53.78c15.18 10.62 23.58 20.08 42.8 20.08s27.63-9.46 42.8-20.08V54c-15.17 10.62-23.58 20.07-42.8 20.07S58.89 64.63 43.71 54Z" style="fill:#ff9b54"/><path d="M43.71 53.56c15.18 10.61 23.58 20.07 42.8 20.07s27.63-9.46 42.8-20.07v.22c-15.17 10.62-23.58 20.08-42.8 20.08s-27.62-9.46-42.8-20.08Z" style="fill:#ff9b53"/><path d="M43.71 53.33C58.89 64 67.29 73.4 86.51 73.4s27.63-9.45 42.8-20.07v.23c-15.17 10.61-23.58 20.07-42.8 20.07s-27.62-9.46-42.8-20.07Z" style="fill:#ff9c52"/><path d="M43.71 53.11c15.18 10.61 23.58 20.07 42.8 20.07s27.63-9.46 42.8-20.07v.22C114.14 64 105.73 73.4 86.51 73.4S58.89 64 43.71 53.33Z" style="fill:#ff9c51"/><path d="M43.71 52.88C58.89 63.5 67.29 73 86.51 73s27.63-9.45 42.8-20.07v.23c-15.17 10.61-23.58 20.07-42.8 20.07s-27.62-9.46-42.8-20.07Z" style="fill:#ff9d50"/><path d="M43.71 52.66c15.18 10.61 23.58 20.07 42.8 20.07s27.63-9.46 42.8-20.07v.22C114.14 63.5 105.73 73 86.51 73s-27.62-9.5-42.8-20.12Z" style="fill:#ff9e4f"/><path d="M43.71 52.43C58.89 63.05 67.29 72.5 86.51 72.5s27.63-9.45 42.8-20.07v.23c-15.17 10.61-23.58 20.07-42.8 20.07s-27.62-9.46-42.8-20.07Z" style="fill:#ff9e4e"/><path d="M43.71 52.2c15.18 10.62 23.58 20.08 42.8 20.08s27.63-9.46 42.8-20.08v.23c-15.17 10.62-23.58 20.07-42.8 20.07s-27.62-9.45-42.8-20.07Z" style="fill:#ff9f4d"/><path d="M43.71 51.93C58.89 62.55 67.29 72 86.51 72s27.63-9.45 42.8-20.07v.27c-15.17 10.62-23.58 20.08-42.8 20.08s-27.62-9.46-42.8-20.08Z" style="fill:#ff9f4d"/><path d="M43.71 51.65c15.18 10.62 23.58 20.08 42.8 20.08s27.63-9.46 42.8-20.08v.28C114.14 62.55 105.73 72 86.51 72s-27.62-9.45-42.8-20.07Z" style="fill:#ffa04c"/><path d="M43.71 51.38C58.89 62 67.29 71.45 86.51 71.45s27.63-9.45 42.8-20.07v.27c-15.17 10.62-23.58 20.08-42.8 20.08s-27.62-9.46-42.8-20.08Z" style="fill:#ffa14b"/><path d="M43.71 51.1c15.18 10.62 23.58 20.08 42.8 20.08s27.63-9.46 42.8-20.08v.28C114.14 62 105.73 71.45 86.51 71.45S58.89 62 43.71 51.38Z" style="fill:#ffa24a"/><path d="M43.71 50.83C58.89 61.45 67.29 70.9 86.51 70.9s27.63-9.45 42.8-20.07v.27c-15.17 10.62-23.58 20.08-42.8 20.08s-27.62-9.46-42.8-20.08Z" style="fill:#ffa349"/><path d="M43.71 50.56c15.18 10.61 23.58 20.07 42.8 20.07s27.63-9.46 42.8-20.07v.27c-15.17 10.62-23.58 20.07-42.8 20.07s-27.62-9.45-42.8-20.07Z" style="fill:#ffa448"/><path d="M43.71 50.28c15.18 10.62 23.58 20.07 42.8 20.07s27.63-9.45 42.8-20.07v.28c-15.17 10.61-23.58 20.07-42.8 20.07s-27.62-9.46-42.8-20.07Z" style="fill:#ffa547"/><path d="M43.71 50c15.18 10.61 23.58 20.07 42.8 20.07s27.63-9.46 42.8-20.07v.27c-15.17 10.62-23.58 20.07-42.8 20.07s-27.62-9.44-42.8-20.06Z" style="fill:#ffa646"/><path d="M43.71 49.73C58.89 60.35 67.29 69.8 86.51 69.8s27.63-9.45 42.8-20.07V50c-15.17 10.61-23.58 20.07-42.8 20.07S58.89 60.62 43.71 50Z" style="fill:#ffa745"/><path d="M43.71 49.46c15.18 10.61 23.58 20.07 42.8 20.07s27.63-9.46 42.8-20.07v.27c-15.17 10.62-23.58 20.07-42.8 20.07s-27.62-9.45-42.8-20.07Z" style="fill:#ffa845"/><path d="M43.71 49.18c15.18 10.62 23.58 20.07 42.8 20.07s27.63-9.45 42.8-20.07v.28c-15.17 10.61-23.58 20.07-42.8 20.07s-27.62-9.46-42.8-20.07Z" style="fill:#ffa944"/><path d="M43.71 48.91C58.89 59.52 67.29 69 86.51 69s27.63-9.46 42.8-20.07v.27c-15.17 10.62-23.58 20.07-42.8 20.07s-27.62-9.47-42.8-20.09Z" style="fill:#ffaa43"/><path d="M43.71 48.63C58.89 59.25 67.29 68.7 86.51 68.7s27.63-9.45 42.8-20.07v.28C114.14 59.52 105.73 69 86.51 69s-27.62-9.46-42.8-20.07Z" style="fill:#ffab42"/><path d="M43.71 48.36C58.89 59 67.29 68.43 86.51 68.43s27.63-9.46 42.8-20.07v.27c-15.17 10.62-23.58 20.07-42.8 20.07s-27.62-9.45-42.8-20.07Z" style="fill:#ffac41"/><path d="M43.71 48.08c15.18 10.62 23.58 20.07 42.8 20.07s27.63-9.45 42.8-20.07v.28C114.14 59 105.73 68.43 86.51 68.43S58.89 59 43.71 48.36Z" style="fill:#ffad40"/><path d="M43.71 47.81c15.18 10.61 23.58 20.07 42.8 20.07s27.63-9.46 42.8-20.07v.27c-15.17 10.62-23.58 20.07-42.8 20.07s-27.62-9.45-42.8-20.07Z" style="fill:#ffae3f"/><path d="M43.71 47.53C58.89 58.15 67.29 67.6 86.51 67.6s27.63-9.45 42.8-20.07v.28c-15.17 10.61-23.58 20.07-42.8 20.07s-27.62-9.46-42.8-20.07Z" style="fill:#ffaf3e"/><path d="M43.71 47.26c15.18 10.61 23.58 20.07 42.8 20.07s27.63-9.46 42.8-20.07v.27c-15.17 10.62-23.58 20.07-42.8 20.07s-27.62-9.45-42.8-20.07Z" style="fill:#ffb03d"/><path d="M43.71 47c15.18 10.6 23.58 20.05 42.8 20.05s27.63-9.45 42.8-20.05v.28c-15.17 10.61-23.58 20.07-42.8 20.07s-27.62-9.46-42.8-20.07Z" style="fill:#ffb13c"/><path d="M43.71 46.71c15.18 10.61 23.58 20.07 42.8 20.07s27.63-9.46 42.8-20.07V47c-15.17 10.62-23.58 20.07-42.8 20.07S58.89 57.6 43.71 47Z" style="fill:#ffb23b"/><path d="M43.71 46.43c15.18 10.62 23.58 20.08 42.8 20.08s27.63-9.46 42.8-20.08v.28c-15.17 10.61-23.58 20.07-42.8 20.07s-27.62-9.46-42.8-20.07Z" style="fill:#ffb33a"/><path d="M43.71 46.16c15.18 10.62 23.58 20.07 42.8 20.07s27.63-9.46 42.8-20.07v.27c-15.17 10.62-23.58 20.07-42.8 20.08s-27.62-9.46-42.8-20.08Z" style="fill:#ffb439"/><path d="M43.71 45.88C58.89 56.5 67.29 66 86.51 66s27.63-9.46 42.8-20.08v.28c-15.17 10.61-23.58 20.07-42.8 20.07s-27.62-9.45-42.8-20.07Z" style="fill:#ffb538"/><path d="M43.71 45.61c15.18 10.62 23.58 20.07 42.8 20.07s27.63-9.45 42.8-20.07v.27C114.14 56.5 105.73 66 86.51 66s-27.62-9.5-42.8-20.12Z" style="fill:#ffb637"/><path d="M43.71 45.33C58.89 56 67.29 65.41 86.51 65.41s27.63-9.46 42.8-20.08v.28c-15.17 10.62-23.58 20.07-42.8 20.07s-27.62-9.45-42.8-20.07Z" style="fill:#ffb736"/><path d="M43.71 45.06c15.18 10.62 23.58 20.07 42.8 20.07s27.63-9.45 42.8-20.07v.27C114.14 56 105.73 65.41 86.51 65.41S58.89 56 43.71 45.33Z" style="fill:#ffb836"/><path d="M43.71 44.79c15.18 10.61 23.58 20.07 42.8 20.07s27.63-9.46 42.8-20.07v.27c-15.17 10.62-23.58 20.07-42.8 20.07s-27.62-9.45-42.8-20.07Z" style="fill:#ffb935"/><path d="M43.71 44.51c15.18 10.62 23.58 20.07 42.8 20.07s27.63-9.45 42.8-20.07v.28c-15.17 10.61-23.58 20.07-42.8 20.07s-27.62-9.46-42.8-20.07Z" style="fill:#ffba34"/><path d="M43.71 44.24c15.18 10.61 23.58 20.07 42.8 20.07s27.63-9.46 42.8-20.07v.27c-15.17 10.62-23.58 20.07-42.8 20.07s-27.62-9.45-42.8-20.07Z" style="fill:#fb3"/><path d="M43.71 44c15.18 10.58 23.58 20 42.8 20s27.63-9.45 42.8-20.07v.28c-15.17 10.61-23.58 20.07-42.8 20.07s-27.62-9.46-42.8-20.07Z" style="fill:#ffbc32"/><path d="M43.71 43.69c15.18 10.61 23.58 20.07 42.8 20.07s27.63-9.46 42.8-20.07V44c-15.17 10.58-23.58 20-42.8 20s-27.62-9.42-42.8-20Z" style="fill:#ffbd31"/><path d="M43.71 43.41C58.89 54 67.29 63.48 86.51 63.48s27.63-9.45 42.8-20.07v.28c-15.17 10.61-23.58 20.07-42.8 20.07s-27.62-9.46-42.8-20.07Z" style="fill:#ffbe30"/><path d="M43.71 43.14c15.18 10.61 23.58 20.07 42.8 20.07s27.63-9.46 42.8-20.07v.27C114.14 54 105.73 63.48 86.51 63.48S58.89 54 43.71 43.41Z" style="fill:#ffbf2f"/><path d="M43.71 42.86c15.18 10.62 23.58 20.07 42.8 20.07s27.63-9.45 42.8-20.07v.28c-15.17 10.61-23.58 20.07-42.8 20.07s-27.62-9.46-42.8-20.07Z" style="fill:#ffc02e"/><path d="M43.71 42.59c15.18 10.61 23.58 20.07 42.8 20.07s27.63-9.46 42.8-20.07v.27c-15.17 10.62-23.58 20.07-42.8 20.07s-27.62-9.45-42.8-20.07Z" style="fill:#ffc12d"/><path d="M43.71 42.31c15.18 10.62 23.58 20.07 42.8 20.07s27.63-9.45 42.8-20.07v.28c-15.17 10.61-23.58 20.07-42.8 20.07s-27.62-9.46-42.8-20.07Z" style="fill:#ffc22c"/><path d="M43.71 42c15.18 10.61 23.58 20.07 42.8 20.07s27.63-9.46 42.8-20.07v.27c-15.17 10.62-23.58 20.07-42.8 20.07s-27.62-9.45-42.8-20.07Z" style="fill:#ffc32b"/><path d="M43.71 41.76c15.18 10.62 23.58 20.07 42.8 20.07s27.63-9.45 42.8-20.07V42c-15.17 10.61-23.58 20.07-42.8 20.07S58.89 52.65 43.71 42Z" style="fill:#ffc42a"/><path d="M43.71 41.49c15.18 10.61 23.58 20.07 42.8 20.07s27.63-9.46 42.8-20.07v.27c-15.17 10.62-23.58 20.07-42.8 20.07s-27.62-9.45-42.8-20.07Z" style="fill:#ffc529"/><path d="M43.71 41.21c15.18 10.62 23.58 20.07 42.8 20.07s27.63-9.45 42.8-20.07v.28c-15.17 10.61-23.58 20.07-42.8 20.07s-27.62-9.46-42.8-20.07Z" style="fill:#ffc628"/><path d="M43.71 40.94C58.89 51.55 67.29 61 86.51 61s27.63-9.46 42.8-20.07v.27c-15.17 10.62-23.58 20.07-42.8 20.07s-27.62-9.45-42.8-20.07Z" style="fill:#ffc727"/><path d="M43.71 40.66c15.18 10.62 23.58 20.08 42.8 20.08s27.63-9.46 42.8-20.08v.28C114.14 51.55 105.73 61 86.51 61s-27.62-9.46-42.8-20.07Z" style="fill:#ffc927"/><path d="M43.71 40.39C58.89 51 67.29 60.46 86.51 60.46s27.63-9.46 42.8-20.07v.27c-15.17 10.62-23.58 20.07-42.8 20.08s-27.62-9.46-42.8-20.08Z" style="fill:#ffca26"/><path d="M43.71 40.11c15.18 10.62 23.58 20.08 42.8 20.08s27.63-9.46 42.8-20.08v.28C114.14 51 105.73 60.46 86.51 60.46S58.89 51 43.71 40.39Z" style="fill:#ffcb25"/><path d="M43.71 39.84c15.18 10.62 23.58 20.07 42.8 20.07s27.63-9.45 42.8-20.07v.27c-15.17 10.62-23.58 20.07-42.8 20.08s-27.62-9.46-42.8-20.08Z" style="fill:#ffcc24"/><path d="M43.71 39.56c15.18 10.62 23.58 20.08 42.8 20.08s27.63-9.46 42.8-20.08v.28c-15.17 10.62-23.58 20.07-42.8 20.07s-27.62-9.45-42.8-20.07Z" style="fill:#ffcd23"/><path d="M43.71 39.29c15.18 10.62 23.58 20.07 42.8 20.07s27.63-9.45 42.8-20.07v.27c-15.17 10.62-23.58 20.08-42.8 20.08s-27.62-9.46-42.8-20.08Z" style="fill:#ffce22"/><path d="M43.71 39c15.18 10.61 23.58 20.07 42.8 20.07s27.63-9.46 42.8-20.07v.27c-15.17 10.62-23.58 20.07-42.8 20.07s-27.62-9.45-42.8-20.07Z" style="fill:#ffcf21"/><path d="M43.71 38.74c15.18 10.62 23.58 20.07 42.8 20.07s27.63-9.45 42.8-20.07V39c-15.17 10.61-23.58 20.07-42.8 20.07S58.89 49.63 43.71 39Z" style="fill:#ffd020"/><path d="M43.71 38.47c15.18 10.61 23.58 20.07 42.8 20.07s27.63-9.46 42.8-20.07v.27c-15.17 10.62-23.58 20.07-42.8 20.07s-27.62-9.45-42.8-20.07Z" style="fill:#ffd11f"/><path d="M43.71 38.19c15.18 10.62 23.58 20.07 42.8 20.07s27.63-9.45 42.8-20.07v.28c-15.17 10.61-23.58 20.07-42.8 20.07s-27.62-9.46-42.8-20.07Z" style="fill:#ffd21e"/><path d="M43.71 37.92C58.89 48.53 67.29 58 86.51 58s27.63-9.46 42.8-20.07v.27c-15.17 10.62-23.58 20.07-42.8 20.07s-27.62-9.45-42.8-20.07Z" style="fill:#ffd31d"/><path d="M43.71 37.64c15.18 10.62 23.58 20.07 42.8 20.07s27.63-9.45 42.8-20.07v.28C114.14 48.53 105.73 58 86.51 58s-27.62-9.46-42.8-20.07Z" style="fill:#ffd41c"/><path d="M43.71 37.37C58.89 48 67.29 57.44 86.51 57.44s27.63-9.46 42.8-20.07v.27c-15.17 10.62-23.58 20.07-42.8 20.07s-27.62-9.45-42.8-20.07Z" style="fill:#ffd51b"/><path d="M43.71 37.09c15.18 10.62 23.58 20.07 42.8 20.07s27.63-9.45 42.8-20.07v.28C114.14 48 105.73 57.44 86.51 57.44S58.89 48 43.71 37.37Z" style="fill:#ffd61a"/><path d="M43.71 36.82c15.18 10.61 23.58 20.07 42.8 20.07s27.63-9.46 42.8-20.07v.27c-15.17 10.62-23.58 20.07-42.8 20.07s-27.62-9.45-42.8-20.07Z" style="fill:#ffd719"/><path d="M43.71 36.54c15.18 10.62 23.58 20.07 42.8 20.07s27.63-9.45 42.8-20.07v.28c-15.17 10.61-23.58 20.07-42.8 20.07s-27.62-9.46-42.8-20.07Z" style="fill:#ffd818"/><path d="M43.71 36.27c15.18 10.61 23.58 20.07 42.8 20.07s27.63-9.46 42.8-20.07v.27c-15.17 10.62-23.58 20.07-42.8 20.07s-27.62-9.45-42.8-20.07Z" style="fill:#ffd917"/><path d="M43.71 36c15.18 10.62 23.58 20.07 42.8 20.07s27.63-9.45 42.8-20.07v.28c-15.17 10.61-23.58 20.07-42.8 20.07s-27.62-9.46-42.8-20.07Z" style="fill:#ffda17"/><path d="M43.71 35.72c15.18 10.61 23.58 20.07 42.8 20.07s27.63-9.46 42.8-20.07V36c-15.17 10.62-23.58 20.07-42.8 20.07S58.89 46.61 43.71 36Z" style="fill:#ffdb16"/><path d="M43.71 35.44c15.18 10.62 23.58 20.07 42.8 20.07s27.63-9.45 42.8-20.07v.28c-15.17 10.61-23.58 20.07-42.8 20.07s-27.62-9.46-42.8-20.07Z" style="fill:#ffdc15"/><path d="M43.71 35.17c15.18 10.61 23.58 20.07 42.8 20.07s27.63-9.46 42.8-20.07v.27c-15.17 10.62-23.58 20.07-42.8 20.07s-27.62-9.45-42.8-20.07Z" style="fill:#ffdd14"/><path d="M43.71 34.89C58.89 45.51 67.29 55 86.51 55s27.63-9.45 42.8-20.07v.28c-15.17 10.61-23.58 20.07-42.8 20.07s-27.62-9.46-42.8-20.07Z" style="fill:#ffde13"/><path d="M43.71 34.62c15.18 10.62 23.58 20.07 42.8 20.07s27.63-9.46 42.8-20.07v.27C114.14 45.51 105.73 55 86.51 55s-27.62-9.45-42.8-20.07Z" style="fill:#ffdf12"/><path d="M43.71 34.34C58.89 45 67.29 54.42 86.51 54.41s27.63-9.45 42.8-20.07v.28c-15.17 10.61-23.58 20.07-42.8 20.07s-27.62-9.45-42.8-20.07Z" style="fill:#ffe011"/><path d="M43.71 34.07c15.18 10.62 23.58 20.07 42.8 20.07s27.63-9.46 42.8-20.07v.27C114.14 45 105.73 54.41 86.51 54.41S58.89 45 43.71 34.34Z" style="fill:#ffe110"/><path d="M43.71 33.79c15.18 10.62 23.58 20.08 42.8 20.08s27.63-9.46 42.8-20.08v.28c-15.17 10.61-23.58 20.07-42.8 20.07s-27.62-9.45-42.8-20.07Z" style="fill:#ffe20f"/><path d="M43.71 33.52c15.18 10.62 23.58 20.07 42.8 20.07s27.63-9.45 42.8-20.07v.27c-15.17 10.62-23.58 20.07-42.8 20.08s-27.62-9.46-42.8-20.08Z" style="fill:#ffe30e"/><path d="M43.71 33.25c15.18 10.61 23.58 20.07 42.8 20.07s27.63-9.46 42.8-20.07v.27c-15.17 10.62-23.58 20.07-42.8 20.07s-27.62-9.45-42.8-20.07Z" style="fill:#ffe40d"/><path d="M43.71 33c15.18 10.59 23.58 20 42.8 20s27.63-9.45 42.8-20.07v.28c-15.17 10.61-23.58 20.07-42.8 20.07s-27.62-9.46-42.8-20.07Z" style="fill:#ffe50c"/><path d="M43.71 32.7c15.18 10.61 23.58 20.07 42.8 20.07s27.63-9.46 42.8-20.07v.3c-15.17 10.59-23.58 20-42.8 20s-27.62-9.41-42.8-20Z" style="fill:#ffe60b"/><path d="M43.71 32.42C58.89 43 67.29 52.49 86.51 52.49s27.63-9.45 42.8-20.07v.28c-15.17 10.61-23.58 20.07-42.8 20.07s-27.62-9.46-42.8-20.07Z" style="fill:#ffe70a"/><path d="M43.71 32.15c15.18 10.61 23.58 20.07 42.8 20.07s27.63-9.46 42.8-20.07v.27C114.14 43 105.73 52.49 86.51 52.49S58.89 43 43.71 32.42Z" style="fill:#ffe809"/><path d="M43.71 31.87c15.18 10.62 23.58 20.07 42.8 20.07s27.63-9.45 42.8-20.07v.28c-15.17 10.61-23.58 20.07-42.8 20.07s-27.62-9.46-42.8-20.07Z" style="fill:#ffe908"/><path d="M43.71 31.6c15.18 10.61 23.58 20.07 42.8 20.07s27.63-9.46 42.8-20.07v.27c-15.17 10.62-23.58 20.07-42.8 20.07s-27.62-9.45-42.8-20.07Z" style="fill:#ffea08"/><path d="M43.71 31.32c15.18 10.62 23.58 20.07 42.8 20.07s27.63-9.45 42.8-20.07v.28c-15.17 10.61-23.58 20.07-42.8 20.07s-27.62-9.46-42.8-20.07Z" style="fill:#ffeb07"/><path d="M43.71 31.05c15.18 10.61 23.58 20.07 42.8 20.07s27.63-9.46 42.8-20.07v.27c-15.17 10.62-23.58 20.07-42.8 20.07s-27.62-9.45-42.8-20.07Z" style="fill:#ffec06"/><path d="M43.71 30.77c15.18 10.62 23.58 20.07 42.8 20.07s27.63-9.45 42.8-20.07v.28c-15.17 10.61-23.58 20.07-42.8 20.07s-27.62-9.46-42.8-20.07Z" style="fill:#ffed05"/><path d="M43.71 30.5c15.18 10.61 23.58 20.07 42.8 20.07s27.63-9.46 42.8-20.07v.27c-15.17 10.62-23.58 20.07-42.8 20.07s-27.62-9.45-42.8-20.07Z" style="fill:#ffee04"/><path d="M43.71 30.22c15.18 10.62 23.58 20.07 42.8 20.07s27.63-9.45 42.8-20.07v.28c-15.17 10.61-23.58 20.07-42.8 20.07s-27.62-9.46-42.8-20.07Z" style="fill:#ffef03"/><path d="M43.71 30c15.18 10.56 23.58 20 42.8 20s27.63-9.46 42.8-20.07v.27c-15.17 10.62-23.58 20.07-42.8 20.07s-27.62-9.45-42.8-20.07Z" style="fill:#fff002"/><path d="M43.71 29.67c15.18 10.62 23.58 20.07 42.8 20.07s27.63-9.45 42.8-20.07V30c-15.17 10.56-23.58 20-42.8 20s-27.62-9.44-42.8-20Z" style="fill:#fff101"/><path d="M43.71 29.4C58.89 40 67.29 49.47 86.51 49.47s27.63-9.47 42.8-20.07v.27c-15.17 10.62-23.58 20.07-42.8 20.07s-27.62-9.45-42.8-20.07Z" style="fill:#fff200"/><path d="M129.31 29.4c-15.17 10.6-23.58 20.07-42.8 20.07S58.89 40 43.71 29.4C58.89 40 67.29 49.47 86.51 49.47s27.63-9.47 42.8-20.07Z" style="fill:#fff200"/></g><ellipse cx="87.02" cy="19.89" rx="42.69" ry="29.72" style="fill:#fcee20"/></g><path d="M127.08 75s26.27 47.1 38.45 33.2a11.18 11.18 0 0 0 2-10.88c-3.43-10.21-1.3-16.19 1-19.35a5.06 5.06 0 0 0 0-5.93c-2.27-3.16-4.4-9.15-1-19.36a11.18 11.18 0 0 0-2-10.88C153.35 27.91 127.08 75 127.08 75Z" style="fill:url(#a);stroke-linecap:round;stroke-linejoin:round;stroke:#9d31c7"/><path d="M116 68.55a29.88 29.88 0 0 1 .71 6.46M87.52 45.78A29.22 29.22 0 0 1 112.6 60" style="stroke:#fff;stroke-width:2px;stroke-linecap:round;stroke-linejoin:round;fill:none"/><path style="stroke-linecap:round;stroke-linejoin:round;stroke:#9d31c7;fill:none" d="m127.08 75.01 16.44 6.95M127.08 75.01l16.44-6.95"/><path d="M146.93 59s5.43-8.21 12.88-12.12" style="stroke:#fff;stroke-width:2px;stroke-linecap:round;stroke-linejoin:round;fill:none"/><path d="M47.92 75s-26.27 47.1-38.45 33.2a11.18 11.18 0 0 1-2-10.88c3.43-10.21 1.3-16.19-1-19.35a5.06 5.06 0 0 1 0-5.93c2.27-3.16 4.4-9.15 1-19.36a11.18 11.18 0 0 1 2-10.88C21.65 27.91 47.92 75 47.92 75Z" style="fill:url(#d);stroke-linecap:round;stroke-linejoin:round;stroke:#9d31c7"/><path style="stroke-linecap:round;stroke-linejoin:round;stroke:#9d31c7;fill:none" d="m47.92 75.01-16.44 6.95M47.92 75.01l-16.44-6.95"/><path d="M28.07 59s-5.43-8.21-12.88-12.12" style="stroke:#fff;stroke-width:2px;stroke-linecap:round;stroke-linejoin:round;fill:none"/><circle cx="87.52" cy="75.01" r="39.56" style="stroke-miterlimit:10;stroke:#9d31c7;fill:none"/></svg>