<svg xmlns="http://www.w3.org/2000/svg" viewBox="0 0 150 150"><defs><clipPath id="a"><path d="m126.05 83.21-35.33-6.93c1.87-9.56-4.38-18.87-13.94-20.74s-18.87 4.38-20.74 13.94l-35.33-6.93c5.69-29.04 33.95-48.04 63-42.34 29.04 5.69 48.04 33.95 42.34 63" style="fill:none"/></clipPath><clipPath id="b"><path d="M84 47.21s-12.57.11-17.95-9.57c-1.11 1.93-3.39 10.26 2.97 13.57 4.41 2.3 11.57.78 14.98-4.01Z" style="fill:none"/></clipPath></defs><path d="M114.83.63s1.34 26.38-7.63 35.73" style="fill:none;stroke-linejoin:round;stroke-linecap:round;stroke:#8f9294;stroke-width:7px"/><path d="M114.83.63s1.34 26.38-7.63 35.73" style="fill:none;stroke-linejoin:round;stroke-linecap:round;stroke:#c4c5c7;stroke-width:5px"/><path d="M85.08 57.2S86.76 71.91 88 83.42c.73 6.76 1.55 14.57 1.55 14.57l10.31 3.19L84 105.97s-1.78-16.47-2.92-26.59c-.8-7.16-2.7-24.45-2.7-24.45m-7.27-1.51s-3.62 16.86-6.74 24.21c-2.66 6.26-7.24 15.86-7.24 15.86l2.83 11.85-11.69-10.45s7.1-12.34 10.71-21.01c2.76-6.65 5.48-22.8 5.48-22.8" style="stroke-linejoin:round;fill:#c5c7c9;stroke:#929497"/><g style="clip-path:url(#a)"><path d="M26.4 64.69c5.06-25.8 30.16-42.67 55.96-37.61s42.67 30.16 37.61 55.95" style="fill:none;stroke-linejoin:round;stroke:#2dc5f4;stroke-width:13px"/><path d="M38.38 65.99c3.78-19.3 22.57-31.93 41.87-28.14 19.3 3.78 31.93 22.57 28.14 41.87" style="fill:none;stroke-linejoin:round;stroke-width:13px;stroke:#f063a4"/><path d="M50.16 68.3c2.51-12.81 14.98-21.19 27.79-18.68S99.14 64.6 96.63 77.41" style="fill:none;stroke-linejoin:round;stroke-width:13px;stroke:#fcee20"/></g><path d="m126.05 83.21-35.33-6.93c1.87-9.56-4.38-18.87-13.94-20.74s-18.87 4.38-20.74 13.94l-35.33-6.93c5.69-29.04 33.95-48.04 63-42.34 29.04 5.69 48.04 33.95 42.34 63Z" style="fill:none;stroke:#70327e;stroke-linejoin:round"/><path d="M74.51 38.86c.94-.02 1.79.18 2.45.5.28-.77.47-1.66.51-2.63.11-2.87-1.09-5.25-2.68-5.31-1.58-.06-2.95 2.22-3.06 5.1-.04 1.07.1 2.08.38 2.92.65-.34 1.48-.56 2.4-.58" style="fill:#70327e"/><path d="M71.33 40.03s3.02-2.29 6.24.25" style="fill:none;stroke:#70327e;stroke-linejoin:round;stroke-linecap:round"/><ellipse cx="75.72" cy="35.26" rx=".89" ry="1.36" style="fill:#fff" transform="rotate(-1.08 76.067 35.203)"/><path d="M85.31 40.71c.92.2 1.7.59 2.27 1.06.46-.68.85-1.5 1.11-2.44.77-2.77.16-5.36-1.36-5.79-1.53-.43-3.39 1.47-4.17 4.24a8.5 8.5 0 0 0-.31 2.92c.71-.18 1.57-.2 2.47 0Z" style="fill:#70327e"/><path d="M81.94 41.1s3.47-1.52 6 1.71" style="fill:none;stroke:#70327e;stroke-linejoin:round;stroke-linecap:round"/><ellipse cx="87.33" cy="37.49" rx="1.36" ry=".89" style="fill:#fff" transform="rotate(-77.55 87.337 37.49)"/><g style="clip-path:url(#b)"><path d="m65.04 35.78 22.15 10.57L80.06 55l-13.72-1.01-4-11.94z" style="fill:#fff"/><ellipse cx="68.92" cy="50.4" rx="5.16" ry="5.92" style="fill:#f05124" transform="rotate(-66.69 68.923 50.393)"/></g><path d="M84 47.21s-12.57.11-17.95-9.57c-1.11 1.93-3.39 10.26 2.97 13.57 4.41 2.3 11.57.78 14.98-4.01Z" style="fill:none;stroke:#70327e;stroke-linejoin:round;stroke-linecap:round"/><path d="M57.88-1.84c.89 6.26 1.41 22.23-8.59 33.79" style="fill:none;stroke-linejoin:round;stroke-linecap:round;stroke:#8f9294;stroke-width:7px"/><path d="M57.88-1.84c.89 6.26 1.41 22.23-8.59 33.79" style="fill:none;stroke-linejoin:round;stroke-linecap:round;stroke:#c4c5c7;stroke-width:5px"/></svg>