<?xml version="1.0" encoding="UTF-8"?><svg id="a" xmlns="http://www.w3.org/2000/svg" xmlns:xlink="http://www.w3.org/1999/xlink" viewBox="0 0 150 150"><defs><style>.d,.e,.f,.g,.h,.i,.j,.k{fill:none;}.e,.f{stroke:#70327e;}.e,.f,.g,.h,.i,.j,.k,.l{stroke-linejoin:round;}.e,.g,.k{stroke-linecap:round;}.m{fill:#f05124;}.n{fill:#fff;}.o{fill:#70327e;}.g{stroke:#c4c5c7;stroke-width:5px;}.h{stroke:#2dc5f4;}.h,.i,.j{stroke-width:13px;}.i{stroke:#fcee20;}.j{stroke:#f063a4;}.k{stroke:#8f9294;stroke-width:7px;}.p{clip-path:url(#c);}.q{clip-path:url(#b);}.l{fill:#c5c7c9;stroke:#929497;}</style><clipPath id="b"><path class="d" d="M126.05,83.21l-35.33-6.93c1.87-9.56-4.38-18.87-13.94-20.74-9.56-1.87-18.87,4.38-20.74,13.94l-35.33-6.93c5.69-29.04,33.95-48.04,63-42.34,29.04,5.69,48.04,33.95,42.34,63Z"/></clipPath><clipPath id="c"><path class="d" d="M84,47.21s-12.57,.11-17.95-9.57c-1.11,1.93-3.39,10.26,2.97,13.57,4.41,2.3,11.57,.78,14.98-4.01Z"/></clipPath></defs><g><path class="k" d="M114.83,.63s1.34,26.38-7.63,35.73"/><path class="g" d="M114.83,.63s1.34,26.38-7.63,35.73"/></g><path class="l" d="M85.08,57.2s1.68,14.71,2.92,26.22c.73,6.76,1.55,14.57,1.55,14.57l10.31,3.19-15.86,4.79s-1.78-16.47-2.92-26.59c-.8-7.16-2.7-24.45-2.7-24.45"/><path class="l" d="M71.11,53.42s-3.62,16.86-6.74,24.21c-2.66,6.26-7.24,15.86-7.24,15.86l2.83,11.85-11.69-10.45s7.1-12.34,10.71-21.01c2.76-6.65,5.48-22.8,5.48-22.8"/><g class="q"><path class="h" d="M26.4,64.69c5.06-25.8,30.16-42.67,55.96-37.61,25.8,5.06,42.67,30.16,37.61,55.95"/><path class="j" d="M38.38,65.99c3.78-19.3,22.57-31.93,41.87-28.14,19.3,3.78,31.93,22.57,28.14,41.87"/><path class="i" d="M50.16,68.3c2.51-12.81,14.98-21.19,27.79-18.68,12.81,2.51,21.19,14.98,18.68,27.79"/></g><path class="f" d="M126.05,83.21l-35.33-6.93c1.87-9.56-4.38-18.87-13.94-20.74-9.56-1.87-18.87,4.38-20.74,13.94l-35.33-6.93c5.69-29.04,33.95-48.04,63-42.34,29.04,5.69,48.04,33.95,42.34,63Z"/><g><path class="o" d="M74.51,38.86c.94-.02,1.79,.18,2.45,.5,.28-.77,.47-1.66,.51-2.63,.11-2.87-1.09-5.25-2.68-5.31-1.58-.06-2.95,2.22-3.06,5.1-.04,1.07,.1,2.08,.38,2.92,.65-.34,1.48-.56,2.4-.58Z"/><path class="e" d="M71.33,40.03s3.02-2.29,6.24,.25"/><ellipse class="n" cx="75.72" cy="35.26" rx=".89" ry="1.36" transform="translate(-.65 1.44) rotate(-1.08)"/></g><g><path class="o" d="M85.31,40.71c.92,.2,1.7,.59,2.27,1.06,.46-.68,.85-1.5,1.11-2.44,.77-2.77,.16-5.36-1.36-5.79-1.53-.43-3.39,1.47-4.17,4.24-.29,1.03-.38,2.04-.31,2.92,.71-.18,1.57-.2,2.47,0Z"/><path class="e" d="M81.94,41.1s3.47-1.52,6,1.71"/><ellipse class="n" cx="87.33" cy="37.49" rx="1.36" ry=".89" transform="translate(31.9 114.69) rotate(-77.55)"/></g><g class="p"><polygon class="n" points="65.04 35.78 87.19 46.35 80.06 55 66.34 53.99 62.34 42.05 65.04 35.78"/><ellipse class="m" cx="68.92" cy="50.4" rx="5.16" ry="5.92" transform="translate(-4.63 93.75) rotate(-66.69)"/></g><path class="e" d="M84,47.21s-12.57,.11-17.95-9.57c-1.11,1.93-3.39,10.26,2.97,13.57,4.41,2.3,11.57,.78,14.98-4.01Z"/><g><path class="k" d="M57.88-1.84c.89,6.26,1.41,22.23-8.59,33.79"/><path class="g" d="M57.88-1.84c.89,6.26,1.41,22.23-8.59,33.79"/></g></svg>