<svg xmlns="http://www.w3.org/2000/svg" xmlns:xlink="http://www.w3.org/1999/xlink" viewBox="0 0 175 150"><defs><linearGradient id="a" x1="148.28" x2="148.28" y1="232.07" y2="303.6" gradientTransform="matrix(1 0 0 -1 0 342.84)" gradientUnits="userSpaceOnUse"><stop offset="0" stop-color="#9253a1"/><stop offset=".25" stop-color="#2dc5f4"/><stop offset=".5" stop-color="#f063a4"/><stop offset=".75" stop-color="#f89e4f"/><stop offset="1" stop-color="#fcee20"/></linearGradient><linearGradient xlink:href="#a" id="d" x1="939.96" x2="939.96" y1="232.07" y2="303.6" gradientTransform="rotate(-180 483.34 171.42)"/><clipPath id="b"><circle cx="87.52" cy="75.01" r="39.56" style="fill:none"/></clipPath><clipPath id="c"><path d="M129.31 120.62c-15.18 10.62-23.58 20.07-42.8 20.07s-27.62-9.45-42.8-20.07V29.4c15.18 10.62 23.58 20.07 42.8 20.07s27.62-9.45 42.8-20.07z" style="fill:none"/></clipPath></defs><g style="clip-path:url(#b)"><g style="clip-path:url(#c)"><path d="M43.71 120.62c15.18 10.62 23.58 20.07 42.8 20.07s27.62-9.45 42.8-20.07c-15.18 10.62-23.58 20.07-42.8 20.07s-27.62-9.45-42.8-20.07" style="fill:#b337e3"/><path d="M43.71 120.46c15.18 10.62 23.58 20.07 42.8 20.07s27.62-9.45 42.8-20.07v.16c-15.18 10.62-23.58 20.07-42.8 20.07s-27.62-9.45-42.8-20.07z" style="fill:#b337e3"/><path d="M43.71 120.3c15.18 10.61 23.58 20.07 42.8 20.07s27.62-9.45 42.8-20.07v.16c-15.18 10.62-23.58 20.07-42.8 20.07s-27.62-9.45-42.8-20.07z" style="fill:#b238e3"/><path d="M43.71 120.14c15.18 10.62 23.58 20.07 42.8 20.07s27.62-9.45 42.8-20.07v.16c-15.18 10.62-23.58 20.07-42.8 20.07s-27.62-9.45-42.8-20.07z" style="fill:#b139e3"/><path d="M43.71 119.98c15.18 10.62 23.58 20.07 42.8 20.07s27.62-9.45 42.8-20.07v.16c-15.18 10.62-23.58 20.07-42.8 20.07s-27.62-9.45-42.8-20.07z" style="fill:#b03ae3"/><path d="M43.71 119.82c15.18 10.62 23.58 20.07 42.8 20.07s27.62-9.45 42.8-20.07v.16c-15.18 10.62-23.58 20.07-42.8 20.07s-27.62-9.45-42.8-20.07z" class="m`"/><path d="M43.71 119.66c15.18 10.62 23.58 20.07 42.8 20.07s27.62-9.45 42.8-20.07v.16c-15.18 10.62-23.58 20.07-42.8 20.07s-27.62-9.45-42.8-20.07z" style="fill:#ae3ce4"/><path d="M43.71 119.5c15.18 10.62 23.58 20.07 42.8 20.07s27.62-9.45 42.8-20.07v.16c-15.18 10.62-23.58 20.07-42.8 20.07s-27.62-9.45-42.8-20.07z" style="fill:#ad3de4"/><path d="M43.71 119.34c15.18 10.62 23.58 20.07 42.8 20.07s27.62-9.45 42.8-20.07v.16c-15.18 10.62-23.58 20.07-42.8 20.07s-27.62-9.45-42.8-20.07z" style="fill:#ac3ee4"/><path d="M43.71 119.18c15.18 10.62 23.58 20.07 42.8 20.07s27.62-9.45 42.8-20.07v.16c-15.18 10.62-23.58 20.07-42.8 20.07s-27.62-9.45-42.8-20.07z" style="fill:#ab3fe4"/><path d="M43.71 119.02c15.18 10.62 23.58 20.07 42.8 20.07s27.62-9.45 42.8-20.07v.16c-15.18 10.62-23.58 20.07-42.8 20.07s-27.62-9.45-42.8-20.07z" style="fill:#aa40e4"/><path d="M43.71 118.86c15.18 10.62 23.58 20.07 42.8 20.07s27.62-9.45 42.8-20.07v.16c-15.18 10.62-23.58 20.07-42.8 20.07s-27.62-9.45-42.8-20.07z" style="fill:#a941e4"/><path d="M43.71 118.69c15.18 10.62 23.58 20.07 42.8 20.07s27.62-9.45 42.8-20.07v.16c-15.18 10.62-23.58 20.07-42.8 20.07s-27.62-9.45-42.8-20.07z" style="fill:#a842e4"/><path d="M43.71 118.53c15.18 10.62 23.58 20.07 42.8 20.07s27.62-9.45 42.8-20.07v.16c-15.18 10.62-23.58 20.07-42.8 20.07s-27.62-9.45-42.8-20.07z" style="fill:#a743e4"/><path d="M43.71 118.37c15.18 10.62 23.58 20.07 42.8 20.07s27.62-9.45 42.8-20.07v.16c-15.18 10.62-23.58 20.07-42.8 20.07s-27.62-9.45-42.8-20.07z" style="fill:#a644e5"/><path d="M43.71 118.21c15.18 10.62 23.58 20.07 42.8 20.07s27.62-9.45 42.8-20.07v.16c-15.18 10.62-23.58 20.07-42.8 20.07s-27.62-9.45-42.8-20.07z" style="fill:#a545e5"/><path d="M43.71 118.05c15.18 10.62 23.58 20.07 42.8 20.07s27.62-9.45 42.8-20.07v.16c-15.18 10.62-23.58 20.07-42.8 20.07s-27.62-9.45-42.8-20.07z" style="fill:#a446e5"/><path d="M43.71 117.89c15.18 10.62 23.58 20.07 42.8 20.07s27.62-9.45 42.8-20.07v.16c-15.18 10.62-23.58 20.07-42.8 20.07s-27.62-9.45-42.8-20.07z" style="fill:#a347e5"/><path d="M43.71 117.73c15.18 10.62 23.58 20.07 42.8 20.07s27.62-9.45 42.8-20.07v.16c-15.18 10.62-23.58 20.07-42.8 20.07s-27.62-9.45-42.8-20.07z" style="fill:#a248e5"/><path d="M43.71 117.57c15.18 10.62 23.58 20.07 42.8 20.07s27.62-9.45 42.8-20.07v.16c-15.18 10.62-23.58 20.07-42.8 20.07s-27.62-9.45-42.8-20.07z" style="fill:#a249e5"/><path d="M43.71 117.41c15.18 10.62 23.58 20.07 42.8 20.07s27.62-9.45 42.8-20.07v.16c-15.18 10.62-23.58 20.07-42.8 20.07s-27.62-9.45-42.8-20.07z" style="fill:#a14ae5"/><path d="M43.71 117.25c15.18 10.62 23.58 20.07 42.8 20.07s27.62-9.45 42.8-20.07v.16c-15.18 10.62-23.58 20.07-42.8 20.07s-27.62-9.45-42.8-20.07z" style="fill:#a04be5"/><path d="M43.71 117.09c15.18 10.62 23.58 20.07 42.8 20.07s27.62-9.45 42.8-20.07v.16c-15.18 10.62-23.58 20.07-42.8 20.07s-27.62-9.45-42.8-20.07z" style="fill:#9f4ce6"/><path d="M43.71 116.93C58.89 127.55 67.29 137 86.51 137s27.62-9.45 42.8-20.07v.16c-15.18 10.62-23.58 20.07-42.8 20.07s-27.62-9.45-42.8-20.07z" style="fill:#9e4de6"/><path d="M43.71 116.77c15.18 10.62 23.58 20.07 42.8 20.07s27.62-9.45 42.8-20.07v.16C114.13 127.55 105.73 137 86.51 137s-27.62-9.45-42.8-20.07z" style="fill:#9d4ee6"/><path d="M43.71 116.61c15.18 10.62 23.58 20.07 42.8 20.07s27.62-9.45 42.8-20.07v.16c-15.18 10.62-23.58 20.07-42.8 20.07s-27.62-9.45-42.8-20.07z" style="fill:#9c4fe6"/><path d="M43.71 116.45c15.18 10.62 23.58 20.07 42.8 20.07s27.62-9.45 42.8-20.07v.16c-15.18 10.62-23.58 20.07-42.8 20.07s-27.62-9.45-42.8-20.07z" style="fill:#9b50e6"/><path d="M43.71 116.29c15.18 10.62 23.58 20.07 42.8 20.07s27.62-9.45 42.8-20.07v.16c-15.18 10.62-23.58 20.07-42.8 20.07s-27.62-9.45-42.8-20.07z" style="fill:#9a51e6"/><path d="M43.71 116.12c15.18 10.62 23.58 20.07 42.8 20.07s27.62-9.45 42.8-20.07v.16c-15.18 10.62-23.58 20.07-42.8 20.07s-27.62-9.45-42.8-20.07z" style="fill:#9952e6"/><path d="M43.71 115.96c15.18 10.62 23.58 20.07 42.8 20.07s27.62-9.45 42.8-20.07v.16c-15.18 10.62-23.58 20.07-42.8 20.07s-27.62-9.45-42.8-20.07z" style="fill:#9853e6"/><path d="M43.71 115.8c15.18 10.62 23.58 20.07 42.8 20.07s27.62-9.45 42.8-20.07v.16c-15.18 10.62-23.58 20.07-42.8 20.07s-27.62-9.45-42.8-20.07z" style="fill:#9754e6"/><path d="M43.71 115.64c15.18 10.62 23.58 20.07 42.8 20.07s27.62-9.45 42.8-20.07v.16c-15.18 10.62-23.58 20.07-42.8 20.07s-27.62-9.45-42.8-20.07z" style="fill:#9655e7"/><path d="M43.71 115.48c15.18 10.62 23.58 20.07 42.8 20.07s27.62-9.45 42.8-20.07v.16c-15.18 10.62-23.58 20.07-42.8 20.07s-27.62-9.45-42.8-20.07z" style="fill:#9556e7"/><path d="M43.71 115.32c15.18 10.62 23.58 20.07 42.8 20.07s27.62-9.45 42.8-20.07v.16c-15.18 10.62-23.58 20.07-42.8 20.07s-27.62-9.45-42.8-20.07z" style="fill:#9457e7"/><path d="M43.71 115.16c15.18 10.62 23.58 20.07 42.8 20.07s27.62-9.45 42.8-20.07v.16c-15.18 10.62-23.58 20.07-42.8 20.07s-27.62-9.45-42.8-20.07z" style="fill:#9358e7"/><path d="M43.71 115c15.18 10.62 23.58 20.07 42.8 20.07s27.62-9.45 42.8-20.07v.16c-15.18 10.62-23.58 20.07-42.8 20.07s-27.62-9.45-42.8-20.07z" style="fill:#9259e7"/><path d="M43.71 114.84c15.18 10.62 23.58 20.07 42.8 20.07s27.62-9.45 42.8-20.07v.16c-15.18 10.62-23.58 20.07-42.8 20.07s-27.62-9.45-42.8-20.07z" style="fill:#915ae7"/><path d="M43.71 114.68c15.18 10.62 23.58 20.07 42.8 20.07s27.62-9.45 42.8-20.07v.16c-15.18 10.62-23.58 20.07-42.8 20.07s-27.62-9.45-42.8-20.07z" style="fill:#905be7"/><path d="M43.71 114.52c15.18 10.62 23.58 20.07 42.8 20.07s27.62-9.45 42.8-20.07v.16c-15.18 10.62-23.58 20.07-42.8 20.07s-27.62-9.45-42.8-20.07z" style="fill:#8f5ce7"/><path d="M43.71 114.36c15.18 10.62 23.58 20.07 42.8 20.07s27.62-9.45 42.8-20.07v.16c-15.18 10.62-23.58 20.07-42.8 20.07s-27.62-9.45-42.8-20.07z" style="fill:#8e5de8"/><path d="M43.71 114.2c15.18 10.62 23.58 20.07 42.8 20.07s27.62-9.45 42.8-20.07v.16c-15.18 10.62-23.58 20.07-42.8 20.07s-27.62-9.45-42.8-20.07z" style="fill:#8d5ee8"/><path d="M43.71 114.04c15.18 10.62 23.58 20.07 42.8 20.07s27.62-9.45 42.8-20.07v.16c-15.18 10.62-23.58 20.07-42.8 20.07s-27.62-9.45-42.8-20.07z" class="j`"/><path d="M43.71 113.88c15.18 10.62 23.58 20.07 42.8 20.07s27.62-9.45 42.8-20.07v.16c-15.18 10.62-23.58 20.07-42.8 20.07s-27.62-9.45-42.8-20.07z" style="fill:#8b60e8"/><path d="M43.71 113.72c15.18 10.62 23.58 20.07 42.8 20.07s27.62-9.45 42.8-20.07v.16c-15.18 10.62-23.58 20.07-42.8 20.07s-27.62-9.45-42.8-20.07z" style="fill:#8a61e8"/><path d="M43.71 113.56c15.18 10.62 23.58 20.07 42.8 20.07s27.62-9.45 42.8-20.07v.16c-15.18 10.62-23.58 20.07-42.8 20.07s-27.62-9.45-42.8-20.07z" style="fill:#8962e8"/><path d="M43.71 113.39c15.18 10.62 23.58 20.07 42.8 20.07s27.62-9.45 42.8-20.07v.16c-15.18 10.62-23.58 20.07-42.8 20.07s-27.62-9.45-42.8-20.07z" style="fill:#8863e8"/><path d="M43.71 113.23c15.18 10.62 23.58 20.07 42.8 20.07s27.62-9.45 42.8-20.07v.16c-15.18 10.62-23.58 20.07-42.8 20.07s-27.62-9.45-42.8-20.07z" style="fill:#8764e8"/><path d="M43.71 113.07c15.18 10.62 23.58 20.07 42.8 20.07s27.62-9.45 42.8-20.07v.16c-15.18 10.62-23.58 20.07-42.8 20.07s-27.62-9.45-42.8-20.07z" style="fill:#8665e9"/><path d="M43.71 112.91c15.18 10.62 23.58 20.07 42.8 20.07s27.62-9.45 42.8-20.07v.16c-15.18 10.62-23.58 20.07-42.8 20.07s-27.62-9.45-42.8-20.07z" style="fill:#8566e9"/><path d="M43.71 112.75c15.18 10.62 23.58 20.07 42.8 20.07s27.62-9.45 42.8-20.07v.16c-15.18 10.62-23.58 20.07-42.8 20.07s-27.62-9.45-42.8-20.07z" style="fill:#8467e9"/><path d="M43.71 112.59c15.18 10.62 23.58 20.07 42.8 20.07s27.62-9.45 42.8-20.07v.16c-15.18 10.62-23.58 20.07-42.8 20.07s-27.62-9.45-42.8-20.07z" style="fill:#8368e9"/><path d="M43.71 112.43c15.18 10.62 23.58 20.07 42.8 20.07s27.62-9.45 42.8-20.07v.16c-15.18 10.62-23.58 20.07-42.8 20.07s-27.62-9.45-42.8-20.07z" style="fill:#8269e9"/><path d="M43.71 112.27c15.18 10.62 23.58 20.07 42.8 20.07s27.62-9.45 42.8-20.07v.16c-15.18 10.62-23.58 20.07-42.8 20.07s-27.62-9.45-42.8-20.07z" style="fill:#816ae9"/><path d="M43.71 112.11c15.18 10.62 23.58 20.07 42.8 20.07s27.62-9.45 42.8-20.07v.16c-15.18 10.62-23.58 20.07-42.8 20.07s-27.62-9.45-42.8-20.07z" style="fill:#806be9"/><path d="M43.71 111.95c15.18 10.62 23.58 20.07 42.8 20.07s27.62-9.45 42.8-20.07v.16c-15.18 10.62-23.58 20.07-42.8 20.07s-27.62-9.45-42.8-20.07z" style="fill:#806ce9"/><path d="M43.71 111.79c15.18 10.62 23.58 20.07 42.8 20.07s27.62-9.45 42.8-20.07v.16c-15.18 10.62-23.58 20.07-42.8 20.07s-27.62-9.45-42.8-20.07z" style="fill:#7f6dea"/><path d="M43.71 111.63c15.18 10.62 23.58 20.07 42.8 20.07s27.62-9.45 42.8-20.07v.16c-15.18 10.62-23.58 20.07-42.8 20.07s-27.62-9.45-42.8-20.07z" style="fill:#7e6eea"/><path d="M43.71 111.47c15.18 10.62 23.58 20.07 42.8 20.07s27.62-9.45 42.8-20.07v.16c-15.18 10.62-23.58 20.07-42.8 20.07s-27.62-9.45-42.8-20.07z" style="fill:#7d6fea"/><path d="M43.71 111.31c15.18 10.62 23.58 20.07 42.8 20.07s27.62-9.45 42.8-20.07v.16c-15.18 10.62-23.58 20.07-42.8 20.07s-27.62-9.45-42.8-20.07z" style="fill:#7c70ea"/><path d="M43.71 111.15c15.18 10.62 23.58 20.07 42.8 20.07s27.62-9.45 42.8-20.07v.16c-15.18 10.62-23.58 20.07-42.8 20.07s-27.62-9.45-42.8-20.07z" style="fill:#7b71ea"/><path d="M43.71 110.99c15.18 10.62 23.58 20.07 42.8 20.07s27.62-9.45 42.8-20.07v.16c-15.18 10.62-23.58 20.07-42.8 20.07s-27.62-9.45-42.8-20.07z" style="fill:#7a72ea"/><path d="M43.71 110.82c15.18 10.62 23.58 20.07 42.8 20.07s27.62-9.45 42.8-20.07v.16c-15.18 10.62-23.58 20.07-42.8 20.07s-27.62-9.45-42.8-20.07z" style="fill:#7973ea"/><path d="M43.71 110.66c15.18 10.62 23.58 20.07 42.8 20.07s27.62-9.45 42.8-20.07v.16c-15.18 10.62-23.58 20.07-42.8 20.07s-27.62-9.45-42.8-20.07z" style="fill:#7874ea"/><path d="M43.71 110.5c15.18 10.62 23.58 20.07 42.8 20.07s27.62-9.45 42.8-20.07v.16c-15.18 10.62-23.58 20.07-42.8 20.07s-27.62-9.45-42.8-20.07z" style="fill:#7775ea"/><path d="M43.71 110.34c15.18 10.62 23.58 20.07 42.8 20.07s27.62-9.45 42.8-20.07v.16c-15.18 10.62-23.58 20.07-42.8 20.07s-27.62-9.45-42.8-20.07z" style="fill:#7676eb"/><path d="M43.71 110.18c15.18 10.62 23.58 20.07 42.8 20.07s27.62-9.45 42.8-20.07v.16c-15.18 10.62-23.58 20.07-42.8 20.07s-27.62-9.45-42.8-20.07z" style="fill:#7577eb"/><path d="M43.71 110.02c15.18 10.62 23.58 20.07 42.8 20.07s27.62-9.45 42.8-20.07v.16c-15.18 10.62-23.58 20.07-42.8 20.07s-27.62-9.45-42.8-20.07z" style="fill:#7478eb"/><path d="M43.71 109.86c15.18 10.62 23.58 20.07 42.8 20.07s27.62-9.45 42.8-20.07v.16c-15.18 10.62-23.58 20.07-42.8 20.07s-27.62-9.45-42.8-20.07z" style="fill:#7379eb"/><path d="M43.71 109.7c15.18 10.62 23.58 20.07 42.8 20.07s27.62-9.45 42.8-20.07v.16c-15.18 10.62-23.58 20.07-42.8 20.07s-27.62-9.45-42.8-20.07z" style="fill:#727aeb"/><path d="M43.71 109.54c15.18 10.62 23.58 20.07 42.8 20.07s27.62-9.45 42.8-20.07v.16c-15.18 10.62-23.58 20.07-42.8 20.07s-27.62-9.45-42.8-20.07z" style="fill:#717beb"/><path d="M43.71 109.38c15.18 10.62 23.58 20.07 42.8 20.07s27.62-9.45 42.8-20.07v.16c-15.18 10.62-23.58 20.07-42.8 20.07s-27.62-9.45-42.8-20.07z" style="fill:#707ceb"/><path d="M43.71 109.22c15.18 10.62 23.58 20.07 42.8 20.07s27.62-9.45 42.8-20.07v.16c-15.18 10.62-23.58 20.07-42.8 20.07s-27.62-9.45-42.8-20.07z" style="fill:#6f7deb"/><path d="M43.71 109.06c15.18 10.62 23.58 20.07 42.8 20.07s27.62-9.45 42.8-20.07v.16c-15.18 10.62-23.58 20.07-42.8 20.07s-27.62-9.45-42.8-20.07z" style="fill:#6e7fec"/><path d="M43.71 108.9c15.18 10.62 23.58 20.07 42.8 20.07s27.62-9.45 42.8-20.07v.16c-15.18 10.62-23.58 20.07-42.8 20.07s-27.62-9.45-42.8-20.07z" style="fill:#6d80ec"/><path d="M43.71 108.74c15.18 10.62 23.58 20.07 42.8 20.07s27.62-9.45 42.8-20.07v.16c-15.18 10.62-23.58 20.07-42.8 20.07s-27.62-9.45-42.8-20.07z" style="fill:#6c81ec"/><path d="M43.71 108.58c15.18 10.62 23.58 20.07 42.8 20.07s27.62-9.45 42.8-20.07v.16c-15.18 10.62-23.58 20.07-42.8 20.07s-27.62-9.45-42.8-20.07z" style="fill:#6b82ec"/><path d="M43.71 108.42c15.18 10.62 23.58 20.07 42.8 20.07s27.62-9.45 42.8-20.07v.16c-15.18 10.62-23.58 20.07-42.8 20.07s-27.62-9.45-42.8-20.07z" style="fill:#6a83ec"/><path d="M43.71 108.26c15.18 10.62 23.58 20.07 42.8 20.07s27.62-9.45 42.8-20.07v.16c-15.18 10.62-23.58 20.07-42.8 20.07s-27.62-9.45-42.8-20.07z" style="fill:#6984ec"/><path d="M43.71 108.09c15.18 10.62 23.58 20.07 42.8 20.07s27.62-9.45 42.8-20.07v.16c-15.18 10.62-23.58 20.07-42.8 20.07s-27.62-9.45-42.8-20.07z" style="fill:#6885ec"/><path d="M43.71 107.93C58.89 118.55 67.29 128 86.51 128s27.62-9.45 42.8-20.07v.16c-15.18 10.62-23.58 20.07-42.8 20.07s-27.62-9.45-42.8-20.07z" style="fill:#6786ec"/><path d="M43.71 107.77c15.18 10.62 23.58 20.07 42.8 20.07s27.62-9.45 42.8-20.07v.16C114.13 118.55 105.73 128 86.51 128s-27.62-9.45-42.8-20.07z" style="fill:#6687ed"/><path d="M43.71 107.61c15.18 10.62 23.58 20.07 42.8 20.07s27.62-9.45 42.8-20.07v.16c-15.18 10.62-23.58 20.07-42.8 20.07s-27.62-9.45-42.8-20.07z" class="i`"/><path d="M43.71 107.45c15.18 10.62 23.58 20.07 42.8 20.07s27.62-9.45 42.8-20.07v.16c-15.18 10.62-23.58 20.07-42.8 20.07s-27.62-9.45-42.8-20.07z" style="fill:#6489ed"/><path d="M43.71 107.29c15.18 10.62 23.58 20.07 42.8 20.07s27.62-9.45 42.8-20.07v.16c-15.18 10.62-23.58 20.07-42.8 20.07s-27.62-9.45-42.8-20.07z" style="fill:#638aed"/><path d="M43.71 107.13c15.18 10.62 23.58 20.07 42.8 20.07s27.62-9.45 42.8-20.07v.16c-15.18 10.62-23.58 20.07-42.8 20.07s-27.62-9.45-42.8-20.07z" style="fill:#628bed"/><path d="M43.71 106.97c15.18 10.62 23.58 20.07 42.8 20.07s27.62-9.45 42.8-20.07v.16c-15.18 10.62-23.58 20.07-42.8 20.07s-27.62-9.45-42.8-20.07z" style="fill:#618ced"/><path d="M43.71 106.81c15.18 10.62 23.58 20.07 42.8 20.07s27.62-9.45 42.8-20.07v.16c-15.18 10.62-23.58 20.07-42.8 20.07s-27.62-9.45-42.8-20.07z" style="fill:#608ded"/><path d="M43.71 106.65c15.18 10.62 23.58 20.07 42.8 20.07s27.62-9.45 42.8-20.07v.16c-15.18 10.62-23.58 20.07-42.8 20.07s-27.62-9.45-42.8-20.07z" style="fill:#5f8eed"/><path d="M43.71 106.49c15.18 10.62 23.58 20.07 42.8 20.07s27.62-9.45 42.8-20.07v.16c-15.18 10.62-23.58 20.07-42.8 20.07s-27.62-9.45-42.8-20.07z" style="fill:#5e8fed"/><path d="M43.71 106.33c15.18 10.62 23.58 20.07 42.8 20.07s27.62-9.45 42.8-20.07v.16c-15.18 10.62-23.58 20.07-42.8 20.07s-27.62-9.45-42.8-20.07z" class="t`"/><path d="M43.71 106.17c15.18 10.62 23.58 20.07 42.8 20.07s27.62-9.45 42.8-20.07v.16c-15.18 10.62-23.58 20.07-42.8 20.07s-27.62-9.45-42.8-20.07z" style="fill:#5d91ee"/><path d="M43.71 106.01c15.18 10.62 23.58 20.07 42.8 20.07s27.62-9.45 42.8-20.07v.16c-15.18 10.62-23.58 20.07-42.8 20.07s-27.62-9.45-42.8-20.07z" style="fill:#5c92ee"/><path d="M43.71 105.85c15.18 10.62 23.58 20.07 42.8 20.07s27.62-9.45 42.8-20.07v.16c-15.18 10.62-23.58 20.07-42.8 20.07s-27.62-9.45-42.8-20.07z" style="fill:#5b93ee"/><path d="M43.71 105.69c15.18 10.62 23.58 20.07 42.8 20.07s27.62-9.45 42.8-20.07v.16c-15.18 10.62-23.58 20.07-42.8 20.07s-27.62-9.45-42.8-20.07z" style="fill:#5a94ee"/><path d="M43.71 105.52c15.18 10.62 23.58 20.07 42.8 20.07s27.62-9.45 42.8-20.07v.16c-15.18 10.62-23.58 20.07-42.8 20.07s-27.62-9.45-42.8-20.07z" style="fill:#5995ee"/><path d="M43.71 105.36c15.18 10.62 23.58 20.07 42.8 20.07s27.62-9.45 42.8-20.07v.16c-15.18 10.62-23.58 20.07-42.8 20.07s-27.62-9.45-42.8-20.07z" style="fill:#5896ee"/><path d="M43.71 105.2c15.18 10.62 23.58 20.07 42.8 20.07s27.62-9.45 42.8-20.07v.16c-15.18 10.62-23.58 20.07-42.8 20.07s-27.62-9.45-42.8-20.07z" style="fill:#5797ee"/><path d="M43.71 105.04c15.18 10.62 23.58 20.07 42.8 20.07s27.62-9.45 42.8-20.07v.16c-15.18 10.62-23.58 20.07-42.8 20.07s-27.62-9.45-42.8-20.07z" style="fill:#5698ef"/><path d="M43.71 104.88c15.18 10.62 23.58 20.07 42.8 20.07s27.62-9.45 42.8-20.07v.16c-15.18 10.62-23.58 20.07-42.8 20.07s-27.62-9.45-42.8-20.07z" style="fill:#5599ef"/><path d="M43.71 104.72c15.18 10.62 23.58 20.07 42.8 20.07s27.62-9.45 42.8-20.07v.16c-15.18 10.62-23.58 20.07-42.8 20.07s-27.62-9.45-42.8-20.07z" class="q`"/><path d="M43.71 104.56c15.18 10.62 23.58 20.07 42.8 20.07s27.62-9.45 42.8-20.07v.16c-15.18 10.62-23.58 20.07-42.8 20.07s-27.62-9.45-42.8-20.07z" style="fill:#539bef"/><path d="M43.71 104.4c15.18 10.62 23.58 20.07 42.8 20.07s27.62-9.45 42.8-20.07v.16c-15.18 10.62-23.58 20.07-42.8 20.07s-27.62-9.45-42.8-20.07z" style="fill:#529cef"/><path d="M43.71 104.24c15.18 10.62 23.58 20.07 42.8 20.07s27.62-9.45 42.8-20.07v.16c-15.18 10.62-23.58 20.07-42.8 20.07s-27.62-9.45-42.8-20.07z" style="fill:#519def"/><path d="M43.71 104.08c15.18 10.62 23.58 20.07 42.8 20.07s27.62-9.45 42.8-20.07v.16c-15.18 10.62-23.58 20.07-42.8 20.07s-27.62-9.45-42.8-20.07z" style="fill:#509eef"/><path d="M43.71 103.92c15.18 10.62 23.58 20.07 42.8 20.07s27.62-9.45 42.8-20.07v.16c-15.18 10.62-23.58 20.07-42.8 20.07s-27.62-9.45-42.8-20.07z" style="fill:#4f9fef"/><path d="M43.71 103.76c15.18 10.62 23.58 20.07 42.8 20.07s27.62-9.45 42.8-20.07v.16c-15.18 10.62-23.58 20.07-42.8 20.07s-27.62-9.45-42.8-20.07z" style="fill:#4ea0f0"/><path d="M43.71 103.6c15.18 10.62 23.58 20.07 42.8 20.07s27.62-9.45 42.8-20.07v.16c-15.18 10.62-23.58 20.07-42.8 20.07s-27.62-9.45-42.8-20.07z" class="u`"/><path d="M43.71 103.44c15.18 10.62 23.58 20.07 42.8 20.07s27.62-9.45 42.8-20.07v.16c-15.18 10.62-23.58 20.07-42.8 20.07s-27.62-9.45-42.8-20.07z" style="fill:#4ca2f0"/><path d="M43.71 103.28c15.18 10.62 23.58 20.07 42.8 20.07s27.62-9.45 42.8-20.07v.16c-15.18 10.62-23.58 20.07-42.8 20.07s-27.62-9.45-42.8-20.07z" style="fill:#4ba3f0"/><path d="M43.71 103.12c15.18 10.62 23.58 20.07 42.8 20.07s27.62-9.45 42.8-20.07v.16c-15.18 10.62-23.58 20.07-42.8 20.07s-27.62-9.45-42.8-20.07z" style="fill:#4aa4f0"/><path d="M43.71 102.96c15.18 10.62 23.58 20.07 42.8 20.07s27.62-9.45 42.8-20.07v.16c-15.18 10.62-23.58 20.07-42.8 20.07s-27.62-9.45-42.8-20.07z" style="fill:#49a5f0"/><path d="M43.71 102.79c15.18 10.62 23.58 20.07 42.8 20.07s27.62-9.45 42.8-20.07v.16c-15.18 10.62-23.58 20.07-42.8 20.07s-27.62-9.45-42.8-20.07z" style="fill:#48a6f0"/><path d="M43.71 102.63c15.18 10.62 23.58 20.07 42.8 20.07s27.62-9.45 42.8-20.07v.16c-15.18 10.62-23.58 20.07-42.8 20.07s-27.62-9.45-42.8-20.07z" style="fill:#47a7f0"/><path d="M43.71 102.47c15.18 10.62 23.58 20.07 42.8 20.07s27.62-9.45 42.8-20.07v.16c-15.18 10.62-23.58 20.07-42.8 20.07s-27.62-9.45-42.8-20.07z" style="fill:#46a8f1"/><path d="M43.71 102.31c15.18 10.62 23.58 20.07 42.8 20.07s27.62-9.45 42.8-20.07v.16c-15.18 10.62-23.58 20.07-42.8 20.07s-27.62-9.45-42.8-20.07z" style="fill:#45a9f1"/><path d="M43.71 102.15c15.18 10.62 23.58 20.07 42.8 20.07s27.62-9.45 42.8-20.07v.16c-15.18 10.62-23.58 20.07-42.8 20.07s-27.62-9.45-42.8-20.07z" style="fill:#44aaf1"/><path d="M43.71 101.99c15.18 10.62 23.58 20.07 42.8 20.07s27.62-9.45 42.8-20.07v.16c-15.18 10.62-23.58 20.07-42.8 20.07s-27.62-9.45-42.8-20.07z" style="fill:#43abf1"/><path d="M43.71 101.83c15.18 10.62 23.58 20.07 42.8 20.07s27.62-9.45 42.8-20.07v.16c-15.18 10.62-23.58 20.07-42.8 20.07s-27.62-9.45-42.8-20.07z" style="fill:#42acf1"/><path d="M43.71 101.67c15.18 10.62 23.58 20.07 42.8 20.07s27.62-9.45 42.8-20.07v.16c-15.18 10.62-23.58 20.07-42.8 20.07s-27.62-9.45-42.8-20.07z" style="fill:#41adf1"/><path d="M43.71 101.51c15.18 10.62 23.58 20.07 42.8 20.07s27.62-9.45 42.8-20.07v.16c-15.18 10.62-23.58 20.07-42.8 20.07s-27.62-9.45-42.8-20.07z" style="fill:#40aef1"/><path d="M43.71 101.35c15.18 10.62 23.58 20.07 42.8 20.07s27.62-9.45 42.8-20.07v.16c-15.18 10.62-23.58 20.07-42.8 20.07s-27.62-9.45-42.8-20.07z" style="fill:#3faff1"/><path d="M43.71 101.19c15.18 10.62 23.58 20.07 42.8 20.07s27.62-9.45 42.8-20.07v.16c-15.18 10.62-23.58 20.07-42.8 20.07s-27.62-9.45-42.8-20.07z" class="o`"/><path d="M43.71 101.03c15.18 10.62 23.58 20.07 42.8 20.07s27.62-9.45 42.8-20.07v.16c-15.18 10.62-23.58 20.07-42.8 20.07s-27.62-9.45-42.8-20.07z" style="fill:#3db1f2"/><path d="M43.71 100.87c15.18 10.62 23.58 20.07 42.8 20.07s27.62-9.45 42.8-20.07v.16c-15.18 10.62-23.58 20.07-42.8 20.07s-27.62-9.45-42.8-20.07z" style="fill:#3cb2f2"/><path d="M43.71 100.71c15.18 10.62 23.58 20.07 42.8 20.07s27.62-9.45 42.8-20.07v.16c-15.18 10.62-23.58 20.07-42.8 20.07s-27.62-9.45-42.8-20.07z" style="fill:#3bb3f2"/><path d="M43.71 100.55c15.18 10.62 23.58 20.07 42.8 20.07s27.62-9.45 42.8-20.07v.16c-15.18 10.62-23.58 20.07-42.8 20.07s-27.62-9.45-42.8-20.07z" style="fill:#3bb4f2"/><path d="M43.71 100.39c15.18 10.62 23.58 20.07 42.8 20.07s27.62-9.45 42.8-20.07v.16c-15.18 10.62-23.58 20.07-42.8 20.07s-27.62-9.45-42.8-20.07z" style="fill:#3ab5f2"/><path d="M43.71 100.22c15.18 10.62 23.58 20.07 42.8 20.07s27.62-9.45 42.8-20.07v.16c-15.18 10.62-23.58 20.07-42.8 20.07s-27.62-9.45-42.8-20.07z" style="fill:#39b6f2"/><path d="M43.71 100.06c15.18 10.62 23.58 20.07 42.8 20.07s27.62-9.45 42.8-20.07v.16c-15.18 10.62-23.58 20.07-42.8 20.07s-27.62-9.45-42.8-20.07z" style="fill:#38b7f2"/><path d="M43.71 99.9c15.18 10.62 23.58 20.07 42.8 20.07s27.62-9.45 42.8-20.07v.16c-15.18 10.62-23.58 20.07-42.8 20.07s-27.62-9.45-42.8-20.07z" style="fill:#37b8f2"/><path d="M43.71 99.74c15.18 10.62 23.58 20.07 42.8 20.07s27.62-9.45 42.8-20.07v.16c-15.18 10.62-23.58 20.07-42.8 20.07s-27.62-9.45-42.8-20.07z" style="fill:#36b9f3"/><path d="M43.71 99.58c15.18 10.62 23.58 20.07 42.8 20.07s27.62-9.45 42.8-20.07v.16c-15.18 10.62-23.58 20.07-42.8 20.07s-27.62-9.45-42.8-20.07z" style="fill:#35baf3"/><path d="M43.71 99.42c15.18 10.62 23.58 20.07 42.8 20.07s27.62-9.45 42.8-20.07v.16c-15.18 10.62-23.58 20.07-42.8 20.07s-27.62-9.45-42.8-20.07z" style="fill:#34bbf3"/><path d="M43.71 99.26c15.18 10.62 23.58 20.07 42.8 20.07s27.62-9.45 42.8-20.07v.16c-15.18 10.62-23.58 20.07-42.8 20.07s-27.62-9.45-42.8-20.07z" style="fill:#33bcf3"/><path d="M43.71 99.1c15.18 10.62 23.58 20.07 42.8 20.07s27.62-9.45 42.8-20.07v.16c-15.18 10.62-23.58 20.07-42.8 20.07s-27.62-9.45-42.8-20.07z" style="fill:#32bdf3"/><path d="M43.71 98.94c15.18 10.62 23.58 20.07 42.8 20.07s27.62-9.45 42.8-20.07v.16c-15.18 10.62-23.58 20.07-42.8 20.07s-27.62-9.45-42.8-20.07z" style="fill:#31bef3"/><path d="M43.71 98.78c15.18 10.62 23.58 20.07 42.8 20.07s27.62-9.45 42.8-20.07v.16c-15.18 10.62-23.58 20.07-42.8 20.07s-27.62-9.45-42.8-20.07z" style="fill:#30bff3"/><path d="M43.71 98.62c15.18 10.62 23.58 20.07 42.8 20.07s27.62-9.45 42.8-20.07v.16c-15.18 10.62-23.58 20.07-42.8 20.07s-27.62-9.45-42.8-20.07z" style="fill:#2fc0f3"/><path d="M43.71 98.46c15.18 10.62 23.58 20.07 42.8 20.07s27.62-9.45 42.8-20.07v.16c-15.18 10.62-23.58 20.07-42.8 20.07s-27.62-9.45-42.8-20.07z" style="fill:#2ec1f4"/><path d="M43.71 98.3c15.18 10.62 23.58 20.07 42.8 20.07s27.62-9.45 42.8-20.07v.16c-15.18 10.62-23.58 20.07-42.8 20.07s-27.62-9.45-42.8-20.07z" style="fill:#2dc2f4"/><path d="M43.71 98.14c15.18 10.62 23.58 20.07 42.8 20.07s27.62-9.45 42.8-20.07v.16c-15.18 10.62-23.58 20.07-42.8 20.07s-27.62-9.45-42.8-20.07z" style="fill:#2cc3f4"/><path d="M43.71 97.98c15.18 10.62 23.58 20.07 42.8 20.07s27.62-9.45 42.8-20.07v.16c-15.18 10.62-23.58 20.07-42.8 20.07s-27.62-9.45-42.8-20.07z" style="fill:#2bc4f4"/><path d="M43.71 97.82c15.18 10.62 23.58 20.07 42.8 20.07s27.62-9.45 42.8-20.07v.16c-15.18 10.62-23.58 20.07-42.8 20.07s-27.62-9.45-42.8-20.07z" style="fill:#2ac5f4"/><path d="M43.71 97.71c15.18 10.62 23.58 20.07 42.8 20.07s27.62-9.45 42.8-20.07v.11c-15.18 10.62-23.58 20.07-42.8 20.07s-27.62-9.45-42.8-20.07z" style="fill:#2ac5f4"/><path d="M43.71 97.6c15.18 10.62 23.58 20.07 42.8 20.07s27.62-9.45 42.8-20.07v.11c-15.18 10.62-23.58 20.07-42.8 20.07s-27.62-9.45-42.8-20.07z" style="fill:#2bc5f4"/><path d="M43.71 97.49c15.18 10.62 23.58 20.07 42.8 20.07s27.62-9.45 42.8-20.07v.11c-15.18 10.62-23.58 20.07-42.8 20.07s-27.62-9.45-42.8-20.07z" class="r`"/><path d="M43.71 97.39c15.18 10.62 23.58 20.07 42.8 20.07s27.62-9.45 42.8-20.07v.11c-15.18 10.62-23.58 20.07-42.8 20.07s-27.62-9.45-42.8-20.07z" style="fill:#2dc4f3"/><path d="M43.71 97.28c15.18 10.62 23.58 20.07 42.8 20.07s27.62-9.45 42.8-20.07v.11c-15.18 10.62-23.58 20.07-42.8 20.07s-27.62-9.45-42.8-20.07z" style="fill:#2ec3f3"/><path d="M43.71 97.17c15.18 10.62 23.58 20.07 42.8 20.07s27.62-9.45 42.8-20.07v.11c-15.18 10.62-23.58 20.07-42.8 20.07s-27.62-9.45-42.8-20.07z" style="fill:#2fc3f2"/><path d="M43.71 97.07c15.18 10.62 23.58 20.07 42.8 20.07s27.62-9.45 42.8-20.07v.11c-15.18 10.62-23.58 20.07-42.8 20.07s-27.62-9.45-42.8-20.07z" style="fill:#30c2f2"/><path d="M43.71 96.96c15.18 10.62 23.58 20.07 42.8 20.07s27.62-9.45 42.8-20.07v.11c-15.18 10.62-23.58 20.07-42.8 20.07s-27.62-9.45-42.8-20.07z" style="fill:#31c2f2"/><path d="M43.71 96.85c15.18 10.62 23.58 20.07 42.8 20.07s27.62-9.45 42.8-20.07v.11c-15.18 10.62-23.58 20.07-42.8 20.07s-27.62-9.45-42.8-20.07z" style="fill:#32c1f2"/><path d="M43.71 96.75c15.18 10.62 23.58 20.07 42.8 20.07s27.62-9.45 42.8-20.07v.11c-15.18 10.62-23.58 20.07-42.8 20.07s-27.62-9.45-42.8-20.07z" style="fill:#33c1f1"/><path d="M43.71 96.64c15.18 10.62 23.58 20.07 42.8 20.07s27.62-9.45 42.8-20.07v.11c-15.18 10.62-23.58 20.07-42.8 20.07s-27.62-9.45-42.8-20.07z" style="fill:#34c0f1"/><path d="M43.71 96.53c15.18 10.62 23.58 20.07 42.8 20.07s27.62-9.45 42.8-20.07v.11c-15.18 10.62-23.58 20.07-42.8 20.07s-27.62-9.45-42.8-20.07z" style="fill:#35c0f1"/><path d="M43.71 96.42c15.18 10.62 23.58 20.07 42.8 20.07s27.62-9.45 42.8-20.07v.11c-15.18 10.62-23.58 20.07-42.8 20.07s-27.62-9.45-42.8-20.07z" style="fill:#36bff0"/><path d="M43.71 96.32c15.18 10.62 23.58 20.07 42.8 20.07s27.62-9.45 42.8-20.07v.11c-15.18 10.62-23.58 20.07-42.8 20.07s-27.62-9.45-42.8-20.07z" style="fill:#37bff0"/><path d="M43.71 96.21c15.18 10.62 23.58 20.07 42.8 20.07s27.62-9.45 42.8-20.07v.11c-15.18 10.62-23.58 20.07-42.8 20.07s-27.62-9.45-42.8-20.07z" style="fill:#38bef0"/><path d="M43.71 96.1c15.18 10.62 23.58 20.07 42.8 20.07s27.62-9.45 42.8-20.07v.11c-15.18 10.62-23.58 20.07-42.8 20.07s-27.62-9.45-42.8-20.07z" style="fill:#39beef"/><path d="M43.71 96c15.18 10.62 23.58 20.07 42.8 20.07s27.62-9.45 42.8-20.07v.11c-15.18 10.62-23.58 20.07-42.8 20.07s-27.62-9.45-42.8-20.07z" style="fill:#3abdef"/><path d="M43.71 95.89c15.18 10.62 23.58 20.07 42.8 20.07s27.62-9.45 42.8-20.07V96c-15.18 10.62-23.58 20.07-42.8 20.07S58.89 106.62 43.71 96z" style="fill:#3bbdef"/><path d="M43.71 95.78c15.18 10.62 23.58 20.07 42.8 20.07s27.62-9.45 42.8-20.07v.11c-15.18 10.62-23.58 20.07-42.8 20.07s-27.62-9.45-42.8-20.07z" style="fill:#3cbcee"/><path d="M43.71 95.67c15.18 10.62 23.58 20.07 42.8 20.07s27.62-9.45 42.8-20.07v.11c-15.18 10.62-23.58 20.07-42.8 20.07s-27.62-9.45-42.8-20.07z" style="fill:#3dbcee"/><path d="M43.71 95.57c15.18 10.62 23.58 20.07 42.8 20.07s27.62-9.45 42.8-20.07v.11c-15.18 10.62-23.58 20.07-42.8 20.07s-27.62-9.45-42.8-20.07z" style="fill:#3ebbee"/><path d="M43.71 95.46c15.18 10.62 23.58 20.07 42.8 20.07s27.62-9.45 42.8-20.07v.11c-15.18 10.62-23.58 20.07-42.8 20.07s-27.62-9.45-42.8-20.07z" style="fill:#3fbbed"/><path d="M43.71 95.35c15.18 10.62 23.58 20.07 42.8 20.07s27.62-9.45 42.8-20.07v.11c-15.18 10.62-23.58 20.07-42.8 20.07s-27.62-9.45-42.8-20.07z" style="fill:#40bbed"/><path d="M43.71 95.25c15.18 10.62 23.58 20.07 42.8 20.07s27.62-9.45 42.8-20.07v.11c-15.18 10.62-23.58 20.07-42.8 20.07s-27.62-9.45-42.8-20.07z" style="fill:#41baed"/><path d="M43.71 95.14c15.18 10.62 23.58 20.07 42.8 20.07s27.62-9.45 42.8-20.07v.11c-15.18 10.62-23.58 20.07-42.8 20.07s-27.62-9.45-42.8-20.07z" style="fill:#42baed"/><path d="M43.71 95.03c15.18 10.62 23.58 20.07 42.8 20.07s27.62-9.45 42.8-20.07v.11c-15.18 10.62-23.58 20.07-42.8 20.07s-27.62-9.45-42.8-20.07z" style="fill:#43b9ec"/><path d="M43.71 94.92c15.18 10.62 23.58 20.07 42.8 20.07s27.62-9.45 42.8-20.07v.11c-15.18 10.62-23.58 20.07-42.8 20.07s-27.62-9.45-42.8-20.07z" style="fill:#44b9ec"/><path d="M43.71 94.82c15.18 10.62 23.58 20.07 42.8 20.07s27.62-9.45 42.8-20.07v.11C114.13 105.55 105.73 115 86.51 115s-27.62-9.45-42.8-20.07z" style="fill:#45b8ec"/><path d="M43.71 94.71c15.18 10.62 23.58 20.07 42.8 20.07s27.62-9.45 42.8-20.07v.11c-15.18 10.62-23.58 20.07-42.8 20.07s-27.62-9.45-42.8-20.07z" style="fill:#46b8eb"/><path d="M43.71 94.6c15.18 10.62 23.58 20.07 42.8 20.07s27.62-9.45 42.8-20.07v.11c-15.18 10.62-23.58 20.07-42.8 20.07s-27.62-9.45-42.8-20.07z" style="fill:#47b7eb"/><path d="M43.71 94.5c15.18 10.62 23.58 20.07 42.8 20.07s27.62-9.45 42.8-20.07v.11c-15.18 10.62-23.58 20.07-42.8 20.07s-27.62-9.45-42.8-20.07z" style="fill:#48b7eb"/><path d="M43.71 94.39c15.18 10.62 23.58 20.07 42.8 20.07s27.62-9.45 42.8-20.07v.11c-15.18 10.62-23.58 20.07-42.8 20.07s-27.62-9.45-42.8-20.07z" style="fill:#49b6ea"/><path d="M43.71 94.28c15.18 10.62 23.58 20.07 42.8 20.07s27.62-9.45 42.8-20.07v.11c-15.18 10.62-23.58 20.07-42.8 20.07s-27.62-9.45-42.8-20.07z" class="s`"/><path d="M43.71 94.18c15.18 10.62 23.58 20.07 42.8 20.07s27.62-9.45 42.8-20.07v.11c-15.18 10.62-23.58 20.07-42.8 20.07s-27.62-9.45-42.8-20.07z" style="fill:#4bb5ea"/><path d="M43.71 94.07c15.18 10.62 23.58 20.07 42.8 20.07s27.62-9.45 42.8-20.07v.11c-15.18 10.62-23.58 20.07-42.8 20.07s-27.62-9.45-42.8-20.07z" style="fill:#4cb5e9"/><path d="M43.71 93.96c15.18 10.62 23.58 20.07 42.8 20.07s27.62-9.45 42.8-20.07v.11c-15.18 10.62-23.58 20.07-42.8 20.07s-27.62-9.45-42.8-20.07z" style="fill:#4db4e9"/><path d="M43.71 93.85c15.18 10.62 23.58 20.07 42.8 20.07s27.62-9.45 42.8-20.07v.11c-15.18 10.62-23.58 20.07-42.8 20.07s-27.62-9.45-42.8-20.07z" style="fill:#4eb4e9"/><path d="M43.71 93.75c15.18 10.62 23.58 20.07 42.8 20.07s27.62-9.45 42.8-20.07v.11c-15.18 10.62-23.58 20.07-42.8 20.07s-27.62-9.45-42.8-20.07z" style="fill:#4fb3e8"/><path d="M43.71 93.64c15.18 10.62 23.58 20.07 42.8 20.07s27.62-9.45 42.8-20.07v.11c-15.18 10.62-23.58 20.07-42.8 20.07s-27.62-9.45-42.8-20.07z" style="fill:#50b3e8"/><path d="M43.71 93.53c15.18 10.62 23.58 20.07 42.8 20.07s27.62-9.45 42.8-20.07v.11c-15.18 10.62-23.58 20.07-42.8 20.07s-27.62-9.45-42.8-20.07z" style="fill:#51b2e8"/><path d="M43.71 93.43c15.18 10.62 23.58 20.07 42.8 20.07s27.62-9.45 42.8-20.07v.11c-15.18 10.62-23.58 20.07-42.8 20.07s-27.62-9.45-42.8-20.07z" style="fill:#52b2e8"/><path d="M43.71 93.32c15.18 10.62 23.58 20.07 42.8 20.07s27.62-9.45 42.8-20.07v.11c-15.18 10.62-23.58 20.07-42.8 20.07s-27.62-9.45-42.8-20.07z" style="fill:#53b1e7"/><path d="M43.71 93.21c15.18 10.62 23.58 20.07 42.8 20.07s27.62-9.45 42.8-20.07v.11c-15.18 10.62-23.58 20.07-42.8 20.07s-27.62-9.45-42.8-20.07z" style="fill:#54b1e7"/><path d="M43.71 93.1c15.18 10.62 23.58 20.07 42.8 20.07s27.62-9.45 42.8-20.07v.11c-15.18 10.62-23.58 20.07-42.8 20.07s-27.62-9.45-42.8-20.07z" style="fill:#55b1e7"/><path d="M43.71 93c15.18 10.62 23.58 20.07 42.8 20.07s27.62-9.45 42.8-20.07v.11c-15.18 10.62-23.58 20.07-42.8 20.07s-27.62-9.45-42.8-20.07z" style="fill:#56b0e6"/><path d="M43.71 92.89c15.18 10.62 23.58 20.07 42.8 20.07s27.62-9.45 42.8-20.07V93c-15.18 10.62-23.58 20.07-42.8 20.07S58.89 103.62 43.71 93z" style="fill:#57b0e6"/><path d="M43.71 92.78c15.18 10.62 23.58 20.07 42.8 20.07s27.62-9.45 42.8-20.07v.11c-15.18 10.62-23.58 20.07-42.8 20.07s-27.62-9.45-42.8-20.07z" style="fill:#58afe6"/><path d="M43.71 92.68c15.18 10.62 23.58 20.07 42.8 20.07s27.62-9.45 42.8-20.07v.11c-15.18 10.62-23.58 20.07-42.8 20.07s-27.62-9.45-42.8-20.07z" style="fill:#59afe5"/><path d="M43.71 92.57c15.18 10.62 23.58 20.07 42.8 20.07s27.62-9.45 42.8-20.07v.11c-15.18 10.62-23.58 20.07-42.8 20.07s-27.62-9.45-42.8-20.07z" style="fill:#5aaee5"/><path d="M43.71 92.46c15.18 10.62 23.58 20.07 42.8 20.07s27.62-9.45 42.8-20.07v.11c-15.18 10.62-23.58 20.07-42.8 20.07s-27.62-9.45-42.8-20.07z" style="fill:#5baee5"/><path d="M43.71 92.36c15.18 10.62 23.58 20.07 42.8 20.07s27.62-9.45 42.8-20.07v.11c-15.18 10.62-23.58 20.07-42.8 20.07s-27.62-9.45-42.8-20.07z" style="fill:#5cade4"/><path d="M43.71 92.25c15.18 10.62 23.58 20.07 42.8 20.07s27.62-9.45 42.8-20.07v.11c-15.18 10.62-23.58 20.07-42.8 20.07s-27.62-9.45-42.8-20.07z" style="fill:#5dade4"/><path d="M43.71 92.14c15.18 10.62 23.58 20.07 42.8 20.07s27.62-9.45 42.8-20.07v.11c-15.18 10.62-23.58 20.07-42.8 20.07s-27.62-9.45-42.8-20.07z" style="fill:#5eace4"/><path d="M43.71 92.03c15.18 10.62 23.58 20.07 42.8 20.07s27.62-9.45 42.8-20.07v.11c-15.18 10.62-23.58 20.07-42.8 20.07s-27.62-9.45-42.8-20.07z" style="fill:#5face4"/><path d="M43.71 91.93C58.89 102.55 67.29 112 86.51 112s27.62-9.45 42.8-20.07v.11c-15.18 10.62-23.58 20.07-42.8 20.07s-27.62-9.45-42.8-20.07z" style="fill:#60abe3"/><path d="M43.71 91.82c15.18 10.62 23.58 20.07 42.8 20.07s27.62-9.45 42.8-20.07v.11C114.13 102.55 105.73 112 86.51 112s-27.62-9.45-42.8-20.07z" style="fill:#61abe3"/><path d="M43.71 91.71c15.18 10.62 23.58 20.07 42.8 20.07s27.62-9.45 42.8-20.07v.11c-15.18 10.62-23.58 20.07-42.8 20.07s-27.62-9.45-42.8-20.07z" style="fill:#62aae3"/><path d="M43.71 91.61c15.18 10.62 23.58 20.07 42.8 20.07s27.62-9.45 42.8-20.07v.11c-15.18 10.62-23.58 20.07-42.8 20.07s-27.62-9.45-42.8-20.07z" style="fill:#63aae2"/><path d="M43.71 91.5c15.18 10.62 23.58 20.07 42.8 20.07s27.62-9.45 42.8-20.07v.11c-15.18 10.62-23.58 20.07-42.8 20.07s-27.62-9.45-42.8-20.07z" style="fill:#64a9e2"/><path d="M43.71 91.39c15.18 10.62 23.58 20.07 42.8 20.07s27.62-9.45 42.8-20.07v.11c-15.18 10.62-23.58 20.07-42.8 20.07s-27.62-9.45-42.8-20.07z" style="fill:#65a9e2"/><path d="M43.71 91.28c15.18 10.62 23.58 20.07 42.8 20.07s27.62-9.45 42.8-20.07v.11c-15.18 10.62-23.58 20.07-42.8 20.07s-27.62-9.45-42.8-20.07z" style="fill:#66a8e1"/><path d="M43.71 91.18c15.18 10.62 23.58 20.07 42.8 20.07s27.62-9.45 42.8-20.07v.11c-15.18 10.62-23.58 20.07-42.8 20.07s-27.62-9.45-42.8-20.07z" style="fill:#67a8e1"/><path d="M43.71 91.07c15.18 10.62 23.58 20.07 42.8 20.07s27.62-9.45 42.8-20.07v.11c-15.18 10.62-23.58 20.07-42.8 20.07s-27.62-9.45-42.8-20.07z" style="fill:#68a7e1"/><path d="M43.71 90.96c15.18 10.62 23.58 20.07 42.8 20.07s27.62-9.45 42.8-20.07v.11c-15.18 10.62-23.58 20.07-42.8 20.07s-27.62-9.45-42.8-20.07z" style="fill:#69a7e0"/><path d="M43.71 90.86c15.18 10.62 23.58 20.07 42.8 20.07s27.62-9.45 42.8-20.07v.11c-15.18 10.62-23.58 20.07-42.8 20.07s-27.62-9.45-42.8-20.07z" style="fill:#6aa7e0"/><path d="M43.71 90.75c15.18 10.62 23.58 20.07 42.8 20.07s27.62-9.45 42.8-20.07v.11c-15.18 10.62-23.58 20.07-42.8 20.07s-27.62-9.45-42.8-20.07z" style="fill:#6ba6e0"/><path d="M43.71 90.64c15.18 10.62 23.58 20.07 42.8 20.07s27.62-9.45 42.8-20.07v.11c-15.18 10.62-23.58 20.07-42.8 20.07s-27.62-9.45-42.8-20.07z" style="fill:#6ca6df"/><path d="M43.71 90.54c15.18 10.62 23.58 20.07 42.8 20.07s27.62-9.45 42.8-20.07v.11c-15.18 10.62-23.58 20.07-42.8 20.07s-27.62-9.45-42.8-20.07z" style="fill:#6da5df"/><path d="M43.71 90.43c15.18 10.62 23.58 20.07 42.8 20.07s27.62-9.45 42.8-20.07v.11c-15.18 10.62-23.58 20.07-42.8 20.07s-27.62-9.45-42.8-20.07z" style="fill:#6ea5df"/><path d="M43.71 90.32c15.18 10.62 23.58 20.07 42.8 20.07s27.62-9.45 42.8-20.07v.11c-15.18 10.62-23.58 20.07-42.8 20.07s-27.62-9.45-42.8-20.07z" style="fill:#6fa4df"/><path d="M43.71 90.21c15.18 10.62 23.58 20.07 42.8 20.07s27.62-9.45 42.8-20.07v.11c-15.18 10.62-23.58 20.07-42.8 20.07s-27.62-9.45-42.8-20.07z" class="p`"/><path d="M43.71 90.11c15.18 10.62 23.58 20.07 42.8 20.07s27.62-9.45 42.8-20.07v.11c-15.18 10.62-23.58 20.07-42.8 20.07s-27.62-9.45-42.8-20.07z" style="fill:#71a3de"/><path d="M43.71 90c15.18 10.62 23.58 20.07 42.8 20.07s27.62-9.45 42.8-20.07v.11c-15.18 10.62-23.58 20.07-42.8 20.07s-27.62-9.45-42.8-20.07z" style="fill:#72a3de"/><path d="M43.71 89.89c15.18 10.62 23.58 20.07 42.8 20.07s27.62-9.45 42.8-20.07V90c-15.18 10.62-23.58 20.07-42.8 20.07S58.89 100.62 43.71 90z" style="fill:#73a2dd"/><path d="M43.71 89.79c15.18 10.62 23.58 20.07 42.8 20.07s27.62-9.45 42.8-20.07v.11c-15.18 10.62-23.58 20.07-42.8 20.07s-27.62-9.45-42.8-20.07z" style="fill:#74a2dd"/><path d="M43.71 89.68c15.18 10.62 23.58 20.07 42.8 20.07s27.62-9.45 42.8-20.07v.11c-15.18 10.62-23.58 20.07-42.8 20.07s-27.62-9.45-42.8-20.07z" style="fill:#75a1dd"/><path d="M43.71 89.57c15.18 10.62 23.58 20.07 42.8 20.07s27.62-9.45 42.8-20.07v.11c-15.18 10.62-23.58 20.07-42.8 20.07s-27.62-9.45-42.8-20.07z" style="fill:#76a1dc"/><path d="M43.71 89.46c15.18 10.62 23.58 20.07 42.8 20.07s27.62-9.45 42.8-20.07v.11c-15.18 10.62-23.58 20.07-42.8 20.07s-27.62-9.45-42.8-20.07z" style="fill:#77a0dc"/><path d="M43.71 89.36c15.18 10.62 23.58 20.07 42.8 20.07s27.62-9.45 42.8-20.07v.11c-15.18 10.62-23.58 20.07-42.8 20.07s-27.62-9.45-42.8-20.07z" style="fill:#78a0dc"/><path d="M43.71 89.25c15.18 10.62 23.58 20.07 42.8 20.07s27.62-9.45 42.8-20.07v.11c-15.18 10.62-23.58 20.07-42.8 20.07s-27.62-9.45-42.8-20.07z" style="fill:#799fdb"/><path d="M43.71 89.14c15.18 10.62 23.58 20.07 42.8 20.07s27.62-9.45 42.8-20.07v.11c-15.18 10.62-23.58 20.07-42.8 20.07s-27.62-9.45-42.8-20.07z" style="fill:#7a9fdb"/><path d="M43.71 89.04c15.18 10.62 23.58 20.07 42.8 20.07s27.62-9.45 42.8-20.07v.11c-15.18 10.62-23.58 20.07-42.8 20.07s-27.62-9.45-42.8-20.07z" style="fill:#7b9edb"/><path d="M43.71 88.93C58.89 99.55 67.29 109 86.51 109s27.62-9.45 42.8-20.07v.11c-15.18 10.62-23.58 20.07-42.8 20.07s-27.62-9.45-42.8-20.07z" style="fill:#7c9eda"/><path d="M43.71 88.82c15.18 10.62 23.58 20.07 42.8 20.07s27.62-9.45 42.8-20.07v.11C114.13 99.55 105.73 109 86.51 109s-27.62-9.45-42.8-20.07z" style="fill:#7d9dda"/><path d="M43.71 88.71c15.18 10.62 23.58 20.07 42.8 20.07s27.62-9.45 42.8-20.07v.11c-15.18 10.62-23.58 20.07-42.8 20.07s-27.62-9.45-42.8-20.07z" style="fill:#7e9dda"/><path d="M43.71 88.61c15.18 10.62 23.58 20.07 42.8 20.07s27.62-9.45 42.8-20.07v.11c-15.18 10.62-23.58 20.07-42.8 20.07s-27.62-9.45-42.8-20.07z" style="fill:#7f9dda"/><path d="M43.71 88.5c15.18 10.62 23.58 20.07 42.8 20.07s27.62-9.45 42.8-20.07v.11c-15.18 10.62-23.58 20.07-42.8 20.07s-27.62-9.45-42.8-20.07z" style="fill:#809cd9"/><path d="M43.71 88.39c15.18 10.62 23.58 20.07 42.8 20.07s27.62-9.45 42.8-20.07v.11c-15.18 10.62-23.58 20.07-42.8 20.07s-27.62-9.45-42.8-20.07z" style="fill:#819cd9"/><path d="M43.71 88.29c15.18 10.62 23.58 20.07 42.8 20.07s27.62-9.45 42.8-20.07v.11c-15.18 10.62-23.58 20.07-42.8 20.07s-27.62-9.45-42.8-20.07z" style="fill:#829bd9"/><path d="M43.71 88.18c15.18 10.62 23.58 20.07 42.8 20.07s27.62-9.45 42.8-20.07v.11c-15.18 10.62-23.58 20.07-42.8 20.07s-27.62-9.45-42.8-20.07z" style="fill:#839bd8"/><path d="M43.71 88.07c15.18 10.62 23.58 20.07 42.8 20.07s27.62-9.45 42.8-20.07v.11c-15.18 10.62-23.58 20.07-42.8 20.07s-27.62-9.45-42.8-20.07z" style="fill:#849ad8"/><path d="M43.71 87.97c15.18 10.62 23.58 20.07 42.8 20.07s27.62-9.45 42.8-20.07v.11c-15.18 10.62-23.58 20.07-42.8 20.07s-27.62-9.45-42.8-20.07z" style="fill:#859ad8"/><path d="M43.71 87.86c15.18 10.62 23.58 20.07 42.8 20.07s27.62-9.45 42.8-20.07v.11c-15.18 10.62-23.58 20.07-42.8 20.07s-27.62-9.46-42.8-20.07z" style="fill:#8699d7"/><path d="M43.71 87.75c15.18 10.62 23.58 20.07 42.8 20.07s27.62-9.45 42.8-20.07v.11c-15.18 10.62-23.58 20.07-42.8 20.07s-27.62-9.46-42.8-20.07z" style="fill:#8799d7"/><path d="M43.71 87.64c15.18 10.62 23.58 20.07 42.8 20.07s27.62-9.45 42.8-20.07v.11c-15.18 10.62-23.58 20.07-42.8 20.07s-27.62-9.45-42.8-20.07z" style="fill:#8898d7"/><path d="M43.71 87.54c15.18 10.62 23.58 20.07 42.8 20.07s27.62-9.45 42.8-20.07v.11c-15.18 10.62-23.58 20.07-42.8 20.07s-27.62-9.45-42.8-20.07z" style="fill:#8998d6"/><path d="M43.71 87.43c15.18 10.62 23.58 20.07 42.8 20.07s27.62-9.45 42.8-20.07v.11c-15.18 10.62-23.58 20.07-42.8 20.07s-27.62-9.45-42.8-20.07z" style="fill:#8a97d6"/><path d="M43.71 87.32c15.18 10.62 23.58 20.07 42.8 20.07s27.62-9.45 42.8-20.07v.11c-15.18 10.62-23.58 20.07-42.8 20.07s-27.62-9.45-42.8-20.07z" style="fill:#8b97d6"/><path d="M43.71 87.22c15.18 10.62 23.58 20.07 42.8 20.07s27.62-9.45 42.8-20.07v.11c-15.18 10.62-23.58 20.07-42.8 20.07s-27.62-9.45-42.8-20.07z" style="fill:#8c96d5"/><path d="M43.71 87.11c15.18 10.62 23.58 20.07 42.8 20.07s27.62-9.45 42.8-20.07v.11c-15.18 10.62-23.58 20.07-42.8 20.07s-27.62-9.45-42.8-20.07z" style="fill:#8d96d5"/><path d="M43.71 87c15.18 10.62 23.58 20.07 42.8 20.07s27.62-9.45 42.8-20.07v.11c-15.18 10.62-23.58 20.07-42.8 20.07s-27.62-9.45-42.8-20.07z" style="fill:#8e95d5"/><path d="M43.71 86.89c15.18 10.62 23.58 20.07 42.8 20.07s27.62-9.45 42.8-20.07V87c-15.18 10.62-23.58 20.07-42.8 20.07S58.89 97.62 43.71 87z" style="fill:#8f95d5"/><path d="M43.71 86.79c15.18 10.62 23.58 20.07 42.8 20.07s27.62-9.45 42.8-20.07v.11c-15.18 10.62-23.58 20.07-42.8 20.07s-27.62-9.45-42.8-20.07z" style="fill:#9094d4"/><path d="M43.71 86.68c15.18 10.62 23.58 20.07 42.8 20.07s27.62-9.45 42.8-20.07v.11c-15.18 10.62-23.58 20.07-42.8 20.07s-27.62-9.45-42.8-20.07z" style="fill:#9194d4"/><path d="M43.71 86.57c15.18 10.62 23.58 20.07 42.8 20.07s27.62-9.45 42.8-20.07v.11c-15.18 10.62-23.58 20.07-42.8 20.07s-27.62-9.46-42.8-20.07z" style="fill:#9293d4"/><path d="M43.71 86.47c15.18 10.62 23.58 20.07 42.8 20.07s27.62-9.45 42.8-20.07v.11c-15.18 10.62-23.58 20.07-42.8 20.07s-27.62-9.46-42.8-20.07z" style="fill:#9393d3"/><path d="M43.71 86.36c15.18 10.62 23.58 20.07 42.8 20.07s27.62-9.46 42.8-20.07v.11c-15.18 10.62-23.58 20.07-42.8 20.07s-27.62-9.46-42.8-20.07z" style="fill:#9593d3"/><path d="M43.71 86.25c15.18 10.62 23.58 20.07 42.8 20.07s27.62-9.46 42.8-20.07v.11c-15.18 10.62-23.58 20.07-42.8 20.07s-27.62-9.46-42.8-20.07z" style="fill:#9692d3"/><path d="M43.71 86.14c15.18 10.62 23.58 20.07 42.8 20.07s27.62-9.45 42.8-20.07v.11c-15.18 10.62-23.58 20.07-42.8 20.07s-27.62-9.46-42.8-20.07z" style="fill:#9792d2"/><path d="M43.71 86.04c15.18 10.62 23.58 20.07 42.8 20.07s27.62-9.45 42.8-20.07v.11c-15.18 10.62-23.58 20.07-42.8 20.07s-27.62-9.45-42.8-20.07z" style="fill:#9891d2"/><path d="M43.71 85.93C58.89 96.55 67.29 106 86.51 106s27.62-9.45 42.8-20.07v.11c-15.18 10.62-23.58 20.07-42.8 20.07s-27.62-9.45-42.8-20.07z" style="fill:#9991d2"/><path d="M43.71 85.82c15.18 10.62 23.58 20.07 42.8 20.07s27.62-9.45 42.8-20.07v.11C114.13 96.55 105.73 106 86.51 106s-27.62-9.45-42.8-20.07z" style="fill:#9a90d1"/><path d="M43.71 85.72c15.18 10.62 23.58 20.07 42.8 20.07s27.62-9.45 42.8-20.07v.11c-15.18 10.62-23.58 20.07-42.8 20.07s-27.62-9.45-42.8-20.07z" style="fill:#9b90d1"/><path d="M43.71 85.61c15.18 10.62 23.58 20.07 42.8 20.07s27.62-9.45 42.8-20.07v.11c-15.18 10.62-23.58 20.07-42.8 20.07s-27.62-9.45-42.8-20.07z" style="fill:#9c8fd1"/><path d="M43.71 85.5c15.18 10.62 23.58 20.07 42.8 20.07s27.62-9.45 42.8-20.07v.11c-15.18 10.62-23.58 20.07-42.8 20.07s-27.62-9.45-42.8-20.07z" style="fill:#9d8fd1"/><path d="M43.71 85.4c15.18 10.62 23.58 20.07 42.8 20.07s27.62-9.45 42.8-20.07v.11c-15.18 10.62-23.58 20.07-42.8 20.07s-27.62-9.45-42.8-20.07z" class="k`"/><path d="M43.71 85.29c15.18 10.62 23.58 20.07 42.8 20.07s27.62-9.45 42.8-20.07v.11c-15.18 10.62-23.58 20.07-42.8 20.07s-27.62-9.45-42.8-20.07z" style="fill:#9f8ed0"/><path d="M43.71 85.18c15.18 10.62 23.58 20.07 42.8 20.07s27.62-9.46 42.8-20.07v.11c-15.18 10.62-23.58 20.07-42.8 20.07s-27.62-9.46-42.8-20.07z" style="fill:#a08dd0"/><path d="M43.71 85.07c15.18 10.62 23.58 20.07 42.8 20.07s27.62-9.46 42.8-20.07v.11c-15.18 10.62-23.58 20.07-42.8 20.07s-27.62-9.46-42.8-20.07z" style="fill:#a18dcf"/><path d="M43.71 84.97c15.18 10.62 23.58 20.07 42.8 20.07s27.62-9.46 42.8-20.07v.11c-15.18 10.62-23.58 20.07-42.8 20.07s-27.62-9.46-42.8-20.07z" style="fill:#a28ccf"/><path d="M43.71 84.86c15.18 10.62 23.58 20.07 42.8 20.07s27.62-9.46 42.8-20.07v.11c-15.18 10.62-23.58 20.07-42.8 20.07s-27.62-9.46-42.8-20.07z" style="fill:#a38ccf"/><path d="M43.71 84.75c15.18 10.62 23.58 20.07 42.8 20.07s27.62-9.46 42.8-20.07v.11c-15.18 10.62-23.58 20.07-42.8 20.07s-27.62-9.46-42.8-20.07z" style="fill:#a48bce"/><path d="M43.71 84.65c15.18 10.62 23.58 20.07 42.8 20.07s27.62-9.45 42.8-20.07v.11c-15.18 10.62-23.58 20.07-42.8 20.07s-27.62-9.46-42.8-20.07z" style="fill:#a58bce"/><path d="M43.71 84.54c15.18 10.62 23.58 20.07 42.8 20.07s27.62-9.45 42.8-20.07v.11c-15.18 10.62-23.58 20.07-42.8 20.07s-27.62-9.45-42.8-20.07z" style="fill:#a68ace"/><path d="M43.71 84.43c15.18 10.62 23.58 20.07 42.8 20.07s27.62-9.45 42.8-20.07v.11c-15.18 10.62-23.58 20.07-42.8 20.07s-27.62-9.45-42.8-20.07z" style="fill:#a78acd"/><path d="M43.71 84.32c15.18 10.62 23.58 20.07 42.8 20.07s27.62-9.45 42.8-20.07v.11c-15.18 10.62-23.58 20.07-42.8 20.07s-27.62-9.45-42.8-20.07z" style="fill:#a889cd"/><path d="M43.71 84.22c15.18 10.62 23.58 20.07 42.8 20.07s27.62-9.45 42.8-20.07v.11c-15.18 10.62-23.58 20.07-42.8 20.07s-27.62-9.45-42.8-20.07z" style="fill:#a989cd"/><path d="M43.71 84.11c15.18 10.62 23.58 20.07 42.8 20.07s27.62-9.45 42.8-20.07v.11c-15.18 10.62-23.58 20.07-42.8 20.07s-27.62-9.45-42.8-20.07z" style="fill:#a8c"/><path d="M43.71 84c15.18 10.62 23.58 20.07 42.8 20.07s27.62-9.45 42.8-20.07v.11c-15.18 10.62-23.58 20.07-42.8 20.07s-27.62-9.45-42.8-20.07z" style="fill:#ab88cc"/><path d="M43.71 83.9c15.18 10.62 23.58 20.07 42.8 20.07s27.62-9.46 42.8-20.07v.11c-15.18 10.62-23.58 20.07-42.8 20.07s-27.62-9.45-42.8-20.07z" style="fill:#ac88cc"/><path d="M43.71 83.79c15.18 10.62 23.58 20.07 42.8 20.07s27.62-9.46 42.8-20.07v.11c-15.18 10.62-23.58 20.07-42.8 20.07s-27.62-9.46-42.8-20.07z" style="fill:#ad87cc"/><path d="M43.71 83.68c15.18 10.62 23.58 20.07 42.8 20.07s27.62-9.46 42.8-20.07v.11c-15.18 10.62-23.58 20.07-42.8 20.07s-27.62-9.46-42.8-20.07z" style="fill:#ae87cb"/><path d="M43.71 83.58c15.18 10.62 23.58 20.07 42.8 20.07s27.62-9.46 42.8-20.07v.11c-15.18 10.62-23.58 20.07-42.8 20.07s-27.62-9.46-42.8-20.07z" style="fill:#af86cb"/><path d="M43.71 83.47c15.18 10.62 23.58 20.07 42.8 20.07s27.62-9.46 42.8-20.07v.11c-15.18 10.62-23.58 20.07-42.8 20.07s-27.62-9.46-42.8-20.07z" style="fill:#b086cb"/><path d="M43.71 83.36c15.18 10.62 23.58 20.07 42.8 20.07s27.62-9.46 42.8-20.07v.11c-15.18 10.62-23.58 20.07-42.8 20.07s-27.62-9.46-42.8-20.07z" style="fill:#b185ca"/><path d="M43.71 83.25c15.18 10.62 23.58 20.07 42.8 20.07s27.62-9.46 42.8-20.07v.11c-15.18 10.62-23.58 20.07-42.8 20.07s-27.62-9.46-42.8-20.07z" style="fill:#b285ca"/><path d="M43.71 83.15c15.18 10.62 23.58 20.07 42.8 20.07s27.62-9.46 42.8-20.07v.11c-15.18 10.62-23.58 20.07-42.8 20.07s-27.62-9.46-42.8-20.07z" style="fill:#b384ca"/><path d="M43.71 83.04c15.18 10.62 23.58 20.07 42.8 20.07s27.62-9.45 42.8-20.07v.11c-15.18 10.62-23.58 20.07-42.8 20.07s-27.62-9.46-42.8-20.07z" style="fill:#b484c9"/><path d="M43.71 82.93C58.89 93.55 67.29 103 86.51 103s27.62-9.45 42.8-20.07v.11c-15.18 10.62-23.58 20.07-42.8 20.07s-27.62-9.45-42.8-20.07z" style="fill:#b583c9"/><path d="M43.71 82.83c15.18 10.62 23.58 20.07 42.8 20.07s27.62-9.45 42.8-20.07v.11c-15.18 10.62-23.58 20.07-42.8 20.07s-27.62-9.45-42.8-20.07z" style="fill:#b683c9"/><path d="M43.71 82.72c15.18 10.62 23.58 20.07 42.8 20.07s27.62-9.45 42.8-20.07v.11c-15.18 10.62-23.58 20.07-42.8 20.07s-27.62-9.45-42.8-20.07z" style="fill:#b782c8"/><path d="M43.71 82.61c15.18 10.62 23.58 20.07 42.8 20.07s27.62-9.46 42.8-20.07v.11c-15.18 10.62-23.58 20.07-42.8 20.07s-27.62-9.45-42.8-20.07z" style="fill:#b882c8"/><path d="M43.71 82.5c15.18 10.62 23.58 20.07 42.8 20.07s27.62-9.46 42.8-20.07v.11c-15.18 10.62-23.58 20.07-42.8 20.07s-27.62-9.46-42.8-20.07z" style="fill:#b981c8"/><path d="M43.71 82.4c15.18 10.62 23.58 20.07 42.8 20.07s27.62-9.46 42.8-20.07v.11c-15.18 10.62-23.58 20.07-42.8 20.07s-27.62-9.46-42.8-20.07z" class="l`"/><path d="M43.71 82.29c15.18 10.62 23.58 20.07 42.8 20.07s27.62-9.46 42.8-20.07v.11c-15.18 10.62-23.58 20.07-42.8 20.07s-27.62-9.46-42.8-20.07z" style="fill:#bb80c7"/><path d="M43.71 82.18c15.18 10.62 23.58 20.07 42.8 20.07s27.62-9.46 42.8-20.07v.11c-15.18 10.62-23.58 20.07-42.8 20.07s-27.62-9.46-42.8-20.07z" style="fill:#bc80c7"/><path d="M43.71 82.08c15.18 10.62 23.58 20.07 42.8 20.07s27.62-9.46 42.8-20.07v.11c-15.18 10.62-23.58 20.07-42.8 20.07s-27.62-9.46-42.8-20.07z" style="fill:#bd7fc7"/><path d="M43.71 81.97c15.18 10.62 23.58 20.07 42.8 20.07s27.62-9.46 42.8-20.07v.11c-15.18 10.62-23.58 20.07-42.8 20.07s-27.62-9.46-42.8-20.07z" style="fill:#be7fc6"/><path d="M43.71 81.86c15.18 10.62 23.58 20.07 42.8 20.07s27.62-9.46 42.8-20.07v.11c-15.18 10.62-23.58 20.07-42.8 20.07s-27.62-9.46-42.8-20.07z" style="fill:#bf7ec6"/><path d="M43.71 81.76c15.18 10.62 23.58 20.07 42.8 20.07s27.62-9.46 42.8-20.07v.11c-15.18 10.62-23.58 20.07-42.8 20.07s-27.62-9.46-42.8-20.07z" style="fill:#c07ec6"/><path d="M43.71 81.65c15.18 10.62 23.58 20.07 42.8 20.07s27.62-9.46 42.8-20.07v.11c-15.18 10.62-23.58 20.07-42.8 20.07s-27.62-9.46-42.8-20.07z" style="fill:#c17ec5"/><path d="M43.71 81.54c15.18 10.62 23.58 20.07 42.8 20.07s27.62-9.46 42.8-20.07v.11c-15.18 10.62-23.58 20.07-42.8 20.07s-27.62-9.46-42.8-20.07z" style="fill:#c27dc5"/><path d="M43.71 81.43c15.18 10.62 23.58 20.07 42.8 20.07s27.62-9.45 42.8-20.07v.11c-15.18 10.62-23.58 20.07-42.8 20.07s-27.62-9.46-42.8-20.07z" style="fill:#c37dc5"/><path d="M43.71 81.33c15.18 10.62 23.58 20.07 42.8 20.07s27.62-9.46 42.8-20.07v.11c-15.18 10.62-23.58 20.07-42.8 20.07s-27.62-9.45-42.8-20.07z" style="fill:#c47cc4"/><path d="M43.71 81.22c15.18 10.62 23.58 20.07 42.8 20.07s27.62-9.46 42.8-20.07v.11c-15.18 10.62-23.58 20.07-42.8 20.07s-27.62-9.45-42.8-20.07z" class="n`"/><path d="M43.71 81.11c15.18 10.62 23.58 20.07 42.8 20.07s27.62-9.46 42.8-20.07v.11c-15.18 10.62-23.58 20.07-42.8 20.07s-27.62-9.46-42.8-20.07z" style="fill:#c67bc4"/><path d="M43.71 81.01c15.18 10.62 23.58 20.07 42.8 20.07s27.62-9.46 42.8-20.07v.11c-15.18 10.62-23.58 20.07-42.8 20.07s-27.62-9.46-42.8-20.07z" style="fill:#c77bc3"/><path d="M43.71 80.9c15.18 10.62 23.58 20.07 42.8 20.07s27.62-9.46 42.8-20.07v.11c-15.18 10.62-23.58 20.07-42.8 20.07s-27.62-9.46-42.8-20.07z" style="fill:#c87ac3"/><path d="M43.71 80.79c15.18 10.62 23.58 20.07 42.8 20.07s27.62-9.46 42.8-20.07v.11c-15.18 10.62-23.58 20.07-42.8 20.07s-27.62-9.46-42.8-20.07z" style="fill:#c97ac3"/><path d="M43.71 80.68c15.18 10.62 23.58 20.07 42.8 20.07s27.62-9.46 42.8-20.07v.11c-15.18 10.62-23.58 20.07-42.8 20.07s-27.62-9.46-42.8-20.07z" style="fill:#ca79c3"/><path d="M43.71 80.58c15.18 10.62 23.58 20.07 42.8 20.07s27.62-9.46 42.8-20.07v.11c-15.18 10.62-23.58 20.07-42.8 20.07s-27.62-9.46-42.8-20.07z" style="fill:#cb79c2"/><path d="M43.71 80.47c15.18 10.62 23.58 20.07 42.8 20.07s27.62-9.46 42.8-20.07v.11c-15.18 10.62-23.58 20.07-42.8 20.07s-27.62-9.46-42.8-20.07z" style="fill:#cc78c2"/><path d="M43.71 80.36c15.18 10.62 23.58 20.07 42.8 20.07s27.62-9.46 42.8-20.07v.11c-15.18 10.62-23.58 20.07-42.8 20.07s-27.62-9.46-42.8-20.07z" style="fill:#cd78c2"/><path d="M43.71 80.26c15.18 10.62 23.58 20.07 42.8 20.07s27.62-9.46 42.8-20.07v.11c-15.18 10.62-23.58 20.07-42.8 20.07s-27.62-9.46-42.8-20.07z" style="fill:#ce77c1"/><path d="M43.71 80.15c15.18 10.62 23.58 20.07 42.8 20.07s27.62-9.46 42.8-20.07v.11c-15.18 10.62-23.58 20.07-42.8 20.07s-27.62-9.46-42.8-20.07z" style="fill:#cf77c1"/><path d="M43.71 80.04c15.18 10.62 23.58 20.07 42.8 20.07s27.62-9.46 42.8-20.07v.11c-15.18 10.62-23.58 20.07-42.8 20.07s-27.62-9.46-42.8-20.07z" style="fill:#d076c1"/><path d="M43.71 79.94c15.18 10.62 23.58 20.07 42.8 20.07s27.62-9.46 42.8-20.07v.11c-15.18 10.62-23.58 20.07-42.8 20.07s-27.62-9.46-42.8-20.07z" style="fill:#d176c0"/><path d="M43.71 79.83C58.89 90.45 67.29 99.9 86.51 99.9s27.62-9.46 42.8-20.07v.11c-15.18 10.62-23.58 20.07-42.8 20.07s-27.62-9.46-42.8-20.07z" style="fill:#d275c0"/><path d="M43.71 79.72c15.18 10.62 23.58 20.07 42.8 20.07s27.62-9.46 42.8-20.07v.11c-15.18 10.62-23.58 20.07-42.8 20.07s-27.62-9.45-42.8-20.07z" style="fill:#d375c0"/><path d="M43.71 79.61c15.18 10.62 23.58 20.07 42.8 20.07s27.62-9.46 42.8-20.07v.11c-15.18 10.62-23.58 20.07-42.8 20.07s-27.62-9.46-42.8-20.07z" style="fill:#d474bf"/><path d="M43.71 79.51c15.18 10.62 23.58 20.07 42.8 20.07s27.62-9.46 42.8-20.07v.11c-15.18 10.62-23.58 20.07-42.8 20.07s-27.62-9.46-42.8-20.07z" style="fill:#d574bf"/><path d="M43.71 79.4c15.18 10.62 23.58 20.07 42.8 20.07s27.62-9.46 42.8-20.07v.11c-15.18 10.62-23.58 20.07-42.8 20.07s-27.62-9.46-42.8-20.07z" style="fill:#d674bf"/><path d="M43.71 79.29c15.18 10.62 23.58 20.07 42.8 20.07s27.62-9.46 42.8-20.07v.11c-15.18 10.62-23.58 20.07-42.8 20.07s-27.62-9.46-42.8-20.07z" style="fill:#d773be"/><path d="M43.71 79.19c15.18 10.62 23.58 20.07 42.8 20.07s27.62-9.46 42.8-20.07v.11c-15.18 10.62-23.58 20.07-42.8 20.07s-27.62-9.46-42.8-20.07z" style="fill:#d873be"/><path d="M43.71 79.08c15.18 10.62 23.58 20.07 42.8 20.07s27.62-9.46 42.8-20.07v.11c-15.18 10.62-23.58 20.07-42.8 20.07s-27.62-9.46-42.8-20.07z" style="fill:#d972be"/><path d="M43.71 78.97c15.18 10.62 23.58 20.07 42.8 20.07s27.62-9.46 42.8-20.07v.11c-15.18 10.62-23.58 20.07-42.8 20.07s-27.62-9.46-42.8-20.07z" style="fill:#da72be"/><path d="M43.71 78.86c15.18 10.62 23.58 20.07 42.8 20.07s27.62-9.46 42.8-20.07v.11c-15.18 10.62-23.58 20.07-42.8 20.07s-27.62-9.46-42.8-20.07z" style="fill:#db71bd"/><path d="M43.71 78.76c15.18 10.62 23.58 20.07 42.8 20.07s27.62-9.46 42.8-20.07v.11c-15.18 10.62-23.58 20.07-42.8 20.07s-27.62-9.46-42.8-20.07z" style="fill:#dc71bd"/><path d="M43.71 78.65c15.18 10.62 23.58 20.07 42.8 20.07s27.62-9.46 42.8-20.07v.11c-15.18 10.62-23.58 20.07-42.8 20.07s-27.62-9.46-42.8-20.07z" style="fill:#dd70bd"/><path d="M43.71 78.54c15.18 10.62 23.58 20.07 42.8 20.07s27.62-9.46 42.8-20.07v.11c-15.18 10.62-23.58 20.07-42.8 20.07s-27.62-9.46-42.8-20.07z" style="fill:#de70bc"/><path d="M43.71 78.44c15.18 10.62 23.58 20.07 42.8 20.07s27.62-9.46 42.8-20.07v.11c-15.18 10.62-23.58 20.07-42.8 20.07s-27.62-9.46-42.8-20.07z" style="fill:#df6fbc"/><path d="M43.71 78.33C58.89 88.95 67.29 98.4 86.51 98.4s27.62-9.46 42.8-20.07v.11c-15.18 10.62-23.58 20.07-42.8 20.07s-27.62-9.46-42.8-20.07z" style="fill:#e06fbc"/><path d="M43.71 78.22c15.18 10.62 23.58 20.07 42.8 20.07s27.62-9.46 42.8-20.07v.11c-15.18 10.62-23.58 20.07-42.8 20.07s-27.62-9.46-42.8-20.07z" style="fill:#e16ebb"/><path d="M43.71 78.11c15.18 10.62 23.58 20.07 42.8 20.07s27.62-9.46 42.8-20.07v.11c-15.18 10.62-23.58 20.07-42.8 20.07s-27.62-9.46-42.8-20.07z" style="fill:#e26ebb"/><path d="M43.71 78.01c15.18 10.62 23.58 20.07 42.8 20.07s27.62-9.46 42.8-20.07v.11c-15.18 10.62-23.58 20.07-42.8 20.07s-27.62-9.46-42.8-20.07z" style="fill:#e36dbb"/><path d="M43.71 77.9c15.18 10.62 23.58 20.07 42.8 20.07s27.62-9.46 42.8-20.07v.11c-15.18 10.62-23.58 20.07-42.8 20.07s-27.62-9.46-42.8-20.07z" style="fill:#e46dba"/><path d="M43.71 77.79c15.18 10.62 23.58 20.07 42.8 20.07s27.62-9.46 42.8-20.07v.11c-15.18 10.62-23.58 20.07-42.8 20.07s-27.62-9.46-42.8-20.07z" style="fill:#e56cba"/><path d="M43.71 77.69c15.18 10.62 23.58 20.07 42.8 20.07s27.62-9.46 42.8-20.07v.11c-15.18 10.62-23.58 20.07-42.8 20.07s-27.62-9.46-42.8-20.07z" style="fill:#e66cba"/><path d="M43.71 77.58c15.18 10.62 23.58 20.07 42.8 20.07s27.62-9.46 42.8-20.07v.11c-15.18 10.62-23.58 20.07-42.8 20.07s-27.62-9.46-42.8-20.07z" style="fill:#e76bb9"/><path d="M43.71 77.47c15.18 10.62 23.58 20.07 42.8 20.07s27.62-9.46 42.8-20.07v.11c-15.18 10.62-23.58 20.07-42.8 20.07s-27.62-9.46-42.8-20.07z" style="fill:#e86bb9"/><path d="M43.71 77.37c15.18 10.62 23.58 20.07 42.8 20.07s27.62-9.46 42.8-20.07v.11c-15.18 10.62-23.58 20.07-42.8 20.07s-27.62-9.46-42.8-20.07z" style="fill:#e96ab9"/><path d="M43.71 77.26c15.18 10.62 23.58 20.07 42.8 20.07s27.62-9.46 42.8-20.07v.11c-15.18 10.62-23.58 20.07-42.8 20.07s-27.62-9.46-42.8-20.07z" style="fill:#ea6ab9"/><path d="M43.71 77.15c15.18 10.62 23.58 20.07 42.8 20.07s27.62-9.46 42.8-20.07v.11c-15.18 10.62-23.58 20.07-42.8 20.07s-27.62-9.46-42.8-20.07z" style="fill:#eb6ab8"/><path d="M43.71 77.04c15.18 10.62 23.58 20.07 42.8 20.07s27.62-9.46 42.8-20.07v.11c-15.18 10.62-23.58 20.07-42.8 20.07s-27.62-9.46-42.8-20.07z" style="fill:#ec69b8"/><path d="M43.71 76.94c15.18 10.62 23.58 20.07 42.8 20.07s27.62-9.46 42.8-20.07v.11c-15.18 10.62-23.58 20.07-42.8 20.07s-27.62-9.46-42.8-20.07z" style="fill:#ed69b8"/><path d="M43.71 76.83C58.89 87.45 67.29 96.9 86.51 96.9s27.62-9.46 42.8-20.07v.11c-15.18 10.62-23.58 20.07-42.8 20.07s-27.63-9.46-42.8-20.07z" style="fill:#ee68b7"/><path d="M43.71 76.72c15.18 10.62 23.58 20.07 42.8 20.07s27.62-9.46 42.8-20.07v.11c-15.18 10.62-23.58 20.07-42.8 20.07s-27.63-9.46-42.8-20.07z" style="fill:#ef68b7"/><path d="M43.71 76.62c15.18 10.62 23.58 20.07 42.8 20.07s27.62-9.46 42.8-20.07v.11c-15.18 10.62-23.58 20.07-42.8 20.07s-27.63-9.46-42.8-20.07z" style="fill:#f067b7"/><path d="M43.71 76.51c15.18 10.62 23.58 20.07 42.8 20.07s27.62-9.46 42.8-20.07v.11c-15.18 10.62-23.58 20.07-42.8 20.07s-27.63-9.46-42.8-20.07z" style="fill:#f167b6"/><path d="M43.71 76.4c15.18 10.62 23.58 20.07 42.8 20.07s27.62-9.46 42.8-20.07v.11c-15.18 10.62-23.58 20.07-42.8 20.07s-27.63-9.46-42.8-20.07z" style="fill:#f266b6"/><path d="M43.71 76.29c15.18 10.62 23.58 20.07 42.8 20.07s27.62-9.46 42.8-20.07v.11c-15.18 10.62-23.58 20.07-42.8 20.07s-27.63-9.46-42.8-20.07z" style="fill:#f366b6"/><path d="M43.71 76.19c15.18 10.62 23.58 20.07 42.8 20.07s27.62-9.46 42.8-20.07v.11c-15.18 10.62-23.58 20.07-42.8 20.07s-27.63-9.46-42.8-20.07z" style="fill:#f465b5"/><path d="M43.71 76.08c15.18 10.62 23.58 20.07 42.8 20.07s27.62-9.46 42.8-20.07v.11c-15.18 10.62-23.58 20.07-42.8 20.07s-27.63-9.46-42.8-20.07z" style="fill:#f565b5"/><path d="M43.71 75.97c15.18 10.62 23.58 20.07 42.8 20.07s27.62-9.46 42.8-20.07v.11c-15.18 10.62-23.58 20.07-42.8 20.07s-27.63-9.46-42.8-20.07z" style="fill:#f664b5"/><path d="M43.71 75.87c15.18 10.62 23.58 20.07 42.8 20.07s27.62-9.46 42.8-20.07v.11c-15.18 10.62-23.58 20.07-42.8 20.07s-27.63-9.46-42.8-20.07z" style="fill:#f764b4"/><path d="M43.71 75.76c15.18 10.62 23.58 20.07 42.8 20.07s27.62-9.46 42.8-20.07v.11c-15.18 10.62-23.58 20.07-42.8 20.07s-27.63-9.46-42.8-20.07z" style="fill:#f863b4"/><path d="M43.71 75.65c15.18 10.62 23.58 20.07 42.8 20.07s27.62-9.46 42.8-20.07v.11c-15.18 10.62-23.58 20.07-42.8 20.07s-27.63-9.46-42.8-20.07z" style="fill:#f963b4"/><path d="M43.71 75.54c15.18 10.62 23.58 20.07 42.8 20.07s27.62-9.46 42.8-20.07v.11c-15.18 10.62-23.58 20.07-42.8 20.07s-27.63-9.46-42.8-20.07z" style="fill:#fa62b4"/><path d="M43.71 75.44c15.18 10.62 23.58 20.07 42.8 20.07s27.62-9.46 42.8-20.07v.11c-15.18 10.62-23.58 20.07-42.8 20.07s-27.63-9.46-42.8-20.07z" style="fill:#fb62b3"/><path d="M43.71 75.33C58.89 85.95 67.29 95.4 86.51 95.4s27.62-9.46 42.8-20.07v.11c-15.18 10.62-23.58 20.07-42.8 20.07s-27.63-9.46-42.8-20.07z" style="fill:#fc61b3"/><path d="M43.71 75.22c15.18 10.62 23.58 20.07 42.8 20.07s27.62-9.46 42.8-20.07v.11c-15.18 10.62-23.58 20.07-42.8 20.07s-27.63-9.46-42.8-20.07z" class="e`"/><path d="M43.71 75.12c15.18 10.62 23.58 20.07 42.8 20.07s27.62-9.46 42.8-20.07v.11c-15.18 10.62-23.58 20.07-42.8 20.07s-27.63-9.46-42.8-20.07z" style="fill:#fe60b2"/><path d="M43.71 75.01c15.18 10.62 23.58 20.07 42.8 20.07s27.62-9.46 42.8-20.07v.11c-15.18 10.62-23.58 20.07-42.8 20.07s-27.63-9.46-42.8-20.07z" style="fill:#ff60b2"/><path d="M43.71 74.78c15.18 10.62 23.58 20.07 42.8 20.07s27.62-9.46 42.8-20.07v.23c-15.18 10.62-23.58 20.07-42.8 20.07s-27.63-9.46-42.8-20.07z" style="fill:#ff60b2"/><path d="M43.71 74.56c15.18 10.62 23.58 20.07 42.8 20.07s27.62-9.46 42.8-20.07v.23c-15.18 10.62-23.58 20.07-42.8 20.07s-27.63-9.46-42.8-20.07z" style="fill:#ff61b1"/><path d="M43.71 74.33C58.89 84.95 67.29 94.4 86.51 94.4s27.62-9.46 42.8-20.07v.23c-15.18 10.62-23.58 20.07-42.8 20.07s-27.63-9.46-42.8-20.07z" style="fill:#ff61b0"/><path d="M43.71 74.11c15.18 10.62 23.58 20.07 42.8 20.07s27.62-9.46 42.8-20.07v.23c-15.18 10.62-23.58 20.07-42.8 20.07s-27.63-9.46-42.8-20.07z" style="fill:#ff62af"/><path d="M43.71 73.88c15.18 10.62 23.58 20.07 42.8 20.07s27.62-9.46 42.8-20.07v.23c-15.18 10.62-23.58 20.07-42.8 20.07s-27.63-9.46-42.8-20.07z" style="fill:#ff63ae"/><path d="M43.71 73.65c15.18 10.62 23.58 20.07 42.8 20.07s27.62-9.46 42.8-20.07v.23c-15.18 10.62-23.58 20.07-42.8 20.07s-27.63-9.46-42.8-20.07z" style="fill:#ff63ad"/><path d="M43.71 73.43C58.89 84.05 67.29 93.5 86.51 93.5s27.62-9.46 42.8-20.07v.23c-15.18 10.62-23.58 20.07-42.8 20.07s-27.63-9.46-42.8-20.07z" style="fill:#ff64ac"/><path d="M43.71 73.2c15.18 10.62 23.58 20.07 42.8 20.07s27.62-9.46 42.8-20.07v.23c-15.18 10.62-23.58 20.07-42.8 20.07s-27.63-9.46-42.8-20.07z" style="fill:#ff64ab"/><path d="M43.71 72.98c15.18 10.62 23.58 20.07 42.8 20.07s27.62-9.46 42.8-20.07v.23c-15.18 10.62-23.58 20.07-42.8 20.07s-27.63-9.46-42.8-20.07z" style="fill:#ff65aa"/><path d="M43.71 72.75c15.18 10.62 23.58 20.07 42.8 20.07s27.62-9.46 42.8-20.07v.23c-15.18 10.62-23.58 20.07-42.8 20.07s-27.63-9.46-42.8-20.07z" class="g`"/><path d="M43.71 72.53C58.89 83.15 67.29 92.6 86.51 92.6s27.62-9.46 42.8-20.07v.23c-15.18 10.62-23.58 20.07-42.8 20.07s-27.63-9.46-42.8-20.07z" style="fill:#ff66a8"/><path d="M43.71 72.3c15.18 10.62 23.58 20.07 42.8 20.07s27.62-9.46 42.8-20.07v.23c-15.18 10.62-23.58 20.07-42.8 20.07s-27.63-9.46-42.8-20.07z" style="fill:#ff67a7"/><path d="M43.71 72.07c15.18 10.62 23.58 20.07 42.8 20.07s27.62-9.46 42.8-20.07v.23c-15.18 10.62-23.58 20.07-42.8 20.07s-27.63-9.46-42.8-20.07z" style="fill:#ff68a6"/><path d="M43.71 71.85c15.18 10.62 23.58 20.07 42.8 20.07s27.62-9.46 42.8-20.07v.23c-15.18 10.62-23.58 20.07-42.8 20.07s-27.63-9.46-42.8-20.07z" style="fill:#ff68a5"/><path d="M43.71 71.62c15.18 10.62 23.58 20.07 42.8 20.07s27.62-9.46 42.8-20.07v.23c-15.18 10.62-23.58 20.07-42.8 20.07s-27.63-9.46-42.8-20.07z" style="fill:#ff69a4"/><path d="M43.71 71.4c15.18 10.62 23.58 20.07 42.8 20.07s27.62-9.46 42.8-20.07v.23c-15.18 10.62-23.58 20.07-42.8 20.07s-27.63-9.46-42.8-20.07z" style="fill:#ff69a3"/><path d="M43.71 71.17c15.18 10.62 23.58 20.07 42.8 20.07s27.62-9.46 42.8-20.07v.23c-15.18 10.62-23.58 20.07-42.8 20.07s-27.63-9.46-42.8-20.07z" style="fill:#ff6aa2"/><path d="M43.71 70.95c15.18 10.62 23.58 20.07 42.8 20.07s27.62-9.46 42.8-20.07v.23c-15.18 10.62-23.58 20.07-42.8 20.07s-27.63-9.46-42.8-20.07z" class="h`"/><path d="M43.71 70.72c15.18 10.62 23.58 20.07 42.8 20.07s27.62-9.46 42.8-20.07v.23c-15.18 10.62-23.58 20.07-42.8 20.07s-27.63-9.46-42.8-20.07z" style="fill:#ff6ba0"/><path d="M43.71 70.49c15.18 10.62 23.58 20.07 42.8 20.07s27.62-9.46 42.8-20.07v.23c-15.18 10.62-23.58 20.07-42.8 20.07s-27.63-9.46-42.8-20.07z" style="fill:#ff6c9f"/><path d="M43.71 70.27c15.18 10.62 23.58 20.07 42.8 20.07s27.62-9.46 42.8-20.07v.23c-15.18 10.62-23.58 20.07-42.8 20.07s-27.63-9.46-42.8-20.07z" style="fill:#ff6d9e"/><path d="M43.71 70.04c15.18 10.62 23.58 20.07 42.8 20.07s27.62-9.46 42.8-20.07v.23c-15.18 10.62-23.58 20.07-42.8 20.07s-27.63-9.46-42.8-20.07z" style="fill:#ff6d9d"/><path d="M43.71 69.82c15.18 10.62 23.58 20.07 42.8 20.07s27.62-9.46 42.8-20.07v.23c-15.18 10.62-23.58 20.07-42.8 20.07s-27.63-9.46-42.8-20.07z" style="fill:#ff6e9c"/><path d="M43.71 69.59c15.18 10.62 23.58 20.07 42.8 20.07s27.62-9.46 42.8-20.07v.23c-15.18 10.62-23.58 20.07-42.8 20.07s-27.63-9.46-42.8-20.07z" style="fill:#ff6e9b"/><path d="M43.71 69.36c15.18 10.62 23.58 20.07 42.8 20.07s27.62-9.46 42.8-20.07v.23c-15.18 10.62-23.58 20.07-42.8 20.07s-27.63-9.46-42.8-20.07z" style="fill:#ff6f9a"/><path d="M43.71 69.14c15.18 10.62 23.58 20.07 42.8 20.07s27.62-9.46 42.8-20.07v.23c-15.18 10.62-23.58 20.07-42.8 20.07s-27.63-9.46-42.8-20.07z" style="fill:#ff7099"/><path d="M43.71 68.91c15.18 10.62 23.58 20.07 42.8 20.07s27.62-9.46 42.8-20.07v.23c-15.18 10.62-23.58 20.07-42.8 20.07s-27.63-9.46-42.8-20.07z" style="fill:#ff7098"/><path d="M43.71 68.69c15.18 10.62 23.58 20.07 42.8 20.07s27.62-9.46 42.8-20.07v.23c-15.18 10.62-23.58 20.07-42.8 20.07s-27.63-9.46-42.8-20.07z" style="fill:#ff7197"/><path d="M43.71 68.46c15.18 10.62 23.58 20.07 42.8 20.07s27.62-9.46 42.8-20.07v.23c-15.18 10.62-23.58 20.07-42.8 20.07s-27.63-9.46-42.8-20.07z" style="fill:#ff7296"/><path d="M43.71 68.24c15.18 10.62 23.58 20.07 42.8 20.07s27.62-9.46 42.8-20.07v.23c-15.18 10.62-23.58 20.07-42.8 20.07s-27.63-9.46-42.8-20.07z" style="fill:#ff7295"/><path d="M43.71 68.01c15.18 10.62 23.58 20.07 42.8 20.07s27.62-9.46 42.8-20.07v.23c-15.18 10.62-23.58 20.07-42.8 20.07s-27.63-9.46-42.8-20.07z" style="fill:#ff7394"/><path d="M43.71 67.78c15.18 10.62 23.58 20.07 42.8 20.07s27.62-9.46 42.8-20.07v.23c-15.18 10.62-23.58 20.07-42.8 20.07s-27.63-9.46-42.8-20.07z" style="fill:#ff7493"/><path d="M43.71 67.56c15.18 10.62 23.58 20.07 42.8 20.07s27.62-9.46 42.8-20.07v.23c-15.18 10.62-23.58 20.07-42.8 20.07s-27.63-9.46-42.8-20.07z" style="fill:#ff7492"/><path d="M43.71 67.33C58.89 77.95 67.29 87.4 86.51 87.4s27.62-9.46 42.8-20.07v.23c-15.18 10.62-23.58 20.07-42.8 20.07s-27.63-9.46-42.8-20.07z" style="fill:#ff7591"/><path d="M43.71 67.11c15.18 10.62 23.58 20.07 42.8 20.07s27.62-9.46 42.8-20.07v.23c-15.18 10.62-23.58 20.07-42.8 20.07s-27.63-9.46-42.8-20.07z" style="fill:#ff7590"/><path d="M43.71 66.88c15.18 10.62 23.58 20.07 42.8 20.07s27.62-9.46 42.8-20.07v.23c-15.18 10.62-23.58 20.07-42.8 20.07s-27.63-9.46-42.8-20.07z" style="fill:#ff768f"/><path d="M43.71 66.65c15.18 10.62 23.58 20.07 42.8 20.07s27.62-9.46 42.8-20.07v.23c-15.18 10.62-23.58 20.07-42.8 20.07s-27.63-9.46-42.8-20.07z" style="fill:#ff778e"/><path d="M43.71 66.43C58.89 77.05 67.29 86.5 86.51 86.5s27.62-9.46 42.8-20.07v.23c-15.18 10.62-23.58 20.07-42.8 20.07s-27.63-9.46-42.8-20.07z" style="fill:#ff778d"/><path d="M43.71 66.2c15.18 10.62 23.58 20.07 42.8 20.07s27.62-9.46 42.8-20.07v.23c-15.18 10.62-23.58 20.07-42.8 20.07s-27.63-9.46-42.8-20.07z" style="fill:#ff788c"/><path d="M43.71 65.98c15.18 10.62 23.58 20.07 42.8 20.07s27.62-9.46 42.8-20.07v.23c-15.18 10.62-23.58 20.07-42.8 20.07s-27.63-9.46-42.8-20.07z" style="fill:#ff798b"/><path d="M43.71 65.75c15.18 10.62 23.58 20.07 42.8 20.07s27.62-9.46 42.8-20.07v.23c-15.18 10.62-23.58 20.07-42.8 20.07s-27.63-9.46-42.8-20.07z" style="fill:#ff798a"/><path d="M43.71 65.53C58.89 76.15 67.29 85.6 86.51 85.6s27.62-9.46 42.8-20.07v.23c-15.18 10.62-23.58 20.07-42.8 20.07s-27.63-9.46-42.8-20.07z" style="fill:#ff7a89"/><path d="M43.71 65.3c15.18 10.62 23.58 20.07 42.8 20.07s27.62-9.46 42.8-20.07v.23c-15.18 10.62-23.58 20.07-42.8 20.07s-27.63-9.46-42.8-20.07z" style="fill:#ff7a88"/><path d="M43.71 65.07c15.18 10.62 23.58 20.07 42.8 20.07s27.62-9.46 42.8-20.07v.23c-15.18 10.62-23.58 20.07-42.8 20.07s-27.63-9.46-42.8-20.07z" style="fill:#ff7b87"/><path d="M43.71 64.85c15.18 10.62 23.58 20.07 42.8 20.07s27.62-9.46 42.8-20.07v.23c-15.18 10.62-23.58 20.07-42.8 20.07s-27.63-9.46-42.8-20.07z" style="fill:#ff7c86"/><path d="M43.71 64.62c15.18 10.62 23.58 20.07 42.8 20.07s27.62-9.46 42.8-20.07v.23c-15.18 10.62-23.58 20.07-42.8 20.07s-27.63-9.46-42.8-20.07z" style="fill:#ff7c85"/><path d="M43.71 64.4c15.18 10.62 23.58 20.07 42.8 20.07s27.62-9.46 42.8-20.07v.23c-15.18 10.62-23.58 20.07-42.8 20.07s-27.63-9.46-42.8-20.07z" style="fill:#ff7d84"/><path d="M43.71 64.17c15.18 10.62 23.58 20.07 42.8 20.07s27.62-9.46 42.8-20.07v.23c-15.18 10.62-23.58 20.07-42.8 20.07s-27.63-9.46-42.8-20.07z" style="fill:#ff7e83"/><path d="M43.71 63.95c15.18 10.62 23.58 20.07 42.8 20.07s27.62-9.46 42.8-20.07v.23c-15.18 10.62-23.58 20.07-42.8 20.07s-27.63-9.46-42.8-20.07z" style="fill:#ff7e82"/><path d="M43.71 63.72c15.18 10.62 23.58 20.07 42.8 20.07s27.62-9.46 42.8-20.07v.23c-15.18 10.62-23.58 20.07-42.8 20.07s-27.63-9.46-42.8-20.07z" style="fill:#ff7f81"/><path d="M43.71 63.49c15.18 10.62 23.58 20.07 42.8 20.07s27.62-9.46 42.8-20.07v.23c-15.18 10.62-23.58 20.07-42.8 20.07s-27.63-9.46-42.8-20.07z" style="fill:#ff8080"/><path d="M43.71 63.27c15.18 10.62 23.58 20.07 42.8 20.07s27.62-9.46 42.8-20.07v.23c-15.18 10.62-23.58 20.07-42.8 20.07s-27.63-9.46-42.8-20.07z" style="fill:#ff807e"/><path d="M43.71 63.04c15.18 10.62 23.58 20.07 42.8 20.07s27.62-9.46 42.8-20.07v.23c-15.18 10.62-23.58 20.07-42.8 20.07s-27.63-9.46-42.8-20.07z" style="fill:#ff817d"/><path d="M43.71 62.82c15.18 10.62 23.58 20.07 42.8 20.07s27.62-9.46 42.8-20.07v.23c-15.18 10.62-23.58 20.07-42.8 20.07s-27.63-9.46-42.8-20.07z" style="fill:#ff817c"/><path d="M43.71 62.59c15.18 10.62 23.58 20.07 42.8 20.07s27.62-9.46 42.8-20.07v.23c-15.18 10.62-23.58 20.07-42.8 20.07s-27.63-9.46-42.8-20.07z" style="fill:#ff827b"/><path d="M43.71 62.36c15.18 10.62 23.58 20.07 42.8 20.07s27.62-9.46 42.8-20.07v.23c-15.18 10.62-23.58 20.07-42.8 20.07s-27.63-9.46-42.8-20.07z" style="fill:#ff837a"/><path d="M43.71 62.14c15.18 10.62 23.58 20.07 42.8 20.07s27.62-9.46 42.8-20.07v.23c-15.18 10.62-23.58 20.07-42.8 20.07s-27.63-9.46-42.8-20.07z" style="fill:#ff8379"/><path d="M43.71 61.91c15.18 10.62 23.58 20.07 42.8 20.07s27.62-9.46 42.8-20.07v.23c-15.18 10.62-23.58 20.07-42.8 20.07s-27.63-9.46-42.8-20.07z" style="fill:#ff8478"/><path d="M43.71 61.69c15.18 10.62 23.58 20.07 42.8 20.07s27.62-9.46 42.8-20.07v.23c-15.18 10.62-23.58 20.07-42.8 20.07s-27.63-9.46-42.8-20.07z" style="fill:#ff8577"/><path d="M43.71 61.46c15.18 10.62 23.58 20.07 42.8 20.07s27.62-9.46 42.8-20.07v.23c-15.18 10.62-23.58 20.07-42.8 20.07s-27.63-9.46-42.8-20.07z" style="fill:#ff8576"/><path d="M43.71 61.24c15.18 10.62 23.58 20.07 42.8 20.07s27.62-9.46 42.8-20.07v.23c-15.18 10.62-23.58 20.07-42.8 20.07s-27.63-9.46-42.8-20.07z" style="fill:#ff8675"/><path d="M43.71 61.01c15.18 10.62 23.58 20.07 42.8 20.07s27.62-9.46 42.8-20.07v.23c-15.18 10.62-23.58 20.07-42.8 20.07s-27.63-9.46-42.8-20.07z" style="fill:#ff8674"/><path d="M43.71 60.78c15.18 10.62 23.58 20.07 42.8 20.07s27.62-9.46 42.8-20.07v.23c-15.18 10.62-23.58 20.07-42.8 20.07s-27.63-9.46-42.8-20.07z" style="fill:#ff8773"/><path d="M43.71 60.56c15.18 10.62 23.58 20.07 42.8 20.07s27.62-9.46 42.8-20.07v.23c-15.18 10.62-23.58 20.07-42.8 20.07s-27.63-9.46-42.8-20.07z" style="fill:#ff8872"/><path d="M43.71 60.33C58.89 70.95 67.29 80.4 86.51 80.4s27.62-9.46 42.8-20.07v.23c-15.18 10.62-23.58 20.07-42.8 20.07s-27.63-9.46-42.8-20.07z" style="fill:#ff8871"/><path d="M43.71 60.11c15.18 10.62 23.58 20.07 42.8 20.07s27.62-9.46 42.8-20.07v.23c-15.18 10.62-23.58 20.07-42.8 20.07s-27.63-9.46-42.8-20.07z" style="fill:#ff8970"/><path d="M43.71 59.88c15.18 10.62 23.58 20.07 42.8 20.07s27.62-9.46 42.8-20.07v.23c-15.18 10.62-23.58 20.07-42.8 20.07s-27.63-9.46-42.8-20.07z" style="fill:#ff8a6f"/><path d="M43.71 59.66c15.18 10.62 23.58 20.07 42.8 20.07s27.62-9.46 42.8-20.07v.23c-15.18 10.62-23.58 20.07-42.8 20.07s-27.63-9.46-42.8-20.07z" class="f`"/><path d="M43.71 59.43C58.89 70.05 67.29 79.5 86.51 79.5s27.62-9.46 42.8-20.07v.23c-15.18 10.62-23.58 20.07-42.8 20.07s-27.63-9.46-42.8-20.07z" style="fill:#ff8b6d"/><path d="M43.71 59.2c15.18 10.62 23.58 20.07 42.8 20.07s27.62-9.46 42.8-20.07v.23c-15.18 10.62-23.58 20.07-42.8 20.07s-27.63-9.46-42.8-20.07z" style="fill:#ff8b6c"/><path d="M43.71 58.98c15.18 10.62 23.58 20.07 42.8 20.07s27.62-9.46 42.8-20.07v.23c-15.18 10.62-23.58 20.07-42.8 20.07s-27.63-9.46-42.8-20.07z" style="fill:#ff8c6b"/><path d="M43.71 58.75c15.18 10.62 23.58 20.07 42.8 20.07s27.62-9.46 42.8-20.07v.23c-15.18 10.62-23.58 20.07-42.8 20.07s-27.63-9.46-42.8-20.07z" style="fill:#ff8d6a"/><path d="M43.71 58.53C58.89 69.15 67.29 78.6 86.51 78.6s27.62-9.46 42.8-20.07v.23c-15.18 10.62-23.58 20.07-42.8 20.07s-27.63-9.46-42.8-20.07z" style="fill:#ff8d69"/><path d="M43.71 58.3c15.18 10.62 23.58 20.07 42.8 20.07s27.62-9.46 42.8-20.07v.23c-15.18 10.62-23.58 20.07-42.8 20.07s-27.63-9.46-42.8-20.07z" style="fill:#ff8e68"/><path d="M43.71 58.07c15.18 10.62 23.58 20.07 42.8 20.07s27.62-9.46 42.8-20.07v.23c-15.18 10.62-23.58 20.07-42.8 20.07s-27.63-9.46-42.8-20.07z" style="fill:#ff8f67"/><path d="M43.71 57.85c15.18 10.62 23.58 20.07 42.8 20.07s27.62-9.46 42.8-20.07v.23c-15.18 10.62-23.58 20.07-42.8 20.07s-27.63-9.46-42.8-20.07z" style="fill:#ff8f66"/><path d="M43.71 57.62c15.18 10.62 23.58 20.07 42.8 20.07s27.62-9.46 42.8-20.07v.23c-15.18 10.62-23.58 20.07-42.8 20.07s-27.63-9.46-42.8-20.07z" style="fill:#ff9065"/><path d="M43.71 57.4c15.18 10.62 23.58 20.07 42.8 20.07s27.62-9.46 42.8-20.07v.23c-15.18 10.62-23.58 20.07-42.8 20.07s-27.63-9.46-42.8-20.07z" style="fill:#ff9164"/><path d="M43.71 57.17c15.18 10.62 23.58 20.07 42.8 20.07s27.62-9.46 42.8-20.07v.23c-15.18 10.62-23.58 20.07-42.8 20.07s-27.63-9.46-42.8-20.07z" style="fill:#ff9163"/><path d="M43.71 56.95c15.18 10.62 23.58 20.07 42.8 20.07s27.62-9.46 42.8-20.07v.23c-15.18 10.62-23.58 20.07-42.8 20.07s-27.63-9.46-42.8-20.07z" style="fill:#ff9262"/><path d="M43.71 56.72c15.18 10.62 23.58 20.07 42.8 20.07s27.62-9.46 42.8-20.07v.23c-15.18 10.62-23.58 20.07-42.8 20.07s-27.63-9.46-42.8-20.07z" style="fill:#ff9261"/><path d="M43.71 56.49c15.18 10.62 23.58 20.07 42.8 20.07s27.62-9.46 42.8-20.07v.23c-15.18 10.62-23.58 20.07-42.8 20.07s-27.63-9.46-42.8-20.07z" style="fill:#ff9360"/><path d="M43.71 56.27c15.18 10.62 23.58 20.07 42.8 20.07s27.62-9.46 42.8-20.07v.23c-15.18 10.62-23.58 20.07-42.8 20.07s-27.63-9.46-42.8-20.07z" style="fill:#ff945f"/><path d="M43.71 56.04c15.18 10.62 23.58 20.07 42.8 20.07s27.62-9.46 42.8-20.07v.23c-15.18 10.62-23.58 20.07-42.8 20.07s-27.63-9.46-42.8-20.07z" style="fill:#ff945e"/><path d="M43.71 55.82c15.18 10.62 23.58 20.07 42.8 20.07s27.62-9.46 42.8-20.07v.23c-15.18 10.62-23.58 20.07-42.8 20.07s-27.63-9.46-42.8-20.07z" style="fill:#ff955d"/><path d="M43.71 55.59c15.18 10.62 23.58 20.07 42.8 20.07s27.62-9.46 42.8-20.07v.23c-15.18 10.62-23.58 20.07-42.8 20.07s-27.63-9.46-42.8-20.07z" style="fill:#ff965c"/><path d="M43.71 55.36c15.18 10.62 23.58 20.07 42.8 20.07s27.62-9.46 42.8-20.07v.23c-15.18 10.62-23.58 20.07-42.8 20.07s-27.63-9.46-42.8-20.07z" style="fill:#ff965b"/><path d="M43.71 55.14c15.18 10.62 23.58 20.07 42.8 20.07s27.62-9.46 42.8-20.07v.23c-15.18 10.62-23.58 20.07-42.8 20.07s-27.63-9.46-42.8-20.07z" style="fill:#ff975a"/><path d="M43.71 54.91c15.18 10.62 23.58 20.07 42.8 20.07s27.62-9.46 42.8-20.07v.23c-15.18 10.62-23.58 20.07-42.8 20.07s-27.63-9.46-42.8-20.07z" style="fill:#ff9759"/><path d="M43.71 54.69c15.18 10.62 23.58 20.07 42.8 20.07s27.62-9.46 42.8-20.07v.23c-15.18 10.62-23.58 20.07-42.8 20.07s-27.63-9.46-42.8-20.07z" style="fill:#ff9858"/><path d="M43.71 54.46c15.18 10.62 23.58 20.07 42.8 20.07s27.62-9.46 42.8-20.07v.23c-15.18 10.62-23.58 20.07-42.8 20.07s-27.63-9.46-42.8-20.07z" style="fill:#ff9957"/><path d="M43.71 54.24c15.18 10.62 23.58 20.07 42.8 20.07s27.62-9.46 42.8-20.07v.23c-15.18 10.62-23.58 20.07-42.8 20.07s-27.63-9.46-42.8-20.07z" style="fill:#ff9956"/><path d="M43.71 54.01c15.18 10.62 23.58 20.07 42.8 20.07s27.62-9.46 42.8-20.07v.23c-15.18 10.62-23.58 20.07-42.8 20.07s-27.63-9.46-42.8-20.07z" style="fill:#ff9a55"/><path d="M43.71 53.78c15.18 10.62 23.58 20.07 42.8 20.07s27.62-9.46 42.8-20.07v.23c-15.18 10.62-23.58 20.07-42.8 20.07s-27.63-9.46-42.8-20.07z" style="fill:#ff9b54"/><path d="M43.71 53.56c15.18 10.62 23.58 20.07 42.8 20.07s27.62-9.46 42.8-20.07v.23c-15.18 10.62-23.58 20.07-42.8 20.07s-27.63-9.46-42.8-20.07z" style="fill:#ff9b53"/><path d="M43.71 53.33C58.89 63.95 67.29 73.4 86.51 73.4s27.62-9.46 42.8-20.07v.23c-15.18 10.62-23.58 20.07-42.8 20.07s-27.63-9.46-42.8-20.07z" style="fill:#ff9c52"/><path d="M43.71 53.11c15.18 10.62 23.58 20.07 42.8 20.07s27.62-9.46 42.8-20.07v.23c-15.18 10.62-23.58 20.07-42.8 20.07s-27.63-9.46-42.8-20.07z" style="fill:#ff9c51"/><path d="M43.71 52.88c15.18 10.62 23.58 20.07 42.8 20.07s27.62-9.46 42.8-20.07v.23c-15.18 10.62-23.58 20.07-42.8 20.07s-27.63-9.46-42.8-20.07z" style="fill:#ff9d50"/><path d="M43.71 52.66c15.18 10.62 23.58 20.07 42.8 20.07s27.62-9.46 42.8-20.07v.23c-15.18 10.62-23.58 20.07-42.8 20.07s-27.63-9.46-42.8-20.07z" style="fill:#ff9e4f"/><path d="M43.71 52.43C58.89 63.05 67.29 72.5 86.51 72.5s27.62-9.46 42.8-20.07v.23c-15.18 10.62-23.58 20.07-42.8 20.07s-27.63-9.46-42.8-20.07z" style="fill:#ff9e4e"/><path d="M43.71 52.2c15.18 10.62 23.58 20.07 42.8 20.07s27.62-9.46 42.8-20.07v.23c-15.18 10.62-23.58 20.07-42.8 20.07s-27.63-9.46-42.8-20.07z" style="fill:#ff9f4d"/><path d="M43.71 51.93C58.89 62.55 67.29 72 86.51 72s27.62-9.46 42.8-20.07v.27c-15.18 10.62-23.58 20.07-42.8 20.07s-27.63-9.46-42.8-20.07z" style="fill:#ff9f4d"/><path d="M43.71 51.65c15.18 10.62 23.58 20.07 42.8 20.07s27.62-9.46 42.8-20.07v.27c-15.18 10.62-23.58 20.07-42.8 20.07s-27.63-9.46-42.8-20.07z" style="fill:#ffa04c"/><path d="M43.71 51.38C58.89 62 67.29 71.45 86.51 71.45s27.62-9.46 42.8-20.07v.27c-15.18 10.62-23.58 20.07-42.8 20.07s-27.63-9.46-42.8-20.07z" style="fill:#ffa14b"/><path d="M43.71 51.1c15.18 10.62 23.58 20.07 42.8 20.07s27.62-9.46 42.8-20.07v.27c-15.18 10.62-23.58 20.07-42.8 20.07s-27.63-9.46-42.8-20.07z" style="fill:#ffa24a"/><path d="M43.71 50.83C58.89 61.45 67.29 70.9 86.51 70.9s27.62-9.46 42.8-20.07v.27c-15.18 10.62-23.58 20.07-42.8 20.07s-27.63-9.46-42.8-20.07z" style="fill:#ffa349"/><path d="M43.71 50.56c15.18 10.62 23.58 20.07 42.8 20.07s27.62-9.46 42.8-20.07v.27c-15.18 10.62-23.58 20.07-42.8 20.07s-27.63-9.46-42.8-20.07z" style="fill:#ffa448"/><path d="M43.71 50.28c15.18 10.62 23.58 20.07 42.8 20.07s27.62-9.46 42.8-20.07v.28c-15.18 10.62-23.58 20.07-42.8 20.07s-27.63-9.46-42.8-20.07z" style="fill:#ffa547"/><path d="M43.71 50.01c15.18 10.62 23.58 20.07 42.8 20.07s27.62-9.46 42.8-20.07v.27c-15.18 10.62-23.58 20.07-42.8 20.07s-27.63-9.46-42.8-20.07z" style="fill:#ffa646"/><path d="M43.71 49.73C58.89 60.35 67.29 69.8 86.51 69.8s27.62-9.46 42.8-20.07V50c-15.18 10.62-23.58 20.07-42.8 20.07S58.88 60.61 43.71 50z" style="fill:#ffa745"/><path d="M43.71 49.46c15.18 10.62 23.58 20.07 42.8 20.07s27.62-9.46 42.8-20.07v.27c-15.18 10.62-23.58 20.07-42.8 20.07s-27.63-9.46-42.8-20.07z" style="fill:#ffa845"/><path d="M43.71 49.18c15.18 10.62 23.58 20.07 42.8 20.07s27.62-9.46 42.8-20.07v.27c-15.18 10.62-23.58 20.07-42.8 20.07s-27.63-9.46-42.8-20.07z" style="fill:#ffa944"/><path d="M43.71 48.91c15.18 10.62 23.58 20.07 42.8 20.07s27.62-9.46 42.8-20.07v.28c-15.18 10.62-23.58 20.07-42.8 20.07s-27.63-9.46-42.8-20.07z" style="fill:#ffaa43"/><path d="M43.71 48.63C58.89 59.25 67.29 68.7 86.51 68.7s27.62-9.46 42.8-20.07v.27c-15.18 10.62-23.58 20.07-42.8 20.07s-27.63-9.46-42.8-20.07z" style="fill:#ffab42"/><path d="M43.71 48.36c15.18 10.62 23.58 20.07 42.8 20.07s27.62-9.46 42.8-20.07v.27c-15.18 10.62-23.58 20.07-42.8 20.07s-27.63-9.46-42.8-20.07z" style="fill:#ffac41"/><path d="M43.71 48.08c15.18 10.62 23.58 20.07 42.8 20.07s27.62-9.46 42.8-20.07v.27c-15.18 10.62-23.58 20.07-42.8 20.07s-27.63-9.46-42.8-20.07z" style="fill:#ffad40"/><path d="M43.71 47.81c15.18 10.62 23.58 20.07 42.8 20.07s27.62-9.46 42.8-20.07v.27c-15.18 10.62-23.58 20.07-42.8 20.07s-27.63-9.46-42.8-20.07z" style="fill:#ffae3f"/><path d="M43.71 47.53C58.89 58.15 67.29 67.6 86.51 67.6s27.62-9.46 42.8-20.07v.27c-15.18 10.62-23.58 20.07-42.8 20.07s-27.63-9.46-42.8-20.07z" style="fill:#ffaf3e"/><path d="M43.71 47.26c15.18 10.62 23.58 20.07 42.8 20.07s27.62-9.46 42.8-20.07v.27c-15.18 10.62-23.58 20.07-42.8 20.07s-27.63-9.46-42.8-20.07z" style="fill:#ffb03d"/><path d="M43.71 46.98c15.18 10.62 23.58 20.07 42.8 20.07s27.62-9.46 42.8-20.07v.27c-15.18 10.62-23.58 20.07-42.8 20.07s-27.63-9.46-42.8-20.07z" style="fill:#ffb13c"/><path d="M43.71 46.71c15.18 10.62 23.58 20.07 42.8 20.07s27.62-9.46 42.8-20.07v.27c-15.18 10.62-23.58 20.07-42.8 20.07s-27.63-9.46-42.8-20.07z" style="fill:#ffb23b"/><path d="M43.71 46.43C58.89 57.05 67.29 66.5 86.51 66.5s27.62-9.46 42.8-20.07v.27c-15.18 10.62-23.58 20.07-42.8 20.07s-27.63-9.46-42.8-20.07z" style="fill:#ffb33a"/><path d="M43.71 46.16c15.18 10.62 23.58 20.07 42.8 20.07s27.62-9.46 42.8-20.07v.27c-15.18 10.62-23.58 20.07-42.8 20.07s-27.63-9.46-42.8-20.07z" style="fill:#ffb439"/><path d="M43.71 45.88c15.18 10.62 23.58 20.07 42.8 20.07s27.62-9.46 42.8-20.07v.27c-15.18 10.62-23.58 20.07-42.8 20.07s-27.63-9.46-42.8-20.07z" style="fill:#ffb538"/><path d="M43.71 45.61c15.18 10.62 23.58 20.07 42.8 20.07s27.62-9.46 42.8-20.07v.27c-15.18 10.62-23.58 20.07-42.8 20.07s-27.63-9.46-42.8-20.07z" style="fill:#ffb637"/><path d="M43.71 45.33C58.89 55.95 67.29 65.4 86.51 65.4s27.62-9.46 42.8-20.07v.27c-15.18 10.62-23.58 20.07-42.8 20.07s-27.63-9.46-42.8-20.07z" style="fill:#ffb736"/><path d="M43.71 45.06c15.18 10.62 23.58 20.07 42.8 20.07s27.62-9.46 42.8-20.07v.27c-15.18 10.62-23.58 20.07-42.8 20.07s-27.63-9.45-42.8-20.07z" class="d`"/><path d="M43.71 44.79c15.18 10.62 23.58 20.07 42.8 20.07s27.62-9.46 42.8-20.07v.27c-15.18 10.62-23.58 20.07-42.8 20.07s-27.63-9.46-42.8-20.07z" style="fill:#ffb935"/><path d="M43.71 44.51c15.18 10.62 23.58 20.07 42.8 20.07s27.62-9.46 42.8-20.07v.28c-15.18 10.62-23.58 20.07-42.8 20.07s-27.63-9.46-42.8-20.07z" style="fill:#ffba34"/><path d="M43.71 44.24c15.18 10.62 23.58 20.07 42.8 20.07s27.62-9.46 42.8-20.07v.27c-15.18 10.62-23.58 20.07-42.8 20.07s-27.63-9.46-42.8-20.07z" style="fill:#fb3"/><path d="M43.71 43.96c15.18 10.62 23.58 20.07 42.8 20.07s27.62-9.46 42.8-20.07v.27c-15.18 10.62-23.58 20.07-42.8 20.07s-27.63-9.45-42.8-20.07z" style="fill:#ffbc32"/><path d="M43.71 43.69c15.18 10.62 23.58 20.07 42.8 20.07s27.62-9.46 42.8-20.07v.27c-15.18 10.62-23.58 20.07-42.8 20.07s-27.63-9.46-42.8-20.07z" style="fill:#ffbd31"/><path d="M43.71 43.41c15.18 10.62 23.58 20.07 42.8 20.07s27.62-9.46 42.8-20.07v.27c-15.18 10.62-23.58 20.07-42.8 20.07s-27.63-9.46-42.8-20.07z" style="fill:#ffbe30"/><path d="M43.71 43.14c15.18 10.62 23.58 20.07 42.8 20.07s27.62-9.46 42.8-20.07v.28c-15.18 10.62-23.58 20.07-42.8 20.07s-27.63-9.45-42.8-20.07z" style="fill:#ffbf2f"/><path d="M43.71 42.86c15.18 10.62 23.58 20.07 42.8 20.07s27.62-9.46 42.8-20.07v.27c-15.18 10.62-23.58 20.07-42.8 20.07s-27.63-9.46-42.8-20.07z" style="fill:#ffc02e"/><path d="M43.71 42.59c15.18 10.62 23.58 20.07 42.8 20.07s27.62-9.46 42.8-20.07v.27c-15.18 10.62-23.58 20.07-42.8 20.07s-27.63-9.46-42.8-20.07z" style="fill:#ffc12d"/><path d="M43.71 42.31c15.18 10.62 23.58 20.07 42.8 20.07s27.62-9.46 42.8-20.07v.27c-15.18 10.62-23.58 20.07-42.8 20.07s-27.63-9.46-42.8-20.07z" style="fill:#ffc22c"/><path d="M43.71 42.04c15.18 10.62 23.58 20.07 42.8 20.07s27.62-9.46 42.8-20.07v.27c-15.18 10.62-23.58 20.07-42.8 20.07s-27.63-9.45-42.8-20.07z" style="fill:#ffc32b"/><path d="M43.71 41.76c15.18 10.62 23.58 20.07 42.8 20.07s27.62-9.46 42.8-20.07v.27c-15.18 10.62-23.58 20.07-42.8 20.07s-27.63-9.45-42.8-20.07z" style="fill:#ffc42a"/><path d="M43.71 41.49c15.18 10.62 23.58 20.07 42.8 20.07s27.62-9.46 42.8-20.07v.27c-15.18 10.62-23.58 20.07-42.8 20.07s-27.63-9.46-42.8-20.07z" style="fill:#ffc529"/><path d="M43.71 41.21c15.18 10.62 23.58 20.07 42.8 20.07s27.62-9.46 42.8-20.07v.27c-15.18 10.62-23.58 20.07-42.8 20.07s-27.63-9.45-42.8-20.07z" style="fill:#ffc628"/><path d="M43.71 40.94c15.18 10.62 23.58 20.07 42.8 20.07s27.62-9.46 42.8-20.07v.27c-15.18 10.62-23.58 20.07-42.8 20.07s-27.63-9.45-42.8-20.07z" style="fill:#ffc727"/><path d="M43.71 40.66c15.18 10.62 23.58 20.07 42.8 20.07s27.62-9.46 42.8-20.07v.27C114.13 51.55 105.73 61 86.51 61s-27.63-9.45-42.8-20.07z" class="c`"/><path d="M43.71 40.39c15.18 10.62 23.58 20.07 42.8 20.07s27.62-9.46 42.8-20.07v.27c-15.18 10.62-23.58 20.07-42.8 20.07s-27.63-9.46-42.8-20.07z" style="fill:#ffca26"/><path d="M43.71 40.11c15.18 10.62 23.58 20.07 42.8 20.07s27.62-9.46 42.8-20.07v.27C114.13 51 105.73 60.45 86.51 60.45S58.88 51 43.71 40.38z" style="fill:#ffcb25"/><path d="M43.71 39.84c15.18 10.62 23.58 20.07 42.8 20.07s27.62-9.46 42.8-20.07v.27c-15.18 10.62-23.58 20.07-42.8 20.07s-27.63-9.45-42.8-20.07z" style="fill:#ffcc24"/><path d="M43.71 39.56c15.18 10.62 23.58 20.07 42.8 20.07s27.62-9.46 42.8-20.07v.27c-15.18 10.62-23.58 20.07-42.8 20.07s-27.63-9.46-42.8-20.07z" style="fill:#ffcd23"/><path d="M43.71 39.29c15.18 10.62 23.58 20.07 42.8 20.07s27.62-9.46 42.8-20.07v.27c-15.18 10.62-23.58 20.07-42.8 20.07s-27.63-9.45-42.8-20.07z" style="fill:#ffce22"/><path d="M43.71 39.02c15.18 10.62 23.58 20.07 42.8 20.07s27.62-9.46 42.8-20.07v.27c-15.18 10.62-23.58 20.07-42.8 20.07s-27.63-9.45-42.8-20.07z" style="fill:#ffcf21"/><path d="M43.71 38.74c15.18 10.62 23.58 20.07 42.8 20.07s27.62-9.46 42.8-20.07v.27c-15.18 10.62-23.58 20.07-42.8 20.07s-27.63-9.45-42.8-20.07z" style="fill:#ffd020"/><path d="M43.71 38.47c15.18 10.62 23.58 20.07 42.8 20.07s27.62-9.46 42.8-20.07v.27c-15.18 10.62-23.58 20.07-42.8 20.07s-27.63-9.45-42.8-20.07z" style="fill:#ffd11f"/><path d="M43.71 38.19c15.18 10.62 23.58 20.07 42.8 20.07s27.62-9.46 42.8-20.07v.27c-15.18 10.62-23.58 20.07-42.8 20.07s-27.63-9.45-42.8-20.07z" style="fill:#ffd21e"/><path d="M43.71 37.92c15.18 10.62 23.58 20.07 42.8 20.07s27.62-9.46 42.8-20.07v.27c-15.18 10.62-23.58 20.07-42.8 20.07s-27.63-9.45-42.8-20.07z" style="fill:#ffd31d"/><path d="M43.71 37.64c15.18 10.62 23.58 20.07 42.8 20.07s27.62-9.46 42.8-20.07v.27c-15.18 10.62-23.58 20.07-42.8 20.07s-27.63-9.45-42.8-20.07z" style="fill:#ffd41c"/><path d="M43.71 37.37c15.18 10.62 23.58 20.07 42.8 20.07s27.62-9.46 42.8-20.07v.28c-15.18 10.62-23.58 20.07-42.8 20.07s-27.63-9.45-42.8-20.07z" style="fill:#ffd51b"/><path d="M43.71 37.09c15.18 10.62 23.58 20.07 42.8 20.07s27.62-9.46 42.8-20.07v.27c-15.18 10.62-23.58 20.07-42.8 20.07s-27.63-9.45-42.8-20.07z" style="fill:#ffd61a"/><path d="M43.71 36.82c15.18 10.62 23.58 20.07 42.8 20.07s27.62-9.46 42.8-20.07v.27c-15.18 10.62-23.58 20.07-42.8 20.07s-27.63-9.45-42.8-20.07z" style="fill:#ffd719"/><path d="M43.71 36.54c15.18 10.62 23.58 20.07 42.8 20.07s27.62-9.46 42.8-20.07v.27c-15.18 10.62-23.58 20.07-42.8 20.07s-27.63-9.45-42.8-20.07z" style="fill:#ffd818"/><path d="M43.71 36.27c15.18 10.62 23.58 20.07 42.8 20.07s27.62-9.46 42.8-20.07v.27c-15.18 10.62-23.58 20.07-42.8 20.07s-27.63-9.45-42.8-20.07z" style="fill:#ffd917"/><path d="M43.71 35.99c15.18 10.62 23.58 20.07 42.8 20.07s27.62-9.46 42.8-20.07v.28c-15.18 10.62-23.58 20.07-42.8 20.07s-27.63-9.45-42.8-20.07z" style="fill:#ffda17"/><path d="M43.71 35.72c15.18 10.62 23.58 20.07 42.8 20.07s27.62-9.46 42.8-20.07v.27c-15.18 10.62-23.58 20.07-42.8 20.07s-27.63-9.45-42.8-20.07z" style="fill:#ffdb16"/><path d="M43.71 35.44c15.18 10.62 23.58 20.07 42.8 20.07s27.62-9.46 42.8-20.07v.27c-15.18 10.62-23.58 20.07-42.8 20.07s-27.63-9.45-42.8-20.07z" class="b`"/><path d="M43.71 35.17c15.18 10.62 23.58 20.07 42.8 20.07s27.62-9.46 42.8-20.07v.27c-15.18 10.62-23.58 20.07-42.8 20.07s-27.63-9.45-42.8-20.07z" style="fill:#ffdd14"/><path d="M43.71 34.89c15.18 10.62 23.58 20.07 42.8 20.07s27.62-9.46 42.8-20.07v.27c-15.18 10.62-23.58 20.07-42.8 20.07s-27.63-9.45-42.8-20.07z" style="fill:#ffde13"/><path d="M43.71 34.62c15.18 10.62 23.58 20.07 42.8 20.07s27.62-9.46 42.8-20.07v.27c-15.18 10.62-23.58 20.07-42.8 20.07s-27.63-9.45-42.8-20.07z" style="fill:#ffdf12"/><path d="M43.71 34.34c15.18 10.62 23.58 20.07 42.8 20.07s27.62-9.46 42.8-20.07v.27c-15.18 10.62-23.58 20.07-42.8 20.07s-27.63-9.45-42.8-20.07z" class="a`"/><path d="M43.71 34.07c15.18 10.62 23.58 20.07 42.8 20.07s27.62-9.46 42.8-20.07v.27c-15.18 10.62-23.58 20.07-42.8 20.07s-27.63-9.45-42.8-20.07z" style="fill:#ffe110"/><path d="M43.71 33.79c15.18 10.62 23.58 20.07 42.8 20.07s27.62-9.46 42.8-20.07v.27c-15.18 10.62-23.58 20.07-42.8 20.07s-27.63-9.45-42.8-20.07z" style="fill:#ffe20f"/><path d="M43.71 33.52c15.18 10.62 23.58 20.07 42.8 20.07s27.62-9.46 42.8-20.07v.27c-15.18 10.62-23.58 20.07-42.8 20.07s-27.63-9.45-42.8-20.07z" style="fill:#ffe30e"/><path d="M43.71 33.25c15.18 10.62 23.58 20.07 42.8 20.07s27.62-9.46 42.8-20.07v.27c-15.18 10.62-23.58 20.07-42.8 20.07s-27.63-9.45-42.8-20.07z" style="fill:#ffe40d"/><path d="M43.71 32.97c15.18 10.62 23.58 20.07 42.8 20.07s27.62-9.46 42.8-20.07v.27c-15.18 10.62-23.58 20.07-42.8 20.07s-27.63-9.45-42.8-20.07z" style="fill:#ffe50c"/><path d="M43.71 32.7c15.18 10.62 23.58 20.07 42.8 20.07s27.62-9.46 42.8-20.07v.27c-15.18 10.62-23.58 20.07-42.8 20.07s-27.63-9.45-42.8-20.07z" style="fill:#ffe60b"/><path d="M43.71 32.42c15.18 10.62 23.58 20.07 42.8 20.07s27.62-9.46 42.8-20.07v.27c-15.18 10.62-23.58 20.07-42.8 20.07s-27.63-9.45-42.8-20.07z" style="fill:#ffe70a"/><path d="M43.71 32.15c15.18 10.62 23.58 20.07 42.8 20.07s27.62-9.46 42.8-20.07v.27c-15.18 10.62-23.58 20.07-42.8 20.07s-27.63-9.45-42.8-20.07z" style="fill:#ffe809"/><path d="M43.71 31.87c15.18 10.62 23.58 20.07 42.8 20.07s27.62-9.46 42.8-20.07v.27c-15.18 10.62-23.58 20.07-42.8 20.07s-27.63-9.45-42.8-20.07z" style="fill:#ffe908"/><path d="M43.71 31.6c15.18 10.62 23.58 20.07 42.8 20.07s27.62-9.46 42.8-20.07v.27c-15.18 10.62-23.58 20.07-42.8 20.07s-27.63-9.45-42.8-20.07z" style="fill:#ffea08"/><path d="M43.71 31.32c15.18 10.62 23.58 20.07 42.8 20.07s27.62-9.46 42.8-20.07v.27c-15.18 10.62-23.58 20.07-42.8 20.07s-27.63-9.45-42.8-20.07z" style="fill:#ffeb07"/><path d="M43.71 31.05c15.18 10.62 23.58 20.07 42.8 20.07s27.62-9.46 42.8-20.07v.27c-15.18 10.61-23.58 20.07-42.8 20.07s-27.63-9.45-42.8-20.07z" style="fill:#ffec06"/><path d="M43.71 30.77c15.18 10.62 23.58 20.07 42.8 20.07s27.62-9.46 42.8-20.07v.27c-15.18 10.62-23.58 20.07-42.8 20.07s-27.63-9.45-42.8-20.07z" style="fill:#ffed05"/><path d="M43.71 30.5c15.18 10.62 23.58 20.07 42.8 20.07s27.62-9.46 42.8-20.07v.27c-15.18 10.62-23.58 20.07-42.8 20.07s-27.63-9.45-42.8-20.07z" style="fill:#ffee04"/><path d="M43.71 30.22c15.18 10.62 23.58 20.07 42.8 20.07s27.62-9.46 42.8-20.07v.27c-15.18 10.62-23.58 20.07-42.8 20.07s-27.63-9.45-42.8-20.07z" style="fill:#ffef03"/><path d="M43.71 29.95c15.18 10.62 23.58 20.07 42.8 20.07s27.62-9.46 42.8-20.07v.27c-15.18 10.61-23.58 20.07-42.8 20.07s-27.63-9.45-42.8-20.07z" style="fill:#fff002"/><path d="M43.71 29.67c15.18 10.62 23.58 20.07 42.8 20.07s27.62-9.46 42.8-20.07v.27c-15.18 10.62-23.58 20.07-42.8 20.07s-27.63-9.45-42.8-20.07z" style="fill:#fff101"/><path d="M43.71 29.4c15.18 10.62 23.58 20.07 42.8 20.07s27.62-9.45 42.8-20.07v.27c-15.18 10.62-23.58 20.07-42.8 20.07s-27.63-9.45-42.8-20.07z" style="fill:#fff200"/><path d="M129.31 29.4c-15.18 10.62-23.58 20.07-42.8 20.07s-27.62-9.45-42.8-20.07c15.18 10.62 23.58 20.07 42.8 20.07s27.62-9.45 42.8-20.07" style="fill:#fff200"/></g><ellipse cx="87.02" cy="19.89" rx="42.69" ry="29.72" style="fill:#fcee20"/></g><path d="M127.08 75.01s26.26 47.1 38.45 33.2c2.59-2.95 3.26-7.16 2.01-10.88-3.43-10.21-1.29-16.19.97-19.35a5.06 5.06 0 0 0 0-5.93c-2.27-3.16-4.4-9.15-.97-19.35 1.25-3.72.58-7.93-2.01-10.88-12.19-13.9-38.45 33.2-38.45 33.2Z" style="stroke-linecap:round;stroke-linejoin:round;stroke:#9d31c7;fill:url(#a)"/><path d="M116.04 68.55c.47 2.08.72 4.24.72 6.46M87.52 45.78c10.65 0 19.97 5.7 25.08 14.21" style="fill:none;stroke-linecap:round;stroke-linejoin:round;stroke:#fff;stroke-width:2px"/><path d="m127.08 75.01 16.44 6.95m-16.44-6.95 16.44-6.95" style="fill:none;stroke-linecap:round;stroke-linejoin:round;stroke:#9d31c7"/><path d="M146.93 59.04s5.43-8.21 12.88-12.12" style="fill:none;stroke-linecap:round;stroke-linejoin:round;stroke:#fff;stroke-width:2px"/><path d="M47.92 75.01s-26.27 47.1-38.45 33.2c-2.59-2.95-3.26-7.16-2.01-10.88 3.43-10.21 1.29-16.19-.97-19.35a5.06 5.06 0 0 1 0-5.93c2.27-3.16 4.4-9.15.97-19.35-1.25-3.72-.58-7.93 2.01-10.88 12.19-13.9 38.45 33.2 38.45 33.2Z" style="stroke-linecap:round;stroke-linejoin:round;stroke:#9d31c7;fill:url(#d)"/><path d="m47.92 75.01-16.44 6.95m16.44-6.95-16.44-6.95" style="fill:none;stroke-linecap:round;stroke-linejoin:round;stroke:#9d31c7"/><path d="M28.07 59.04s-5.43-8.21-12.88-12.12" style="fill:none;stroke-linecap:round;stroke-linejoin:round;stroke:#fff;stroke-width:2px"/><circle cx="87.52" cy="75.01" r="39.56" style="fill:none;stroke:#9d31c7;stroke-miterlimit:10"/></svg>