<svg xmlns="http://www.w3.org/2000/svg" viewBox="0 0 150 150"><defs><clipPath id="a"><path style="fill:none" d="M9.72 0h114.49v104.1H9.72z"/></clipPath></defs><g style="clip-path:url(#a)"><path d="M39.9 17.42a7.237 7.237 0 0 0 4.01-3.32c1.96-3.48.74-7.9-2.73-9.87C39.93 3.5 12.07-13.2 8.97-59.9c-.27-4-3.73-7.03-7.73-6.76-4 .27-7.03 3.73-6.76 7.73 3.65 54.95 38.08 74.97 39.54 75.79 1.87 1.05 4 1.19 5.88.56ZM77.77 18.04a7.227 7.227 0 0 1-3.03-4.23c-1.01-3.87 1.31-7.82 5.17-8.84 1.4-.38 32.61-9.38 47.58-53.73a7.26 7.26 0 0 1 13.76 4.64C123.63 8.07 85.22 18.58 83.6 19.01c-2.07.54-4.17.12-5.83-.97Z" style="fill:#c5c6c8;stroke:#909395;stroke-linejoin:round"/><path transform="rotate(176.6 67.364 63.423)" style="fill:#f063a4;stroke-linejoin:round;stroke:#70327e" d="M38.4 34.46h57.93v57.93H38.4z"/><path d="m92.26-5.96 1.58 26.54-57.83 3.44-3.08-51.86s-4.37-48.75 53-52.16l1.05 17.64s-19.35 2.87-17.59 32.41v-.06l21.37-1.27.76 12.79.74 12.52Z" style="fill:#f063a4;stroke-linejoin:round;stroke:#70327e"/><path d="M55.37 79.1s-.26 4.74 3.39 5.06M88.06 77.17s.75 4.69-2.85 5.39" style="stroke-linejoin:round;stroke:#70327e;stroke-linecap:round;fill:none"/><path d="M64.79 46.15s-14.62 2.87-13.86 17.53c0 0-3.17-21.67 3.88-22.04 2.61-.14 3.2 4.13 3.33 6.6" style="fill:#70327e;stroke-linejoin:round;stroke:#70327e;stroke-linecap:round"/><path d="M53.41 65.16s-2.49-1.94-5.04.26" style="stroke-linejoin:round;stroke:#70327e;stroke-linecap:round;fill:none"/><ellipse cx="81.01" cy="70.26" rx="4.52" ry="8.35" transform="rotate(-3.41 80.959 70.331)" style="fill:#70327e"/><ellipse cx="80.88" cy="75.37" rx="1.43" ry="2.21" transform="rotate(-3.41 80.809 75.37)" style="fill:#fff"/><ellipse cx="63.21" cy="71.55" rx="4.52" ry="8.35" transform="rotate(-3.41 63.272 71.486)" style="fill:#70327e"/><ellipse cx="63.08" cy="76.66" rx="1.43" ry="2.21" transform="rotate(-3.41 63.117 76.693)" style="fill:#fff"/></g></svg>