<?xml version="1.0" encoding="UTF-8"?><svg id="a" xmlns="http://www.w3.org/2000/svg" xmlns:xlink="http://www.w3.org/1999/xlink" viewBox="0 0 150 150"><defs><style>.c,.d{fill:none;}.e,.d{stroke-linecap:round;}.e,.d,.f{stroke:#70327e;}.e,.d,.f,.g{stroke-linejoin:round;}.e,.h{fill:#70327e;}.i{fill:#fff;}.j{clip-path:url(#b);}.f{fill:#f063a4;}.g{fill:#c5c6c8;stroke:#909395;}</style><clipPath id="b"><rect class="c" x="9.72" width="114.49" height="104.1"/></clipPath></defs><g class="j"><g><path class="g" d="M39.9,17.42c1.64-.55,3.09-1.69,4.01-3.32,1.96-3.48,.74-7.9-2.73-9.87-1.25-.73-29.11-17.43-32.21-64.13-.27-4-3.73-7.03-7.73-6.76-4,.27-7.03,3.73-6.76,7.73C-1.87-3.98,32.56,16.04,34.02,16.86c1.87,1.05,4,1.19,5.88,.56Z"/><path class="g" d="M77.77,18.04c-1.45-.95-2.56-2.43-3.03-4.23-1.01-3.87,1.31-7.82,5.17-8.84,1.4-.38,32.61-9.38,47.58-53.73,1.28-3.8,5.4-5.84,9.2-4.56,3.8,1.28,5.84,5.4,4.56,9.2C123.63,8.07,85.22,18.58,83.6,19.01c-2.07,.54-4.17,.12-5.83-.97Z"/><rect class="f" x="38.4" y="34.46" width="57.93" height="57.93" transform="translate(138.37 122.74) rotate(176.6)"/><path class="f" d="M92.26-5.96l1.58,26.54-57.83,3.44-3.08-51.86s-4.37-48.75,53-52.16l1.05,17.64s-19.35,2.87-17.59,32.41v-.06l21.37-1.27,.76,12.79,.74,12.52Z"/><path class="d" d="M55.37,79.1s-.26,4.74,3.39,5.06"/><path class="d" d="M88.06,77.17s.75,4.69-2.85,5.39"/><path class="e" d="M64.79,46.15s-14.62,2.87-13.86,17.53c0,0-3.17-21.67,3.88-22.04,2.61-.14,3.2,4.13,3.33,6.6"/><path class="d" d="M53.41,65.16s-2.49-1.94-5.04,.26"/><ellipse class="h" cx="81.01" cy="70.26" rx="4.52" ry="8.35" transform="translate(-4.04 4.94) rotate(-3.41)"/><ellipse class="i" cx="80.88" cy="75.37" rx="1.43" ry="2.21" transform="translate(-4.34 4.94) rotate(-3.41)"/><ellipse class="h" cx="63.21" cy="71.55" rx="4.52" ry="8.35" transform="translate(-4.14 3.89) rotate(-3.41)"/><ellipse class="i" cx="63.08" cy="76.66" rx="1.43" ry="2.21" transform="translate(-4.45 3.89) rotate(-3.41)"/></g></g></svg>