<svg data-name="Layer 1" xmlns="http://www.w3.org/2000/svg" viewBox="0 0 150 150"><defs><clipPath id="a"><path style="fill:none" d="M9.72 0h114.49v104.1H9.72z"/></clipPath></defs><g style="clip-path:url(#a)"><path d="M39.9 17.42a7.17 7.17 0 0 0 4-3.32 7.25 7.25 0 0 0-2.72-9.87C39.94 3.5 12.08-13.2 9-59.9a7.28 7.28 0 0 0-7.73-6.77 7.28 7.28 0 0 0-6.77 7.73C-1.87-4 32.56 16 34 16.86a7.26 7.26 0 0 0 5.9.56ZM77.77 18a7.26 7.26 0 0 1 2.14-13c1.4-.38 32.61-9.38 47.58-53.73a7.25 7.25 0 0 1 9.21-4.55 7.26 7.26 0 0 1 4.55 9.2C123.63 8.07 85.22 18.58 83.6 19a7.3 7.3 0 0 1-5.83-1Z" style="stroke-linejoin:round;fill:#c5c6c8;stroke:#909395"/><path transform="rotate(176.6 67.364 63.423)" style="stroke:#70327e;fill:#f063a4;stroke-linejoin:round" d="M38.4 34.46h57.93v57.93H38.4z"/><path d="m92.26-6 1.58 26.54L36 24l-3.07-51.84s-4.37-48.75 53-52.16l1 17.64s-19.3 2.87-17.54 32.41V-30l21.36-1.27.76 12.79Z" style="stroke:#70327e;fill:#f063a4;stroke-linejoin:round"/><path d="M55.37 79.1s-.26 4.75 3.39 5.06M88.06 77.17s.75 4.7-2.85 5.39" style="stroke-linecap:round;stroke:#70327e;stroke-linejoin:round;fill:none"/><path d="M64.79 46.15S50.17 49 50.93 63.68c0 0-3.16-21.66 3.88-22 2.61-.14 3.19 4.13 3.32 6.59" style="fill:#70327e;stroke-linecap:round;stroke:#70327e;stroke-linejoin:round"/><path d="M53.41 65.16a4 4 0 0 0-5 .26" style="stroke-linecap:round;stroke:#70327e;stroke-linejoin:round;fill:none"/><ellipse cx="81.01" cy="70.26" rx="4.52" ry="8.35" transform="rotate(-3.41 80.959 70.331)" style="fill:#70327e"/><ellipse cx="80.88" cy="75.37" rx="1.43" ry="2.21" transform="rotate(-3.41 80.809 75.37)" style="fill:#fff"/><ellipse cx="63.21" cy="71.55" rx="4.52" ry="8.35" transform="rotate(-3.41 63.272 71.486)" style="fill:#70327e"/><ellipse cx="63.08" cy="76.66" rx="1.43" ry="2.21" transform="rotate(-3.41 63.117 76.693)" style="fill:#fff"/></g></svg>