<svg id="Layer_1" data-name="Layer 1" xmlns="http://www.w3.org/2000/svg" xmlns:xlink="http://www.w3.org/1999/xlink" viewBox="0 0 150 150"><defs><style>.cls-1,.cls-5{fill:none;}.cls-2{clip-path:url(#clip-path);}.cls-3{fill:#c5c6c8;stroke:#909395;}.cls-3,.cls-4,.cls-5,.cls-6{stroke-linejoin:round;}.cls-4{fill:#f063a4;}.cls-4,.cls-5,.cls-6{stroke:#70327e;}.cls-5,.cls-6{stroke-linecap:round;}.cls-6,.cls-7{fill:#70327e;}.cls-8{fill:#fff;}</style><clipPath id="clip-path"><rect class="cls-1" x="9.72" width="114.49" height="104.1"/></clipPath></defs><g class="cls-2"><path class="cls-3" d="M39.9,17.42a7.17,7.17,0,0,0,4-3.32,7.25,7.25,0,0,0-2.72-9.87C39.94,3.5,12.08-13.2,9-59.9a7.28,7.28,0,0,0-7.73-6.77,7.28,7.28,0,0,0-6.77,7.73C-1.87-4,32.56,16,34,16.86A7.26,7.26,0,0,0,39.9,17.42Z"/><path class="cls-3" d="M77.77,18A7.26,7.26,0,0,1,79.91,5c1.4-.38,32.61-9.38,47.58-53.73a7.25,7.25,0,0,1,9.21-4.55,7.26,7.26,0,0,1,4.55,9.2C123.63,8.07,85.22,18.58,83.6,19A7.3,7.3,0,0,1,77.77,18Z"/><rect class="cls-4" x="38.4" y="34.46" width="57.93" height="57.93" transform="translate(138.37 122.74) rotate(176.6)"/><path class="cls-4" d="M92.26-6l1.58,26.54L36,24,32.93-27.84S28.56-76.59,85.93-80l1,17.64S67.63-59.49,69.39-29.95V-30l21.36-1.27.76,12.79Z"/><path class="cls-5" d="M55.37,79.1s-.26,4.75,3.39,5.06"/><path class="cls-5" d="M88.06,77.17s.75,4.7-2.85,5.39"/><path class="cls-6" d="M64.79,46.15S50.17,49,50.93,63.68c0,0-3.16-21.66,3.88-22,2.61-.14,3.19,4.13,3.32,6.59"/><path class="cls-5" d="M53.41,65.16a4,4,0,0,0-5,.26"/><ellipse class="cls-7" cx="81.01" cy="70.26" rx="4.52" ry="8.35" transform="translate(-4.04 4.94) rotate(-3.41)"/><ellipse class="cls-8" cx="80.88" cy="75.37" rx="1.43" ry="2.21" transform="translate(-4.34 4.94) rotate(-3.41)"/><ellipse class="cls-7" cx="63.21" cy="71.55" rx="4.52" ry="8.35" transform="translate(-4.14 3.89) rotate(-3.41)"/><ellipse class="cls-8" cx="63.08" cy="76.66" rx="1.43" ry="2.21" transform="translate(-4.45 3.89) rotate(-3.41)"/></g></svg>