<svg data-name="Layer 1" xmlns="http://www.w3.org/2000/svg" viewBox="0 0 150 150"><defs><clipPath id="a"><path style="fill:none" d="M25.83 0h98.34v125.92H25.83z"/></clipPath></defs><g style="clip-path:url(#a)"><path style="stroke-linejoin:round;fill:#c5c6c8;stroke:#909395" d="m82.83 44.16 4.01-51.09M82.84 48.16h-.32a4 4 0 0 1-3.67-4.3l4-51.1a4 4 0 0 1 4.3-3.67 4 4 0 0 1 3.68 4.3l-4 51.09a4 4 0 0 1-3.99 3.68ZM68.07 48.36a3.85 3.85 0 0 1 1.82 2.13 3.91 3.91 0 0 1-2.36 5c-.73.27-17.06 6.56-23 31.07a3.91 3.91 0 1 1-7.6-1.85c7-28.84 27.14-36.29 28-36.59a3.92 3.92 0 0 1 3.14.24ZM72.36 94.37c-6.22 7.27-2.22 23.6-2.22 23.6l-7.38 5.91 15.62-.66s-6-22.32 1.49-26.86M94.41 81.63c9.36 2 16.12 17.38 16.12 17.38l9.45.2-12.8 9s-8.79-21.39-17.52-20.43"/><path transform="rotate(-17.6 64.1 24.31)" style="stroke:#70327e;fill:#f063a4;stroke-linejoin:round" d="M48.47 8.71h31.22v31.22H48.47z"/><path d="M60.25 63.86 55.92 50.2l29.75-9.44 8.47 26.68s8.73 24.89-20.8 34.26l-2.88-9.08s9.73-4.05 4.91-19.26l-11 3.49-2.08-6.55Z" style="stroke:#70327e;fill:#f063a4;stroke-linejoin:round"/><path d="M70.88 23.17a3.51 3.51 0 0 1 1.72-.11 14.89 14.89 0 0 0-.72-3.88c-1-3.3-2.82-5.69-3.95-5.33s-1.2 3.33-.15 6.63a15 15 0 0 0 1.64 3.59 3.41 3.41 0 0 1 1.46-.9Z" style="fill:#70327e"/><path d="M56.18 18.08s-1-2.35.75-3.2M71.4 13.25s-.51-2.51-2.46-2.18" style="stroke-linecap:round;stroke:#70327e;stroke-linejoin:round;fill:none"/><path d="M67.17 32.91s-7.92 1.33-10.31-6.22c0 0 2.5 11.54 6.13 10.39 1.34-.43.83-2.69.43-4" style="stroke-linecap:round;fill:#70327e;stroke:#70327e;stroke-linejoin:round"/><path d="M69.13 24.44a3.24 3.24 0 0 1 3.92-1.24" style="stroke-linecap:round;stroke:#70327e;stroke-linejoin:round;fill:none"/><path d="M63.23 25.59a3.63 3.63 0 0 1 1.72-.1 15 15 0 0 0-.73-3.88c-1-3.3-2.81-5.69-3.94-5.33s-1.2 3.33-.15 6.63a15 15 0 0 0 1.64 3.59 3.52 3.52 0 0 1 1.46-.91Z" style="fill:#70327e"/><path d="M61.47 26.87a3.25 3.25 0 0 1 3.92-1.24M57.83 25.48a2.16 2.16 0 0 1-2.6.83" style="stroke-linecap:round;stroke:#70327e;stroke-linejoin:round;fill:none"/><ellipse cx="61.07" cy="19.96" rx="1" ry="1.45" transform="rotate(-15.66 61.087 19.96)" style="fill:#fff"/><ellipse cx="68.59" cy="17.7" rx="1" ry="1.45" transform="rotate(-15.66 68.586 17.693)" style="fill:#fff"/></g></svg>