<svg id="Layer_1" data-name="Layer 1" xmlns="http://www.w3.org/2000/svg" xmlns:xlink="http://www.w3.org/1999/xlink" viewBox="0 0 150 150"><defs><style>.cls-1,.cls-12,.cls-7,.cls-9{fill:none;}.cls-2{clip-path:url(#clip-path);}.cls-14,.cls-3{fill:#c5c6c8;stroke:#909395;}.cls-10,.cls-12,.cls-13,.cls-14,.cls-3{stroke-linejoin:round;}.cls-4{fill:#52245c;}.cls-5{fill:#9253a1;}.cls-13,.cls-6{fill:#70327e;}.cls-7{stroke:#fff;opacity:0.36;}.cls-7,.cls-9{stroke-miterlimit:10;}.cls-8{fill:#636466;}.cls-9{stroke:#9253a1;}.cls-10{fill:#f063a4;}.cls-10,.cls-12,.cls-13{stroke:#70327e;}.cls-11{clip-path:url(#clip-path-2);}.cls-12,.cls-13,.cls-14{stroke-linecap:round;}.cls-15{fill:#fff;}</style><clipPath id="clip-path"><rect class="cls-1" x="12.57" width="124.86" height="150"/></clipPath><clipPath id="clip-path-2"><rect class="cls-1" x="31.15" y="78.08" width="79.43" height="94.47"/></clipPath></defs><g class="cls-2"><path class="cls-3" d="M106.33,144a5,5,0,0,1-3-9.37c16.62-8.9,17.3-14.4,17.11-15.87-.39-3-7-8.86-19.94-12a5,5,0,0,1,2.32-9.73,72.12,72.12,0,0,1,12.29,4.35c9.3,4.34,14.42,9.74,15.25,16.06,1.14,8.83-6.16,17.32-22.31,26A5.18,5.18,0,0,1,106.33,144Z"/><path class="cls-3" d="M55.38,99.8A5,5,0,0,1,52.6,99C23,79.07,24.89,33,25.17,31.59A5,5,0,0,1,35,33.54c-.23,1.2-.76,41,23.19,57.11a5,5,0,0,1-2.79,9.15Z"/><path class="cls-4" d="M15.62,17h2.65a0,0,0,0,1,0,0v3.27a.85.85,0,0,1-.85.85h-1a.85.85,0,0,1-.85-.85V17a0,0,0,0,1,0,0Z" transform="translate(42.34 21.19) rotate(136.58)"/><rect class="cls-5" x="26.19" y="19.19" width="5.43" height="24.93" transform="translate(-13.85 28.53) rotate(-43.42)"/><path class="cls-6" d="M37.18,40.27H40a.9.9,0,0,1,.9.9v2.34a0,0,0,0,1,0,0H36.29a0,0,0,0,1,0,0V41.17a.9.9,0,0,1,.9-.9Z" transform="translate(95.4 45.8) rotate(136.58)"/><line class="cls-7" x1="21.45" y1="21.55" x2="38.59" y2="39.66"/><rect class="cls-8" x="17.36" y="20.13" width="3.99" height="2.87" transform="translate(48.23 23.93) rotate(136.58)"/><line class="cls-9" x1="18.93" y1="19.76" x2="17.12" y2="17.85"/><rect class="cls-10" x="61.7" y="25.52" width="53.11" height="53.11" transform="translate(162.94 122.23) rotate(-167.33)"/><g class="cls-11"><path class="cls-10" d="M100.53,118.54l5.35-23.79L54.06,83.1,43.61,129.57S32.46,173,83.87,184.6l3.55-15.81s-17.08-5.45-11.13-31.93v0l19.15,4.31L98,129.75Z"/></g><path class="cls-6" d="M76.55,51.11a6,6,0,0,0-2.93.07,25.81,25.81,0,0,1,.66-6.67c1.3-5.75,3.94-10.06,5.92-9.62s2.52,5.47,1.22,11.22a25.2,25.2,0,0,1-2.26,6.32A6,6,0,0,0,76.55,51.11Z"/><path class="cls-12" d="M100.74,40.33S102.14,36.21,99,35"/><path class="cls-12" d="M74.23,34.37s.5-4.33,3.85-4"/><path class="cls-13" d="M84.27,67.09S97.89,68.18,100.85,55c0,0-2.57,19.92-8.88,18.5-2.34-.53-1.8-4.44-1.3-6.65"/><path class="cls-12" d="M79.72,53a5.52,5.52,0,0,0-6.83-1.53"/><path class="cls-6" d="M89.88,54.11a6,6,0,0,0-2.93.07,25.77,25.77,0,0,1,.66-6.67c1.3-5.76,3.94-10.06,5.91-9.62S96,43.36,94.75,49.11a25,25,0,0,1-2.26,6.31A6,6,0,0,0,89.88,54.11Z"/><path class="cls-12" d="M93,56a5.51,5.51,0,0,0-6.82-1.54"/><path class="cls-12" d="M99,53.13a3.66,3.66,0,0,0,4.52,1"/><path class="cls-14" d="M28.52,38.5l-1.29-3.45a3.41,3.41,0,1,1,6.38-2.4l1.3,3.45a3.41,3.41,0,0,1-2,4.39"/><ellipse class="cls-15" cx="90.61" cy="45.29" rx="2.22" ry="1.54" transform="translate(26.93 124.08) rotate(-77.61)"/><ellipse class="cls-15" cx="77.18" cy="41.99" rx="2.22" ry="1.54" transform="translate(19.61 108.37) rotate(-77.61)"/></g></svg>