<svg data-name="Layer 1" xmlns="http://www.w3.org/2000/svg" viewBox="0 0 150 150"><path d="M68.94 90.1a6.77 6.77 0 0 1-1.09-.1c-8.08-1.26-12.92-12.7-14-16.61a4 4 0 1 1 7.72-2.09c1 3.8 4.55 9.85 7.16 10.72 1.51-1.12 4.07-6.5 5.44-11.52a4 4 0 1 1 7.72 2.1c-1.45 5.4-5.57 17.5-12.95 17.5ZM120.75 96.59c-3.41 0-6.46-.63-7.73-3.38a4.93 4.93 0 0 1 1-5.49l.08-.09c7-6.86 8-10.56 7.49-11.66-.73-1.63-6.25-3.14-12.56-2.72a4 4 0 0 1-.54-8c2.77-.19 16.73-.71 20.39 7.41 2 4.4.37 9.7-4.93 16.08a4 4 0 0 1-1.11 7.77c-.7.06-1.4.08-2.09.08Z" style="stroke-linejoin:round;fill:#c5c6c8;stroke:#909395"/><path d="M126.17 85.83a40 40 0 0 1-5.35 6.17" style="stroke-linecap:round;stroke-linejoin:round;fill:#c5c6c8;stroke:#909395"/><path style="stroke-linejoin:round;fill:#c5c6c8;stroke:#909395" d="M84.59 116.61v25.23l-9.64 7.65h17.64v-32.88h-8z"/><path style="stroke-linejoin:round;fill:#c5c6c8;stroke:#909395" d="M95.89 116.61v25.23l-9.63 7.65h17.63v-32.88h-8z"/><path style="stroke:#70327e;fill:#70327e;stroke-linejoin:round" d="M66.74 103.62H29.21L20.3 53.25h37.52l8.92 50.37z"/><path style="fill:#fff" d="M64.28 101.35h-33.4l-8.2-46.32h33.4l8.2 46.32z"/><path d="M47.54 58.78h-15a4.43 4.43 0 0 1-4-3.7l-.7-4a.46.46 0 0 1 .43-.59h20.65a.7.7 0 0 1 .64.59l.7 4c.36 2.04-.86 3.7-2.72 3.7Z" style="fill:#70327e"/><path style="stroke-miterlimit:10;stroke:#929497;fill:none" d="M35.73 70.85h-6.68l-1.29-7.31h6.68l1.29 7.31zM37.94 82.65h-6.68l-1.3-7.3h6.68l1.3 7.3zM40.14 94.46h-6.68l-1.29-7.31h6.68l1.29 7.31z"/><path style="fill:#929497;opacity:.25" d="M55.46 70.85H39.03l-1.29-7.31h16.42l1.3 7.31zM57.66 82.65H41.23l-1.29-7.3h16.43l1.29 7.3zM59.87 94.46H43.44l-1.29-7.31h16.42l1.3 7.31z"/><ellipse cx="59.55" cy="71.29" rx="3.19" ry="2.34" transform="rotate(-33.2 59.54 71.158)" style="fill:#c5c7c9;stroke:#929497;stroke-linecap:round;stroke-linejoin:round"/><path transform="rotate(180 93.945 38.84)" style="fill:#f063a4;stroke:#70327e;stroke-linejoin:round" d="M75.43 20.33h37.03v37.03H75.43z"/><path d="M112.46 82.17v-17h-37v33.2s-.94 31.28 35.8 31.28v-11.3s-12.45-1.1-12.45-20h13.68V82.17Z" style="fill:#f063a4;stroke:#70327e;stroke-linejoin:round"/><path d="M84.18 2.25h20.2a11.06 11.06 0 0 1 11.06 11.06v12h0-42.32 0v-12A11.06 11.06 0 0 1 84.18 2.25Z" transform="rotate(4.44 94.314 13.782)" style="fill:#2dc5f4;stroke:#70327e;stroke-linecap:round;stroke-linejoin:round"/><path d="M93.51 2.16A11.06 11.06 0 0 1 103.69 14l-.93 12" style="stroke-width:.9px;fill:none;stroke:#70327e;stroke-linecap:round;stroke-linejoin:round"/><path style="fill:none;stroke:#70327e;stroke-linecap:round;stroke-linejoin:round" d="m76.7 24.01-27.8-2.16"/><path d="M83.15 11.17a.11.11 0 0 1-.11.06h-.17l-.54 2.56H82.1l-1.88-.23H80v-2.58h-.19a.11.11 0 0 1-.09-.08l-.18-.55a.12.12 0 0 1 0-.1.16.16 0 0 1 .11-.05l3.68.39a.09.09 0 0 1 .09.06.12.12 0 0 1 0 .1ZM81.7 17.82a1 1 0 0 0-.75-.07l-.17.08.31-.56 2.44.21v.32c0 .1 0 .21.07.31a.85.85 0 0 0-.25-.17 1 1 0 0 0-1.24.34 1 1 0 0 0-.41-.46ZM77.89 18.73l1.24-1.62h.45l.62.05h.72l-.6 1-.07.11-.06.1-.27.48a.11.11 0 0 1-.11.06H78a.09.09 0 0 1-.09-.06.11.11 0 0 1-.02-.12Z" style="fill:#fff"/><path d="m89.35 11.62.31-.47a.11.11 0 0 0 0-.11.09.09 0 0 0-.08-.06l-5.47-.7a.08.08 0 0 0-.08 0 .09.09 0 0 0 0 .08L83.86 14v.16l-4.38-.53a.09.09 0 0 0-.11.07l-.59 1.43a.13.13 0 0 0 0 .06l.22 1.66a.11.11 0 0 0 .07.09h2.12l2.35.2v-.11a.49.49 0 0 1 0-.12.43.43 0 0 1 0-.11.3.3 0 0 1 0-.1 2.49 2.49 0 0 1 .19-.62l.17-.08v-.07l.07-.12a2.83 2.83 0 0 1 4.43-.34l.1.11.09.12ZM81 14.55a.09.09 0 0 1 .1-.09.09.09 0 0 1 .09.11L81 16.39a.11.11 0 0 1-.11.09.12.12 0 0 1-.09-.11Zm.57 0a.11.11 0 0 1 .1-.09.08.08 0 0 1 .08.1l-.2 1.83a.09.09 0 0 1-.1.08.09.09 0 0 1-.08-.11Zm-1.16 1.76a.08.08 0 0 1-.1.08.09.09 0 0 1-.09-.1l.21-1.83a.08.08 0 0 1 .1-.08.09.09 0 0 1 .09.1Zm-.57-.05a.1.1 0 0 1-.1.09.1.1 0 0 1-.09-.11l.2-1.82a.11.11 0 0 1 .11-.09.12.12 0 0 1 .09.11Zm8.49-4.58-.45 2.51a5.79 5.79 0 0 0-1.31-.19 4.94 4.94 0 0 0-1.82.19l.06-2.87Z" style="fill:#fff"/><path d="M83.83 17.76a2.61 2.61 0 0 0 .29.84.75.75 0 0 0 .07.12l.07.12a2.58 2.58 0 0 0 1.91 1.1 2.27 2.27 0 0 0 .58 0A2.57 2.57 0 0 0 88.91 17a2.51 2.51 0 0 0-.34-1 .8.8 0 0 0-.09-.14.94.94 0 0 0-.09-.12 2.56 2.56 0 0 0-4.39.6s0 .09 0 .13a2.5 2.5 0 0 0-.07.26.19.19 0 0 0 0 .07V17.39a2.46 2.46 0 0 0-.1.37Zm.73.55-.09-.21a1.72 1.72 0 0 1-.07-.21h.32l.61-.09a1 1 0 0 0 .23.37l-.4.54-.16.22a2.25 2.25 0 0 1-.34-.41Zm.78.82.16-.22.4-.53a1.24 1.24 0 0 0 .39.1l.1.66v.27a2 2 0 0 1-1.05-.28Zm1.54.22v-.27l-.1-.66a1 1 0 0 0 .37-.22l.54.39.22.17a2.06 2.06 0 0 1-1.03.59Zm1.46-2.48h-.25l-.66.09a1.07 1.07 0 0 0-.22-.37l.39-.53.17-.22a1.94 1.94 0 0 1 .5.72 1.43 1.43 0 0 1 .08.22s-.01.08-.01.09Zm-2.47-1.46v.28l.09.65a1.1 1.1 0 0 0-.37.23l-.53-.4-.18-.17a2 2 0 0 1 .99-.59Zm-1.25.94.22.16.54.4a1.19 1.19 0 0 0-.1.32s0 .07 0 .1h-.06l-.45.06H84.35v-.53a1.82 1.82 0 0 1 .27-.51Zm.88 1v-.05a.07.07 0 0 1 0-.05 1.17 1.17 0 0 1 0-.2 1 1 0 0 1 .26-.35 1.16 1.16 0 0 1 .22-.13.7.7 0 0 1 .4-.06 1.14 1.14 0 0 1 .25.06.93.93 0 0 1 .19.11.71.71 0 0 1 .15.15.61.61 0 0 1 .13.22.66.66 0 0 1 .06.2.62.62 0 0 1 0 .13v.12a.52.52 0 0 1 0 .11.76.76 0 0 1 0 .11.64.64 0 0 1-.1.18l-.15.16a1 1 0 0 1-.22.13l-.21.06a.74.74 0 0 1-.21 0 .71.71 0 0 1-.25-.06.87.87 0 0 1-.35-.25 1.59 1.59 0 0 1-.13-.22l-.06-.21v-.15Zm1-2a2.27 2.27 0 0 1 .88.28l-.17.22-.39.54a1.09 1.09 0 0 0-.42-.11l-.1-.66v-.27Zm1.59 3.07-.22-.17-.53-.39a2.25 2.25 0 0 0 .08-.24s0-.07 0-.11v-.08h.15l.5-.07H88.3a2 2 0 0 1-.18 1.06ZM83.26 18.65a.32.32 0 0 0-.11-.12.49.49 0 0 0-.17-.06h-.72a.78.78 0 0 1 .42-.36.82.82 0 0 1 1 .49.5.5 0 0 1 0 .12v.11a.91.91 0 0 1-.08.37.79.79 0 0 1-.8.46.8.8 0 0 1-.69-.51h.73a.36.36 0 0 0 .38-.33.19.19 0 0 0 0-.08.25.25 0 0 0 .04-.09ZM80.48 18.43a.76.76 0 0 1 0-.11.78.78 0 0 1 .48-.39.81.81 0 0 1 .61.06.78.78 0 0 1 .38.42h-.73a.35.35 0 0 0-.3.13.24.24 0 0 0-.06.11.29.29 0 0 0 0 .09.36.36 0 0 0 .33.38h.72a.79.79 0 0 1-.76.4.9.9 0 0 1-.32-.09.78.78 0 0 1-.39-.48.74.74 0 0 1 0-.39.26.26 0 0 1 .04-.13ZM81.36 9.45a.11.11 0 0 1-.08.08.44.44 0 0 0-.34.29s0 .07-.09.06a.09.09 0 0 1-.09-.07.44.44 0 0 0-.29-.34.1.1 0 0 1-.06-.1.08.08 0 0 1 .07-.08.47.47 0 0 0 .35-.29.09.09 0 0 1 .09-.06A.08.08 0 0 1 81 9a.46.46 0 0 0 .3.35.1.1 0 0 1 .06.1ZM83.1 7.68a.47.47 0 0 0-.35.29.08.08 0 0 1-.09.06.08.08 0 0 1-.08-.03.44.44 0 0 0-.29-.34.1.1 0 0 1-.06-.1.08.08 0 0 1 .07-.08.44.44 0 0 0 .34-.29.09.09 0 0 1 .1-.06.08.08 0 0 1 .08.07.44.44 0 0 0 .29.34.11.11 0 0 1 .06.1.08.08 0 0 1-.07.04ZM81.64 7.94a.19.19 0 0 1 0-.38.19.19 0 1 1 0 .38ZM80.94 8.43a.12.12 0 0 1-.11-.13.11.11 0 0 1 .17-.11.11.11 0 0 1 .11.13.12.12 0 0 1-.17.11ZM82.35 8.92a.24.24 0 0 1-.25.22.24.24 0 0 1-.22-.26.23.23 0 0 1 .25-.21.24.24 0 0 1 .22.25Z" style="fill:#fff"/><path style="fill:none;stroke:#70327e;stroke-linecap:round;stroke-linejoin:round" d="m96.87 1.56-3.47-.27M94 65.58s-3.21 19.11-10.62 19.11c-5.41 0-6.79-19.11-6.79-19.11"/><circle cx="83.83" cy="87.39" r="3.01" style="fill:#70327e"/><path style="fill:#70327e" d="M80.82 87.39h2.4v6.97h-2.4z"/><path d="M81.52 87.18a2.1 2.1 0 0 1 2.1-2.09M81.4 90.92v2.67" style="stroke:#fff;stroke-width:.36px;fill:none;stroke-linecap:round;stroke-linejoin:round"/><ellipse cx="82.57" cy="35.91" rx="2.99" ry="6.15" style="fill:#662d91"/><path d="M94.71 35.91c0 3.4-1.34 6.15-3 6.15s-3-2.75-3-6.15a10 10 0 0 1 1-4.56c.53-1 1.24.15 2 .15s1.52-1.11 2-.08a10.07 10.07 0 0 1 1 4.49Z" style="fill:#662d91"/><path style="stroke:#662d91;fill:none;stroke-linecap:round;stroke-linejoin:round" d="M79 30.12h6.46M88.36 31.43h6.45M83.98 43.37l5.93.68"/><ellipse cx="80.87" cy="34.42" rx=".84" ry="1.51" style="fill:#fff"/><ellipse cx="90.24" cy="34.42" rx=".84" ry="1.51" style="fill:#fff"/><path style="fill:#f063a4" d="m88.01 37.83 7.67-1.16v5.2l-6.62.73-1.05-4.77z"/><path style="stroke:#662d91;fill:none;stroke-linecap:round;stroke-linejoin:round" d="m88.21 37.29 7.45-.08"/></svg>