<svg data-name="Layer 1" xmlns="http://www.w3.org/2000/svg" viewBox="0 0 150 150"><path style="stroke-linejoin:round;fill:#c5c6c8;stroke:#909395" d="M63.42 116.58v25.24l-9.64 7.64h17.64v-32.88h-8zM86.35 116.58v25.24l9.64 7.64H78.35v-32.88h8z"/><path transform="rotate(.55 75.145 28.809)" style="stroke:#70327e;fill:#f063a4;stroke-linejoin:round" d="M57.28 10.84h35.37v35.37H57.28z"/><path d="M56.88 69.74 57 50.88l35.36.34-.3 34.34s.61 29.88-34.48 29.54l.1-10.79s11.91-.93 12.08-19l-13.07-.13.08-7.82Z" style="stroke:#70327e;fill:#f063a4;stroke-linejoin:round"/><path d="M75.69 63s-1.41-6.5-17.44-8.46C46.32 53.08 35.36 40.23 34.7 38.81c-.07 0-.19.34-.32.42s-.55-.33-.68-.23-.1.53-.25.55c-.67.1-1-.37-.85.09.23.64-.48-.23-.79 0-.55.34.06.46-.4.86-.23.2-.57-.15-.77 0s.14.42-.08.65-.57 0-.68.15.15.57 0 .78-.43-.18-.52-.08.08.5-.07.68-.48-.19-.62 0 0 .75-.1.87-.37-.22-.59-.08-.05.49-.14.59a1.06 1.06 0 0 1-.57.37l42 20.9 6.36.39Z" style="stroke:#2dc5f4;fill:#fff;stroke-linejoin:round"/><path d="M75.69 63s3-7 19.08-8.53c12-1.15 23.26-13.71 24-15.11.07 0 .18.34.31.43s.55-.32.69-.22.08.54.23.57c.67.11 1-.35.85.1-.25.64.48-.21.79 0 .54.35-.07.46.37.86.23.21.58-.13.78.08s-.16.41.06.65.57.05.67.17-.16.56 0 .78.44-.17.52-.07-.09.5.06.68.48-.17.61 0 0 .75.08.88.38-.22.59-.07 0 .49.13.59a1.13 1.13 0 0 0 .56.39L83.42 65.84l-8.32-.48Z" style="stroke:#2dc5f4;fill:#fff;stroke-linejoin:round"/><path style="stroke:#2dc5f4;fill:#fff;stroke-linejoin:round" d="M125.98 106.97 81.3 127.11l.48-61.63 44.68-20.15-.48 61.64zM24.35 105.77l44.37 21.19.47-61.63-44.37-21.19-.47 61.63z"/><path style="stroke:#2dc5f4;fill:#fff;stroke-linejoin:round" d="m81.3 127.11-12.58-.15.47-61.63 12.59.15-.48 61.63z"/><text transform="matrix(-.01 1.05 -1 -.01 73.78 72.12)" style="fill:#2dc5f4;font-family:Museo-900,Museo;font-weight:900;font-size:5.47px"><tspan style="letter-spacing:-.03em">r</tspan><tspan x="2.32" y="0">andom numbers</tspan></text><text transform="matrix(.91 -.38 -.01 1 86.76 81.18)" style="font-size:13.32px;fill:#2dc5f4;font-family:Museo-900,Museo;font-weight:900">7<tspan x="7.45" y="0" style="letter-spacing:0">3</tspan><tspan x="15.08" y="0">735</tspan><tspan x="0" y="11.85">4</tspan><tspan x="8.13" y="11.85" style="letter-spacing:0">5</tspan><tspan x="16.3" y="11.85" style="letter-spacing:0">9</tspan><tspan x="24.1" y="11.85" style="letter-spacing:0">6</tspan><tspan x="31.85" y="11.85">3</tspan><tspan x="0" y="23.71" style="letter-spacing:-.01em">7</tspan><tspan x="7.36" y="23.71">8</tspan><tspan x="15.26" y="23.71" style="letter-spacing:0">1</tspan><tspan x="22.92" y="23.71">34</tspan><tspan x="0" y="35.56" style="letter-spacing:0">6</tspan><tspan x="7.74" y="35.56">3</tspan><tspan x="15.44" y="35.56" style="letter-spacing:-.01em">8</tspan><tspan x="23.19" y="35.56" style="letter-spacing:0">73</tspan></text><ellipse cx="126.33" cy="83.54" rx="6.29" ry="4.9" transform="rotate(-89.45 126.328 83.54)" style="stroke-linejoin:round;fill:#c5c6c8;stroke:#909395"/><text transform="matrix(.76 .37 -.04 1 30.4 63.59)" style="font-size:15.02px;fill:#2dc5f4;font-family:Museo-900,Museo;font-weight:900"><tspan style="letter-spacing:-.01em">1<tspan x="8.59" y="0" style="letter-spacing:0">5838</tspan></tspan><tspan x="0" y="13.36">99</tspan><tspan x="17.6" y="13.36" style="letter-spacing:0">9</tspan><tspan x="26.33" y="13.36">82</tspan><tspan x="0" y="26.72">30</tspan><tspan x="17.99" y="26.72" style="letter-spacing:-.01em">5</tspan><tspan x="27.14" y="26.72" style="letter-spacing:0">00</tspan><tspan x="0" y="40.08" style="letter-spacing:-.01em">5</tspan><tspan x="9.1" y="40.08">38</tspan><tspan x="26.69" y="40.08" style="letter-spacing:-.01em">6</tspan><tspan x="35.35" y="40.08">7</tspan></text><ellipse cx="23.68" cy="66.34" rx="4.9" ry="6.29" transform="rotate(-5.74 23.673 66.277)" style="stroke-linejoin:round;fill:#c5c6c8;stroke:#909395"/><ellipse cx="66.55" cy="31.89" rx="6.39" ry="3.92" transform="rotate(-89.4 66.562 31.887)" style="fill:#70327e"/><ellipse cx="79.18" cy="32.02" rx="6.39" ry="3.92" transform="rotate(-89.45 79.175 32.016)" style="fill:#70327e"/><path d="M78.63 20.19s7-1 7.29 6.5M61.75 25.83l8.97.09" style="fill:none;stroke-linecap:round;stroke:#70327e;stroke-linejoin:round"/><ellipse cx="65.75" cy="33.1" rx="1.93" ry="1.33" transform="rotate(-89.4 65.764 33.097)" style="fill:#fff"/><ellipse cx="78.6" cy="33.39" rx="1.93" ry="1.33" transform="rotate(-89.45 78.599 33.386)" style="fill:#fff"/><ellipse cx="66.49" cy="37.54" rx="3.7" ry="5.61" transform="rotate(-89.45 66.495 37.538)" style="fill:#f063a4"/><ellipse cx="79.12" cy="37.66" rx="3.7" ry="5.61" transform="rotate(-89.45 79.121 37.664)" style="fill:#f063a4"/><path d="M69.86 40.16c-1.31-4.61 7.62-.73 7.62-.73" style="fill:none;stroke-linecap:round;stroke:#70327e;stroke-linejoin:round"/></svg>