<?xml version="1.0" encoding="UTF-8"?><svg id="a" xmlns="http://www.w3.org/2000/svg" xmlns:xlink="http://www.w3.org/1999/xlink" viewBox="0 0 150 150"><defs><style>.d,.e,.f,.g{fill:none;}.h,.i,.e{stroke-linecap:round;}.h,.i,.e,.j,.k{stroke-linejoin:round;}.h,.e,.j{stroke:#70327e;}.h,.l{fill:#70327e;}.i,.k{fill:#c5c6c8;stroke:#909395;}.m{fill:#fff;}.n{fill:#9253a1;}.o{fill:#636466;}.p{fill:#52245c;}.f{opacity:.36;stroke:#fff;}.f,.g{stroke-miterlimit:10;}.g{stroke:#9253a1;}.q{clip-path:url(#c);}.r{clip-path:url(#b);}.j{fill:#f063a4;}</style><clipPath id="b"><rect class="d" x="12.57" width="124.86" height="150"/></clipPath><clipPath id="c"><rect class="d" x="31.15" y="78.08" width="79.43" height="94.47"/></clipPath></defs><g class="r"><path class="k" d="M106.33,144.01c-2,.26-4.05-.71-5.06-2.6-1.3-2.43-.39-5.46,2.05-6.77,16.63-8.91,17.3-14.4,17.11-15.87-.39-2.99-6.99-8.87-19.94-11.97-2.68-.64-4.34-3.34-3.7-6.02,.64-2.68,3.33-4.34,6.02-3.7,.25,.06,6.15,1.48,12.3,4.35,9.29,4.34,14.42,9.74,15.24,16.06,1.15,8.83-6.15,17.32-22.3,25.97-.55,.29-1.13,.47-1.71,.55Z"/><path class="k" d="M55.38,99.8c-.96,0-1.93-.28-2.78-.85C22.97,79.07,24.89,32.98,25.17,31.59c.54-2.71,3.18-4.47,5.88-3.92,2.7,.54,4.46,3.17,3.92,5.87-.23,1.2-.76,41.03,23.19,57.1,2.29,1.54,2.91,4.64,1.37,6.94-.96,1.44-2.55,2.21-4.16,2.22Z"/><g><path class="p" d="M15.62,16.97h2.65v3.27c0,.47-.38,.85-.85,.85h-.96c-.47,0-.85-.38-.85-.85v-3.27h0Z" transform="translate(42.34 21.19) rotate(136.58)"/><g><rect class="n" x="26.19" y="19.19" width="5.43" height="24.93" transform="translate(-13.85 28.53) rotate(-43.42)"/><path class="l" d="M37.18,40.27h2.8c.49,0,.9,.4,.9,.9v2.34h-4.59v-2.34c0-.49,.4-.9,.9-.9Z" transform="translate(95.4 45.8) rotate(136.58)"/><line class="f" x1="21.45" y1="21.55" x2="38.59" y2="39.66"/></g><rect class="o" x="17.36" y="20.13" width="3.99" height="2.87" transform="translate(48.23 23.93) rotate(136.58)"/><line class="g" x1="18.93" y1="19.76" x2="17.12" y2="17.85"/></g><g><rect class="j" x="61.7" y="25.52" width="53.11" height="53.11" transform="translate(162.94 122.23) rotate(-167.33)"/><g class="q"><path class="j" d="M100.53,118.54l5.35-23.79-51.82-11.65-10.45,46.47s-11.16,43.47,40.26,55.03l3.55-15.81s-17.08-5.45-11.13-31.93v.05l19.14,4.31,2.58-11.46,2.52-11.22Z"/></g><path class="l" d="M76.55,51.11c-1.02-.23-2.02-.18-2.93,.07-.09-1.9,.11-4.2,.66-6.67,1.29-5.75,3.94-10.06,5.91-9.61s2.52,5.47,1.23,11.22c-.56,2.47-1.37,4.64-2.26,6.31-.71-.61-1.59-1.08-2.61-1.31Z"/><path class="e" d="M100.74,40.33s1.41-4.12-1.74-5.31"/><path class="e" d="M74.23,34.37s.5-4.33,3.85-4.05"/><path class="h" d="M84.27,67.09s13.62,1.08,16.58-12.05c0,0-2.56,19.91-8.87,18.5-2.34-.53-1.8-4.44-1.31-6.65"/><path class="e" d="M79.72,53.02s-2.59-3.52-6.83-1.53"/><path class="l" d="M89.88,54.11c-1.02-.23-2.02-.18-2.93,.07-.09-1.9,.11-4.2,.66-6.67,1.29-5.75,3.94-10.06,5.91-9.61,1.97,.44,2.52,5.47,1.23,11.22-.56,2.47-1.37,4.64-2.26,6.31-.71-.61-1.59-1.08-2.61-1.31Z"/><path class="e" d="M93.04,56.02s-2.59-3.52-6.83-1.53"/><path class="e" d="M99.02,53.13s1.72,2.33,4.52,1.02"/></g><path class="i" d="M28.52,38.5l-1.3-3.45c-.66-1.76,.23-3.73,1.99-4.39,1.76-.66,3.73,.23,4.39,1.99l1.3,3.45c.66,1.76-.23,3.73-1.99,4.39"/><ellipse class="m" cx="90.61" cy="45.29" rx="2.22" ry="1.54" transform="translate(26.93 124.08) rotate(-77.61)"/><ellipse class="m" cx="77.18" cy="41.99" rx="2.22" ry="1.54" transform="translate(19.61 108.37) rotate(-77.61)"/></g></svg>