<?xml version="1.0" encoding="utf-8"?>
<!-- Generator: Adobe Illustrator 26.2.1, SVG Export Plug-In . SVG Version: 6.00 Build 0)  -->
<svg version="1.1" id="Layer_1" xmlns="http://www.w3.org/2000/svg" xmlns:xlink="http://www.w3.org/1999/xlink" x="0px" y="0px"
	 viewBox="60 0 90 150" style="enable-background:new 0 0 500 150;" xml:space="preserve">
<style type="text/css">
	.st0{fill:#C5C6C8;stroke:#909395;stroke-linejoin:round;stroke-miterlimit:10;}
	.st1{fill:#C5C6C8;stroke:#909395;stroke-linecap:round;stroke-linejoin:round;stroke-miterlimit:10;}
	.st2{fill:#F063A4;stroke:#70327E;stroke-linejoin:round;stroke-miterlimit:10;}
	.st3{fill:#662D91;}
	.st4{fill:#FFFFFF;}
	.st5{fill:#662D91;stroke:#662D91;stroke-linecap:round;stroke-linejoin:round;stroke-miterlimit:10;}
</style>
<g>
	<g>
		<path class="st0" d="M92.4,74c-5.5-0.3-14-1.8-20.4-8c-6.5-6.4-9.1-16-7.6-28.5c0.3-2.2,2.2-3.8,4.4-3.5c2.2,0.3,3.8,2.2,3.5,4.4
			c-1.1,9.9,0.6,17.3,5.3,21.8c7.2,7.1,19.3,5.7,19.4,5.6c2.2-0.3,4.2,1.3,4.5,3.5c0.3,2.2-1.3,4.2-3.4,4.5
			C97.8,73.8,95.6,74.1,92.4,74z"/>
	</g>
	<g>
		<g>
			<path class="st0" d="M133.1,96.3c-3.4,0-6.5-0.6-7.7-3.4c-0.8-1.8-0.4-4,1-5.5c0,0,0.1-0.1,0.1-0.1c7-6.9,8-10.6,7.5-11.7
				c-0.7-1.6-6.2-3.1-12.6-2.7c-2.2,0.1-4.1-1.5-4.3-3.7s1.5-4.1,3.7-4.3c2.8-0.2,16.7-0.7,20.4,7.4c2,4.4,0.4,9.7-4.9,16.1
				c1.5,0.5,2.6,1.9,2.7,3.6c0.1,2.2-1.6,4.1-3.8,4.2C134.5,96.3,133.8,96.3,133.1,96.3z"/>
		</g>
		<path class="st1" d="M138.5,85.6c0,0-2,3-5.4,6.1"/>
	</g>
	<polygon class="st0" points="99.4,116.3 99.4,141.6 89.7,149.2 107.4,149.2 107.4,116.3 	"/>
	<polygon class="st0" points="111.6,116.3 111.6,141.6 108.7,149.2 123,149.2 119.6,141.6 119.6,116.3 	"/>
	
		<rect x="88.4" y="20.1" transform="matrix(-1 4.485022e-11 -4.485022e-11 -1 213.9184 77.1494)" class="st2" width="37" height="37"/>
	<path class="st2" d="M125.5,81.9v-17h-37v33.2c0,0-0.9,31.3,35.8,31.3c0-6.7,0-11.3,0-11.3s-12.5-1.1-12.5-20v0h13.7v-8.2V81.9z"/>
	<g>
		<g>
			<ellipse class="st3" cx="101" cy="35.7" rx="3" ry="6.2"/>
			<ellipse class="st4" cx="101" cy="34.2" rx="0.8" ry="1.5"/>
		</g>
		<g>
			<ellipse class="st3" cx="113" cy="35.7" rx="3" ry="6.2"/>
			<ellipse class="st4" cx="113" cy="34.2" rx="0.8" ry="1.5"/>
		</g>
	</g>
	<path class="st5" d="M108.3,44.7c0,0-7.8,1.2-11.3-2.4c-0.3,2.9,0,10.4,4.6,10.6c4,0.1,3.7-7.4,3.7-7.4"/>
</g>
</svg>
