<svg xmlns="http://www.w3.org/2000/svg" viewBox="0 0 150 150"><path d="M63.42 116.58v25.24l-9.64 7.64h17.64v-32.88zm22.93 0v25.24l9.64 7.64H78.35v-32.88z" style="stroke-linejoin:round;fill:#c5c6c8;stroke:#909395"/><path d="M57.28 10.84h35.37v35.37H57.28z" style="stroke-linejoin:round;stroke:#70327e;fill:#f063a4" transform="rotate(.55 75.145 28.809)"/><path d="m56.88 69.74.16-18.86 35.37.34-.31 34.35s.61 29.88-34.48 29.54l.1-10.79s11.9-.93 12.08-19v.04l-13.07-.13.08-7.82.07-7.66Z" style="stroke-linejoin:round;stroke:#70327e;fill:#f063a4"/><path d="M75.69 63s-1.41-6.51-17.44-8.46C46.31 53.08 35.36 40.23 34.7 38.81c-.07.02-.2.34-.32.43s-.55-.33-.69-.24c-.2.14-.1.54-.24.56-.68.09-1.02-.37-.86.08.23.65-.47-.23-.79-.03-.54.34.06.46-.39.85-.23.2-.57-.15-.77.06s.14.42-.08.65c-.1.11-.57.04-.67.15-.19.21.14.56-.04.78-.09.1-.44-.18-.52-.08-.16.19.07.5-.08.68-.17.2-.47-.19-.62-.01-.13.15 0 .76-.1.88-.09.11-.37-.22-.58-.08-.09.06-.06.49-.14.59-.25.3-.57.37-.57.37l41.96 20.9 6.37.39.13-2.71Z" style="stroke-linejoin:round;fill:#fff;stroke:#2dc5f4"/><path d="M75.69 62.97s3.01-7 19.08-8.53c11.97-1.14 23.26-13.7 23.96-15.11.07.02.19.34.31.43s.56-.32.69-.22c.2.14.09.54.23.56.67.11 1.03-.34.86.11-.25.64.48-.22.79-.01.53.35-.07.46.37.86.23.21.57-.13.77.08s-.15.41.06.65c.1.11.57.05.67.17.18.21-.16.56.02.78.08.1.44-.17.52-.07.16.19-.09.5.06.68.16.21.48-.17.62 0 .12.16-.01.76.08.88.08.11.37-.21.59-.06.09.06.05.49.13.59.25.31.56.39.56.39L83.43 65.84l-8.32-.49.59-2.39Z" style="stroke-linejoin:round;fill:#fff;stroke:#2dc5f4"/><path d="M125.98 106.97 81.3 127.11l.48-61.63 44.68-20.15zm-101.63-1.2 44.36 21.19.48-61.63-44.37-21.19z" style="stroke-linejoin:round;fill:#fff;stroke:#2dc5f4"/><path d="m81.3 127.11-12.59-.15.48-61.63 12.59.15z" style="stroke-linejoin:round;fill:#fff;stroke:#2dc5f4"/><path d="M75.68 72.6q.12 0 .12-.12v-.22h.79v.89c0 .27-.11.42-.37.42h-.15c-.09 0-.14-.01-.14-.01.38.14.7.52.69.96 0 .06-.01.12-.01.12h-.93s.02-.09.02-.21c0-.24-.07-.62-.49-.77-.1-.04-.23-.05-.38-.06h-1.07v-1.01l1.91.02Zm-.16 3.86v.04h.03c.27 0 .37-.13.37-.37 0-.13-.02-.26-.13-.26h-.13v-.92h.32c.63.01.65.85.65 1.19 0 1.04-.51 1.37-1.16 1.36h-.82c-.08-.01-.12.03-.12.11v.22h-.79v-.87c0-.29.18-.39.3-.39h.05s-.41-.22-.4-.84c0-.55.36-1 .91-1 .84 0 .92 1.27.92 1.73m-1.11-.45c0 .26.26.49.49.49h.04v-.09c0-.32-.08-.68-.3-.68-.13 0-.24.08-.24.28Zm1.23 2.38q.12 0 .12-.12v-.22h.79v.9c0 .27-.14.41-.33.41h-.11c.22.15.48.43.48.95 0 .6-.27 1.06-1.06 1.05h-.91c-.08-.01-.12.03-.12.11v.22h-.79v-.93c0-.29.13-.42.41-.42h1.25c.26.02.37-.09.37-.31 0-.31-.16-.5-.4-.59-.11-.04-.23-.06-.37-.06h-1.25v-1.01l1.91.02Zm.94 4.92c0 .6-.2.77-.2.77h.32q.12 0 .12-.12v-.22h.79v.93c0 .29-.13.42-.41.42l-2.59-.03q-.12 0-.12.12v.22h-.79v-.89c0-.28.15-.38.28-.38h.05s-.38-.26-.38-.87c0-.81.61-1.33 1.48-1.32.89.01 1.47.58 1.46 1.37Zm-1.48.79c.34 0 .67-.18.68-.57 0-.31-.24-.58-.67-.59-.42 0-.69.23-.7.57 0 .3.2.58.69.59m1.45 3.25c0 .94-.61 1.67-1.49 1.66s-1.46-.76-1.45-1.69c0-.93.6-1.67 1.48-1.66.88 0 1.48.76 1.47 1.69Zm-2.16-.02c0 .36.25.68.67.68.43 0 .7-.3.7-.67 0-.36-.26-.68-.69-.68-.42 0-.68.3-.68.67m1.16 2.29q.12 0 .12-.12v-.22h.79v.9c0 .27-.14.41-.33.41h-.11c.2.15.48.42.48.88 0 .37-.16.67-.48.82.23.17.47.52.47.96 0 .54-.29.96-1.06.95h-.91c-.08-.01-.12.03-.12.11v.22h-.79v-.93c0-.29.13-.42.41-.42h1.27c.21.02.36-.02.36-.21 0-.3-.23-.47-.54-.54-.1-.03-.2-.04-.32-.04h-1.16v-1.01l1.67.02c.21 0 .36-.04.36-.23 0-.29-.21-.46-.51-.54-.1-.02-.22-.04-.34-.04h-1.16v-1.01l1.91.02Zm-.05 6.97q.12 0 .12-.12v-.22h.79v.9c0 .27-.14.41-.33.41h-.11c.22.15.48.43.48.95 0 .6-.27 1.06-1.06 1.05h-.91c-.08-.01-.12.03-.12.11v.22h-.79v-.93c0-.29.13-.42.41-.42h1.25c.26.02.37-.09.37-.31 0-.31-.16-.5-.4-.59-.11-.04-.23-.06-.37-.06h-1.25v-1.01l1.91.02Zm-.03 3.85c.08 0 .12-.05.12-.13v-.22h.79v.93c0 .29-.13.42-.41.42h-1.25c-.26-.02-.37.09-.37.3 0 .43.35.63.77.64h1.25v1.01l-1.91-.02q-.12 0-.12.12v.22h-.79v-.89c0-.27.14-.42.33-.42h.11c-.3-.18-.48-.54-.48-.94 0-.59.27-1.05 1.06-1.04h.91Zm-.03 3.84q.12 0 .12-.12v-.22h.79v.9c0 .27-.14.41-.33.41h-.11c.2.15.48.42.48.88 0 .37-.16.67-.48.82.23.17.47.52.47.96 0 .54-.29.96-1.06.95h-.91c-.08-.01-.12.03-.12.11v.22h-.79v-.93c0-.29.13-.42.41-.42h1.27c.21.02.36-.02.36-.21 0-.3-.23-.47-.54-.54-.1-.03-.2-.04-.32-.04h-1.16v-1.01l1.67.02c.21 0 .36-.04.36-.23 0-.29-.21-.46-.51-.54-.1-.02-.22-.04-.34-.04h-1.16v-1.01l1.91.02Zm1.05 5.47c.08 0 .12-.04.12-.13v-.22h.79v.93c0 .29-.13.42-.41.42h-.66c-.14 0-.24-.02-.24-.02s.27.29.27.81c0 .8-.61 1.33-1.49 1.32-.89-.01-1.46-.61-1.46-1.4 0-.55.3-.81.3-.81h-.23v-.93l3 .04Zm-2.29 1.52c0 .31.24.58.67.59.42 0 .69-.23.7-.57 0-.3-.2-.58-.69-.59-.34 0-.67.18-.68.57m2.14 3.43c0 .87-.59 1.36-1.37 1.35-.09 0-.28-.03-.28-.03v-1.87c-.34.07-.5.37-.5.68 0 .43.29.79.29.79l-.64.39s-.44-.48-.44-1.27c0-1.06.74-1.62 1.49-1.61.83 0 1.47.6 1.46 1.56Zm-1.07.34c.17 0 .36-.14.36-.35 0-.29-.15-.43-.36-.5zm.07 1.67q.12 0 .12-.12v-.22h.79v.89c0 .27-.11.42-.37.42h-.15c-.09 0-.14-.01-.14-.01.38.14.7.52.69.96 0 .06-.01.12-.01.12h-.93s.02-.09.02-.21c0-.24-.07-.62-.49-.77-.1-.04-.23-.05-.38-.06h-1.07v-1.01l1.91.02Zm-.86 2.69s-.41.41-.41.86c0 .14.04.22.13.23.23 0 .32-1.48 1.23-1.47.61 0 .86.6.86 1.23 0 .48-.14 1.15-.65 1.14h-.33v-.87h.14c.08 0 .13-.12.13-.27 0-.14-.04-.27-.13-.27-.29 0-.26 1.5-1.21 1.49-.57 0-.91-.53-.9-1.22 0-.85.52-1.31.52-1.31l.6.45Zm16.04-46.42c.33-.78.57-1.1.57-1.1v-.03s-.12.09-.56.27l-1.3.54c-.17.07-.27.22-.27.4v.52l-1.95.8v-1.84c.02-.68.18-1.04.8-1.29l5.68-2.34v1.62l-4.08 9.56-2.36.97 3.49-8.1Zm4.41 1.86s.81.61 2.03.11c.72-.3 1.12-.88 1.13-1.41 0-.51-.48-.72-1.27-.39l-.62.26-.42-.96.97-2.04c.36-.76.69-1.17.69-1.17v-.03s-.28.18-.83.41l-.18.08c-.17.07-.27.22-.27.4v.52l-1.95.8v-1.84c.02-.68.18-1.04.8-1.29l5-2.06v1.45l-1.6 2.95c1.24-.21 1.9.69 1.9 1.96-.01 1.56-1.09 3.62-3.31 4.54-2.02.83-3.09-.07-3.09-.07l1.04-2.22Zm9.39-7.55c.33-.78.57-1.1.57-1.1v-.03s-.12.09-.56.27l-1.3.54c-.17.07-.27.22-.27.4v.52l-1.95.8v-1.84c.02-.68.18-1.04.8-1.29l5.68-2.34v1.62l-4.08 9.56-2.36.98 3.49-8.1Zm4.41 1.86s.81.61 2.03.11c.72-.3 1.12-.88 1.13-1.41 0-.51-.48-.72-1.27-.39l-.62.26-.42-.96.97-2.04c.36-.76.69-1.17.69-1.17v-.03s-.28.18-.83.41l-.18.08c-.17.07-.27.22-.27.4v.52l-1.95.8v-1.84c.02-.68.18-1.04.8-1.29l5-2.06v1.45l-1.6 2.95c1.24-.21 1.9.69 1.9 1.96-.01 1.56-1.09 3.63-3.31 4.54-2.02.83-3.09-.07-3.09-.07l1.04-2.22Zm7.21-2.95s.84.57 2.03.08c.76-.31 1.16-1.01 1.17-1.58 0-.87-.77-.84-1.59-.5-.93.38-1.61 1.02-1.61 1.02l-.66-.13.3-4.32c.05-.7.27-1.08.9-1.34l3.49-1.44c.62-.26.89-.07.88.61v1.84l-1.96.8v-.52c0-.19-.09-.25-.26-.18l-.85.35c-.17.07-.26.21-.27.4l-.04.67c-.01.19-.04.39-.04.39h.02s.31-.19.62-.32c2.18-.9 3.29.04 3.28 1.8-.01 1.64-1.13 3.73-3.39 4.66-1.93.79-3.03-.04-3.03-.04zM86.95 89.22l3.16-7.09 2.65-1.09-.03 5.29 1.29-.53v2l-1.31.53-.02 2.24-2.18.9.02-2.24-3.58 1.48v-1.48Zm3.64-3.68c0-.52.08-1.16.08-1.16h-.02s-.22.69-.43 1.17l-.62 1.44c-.21.49-.42.81-.42.81v.03s.35-.19.79-.37l.61-.25v-1.66Zm5.06.85s.83.57 2.03.08c.76-.31 1.16-1.01 1.17-1.58 0-.87-.77-.84-1.59-.5-.93.38-1.61 1.02-1.61 1.02l-.66-.13.3-4.32c.05-.7.27-1.08.9-1.34l3.49-1.44c.62-.26.89-.07.88.61v1.84l-1.96.8v-.52c0-.19-.09-.25-.26-.18l-.85.35c-.17.07-.26.21-.27.4l-.04.67c-.01.19-.04.39-.04.39h.02s.31-.19.62-.32c2.18-.9 3.29.04 3.28 1.8-.01 1.64-1.13 3.73-3.39 4.66-1.93.79-3.03-.04-3.03-.04zm7.26-2.29s.57.04 1.19-.21c1-.41 1.59-1.35 1.86-2.34h-.02c-.2.25-.76.66-1.17.83-1.82.75-2.84-.45-2.83-2.09.01-1.61 1.11-3.66 2.99-4.44 1.76-.72 3.53-.03 3.51 3.03-.02 2.61-1.49 5.95-4.19 7.07-1.22.5-1.92.38-1.92.38l.59-2.23Zm3.31-4.77c0-1.13-.69-1.6-1.3-1.35-.54.22-.88.87-.88 1.43 0 .68.37 1.24 1.31.86.46-.19.88-.49.88-.93Zm2.85.16c.02-2.61 1.49-5.95 4.19-7.07 1.22-.5 1.92-.38 1.92-.38l-.59 2.23s-.57-.04-1.19.21c-1 .41-1.59 1.34-1.86 2.33h.02c.21-.25.76-.65 1.17-.83 1.82-.75 2.84.45 2.83 2.09-.01 1.61-1.11 3.66-3 4.44-1.75.72-3.53.03-3.5-3.03Zm3.52.9c.54-.22.88-.87.88-1.43 0-.68-.37-1.24-1.31-.86-.46.19-.88.49-.88.93 0 1.13.69 1.6 1.3 1.35Zm4.58-2.9s.81.61 2.03.11c.72-.3 1.12-.88 1.13-1.41 0-.51-.48-.72-1.27-.39l-.62.26-.42-.96.97-2.04c.36-.76.69-1.17.69-1.17v-.03s-.28.18-.83.41l-.18.08c-.17.07-.27.22-.27.4v.52l-1.95.8v-1.84c.02-.68.18-1.04.8-1.29l5-2.06v1.45l-1.6 2.95c1.24-.21 1.9.69 1.9 1.96-.01 1.56-1.09 3.63-3.31 4.54-2.02.83-3.09-.07-3.09-.07l1.04-2.22Zm-26.8 19.19c.33-.78.57-1.1.57-1.1v-.03s-.12.09-.56.27l-1.3.54c-.17.07-.27.22-.27.4v.52l-1.95.8v-1.84c.02-.68.18-1.04.8-1.29l5.68-2.34v1.62l-4.09 9.56-2.36.97 3.49-8.1Zm4.49-.24v-.03s-.78-.32-.77-1.53c0-1.4 1.04-3.17 2.93-3.94 1.74-.72 2.91 0 2.9 1.53 0 1.24-.79 2.33-.79 2.33v.03c.72.25 1.05.92 1.05 1.73 0 1.45-1.2 3.39-3.27 4.25-1.9.78-3.22.01-3.21-1.64 0-1.35 1.17-2.73 1.17-2.73Zm2.05 2.24c.63-.26 1.06-.81 1.07-1.33 0-.43-.4-.53-.93-.57-.36-.04-.5-.06-.61-.02-.26.11-.58.8-.58 1.36 0 .59.41.83 1.05.56m.48-4.06c.24-.1.45-.64.46-1.12 0-.48-.34-.63-.84-.43-.52.22-.83.66-.83 1.01 0 .39.32.52.79.55.1.01.32.03.43-.02Zm3.96 2.2 1.83-.75.03-3.97c0-.36.02-.74.02-.74h-.02s-.11.32-.34.66l-.53.74-1.22-.93 2.37-3.38 1.94-.8-.05 7.53 1.84-.76v2l-5.86 2.41v-2Zm7.57-4.11s.81.61 2.03.11c.72-.3 1.12-.88 1.13-1.41 0-.51-.48-.72-1.27-.39l-.62.26-.42-.96.97-2.04c.36-.76.69-1.17.69-1.17v-.03s-.28.18-.83.41l-.18.08c-.17.07-.27.22-.27.4v.52l-1.95.8v-1.84c.02-.68.18-1.04.8-1.29l5-2.06v1.45l-1.6 2.95c1.24-.21 1.9.69 1.9 1.96-.01 1.56-1.09 3.63-3.31 4.54-2.02.83-3.09-.07-3.09-.07l1.04-2.22Zm5.96-3.18 3.16-7.09 2.65-1.09-.04 5.29 1.29-.53v2l-1.31.53-.02 2.24-2.18.9.02-2.24-3.58 1.48v-1.48Zm3.64-3.68c0-.52.08-1.16.08-1.16h-.02s-.22.69-.43 1.17l-.62 1.44c-.21.48-.42.81-.42.81v.03s.35-.19.79-.37l.61-.25v-1.67Zm-31.65 26.43c.02-2.61 1.49-5.95 4.19-7.07 1.22-.5 1.92-.38 1.92-.38l-.59 2.23s-.57-.04-1.19.21c-1 .41-1.59 1.35-1.86 2.34h.02c.21-.25.76-.66 1.17-.83 1.82-.75 2.84.45 2.83 2.09-.01 1.61-1.11 3.66-3 4.44-1.76.72-3.53.03-3.51-3.03Zm3.52.9c.54-.22.88-.87.88-1.43 0-.68-.37-1.24-1.31-.86-.46.19-.88.5-.88.93 0 1.13.69 1.6 1.3 1.35Zm4.58-2.89s.81.61 2.03.11c.72-.3 1.12-.88 1.13-1.41 0-.51-.48-.72-1.27-.39l-.62.26-.42-.96.97-2.04c.36-.76.69-1.17.69-1.17v-.03s-.28.18-.83.41l-.18.08c-.17.07-.27.22-.27.4v.52l-1.95.8v-1.84c.02-.68.18-1.04.8-1.29l5-2.06v1.45l-1.6 2.95c1.24-.21 1.9.69 1.9 1.96-.01 1.56-1.09 3.63-3.31 4.54-2.02.83-3.09-.07-3.09-.07l1.04-2.22Zm7.21-5.05v-.03s-.78-.32-.77-1.53c0-1.4 1.04-3.17 2.93-3.95 1.74-.72 2.91 0 2.9 1.53 0 1.24-.79 2.33-.79 2.33v.03c.72.25 1.05.92 1.05 1.73 0 1.45-1.2 3.39-3.27 4.25-1.9.78-3.22.01-3.21-1.64 0-1.35 1.17-2.73 1.17-2.73Zm2.05 2.24c.63-.26 1.06-.81 1.07-1.33 0-.43-.4-.53-.93-.57-.36-.04-.5-.06-.61-.02-.26.11-.58.8-.58 1.36 0 .59.41.83 1.05.56m.48-4.06c.24-.1.45-.64.46-1.12 0-.48-.34-.63-.84-.43-.52.22-.83.66-.83 1.01 0 .38.32.52.79.55.1.01.32.03.43-.02Zm6.78-3.63c.33-.78.57-1.1.57-1.1v-.03s-.12.09-.56.27l-1.3.54c-.17.07-.27.22-.27.4v.52l-1.95.8v-1.84c.02-.68.18-1.04.8-1.29l5.68-2.34v1.62l-4.08 9.56-2.36.97 3.49-8.1Zm4.41 1.87s.81.61 2.03.11c.72-.3 1.12-.88 1.13-1.41 0-.51-.48-.72-1.27-.39l-.62.26-.42-.96.97-2.04c.36-.76.69-1.17.69-1.17v-.03s-.28.18-.83.41l-.18.08c-.17.07-.27.22-.27.4v.52l-1.95.8V96.4c.02-.68.18-1.04.8-1.29l5-2.06v1.45l-1.6 2.95c1.24-.21 1.9.69 1.9 1.96-.01 1.56-1.09 3.62-3.31 4.54-2.02.83-3.09-.07-3.09-.07l1.04-2.22Z" style="fill:#2dc5f4"/><ellipse cx="126.33" cy="83.54" rx="6.29" ry="4.9" style="stroke-linejoin:round;fill:#c5c6c8;stroke:#909395" transform="rotate(-89.45 126.328 83.54)"/><path d="m31.23 61.7 1.71.84.19-4.47c.02-.41.05-.82.05-.82h-.02s-.12.24-.34.4l-.51.34-1.08-2.18 2.31-1.64 1.81.89-.35 8.48 1.72.84-.09 2.25-5.47-2.68.09-2.25Zm7.25 2.45s.74 1.42 1.86 1.97c.71.35 1.11-.07 1.13-.71.04-.98-.67-1.66-1.44-2.04-.87-.42-1.52-.33-1.52-.33l-.6-.75.45-4.62c.08-.74.3-.97.88-.69l3.26 1.6c.58.29.82.74.79 1.5l-.09 2.07-1.82-.89.02-.58c0-.21-.08-.38-.24-.45l-.8-.39c-.16-.08-.24 0-.26.21l-.06.72c-.02.2-.05.4-.05.4h.02s.29.09.58.24c2.04 1 3.02 3.09 2.94 5.07-.08 1.85-1.19 3.18-3.3 2.15-1.8-.88-2.78-2.85-2.78-2.85l1.02-1.61Zm7.11 1.06v-.03s-.7-1.08-.64-2.44c.07-1.58 1.09-2.62 2.85-1.75 1.63.8 2.67 2.69 2.6 4.41-.06 1.39-.82 1.91-.82 1.91v.03c.65.95.93 2.02.89 2.93-.07 1.63-1.24 2.73-3.18 1.78-1.78-.87-2.96-2.96-2.88-4.83.06-1.51 1.19-2 1.19-2Zm1.79 4.43c.59.29 1.01.07 1.03-.52.02-.48-.34-.96-.83-1.51-.33-.38-.46-.53-.56-.58-.24-.12-.56.37-.59 1-.03.66.34 1.32.94 1.61Zm.6-4.16c.23.11.44-.3.47-.84.02-.54-.28-1.03-.75-1.26-.49-.24-.79-.02-.81.37-.02.43.28.89.7 1.35.09.1.29.33.39.38m4.12 5.32s.72 1.44 1.86 2c.67.33 1.07.05 1.09-.55.02-.57-.41-1.26-1.15-1.62l-.58-.29-.35-1.47.98-1.4c.36-.53.68-.69.68-.69v-.03s-.26-.05-.78-.3l-.17-.08c-.16-.08-.26 0-.26.21l-.02.58-1.82-.89.09-2.07c.03-.77.19-1.02.77-.74l4.67 2.29-.07 1.63-1.58 1.87c1.15.92 1.72 2.54 1.66 3.97-.07 1.75-1.15 3.09-3.23 2.08-1.89-.93-2.83-2.93-2.83-2.93l1.04-1.56Zm6.84.96v-.03s-.7-1.08-.64-2.44c.07-1.58 1.09-2.62 2.85-1.75 1.63.8 2.67 2.69 2.6 4.41-.06 1.4-.82 1.91-.82 1.91v.03c.65.95.93 2.02.89 2.93-.07 1.63-1.24 2.73-3.18 1.78-1.78-.87-2.96-2.97-2.88-4.83.06-1.52 1.19-2 1.19-2Zm1.79 4.43c.59.29 1.01.07 1.03-.52.02-.48-.34-.96-.83-1.51-.33-.38-.46-.53-.56-.58-.24-.12-.56.37-.59 1-.03.66.34 1.32.94 1.61Zm.6-4.16c.23.11.44-.3.47-.84.02-.54-.28-1.03-.75-1.26-.49-.24-.79-.02-.81.37-.02.44.28.89.7 1.35.09.1.29.33.39.38M31.17 75s.52.58 1.1.86c.94.46 1.51-.05 1.81-.92h-.02c-.19.08-.72.02-1.11-.17-1.7-.83-2.59-3.14-2.51-4.98.08-1.82 1.17-3.12 2.93-2.25 1.64.8 3.24 3.23 3.09 6.68-.12 2.94-1.61 5.37-4.14 4.12-1.14-.56-1.78-1.35-1.78-1.35zm3.24-2.33c.05-1.27-.57-2.45-1.14-2.73-.5-.25-.84.17-.87.8-.03.76.29 1.75 1.17 2.18.43.21.83.25.85-.24Zm3.44 5.61s.52.58 1.1.86c.93.46 1.51-.05 1.81-.92h-.02c-.19.08-.72.02-1.11-.17-1.7-.83-2.59-3.14-2.51-4.98.08-1.82 1.17-3.12 2.93-2.25 1.64.8 3.24 3.23 3.09 6.68-.12 2.94-1.61 5.37-4.14 4.12-1.14-.56-1.78-1.35-1.78-1.35zm3.24-2.33c.05-1.28-.57-2.45-1.14-2.73-.5-.25-.84.17-.87.8-.03.76.29 1.75 1.17 2.18.43.21.83.25.85-.24Zm3.44 5.6s.52.58 1.1.86c.94.46 1.51-.05 1.81-.92h-.02c-.19.08-.72.02-1.11-.17-1.7-.83-2.59-3.14-2.51-4.98.08-1.82 1.17-3.12 2.93-2.25 1.64.8 3.24 3.23 3.09 6.68-.12 2.94-1.61 5.37-4.14 4.12-1.14-.56-1.78-1.35-1.78-1.35zm3.24-2.33c.05-1.28-.57-2.46-1.14-2.73-.5-.25-.84.17-.87.8-.03.76.29 1.75 1.17 2.18.43.21.83.25.85-.24Zm3.7 2.5v-.03s-.7-1.08-.64-2.44c.07-1.58 1.09-2.62 2.85-1.75 1.63.8 2.67 2.69 2.6 4.41-.06 1.39-.82 1.91-.82 1.91v.03c.65.95.93 2.02.89 2.93-.07 1.63-1.24 2.73-3.18 1.78-1.78-.87-2.96-2.97-2.88-4.83.06-1.51 1.19-2 1.19-2Zm1.79 4.43c.59.29 1.01.07 1.03-.52.02-.48-.34-.96-.83-1.51-.33-.38-.45-.53-.56-.58-.24-.12-.56.37-.59 1-.03.66.34 1.31.94 1.61Zm.6-4.16c.23.11.44-.3.47-.84.02-.54-.28-1.03-.75-1.26-.49-.24-.79-.02-.81.37-.02.44.28.89.7 1.35.09.11.29.33.39.38m7.07 2.46c.03-.6-.32-1.07-.77-1.3-.51-.25-.78-.03-.79.24l-.02.44-1.82-.89.05-1.26c.06-1.48 1.55-1.5 2.76-.91 1.33.65 2.74 2.41 2.64 4.65-.15 3.53-3.81 2.17-3.86 3.36 0 .18.08.27.33.39l1.58.78c.16.08.26 0 .26-.21l.02-.58 1.82.89-.09 2.07c-.03.76-.3.97-.88.69l-4.38-2.15c-.84-.41-.9-.95-.85-2.15.16-3.82 3.88-1.88 3.97-4.05Zm-30.25 3.09s.72 1.44 1.86 2c.67.33 1.07.05 1.09-.55.02-.57-.41-1.26-1.15-1.62l-.58-.29-.35-1.47.98-1.4c.36-.53.68-.69.68-.69v-.03s-.26-.05-.78-.3l-.17-.08c-.16-.08-.26 0-.27.21l-.02.58-1.82-.89.09-2.07c.03-.76.19-1.02.78-.74l4.67 2.29-.07 1.64L34.04 86c1.15.92 1.72 2.54 1.66 3.97-.07 1.76-1.15 3.09-3.23 2.08-1.89-.93-2.83-2.93-2.83-2.93l1.04-1.55Zm5.89.82c.13-3.07.98-5.15 3.3-4.02 2.31 1.13 2.96 3.95 2.84 7.02s-.99 5.2-3.3 4.06c-2.31-1.13-2.96-3.99-2.83-7.07Zm4.08 2c.07-1.74-.1-3.23-.88-3.62s-1.07.88-1.15 2.62c-.07 1.76.1 3.28.88 3.66s1.07-.91 1.15-2.67Zm3.85 3.98s.74 1.42 1.86 1.97c.71.35 1.11-.07 1.13-.71.04-.97-.67-1.66-1.44-2.04-.87-.42-1.52-.33-1.52-.33l-.6-.75.45-4.62c.08-.74.3-.97.88-.69l3.26 1.6c.58.29.82.74.79 1.5l-.09 2.07-1.82-.89.02-.59c0-.21-.08-.37-.24-.45l-.8-.39c-.16-.08-.24 0-.27.21l-.06.72c-.02.21-.05.4-.05.4h.02s.29.09.58.24c2.04 1 3.02 3.09 2.94 5.07-.08 1.85-1.19 3.18-3.3 2.15-1.8-.88-2.78-2.85-2.78-2.85l1.02-1.61Zm6.08.89c.13-3.08.98-5.15 3.3-4.02s2.96 3.95 2.84 7.02-.99 5.2-3.3 4.06-2.96-3.99-2.83-7.07Zm4.08 2c.07-1.74-.1-3.23-.88-3.62s-1.07.88-1.15 2.62c-.07 1.75.1 3.28.88 3.66.79.39 1.07-.91 1.15-2.67Zm2.99 1.46c.13-3.08.98-5.15 3.3-4.02s2.96 3.95 2.84 7.02c-.13 3.08-.99 5.2-3.3 4.06s-2.96-3.99-2.83-7.07Zm4.08 2c.07-1.74-.1-3.23-.88-3.62s-1.07.88-1.15 2.62c-.07 1.75.1 3.28.88 3.66s1.07-.91 1.15-2.67Zm-31.45.31s.74 1.42 1.86 1.97c.71.35 1.11-.07 1.14-.71.04-.97-.67-1.66-1.44-2.04-.87-.42-1.52-.33-1.52-.33l-.6-.75.45-4.62c.08-.74.3-.97.88-.69l3.26 1.6c.58.28.82.74.79 1.5L35.01 99l-1.82-.89.02-.58c0-.21-.08-.38-.24-.45l-.8-.39c-.16-.08-.24 0-.26.21l-.06.72c-.02.2-.05.4-.05.4h.02s.29.09.58.24c2.04 1 3.02 3.09 2.94 5.07-.08 1.85-1.19 3.18-3.3 2.15-1.8-.88-2.78-2.85-2.78-2.85l1.02-1.61Zm6.75 3.28s.72 1.44 1.86 2c.67.33 1.07.05 1.09-.55.02-.57-.41-1.26-1.15-1.62l-.58-.29-.35-1.47.98-1.4c.36-.53.68-.69.68-.69v-.03s-.26-.05-.78-.3l-.17-.08c-.16-.08-.26 0-.26.21l-.02.58-1.82-.89.09-2.07c.03-.76.19-1.02.78-.74l4.67 2.29-.07 1.63-1.58 1.87c1.15.92 1.72 2.54 1.66 3.97-.07 1.76-1.15 3.09-3.23 2.08-1.89-.93-2.83-2.93-2.83-2.93l1.04-1.56Zm6.83.96v-.03s-.7-1.08-.64-2.44c.07-1.58 1.09-2.62 2.85-1.75 1.63.8 2.67 2.69 2.6 4.41-.06 1.39-.82 1.91-.82 1.91v.03c.65.94.93 2.02.89 2.93-.07 1.63-1.24 2.73-3.18 1.78-1.78-.87-2.96-2.96-2.88-4.83.06-1.51 1.19-2 1.19-2Zm1.79 4.43c.59.29 1.01.07 1.03-.52.02-.48-.34-.96-.83-1.51-.33-.38-.45-.53-.56-.58-.24-.12-.56.37-.59 1-.03.66.34 1.32.94 1.61Zm.6-4.16c.23.11.44-.3.47-.84s-.28-1.03-.75-1.25c-.49-.24-.79-.02-.81.37-.02.44.28.89.7 1.35.09.1.29.33.39.38Zm3.24 3.32c.12-2.94 1.61-5.37 4.14-4.12 1.14.56 1.78 1.35 1.78 1.35l-.63 1.99s-.52-.58-1.1-.86c-.94-.46-1.51.05-1.81.92h.02c.2-.07.72-.02 1.11.17 1.7.83 2.59 3.14 2.51 4.98-.08 1.81-1.17 3.12-2.93 2.25-1.64-.8-3.24-3.23-3.09-6.68m3.19 4.28c.5.25.84-.17.87-.8.03-.76-.29-1.75-1.17-2.18-.43-.21-.83-.25-.85.24-.05 1.28.57 2.46 1.14 2.73Zm6.67-2.13c.34-.57.56-.72.56-.72v-.03s-.11-.01-.52-.21l-1.22-.6c-.16-.08-.26 0-.26.21l-.02.58-1.82-.89.09-2.07c.03-.77.19-1.02.78-.74l5.31 2.6-.08 1.83-4.13 7.05-2.21-1.08 3.54-5.94Z" style="fill:#2dc5f4"/><ellipse cx="23.68" cy="66.34" rx="4.9" ry="6.29" style="stroke-linejoin:round;fill:#c5c6c8;stroke:#909395" transform="rotate(-5.74 23.673 66.277)"/><ellipse cx="66.55" cy="31.89" rx="6.39" ry="3.92" style="fill:#70327e" transform="rotate(-89.45 66.543 31.896)"/><ellipse cx="79.18" cy="32.02" rx="6.39" ry="3.92" style="fill:#70327e" transform="rotate(-89.45 79.175 32.016)"/><path d="M78.63 20.19s7.02-.99 7.29 6.5m-24.17-.86 8.97.09" style="fill:none;stroke-linecap:round;stroke-linejoin:round;stroke:#70327e"/><ellipse cx="65.75" cy="33.1" rx="1.93" ry="1.33" style="fill:#fff" transform="rotate(-89.45 65.745 33.106)"/><ellipse cx="78.6" cy="33.39" rx="1.93" ry="1.33" style="fill:#fff" transform="rotate(-89.45 78.599 33.386)"/><ellipse cx="66.49" cy="37.54" rx="3.7" ry="5.61" style="fill:#f063a4" transform="rotate(-89.45 66.495 37.538)"/><ellipse cx="79.12" cy="37.66" rx="3.7" ry="5.61" style="fill:#f063a4" transform="rotate(-89.45 79.121 37.664)"/><path d="M69.86 40.16c-1.31-4.62 7.62-.73 7.62-.73" style="fill:none;stroke-linecap:round;stroke-linejoin:round;stroke:#70327e"/></svg>