<svg data-name="Layer 1" xmlns="http://www.w3.org/2000/svg" viewBox="0 0 150 150"><defs><clipPath id="a"><path style="fill:none" d="M12.57 0h124.86v150H12.57z"/></clipPath><clipPath id="b"><path style="fill:none" d="M31.15 78.08h79.43v94.47H31.15z"/></clipPath></defs><g style="clip-path:url(#a)"><path d="M106.33 144a5 5 0 0 1-3-9.37c16.62-8.9 17.3-14.4 17.11-15.87-.39-3-7-8.86-19.94-12a5 5 0 0 1 2.32-9.73 72.12 72.12 0 0 1 12.29 4.35c9.3 4.34 14.42 9.74 15.25 16.06 1.14 8.83-6.16 17.32-22.31 26a5.18 5.18 0 0 1-1.72.56ZM55.38 99.8a5 5 0 0 1-2.78-.8C23 79.07 24.89 33 25.17 31.59A5 5 0 0 1 35 33.54c-.23 1.2-.76 41 23.19 57.11a5 5 0 0 1-2.79 9.15Z" style="stroke-linejoin:round;fill:#c5c6c8;stroke:#909395"/><path d="M15.62 17h2.65v3.27a.85.85 0 0 1-.85.85h-1a.85.85 0 0 1-.85-.85V17Z" transform="rotate(136.58 16.952 19.024)" style="fill:#52245c"/><path transform="rotate(-43.42 28.903 31.658)" style="fill:#9253a1" d="M26.19 19.19h5.43v24.93h-5.43z"/><path d="M37.18 40.27H40a.9.9 0 0 1 .9.9v2.34h-4.61v-2.34a.9.9 0 0 1 .9-.9Z" transform="rotate(136.58 38.582 41.892)" style="fill:#70327e"/><path style="stroke-miterlimit:10;stroke:#fff;opacity:.36;fill:none" d="m21.45 21.55 17.14 18.11"/><path transform="rotate(136.58 19.351 21.566)" style="fill:#636466" d="M17.36 20.13h3.99V23h-3.99z"/><path style="stroke:#9253a1;stroke-miterlimit:10;fill:none" d="m18.93 19.76-1.81-1.91"/><path transform="rotate(-167.33 88.255 52.07)" style="stroke:#70327e;fill:#f063a4;stroke-linejoin:round" d="M61.7 25.52h53.11v53.11H61.7z"/><g style="clip-path:url(#b)"><path d="m100.53 118.54 5.35-23.79L54.06 83.1l-10.45 46.47S32.46 173 83.87 184.6l3.55-15.81s-17.08-5.45-11.13-31.93l19.15 4.31L98 129.75Z" style="stroke:#70327e;fill:#f063a4;stroke-linejoin:round"/></g><path d="M76.55 51.11a6 6 0 0 0-2.93.07 25.81 25.81 0 0 1 .66-6.67c1.3-5.75 3.94-10.06 5.92-9.62s2.52 5.47 1.22 11.22a25.2 25.2 0 0 1-2.26 6.32 6 6 0 0 0-2.61-1.32Z" style="fill:#70327e"/><path d="M100.74 40.33s1.4-4.12-1.74-5.33M74.23 34.37s.5-4.33 3.85-4" style="stroke-linecap:round;stroke:#70327e;stroke-linejoin:round;fill:none"/><path d="M84.27 67.09S97.89 68.18 100.85 55c0 0-2.57 19.92-8.88 18.5-2.34-.53-1.8-4.44-1.3-6.65" style="stroke-linecap:round;stroke:#70327e;fill:#70327e;stroke-linejoin:round"/><path d="M79.72 53a5.52 5.52 0 0 0-6.83-1.53" style="stroke-linecap:round;stroke:#70327e;stroke-linejoin:round;fill:none"/><path d="M89.88 54.11a6 6 0 0 0-2.93.07 25.77 25.77 0 0 1 .66-6.67c1.3-5.76 3.94-10.06 5.91-9.62s2.48 5.47 1.23 11.22a25 25 0 0 1-2.26 6.31 6 6 0 0 0-2.61-1.31Z" style="fill:#70327e"/><path d="M93 56a5.51 5.51 0 0 0-6.82-1.54M99 53.13a3.66 3.66 0 0 0 4.52 1" style="stroke-linecap:round;stroke:#70327e;stroke-linejoin:round;fill:none"/><path d="m28.52 38.5-1.29-3.45a3.41 3.41 0 1 1 6.38-2.4l1.3 3.45a3.41 3.41 0 0 1-2 4.39" style="stroke-linecap:round;stroke-linejoin:round;fill:#c5c6c8;stroke:#909395"/><ellipse cx="90.61" cy="45.29" rx="2.22" ry="1.54" transform="rotate(-77.61 90.613 45.296)" style="fill:#fff"/><ellipse cx="77.18" cy="41.99" rx="2.22" ry="1.54" transform="rotate(-77.61 77.186 41.992)" style="fill:#fff"/></g></svg>