<?xml version="1.0" encoding="UTF-8"?><svg id="a" xmlns="http://www.w3.org/2000/svg" xmlns:xlink="http://www.w3.org/1999/xlink" viewBox="0 0 150 150"><defs><style>.c,.d{fill:none;}.e,.d{stroke-linecap:round;}.e,.d,.f{stroke:#70327e;}.e,.d,.f,.g{stroke-linejoin:round;}.e,.h{fill:#70327e;}.i{fill:#fff;}.j{clip-path:url(#b);}.f{fill:#f063a4;}.g{fill:#c5c6c8;stroke:#909395;}</style><clipPath id="b"><rect class="c" x="25.83" width="98.34" height="125.92"/></clipPath></defs><g class="j"><g><line class="g" x1="82.83" y1="44.16" x2="86.84" y2="-6.93"/><path class="g" d="M82.84,48.16c-.1,0-.21,0-.32-.01-2.2-.17-3.85-2.1-3.67-4.3l4.01-51.09c.17-2.2,2.09-3.85,4.3-3.67,2.2,.17,3.85,2.1,3.67,4.3l-4.01,51.09c-.16,2.1-1.92,3.69-3.98,3.69Z"/></g><g><path class="g" d="M68.07,48.36c.82,.44,1.49,1.18,1.82,2.13,.72,2.03-.34,4.26-2.36,4.99-.73,.27-17.06,6.56-23.03,31.07-.51,2.1-2.63,3.39-4.73,2.88-2.1-.51-3.39-2.63-2.88-4.73,7.02-28.84,27.14-36.29,28-36.59,1.09-.39,2.23-.26,3.17,.25Z"/><path class="g" d="M72.36,94.37c-6.22,7.27-2.21,23.6-2.21,23.6l-7.38,5.91,15.62-.66s-6.02-22.31,1.49-26.86"/><path class="g" d="M94.41,81.63c9.36,1.99,16.12,17.38,16.12,17.38l9.45,.2-12.8,8.98s-8.8-21.37-17.52-20.41"/><rect class="f" x="48.47" y="8.71" width="31.22" height="31.22" transform="translate(-4.35 20.52) rotate(-17.6)"/><path class="f" d="M60.25,63.86l-4.33-13.66,29.75-9.44,8.47,26.68s8.73,24.89-20.79,34.26l-2.88-9.08s9.73-4.06,4.9-19.26v.03l-10.99,3.49-2.09-6.58-2.04-6.44Z"/><path class="h" d="M70.88,23.17c.59-.19,1.18-.21,1.72-.11-.04-1.11-.27-2.46-.72-3.87-1.05-3.3-2.82-5.69-3.95-5.33s-1.2,3.33-.15,6.63c.45,1.42,1.03,2.65,1.64,3.58,.38-.39,.88-.72,1.46-.9Z"/><path class="d" d="M56.18,18.08s-1.03-2.34,.75-3.2"/><path class="d" d="M71.4,13.25s-.51-2.51-2.46-2.18"/><path class="e" d="M67.17,32.91s-7.92,1.32-10.31-6.22c0,0,2.51,11.53,6.13,10.38,1.34-.43,.83-2.69,.43-3.96"/><path class="d" d="M69.13,24.44s1.34-2.19,3.92-1.24"/><path class="h" d="M63.23,25.59c.59-.19,1.18-.21,1.72-.11-.04-1.11-.27-2.46-.72-3.87-1.05-3.3-2.82-5.69-3.95-5.33s-1.2,3.33-.15,6.63c.45,1.42,1.03,2.65,1.64,3.58,.38-.39,.88-.72,1.46-.9Z"/><path class="d" d="M61.47,26.87s1.34-2.19,3.92-1.24"/><path class="d" d="M57.83,25.48s-.89,1.45-2.59,.82"/></g><ellipse class="i" cx="61.07" cy="19.96" rx="1" ry="1.45" transform="translate(-3.12 17.23) rotate(-15.66)"/><ellipse class="i" cx="68.59" cy="17.7" rx="1" ry="1.45" transform="translate(-2.23 19.17) rotate(-15.66)"/></g></svg>