<svg xmlns="http://www.w3.org/2000/svg" viewBox="0 0 150 150"><path d="M68.94 90.1c-.35 0-.72-.03-1.09-.09-8.08-1.27-12.92-12.71-13.99-16.61-.58-2.13.68-4.33 2.81-4.91s4.33.68 4.91 2.81c1.03 3.8 4.55 9.85 7.17 10.72 1.5-1.11 4.06-6.49 5.44-11.52a4.002 4.002 0 0 1 7.72 2.11C80.44 78 76.32 90.1 68.94 90.1Zm51.81 6.49c-3.41 0-6.47-.63-7.74-3.38-.84-1.82-.44-3.98 1-5.49l.08-.08c6.96-6.86 7.98-10.56 7.48-11.67-.73-1.62-6.25-3.13-12.56-2.72-2.2.15-4.11-1.52-4.25-3.73s1.52-4.11 3.72-4.26c2.76-.19 16.73-.71 20.39 7.42 1.98 4.4.37 9.69-4.93 16.08a3.996 3.996 0 0 1-1.12 7.76c-.7.04-1.4.06-2.09.06Z" style="stroke-linejoin:round;fill:#c5c6c8;stroke:#909395"/><path d="M126.17 85.83s-2.01 2.99-5.36 6.12" style="stroke-linecap:round;stroke-linejoin:round;fill:#c5c6c8;stroke:#909395"/><path d="M84.59 116.61v25.23l-9.64 7.65h17.64v-32.88z" style="stroke-linejoin:round;fill:#c5c6c8;stroke:#909395"/><path d="M95.89 116.61v25.23l-9.63 7.65h17.63v-32.88z" style="stroke-linejoin:round;fill:#c5c6c8;stroke:#909395"/><path d="M66.74 103.62H29.22L20.3 53.25h37.52z" style="stroke-linejoin:round;stroke:#70327e;fill:#70327e"/><path d="M64.28 101.35h-33.4l-8.2-46.32h33.4z" style="fill:#fff"/><path d="M47.54 58.78H32.55c-1.87 0-3.67-1.66-4.03-3.7l-.7-3.96c-.06-.32.14-.59.43-.59h20.68c.3 0 .58.26.64.59l.7 3.96c.36 2.04-.86 3.7-2.73 3.7" style="fill:#70327e"/><path d="M35.73 70.85h-6.68l-1.29-7.31h6.68zm2.21 11.8h-6.68l-1.3-7.3h6.68zm2.2 11.81h-6.68l-1.29-7.31h6.68z" style="stroke:#929497;fill:none;stroke-miterlimit:10"/><path d="M55.46 70.85H39.03l-1.29-7.31h16.42zm2.2 11.8H41.23l-1.29-7.3h16.43zm2.21 11.81H43.44l-1.29-7.31h16.42z" style="fill:#929497;opacity:.25"/><ellipse cx="59.55" cy="71.29" rx="3.19" ry="2.34" style="stroke-linecap:round;stroke-linejoin:round;fill:#c5c7c9;stroke:#929497" transform="rotate(-33.31 59.557 71.298)"/><path d="M75.43 20.33h37.03v37.03H75.43z" style="stroke-linejoin:round;stroke:#70327e;fill:#f063a4" transform="rotate(180 93.945 38.84)"/><path d="M112.46 82.17v-17H75.43v33.21s-.94 31.27 35.8 31.27v-11.3s-12.45-1.1-12.45-20.01v.04h13.68z" style="stroke-linejoin:round;stroke:#70327e;fill:#f063a4"/><path d="M84.18 2.25h20.2c6.1 0 11.06 4.96 11.06 11.06v12.03H73.12V13.31c0-6.1 4.96-11.06 11.06-11.06" style="fill:#2dc5f4;stroke-linecap:round;stroke-linejoin:round;stroke:#70327e" transform="rotate(4.44 94.314 13.782)"/><path d="M93.51 2.16c6.09.47 10.64 5.79 10.17 11.88l-.93 11.99" style="stroke-linecap:round;stroke-linejoin:round;stroke:#70327e;fill:none;stroke-width:.9px"/><path d="m76.7 24.01-27.8-2.16" style="stroke-linecap:round;stroke-linejoin:round;stroke:#70327e;fill:none"/><path d="M83.15 11.17s-.07.07-.11.06l-.16-.02-.55 2.55h-.11l-.11-.03-1.88-.23h-.11l-.11-.03-.04-2.58-.18-.02s-.08-.04-.1-.08l-.17-.55s0-.08.02-.11.06-.05.1-.04l3.69.38s.07.03.09.06.02.07 0 .11l-.25.51Zm-1.45 6.65a.98.98 0 0 0-.75-.07c-.06.02-.12.04-.18.07l.32-.56 2.44.2c0 .11.01.21.03.32s.04.21.07.31a.9.9 0 0 0-.25-.17.98.98 0 0 0-.75-.04c-.2.07-.37.21-.49.38a.96.96 0 0 0-.43-.46Zm-3.81.91 1.24-1.63h.13l.13.02.19.02.62.05h.12l.12.02h.07l.17.02h.12l.12.02-.6 1.05-.06.11-.06.11-.27.48s-.06.06-.11.06l-1.84-.14s-.08-.03-.09-.07a.11.11 0 0 1 .01-.11Z" style="fill:#fff"/><path d="m89.35 11.62.3-.47s.02-.07 0-.11q-.03-.06-.09-.06l-5.46-.7s-.06 0-.09.03c-.02.02-.04.05-.04.08l-.12 3.57v.16l-4.38-.53s-.1.02-.12.07l-.59 1.43s-.01.04 0 .06l.22 1.71s.03.07.07.09h.18l.13.02h.13l.18.03.58.05h.12l.12.02h.09l.17.02h.12l.12.02h.17l2.35.21v-.25s.01-.07.02-.11.01-.08.02-.11c.04-.22.11-.42.2-.62l.12-.24c.01-.02.03-.05.04-.07.02-.04.05-.08.08-.12.43-.63 1.12-1.09 1.93-1.22.96-.14 1.88.22 2.5.88.03.04.06.07.1.11l.09.12.71-4.05Zm-8.33 2.92c0-.05.06-.09.11-.09s.09.05.09.11l-.2 1.82c0 .05-.05.09-.1.09s-.09-.05-.09-.11l.2-1.82Zm.57.04c0-.05.05-.09.1-.09s.09.05.09.11l-.2 1.82c0 .05-.05.09-.1.09s-.09-.05-.09-.11zm-1.15 1.76c0 .05-.05.09-.1.09s-.09-.05-.09-.11l.2-1.82c0-.05.05-.09.11-.09.05 0 .09.05.09.11l-.2 1.82Zm-.57-.04c0 .05-.05.09-.1.09s-.09-.05-.09-.11l.2-1.82c0-.05.06-.09.11-.09s.09.05.09.11l-.2 1.82Zm8.49-4.58-.45 2.51c-.21-.07-.7-.22-1.34-.27-.53-.04-1.17-.01-1.82.19l.06-2.88z" style="fill:#fff"/><path d="M83.83 17.76c.05.31.14.59.28.85.02.04.05.08.07.12s.05.08.08.12c.43.63 1.13 1.04 1.91 1.1.19.01.38 0 .57-.02.68-.1 1.28-.46 1.69-1.01a2.555 2.555 0 0 0 .14-2.85c-.03-.05-.06-.09-.09-.14l-.09-.12c-.55-.7-1.45-1.1-2.4-.96-.92.14-1.66.75-1.99 1.56-.02.04-.03.09-.05.13-.03.08-.05.17-.08.26 0 .03-.01.05-.02.08 0 .03-.01.06-.02.1V17s-.01.07-.02.11v.03s-.01.07-.01.11v.27c0 .09.01.17.03.26Zm.73.55c-.03-.07-.07-.14-.09-.21-.03-.07-.05-.14-.07-.21h.09l.11-.03h.07l.04-.02.61-.09c.05.14.13.27.22.37l-.4.53-.16.22a2.2 2.2 0 0 1-.34-.4c-.03-.05-.07-.11-.1-.17Zm.78.83.16-.22.4-.53c.12.06.25.09.39.1h.03l.1.66.04.27c-.4.02-.79-.09-1.12-.28m1.54.22-.04-.27-.1-.66c.14-.05.26-.12.37-.22l.53.4.22.16c-.27.29-.61.5-.99.59Zm1.46-2.48h-.02l-.12.02-.13.02-.66.1a1.1 1.1 0 0 0-.22-.37l.4-.53.16-.22c.22.2.39.44.5.72.03.07.05.14.08.22 0 .02 0 .03.01.05Zm-2.48-1.46.04.27.1.66c-.14.05-.27.13-.37.22l-.53-.4-.22-.16c.26-.28.6-.49.99-.59Zm-1.24.94.22.16.53.4c-.05.1-.08.21-.1.32v.1h-.06l-.45.08h-.05l-.07.02h-.03l-.08.02-.19.03v-.19c0-.04 0-.07.01-.11v-.02s.01-.07.02-.11c0-.04.01-.07.02-.11.05-.2.12-.39.23-.56Zm.87 1.01v-.11a.94.94 0 0 1 .31-.54c.07-.05.14-.1.22-.13.07-.03.13-.05.21-.06.07 0 .13-.01.2 0h.02c.09.01.17.03.25.07.07.03.13.06.19.1s.11.09.16.15c.05.07.1.14.13.22.03.07.05.13.06.21v.24s-.01.07-.02.11-.02.07-.04.11c-.03.07-.06.13-.11.19-.04.06-.09.11-.15.16a1 1 0 0 1-.22.13c-.07.03-.13.05-.21.06q-.105.015-.21 0c-.09 0-.17-.03-.25-.06a.94.94 0 0 1-.34-.25 1 1 0 0 1-.13-.22.7.7 0 0 1-.06-.21v-.15Zm1.03-2.01c.31.02.61.12.87.28l-.16.22-.4.53c-.13-.06-.27-.1-.42-.11l-.1-.66-.04-.27h.24Zm1.59 3.06-.22-.16-.53-.4c.04-.07.06-.15.08-.23 0-.04.01-.07.02-.11v-.08l.15-.02.5-.07.11-.02.12-.02h.05c.02.39-.08.77-.28 1.11m-4.85.23s-.07-.09-.12-.12a.4.4 0 0 0-.16-.06l-.26-.02-.24-.02h-.12l-.11-.02c.1-.16.24-.29.43-.35.2-.07.42-.06.62.03s.34.26.42.46v.02s.03.08.03.11c0 .04.01.08.01.11a.825.825 0 0 1-.54.79.82.82 0 0 1-1.02-.47h.11l.11.02.24.02.26.02c.19.02.37-.13.38-.33v-.09c0-.04-.02-.08-.04-.12Zm-2.78-.22s.03-.07.05-.11c.1-.2.27-.34.48-.41a.8.8 0 0 1 .99.48h-.11l-.12-.02-.24-.02-.26-.02c-.06 0-.12 0-.17.03a.5.5 0 0 0-.14.1c-.03.03-.04.07-.06.11 0 .03-.02.06-.02.09-.02.19.13.37.33.38l.26.02.24.02h.11l.11.02c-.1.18-.26.3-.46.36q-.15.045-.3.03c-.11 0-.22-.04-.32-.09a.83.83 0 0 1-.4-.48.74.74 0 0 1-.02-.39c0-.04.02-.07.03-.11Zm.88-8.98s-.03.07-.07.08a.44.44 0 0 0-.34.29c-.01.04-.05.06-.09.06s-.07-.03-.08-.07a.44.44 0 0 0-.29-.34c-.04-.01-.06-.05-.06-.09s.03-.07.07-.08a.44.44 0 0 0 .34-.29c.01-.04.05-.06.09-.06s.07.03.08.07c.03.16.14.29.29.34.04.01.06.05.06.09m1.74-1.77a.44.44 0 0 0-.34.29c-.01.04-.05.06-.09.06s-.07-.03-.08-.07a.44.44 0 0 0-.29-.34c-.04-.01-.06-.05-.06-.09s.03-.07.07-.08a.44.44 0 0 0 .34-.29c.01-.04.05-.06.09-.06s.07.03.08.07c.03.16.14.29.29.34.04.01.06.05.06.09s-.03.07-.07.08m-1.46.26c-.11 0-.18-.1-.18-.2s.1-.18.2-.18.18.1.18.2-.1.18-.2.18m-.7.49c-.07 0-.11-.06-.11-.13s.06-.11.13-.11.11.06.11.13-.06.11-.13.11m1.41.49a.235.235 0 1 1-.47-.03.235.235 0 1 1 .47.03" style="fill:#fff"/><path d="m96.87 1.56-3.47-.27m.62 64.29s-3.23 19.11-10.65 19.11c-5.4 0-6.78-19.11-6.78-19.11" style="stroke-linecap:round;stroke-linejoin:round;stroke:#70327e;fill:none"/><circle cx="83.83" cy="87.39" r="3.01" style="fill:#70327e"/><path d="M80.82 87.39h2.4v6.97h-2.4z" style="fill:#70327e"/><path d="M81.52 87.18c0-1.16.94-2.1 2.1-2.1m-2.22 5.84v2.67" style="stroke-linecap:round;stroke-linejoin:round;fill:none;stroke:#fff;stroke-width:.36px"/><ellipse cx="82.57" cy="35.91" rx="2.99" ry="6.15" style="fill:#662d91"/><path d="M94.71 35.91c0 3.4-1.34 6.15-2.99 6.15s-2.99-2.76-2.99-6.15c0-1.8.38-3.43.98-4.55.53-.99 1.24.15 2.01.15s1.51-1.12 2.05-.08c.58 1.12.94 2.72.94 4.49Z" style="fill:#662d91"/><path d="M79 30.12h6.46m2.9 1.31h6.45M83.98 43.37l5.93.68" style="stroke-linecap:round;stroke-linejoin:round;stroke:#662d91;fill:none"/><ellipse cx="80.87" cy="34.42" rx=".84" ry="1.51" style="fill:#fff"/><ellipse cx="90.24" cy="34.42" rx=".84" ry="1.51" style="fill:#fff"/><path d="m88.01 37.83 7.67-1.16v5.2l-6.62.73z" style="fill:#f063a4"/><path d="m88.21 37.29 7.45-.08" style="stroke-linecap:round;stroke-linejoin:round;stroke:#662d91;fill:none"/></svg>