<svg xmlns="http://www.w3.org/2000/svg" xml:space="preserve" viewBox="60 0 90 150"><path d="M92.4 74c-5.5-.3-14-1.8-20.4-8-6.5-6.4-9.1-16-7.6-28.5.3-2.2 2.2-3.8 4.4-3.5s3.8 2.2 3.5 4.4c-1.1 9.9.6 17.3 5.3 21.8 7.2 7.1 19.3 5.7 19.4 5.6 2.2-.3 4.2 1.3 4.5 3.5s-1.3 4.2-3.4 4.5c-.3 0-2.5.3-5.7.2zm40.7 22.3c-3.4 0-6.5-.6-7.7-3.4-.8-1.8-.4-4 1-5.5l.1-.1c7-6.9 8-10.6 7.5-11.7-.7-1.6-6.2-3.1-12.6-2.7-2.2.1-4.1-1.5-4.3-3.7s1.5-4.1 3.7-4.3c2.8-.2 16.7-.7 20.4 7.4 2 4.4.4 9.7-4.9 16.1 1.5.5 2.6 1.9 2.7 3.6.1 2.2-1.6 4.1-3.8 4.2-.7.1-1.4.1-2.1.1z" style="fill:#c5c6c8;stroke:#909395;stroke-linejoin:round;stroke-miterlimit:10"/><path d="M138.5 85.6s-2 3-5.4 6.1" style="fill:#c5c6c8;stroke:#909395;stroke-linecap:round;stroke-linejoin:round;stroke-miterlimit:10"/><path d="M99.4 116.3v25.3l-9.7 7.6h17.7v-32.9zm12.2 0v25.3l-2.9 7.6H123l-3.4-7.6v-25.3z" style="fill:#c5c6c8;stroke:#909395;stroke-linejoin:round;stroke-miterlimit:10"/><path d="M88.4 20.1h37v37h-37z" style="fill:#f063a4;stroke:#70327e;stroke-linejoin:round;stroke-miterlimit:10" transform="rotate(180 106.96 38.575)"/><path d="M125.5 81.9v-17h-37v33.2s-.9 31.3 35.8 31.3v-11.3s-12.5-1.1-12.5-20h13.7z" style="fill:#f063a4;stroke:#70327e;stroke-linejoin:round;stroke-miterlimit:10"/><ellipse cx="101" cy="35.7" rx="3" ry="6.2" style="fill:#662d91"/><ellipse cx="101" cy="34.2" rx=".8" ry="1.5" style="fill:#fff"/><ellipse cx="113" cy="35.7" rx="3" ry="6.2" style="fill:#662d91"/><ellipse cx="113" cy="34.2" rx=".8" ry="1.5" style="fill:#fff"/><path d="M108.3 44.7s-7.8 1.2-11.3-2.4c-.3 2.9 0 10.4 4.6 10.6 4 .1 3.7-7.4 3.7-7.4" style="fill:#662d91;stroke:#662d91;stroke-linecap:round;stroke-linejoin:round;stroke-miterlimit:10"/></svg>