<svg id="Layer_1" data-name="Layer 1" xmlns="http://www.w3.org/2000/svg" xmlns:xlink="http://www.w3.org/1999/xlink" viewBox="0 0 150 150"><defs><style>.cls-1,.cls-6{fill:none;}.cls-2{clip-path:url(#clip-path);}.cls-3{fill:#c5c6c8;stroke:#909395;}.cls-3,.cls-4,.cls-6,.cls-7{stroke-linejoin:round;}.cls-4{fill:#f063a4;}.cls-4,.cls-6,.cls-7{stroke:#70327e;}.cls-5,.cls-7{fill:#70327e;}.cls-6,.cls-7{stroke-linecap:round;}.cls-8{fill:#fff;}</style><clipPath id="clip-path"><rect class="cls-1" x="25.83" width="98.34" height="125.92"/></clipPath></defs><g class="cls-2"><line class="cls-3" x1="82.83" y1="44.16" x2="86.84" y2="-6.93"/><path class="cls-3" d="M82.84,48.16h-.32a4,4,0,0,1-3.67-4.3l4-51.1a4,4,0,0,1,4.3-3.67,4,4,0,0,1,3.68,4.3l-4,51.09A4,4,0,0,1,82.84,48.16Z"/><path class="cls-3" d="M68.07,48.36a3.85,3.85,0,0,1,1.82,2.13,3.91,3.91,0,0,1-2.36,5c-.73.27-17.06,6.56-23,31.07a3.91,3.91,0,1,1-7.6-1.85c7-28.84,27.14-36.29,28-36.59A3.92,3.92,0,0,1,68.07,48.36Z"/><path class="cls-3" d="M72.36,94.37c-6.22,7.27-2.22,23.6-2.22,23.6l-7.38,5.91,15.62-.66s-6-22.32,1.49-26.86"/><path class="cls-3" d="M94.41,81.63c9.36,2,16.12,17.38,16.12,17.38l9.45.2-12.8,9S98.39,86.82,89.66,87.78"/><rect class="cls-4" x="48.47" y="8.71" width="31.22" height="31.22" transform="translate(-4.35 20.52) rotate(-17.6)"/><path class="cls-4" d="M60.25,63.86,55.92,50.2l29.75-9.44,8.47,26.68s8.73,24.89-20.8,34.26l-2.88-9.08s9.73-4.05,4.91-19.26v0l-11,3.49L62.29,70.3Z"/><path class="cls-5" d="M70.88,23.17a3.51,3.51,0,0,1,1.72-.11,14.89,14.89,0,0,0-.72-3.88c-1-3.3-2.82-5.69-3.95-5.33s-1.2,3.33-.15,6.63a15,15,0,0,0,1.64,3.59A3.41,3.41,0,0,1,70.88,23.17Z"/><path class="cls-6" d="M56.18,18.08s-1-2.35.75-3.2"/><path class="cls-6" d="M71.4,13.25s-.51-2.51-2.46-2.18"/><path class="cls-7" d="M67.17,32.91s-7.92,1.33-10.31-6.22c0,0,2.5,11.54,6.13,10.39,1.34-.43.83-2.69.43-4"/><path class="cls-6" d="M69.13,24.44a3.24,3.24,0,0,1,3.92-1.24"/><path class="cls-5" d="M63.23,25.59a3.63,3.63,0,0,1,1.72-.1,15,15,0,0,0-.73-3.88c-1-3.3-2.81-5.69-3.94-5.33s-1.2,3.33-.15,6.63a15,15,0,0,0,1.64,3.59A3.52,3.52,0,0,1,63.23,25.59Z"/><path class="cls-6" d="M61.47,26.87a3.25,3.25,0,0,1,3.92-1.24"/><path class="cls-6" d="M57.83,25.48a2.16,2.16,0,0,1-2.6.83"/><ellipse class="cls-8" cx="61.07" cy="19.96" rx="1" ry="1.45" transform="translate(-3.12 17.23) rotate(-15.66)"/><ellipse class="cls-8" cx="68.59" cy="17.7" rx="1" ry="1.45" transform="translate(-2.23 19.17) rotate(-15.66)"/></g></svg>