<svg xmlns="http://www.w3.org/2000/svg" viewBox="0 0 150 150"><defs><clipPath id="a"><path d="M12.57 0h124.86v150H12.57z" style="fill:none"/></clipPath><clipPath id="b"><path d="M31.15 78.08h79.43v94.47H31.15z" style="fill:none"/></clipPath></defs><g style="clip-path:url(#a)"><path d="M106.33 144.01c-2 .26-4.05-.71-5.06-2.6a5.004 5.004 0 0 1 2.05-6.77c16.63-8.91 17.3-14.4 17.11-15.87-.39-2.99-6.99-8.87-19.94-11.97a5 5 0 0 1-3.7-6.02 4.997 4.997 0 0 1 6.02-3.7c.25.06 6.15 1.48 12.3 4.35 9.29 4.34 14.42 9.74 15.24 16.06 1.15 8.83-6.15 17.32-22.3 25.97-.55.29-1.13.47-1.71.55ZM55.38 99.8c-.96 0-1.93-.28-2.78-.85-29.63-19.88-27.71-65.97-27.43-67.36.54-2.71 3.18-4.47 5.88-3.92 2.7.54 4.46 3.17 3.92 5.87-.23 1.2-.76 41.03 23.19 57.1a5.004 5.004 0 0 1 1.37 6.94c-.96 1.44-2.55 2.21-4.16 2.22Z" style="stroke-linejoin:round;fill:#c5c6c8;stroke:#909395"/><path d="M15.62 16.97h2.65v3.27c0 .47-.38.85-.85.85h-.96a.85.85 0 0 1-.85-.85v-3.27Z" style="fill:#52245c" transform="rotate(136.58 16.952 19.024)"/><path d="M26.19 19.19h5.43v24.93h-5.43z" style="fill:#9253a1" transform="rotate(-43.42 28.903 31.658)"/><path d="M37.18 40.27h2.8c.49 0 .9.4.9.9v2.34h-4.59v-2.34c0-.49.4-.9.9-.9Z" style="fill:#70327e" transform="rotate(136.58 38.582 41.892)"/><path d="m21.45 21.55 17.14 18.11" style="fill:none;opacity:.36;stroke:#fff;stroke-miterlimit:10"/><path d="M17.36 20.13h3.99V23h-3.99z" style="fill:#636466" transform="rotate(136.58 19.351 21.566)"/><path d="m18.93 19.76-1.81-1.91" style="fill:none;stroke-miterlimit:10;stroke:#9253a1"/><path d="M61.7 25.52h53.11v53.11H61.7z" style="stroke-linejoin:round;stroke:#70327e;fill:#f063a4" transform="rotate(-167.33 88.255 52.07)"/><g style="clip-path:url(#b)"><path d="m100.53 118.54 5.35-23.79L54.06 83.1l-10.45 46.47s-11.16 43.47 40.26 55.03l3.55-15.81s-17.08-5.45-11.13-31.93v.05l19.14 4.31 2.58-11.46z" style="stroke-linejoin:round;stroke:#70327e;fill:#f063a4"/></g><path d="M76.55 51.11a6 6 0 0 0-2.93.07c-.09-1.9.11-4.2.66-6.67 1.29-5.75 3.94-10.06 5.91-9.61s2.52 5.47 1.23 11.22c-.56 2.47-1.37 4.64-2.26 6.31a6 6 0 0 0-2.61-1.31Z" style="fill:#70327e"/><path d="M100.74 40.33s1.41-4.12-1.74-5.31m-24.77-.65s.5-4.33 3.85-4.05" style="fill:none;stroke-linecap:round;stroke-linejoin:round;stroke:#70327e"/><path d="M84.27 67.09s13.62 1.08 16.58-12.05c0 0-2.56 19.91-8.87 18.5-2.34-.53-1.8-4.44-1.31-6.65" style="stroke-linecap:round;stroke-linejoin:round;stroke:#70327e;fill:#70327e"/><path d="M79.72 53.02s-2.59-3.52-6.83-1.53" style="fill:none;stroke-linecap:round;stroke-linejoin:round;stroke:#70327e"/><path d="M89.88 54.11a6 6 0 0 0-2.93.07c-.09-1.9.11-4.2.66-6.67 1.29-5.75 3.94-10.06 5.91-9.61 1.97.44 2.52 5.47 1.23 11.22-.56 2.47-1.37 4.64-2.26 6.31a6 6 0 0 0-2.61-1.31Z" style="fill:#70327e"/><path d="M93.04 56.02s-2.59-3.52-6.83-1.53m12.81-1.36s1.72 2.33 4.52 1.02" style="fill:none;stroke-linecap:round;stroke-linejoin:round;stroke:#70327e"/><path d="m28.52 38.5-1.3-3.45c-.66-1.76.23-3.73 1.99-4.39s3.73.23 4.39 1.99l1.3 3.45c.66 1.76-.23 3.73-1.99 4.39" style="stroke-linecap:round;stroke-linejoin:round;fill:#c5c6c8;stroke:#909395"/><ellipse cx="90.61" cy="45.29" rx="2.22" ry="1.54" style="fill:#fff" transform="rotate(-77.61 90.613 45.296)"/><ellipse cx="77.18" cy="41.99" rx="2.22" ry="1.54" style="fill:#fff" transform="rotate(-77.61 77.186 41.992)"/></g></svg>