<?xml version="1.0" encoding="UTF-8"?><svg id="a" xmlns="http://www.w3.org/2000/svg" viewBox="0 0 150 150"><defs><style>.b{fill:#2dc5f4;}.b,.c,.d,.e,.f,.g,.h{stroke-linecap:round;}.b,.c,.d,.e,.f,.g,.h,.i,.j,.k{stroke-linejoin:round;}.b,.f,.h,.i,.k{stroke:#70327e;}.c{fill:#c5c7c9;}.c,.l{stroke:#929497;}.d,.j{fill:#c5c6c8;stroke:#909395;}.e{stroke:#662d91;}.e,.f,.g,.h,.l{fill:none;}.g{stroke:#fff;stroke-width:.36px;}.m,.i{fill:#f063a4;}.n{fill:#fff;}.o{fill:#662d91;}.p,.k{fill:#70327e;}.h{stroke-width:.9px;}.l{stroke-miterlimit:10;}.q{fill:#929497;opacity:.25;}</style></defs><path class="j" d="M68.94,90.1c-.35,0-.72-.03-1.09-.09-8.08-1.27-12.92-12.71-13.99-16.61-.58-2.13,.68-4.33,2.81-4.91,2.13-.58,4.33,.68,4.91,2.81,1.03,3.8,4.55,9.85,7.17,10.72,1.5-1.11,4.06-6.49,5.44-11.52,.58-2.13,2.78-3.38,4.91-2.8,2.13,.58,3.39,2.78,2.81,4.91-1.47,5.39-5.59,17.49-12.97,17.49Z"/><g><path class="j" d="M120.75,96.59c-3.41,0-6.47-.63-7.74-3.38-.84-1.82-.44-3.98,1-5.49,.03-.03,.06-.06,.08-.08,6.96-6.86,7.98-10.56,7.48-11.67-.73-1.62-6.25-3.13-12.56-2.72-2.2,.15-4.11-1.52-4.25-3.73s1.52-4.11,3.72-4.26c2.76-.19,16.73-.71,20.39,7.42,1.98,4.4,.37,9.69-4.93,16.08,1.48,.52,2.57,1.89,2.66,3.55,.12,2.21-1.57,4.09-3.78,4.21-.7,.04-1.4,.06-2.09,.06Z"/><path class="d" d="M126.17,85.83s-2.01,2.99-5.36,6.12"/></g><polygon class="j" points="84.59 116.61 84.59 141.84 74.95 149.49 92.59 149.49 92.59 116.61 84.59 116.61"/><polygon class="j" points="95.89 116.61 95.89 141.84 86.26 149.49 103.89 149.49 103.89 116.61 95.89 116.61"/><g><polygon class="k" points="66.74 103.62 29.22 103.62 20.3 53.25 57.82 53.25 66.74 103.62"/><polygon class="n" points="64.28 101.35 30.88 101.35 22.68 55.03 56.08 55.03 64.28 101.35"/><path class="p" d="M47.54,58.78h-14.99c-1.87,0-3.67-1.66-4.03-3.7l-.7-3.96c-.06-.32,.14-.59,.43-.59h20.68c.3,0,.58,.26,.64,.59l.7,3.96c.36,2.04-.86,3.7-2.73,3.7Z"/><polygon class="l" points="35.73 70.85 29.05 70.85 27.76 63.54 34.44 63.54 35.73 70.85"/><polygon class="l" points="37.94 82.65 31.26 82.65 29.96 75.35 36.64 75.35 37.94 82.65"/><polygon class="l" points="40.14 94.46 33.46 94.46 32.17 87.15 38.85 87.15 40.14 94.46"/><polygon class="q" points="55.46 70.85 39.03 70.85 37.74 63.54 54.16 63.54 55.46 70.85"/><polygon class="q" points="57.66 82.65 41.23 82.65 39.94 75.35 56.37 75.35 57.66 82.65"/><polygon class="q" points="59.87 94.46 43.44 94.46 42.15 87.15 58.57 87.15 59.87 94.46"/></g><ellipse class="c" cx="59.55" cy="71.29" rx="3.19" ry="2.34" transform="translate(-29.37 44.42) rotate(-33.31)"/><rect class="i" x="75.43" y="20.33" width="37.03" height="37.03" transform="translate(187.89 77.68) rotate(180)"/><path class="i" d="M112.46,82.17v-17h-37.03v33.21s-.94,31.27,35.8,31.27v-11.3s-12.45-1.1-12.45-20.01v.04h13.68v-16.21Z"/><g><path class="b" d="M84.18,2.25h20.2c6.1,0,11.06,4.96,11.06,11.06v12.03h-42.32V13.31c0-6.1,4.96-11.06,11.06-11.06Z" transform="translate(1.35 -7.26) rotate(4.44)"/><path class="h" d="M93.51,2.16c6.09,.47,10.64,5.79,10.17,11.88l-.93,11.99"/><line class="f" x1="76.7" y1="24.01" x2="48.9" y2="21.85"/><g><path class="n" d="M83.15,11.17s-.07,.07-.11,.06h0l-.16-.02-.55,2.55h-.11l-.11-.03-1.88-.23h-.11l-.11-.03-.04-2.58-.18-.02s-.08-.04-.1-.08l-.17-.55s0-.08,.02-.11,.06-.05,.1-.04l3.69,.38s.07,.03,.09,.06c.02,.03,.02,.07,0,.11l-.25,.51Z"/><path class="n" d="M81.7,17.82c-.23-.12-.5-.15-.75-.07-.06,.02-.12,.04-.18,.07l.32-.56,2.44,.2c0,.11,.01,.21,.03,.32,.02,.11,.04,.21,.07,.31-.07-.07-.16-.13-.25-.17-.24-.11-.5-.13-.75-.04-.2,.07-.37,.21-.49,.38-.09-.2-.24-.36-.43-.46Z"/><path class="n" d="M77.89,18.73l1.24-1.63h.13l.13,.02,.19,.02,.62,.05h.12l.12,.02h.07l.17,.02h.12l.12,.02-.6,1.05-.06,.11-.06,.11-.27,.48s-.06,.06-.11,.06l-1.84-.14s-.08-.03-.09-.07c-.02-.04-.01-.08,.01-.11Z"/><path class="n" d="M89.35,11.62l.3-.47s.02-.07,0-.11c-.02-.04-.05-.06-.09-.06l-5.46-.7s-.06,0-.09,.03c-.02,.02-.04,.05-.04,.08l-.12,3.57v.16l-4.38-.53s-.1,.02-.12,.07l-.59,1.43s-.01,.04,0,.06l.22,1.71s.03,.07,.07,.09c.01,0,.02,0,.03,0h.15l.13,.02h.13l.18,.03,.58,.05h.12l.12,.02h.09l.17,.02h.12l.12,.02h.17l2.35,.21s0-.08,0-.11c0-.04,0-.07,0-.11v-.03s.01-.07,.02-.11h0s.01-.08,.02-.11c.04-.22,.11-.42,.2-.62,.04-.08,.08-.16,.12-.24,.01-.02,.03-.05,.04-.07,.02-.04,.05-.08,.08-.12,.43-.63,1.12-1.09,1.93-1.22,.96-.14,1.88,.22,2.5,.88,.03,.04,.06,.07,.1,.11,.03,.04,.06,.08,.09,.12l.71-4.05Zm-8.33,2.92c0-.05,.06-.09,.11-.09,.05,0,.09,.05,.09,.11l-.2,1.82c0,.05-.05,.09-.1,.09h0c-.05,0-.09-.05-.09-.11l.2-1.82Zm.57,.04c0-.05,.05-.09,.1-.09h0c.05,0,.09,.05,.09,.11l-.2,1.82c0,.05-.05,.09-.1,.09h0c-.05,0-.09-.05-.09-.11l.2-1.82Zm-1.15,1.76c0,.05-.05,.09-.1,.09h0c-.05,0-.09-.05-.09-.11l.2-1.82c0-.05,.05-.09,.11-.09,.05,0,.09,.05,.09,.11l-.2,1.82Zm-.57-.04c0,.05-.05,.09-.1,.09h0c-.05,0-.09-.05-.09-.11l.2-1.82c0-.05,.06-.09,.11-.09,.05,0,.09,.05,.09,.11l-.2,1.82Zm8.49-4.58l-.45,2.51c-.21-.07-.7-.22-1.34-.27-.53-.04-1.17-.01-1.82,.19l.06-2.88,3.55,.45Z"/><path class="n" d="M83.83,17.76c.05,.31,.14,.59,.28,.85,.02,.04,.05,.08,.07,.12,.02,.04,.05,.08,.08,.12,.43,.63,1.13,1.04,1.91,1.1,.19,.01,.38,0,.57-.02,.68-.1,1.28-.46,1.69-1.01,.41-.55,.58-1.23,.48-1.91-.05-.34-.17-.66-.34-.94-.03-.05-.06-.09-.09-.14-.03-.04-.06-.08-.09-.12-.55-.7-1.45-1.1-2.4-.96-.92,.14-1.66,.75-1.99,1.56-.02,.04-.03,.09-.05,.13-.03,.08-.05,.17-.08,.26,0,.03-.01,.05-.02,.08,0,.03-.01,.06-.02,.1v.02s-.01,.07-.02,.11v.03s-.01,.07-.01,.11c0,.03,0,.07,0,.1h0c0,.06,0,.12,0,.17,0,.09,.01,.17,.03,.26Zm.73,.55c-.03-.07-.07-.14-.09-.21-.03-.07-.05-.14-.07-.21h.09l.11-.03h.07l.04-.02,.61-.09c.05,.14,.13,.27,.22,.37l-.4,.53-.16,.22c-.13-.12-.24-.25-.34-.4-.03-.05-.07-.11-.1-.17Zm.78,.83l.16-.22,.4-.53c.12,.06,.25,.09,.39,.1,.01,0,.02,0,.03,0l.1,.66,.04,.27c-.4,.02-.79-.09-1.12-.28Zm1.54,.22l-.04-.27-.1-.66c.14-.05,.26-.12,.37-.22l.53,.4,.22,.16c-.27,.29-.61,.5-.99,.59Zm1.46-2.48h-.02l-.12,.02-.13,.02-.66,.1c-.05-.14-.12-.26-.22-.37l.4-.53,.16-.22c.22,.2,.39,.44,.5,.72,.03,.07,.05,.14,.08,.22,0,.02,0,.03,.01,.05Zm-2.48-1.46l.04,.27,.1,.66c-.14,.05-.27,.13-.37,.22l-.53-.4-.22-.16c.26-.28,.6-.49,.99-.59Zm-1.24,.94l.22,.16,.53,.4c-.05,.1-.08,.21-.1,.32,0,.03,0,.07,0,.1h-.06l-.45,.08h-.05l-.07,.02h-.03l-.08,.02-.19,.03s0-.06,0-.08c0-.04,0-.08,0-.11,0-.04,0-.07,.01-.11v-.02s.01-.07,.02-.11c0-.04,.01-.07,.02-.11,.05-.2,.12-.39,.23-.56Zm.87,1.01s0-.04,0-.06c0-.02,0-.03,0-.05,.01-.07,.03-.14,.06-.2,.06-.13,.14-.25,.25-.34,.07-.05,.14-.1,.22-.13,.07-.03,.13-.05,.21-.06,.07,0,.13-.01,.2,0h.02c.09,.01,.17,.03,.25,.07,.07,.03,.13,.06,.19,.1,.06,.04,.11,.09,.16,.15,.05,.07,.1,.14,.13,.22,.03,.07,.05,.13,.06,.21,0,.04,0,.09,0,.13,0,.03,0,.06,0,.08v.03s-.01,.07-.02,.11c-.01,.04-.02,.07-.04,.11-.03,.07-.06,.13-.11,.19-.04,.06-.09,.11-.15,.16-.07,.05-.14,.1-.22,.13-.07,.03-.13,.05-.21,.06-.07,.01-.14,.01-.21,0-.09,0-.17-.03-.25-.06-.13-.06-.25-.14-.34-.25-.05-.07-.1-.14-.13-.22-.03-.07-.05-.13-.06-.21,0-.01,0-.02,0-.04,0-.04,0-.08,0-.11Zm1.03-2.01c.31,.02,.61,.12,.87,.28l-.16,.22-.4,.53c-.13-.06-.27-.1-.42-.11l-.1-.66-.04-.27c.08,0,.16,0,.24,0Zm1.59,3.06l-.22-.16-.53-.4c.04-.07,.06-.15,.08-.23,0-.04,.01-.07,.02-.11,0-.03,0-.05,0-.08l.15-.02,.5-.07h0l.11-.02,.12-.02h.05c.02,.39-.08,.77-.28,1.11Z"/><path class="n" d="M83.26,18.65s-.07-.09-.12-.12c-.05-.03-.1-.05-.16-.06l-.26-.02-.24-.02h-.12l-.11-.02c.1-.16,.24-.29,.43-.35,.2-.07,.42-.06,.62,.03,.2,.09,.34,.26,.42,.46v.02s.03,.08,.03,.11c0,.04,.01,.08,.01,.11,0,.13-.02,.25-.08,.37-.09,.2-.26,.34-.46,.42-.11,.04-.22,.05-.33,.04-.3-.02-.57-.22-.69-.51h.11l.11,.02,.24,.02,.26,.02c.19,.02,.37-.13,.38-.33,0-.03,0-.06,0-.09,0-.04-.02-.08-.04-.12Z"/><path class="n" d="M80.48,18.43s.03-.07,.05-.11h0c.1-.2,.27-.34,.48-.41,.21-.06,.43-.04,.62,.06,.17,.09,.3,.24,.37,.42h-.11l-.12-.02-.24-.02-.26-.02c-.06,0-.12,0-.17,.03-.05,.02-.1,.06-.14,.1-.03,.03-.04,.07-.06,.11,0,.03-.02,.06-.02,.09-.02,.19,.13,.37,.33,.38l.26,.02,.24,.02h.11l.11,.02c-.1,.18-.26,.3-.46,.36-.1,.03-.2,.04-.3,.03-.11,0-.22-.04-.32-.09-.19-.1-.33-.27-.4-.48-.04-.13-.05-.26-.02-.39,0-.04,.02-.07,.03-.11Z"/><path class="n" d="M81.36,9.45s-.03,.07-.07,.08c-.16,.03-.29,.14-.34,.29-.01,.04-.05,.06-.09,.06h0s-.07-.03-.08-.07h0c-.03-.16-.14-.29-.29-.34-.04-.01-.06-.05-.06-.09s.03-.07,.07-.08c.16-.03,.29-.14,.34-.29,.01-.04,.05-.06,.09-.06h0s.07,.03,.08,.07c.03,.16,.14,.29,.29,.34,.04,.01,.06,.05,.06,.09Z"/><path class="n" d="M83.1,7.68c-.16,.03-.29,.14-.34,.29-.01,.04-.05,.06-.09,.06s-.07-.03-.08-.07h0c-.03-.16-.14-.29-.29-.34-.04-.01-.06-.05-.06-.09s.03-.07,.07-.08c.16-.03,.29-.14,.34-.29,.01-.04,.05-.06,.09-.06s.07,.03,.08,.07c.03,.16,.14,.29,.29,.34,.04,.01,.06,.05,.06,.09s-.03,.07-.07,.08Z"/><path class="n" d="M81.64,7.94c-.11,0-.18-.1-.18-.2s.1-.18,.2-.18,.18,.1,.18,.2-.1,.18-.2,.18Z"/><path class="n" d="M80.94,8.43c-.07,0-.11-.06-.11-.13s.06-.11,.13-.11,.11,.06,.11,.13-.06,.11-.13,.11Z"/><path class="n" d="M82.35,8.92c-.01,.13-.12,.23-.25,.22s-.23-.12-.22-.25,.12-.23,.25-.22,.23,.12,.22,.25Z"/></g><line class="f" x1="96.87" y1="1.56" x2="93.4" y2="1.29"/></g><path class="f" d="M94.02,65.58s-3.23,19.11-10.65,19.11c-5.4,0-6.78-19.11-6.78-19.11"/><g><circle class="p" cx="83.83" cy="87.39" r="3.01"/><rect class="p" x="80.82" y="87.39" width="2.4" height="6.97"/><path class="g" d="M81.52,87.18c0-1.16,.94-2.1,2.1-2.1"/><line class="g" x1="81.4" y1="90.92" x2="81.4" y2="93.59"/></g><ellipse class="o" cx="82.57" cy="35.91" rx="2.99" ry="6.15"/><path class="o" d="M94.71,35.91c0,3.4-1.34,6.15-2.99,6.15s-2.99-2.76-2.99-6.15c0-1.8,.38-3.43,.98-4.55,.53-.99,1.24,.15,2.01,.15s1.51-1.12,2.05-.08c.58,1.12,.94,2.72,.94,4.49Z"/><line class="e" x1="79" y1="30.12" x2="85.46" y2="30.12"/><line class="e" x1="88.36" y1="31.43" x2="94.81" y2="31.43"/><line class="e" x1="83.98" y1="43.37" x2="89.91" y2="44.05"/><ellipse class="n" cx="80.87" cy="34.42" rx=".84" ry="1.51"/><ellipse class="n" cx="90.24" cy="34.42" rx=".84" ry="1.51"/><polygon class="m" points="88.01 37.83 95.68 36.67 95.68 41.87 89.06 42.6 88.01 37.83"/><line class="e" x1="88.21" y1="37.29" x2="95.66" y2="37.21"/></svg>