<svg id="Layer_1" data-name="Layer 1" xmlns="http://www.w3.org/2000/svg" viewBox="0 0 150 150"><defs><style>.cls-1{fill:#c5c6c8;stroke:#909395;}.cls-1,.cls-2,.cls-21,.cls-3{stroke-linejoin:round;}.cls-2,.cls-23{fill:#f063a4;}.cls-2,.cls-21{stroke:#70327e;}.cls-22,.cls-3{fill:#fff;}.cls-3{stroke:#2dc5f4;}.cls-4{font-size:5.47px;}.cls-13,.cls-4,.cls-6{fill:#2dc5f4;font-family:Museo-900, Museo;font-weight:900;}.cls-5{letter-spacing:-0.03em;}.cls-6{font-size:13.32px;}.cls-7{letter-spacing:0em;}.cls-8{letter-spacing:0em;}.cls-9{letter-spacing:0em;}.cls-10{letter-spacing:-0.01em;}.cls-11{letter-spacing:0em;}.cls-12{letter-spacing:-0.01em;}.cls-13{font-size:15.02px;}.cls-14{letter-spacing:-0.01em;}.cls-15{letter-spacing:0em;}.cls-16{letter-spacing:0em;}.cls-17{letter-spacing:-0.01em;}.cls-18{letter-spacing:-0.01em;}.cls-19{letter-spacing:-0.01em;}.cls-20{fill:#70327e;}.cls-21{fill:none;stroke-linecap:round;}</style></defs><polygon class="cls-1" points="63.42 116.58 63.42 141.82 53.78 149.46 71.42 149.46 71.42 116.58 63.42 116.58"/><polygon class="cls-1" points="86.35 116.58 86.35 141.82 95.99 149.46 78.35 149.46 78.35 116.58 86.35 116.58"/><rect class="cls-2" x="57.28" y="10.84" width="35.37" height="35.37" transform="translate(0.28 -0.72) rotate(0.55)"/><path class="cls-2" d="M56.88,69.74,57,50.88l35.36.34-.3,34.34s.61,29.88-34.48,29.54l.1-10.79s11.91-.93,12.08-19v0l-13.07-.13.08-7.82Z"/><path class="cls-3" d="M75.69,63s-1.41-6.5-17.44-8.46C46.32,53.08,35.36,40.23,34.7,38.81c-.07,0-.19.34-.32.42s-.55-.33-.68-.23-.1.53-.25.55c-.67.1-1-.37-.85.09.23.64-.48-.23-.79,0-.55.34.06.46-.4.86-.23.2-.57-.15-.77,0s.14.42-.08.65-.57,0-.68.15.15.57,0,.78-.43-.18-.52-.08.08.5-.07.68-.48-.19-.62,0,0,.75-.1.87-.37-.22-.59-.08-.05.49-.14.59a1.06,1.06,0,0,1-.57.37l42,20.9,6.36.39Z"/><path class="cls-3" d="M75.69,63s3-7,19.08-8.53c12-1.15,23.26-13.71,24-15.11.07,0,.18.34.31.43s.55-.32.69-.22.08.54.23.57c.67.11,1-.35.85.1-.25.64.48-.21.79,0,.54.35-.07.46.37.86.23.21.58-.13.78.08s-.16.41.06.65.57.05.67.17-.16.56,0,.78.44-.17.52-.07-.09.5.06.68.48-.17.61,0,0,.75.08.88.38-.22.59-.07,0,.49.13.59a1.13,1.13,0,0,0,.56.39L83.42,65.84l-8.32-.48Z"/><polygon class="cls-3" points="125.98 106.97 81.3 127.11 81.78 65.48 126.46 45.33 125.98 106.97"/><polygon class="cls-3" points="24.35 105.77 68.72 126.96 69.19 65.33 24.82 44.14 24.35 105.77"/><polygon class="cls-3" points="81.3 127.11 68.72 126.96 69.19 65.33 81.78 65.48 81.3 127.11"/><text class="cls-4" transform="matrix(-0.01, 1.05, -1, -0.01, 73.78, 72.12)"><tspan class="cls-5">r</tspan><tspan x="2.32" y="0">andom numbers</tspan></text><text class="cls-6" transform="matrix(0.91, -0.38, -0.01, 1, 86.76, 81.18)">7<tspan class="cls-7" x="7.45" y="0">3</tspan><tspan x="15.08" y="0">735</tspan><tspan x="0" y="11.85">4</tspan><tspan class="cls-8" x="8.13" y="11.85">5</tspan><tspan class="cls-9" x="16.3" y="11.85">9</tspan><tspan class="cls-7" x="24.1" y="11.85">6</tspan><tspan x="31.85" y="11.85">3</tspan><tspan class="cls-10" x="0" y="23.71">7</tspan><tspan x="7.36" y="23.71">8</tspan><tspan class="cls-11" x="15.26" y="23.71">1</tspan><tspan x="22.92" y="23.71">34</tspan><tspan class="cls-7" x="0" y="35.56">6</tspan><tspan x="7.74" y="35.56">3</tspan><tspan class="cls-12" x="15.44" y="35.56">8</tspan><tspan class="cls-9" x="23.19" y="35.56">73</tspan></text><ellipse class="cls-1" cx="126.33" cy="83.54" rx="6.29" ry="4.9" transform="translate(41.58 209.06) rotate(-89.45)"/><text class="cls-13" transform="matrix(0.76, 0.37, -0.04, 1, 30.4, 63.59)"><tspan class="cls-14">1<tspan class="cls-15" x="8.59" y="0">5838</tspan></tspan><tspan x="0" y="13.36">99</tspan><tspan class="cls-16" x="17.6" y="13.36">9</tspan><tspan x="26.33" y="13.36">82</tspan><tspan x="0" y="26.72">30</tspan><tspan class="cls-17" x="17.99" y="26.72">5</tspan><tspan class="cls-15" x="27.14" y="26.72">00</tspan><tspan class="cls-18" x="0" y="40.08">5</tspan><tspan x="9.1" y="40.08">38</tspan><tspan class="cls-19" x="26.69" y="40.08">6</tspan><tspan x="35.35" y="40.08">7</tspan></text><ellipse class="cls-1" cx="23.68" cy="66.34" rx="4.9" ry="6.29" transform="translate(-6.51 2.7) rotate(-5.74)"/><ellipse class="cls-20" cx="66.55" cy="31.89" rx="6.39" ry="3.92" transform="matrix(0.01, -1, 1, 0.01, 34.01, 98.13)"/><ellipse class="cls-20" cx="79.18" cy="32.02" rx="6.39" ry="3.92" transform="translate(46.4 110.88) rotate(-89.45)"/><path class="cls-21" d="M78.63,20.19s7-1,7.29,6.5"/><line class="cls-21" x1="61.75" y1="25.83" x2="70.72" y2="25.92"/><ellipse class="cls-22" cx="65.75" cy="33.1" rx="1.93" ry="1.33" transform="matrix(0.01, -1, 1, 0.01, 32.01, 98.53)"/><ellipse class="cls-22" cx="78.6" cy="33.39" rx="1.93" ry="1.33" transform="translate(44.46 111.66) rotate(-89.45)"/><ellipse class="cls-23" cx="66.49" cy="37.54" rx="3.7" ry="5.61" transform="translate(28.32 103.67) rotate(-89.45)"/><ellipse class="cls-23" cx="79.12" cy="37.66" rx="3.7" ry="5.61" transform="translate(40.7 116.42) rotate(-89.45)"/><path class="cls-21" d="M69.86,40.16c-1.31-4.61,7.62-.73,7.62-.73"/></svg>