<svg xmlns="http://www.w3.org/2000/svg" viewBox="0 0 150 150"><defs><clipPath id="a"><path style="fill:none" d="M25.83 0h98.34v125.92H25.83z"/></clipPath></defs><g style="clip-path:url(#a)"><path style="fill:#c5c6c8;stroke:#909395;stroke-linejoin:round" d="m82.83 44.16 4.01-51.09M82.84 48.16c-.1 0-.21 0-.32-.01-2.2-.17-3.85-2.1-3.67-4.3l4.01-51.09c.17-2.2 2.09-3.85 4.3-3.67 2.2.17 3.85 2.1 3.67 4.3l-4.01 51.09a3.998 3.998 0 0 1-3.98 3.69ZM68.07 48.36c.82.44 1.49 1.18 1.82 2.13.72 2.03-.34 4.26-2.36 4.99-.73.27-17.06 6.56-23.03 31.07a3.918 3.918 0 0 1-4.73 2.88 3.918 3.918 0 0 1-2.88-4.73c7.02-28.84 27.14-36.29 28-36.59 1.09-.39 2.23-.26 3.17.25ZM72.36 94.37c-6.22 7.27-2.21 23.6-2.21 23.6l-7.38 5.91 15.62-.66s-6.02-22.31 1.49-26.86M94.41 81.63c9.36 1.99 16.12 17.38 16.12 17.38l9.45.2-12.8 8.98s-8.8-21.37-17.52-20.41"/><path transform="rotate(-17.6 64.1 24.31)" style="fill:#f063a4;stroke-linejoin:round;stroke:#70327e" d="M48.47 8.71h31.22v31.22H48.47z"/><path d="M60.25 63.86 55.92 50.2l29.75-9.44 8.47 26.68s8.73 24.89-20.79 34.26l-2.88-9.08s9.73-4.06 4.9-19.26v.03l-10.99 3.49-2.09-6.58-2.04-6.44Z" style="fill:#f063a4;stroke-linejoin:round;stroke:#70327e"/><path d="M70.88 23.17a3.51 3.51 0 0 1 1.72-.11c-.04-1.11-.27-2.46-.72-3.87-1.05-3.3-2.82-5.69-3.95-5.33s-1.2 3.33-.15 6.63c.45 1.42 1.03 2.65 1.64 3.58.38-.39.88-.72 1.46-.9Z" style="fill:#70327e"/><path d="M56.18 18.08s-1.03-2.34.75-3.2M71.4 13.25s-.51-2.51-2.46-2.18" style="stroke-linejoin:round;stroke:#70327e;stroke-linecap:round;fill:none"/><path d="M67.17 32.91s-7.92 1.32-10.31-6.22c0 0 2.51 11.53 6.13 10.38 1.34-.43.83-2.69.43-3.96" style="fill:#70327e;stroke-linejoin:round;stroke:#70327e;stroke-linecap:round"/><path d="M69.13 24.44s1.34-2.19 3.92-1.24" style="stroke-linejoin:round;stroke:#70327e;stroke-linecap:round;fill:none"/><path d="M63.23 25.59a3.51 3.51 0 0 1 1.72-.11c-.04-1.11-.27-2.46-.72-3.87-1.05-3.3-2.82-5.69-3.95-5.33s-1.2 3.33-.15 6.63c.45 1.42 1.03 2.65 1.64 3.58.38-.39.88-.72 1.46-.9Z" style="fill:#70327e"/><path d="M61.47 26.87s1.34-2.19 3.92-1.24M57.83 25.48s-.89 1.45-2.59.82" style="stroke-linejoin:round;stroke:#70327e;stroke-linecap:round;fill:none"/><ellipse cx="61.07" cy="19.96" rx="1" ry="1.45" transform="rotate(-15.66 61.087 19.96)" style="fill:#fff"/><ellipse cx="68.59" cy="17.7" rx="1" ry="1.45" transform="rotate(-15.66 68.586 17.693)" style="fill:#fff"/></g></svg>