<svg xmlns="http://www.w3.org/2000/svg" viewBox="0 0 150 150"><path d="M56.84 88.83c.81.15 1.59.54 2.24 1.15a4.478 4.478 0 0 1 .2 6.31c-.48.53-9.96 11.45-4.02 35.32.6 2.4-.87 4.84-3.27 5.44-2.4.6-4.84-.87-5.44-3.27-7.22-29.04 5.64-43.04 6.19-43.63a4.477 4.477 0 0 1 4.1-1.32ZM93.65 88.83c-.81.15-1.59.54-2.24 1.15a4.478 4.478 0 0 0-.2 6.31c.48.53 9.96 11.45 4.02 35.32-.6 2.4.87 4.84 3.27 5.44 2.4.6 4.84-.87 5.44-3.27 7.22-29.04-5.64-43.04-6.19-43.63a4.477 4.477 0 0 0-4.1-1.32Z" style="fill:#c4c5c7;stroke:#8f9294;stroke-linejoin:round"/><path style="fill:#c3c4c6;stroke:#8e9193;stroke-linejoin:round" d="M89.93 103.44v39.61l9.72 6.7H81.17v-46.31h8.76zM70.42 103.44v39.61l3.48 6.7H58.09l3.58-6.57v-39.74h8.75z"/><path transform="rotate(180 75 69.63)" style="fill:#f16164;stroke-linejoin:round;stroke:#701616" d="M35.78 30.41h78.44v78.44H35.78z"/><path d="M81.99 90.34s-4.37.78-9.29-.86" style="stroke-linejoin:round;stroke:#701616;fill:none;stroke-linecap:round"/><ellipse cx="67.3" cy="72.69" rx="5.33" ry="11.9" style="fill:#701616"/><path style="stroke-linejoin:round;stroke:#701616;fill:none;stroke-linecap:round" d="M67.3 62.46v-4.53M68.82 63.21l2.02-4.07M65.89 63.21l-2.02-4.07"/><ellipse cx="68.8" cy="68.92" rx="1.44" ry="2.49" style="fill:#fff"/><ellipse cx="89.08" cy="72.69" rx="5.33" ry="11.9" style="fill:#701616"/><path style="stroke-linejoin:round;stroke:#701616;fill:none;stroke-linecap:round" d="M89.08 62.46v-4.53M90.6 63.21l2.02-4.07M87.67 63.21l-2.01-4.07"/><ellipse cx="90.59" cy="68.92" rx="1.44" ry="2.49" style="fill:#fff"/></svg>