<svg xmlns="http://www.w3.org/2000/svg" viewBox="0 0 150 150"><defs><clipPath id="a"><path d="M10.43 0h129.14v113.3H10.43z" style="fill:none"/></clipPath></defs><g style="clip-path:url(#a)"><path d="M92.76 39.18a4.26 4.26 0 0 1-2.75-1.83 4.237 4.237 0 0 1 1.18-5.85c.55-.38 11.64-8.38 11.33-31.64a4.245 4.245 0 1 1 8.49-.11c.37 28.29-14.48 38.39-15.12 38.81-.96.63-2.08.82-3.12.62Zm7.62 34.16 24.65 1.57 6.39-7.88-1.24 15.82-30.39-2.02zm-31.74 9.78 20.17 14.26 9.57-3.36-9.35 12.82-24.82-17.65z" style="stroke-linejoin:round;fill:#c5c6c8;stroke:#909395"/><path d="M35.46 21.58h66.01v66.01H35.46z" style="stroke:#701616;stroke-linejoin:round;fill:#f16164" transform="rotate(-9.11 68.41 54.588)"/><path d="M75.5 34.1s3.66-8 11.01-2.34" style="fill:none;stroke-linecap:round;stroke:#701616;stroke-linejoin:round;stroke-width:2px"/><path d="m80.33 29.62-.81-4.15m4.02 3.91 1.02-3.25m-7.3 4.47-2.16-2.64" style="fill:none;stroke-linecap:round;stroke:#701616;stroke-linejoin:round"/><path d="M55.19 38.3s3.66-8 11.01-2.34" style="fill:none;stroke-linecap:round;stroke:#701616;stroke-linejoin:round;stroke-width:2px"/><path d="m60.02 33.82-.8-4.15m4.01 3.91 1.02-3.25m-7.3 4.47-2.16-2.64m38.19-3.64c1.48 7.88-7 16.07-19.71 18.46-12.71 2.38-24.83-1.95-26.31-9.83" style="fill:none;stroke-linecap:round;stroke:#701616;stroke-linejoin:round"/><path d="M39.15 38.63c-.78 0-1.58-.22-2.28-.68a4.23 4.23 0 0 1-1.28-5.83c.35-.57 7.26-12.37-2.41-33.52-.97-2.13-.04-4.65 2.09-5.62s4.65-.04 5.62 2.09c11.76 25.73 2.25 40.97 1.84 41.61a4.22 4.22 0 0 1-3.58 1.94Z" style="stroke-linejoin:round;fill:#c5c6c8;stroke:#909395"/></g></svg>