<svg id="Layer_1" data-name="Layer 1" xmlns="http://www.w3.org/2000/svg" xmlns:xlink="http://www.w3.org/1999/xlink" viewBox="0 0 150 150"><defs><style>.cls-1,.cls-5,.cls-6{fill:none;}.cls-2{clip-path:url(#clip-path);}.cls-3{fill:#c5c6c8;stroke:#909395;}.cls-3,.cls-4,.cls-5,.cls-6{stroke-linejoin:round;}.cls-4{fill:#f16164;}.cls-4,.cls-5,.cls-6{stroke:#701616;}.cls-5,.cls-6{stroke-linecap:round;}.cls-5{stroke-width:2px;}</style><clipPath id="clip-path"><rect class="cls-1" x="10.43" width="129.14" height="113.3"/></clipPath></defs><g class="cls-2"><path class="cls-3" d="M92.76,39.18a4.24,4.24,0,0,1-1.57-7.69c.55-.38,11.64-8.38,11.33-31.64a4.24,4.24,0,0,1,4.19-4.29A4.23,4.23,0,0,1,111-.26c.37,28.29-14.48,38.4-15.12,38.81A4.21,4.21,0,0,1,92.76,39.18Z"/><polygon class="cls-3" points="100.38 73.34 125.03 74.91 131.42 67.03 130.18 82.85 99.79 80.83 100.38 73.34"/><polygon class="cls-3" points="68.64 83.12 88.81 97.38 98.38 94.02 89.03 106.84 64.21 89.19 68.64 83.12"/><rect class="cls-4" x="35.46" y="21.58" width="66.01" height="66.01" transform="translate(-7.78 11.52) rotate(-9.11)"/><path class="cls-5" d="M75.5,34.1s3.66-8,11-2.34"/><line class="cls-6" x1="80.33" y1="29.62" x2="79.52" y2="25.47"/><line class="cls-6" x1="83.54" y1="29.38" x2="84.56" y2="26.13"/><line class="cls-6" x1="77.26" y1="30.6" x2="75.1" y2="27.96"/><path class="cls-5" d="M55.19,38.3s3.66-8,11-2.34"/><line class="cls-6" x1="60.02" y1="33.82" x2="59.22" y2="29.67"/><line class="cls-6" x1="63.23" y1="33.58" x2="64.25" y2="30.33"/><line class="cls-6" x1="56.95" y1="34.8" x2="54.79" y2="32.16"/><path class="cls-6" d="M93,28.52C94.45,36.39,86,44.59,73.26,47S48.43,45,47,37.14"/><path class="cls-3" d="M39.15,38.63a4.23,4.23,0,0,1-3.57-6.5c.35-.58,7.26-12.38-2.41-33.52A4.25,4.25,0,0,1,35.27-7a4.24,4.24,0,0,1,5.62,2.09c11.76,25.73,2.25,41,1.84,41.61A4.24,4.24,0,0,1,39.15,38.63Z"/></g></svg>