<svg id="Layer_1" data-name="Layer 1" xmlns="http://www.w3.org/2000/svg" viewBox="0 0 150 150"><defs><style>.cls-1{fill:#c3c4c6;stroke:#8e9193;}.cls-1,.cls-11,.cls-12,.cls-13,.cls-2,.cls-5,.cls-9{stroke-linejoin:round;}.cls-10,.cls-2{fill:#f16164;}.cls-13,.cls-2,.cls-9{stroke:#701616;}.cls-3,.cls-6{fill:#fff;}.cls-3{stroke:#f89e4f;}.cls-3,.cls-6,.cls-8{stroke-miterlimit:10;}.cls-4{fill:#f89e4f;}.cls-12,.cls-13,.cls-5,.cls-8,.cls-9{fill:none;}.cls-5,.cls-8{stroke:#ce7328;}.cls-11,.cls-12,.cls-13,.cls-5,.cls-8,.cls-9{stroke-linecap:round;}.cls-13,.cls-5,.cls-8{stroke-width:2px;}.cls-6{stroke:#2dc5f4;}.cls-7{fill:#ce7328;}.cls-11{fill:#70327e;}.cls-11,.cls-12{stroke:#70327e;}</style></defs><polygon class="cls-1" points="62.23 103.44 62.23 143.05 71.96 149.75 53.48 149.75 53.48 103.44 62.23 103.44"/><polygon class="cls-1" points="35.09 103.44 35.09 143.05 38.58 149.75 22.76 149.75 26.34 143.18 26.34 103.44 35.09 103.44"/><path class="cls-1" d="M91.6,111.88c6,0,9.28-6,11-8.72a18.7,18.7,0,0,1,4.14.32,4,4,0,0,0,1.47-7.87c-1.48-.28-6.57-1-9.86,1.07-.86.54-.71,1.71-1.12,2.41-3.06,5.19-4.33,6.53-6.16,6.53-2,0-9.45-5-16.36-10.19-1.77-1.33-3.92-2.65-5.25-.89a4,4,0,0,0,.79,5.61c8.6,6.48,15.22,11.25,20.62,11.7Q91.21,111.88,91.6,111.88Z"/><rect class="cls-2" x="5.53" y="36.65" width="78.44" height="78.44" transform="translate(92.19 150.08) rotate(177.94)"/><path class="cls-3" d="M135.15,66a1.78,1.78,0,0,0-.06-1,2.18,2.18,0,0,0-.88-1,8.21,8.21,0,0,0-4-1.15c-1.21-.09-2.73.14-3.76-.62-.88-.65-.81-1.75-1.14-2.68a3.76,3.76,0,0,0-2.08-2.2,4.81,4.81,0,0,0-2.55-.24c-.67.09-1.56.12-2-.55s0-1.81-.08-2.6c-.14-2-2.21-2.94-3.95-3.22-2.24-.35-5.12.17-6.25,2.42-.79,1.58-.4,3.48-.43,5.17s-.56,3.69-2.33,4.13a3.83,3.83,0,0,1-1.47,0c-1.43-.22-2.86-.82-4.33-.65A4.82,4.82,0,0,0,96,64.66a1.77,1.77,0,0,0,0,1.7,2.11,2.11,0,0,0,.54.49c2.75,1.94,6,2.61,9.22,3.32,1.9.41,3.81.8,5.74,1.1a18.18,18.18,0,0,0,5.49.42,76.71,76.71,0,0,0,7.6-2,15.76,15.76,0,0,1,3.53-.63c1.32,0,2.64.12,4,0C133.89,69,134.86,67.74,135.15,66Z"/><path class="cls-4" d="M89.82,68.68l7.65-1.43,13.7,3.32,9.23-.7,6.22-1.69,8.85,1.51,5.37,1.92-5.93,19.63L80.07,88.31s10.22-1.2,6.9-9.91C93.08,79.82,95.79,71.39,89.82,68.68Z"/><path class="cls-5" d="M80.59,88.35l54.32,2.89,6.54-19.84s-10.57-4.36-17.16-3-5.52,2.75-13.63,1.9-14.31-4.65-21.13-2.22"/><path class="cls-6" d="M138.31,92.25,77.54,89.07a2.2,2.2,0,0,0-2.3,2.07l0,.5a2.17,2.17,0,0,0,2.06,2.29l2.57.14,4.21,2a3.62,3.62,0,0,0,1.23.27l44.55,2.33a3.65,3.65,0,0,0,1.26-.14L135.49,97l2.57.13A2.18,2.18,0,0,0,140.35,95l0-.49A2.19,2.19,0,0,0,138.31,92.25Z"/><circle class="cls-7" cx="143.55" cy="69.03" r="5.68"/><path class="cls-8" d="M137.44,82.2a18.09,18.09,0,0,0-10.64-3.85c-5.44.09-6.7,3.85-12.29,4.11s-6.92-3.2-13.26-3.84a21.52,21.52,0,0,0-11.51,2.26"/><path class="cls-9" d="M69.87,85.71A10.34,10.34,0,0,1,60.8,69.63"/><circle class="cls-10" cx="35.05" cy="78.95" r="11.73"/><path class="cls-11" d="M37.56,105.27a3.26,3.26,0,1,1,5.55-3.44Z"/><line class="cls-12" x1="39.47" y1="102.16" x2="41.32" y2="105.14"/><line class="cls-12" x1="37.56" y1="105.27" x2="38.54" y2="106.86"/><line class="cls-12" x1="43.11" y1="101.83" x2="44.09" y2="103.42"/><rect class="cls-11" x="33.13" y="82.97" width="1.85" height="20.93" transform="translate(-44.13 31.98) rotate(-31.8)"/><path class="cls-13" d="M74.2,61.36s-6.68-11.89-15.68-.67"/><line class="cls-9" x1="66.71" y1="55.89" x2="66.82" y2="49.2"/><line class="cls-9" x1="62.15" y1="57" x2="59.66" y2="52.53"/><line class="cls-9" x1="70.96" y1="57.03" x2="73.84" y2="53.01"/><path class="cls-13" d="M47.49,60.71S42.37,48.08,32,58.06"/><line class="cls-9" x1="40.8" y1="54.3" x2="42.49" y2="47.8"/><line class="cls-9" x1="36.64" y1="54.6" x2="34.45" y2="50.07"/><line class="cls-9" x1="44.84" y1="56.43" x2="48.24" y2="53.34"/><path class="cls-9" d="M47.52,77.43s6.38,5.66,11.42-1.17"/><path class="cls-9" d="M45.09,66.31a11.58,11.58,0,0,1-7,19.09"/><path class="cls-9" d="M25.12,76.76a11.58,11.58,0,0,1,8.67-14.13"/><path class="cls-1" d="M35.59,99a4,4,0,0,1-3.2-1.18C23.47,88.72,6.2,94.26,6,94.32a4,4,0,0,1-2.52-7.59c.89-.3,22.15-7.19,34.58,5.46A4,4,0,0,1,35.59,99Z"/></svg>