<svg xmlns="http://www.w3.org/2000/svg" viewBox="0 0 150 150"><defs><clipPath id="a"><path d="M72.48 74.74s.14 7.25.72 8.23 7.74-.12 7.74-.12 2.23-4.93 1.16-6.61-1.68-2.86-2.84-2.88-6.78 1.38-6.78 1.38" style="fill:none"/></clipPath></defs><path d="M91.96 48.78c-.64 0-1.29-.15-1.89-.48a4.003 4.003 0 0 1-1.64-5.4c.07-.14 4.41-8.55 1.26-15.62-2.04-4.56-6.91-7.83-14.49-9.72-2.14-.54-3.45-2.71-2.91-4.85S75 9.26 77.14 9.8c10.12 2.53 16.81 7.34 19.89 14.29 4.73 10.69-1.28 22.11-1.54 22.59a4 4 0 0 1-3.53 2.11Zm-32.23 87.26q-3.255 0-6.9-.57a4 4 0 0 1-3.33-4.57 4 4 0 0 1 4.57-3.33c7.74 1.21 13.52.09 17.17-3.33 5.61-5.27 4.91-14.73 4.9-14.83-.2-2.2 1.41-4.15 3.61-4.35 2.2-.19 4.15 1.41 4.35 3.61.05.54 1.14 13.4-7.39 21.4-4.24 3.98-9.93 5.98-16.98 5.98Z" style="stroke-linejoin:round;fill:#c5c6c8;stroke:#909395"/><path d="m25.42 86.72-8.03-4.81-11.63 7.02-5.28-8.95v20.44l16.16-9.63 6.21 2.89zm15.2-51.42L24.11 17.24l4.08-15.05-15.26 13.5 22.19 24.48z" style="stroke-linejoin:round;fill:#c5c7c9;stroke:#929497"/><path d="m42.82 44.59-4.05 16.09-8.62-2.17 7.53-29.91 95.02 23.92-7.53 29.91-8.62-2.17 4.05-16.09zm67.37 60.92 4.05-16.09 8.62 2.17-7.53 29.91-95.02-23.92 7.53-29.91 8.62 2.17-4.05 16.09z" style="stroke-linejoin:round;stroke:#0b6a88;fill:#2dc5f4"/><path d="M89.55 60.25c4 1.01 6.73 3.86 6.1 6.38s-4.39 3.74-8.39 2.73m-1.45 5.74c4 1.01 6.73 3.86 6.1 6.38s-4.39 3.74-8.39 2.73" style="fill:none;stroke-linecap:round;stroke-linejoin:round;stroke:#0b6a88"/><g style="clip-path:url(#a)"><path d="M64.79 80.24c-.03-.15-.06-.3-.07-.46a3.5 3.5 0 0 1 3.18-3.79l7.27-.64a3.498 3.498 0 0 1 .61 6.97l-7.27.64a3.49 3.49 0 0 1-3.72-2.72" style="fill:#f05124"/></g><path d="M77.87 63.11s-12.57 19.48-.43 23.72" style="fill:none;stroke-linecap:round;stroke-linejoin:round;stroke:#0b6a88"/></svg>