<svg id="Layer_1" data-name="Layer 1" xmlns="http://www.w3.org/2000/svg" viewBox="0 0 150 150"><defs><style>.cls-1{fill:#c4c5c7;stroke:#8f9294;}.cls-1,.cls-2,.cls-3,.cls-4{stroke-linejoin:round;}.cls-2{fill:#f16164;}.cls-2,.cls-3,.cls-4{stroke:#701616;}.cls-3,.cls-4{fill:none;stroke-linecap:round;}.cls-3{stroke-width:2px;}</style></defs><polygon class="cls-1" points="99.34 67.87 112.75 49.63 134.32 65.81 146.33 61.9 134.32 77.59 114.85 62.97 107.06 73.17 99.34 67.87"/><rect class="cls-2" x="20.67" y="28.55" width="82.23" height="82.23" transform="translate(-30.95 61.21) rotate(-43.22)"/><path class="cls-3" d="M54.64,66.93s-2.85-10.59,8.7-11"/><line class="cls-4" x1="55.72" y1="58.79" x2="51.65" y2="55.45"/><line class="cls-4" x1="58.6" y1="56.01" x2="57" y2="52.08"/><line class="cls-4" x1="53.55" y1="62.17" x2="49.38" y2="61.35"/><path class="cls-3" d="M70.13,48.62s-2.85-10.58,8.7-11"/><line class="cls-4" x1="71.2" y1="40.49" x2="67.14" y2="37.14"/><line class="cls-4" x1="74.09" y1="37.71" x2="72.49" y2="33.78"/><line class="cls-4" x1="69.04" y1="43.86" x2="64.87" y2="43.05"/><polygon class="cls-1" points="84.64 86.43 98.33 68.4 119.66 84.9 131.72 81.18 119.48 96.69 100.23 81.77 92.28 91.85 84.64 86.43"/><path class="cls-1" d="M60.71,94.26a5.29,5.29,0,0,1,7-6.08c.8.27,17,5.51,40.14-11.91a5.28,5.28,0,0,1,6.35,8.44C86,105.91,64.92,98.43,64,98.1A5.3,5.3,0,0,1,60.71,94.26Z"/><path class="cls-4" d="M62.19,64.73a10.3,10.3,0,0,1,11,17.44"/><path class="cls-4" d="M78.62,45.12a10.29,10.29,0,0,0,18.65,8.71"/><path class="cls-4" d="M74.45,65.68s6.48-1.91,6.13-8.52"/><ellipse class="cls-1" cx="121.78" cy="56.59" rx="5.28" ry="6.25" transform="matrix(0.54, -0.84, 0.84, 0.54, 8.52, 128.72)"/></svg>