<svg id="Layer_1" data-name="Layer 1" xmlns="http://www.w3.org/2000/svg" xmlns:xlink="http://www.w3.org/1999/xlink" viewBox="0 0 150 150"><defs><style>.cls-1,.cls-5{fill:none;}.cls-2{fill:#c5c6c8;stroke:#909395;}.cls-2,.cls-3,.cls-4,.cls-5{stroke-linejoin:round;}.cls-3{fill:#c5c7c9;stroke:#929497;}.cls-4{fill:#2dc5f4;}.cls-4,.cls-5{stroke:#0b6a88;}.cls-5{stroke-linecap:round;}.cls-6{clip-path:url(#clip-path);}.cls-7{fill:#f05124;}</style><clipPath id="clip-path"><path class="cls-1" d="M72.48,74.74S72.62,82,73.2,83s7.73-.11,7.73-.11,2.24-4.93,1.17-6.62-1.68-2.85-2.85-2.87A60.08,60.08,0,0,0,72.48,74.74Z"/></clipPath></defs><path class="cls-2" d="M92,48.78a3.91,3.91,0,0,1-1.89-.48,4,4,0,0,1-1.64-5.4c.07-.14,4.41-8.56,1.26-15.62-2-4.56-6.91-7.83-14.49-9.72A4,4,0,1,1,77.14,9.8C87.26,12.33,94,17.13,97,24.09c4.73,10.69-1.28,22.1-1.54,22.58A4,4,0,0,1,92,48.78Z"/><path class="cls-2" d="M59.73,136a44.74,44.74,0,0,1-6.9-.57,4,4,0,1,1,1.24-7.9c7.74,1.21,13.52.09,17.17-3.34,5.61-5.26,4.9-14.73,4.89-14.82a4,4,0,1,1,8-.74c.05.54,1.13,13.4-7.39,21.4C72.48,134,66.78,136,59.73,136Z"/><polygon class="cls-3" points="25.42 86.72 17.39 81.91 5.76 88.93 0.48 79.98 0.48 100.42 16.64 90.79 22.85 93.68 25.42 86.72"/><polygon class="cls-3" points="40.62 35.3 24.11 17.24 28.19 2.19 12.93 15.69 35.12 40.17 40.62 35.3"/><path class="cls-4" d="M42.82,44.59l-4,16.08L30.15,58.5l7.53-29.9,95,23.92-7.53,29.91-8.62-2.17,4-16.09Z"/><path class="cls-4" d="M110.19,105.51l4-16.09,8.62,2.18-7.53,29.9-95-23.92,7.53-29.91,8.62,2.17L32.41,85.93Z"/><path class="cls-5" d="M89.55,60.25c4,1,6.73,3.87,6.1,6.39s-4.39,3.74-8.39,2.73"/><path class="cls-5" d="M85.81,75.1c4,1,6.74,3.86,6.1,6.38s-4.39,3.74-8.39,2.73"/><g class="cls-6"><path class="cls-7" d="M64.79,80.24a2.32,2.32,0,0,1-.07-.46A3.5,3.5,0,0,1,67.9,76l7.27-.63a3.5,3.5,0,1,1,.61,7L68.51,83A3.5,3.5,0,0,1,64.79,80.24Z"/></g><path class="cls-5" d="M77.87,63.11S65.3,82.59,77.43,86.83"/></svg>