<svg id="Layer_1" data-name="Layer 1" xmlns="http://www.w3.org/2000/svg" xmlns:xlink="http://www.w3.org/1999/xlink" viewBox="0 0 150 150"><defs><style>.cls-1,.cls-8{fill:none;}.cls-2{clip-path:url(#clip-path);}.cls-3{fill:#2dc5f4;}.cls-3,.cls-4,.cls-8{stroke:#0b6a88;}.cls-3,.cls-4,.cls-6,.cls-8{stroke-linejoin:round;}.cls-4,.cls-5{fill:#0b6a88;}.cls-4{stroke-width:1.79px;}.cls-6{fill:#c5c6c8;stroke:#909395;}.cls-7{fill:#fff;}.cls-8{stroke-linecap:round;}</style><clipPath id="clip-path"><rect class="cls-1" width="149.49" height="149.49"/></clipPath></defs><g class="cls-2"><path class="cls-3" d="M49.16,198.73,76,195.2l1.89,14.36-49.79,6.55L7.21,57.93,57,51.37l1.89,14.35L32.11,69.25Z"/><path class="cls-4" d="M93.82,112.06s2.36,12.8-11.53,14.63-14.93-11.15-14.93-11.15Z"/><path class="cls-3" d="M100.94,60.18,74.15,63.71,72.26,49.36l49.79-6.56L142.88,201,93.1,207.55l-1.89-14.36L118,189.67Z"/><ellipse class="cls-5" cx="67.59" cy="95.46" rx="7.12" ry="15.48" transform="translate(-11.89 9.64) rotate(-7.5)"/><path class="cls-6" d="M65,128.52a7.71,7.71,0,0,0-3.25,4c-14.91,42-49.83,78.31-50.18,78.68a7.79,7.79,0,0,0,11.18,10.85c1.52-1.58,37.61-39.06,53.68-84.32A7.79,7.79,0,0,0,65,128.52Z"/><ellipse class="cls-7" cx="70.38" cy="90.82" rx="2.28" ry="4" transform="translate(-12.88 11.64) rotate(-8.67)"/><ellipse class="cls-5" cx="87.24" cy="93.02" rx="7.12" ry="15.48" transform="translate(-11.4 12.19) rotate(-7.5)"/><ellipse class="cls-7" cx="90.03" cy="88.38" rx="2.28" ry="4" transform="translate(-12.29 14.58) rotate(-8.67)"/><path class="cls-8" d="M55.12,82.4s-.79-7.94,6.52-8.64"/><path class="cls-8" d="M95.32,77.88s0-8-7.37-7.94"/></g></svg>