<svg xmlns="http://www.w3.org/2000/svg" viewBox="0 0 150 150"><path d="M62.23 103.44v39.61l9.73 6.7H53.48v-46.31zm-27.14 0v39.61l3.48 6.7H22.76l3.58-6.57v-39.74zm56.51 8.44c5.95 0 9.29-5.96 10.96-8.72.88-.11 2.96.1 4.13.31 2.17.4 4.26-1.04 4.66-3.21s-1.02-4.26-3.19-4.66c-1.48-.28-6.56-1.03-9.86 1.07-.85.54-.71 1.71-1.12 2.41-3.06 5.18-4.33 6.52-6.16 6.52-2.04 0-9.44-4.97-16.36-10.19-1.77-1.33-3.91-2.65-5.24-.89a4.004 4.004 0 0 0 .79 5.61c8.6 6.48 15.22 11.25 20.62 11.7.26.02.52.03.77.03Z" style="stroke-linejoin:round;fill:#c3c4c6;stroke:#8e9193"/><path d="M5.53 36.65h78.44v78.44H5.53z" style="stroke-linejoin:round;stroke:#701616;fill:#f16164" transform="rotate(177.94 44.746 75.869)"/><path d="M135.15 66.01c.06-.34.05-.66-.06-.96-.16-.41-.52-.7-.88-.94-1.19-.78-2.61-1.06-4.01-1.16-1.21-.08-2.72.14-3.76-.62-.87-.64-.81-1.74-1.14-2.67a3.73 3.73 0 0 0-2.08-2.2c-.82-.34-1.68-.36-2.55-.24-.67.09-1.56.13-1.96-.55-.43-.73-.02-1.81-.08-2.6-.15-2.01-2.21-2.94-3.95-3.21-2.24-.36-5.12.16-6.25 2.42-.79 1.58-.41 3.47-.43 5.17-.02 1.58-.57 3.69-2.34 4.13-.48.12-.98.08-1.47 0-1.43-.22-2.86-.82-4.33-.65-1.63.19-3.16 1.21-3.83 2.73-.24.54-.37 1.22-.03 1.71.14.2.33.35.53.49 2.75 1.94 6 2.61 9.23 3.31 1.9.42 3.81.8 5.73 1.11 1.77.28 3.72.7 5.49.42 2.6-.42 5.07-1.36 7.6-2.04 1.16-.31 2.33-.59 3.53-.64 1.32-.05 2.64.12 3.96.05 1.81-.09 2.78-1.33 3.07-3.06Z" style="stroke:#f89e4f;fill:#fff;stroke-miterlimit:10"/><path d="m89.82 68.68 7.65-1.43 13.7 3.32 9.23-.7 6.22-1.69 8.84 1.51 5.37 1.93-5.93 19.63-54.84-2.94s10.22-1.2 6.9-9.91c6.11 1.42 8.82-7.01 2.86-9.72" style="fill:#f89e4f"/><path d="m80.59 88.35 54.32 2.89 6.54-19.84s-10.57-4.37-17.16-2.97-5.52 2.74-13.63 1.9c-8.11-.85-14.32-4.65-21.13-2.22" style="stroke-linecap:round;stroke-linejoin:round;fill:none;stroke:#ce7328;stroke-width:2px"/><path d="m138.31 92.25-60.77-3.18c-1.2-.06-2.23.86-2.3 2.07l-.03.5c-.06 1.2.86 2.23 2.07 2.3l2.57.13 4.21 1.98c.31.14.76.24 1.23.27l44.55 2.33c.48.02.93-.02 1.26-.14l4.39-1.53 2.57.13c1.2.06 2.23-.86 2.3-2.07l.03-.5c.06-1.2-.86-2.23-2.07-2.3Z" style="fill:#fff;stroke-miterlimit:10;stroke:#2dc5f4"/><circle cx="143.55" cy="69.03" r="5.68" style="fill:#ce7328"/><path d="M137.44 82.2c-2.23-1.79-6.47-3.92-10.64-3.85-5.44.09-6.7 3.85-12.29 4.11-5.45.26-6.93-3.2-13.26-3.85-4.76-.49-8.83.97-11.51 2.27" style="stroke-linecap:round;fill:none;stroke-miterlimit:10;stroke:#ce7328;stroke-width:2px"/><path d="M69.87 85.71c-3.62.35-7.42-1.61-9.48-5.25-2.06-3.65-1.77-7.91.4-10.83" style="stroke-linecap:round;stroke-linejoin:round;fill:none;stroke:#701616"/><circle cx="35.05" cy="78.95" r="11.73" style="fill:#f16164"/><path d="M37.56 105.27c-.95-1.53-.48-3.55 1.05-4.5s3.55-.48 4.5 1.05l-5.55 3.44Z" style="fill:#70327e;stroke-linecap:round;stroke-linejoin:round;stroke:#70327e"/><path d="m39.47 102.16 1.85 2.98m-3.76.13.98 1.59m4.57-5.03.98 1.59" style="stroke-linecap:round;stroke-linejoin:round;stroke:#70327e;fill:none"/><path d="M33.13 82.97h1.85v20.93h-1.85z" style="fill:#70327e;stroke-linecap:round;stroke-linejoin:round;stroke:#70327e" transform="rotate(-31.8 34.068 93.45)"/><path d="M74.2 61.36s-6.68-11.88-15.68-.67" style="stroke-linecap:round;stroke-linejoin:round;fill:none;stroke:#701616;stroke-width:2px"/><path d="m66.71 55.89.11-6.69M62.15 57l-2.49-4.47m11.3 4.5 2.88-4.02" style="stroke-linecap:round;stroke-linejoin:round;fill:none;stroke:#701616"/><path d="M47.49 60.71s-5.12-12.63-15.47-2.65" style="stroke-linecap:round;stroke-linejoin:round;fill:none;stroke:#701616;stroke-width:2px"/><path d="m40.8 54.3 1.69-6.5m-5.85 6.8-2.19-4.53m10.39 6.36 3.4-3.09m-.72 24.09s6.38 5.65 11.42-1.18" style="stroke-linecap:round;stroke-linejoin:round;fill:none;stroke:#701616"/><path d="M45.09 66.31c3.02 3.46 3.82 8.55 1.6 12.89-1.77 3.48-5.06 5.67-8.64 6.2m-12.93-8.64c-.66-2.62-.42-5.49.91-8.09 1.63-3.19 4.52-5.3 7.76-6.04" style="stroke-linecap:round;stroke-linejoin:round;fill:none;stroke:#701616"/><path d="M35.59 98.98c-1.15.1-2.33-.29-3.2-1.18-8.92-9.08-26.19-3.54-26.36-3.48-2.1.69-4.36-.45-5.05-2.54s.44-4.35 2.53-5.05c.9-.3 22.16-7.19 34.59 5.47a3.999 3.999 0 0 1-2.51 6.79Z" style="stroke-linejoin:round;fill:#c3c4c6;stroke:#8e9193"/></svg>