<svg xmlns="http://www.w3.org/2000/svg" viewBox="0 0 150 150"><path d="m99.34 67.87 13.41-18.24 21.57 16.18 12.01-3.91-12.01 15.7-19.47-14.63-7.8 10.2z" style="stroke-linejoin:round;fill:#c4c5c7;stroke:#8f9294"/><path d="M20.67 28.55h82.23v82.23H20.67z" style="stroke:#701616;stroke-linejoin:round;fill:#f16164" transform="rotate(-43.22 61.785 69.67)"/><path d="M75.35 55.35c-3.36 2.28-5.51 5.92-8.2 8.95-3.3 3.72-7.07 5-11.94 5.43-3.48.31-6.72 1.56-7.21 5.48-.37 2.97.84 6.59 3.16 8.54 5.51 4.63 13.68 4.59 20.38 3.36 8.38-1.54 17.74-6.85 19.48-15.87.91-4.69-.37-9.9-3.66-13.42-2.78-2.97-7.51-5.13-11.37-2.87-.22.13-.43.26-.63.4Z" style="fill:#fff"/><path d="M52.89 84.77s14.38-21.03 37.86-13.53c-.45 1.93-.51 7.16-11.25 13.41-4.26 2.48-17.22 5.91-26.6.11Z" style="fill:#9253a1"/><path d="M54.64 66.93s-2.84-10.59 8.71-10.99" style="fill:none;stroke-linecap:round;stroke:#701616;stroke-linejoin:round;stroke-width:2px"/><path d="m55.72 58.79-4.07-3.34m6.95.56L57 52.08m-3.45 10.09-4.17-.82" style="fill:none;stroke-linecap:round;stroke:#701616;stroke-linejoin:round"/><path d="M70.13 48.62s-2.84-10.59 8.71-10.99" style="fill:none;stroke-linecap:round;stroke:#701616;stroke-linejoin:round;stroke-width:2px"/><path d="m71.2 40.49-4.06-3.35m6.95.57-1.6-3.93m-3.45 10.08-4.17-.81" style="fill:none;stroke-linecap:round;stroke:#701616;stroke-linejoin:round"/><path d="M84.64 86.43 98.33 68.4l21.33 16.5 12.06-3.72-12.24 15.51-19.25-14.92-7.95 10.08z" style="stroke-linejoin:round;fill:#c4c5c7;stroke:#8f9294"/><ellipse cx="121.78" cy="56.59" rx="5.28" ry="6.25" style="stroke-linejoin:round;fill:#c4c5c7;stroke:#8f9294" transform="rotate(-57.41 121.792 56.58)"/><path d="M75.35 55.35c-3.36 2.28-5.51 5.92-8.2 8.95-3.3 3.72-7.07 5-11.94 5.43-3.48.31-6.72 1.56-7.21 5.48-.37 2.97.84 6.59 3.16 8.54 5.51 4.63 13.68 4.59 20.38 3.36 8.38-1.54 17.74-6.85 19.48-15.87.91-4.69-.37-9.9-3.66-13.42-2.78-2.97-7.51-5.13-11.37-2.87-.22.13-.43.26-.63.4Z" style="fill:none;stroke-linecap:round;stroke:#701616;stroke-linejoin:round"/><path d="M75.35 55.35c-3.36 2.28-5.51 5.92-8.2 8.95-3.3 3.72-7.07 5-11.94 5.43-3.48.31-6.72 1.56-7.21 5.48-.37 2.97.84 6.59 3.16 8.54 5.51 4.63 13.68 4.59 20.38 3.36 8.38-1.54 17.74-6.85 19.48-15.87.91-4.69-.37-9.9-3.66-13.42-2.78-2.97-7.51-5.13-11.37-2.87-.22.13-.43.26-.63.4Z" style="fill:none;stroke-linecap:round;stroke:#701616;stroke-linejoin:round"/><path d="M60.16 92.06c-.17-.96-.07-1.98.34-2.95a5.29 5.29 0 0 1 6.88-2.83c.78.31 16.74 6.25 40.61-10.16 2.4-1.65 5.69-1.04 7.35 1.36 1.65 2.4 1.04 5.69-1.36 7.35-29.04 19.96-49.79 11.57-50.66 11.2a5.27 5.27 0 0 1-3.15-3.98Z" style="stroke-linejoin:round;fill:#c4c5c7;stroke:#8f9294"/></svg>