<?xml version="1.0" encoding="UTF-8"?><svg id="a" xmlns="http://www.w3.org/2000/svg" viewBox="0 0 150 150"><defs><style>.b,.c{fill:none;stroke-linecap:round;}.b,.c,.d{stroke:#701616;}.b,.c,.d,.e{stroke-linejoin:round;}.f{fill:#fff;}.g{fill:#9253a1;}.c{stroke-width:2px;}.d{fill:#f16164;}.e{fill:#c4c5c7;stroke:#8f9294;}</style></defs><polygon class="e" points="99.34 67.87 112.75 49.63 134.32 65.81 146.33 61.9 134.32 77.6 114.85 62.97 107.05 73.17 99.34 67.87"/><rect class="d" x="20.67" y="28.55" width="82.23" height="82.23" transform="translate(-30.95 61.21) rotate(-43.22)"/><path class="f" d="M75.35,55.35c-3.36,2.28-5.51,5.92-8.2,8.95-3.3,3.72-7.07,5-11.94,5.43-3.48,.31-6.72,1.56-7.21,5.48-.37,2.97,.84,6.59,3.16,8.54,5.51,4.63,13.68,4.59,20.38,3.36,8.38-1.54,17.74-6.85,19.48-15.87,.91-4.69-.37-9.9-3.66-13.42-2.78-2.97-7.51-5.13-11.37-2.87-.22,.13-.43,.26-.63,.4Z"/><path class="g" d="M52.89,84.77s14.38-21.03,37.86-13.53c-.45,1.93-.51,7.16-11.25,13.41-4.26,2.48-17.22,5.91-26.6,.11Z"/><g><path class="c" d="M54.64,66.93s-2.84-10.59,8.71-10.99"/><line class="b" x1="55.72" y1="58.79" x2="51.65" y2="55.45"/><line class="b" x1="58.6" y1="56.01" x2="57" y2="52.08"/><line class="b" x1="53.55" y1="62.17" x2="49.38" y2="61.35"/></g><g><path class="c" d="M70.13,48.62s-2.84-10.59,8.71-10.99"/><line class="b" x1="71.2" y1="40.49" x2="67.14" y2="37.14"/><line class="b" x1="74.09" y1="37.71" x2="72.49" y2="33.78"/><line class="b" x1="69.04" y1="43.86" x2="64.87" y2="43.05"/></g><polygon class="e" points="84.64 86.43 98.33 68.4 119.66 84.9 131.72 81.18 119.48 96.69 100.23 81.77 92.28 91.85 84.64 86.43"/><ellipse class="e" cx="121.78" cy="56.59" rx="5.28" ry="6.25" transform="translate(8.52 128.72) rotate(-57.41)"/><path class="b" d="M75.35,55.35c-3.36,2.28-5.51,5.92-8.2,8.95-3.3,3.72-7.07,5-11.94,5.43-3.48,.31-6.72,1.56-7.21,5.48-.37,2.97,.84,6.59,3.16,8.54,5.51,4.63,13.68,4.59,20.38,3.36,8.38-1.54,17.74-6.85,19.48-15.87,.91-4.69-.37-9.9-3.66-13.42-2.78-2.97-7.51-5.13-11.37-2.87-.22,.13-.43,.26-.63,.4Z"/><path class="b" d="M75.35,55.35c-3.36,2.28-5.51,5.92-8.2,8.95-3.3,3.72-7.07,5-11.94,5.43-3.48,.31-6.72,1.56-7.21,5.48-.37,2.97,.84,6.59,3.16,8.54,5.51,4.63,13.68,4.59,20.38,3.36,8.38-1.54,17.74-6.85,19.48-15.87,.91-4.69-.37-9.9-3.66-13.42-2.78-2.97-7.51-5.13-11.37-2.87-.22,.13-.43,.26-.63,.4Z"/><path class="e" d="M60.16,92.06c-.17-.96-.07-1.98,.34-2.95,1.13-2.67,4.2-3.93,6.88-2.83,.78,.31,16.74,6.25,40.61-10.16,2.4-1.65,5.69-1.04,7.35,1.36,1.65,2.4,1.04,5.69-1.36,7.35-29.04,19.96-49.79,11.57-50.66,11.2-1.72-.73-2.86-2.26-3.15-3.98Z"/></svg>