<svg data-name="Layer 1" xmlns="http://www.w3.org/2000/svg" viewBox="0 0 150 150"><path d="M122.35 19.18a3.78 3.78 0 0 1 .11 5 280.53 280.53 0 0 1-33.8 33.69A3.79 3.79 0 1 1 83.89 52a277.42 277.42 0 0 0 32.78-32.7 3.8 3.8 0 0 1 5.34-.44 3.47 3.47 0 0 1 .34.32Z" style="stroke-linejoin:round;fill:#c5c6c8;stroke:#909395"/><path style="fill:#c5c7c9;stroke:#929497;stroke-linejoin:round" d="M39.64 123.77v17.15l5.98 8.57H28.91l3.39-8.85v-16.87h7.34z"/><path d="M33.78 114.88h16.59v8.89H19.53v-98h30.84v8.9H33.78Z" style="stroke:#0b6a88;fill:#2dc5f4;stroke-linejoin:round"/><path style="fill:#c5c7c9;stroke:#929497;stroke-linejoin:round" d="M78.51 123.77v17.15l13.02 8.57H71.16v-25.72h7.35z"/><path d="M58.3 56c0-.5-.07-1-.14-1.51v-.46c-.07-.51-.16-1-.26-1.49s-.2-.81-.31-1.2l-.16-.34c-1.07-3.63-2.91-6.08-4.66-5.84s-2.86 3.1-2.92 6.87V53.6c0 .41.08 1 .15 1.52v.46q.12.77.27 1.5c.09.41.2.8.31 1.19 0 .11 0 .22.09.33 1.07 3.62 2.91 6.08 4.66 5.84s2.86-3.1 2.91-6.88v-.34c.09-.38.09-.78.06-1.22Z" style="fill:#0b6a88"/><path d="M76.41 34.68H59.82v-8.9h30.84v98H59.82v-8.89h16.59Z" style="stroke:#0b6a88;fill:#2dc5f4;stroke-linejoin:round"/><path d="M56.24 51.92a3.4 3.4 0 0 0 0-.45v-.13a3.12 3.12 0 0 0-.09-.44 3.57 3.57 0 0 0-.1-.35.42.42 0 0 0 0-.1c-.38-1-1.11-1.75-1.84-1.65s-1.25 1-1.34 2.09V51.81a.2.2 0 0 1 0 .07v.07c0 .07 0 .29.09.43a3.58 3.58 0 0 0 .11.35v.1c.39 1.06 1.11 1.75 1.85 1.65s1.24-1 1.33-2.09a.34.34 0 0 1 0-.1c-.01-.13 0-.29-.01-.37Z" style="fill:#fff"/><path d="M70 53.74c0-.49-.08-1-.14-1.51v-.45c-.08-.51-.16-1-.27-1.5s-.2-.8-.31-1.19c0-.11 0-.22-.09-.33-1.07-3.62-2.91-6.08-4.66-5.84S61.56 46 61.5 49.77V51.34c0 .42.08 1 .14 1.52v.45a20.47 20.47 0 0 0 .57 2.68c0 .11.06.23.09.33 1.07 3.63 2.91 6.08 4.66 5.84s2.86-3.1 2.92-6.88v-.34c.12-.37.12-.78.12-1.2Z" style="fill:#0b6a88"/><path d="M67.89 49.64v-.44a.2.2 0 0 1 0-.07v-.07l-.09-.44a3.38 3.38 0 0 0-.11-.34v-.1c-.39-1.06-1.11-1.76-1.85-1.66s-1.24 1-1.33 2.1a.34.34 0 0 1 0 .1V49.6a.64.64 0 0 0 0 .07 3.12 3.12 0 0 0 .09.44 3.57 3.57 0 0 0 .1.35v.1c.39 1.05 1.12 1.75 1.85 1.65s1.25-1 1.33-2.09a.34.34 0 0 0 0-.1c.01-.13.01-.25.01-.38Z" style="fill:#fff"/><path d="m70.6 64.66-19.52 3.66s5.7 10.57 10.71 10.16c6.59-.54 9.31-11.07 8.81-13.82Z" style="stroke-linecap:round;fill:#0b6a88;stroke:#0b6a88;stroke-linejoin:round"/><path d="M16.88 134.18a3.79 3.79 0 0 0 3.78-3.29 280.2 280.2 0 0 0 2.25-47.66 3.79 3.79 0 0 0-7.56.42 278.74 278.74 0 0 1-2.2 46.24 3.8 3.8 0 0 0 3.26 4.26 3.59 3.59 0 0 0 .47.03Z" style="stroke-linejoin:round;fill:#c5c6c8;stroke:#909395"/></svg>