<svg xmlns="http://www.w3.org/2000/svg" viewBox="0 0 150 150"><defs><clipPath id="a"><path style="fill:none" d="M0 0h149.49v149.49H0z"/></clipPath></defs><g style="clip-path:url(#a)"><path d="m49.16 198.73 26.78-3.53 1.89 14.35-49.79 6.56L7.21 57.93 57 51.37l1.89 14.35-26.78 3.53 17.05 129.48Z" style="fill:#2dc5f4;stroke:#0b6a88;stroke-linejoin:round"/><path d="M93.82 112.06s2.37 12.8-11.53 14.63c-13.9 1.83-14.92-11.15-14.92-11.15l26.45-3.48Z" style="stroke-width:1.79px;fill:#0b6a88;stroke:#0b6a88;stroke-linejoin:round"/><path d="m100.94 60.18-26.78 3.53-1.89-14.35 49.79-6.56 20.83 158.19-49.79 6.56-1.89-14.35 26.78-3.53-17.05-129.49Z" style="fill:#2dc5f4;stroke:#0b6a88;stroke-linejoin:round"/><ellipse cx="67.59" cy="95.46" rx="7.12" ry="15.48" transform="rotate(-7.5 67.594 95.523)" style="fill:#0b6a88"/><path d="M64.96 128.52a7.76 7.76 0 0 0-3.25 4.02c-14.9 41.98-49.83 78.31-50.18 78.67-2.99 3.09-2.92 8.02.17 11.01 3.09 3 8.02 2.92 11.01-.16 1.53-1.57 37.62-39.06 53.68-84.31a7.795 7.795 0 0 0-4.73-9.95 7.805 7.805 0 0 0-6.7.71Z" style="fill:#c5c6c8;stroke:#909395;stroke-linejoin:round"/><ellipse cx="70.38" cy="90.82" rx="2.28" ry="4" transform="rotate(-8.67 70.336 90.775)" style="fill:#fff"/><ellipse cx="87.24" cy="93.02" rx="7.12" ry="15.48" transform="rotate(-7.5 87.292 93.06)" style="fill:#0b6a88"/><ellipse cx="90.03" cy="88.38" rx="2.28" ry="4" transform="rotate(-8.67 90.023 88.354)" style="fill:#fff"/><path d="M55.12 82.4s-.79-7.94 6.52-8.65M95.32 77.88s-.03-7.98-7.37-7.93" style="stroke:#0b6a88;stroke-linejoin:round;stroke-linecap:round;fill:none"/></g></svg>