<svg xmlns="http://www.w3.org/2000/svg" viewBox="0 0 150 150"><path d="M100.18 88.83c-.81.15-1.59.54-2.24 1.15a4.48 4.48 0 0 0-.2 6.31c.48.53 9.96 11.45 4.02 35.32-.6 2.4.87 4.84 3.27 5.44s4.84-.87 5.44-3.27c7.22-29.04-5.64-43.04-6.19-43.63a4.48 4.48 0 0 0-4.1-1.32Z" style="stroke-linejoin:round;stroke:#8f9294;fill:#c4c5c7"/><path d="M96.46 103.44v39.61l9.73 6.7H87.71v-46.31zm-19.5 0v39.61l3.48 6.7H64.62l3.58-6.57v-39.74z" style="stroke-linejoin:round;fill:#c3c4c6;stroke:#8e9193"/><path d="M42.31 30.41h78.44v78.44H42.31z" style="stroke-linejoin:round;stroke:#701616;fill:#f16164" transform="rotate(180 81.53 69.63)"/><path d="M86.35 85.52s-2.44-.05-4.54 0" style="fill:none;stroke-linecap:round;stroke-linejoin:round;stroke:#701616"/><ellipse cx="73.83" cy="72.69" rx="5.33" ry="11.9" style="fill:#701616"/><path d="M73.83 62.46v-4.53m1.52 5.28 2.02-4.07m-4.95 4.07-2.01-4.07" style="fill:none;stroke-linecap:round;stroke-linejoin:round;stroke:#701616"/><ellipse cx="75.34" cy="68.92" rx="1.44" ry="2.49" style="fill:#fff"/><ellipse cx="95.61" cy="72.69" rx="5.33" ry="11.9" style="fill:#701616"/><path d="M95.61 62.46v-4.53m1.52 5.28 2.02-4.07m-4.95 4.07-2.01-4.07" style="fill:none;stroke-linecap:round;stroke-linejoin:round;stroke:#701616"/><ellipse cx="97.12" cy="68.92" rx="1.44" ry="2.49" style="fill:#fff"/><path d="M75.58 96.64s-11.1 40.96-21.36 10.53" style="fill:none;stroke-linecap:round;stroke-linejoin:round;stroke-width:10px;stroke:#8f9294"/><path d="M75.58 96.64s-11.1 40.96-21.36 10.53" style="fill:none;stroke-linecap:round;stroke-linejoin:round;stroke:#c4c5c7;stroke-width:8px"/><ellipse cx="96.06" cy="83.08" rx="7.45" ry="4.74" style="fill:#f16164"/><path d="M90.1 79.84s5.13-2.85 10.73 0M65.21 56.2s-.05-6.9 6.01-6.43m19.13 5.34h10.63" style="fill:none;stroke-linecap:round;stroke-linejoin:round;stroke:#701616"/></svg>