<?xml version="1.0" encoding="UTF-8"?><svg id="a" xmlns="http://www.w3.org/2000/svg" xmlns:xlink="http://www.w3.org/1999/xlink" viewBox="0 0 150 150"><defs><style>.c,.d,.e{fill:none;}.d,.e{stroke-linecap:round;}.d,.e,.f{stroke:#701616;}.d,.e,.f,.g{stroke-linejoin:round;}.e{stroke-width:2px;}.h{clip-path:url(#b);}.f{fill:#f16164;}.g{fill:#c5c6c8;stroke:#909395;}</style><clipPath id="b"><rect class="c" x="10.43" width="129.14" height="113.3"/></clipPath></defs><g class="h"><g><path class="g" d="M92.76,39.18c-1.09-.21-2.09-.84-2.75-1.83-1.28-1.95-.75-4.56,1.18-5.85,.55-.38,11.64-8.38,11.33-31.64-.03-2.34,1.84-4.27,4.19-4.3,2.34-.03,4.27,1.84,4.3,4.19,.37,28.29-14.48,38.39-15.12,38.81-.96,.63-2.08,.82-3.12,.62Z"/><polygon class="g" points="100.38 73.34 125.03 74.91 131.42 67.03 130.18 82.85 99.79 80.83 100.38 73.34"/><polygon class="g" points="68.64 83.12 88.81 97.38 98.38 94.02 89.03 106.84 64.21 89.19 68.64 83.12"/><rect class="f" x="35.46" y="21.58" width="66.01" height="66.01" transform="translate(-7.78 11.52) rotate(-9.11)"/><g><path class="e" d="M75.5,34.1s3.66-8,11.01-2.34"/><line class="d" x1="80.33" y1="29.62" x2="79.52" y2="25.47"/><line class="d" x1="83.54" y1="29.38" x2="84.56" y2="26.13"/><line class="d" x1="77.26" y1="30.6" x2="75.1" y2="27.96"/></g><g><path class="e" d="M55.19,38.3s3.66-8,11.01-2.34"/><line class="d" x1="60.02" y1="33.82" x2="59.22" y2="29.67"/><line class="d" x1="63.23" y1="33.58" x2="64.25" y2="30.33"/><line class="d" x1="56.95" y1="34.8" x2="54.79" y2="32.16"/></g><path class="d" d="M92.98,28.52c1.48,7.88-7,16.07-19.71,18.46-12.71,2.38-24.83-1.95-26.31-9.83"/><path class="g" d="M39.15,38.63c-.78,0-1.58-.22-2.28-.68-1.96-1.26-2.53-3.87-1.28-5.83,.35-.57,7.26-12.37-2.41-33.52-.97-2.13-.04-4.65,2.09-5.62,2.13-.97,4.65-.04,5.62,2.09,11.76,25.73,2.25,40.97,1.84,41.61-.81,1.26-2.18,1.95-3.58,1.94Z"/></g></g></svg>