<svg xmlns="http://www.w3.org/2000/svg" viewBox="0 0 150 150"><path d="M56.84 88.83c.81.15 1.59.54 2.24 1.15a4.48 4.48 0 0 1 .2 6.31c-.48.53-9.96 11.45-4.02 35.32.6 2.4-.87 4.84-3.27 5.44s-4.84-.87-5.44-3.27c-7.22-29.04 5.64-43.04 6.19-43.63a4.48 4.48 0 0 1 4.1-1.32Zm36.81 0c-.81.15-1.59.54-2.24 1.15a4.48 4.48 0 0 0-.2 6.31c.48.53 9.96 11.45 4.02 35.32-.6 2.4.87 4.84 3.27 5.44s4.84-.87 5.44-3.27c7.22-29.04-5.64-43.04-6.19-43.63a4.48 4.48 0 0 0-4.1-1.32Z" style="stroke-linejoin:round;fill:#c4c5c7;stroke:#8f9294"/><path d="M89.93 103.44v39.61l9.72 6.7H81.17v-46.31zm-19.51 0v39.61l3.48 6.7H58.09l3.58-6.57v-39.74z" style="stroke-linejoin:round;fill:#c3c4c6;stroke:#8e9193"/><path d="M35.78 30.41h78.44v78.44H35.78z" style="stroke:#701616;stroke-linejoin:round;fill:#f16164" transform="rotate(180 75 69.63)"/><path d="M81.99 90.34s-4.37.78-9.29-.86" style="fill:none;stroke-linecap:round;stroke:#701616;stroke-linejoin:round"/><ellipse cx="67.3" cy="72.69" rx="5.33" ry="11.9" style="fill:#701616"/><path d="M67.3 62.46v-4.53m1.52 5.28 2.02-4.07m-4.95 4.07-2.02-4.07" style="fill:none;stroke-linecap:round;stroke:#701616;stroke-linejoin:round"/><ellipse cx="68.8" cy="68.92" rx="1.44" ry="2.49" style="fill:#fff"/><ellipse cx="89.08" cy="72.69" rx="5.33" ry="11.9" style="fill:#701616"/><path d="M89.08 62.46v-4.53m1.52 5.28 2.02-4.07m-4.95 4.07-2.01-4.07" style="fill:none;stroke-linecap:round;stroke:#701616;stroke-linejoin:round"/><ellipse cx="90.59" cy="68.92" rx="1.44" ry="2.49" style="fill:#fff"/></svg>