<svg id="Layer_1" data-name="Layer 1" xmlns="http://www.w3.org/2000/svg" viewBox="0 0 150 150"><defs><style>.cls-1{fill:#c5c6c8;stroke:#909395;}.cls-1,.cls-2,.cls-3,.cls-6{stroke-linejoin:round;}.cls-2{fill:#c5c7c9;stroke:#929497;}.cls-3{fill:#2dc5f4;}.cls-3,.cls-6{stroke:#0b6a88;}.cls-4,.cls-6{fill:#0b6a88;}.cls-5{fill:#fff;}.cls-6{stroke-linecap:round;}</style></defs><path class="cls-1" d="M122.35,19.18a3.78,3.78,0,0,1,.11,5,280.53,280.53,0,0,1-33.8,33.69A3.79,3.79,0,1,1,83.89,52,277.42,277.42,0,0,0,116.67,19.3a3.8,3.8,0,0,1,5.34-.44A3.47,3.47,0,0,1,122.35,19.18Z"/><polygon class="cls-2" points="39.64 123.77 39.64 140.92 45.62 149.49 28.91 149.49 32.3 140.64 32.3 123.77 39.64 123.77"/><path class="cls-3" d="M33.78,114.88H50.37v8.89H19.53v-98H50.37v8.9H33.78Z"/><polygon class="cls-2" points="78.51 123.77 78.51 140.92 91.53 149.49 71.16 149.49 71.16 123.77 78.51 123.77"/><path class="cls-4" d="M58.3,56c0-.5-.07-1-.14-1.51,0-.08,0-.16,0-.23v0h0c0-.08,0-.15,0-.23-.07-.51-.16-1-.26-1.49s-.2-.81-.31-1.2L57.43,51c-1.07-3.63-2.91-6.08-4.66-5.84s-2.86,3.1-2.92,6.87c0,.12,0,.24,0,.35,0,.41,0,.81,0,1.22s.08,1,.15,1.52c0,.08,0,.15,0,.23h0c0,.08,0,.15,0,.23q.12.77.27,1.5c.09.41.2.8.31,1.19,0,.11,0,.22.09.33,1.07,3.62,2.91,6.08,4.66,5.84s2.86-3.1,2.91-6.88c0-.11,0-.23,0-.34C58.33,56.84,58.33,56.44,58.3,56Z"/><path class="cls-3" d="M76.41,34.68H59.82v-8.9H90.66v98H59.82v-8.89H76.41Z"/><path class="cls-5" d="M56.24,51.92a3.4,3.4,0,0,0,0-.45V51.4h0s0,0,0-.06a3.12,3.12,0,0,0-.09-.44,3.57,3.57,0,0,0-.1-.35.42.42,0,0,0,0-.1c-.38-1-1.11-1.75-1.84-1.65s-1.25,1-1.34,2.09V51c0,.12,0,.24,0,.37s0,.29,0,.44a.2.2,0,0,1,0,.07h0s0,0,0,.07,0,.29.09.43a3.58,3.58,0,0,0,.11.35l0,.1c.39,1.06,1.11,1.75,1.85,1.65s1.24-1,1.33-2.09a.34.34,0,0,1,0-.1C56.24,52.16,56.25,52,56.24,51.92Z"/><path class="cls-4" d="M70,53.74c0-.49-.08-1-.14-1.51l0-.23h0v0c0-.07,0-.15,0-.22-.08-.51-.16-1-.27-1.5s-.2-.8-.31-1.19c0-.11,0-.22-.09-.33-1.07-3.62-2.91-6.08-4.66-5.84S61.56,46,61.5,49.77v.35c0,.4,0,.8,0,1.22s.08,1,.14,1.52c0,.07,0,.15,0,.22v0h0c0,.08,0,.15,0,.23.07.51.16,1,.27,1.49s.19.8.3,1.19c0,.11.06.23.09.33,1.07,3.63,2.91,6.08,4.66,5.84s2.86-3.1,2.92-6.88c0-.11,0-.22,0-.34C70,54.57,70,54.16,70,53.74Z"/><path class="cls-5" d="M67.89,49.64c0-.14,0-.29,0-.44a.2.2,0,0,1,0-.07h0s0,0,0-.07l-.09-.44a3.38,3.38,0,0,0-.11-.34l0-.1c-.39-1.06-1.11-1.76-1.85-1.66s-1.24,1-1.33,2.1a.34.34,0,0,1,0,.1c0,.12,0,.24,0,.36s0,.3,0,.45v.07h0a.64.64,0,0,0,0,.07,3.12,3.12,0,0,0,.09.44,3.57,3.57,0,0,0,.1.35l0,.1c.39,1.05,1.12,1.75,1.85,1.65s1.25-1,1.33-2.09a.34.34,0,0,0,0-.1C67.89,49.89,67.89,49.77,67.89,49.64Z"/><path class="cls-6" d="M70.6,64.66,51.08,68.32s5.7,10.57,10.71,10.16C68.38,77.94,71.1,67.41,70.6,64.66Z"/><path class="cls-1" d="M16.88,134.18a3.79,3.79,0,0,0,3.78-3.29,280.2,280.2,0,0,0,2.25-47.66,3.79,3.79,0,0,0-7.56.42,278.74,278.74,0,0,1-2.2,46.24,3.8,3.8,0,0,0,3.26,4.26A3.59,3.59,0,0,0,16.88,134.18Z"/></svg>