<svg data-name="Layer 1" xmlns="http://www.w3.org/2000/svg" viewBox="0 0 150 150"><path style="stroke-linejoin:round;fill:#c4c5c7;stroke:#8f9294" d="m99.34 67.87 13.41-18.24 21.57 16.18 12.01-3.91-12.01 15.69-19.47-14.62-7.79 10.2-7.72-5.3z"/><path transform="rotate(-43.22 61.785 69.67)" style="stroke:#701616;fill:#f16164;stroke-linejoin:round" d="M20.67 28.55h82.23v82.23H20.67z"/><path d="M54.64 66.93s-2.85-10.59 8.7-11" style="stroke-width:2px;fill:none;stroke-linecap:round;stroke:#701616;stroke-linejoin:round"/><path style="fill:none;stroke-linecap:round;stroke:#701616;stroke-linejoin:round" d="m55.72 58.79-4.07-3.34M58.6 56.01 57 52.08M53.55 62.17l-4.17-.82"/><path d="M70.13 48.62s-2.85-10.58 8.7-11" style="stroke-width:2px;fill:none;stroke-linecap:round;stroke:#701616;stroke-linejoin:round"/><path style="fill:none;stroke-linecap:round;stroke:#701616;stroke-linejoin:round" d="m71.2 40.49-4.06-3.35M74.09 37.71l-1.6-3.93M69.04 43.86l-4.17-.81"/><path style="stroke-linejoin:round;fill:#c4c5c7;stroke:#8f9294" d="M84.64 86.43 98.33 68.4l21.33 16.5 12.06-3.72-12.24 15.51-19.25-14.92-7.95 10.08-7.64-5.42z"/><path d="M60.71 94.26a5.29 5.29 0 0 1 7-6.08c.8.27 17 5.51 40.14-11.91a5.28 5.28 0 0 1 6.35 8.44C86 105.91 64.92 98.43 64 98.1a5.3 5.3 0 0 1-3.29-3.84Z" style="stroke-linejoin:round;fill:#c4c5c7;stroke:#8f9294"/><path d="M62.19 64.73a10.3 10.3 0 0 1 11 17.44M78.62 45.12a10.29 10.29 0 0 0 18.65 8.71" style="fill:none;stroke-linecap:round;stroke:#701616;stroke-linejoin:round"/><path d="M74.45 65.68s6.48-1.91 6.13-8.52" style="fill:none;stroke-linecap:round;stroke:#701616;stroke-linejoin:round"/><ellipse cx="121.78" cy="56.59" rx="5.28" ry="6.25" transform="rotate(-57.3 122.159 56.754)" style="stroke-linejoin:round;fill:#c4c5c7;stroke:#8f9294"/></svg>