<svg data-name="Layer 1" xmlns="http://www.w3.org/2000/svg" viewBox="0 0 150 150"><path style="stroke-linejoin:round;fill:#c3c4c6;stroke:#8e9193" d="M62.23 103.44v39.61l9.73 6.7H53.48v-46.31h8.75zM35.09 103.44v39.61l3.49 6.7H22.76l3.58-6.57v-39.74h8.75zM91.6 111.88c6 0 9.28-6 11-8.72a18.7 18.7 0 0 1 4.14.32 4 4 0 0 0 1.47-7.87c-1.48-.28-6.57-1-9.86 1.07-.86.54-.71 1.71-1.12 2.41-3.06 5.19-4.33 6.53-6.16 6.53-2 0-9.45-5-16.36-10.19-1.77-1.33-3.92-2.65-5.25-.89a4 4 0 0 0 .79 5.61c8.6 6.48 15.22 11.25 20.62 11.7q.34.03.73.03Z"/><path transform="rotate(177.94 44.746 75.869)" style="stroke:#701616;fill:#f16164;stroke-linejoin:round" d="M5.53 36.65h78.44v78.44H5.53z"/><path d="M135.15 66a1.78 1.78 0 0 0-.06-1 2.18 2.18 0 0 0-.88-1 8.21 8.21 0 0 0-4-1.15c-1.21-.09-2.73.14-3.76-.62-.88-.65-.81-1.75-1.14-2.68a3.76 3.76 0 0 0-2.08-2.2 4.81 4.81 0 0 0-2.55-.24c-.67.09-1.56.12-2-.55s0-1.81-.08-2.6c-.14-2-2.21-2.94-3.95-3.22-2.24-.35-5.12.17-6.25 2.42-.79 1.58-.4 3.48-.43 5.17s-.56 3.69-2.33 4.13a3.83 3.83 0 0 1-1.47 0c-1.43-.22-2.86-.82-4.33-.65A4.82 4.82 0 0 0 96 64.66a1.77 1.77 0 0 0 0 1.7 2.11 2.11 0 0 0 .54.49c2.75 1.94 6 2.61 9.22 3.32 1.9.41 3.81.8 5.74 1.1a18.18 18.18 0 0 0 5.49.42 76.71 76.71 0 0 0 7.6-2 15.76 15.76 0 0 1 3.53-.63c1.32 0 2.64.12 4 0 1.77-.06 2.74-1.32 3.03-3.06Z" style="stroke-miterlimit:10;stroke:#f89e4f;fill:#fff"/><path d="m89.82 68.68 7.65-1.43 13.7 3.32 9.23-.7 6.22-1.69 8.85 1.51 5.37 1.92-5.93 19.63-54.84-2.93s10.22-1.2 6.9-9.91c6.11 1.42 8.82-7.01 2.85-9.72Z" style="fill:#f89e4f"/><path d="m80.59 88.35 54.32 2.89 6.54-19.84s-10.57-4.36-17.16-3-5.52 2.75-13.63 1.9-14.31-4.65-21.13-2.22" style="stroke-width:2px;stroke-linecap:round;stroke:#ce7328;fill:none;stroke-linejoin:round"/><path d="m138.31 92.25-60.77-3.18a2.2 2.2 0 0 0-2.3 2.07v.5a2.17 2.17 0 0 0 2.06 2.29l2.57.14 4.21 2a3.62 3.62 0 0 0 1.23.27l44.55 2.33a3.65 3.65 0 0 0 1.26-.14l4.37-1.53 2.57.13a2.18 2.18 0 0 0 2.29-2.13v-.49a2.19 2.19 0 0 0-2.04-2.26Z" style="stroke:#2dc5f4;stroke-miterlimit:10;fill:#fff"/><circle cx="143.55" cy="69.03" r="5.68" style="fill:#ce7328"/><path d="M137.44 82.2a18.09 18.09 0 0 0-10.64-3.85c-5.44.09-6.7 3.85-12.29 4.11s-6.92-3.2-13.26-3.84a21.52 21.52 0 0 0-11.51 2.26" style="stroke-width:2px;stroke-linecap:round;stroke:#ce7328;fill:none;stroke-miterlimit:10"/><path d="M69.87 85.71a10.34 10.34 0 0 1-9.07-16.08" style="stroke-linecap:round;fill:none;stroke:#701616;stroke-linejoin:round"/><circle cx="35.05" cy="78.95" r="11.73" style="fill:#f16164"/><path d="M37.56 105.27a3.26 3.26 0 1 1 5.55-3.44Z" style="stroke:#70327e;fill:#70327e;stroke-linecap:round;stroke-linejoin:round"/><path style="stroke:#70327e;stroke-linecap:round;fill:none;stroke-linejoin:round" d="m39.47 102.16 1.85 2.98M37.56 105.27l.98 1.59M43.11 101.83l.98 1.59"/><path transform="rotate(-31.8 34.068 93.45)" style="stroke:#70327e;fill:#70327e;stroke-linecap:round;stroke-linejoin:round" d="M33.13 82.97h1.85v20.93h-1.85z"/><path d="M74.2 61.36s-6.68-11.89-15.68-.67" style="stroke-width:2px;stroke-linecap:round;fill:none;stroke:#701616;stroke-linejoin:round"/><path style="stroke-linecap:round;fill:none;stroke:#701616;stroke-linejoin:round" d="m66.71 55.89.11-6.69M62.15 57l-2.49-4.47M70.96 57.03l2.88-4.02"/><path d="M47.49 60.71S42.37 48.08 32 58.06" style="stroke-width:2px;stroke-linecap:round;fill:none;stroke:#701616;stroke-linejoin:round"/><path style="stroke-linecap:round;fill:none;stroke:#701616;stroke-linejoin:round" d="m40.8 54.3 1.69-6.5M36.64 54.6l-2.19-4.53M44.84 56.43l3.4-3.09M47.52 77.43s6.38 5.66 11.42-1.17"/><path d="M45.09 66.31a11.58 11.58 0 0 1-7 19.09M25.12 76.76a11.58 11.58 0 0 1 8.67-14.13" style="stroke-linecap:round;fill:none;stroke:#701616;stroke-linejoin:round"/><path d="M35.59 99a4 4 0 0 1-3.2-1.18C23.47 88.72 6.2 94.26 6 94.32a4 4 0 0 1-2.52-7.59c.89-.3 22.15-7.19 34.58 5.46A4 4 0 0 1 35.59 99Z" style="stroke-linejoin:round;fill:#c3c4c6;stroke:#8e9193"/></svg>