<svg xmlns="http://www.w3.org/2000/svg" viewBox="0 0 150 150"><path d="M39.26 85.35c-2.85 1.5-6.84 4.49-7.33 9.65-.61 6.4 6.4 8 8.57 8.33 6.42 1 17.03-2.69 24.86-11.67a3.672 3.672 0 0 1 5.54 4.82c-8.82 10.12-20.21 14.33-28.38 14.33-1.12 0-2.17-.08-3.15-.23-9.75-1.52-15.54-7.91-14.75-16.28 1.07-11.33 11.65-15.89 14.67-16.97m12.32 46.44v17.15l-13.03 8.57h20.37v-25.72z" style="stroke-linejoin:round;stroke:#929497;fill:#c5c7c9"/><path d="M53.68 108.62v6.26h16.59v8.89H39.43l.09-13.16s5.97 1.14 14.16-2Zm-14.25-5.51V25.78h30.84v8.89H53.68v65.96s-7.53 4.09-14.25 2.48Z" style="stroke-linejoin:round;stroke:#0b6a88;fill:#2dc5f4"/><path d="M98.41 123.77v17.15l13.03 8.57H91.06v-25.72z" style="stroke-linejoin:round;stroke:#929497;fill:#c5c7c9"/><path d="M70.28 62.27c.03-.49.05-1 .05-1.52v-.49c0-.52-.02-1.02-.05-1.52-.03-.42-.07-.82-.11-1.22-.01-.11-.02-.23-.04-.34-.47-3.74-1.68-6.42-3.12-6.42s-2.66 2.68-3.12 6.42c-.01.11-.02.23-.04.35-.04.4-.09.79-.11 1.21-.03.49-.05 1-.05 1.52v.49c0 .52.02 1.02.05 1.52.03.42.07.82.11 1.22.01.11.02.23.04.34.47 3.74 1.68 6.42 3.12 6.42s2.66-2.68 3.12-6.42c.01-.11.02-.23.04-.34.04-.4.09-.8.11-1.22m16 0c.03-.49.05-1 .05-1.52v-.49c0-.52-.02-1.02-.05-1.52-.03-.42-.07-.82-.11-1.22-.01-.11-.02-.23-.04-.34-.47-3.74-1.68-6.42-3.12-6.42s-2.66 2.68-3.12 6.42c-.01.11-.02.23-.04.35-.04.4-.09.79-.11 1.21-.03.49-.05 1-.05 1.52v.49c0 .52.02 1.02.05 1.52.03.42.07.82.11 1.22.01.11.02.23.04.34.11.91.27 1.76.47 2.52 2.66-.39 2.99-.39 5.31 0 .19-.76.35-1.61.47-2.52.01-.11.02-.23.04-.34.04-.4.09-.8.11-1.22Z" style="fill:#0b6a88"/><path d="M78.59 66.74s3.9-2.33 8.84 0" style="stroke-linecap:round;fill:none;stroke-linejoin:round;stroke:#0b6a88"/><path d="M83.2 75.45s.41 14.19-8.19 14.19c-8.61 0-8.19-14.19-8.19-14.19h16.39Z" style="stroke-linejoin:round;stroke:#0b6a88;stroke-width:1.47px;fill:#0b6a88"/><path d="M40.5 103.34c6.42 1 17.03-2.69 24.86-11.67M31.93 95c-.61 6.4 6.4 8 8.57 8.33" style="fill:none;stroke-linejoin:round;stroke:#929497"/><path d="M39.37 110.59c-9.75-1.52-15.54-7.91-14.75-16.28m17.9 16.51c-1.12 0-2.17-.08-3.15-.23m31.53-14.1c-8.82 10.12-20.21 14.33-28.38 14.33m68.22-25.47c2.85 1.5 6.84 4.49 7.33 9.65.61 6.4-6.4 8-8.57 8.33-6.42 1-17.03-2.69-24.86-11.67a3.672 3.672 0 0 0-5.54 4.82c8.82 10.12 20.21 14.33 28.38 14.33 1.12 0 2.17-.08 3.15-.23 9.75-1.52 15.54-7.91 14.75-16.28-1.07-11.33-11.65-15.89-14.67-16.97" style="stroke-linejoin:round;stroke:#929497;fill:#c5c7c9"/><path d="m110.48 110.62.09 13.16H79.73v-8.89h16.59v-6.26c8.19 3.14 14.16 2 14.16 2Zm-14.16-9.99V34.68H79.73v-8.89h30.84v77.32c-6.72 1.61-14.25-2.48-14.25-2.48Z" style="stroke-linejoin:round;stroke:#0b6a88;fill:#2dc5f4"/><path d="M109.5 103.34c-6.42 1-17.03-2.69-24.86-11.67M118.07 95c.61 6.4-6.4 8-8.57 8.33" style="fill:none;stroke-linejoin:round;stroke:#929497"/><path d="M110.63 110.59c9.75-1.52 15.54-7.91 14.75-16.28" style="stroke-linejoin:round;stroke:#929497;fill:#c5c7c9"/><path d="M107.48 110.82c1.12 0 2.17-.08 3.15-.23M79.1 96.49c8.82 10.12 20.21 14.33 28.38 14.33" style="stroke-linejoin:round;stroke:#929497;fill:#c5c7c9"/><ellipse cx="67.77" cy="58.23" rx="1.41" ry="2.56" style="fill:#fff"/><ellipse cx="83.97" cy="58.23" rx="1.41" ry="2.56" style="fill:#fff"/></svg>