<svg data-name="Layer 1" xmlns="http://www.w3.org/2000/svg" viewBox="0 0 150 150"><defs><clipPath id="a"><path style="fill:none" d="M10.43 0h129.14v113.3H10.43z"/></clipPath></defs><g style="clip-path:url(#a)"><path d="M92.76 39.18a4.24 4.24 0 0 1-1.57-7.69c.55-.38 11.64-8.38 11.33-31.64a4.24 4.24 0 0 1 4.19-4.29A4.23 4.23 0 0 1 111-.26c.37 28.29-14.48 38.4-15.12 38.81a4.21 4.21 0 0 1-3.12.63ZM100.38 73.34l24.65 1.57 6.39-7.88-1.24 15.82-30.39-2.02.59-7.49zM68.64 83.12l20.17 14.26 9.57-3.36-9.35 12.82-24.82-17.65 4.43-6.07z" style="stroke-linejoin:round;fill:#c5c6c8;stroke:#909395"/><path transform="rotate(-9.11 68.41 54.588)" style="stroke:#701616;fill:#f16164;stroke-linejoin:round" d="M35.46 21.58h66.01v66.01H35.46z"/><path d="M75.5 34.1s3.66-8 11-2.34" style="stroke-width:2px;stroke-linecap:round;stroke:#701616;stroke-linejoin:round;fill:none"/><path style="stroke-linecap:round;stroke:#701616;stroke-linejoin:round;fill:none" d="m80.33 29.62-.81-4.15M83.54 29.38l1.02-3.25M77.26 30.6l-2.16-2.64"/><path d="M55.19 38.3s3.66-8 11-2.34" style="stroke-width:2px;stroke-linecap:round;stroke:#701616;stroke-linejoin:round;fill:none"/><path style="stroke-linecap:round;stroke:#701616;stroke-linejoin:round;fill:none" d="m60.02 33.82-.8-4.15M63.23 33.58l1.02-3.25M56.95 34.8l-2.16-2.64M93 28.52c1.45 7.87-7 16.07-19.74 18.48S48.43 45 47 37.14"/><path d="M39.15 38.63a4.23 4.23 0 0 1-3.57-6.5c.35-.58 7.26-12.38-2.41-33.52A4.25 4.25 0 0 1 35.27-7a4.24 4.24 0 0 1 5.62 2.09c11.76 25.73 2.25 41 1.84 41.61a4.24 4.24 0 0 1-3.58 1.93Z" style="stroke-linejoin:round;fill:#c5c6c8;stroke:#909395"/></g></svg>