<?xml version="1.0" encoding="UTF-8"?><svg id="a" xmlns="http://www.w3.org/2000/svg" viewBox="0 0 150 150"><defs><style>.b{stroke-linecap:round;}.b,.c{fill:#0b6a88;}.b,.d,.e,.f{stroke-linejoin:round;}.b,.f{stroke:#0b6a88;}.g{fill:#fff;}.d{fill:#c5c7c9;stroke:#929497;}.e{fill:#c5c6c8;stroke:#909395;}.f{fill:#2dc5f4;}</style></defs><path class="e" d="M122.35,19.18c1.28,1.38,1.35,3.53,.1,5.01-16.71,19.77-33.11,33.13-33.8,33.69-1.62,1.32-4.01,1.07-5.33-.56-1.32-1.62-1.07-4.01,.56-5.33,.16-.13,16.55-13.5,32.78-32.69,1.35-1.6,3.74-1.8,5.34-.45,.12,.1,.24,.21,.34,.33Z"/><polygon class="d" points="39.64 123.77 39.64 140.92 45.62 149.49 28.91 149.49 32.3 140.64 32.3 123.77 39.64 123.77"/><path class="f" d="M33.78,114.88h16.59v8.89H19.53V25.78h30.84v8.89h-16.59V114.88Z"/><polygon class="d" points="78.51 123.77 78.51 140.92 91.54 149.49 71.16 149.49 71.16 123.77 78.51 123.77"/><path class="c" d="M58.3,56.02c-.03-.49-.08-1-.14-1.51,0-.08-.01-.15-.02-.23h0v-.03c-.01-.08-.03-.15-.04-.23-.08-.51-.16-1.01-.27-1.49-.09-.41-.2-.8-.31-1.19-.03-.11-.06-.22-.09-.33-1.07-3.62-2.91-6.08-4.66-5.84-1.75,.24-2.86,3.1-2.92,6.88,0,.11,0,.23,0,.35,0,.4,0,.8,.03,1.22,.03,.49,.08,1,.14,1.52,0,.08,.01,.15,.02,.23h0v.03c.01,.08,.03,.15,.04,.23,.08,.51,.16,1.01,.27,1.49,.09,.41,.2,.8,.31,1.19,.03,.11,.06,.22,.09,.33,1.07,3.62,2.91,6.08,4.66,5.84s2.86-3.1,2.92-6.88c0-.11,0-.23,0-.34,0-.41,0-.81-.03-1.23Z"/><path class="f" d="M76.41,34.68h-16.59v-8.89h30.84V123.77h-30.84v-8.89h16.59V34.68Z"/><path class="g" d="M56.24,51.92c0-.15-.02-.29-.03-.45,0-.02,0-.05,0-.07h0s0-.05-.01-.08c-.02-.15-.05-.3-.09-.44-.03-.12-.07-.24-.11-.35-.01-.03-.02-.06-.03-.1-.39-1.06-1.11-1.76-1.85-1.66s-1.25,.97-1.33,2.09c0,.03,0,.07,0,.1,0,.12-.01,.24,0,.36,0,.15,.02,.3,.03,.45,0,.02,0,.04,0,.07h0s0,.05,.01,.08c.02,.15,.05,.3,.09,.44,.03,.12,.07,.23,.11,.35,.01,.03,.02,.07,.03,.1,.39,1.06,1.11,1.76,1.85,1.66s1.25-.97,1.33-2.09c0-.03,0-.07,0-.1,0-.12,.01-.24,0-.37Z"/><path class="c" d="M69.95,53.74c-.03-.49-.08-1-.14-1.51,0-.08-.01-.15-.02-.23h0v-.03c-.01-.08-.03-.15-.04-.23-.08-.51-.16-1.01-.27-1.49-.09-.41-.2-.8-.31-1.19-.03-.11-.06-.22-.09-.33-1.07-3.62-2.91-6.08-4.66-5.84s-2.86,3.1-2.92,6.88c0,.11,0,.23,0,.35,0,.4,0,.8,.03,1.22,.03,.49,.08,1,.14,1.52,0,.08,.01,.15,.02,.23h0v.03c.01,.08,.03,.15,.04,.23,.08,.51,.16,1.01,.27,1.49,.09,.41,.2,.8,.31,1.19,.03,.11,.06,.22,.09,.33,1.07,3.62,2.91,6.08,4.66,5.84,1.75-.24,2.86-3.1,2.92-6.88,0-.11,0-.23,0-.34,0-.41,0-.81-.03-1.23Z"/><path class="g" d="M67.89,49.64c0-.15-.02-.29-.03-.45,0-.02,0-.05,0-.07h0s0-.05-.01-.08c-.02-.15-.05-.3-.09-.44-.03-.12-.07-.24-.11-.35-.01-.03-.02-.06-.03-.1-.39-1.06-1.11-1.76-1.85-1.66s-1.25,.97-1.33,2.09c0,.03,0,.07,0,.1,0,.12-.01,.24,0,.36,0,.15,.02,.3,.03,.45,0,.02,0,.04,0,.07h0s0,.05,.01,.08c.02,.15,.05,.3,.09,.44,.03,.12,.07,.23,.11,.35,.01,.03,.02,.07,.03,.1,.39,1.06,1.11,1.76,1.85,1.66s1.25-.97,1.33-2.09c0-.03,0-.07,0-.1,0-.12,.01-.24,0-.37Z"/><path class="b" d="M70.6,64.66l-19.52,3.66s5.7,10.58,10.71,10.17c6.59-.54,9.31-11.08,8.81-13.83Z"/><path class="e" d="M16.88,134.18c1.88,.02,3.53-1.37,3.78-3.29,3.42-25.66,2.3-46.78,2.25-47.67-.12-2.09-1.9-3.69-3.99-3.57-2.09,.12-3.69,1.9-3.57,3.99,.01,.21,1.12,21.33-2.19,46.25-.28,2.07,1.18,3.98,3.25,4.25,.16,.02,.32,.03,.47,.03Z"/></svg>