<svg data-name="Layer 1" xmlns="http://www.w3.org/2000/svg" viewBox="0 0 150 150"><defs><clipPath id="a"><path style="fill:none" d="M0 0h149.49v149.49H0z"/></clipPath></defs><g style="clip-path:url(#a)"><path d="M49.16 198.73 76 195.2l1.89 14.36-49.79 6.55L7.21 57.93 57 51.37l1.89 14.35-26.78 3.53Z" style="stroke-linejoin:round;stroke:#0b6a88;fill:#2dc5f4"/><path d="M93.82 112.06s2.36 12.8-11.53 14.63-14.93-11.15-14.93-11.15Z" style="stroke-width:1.79px;fill:#0b6a88;stroke-linejoin:round;stroke:#0b6a88"/><path d="m100.94 60.18-26.79 3.53-1.89-14.35 49.79-6.56L142.88 201l-49.78 6.55-1.89-14.36 26.79-3.52Z" style="stroke-linejoin:round;stroke:#0b6a88;fill:#2dc5f4"/><ellipse cx="67.59" cy="95.46" rx="7.12" ry="15.48" transform="rotate(-7.5 67.594 95.523)" style="fill:#0b6a88"/><path d="M65 128.52a7.71 7.71 0 0 0-3.25 4c-14.91 42-49.83 78.31-50.18 78.68a7.79 7.79 0 0 0 11.18 10.85c1.52-1.58 37.61-39.06 53.68-84.32A7.79 7.79 0 0 0 65 128.52Z" style="fill:#c5c6c8;stroke:#909395;stroke-linejoin:round"/><ellipse cx="70.38" cy="90.82" rx="2.28" ry="4" transform="rotate(-8.67 70.336 90.775)" style="fill:#fff"/><ellipse cx="87.24" cy="93.02" rx="7.12" ry="15.48" transform="rotate(-7.5 87.292 93.06)" style="fill:#0b6a88"/><ellipse cx="90.03" cy="88.38" rx="2.28" ry="4" transform="rotate(-8.67 90.023 88.354)" style="fill:#fff"/><path d="M55.12 82.4s-.79-7.94 6.52-8.64M95.32 77.88s0-8-7.37-7.94" style="stroke-linecap:round;stroke-linejoin:round;stroke:#0b6a88;fill:none"/></g></svg>