<?xml version="1.0" encoding="UTF-8"?><svg id="a" xmlns="http://www.w3.org/2000/svg" xmlns:xlink="http://www.w3.org/1999/xlink" viewBox="0 0 150 150"><defs><style>.c,.d{fill:none;}.d{stroke-linecap:round;}.d,.e,.f,.g{stroke-linejoin:round;}.d,.g{stroke:#0b6a88;}.h{fill:#f05124;}.i{clip-path:url(#b);}.e{fill:#c5c7c9;stroke:#929497;}.f{fill:#c5c6c8;stroke:#909395;}.g{fill:#2dc5f4;}</style><clipPath id="b"><path class="c" d="M72.48,74.74s.14,7.25,.72,8.23,7.74-.12,7.74-.12c0,0,2.23-4.93,1.16-6.61-1.07-1.68-1.68-2.86-2.84-2.88s-6.78,1.38-6.78,1.38Z"/></clipPath></defs><path class="f" d="M91.96,48.78c-.64,0-1.29-.15-1.89-.48-1.94-1.04-2.67-3.46-1.64-5.4,.07-.14,4.41-8.55,1.26-15.62-2.04-4.56-6.91-7.83-14.49-9.72-2.14-.54-3.45-2.71-2.91-4.85,.54-2.14,2.71-3.45,4.85-2.91,10.12,2.53,16.81,7.34,19.89,14.29,4.73,10.69-1.28,22.11-1.54,22.59-.72,1.34-2.1,2.11-3.53,2.11Z"/><path class="f" d="M59.73,136.04c-2.17,0-4.47-.19-6.9-.57-2.18-.34-3.67-2.39-3.33-4.57s2.39-3.67,4.57-3.33c7.74,1.21,13.52,.09,17.17-3.33,5.61-5.27,4.91-14.73,4.9-14.83-.2-2.2,1.41-4.15,3.61-4.35,2.2-.19,4.15,1.41,4.35,3.61,.05,.54,1.14,13.4-7.39,21.4-4.24,3.98-9.93,5.98-16.98,5.98Z"/><polygon class="e" points="25.42 86.72 17.39 81.91 5.76 88.93 .48 79.98 .48 100.42 16.64 90.79 22.85 93.68 25.42 86.72"/><polygon class="e" points="40.62 35.3 24.11 17.24 28.19 2.19 12.93 15.69 35.12 40.17 40.62 35.3"/><g><g><path class="g" d="M42.82,44.59l-4.05,16.09-8.62-2.17,7.53-29.91,95.02,23.92-7.53,29.91-8.62-2.17,4.05-16.09L42.82,44.59Z"/><path class="g" d="M110.19,105.51l4.05-16.09,8.62,2.17-7.53,29.91L20.31,97.58l7.53-29.91,8.62,2.17-4.05,16.09,77.78,19.58Z"/></g><g><path class="d" d="M89.55,60.25c4,1.01,6.73,3.86,6.1,6.38s-4.39,3.74-8.39,2.73"/><path class="d" d="M85.81,75.1c4,1.01,6.73,3.86,6.1,6.38s-4.39,3.74-8.39,2.73"/></g><g class="i"><path class="h" d="M64.79,80.24c-.03-.15-.06-.3-.07-.46-.17-1.93,1.26-3.62,3.18-3.79l7.27-.64c1.93-.17,3.62,1.26,3.79,3.18,.17,1.93-1.26,3.62-3.18,3.79l-7.27,.64c-1.77,.16-3.35-1.03-3.72-2.72Z"/></g><path class="d" d="M77.87,63.11s-12.57,19.48-.43,23.72"/></g></svg>