<svg id="Layer_1" data-name="Layer 1" xmlns="http://www.w3.org/2000/svg" viewBox="0 0 150 150"><defs><style>.cls-1{fill:#c5c7c9;}.cls-1,.cls-6{stroke:#929497;}.cls-1,.cls-2,.cls-4,.cls-5,.cls-6{stroke-linejoin:round;}.cls-2{fill:#2dc5f4;}.cls-2,.cls-4,.cls-5{stroke:#0b6a88;}.cls-3,.cls-5{fill:#0b6a88;}.cls-4,.cls-6{fill:none;}.cls-4{stroke-linecap:round;}.cls-5{stroke-width:1.47px;}.cls-7{fill:#fff;}</style></defs><path class="cls-1" d="M39.26,85.35c-2.84,1.49-6.84,4.49-7.33,9.65-.6,6.4,6.41,8,8.57,8.34,6.42,1,17-2.69,24.86-11.68a3.67,3.67,0,0,1,5.54,4.83c-8.83,10.12-20.22,14.33-28.38,14.33a19.6,19.6,0,0,1-3.15-.23c-9.75-1.52-15.54-7.91-14.75-16.28,1.07-11.33,11.65-15.89,14.67-17"/><polygon class="cls-1" points="51.61 123.77 51.61 140.92 38.58 149.49 58.95 149.49 58.95 123.77 51.61 123.77"/><path class="cls-2" d="M53.68,108.62v6.26H70.27v8.89H39.43l.09-13.15S45.49,111.76,53.68,108.62Z"/><path class="cls-2" d="M39.43,103.11V25.78H70.27v8.9H53.68v65.95S46.15,104.72,39.43,103.11Z"/><polygon class="cls-1" points="98.41 123.77 98.41 140.92 111.44 149.49 91.06 149.49 91.06 123.77 98.41 123.77"/><path class="cls-3" d="M70.28,62.27c0-.49,0-1,.06-1.52v-.23h0v-.24c0-.51,0-1-.06-1.51s-.07-.82-.11-1.23c0-.11,0-.22,0-.33-.46-3.74-1.68-6.42-3.12-6.42s-2.65,2.68-3.12,6.42c0,.11,0,.23,0,.34,0,.4-.08.8-.11,1.22s-.05,1-.05,1.52c0,.08,0,.15,0,.23h0c0,.08,0,.16,0,.23,0,.52,0,1,.05,1.52s.07.82.11,1.22c0,.11,0,.23,0,.34.47,3.74,1.68,6.42,3.12,6.42s2.66-2.68,3.12-6.42c0-.11,0-.23,0-.34C70.21,63.09,70.26,62.69,70.28,62.27Z"/><path class="cls-3" d="M86.28,62.27c0-.49,0-1,0-1.52,0-.07,0-.15,0-.23h0c0-.08,0-.16,0-.24,0-.51,0-1,0-1.51s-.07-.82-.12-1.23l0-.33c-.47-3.74-1.68-6.42-3.13-6.42s-2.65,2.68-3.12,6.42l0,.34c0,.4-.09.8-.12,1.22s0,1,0,1.52c0,.08,0,.15,0,.23h0c0,.08,0,.16,0,.23,0,.52,0,1,0,1.52s.07.82.12,1.22l0,.34a20.62,20.62,0,0,0,.47,2.52,11.87,11.87,0,0,1,5.31,0,22.73,22.73,0,0,0,.47-2.52l0-.34C86.21,63.09,86.25,62.69,86.28,62.27Z"/><path class="cls-4" d="M78.59,66.74a9.85,9.85,0,0,1,8.83,0"/><path class="cls-5" d="M83.2,75.45S83.62,89.64,75,89.64s-8.19-14.19-8.19-14.19Z"/><path class="cls-6" d="M40.5,103.34c6.42,1,17-2.69,24.86-11.68"/><path class="cls-6" d="M31.93,95c-.6,6.4,6.41,8,8.57,8.34"/><path class="cls-1" d="M39.37,110.59c-9.75-1.52-15.54-7.91-14.75-16.28"/><path class="cls-1" d="M42.52,110.82a19.6,19.6,0,0,1-3.15-.23"/><path class="cls-1" d="M70.9,96.49c-8.83,10.12-20.22,14.33-28.38,14.33"/><path class="cls-1" d="M110.74,85.35c2.84,1.49,6.84,4.49,7.33,9.65.6,6.4-6.41,8-8.57,8.34-6.42,1-17-2.69-24.86-11.68a3.67,3.67,0,0,0-5.54,4.83c8.83,10.12,20.22,14.33,28.38,14.33a19.6,19.6,0,0,0,3.15-.23c9.75-1.52,15.54-7.91,14.75-16.28-1.07-11.33-11.65-15.89-14.67-17"/><path class="cls-2" d="M110.48,110.62l.09,13.15H79.73v-8.89H96.32v-6.26C104.51,111.76,110.48,110.62,110.48,110.62Z"/><path class="cls-2" d="M96.32,100.63V34.68H79.73v-8.9h30.84v77.33C103.85,104.72,96.32,100.63,96.32,100.63Z"/><path class="cls-6" d="M109.5,103.34c-6.42,1-17-2.69-24.86-11.68"/><path class="cls-6" d="M118.07,95c.6,6.4-6.41,8-8.57,8.34"/><path class="cls-1" d="M110.63,110.59c9.75-1.52,15.54-7.91,14.75-16.28"/><path class="cls-1" d="M107.48,110.82a19.6,19.6,0,0,0,3.15-.23"/><path class="cls-1" d="M79.1,96.49c8.83,10.12,20.22,14.33,28.38,14.33"/><ellipse class="cls-7" cx="67.77" cy="58.23" rx="1.41" ry="2.56"/><ellipse class="cls-7" cx="83.97" cy="58.23" rx="1.41" ry="2.56"/></svg>