<?xml version="1.0" encoding="UTF-8"?><svg id="a" xmlns="http://www.w3.org/2000/svg" viewBox="0 0 150 150"><defs><style>.b{stroke-linecap:round;}.b,.c{fill:none;}.b,.c,.d,.e,.f{stroke-linejoin:round;}.b,.d,.f{stroke:#0b6a88;}.c,.e{stroke:#929497;}.d{stroke-width:1.47px;}.d,.g{fill:#0b6a88;}.h{fill:#fff;}.e{fill:#c5c7c9;}.f{fill:#2dc5f4;}</style></defs><path class="e" d="M39.26,85.35c-2.85,1.5-6.84,4.49-7.33,9.65-.61,6.4,6.4,8,8.57,8.33,6.42,1,17.03-2.69,24.86-11.67,1.33-1.53,3.65-1.69,5.18-.36,1.53,1.33,1.69,3.65,.36,5.18-8.82,10.12-20.21,14.33-28.38,14.33-1.12,0-2.17-.08-3.15-.23-9.75-1.52-15.54-7.91-14.75-16.28,1.07-11.33,11.65-15.89,14.67-16.97"/><polygon class="e" points="51.61 123.77 51.61 140.92 38.58 149.49 58.95 149.49 58.95 123.77 51.61 123.77"/><path class="f" d="M53.68,108.62v6.26h16.59v8.89h-30.84l.09-13.16s5.97,1.14,14.16-2Z"/><path class="f" d="M39.43,103.11V25.78h30.84v8.89h-16.59V100.63s-7.53,4.09-14.25,2.48Z"/><polygon class="e" points="98.41 123.77 98.41 140.92 111.44 149.49 91.06 149.49 91.06 123.77 98.41 123.77"/><g><path class="g" d="M70.28,62.27c.03-.49,.05-1,.05-1.52,0-.08,0-.15,0-.23h0v-.03c0-.08,0-.15,0-.23,0-.52-.02-1.02-.05-1.52-.03-.42-.07-.82-.11-1.22-.01-.11-.02-.23-.04-.34-.47-3.74-1.68-6.42-3.12-6.42s-2.66,2.68-3.12,6.42c-.01,.11-.02,.23-.04,.35-.04,.4-.09,.79-.11,1.21-.03,.49-.05,1-.05,1.52,0,.08,0,.15,0,.23h0v.03c0,.08,0,.15,0,.23,0,.52,.02,1.02,.05,1.52,.03,.42,.07,.82,.11,1.22,.01,.11,.02,.23,.04,.34,.47,3.74,1.68,6.42,3.12,6.42s2.66-2.68,3.12-6.42c.01-.11,.02-.23,.04-.34,.04-.4,.09-.8,.11-1.22Z"/><path class="g" d="M86.28,62.27c.03-.49,.05-1,.05-1.52,0-.08,0-.15,0-.23h0v-.03c0-.08,0-.15,0-.23,0-.52-.02-1.02-.05-1.52-.03-.42-.07-.82-.11-1.22-.01-.11-.02-.23-.04-.34-.47-3.74-1.68-6.42-3.12-6.42s-2.66,2.68-3.12,6.42c-.01,.11-.02,.23-.04,.35-.04,.4-.09,.79-.11,1.21-.03,.49-.05,1-.05,1.52,0,.08,0,.15,0,.23h0v.03c0,.08,0,.15,0,.23,0,.52,.02,1.02,.05,1.52,.03,.42,.07,.82,.11,1.22,.01,.11,.02,.23,.04,.34,.11,.91,.27,1.76,.47,2.52,2.66-.39,2.99-.39,5.31,0,.19-.76,.35-1.61,.47-2.52,.01-.11,.02-.23,.04-.34,.04-.4,.09-.8,.11-1.22Z"/></g><path class="b" d="M78.59,66.74s3.9-2.33,8.84,0"/><path class="d" d="M83.2,75.45s.41,14.19-8.19,14.19c-8.61,0-8.19-14.19-8.19-14.19h16.39Z"/><g><path class="c" d="M40.5,103.34c6.42,1,17.03-2.69,24.86-11.67"/><path class="c" d="M31.93,95c-.61,6.4,6.4,8,8.57,8.33"/></g><g><path class="e" d="M39.37,110.59c-9.75-1.52-15.54-7.91-14.75-16.28"/><path class="e" d="M42.52,110.82c-1.12,0-2.17-.08-3.15-.23"/><path class="e" d="M70.9,96.49c-8.82,10.12-20.21,14.33-28.38,14.33"/></g><path class="e" d="M110.74,85.35c2.85,1.5,6.84,4.49,7.33,9.65,.61,6.4-6.4,8-8.57,8.33-6.42,1-17.03-2.69-24.86-11.67-1.33-1.53-3.65-1.69-5.18-.36-1.53,1.33-1.69,3.65-.36,5.18,8.82,10.12,20.21,14.33,28.38,14.33,1.12,0,2.17-.08,3.15-.23,9.75-1.52,15.54-7.91,14.75-16.28-1.07-11.33-11.65-15.89-14.67-16.97"/><path class="f" d="M110.48,110.62l.09,13.16h-30.84v-8.89h16.59v-6.26c8.19,3.14,14.16,2,14.16,2Z"/><path class="f" d="M96.32,100.63V34.68h-16.59v-8.89h30.84V103.11c-6.72,1.61-14.25-2.48-14.25-2.48Z"/><g><path class="c" d="M109.5,103.34c-6.42,1-17.03-2.69-24.86-11.67"/><path class="c" d="M118.07,95c.61,6.4-6.4,8-8.57,8.33"/></g><g><path class="e" d="M110.63,110.59c9.75-1.52,15.54-7.91,14.75-16.28"/><path class="e" d="M107.48,110.82c1.12,0,2.17-.08,3.15-.23"/><path class="e" d="M79.1,96.49c8.82,10.12,20.21,14.33,28.38,14.33"/></g><ellipse class="h" cx="67.77" cy="58.23" rx="1.41" ry="2.56"/><ellipse class="h" cx="83.97" cy="58.23" rx="1.41" ry="2.56"/></svg>