<svg data-name="Layer 1" xmlns="http://www.w3.org/2000/svg" viewBox="0 0 150 150"><path d="M39.26 85.35c-2.84 1.49-6.84 4.49-7.33 9.65-.6 6.4 6.41 8 8.57 8.34 6.42 1 17-2.69 24.86-11.68a3.67 3.67 0 0 1 5.54 4.83c-8.83 10.12-20.22 14.33-28.38 14.33a19.6 19.6 0 0 1-3.15-.23c-9.75-1.52-15.54-7.91-14.75-16.28 1.07-11.33 11.65-15.89 14.67-17M51.61 123.77v17.15l-13.03 8.57h20.37v-25.72h-7.34z" style="stroke-linejoin:round;stroke:#929497;fill:#c5c7c9"/><path d="M53.68 108.62v6.26h16.59v8.89H39.43l.09-13.15s5.97 1.14 14.16-2ZM39.43 103.11V25.78h30.84v8.9H53.68v65.95s-7.53 4.09-14.25 2.48Z" style="stroke:#0b6a88;fill:#2dc5f4;stroke-linejoin:round"/><path style="stroke-linejoin:round;stroke:#929497;fill:#c5c7c9" d="M98.41 123.77v17.15l13.03 8.57H91.06v-25.72h7.35z"/><path d="M70.28 62.27c0-.49 0-1 .06-1.52v-.47c0-.51 0-1-.06-1.51s-.07-.82-.11-1.23v-.33c-.46-3.74-1.68-6.42-3.12-6.42s-2.65 2.68-3.12 6.42v.34c0 .4-.08.8-.11 1.22s-.05 1-.05 1.52v.46c0 .52 0 1 .05 1.52s.07.82.11 1.22v.34c.47 3.74 1.68 6.42 3.12 6.42s2.66-2.68 3.12-6.42v-.34c.04-.4.09-.8.11-1.22ZM86.28 62.27v-3.5c0-.51-.07-.82-.12-1.23v-.33c-.47-3.74-1.68-6.42-3.13-6.42s-2.65 2.68-3.12 6.42v.34c0 .4-.09.8-.12 1.22s0 1 0 1.52v1.98c0 .52.07.82.12 1.22v.34a20.62 20.62 0 0 0 .47 2.52 11.87 11.87 0 0 1 5.31 0 22.73 22.73 0 0 0 .47-2.52v-.34c.05-.4.09-.8.12-1.22Z" style="fill:#0b6a88"/><path d="M78.59 66.74a9.85 9.85 0 0 1 8.83 0" style="stroke-linecap:round;fill:none;stroke:#0b6a88;stroke-linejoin:round"/><path d="M83.2 75.45s.42 14.19-8.2 14.19-8.19-14.19-8.19-14.19Z" style="stroke-width:1.47px;fill:#0b6a88;stroke:#0b6a88;stroke-linejoin:round"/><path d="M40.5 103.34c6.42 1 17-2.69 24.86-11.68M31.93 95c-.6 6.4 6.41 8 8.57 8.34" style="fill:none;stroke-linejoin:round;stroke:#929497"/><path d="M39.37 110.59c-9.75-1.52-15.54-7.91-14.75-16.28M42.52 110.82a19.6 19.6 0 0 1-3.15-.23M70.9 96.49c-8.83 10.12-20.22 14.33-28.38 14.33M110.74 85.35c2.84 1.49 6.84 4.49 7.33 9.65.6 6.4-6.41 8-8.57 8.34-6.42 1-17-2.69-24.86-11.68a3.67 3.67 0 0 0-5.54 4.83c8.83 10.12 20.22 14.33 28.38 14.33a19.6 19.6 0 0 0 3.15-.23c9.75-1.52 15.54-7.91 14.75-16.28-1.07-11.33-11.65-15.89-14.67-17" style="stroke-linejoin:round;stroke:#929497;fill:#c5c7c9"/><path d="m110.48 110.62.09 13.15H79.73v-8.89h16.59v-6.26c8.19 3.14 14.16 2 14.16 2ZM96.32 100.63V34.68H79.73v-8.9h30.84v77.33c-6.72 1.61-14.25-2.48-14.25-2.48Z" style="stroke:#0b6a88;fill:#2dc5f4;stroke-linejoin:round"/><path d="M109.5 103.34c-6.42 1-17-2.69-24.86-11.68M118.07 95c.6 6.4-6.41 8-8.57 8.34" style="fill:none;stroke-linejoin:round;stroke:#929497"/><path d="M110.63 110.59c9.75-1.52 15.54-7.91 14.75-16.28" style="stroke-linejoin:round;stroke:#929497;fill:#c5c7c9"/><path d="M107.48 110.82a19.6 19.6 0 0 0 3.15-.23M79.1 96.49c8.83 10.12 20.22 14.33 28.38 14.33" style="stroke-linejoin:round;stroke:#929497;fill:#c5c7c9"/><ellipse cx="67.77" cy="58.23" rx="1.41" ry="2.56" style="fill:#fff"/><ellipse cx="83.97" cy="58.23" rx="1.41" ry="2.56" style="fill:#fff"/></svg>