<svg xmlns="http://www.w3.org/2000/svg" viewBox="0 0 150 150"><defs><clipPath id="a"><path style="fill:none" d="M10.43 0h129.14v113.3H10.43z"/></clipPath></defs><g style="clip-path:url(#a)"><path d="M92.76 39.18a4.263 4.263 0 0 1-2.75-1.83 4.237 4.237 0 0 1 1.18-5.85c.55-.38 11.64-8.38 11.33-31.64a4.245 4.245 0 1 1 8.49-.11c.37 28.29-14.48 38.39-15.12 38.81-.96.63-2.08.82-3.12.62ZM100.38 73.34l24.65 1.57 6.39-7.88-1.24 15.82-30.39-2.02.59-7.49zM68.64 83.12l20.17 14.26 9.57-3.36-9.35 12.82-24.82-17.65 4.43-6.07z" style="fill:#c5c6c8;stroke:#909395;stroke-linejoin:round"/><path transform="rotate(-9.11 68.41 54.588)" style="fill:#f16164;stroke-linejoin:round;stroke:#701616" d="M35.46 21.58h66.01v66.01H35.46z"/><path d="M75.5 34.1s3.66-8 11.01-2.34" style="stroke-width:2px;stroke-linejoin:round;stroke:#701616;stroke-linecap:round;fill:none"/><path style="stroke-linejoin:round;stroke:#701616;stroke-linecap:round;fill:none" d="m80.33 29.62-.81-4.15M83.54 29.38l1.02-3.25M77.26 30.6l-2.16-2.64"/><path d="M55.19 38.3s3.66-8 11.01-2.34" style="stroke-width:2px;stroke-linejoin:round;stroke:#701616;stroke-linecap:round;fill:none"/><path style="stroke-linejoin:round;stroke:#701616;stroke-linecap:round;fill:none" d="m60.02 33.82-.8-4.15M63.23 33.58l1.02-3.25M56.95 34.8l-2.16-2.64M92.98 28.52c1.48 7.88-7 16.07-19.71 18.46-12.71 2.38-24.83-1.95-26.31-9.83"/><path d="M39.15 38.63c-.78 0-1.58-.22-2.28-.68a4.23 4.23 0 0 1-1.28-5.83c.35-.57 7.26-12.37-2.41-33.52-.97-2.13-.04-4.65 2.09-5.62 2.13-.97 4.65-.04 5.62 2.09 11.76 25.73 2.25 40.97 1.84 41.61a4.215 4.215 0 0 1-3.58 1.94Z" style="fill:#c5c6c8;stroke:#909395;stroke-linejoin:round"/></g></svg>