<?xml version="1.0" encoding="UTF-8"?><svg id="a" xmlns="http://www.w3.org/2000/svg" viewBox="0 0 150 150"><defs><style>.b{fill:none;stroke-linecap:round;}.b,.c{stroke:#701616;}.b,.c,.d,.e{stroke-linejoin:round;}.f{fill:#fff;}.g{fill:#701616;}.c{fill:#f16164;}.d{fill:#c3c4c6;stroke:#8e9193;}.e{fill:#c4c5c7;stroke:#8f9294;}</style></defs><path class="e" d="M56.84,88.83c.81,.15,1.59,.54,2.24,1.15,1.79,1.69,1.88,4.51,.2,6.31-.48,.53-9.96,11.45-4.02,35.32,.6,2.4-.87,4.84-3.27,5.44-2.4,.6-4.84-.87-5.44-3.27-7.22-29.04,5.64-43.04,6.19-43.63,1.09-1.15,2.65-1.6,4.1-1.32Z"/><path class="e" d="M93.65,88.83c-.81,.15-1.59,.54-2.24,1.15-1.79,1.69-1.88,4.51-.2,6.31,.48,.53,9.96,11.45,4.02,35.32-.6,2.4,.87,4.84,3.27,5.44,2.4,.6,4.84-.87,5.44-3.27,7.22-29.04-5.64-43.04-6.19-43.63-1.09-1.15-2.65-1.6-4.1-1.32Z"/><g><polygon class="d" points="89.93 103.44 89.93 143.05 99.65 149.75 81.17 149.75 81.17 103.44 89.93 103.44"/><polygon class="d" points="70.42 103.44 70.42 143.05 73.9 149.75 58.09 149.75 61.67 143.18 61.67 103.44 70.42 103.44"/></g><rect class="c" x="35.78" y="30.41" width="78.44" height="78.44" transform="translate(150 139.26) rotate(180)"/><path class="b" d="M81.99,90.34s-4.37,.78-9.29-.86"/><g><ellipse class="g" cx="67.3" cy="72.69" rx="5.33" ry="11.9"/><line class="b" x1="67.3" y1="62.46" x2="67.3" y2="57.93"/><g><line class="b" x1="68.82" y1="63.21" x2="70.84" y2="59.14"/><line class="b" x1="65.89" y1="63.21" x2="63.87" y2="59.14"/></g><ellipse class="f" cx="68.8" cy="68.92" rx="1.44" ry="2.49"/></g><g><ellipse class="g" cx="89.08" cy="72.69" rx="5.33" ry="11.9"/><line class="b" x1="89.08" y1="62.46" x2="89.08" y2="57.93"/><g><line class="b" x1="90.6" y1="63.21" x2="92.62" y2="59.14"/><line class="b" x1="87.67" y1="63.21" x2="85.66" y2="59.14"/></g><ellipse class="f" cx="90.59" cy="68.92" rx="1.44" ry="2.49"/></g></svg>