<svg data-name="Layer 1" xmlns="http://www.w3.org/2000/svg" viewBox="0 0 150 150"><path style="stroke-linejoin:round;fill:#c4c5c7;stroke:#8f9294" d="m99.34 67.87 13.41-18.24 21.57 16.18 12.01-3.91-12.01 15.69-19.47-14.62-7.79 10.2-7.72-5.3z"/><path transform="rotate(-43.22 61.785 69.67)" style="stroke:#701616;fill:#f16164;stroke-linejoin:round" d="M20.67 28.55h82.23v82.23H20.67z"/><path d="M75.35 55.35c-3.37 2.27-5.51 5.92-8.2 8.95-3.31 3.72-7.07 5-11.94 5.43-3.48.31-6.72 1.56-7.21 5.48a10.16 10.16 0 0 0 3.16 8.54c5.51 4.62 13.67 4.59 20.37 3.35 8.38-1.54 17.74-6.84 19.47-15.86a15.6 15.6 0 0 0-3.66-13.42c-2.78-3-7.51-5.13-11.37-2.87-.21.13-.42.26-.62.4Z" style="fill:#fff"/><path d="M52.89 84.77s14.38-21 37.86-13.53c-.45 1.93-.51 7.16-11.25 13.42-4.27 2.48-17.23 5.91-26.61.11Z" style="fill:#9253a1"/><path d="M54.64 66.93s-2.85-10.59 8.7-11" style="stroke-width:2px;fill:none;stroke-linecap:round;stroke:#701616;stroke-linejoin:round"/><path style="fill:none;stroke-linecap:round;stroke:#701616;stroke-linejoin:round" d="m55.72 58.79-4.07-3.34M58.6 56.01 57 52.08M53.55 62.17l-4.17-.82"/><path d="M70.13 48.62s-2.85-10.58 8.7-11" style="stroke-width:2px;fill:none;stroke-linecap:round;stroke:#701616;stroke-linejoin:round"/><path style="fill:none;stroke-linecap:round;stroke:#701616;stroke-linejoin:round" d="m71.2 40.49-4.06-3.35M74.09 37.71l-1.6-3.93M69.04 43.86l-4.17-.81"/><path style="stroke-linejoin:round;fill:#c4c5c7;stroke:#8f9294" d="M84.64 86.43 98.33 68.4l21.33 16.5 12.06-3.72-12.24 15.51-19.25-14.92-7.95 10.08-7.64-5.42z"/><ellipse cx="121.78" cy="56.59" rx="5.28" ry="6.25" transform="rotate(-57.41 121.792 56.58)" style="stroke-linejoin:round;fill:#c4c5c7;stroke:#8f9294"/><path d="M75.35 55.35c-3.37 2.27-5.51 5.92-8.2 8.95-3.31 3.72-7.07 5-11.94 5.43-3.48.31-6.72 1.56-7.21 5.48a10.16 10.16 0 0 0 3.16 8.54c5.51 4.62 13.67 4.59 20.37 3.35 8.38-1.54 17.74-6.84 19.47-15.86a15.6 15.6 0 0 0-3.66-13.42c-2.78-3-7.51-5.13-11.37-2.87-.21.13-.42.26-.62.4Z" style="fill:none;stroke-linecap:round;stroke:#701616;stroke-linejoin:round"/><path d="M75.35 55.35c-3.37 2.27-5.51 5.92-8.2 8.95-3.31 3.72-7.07 5-11.94 5.43-3.48.31-6.72 1.56-7.21 5.48a10.16 10.16 0 0 0 3.16 8.54c5.51 4.62 13.67 4.59 20.37 3.35 8.38-1.54 17.74-6.84 19.47-15.86a15.6 15.6 0 0 0-3.66-13.42c-2.78-3-7.51-5.13-11.37-2.87-.21.13-.42.26-.62.4Z" style="fill:none;stroke-linecap:round;stroke:#701616;stroke-linejoin:round"/><path d="M60.16 92.06a5.4 5.4 0 0 1 .34-3 5.29 5.29 0 0 1 6.88-2.83c.78.31 16.74 6.25 40.61-10.16a5.28 5.28 0 1 1 6 8.71c-29 20-49.79 11.57-50.65 11.21a5.3 5.3 0 0 1-3.18-3.93Z" style="stroke-linejoin:round;fill:#c4c5c7;stroke:#8f9294"/></svg>