<?xml version="1.0" encoding="UTF-8"?><svg id="a" xmlns="http://www.w3.org/2000/svg" viewBox="0 0 150 150"><defs><style>.b,.c,.d{fill:none;stroke-linecap:round;}.b,.c,.d,.e,.f,.g{stroke-linejoin:round;}.b,.e{stroke:#701616;}.h{fill:#fff;}.i,.e{fill:#f16164;}.j{fill:#701616;}.c{stroke-width:10px;}.c,.g{stroke:#8f9294;}.d{stroke:#c4c5c7;stroke-width:8px;}.f{fill:#c3c4c6;stroke:#8e9193;}.g{fill:#c4c5c7;}</style></defs><path class="g" d="M100.18,88.83c-.81,.15-1.59,.54-2.24,1.15-1.79,1.69-1.88,4.51-.2,6.31,.48,.53,9.96,11.45,4.02,35.32-.6,2.4,.87,4.84,3.27,5.44,2.4,.6,4.84-.87,5.44-3.27,7.22-29.04-5.64-43.04-6.19-43.63-1.09-1.15-2.65-1.6-4.1-1.32Z"/><g><polygon class="f" points="96.46 103.44 96.46 143.05 106.19 149.75 87.71 149.75 87.71 103.44 96.46 103.44"/><polygon class="f" points="76.96 103.44 76.96 143.05 80.44 149.75 64.62 149.75 68.2 143.18 68.2 103.44 76.96 103.44"/></g><rect class="e" x="42.31" y="30.41" width="78.44" height="78.44" transform="translate(163.06 139.26) rotate(180)"/><path class="b" d="M86.35,85.52s-2.44-.05-4.54,0"/><g><ellipse class="j" cx="73.83" cy="72.69" rx="5.33" ry="11.9"/><line class="b" x1="73.83" y1="62.46" x2="73.83" y2="57.93"/><g><line class="b" x1="75.35" y1="63.21" x2="77.37" y2="59.14"/><line class="b" x1="72.42" y1="63.21" x2="70.41" y2="59.14"/></g><ellipse class="h" cx="75.34" cy="68.92" rx="1.44" ry="2.49"/></g><g><ellipse class="j" cx="95.61" cy="72.69" rx="5.33" ry="11.9"/><line class="b" x1="95.61" y1="62.46" x2="95.61" y2="57.93"/><g><line class="b" x1="97.13" y1="63.21" x2="99.15" y2="59.14"/><line class="b" x1="94.2" y1="63.21" x2="92.19" y2="59.14"/></g><ellipse class="h" cx="97.12" cy="68.92" rx="1.44" ry="2.49"/></g><g><path class="c" d="M75.58,96.64s-11.1,40.96-21.36,10.53"/><path class="d" d="M75.58,96.64s-11.1,40.96-21.36,10.53"/></g><ellipse class="i" cx="96.06" cy="83.08" rx="7.45" ry="4.74"/><path class="b" d="M90.1,79.84s5.13-2.85,10.73,0"/><path class="b" d="M65.21,56.2s-.05-6.9,6.01-6.43"/><line class="b" x1="90.35" y1="55.11" x2="100.98" y2="55.11"/></svg>