<svg data-name="Layer 1" xmlns="http://www.w3.org/2000/svg" viewBox="0 0 150 150"><defs><clipPath id="a"><path d="M72.48 74.74s.14 7.26.72 8.26 7.73-.11 7.73-.11 2.24-4.93 1.17-6.62-1.68-2.85-2.85-2.87a60.08 60.08 0 0 0-6.77 1.34Z" style="fill:none"/></clipPath></defs><path d="M92 48.78a3.91 3.91 0 0 1-1.89-.48 4 4 0 0 1-1.64-5.4c.07-.14 4.41-8.56 1.26-15.62-2-4.56-6.91-7.83-14.49-9.72a4 4 0 1 1 1.9-7.76C87.26 12.33 94 17.13 97 24.09c4.73 10.69-1.28 22.1-1.54 22.58A4 4 0 0 1 92 48.78ZM59.73 136a44.74 44.74 0 0 1-6.9-.57 4 4 0 1 1 1.24-7.9c7.74 1.21 13.52.09 17.17-3.34 5.61-5.26 4.9-14.73 4.89-14.82a4 4 0 1 1 8-.74c.05.54 1.13 13.4-7.39 21.4C72.48 134 66.78 136 59.73 136Z" style="stroke-linejoin:round;fill:#c5c6c8;stroke:#909395"/><path style="fill:#c5c7c9;stroke:#929497;stroke-linejoin:round" d="m25.42 86.72-8.03-4.81-11.63 7.02-5.28-8.95v20.44l16.16-9.63 6.21 2.89 2.57-6.96zM40.62 35.3 24.11 17.24l4.08-15.05-15.26 13.5 22.19 24.48 5.5-4.87z"/><path d="m42.82 44.59-4 16.08-8.67-2.17 7.53-29.9 95 23.92-7.53 29.91-8.62-2.17 4-16.09ZM110.19 105.51l4-16.09 8.62 2.18-7.53 29.9-95-23.92 7.53-29.91 8.62 2.17-4.02 16.09Z" style="stroke:#0b6a88;fill:#2dc5f4;stroke-linejoin:round"/><path d="M89.55 60.25c4 1 6.73 3.87 6.1 6.39s-4.39 3.74-8.39 2.73M85.81 75.1c4 1 6.74 3.86 6.1 6.38s-4.39 3.74-8.39 2.73" style="stroke-linecap:round;stroke:#0b6a88;stroke-linejoin:round;fill:none"/><g style="clip-path:url(#a)"><path d="M64.79 80.24a2.32 2.32 0 0 1-.07-.46A3.5 3.5 0 0 1 67.9 76l7.27-.63a3.5 3.5 0 1 1 .61 7l-7.27.63a3.5 3.5 0 0 1-3.72-2.76Z" style="fill:#f05124"/></g><path d="M77.87 63.11s-12.57 19.48-.44 23.72" style="stroke-linecap:round;stroke:#0b6a88;stroke-linejoin:round;fill:none"/></svg>