<svg xmlns="http://www.w3.org/2000/svg" viewBox="0 0 150 150"><path style="fill:#c4c5c7;stroke:#8f9294;stroke-linejoin:round" d="m99.34 67.87 13.41-18.24 21.57 16.18 12.01-3.91-12.01 15.7-19.47-14.63-7.8 10.2-7.71-5.3z"/><path transform="rotate(-43.22 61.785 69.67)" style="fill:#f16164;stroke-linejoin:round;stroke:#701616" d="M20.67 28.55h82.23v82.23H20.67z"/><path d="M54.64 66.93s-2.84-10.59 8.71-10.99" style="stroke-width:2px;stroke-linejoin:round;stroke:#701616;fill:none;stroke-linecap:round"/><path style="stroke-linejoin:round;stroke:#701616;fill:none;stroke-linecap:round" d="m55.72 58.79-4.07-3.34M58.6 56.01 57 52.08M53.55 62.17l-4.17-.82"/><path d="M70.13 48.62s-2.84-10.59 8.71-10.99" style="stroke-width:2px;stroke-linejoin:round;stroke:#701616;fill:none;stroke-linecap:round"/><path style="stroke-linejoin:round;stroke:#701616;fill:none;stroke-linecap:round" d="m71.2 40.49-4.06-3.35M74.09 37.71l-1.6-3.93M69.04 43.86l-4.17-.81"/><path style="fill:#c4c5c7;stroke:#8f9294;stroke-linejoin:round" d="M84.64 86.43 98.33 68.4l21.33 16.5 12.06-3.72-12.24 15.51-19.25-14.92-7.95 10.08-7.64-5.42z"/><path d="M60.71 94.26c-.21-.95-.15-1.98.21-2.96a5.291 5.291 0 0 1 6.75-3.13c.79.27 16.99 5.52 40.13-11.91a5.282 5.282 0 0 1 7.4 1.04 5.29 5.29 0 0 1-1.04 7.4c-28.15 21.2-49.24 13.71-50.13 13.38a5.27 5.27 0 0 1-3.32-3.84Z" style="fill:#c4c5c7;stroke:#8f9294;stroke-linejoin:round"/><path d="M62.19 64.73c4.73-2.97 11.01-1.47 14.03 3.34 3.02 4.82 1.64 11.12-3.09 14.09M78.62 45.12c-2.36 5.06-.1 11.11 5.05 13.51 5.15 2.41 11.24.25 13.6-4.8" style="stroke-linejoin:round;stroke:#701616;fill:none;stroke-linecap:round"/><path d="M74.45 65.68s6.48-1.91 6.13-8.52" style="stroke-linejoin:round;stroke:#701616;fill:none;stroke-linecap:round"/><ellipse cx="121.78" cy="56.59" rx="5.28" ry="6.25" transform="rotate(-57.41 121.792 56.58)" style="fill:#c4c5c7;stroke:#8f9294;stroke-linejoin:round"/></svg>