<?xml version="1.0" encoding="UTF-8"?><svg id="a" xmlns="http://www.w3.org/2000/svg" viewBox="0 0 150 150"><defs><style>.b,.c{fill:none;stroke-linecap:round;}.b,.c,.d{stroke:#701616;}.b,.c,.d,.e{stroke-linejoin:round;}.c{stroke-width:2px;}.d{fill:#f16164;}.e{fill:#c4c5c7;stroke:#8f9294;}</style></defs><polygon class="e" points="99.34 67.87 112.75 49.63 134.32 65.81 146.33 61.9 134.32 77.6 114.85 62.97 107.05 73.17 99.34 67.87"/><rect class="d" x="20.67" y="28.55" width="82.23" height="82.23" transform="translate(-30.95 61.21) rotate(-43.22)"/><g><path class="c" d="M54.64,66.93s-2.84-10.59,8.71-10.99"/><line class="b" x1="55.72" y1="58.79" x2="51.65" y2="55.45"/><line class="b" x1="58.6" y1="56.01" x2="57" y2="52.08"/><line class="b" x1="53.55" y1="62.17" x2="49.38" y2="61.35"/></g><g><path class="c" d="M70.13,48.62s-2.84-10.59,8.71-10.99"/><line class="b" x1="71.2" y1="40.49" x2="67.14" y2="37.14"/><line class="b" x1="74.09" y1="37.71" x2="72.49" y2="33.78"/><line class="b" x1="69.04" y1="43.86" x2="64.87" y2="43.05"/></g><polygon class="e" points="84.64 86.43 98.33 68.4 119.66 84.9 131.72 81.18 119.48 96.69 100.23 81.77 92.28 91.85 84.64 86.43"/><path class="e" d="M60.71,94.26c-.21-.95-.15-1.98,.21-2.96,1.01-2.72,4.03-4.11,6.75-3.13,.79,.27,16.99,5.52,40.13-11.91,2.33-1.76,5.64-1.29,7.4,1.04,1.75,2.33,1.29,5.64-1.04,7.4-28.15,21.2-49.24,13.71-50.13,13.38-1.75-.65-2.95-2.13-3.32-3.84Z"/><path class="b" d="M62.19,64.73c4.73-2.97,11.01-1.47,14.03,3.34,3.02,4.82,1.64,11.12-3.09,14.09"/><path class="b" d="M78.62,45.12c-2.36,5.06-.1,11.11,5.05,13.51,5.15,2.41,11.24,.25,13.6-4.8"/><path class="b" d="M74.45,65.68s6.48-1.91,6.13-8.52"/><ellipse class="e" cx="121.78" cy="56.59" rx="5.28" ry="6.25" transform="translate(8.52 128.72) rotate(-57.41)"/></svg>