<svg xmlns="http://www.w3.org/2000/svg" viewBox="0 0 150 150"><path d="M122.35 19.18a3.78 3.78 0 0 1 .1 5.01c-16.71 19.77-33.11 33.13-33.8 33.69a3.785 3.785 0 0 1-5.33-.56 3.785 3.785 0 0 1 .56-5.33c.16-.13 16.55-13.5 32.78-32.69 1.35-1.6 3.74-1.8 5.34-.45.12.1.24.21.34.33Z" style="stroke-linejoin:round;fill:#c5c6c8;stroke:#909395"/><path d="M39.64 123.77v17.15l5.98 8.57H28.91l3.39-8.85v-16.87z" style="stroke-linejoin:round;fill:#c5c7c9;stroke:#929497"/><path d="M33.78 114.88h16.59v8.89H19.53V25.78h30.84v8.89H33.78z" style="stroke-linejoin:round;stroke:#0b6a88;fill:#2dc5f4"/><path d="M78.51 123.77v17.15l13.03 8.57H71.16v-25.72z" style="stroke-linejoin:round;fill:#c5c7c9;stroke:#929497"/><path d="M58.3 56.02c-.03-.49-.08-1-.14-1.51 0-.08-.01-.15-.02-.23v-.03c-.01-.08-.03-.15-.04-.23-.08-.51-.16-1.01-.27-1.49-.09-.41-.2-.8-.31-1.19l-.09-.33c-1.07-3.62-2.91-6.08-4.66-5.84s-2.86 3.1-2.92 6.88v.35c0 .4 0 .8.03 1.22.03.49.08 1 .14 1.52 0 .08.01.15.02.23v.03c.01.08.03.15.04.23.08.51.16 1.01.27 1.49.09.41.2.8.31 1.19l.09.33c1.07 3.62 2.91 6.08 4.66 5.84s2.86-3.1 2.92-6.88v-.34c0-.41 0-.81-.03-1.23Z" style="fill:#0b6a88"/><path d="M76.41 34.68H59.82v-8.89h30.84v97.98H59.82v-8.89h16.59z" style="stroke-linejoin:round;stroke:#0b6a88;fill:#2dc5f4"/><path d="M56.24 51.92c0-.15-.02-.29-.03-.45v-.07s0-.05-.01-.08c-.02-.15-.05-.3-.09-.44a4 4 0 0 0-.11-.35c-.01-.03-.02-.06-.03-.1-.39-1.06-1.11-1.76-1.85-1.66s-1.25.97-1.33 2.09v.1c0 .12-.01.24 0 .36 0 .15.02.3.03.45v.07s0 .05.01.08c.02.15.05.3.09.44.03.12.07.23.11.35l.03.1c.39 1.06 1.11 1.76 1.85 1.66s1.25-.97 1.33-2.09v-.1c0-.12.01-.24 0-.37Z" style="fill:#fff"/><path d="M69.95 53.74c-.03-.49-.08-1-.14-1.51 0-.08-.01-.15-.02-.23v-.03c-.01-.08-.03-.15-.04-.23-.08-.51-.16-1.01-.27-1.49-.09-.41-.2-.8-.31-1.19l-.09-.33c-1.07-3.62-2.91-6.08-4.66-5.84s-2.86 3.1-2.92 6.88v.35c0 .4 0 .8.03 1.22.03.49.08 1 .14 1.52 0 .08.01.15.02.23v.03c.01.08.03.15.04.23.08.51.16 1.01.27 1.49.09.41.2.8.31 1.19l.09.33c1.07 3.62 2.91 6.08 4.66 5.84s2.86-3.1 2.92-6.88v-.34c0-.41 0-.81-.03-1.23Z" style="fill:#0b6a88"/><path d="M67.89 49.64c0-.15-.02-.29-.03-.45v-.07s0-.05-.01-.08c-.02-.15-.05-.3-.09-.44a4 4 0 0 0-.11-.35c-.01-.03-.02-.06-.03-.1-.39-1.06-1.11-1.76-1.85-1.66s-1.25.97-1.33 2.09v.1c0 .12-.01.24 0 .36 0 .15.02.3.03.45v.07s0 .05.01.08c.02.15.05.3.09.44.03.12.07.23.11.35l.03.1c.39 1.06 1.11 1.76 1.85 1.66s1.25-.97 1.33-2.09V50c0-.12.01-.24 0-.37Z" style="fill:#fff"/><path d="m70.6 64.66-19.52 3.66s5.7 10.58 10.71 10.17c6.59-.54 9.31-11.08 8.81-13.83" style="stroke-linecap:round;fill:#0b6a88;stroke-linejoin:round;stroke:#0b6a88"/><path d="M16.88 134.18c1.88.02 3.53-1.37 3.78-3.29 3.42-25.66 2.3-46.78 2.25-47.67a3.783 3.783 0 0 0-3.99-3.57c-2.09.12-3.69 1.9-3.57 3.99.01.21 1.12 21.33-2.19 46.25a3.778 3.778 0 0 0 3.72 4.28Z" style="stroke-linejoin:round;fill:#c5c6c8;stroke:#909395"/></svg>