<svg id="Layer_1" data-name="Layer 1" xmlns="http://www.w3.org/2000/svg" viewBox="0 0 150 150"><defs><style>.cls-1{fill:#c4c5c7;stroke:#8f9294;}.cls-1,.cls-2,.cls-5,.cls-6{stroke-linejoin:round;}.cls-2{fill:#f16164;}.cls-2,.cls-5,.cls-6{stroke:#701616;}.cls-3{fill:#fff;}.cls-4{fill:#9253a1;}.cls-5,.cls-6{fill:none;stroke-linecap:round;}.cls-5{stroke-width:2px;}</style></defs><polygon class="cls-1" points="99.34 67.87 112.75 49.63 134.32 65.81 146.33 61.9 134.32 77.59 114.85 62.97 107.06 73.17 99.34 67.87"/><rect class="cls-2" x="20.67" y="28.55" width="82.23" height="82.23" transform="translate(-30.95 61.21) rotate(-43.22)"/><path class="cls-3" d="M75.35,55.35c-3.37,2.27-5.51,5.92-8.2,8.95-3.31,3.72-7.07,5-11.94,5.43-3.48.31-6.72,1.56-7.21,5.48a10.16,10.16,0,0,0,3.16,8.54c5.51,4.62,13.67,4.59,20.37,3.35C79.91,85.56,89.27,80.26,91,71.24a15.6,15.6,0,0,0-3.66-13.42c-2.78-3-7.51-5.13-11.37-2.87C75.76,55.08,75.55,55.21,75.35,55.35Z"/><path class="cls-4" d="M52.89,84.77s14.38-21,37.86-13.53c-.45,1.93-.51,7.16-11.25,13.42C75.23,87.14,62.27,90.57,52.89,84.77Z"/><path class="cls-5" d="M54.64,66.93s-2.85-10.59,8.7-11"/><line class="cls-6" x1="55.72" y1="58.79" x2="51.65" y2="55.45"/><line class="cls-6" x1="58.6" y1="56.01" x2="57" y2="52.08"/><line class="cls-6" x1="53.55" y1="62.17" x2="49.38" y2="61.35"/><path class="cls-5" d="M70.13,48.62s-2.85-10.58,8.7-11"/><line class="cls-6" x1="71.2" y1="40.49" x2="67.14" y2="37.14"/><line class="cls-6" x1="74.09" y1="37.71" x2="72.49" y2="33.78"/><line class="cls-6" x1="69.04" y1="43.86" x2="64.87" y2="43.05"/><polygon class="cls-1" points="84.64 86.43 98.33 68.4 119.66 84.9 131.72 81.18 119.48 96.69 100.23 81.77 92.28 91.85 84.64 86.43"/><ellipse class="cls-1" cx="121.78" cy="56.59" rx="5.28" ry="6.25" transform="translate(8.52 128.72) rotate(-57.41)"/><path class="cls-6" d="M75.35,55.35c-3.37,2.27-5.51,5.92-8.2,8.95-3.31,3.72-7.07,5-11.94,5.43-3.48.31-6.72,1.56-7.21,5.48a10.16,10.16,0,0,0,3.16,8.54c5.51,4.62,13.67,4.59,20.37,3.35C79.91,85.56,89.27,80.26,91,71.24a15.6,15.6,0,0,0-3.66-13.42c-2.78-3-7.51-5.13-11.37-2.87C75.76,55.08,75.55,55.21,75.35,55.35Z"/><path class="cls-6" d="M75.35,55.35c-3.37,2.27-5.51,5.92-8.2,8.95-3.31,3.72-7.07,5-11.94,5.43-3.48.31-6.72,1.56-7.21,5.48a10.16,10.16,0,0,0,3.16,8.54c5.51,4.62,13.67,4.59,20.37,3.35C79.91,85.56,89.27,80.26,91,71.24a15.6,15.6,0,0,0-3.66-13.42c-2.78-3-7.51-5.13-11.37-2.87C75.76,55.08,75.55,55.21,75.35,55.35Z"/><path class="cls-1" d="M60.16,92.06a5.4,5.4,0,0,1,.34-3,5.29,5.29,0,0,1,6.88-2.83c.78.31,16.74,6.25,40.61-10.16a5.28,5.28,0,1,1,6,8.71c-29,20-49.79,11.57-50.65,11.21A5.3,5.3,0,0,1,60.16,92.06Z"/></svg>