<svg data-name="Layer 1" xmlns="http://www.w3.org/2000/svg" viewBox="0 0 150 150"><path d="M65.47 39.22c5.1 11.88 24.9 54.88 39.89 99.17a93.55 93.55 0 0 1 14.16 1.3l-21 9.7C81.38 95.16 66.33 64.43 58.89 47" style="stroke-linejoin:round;fill:#c5c6c8;stroke:#909395"/><path d="M59.83 35.51c.52 14.71 2.42 65-6.44 106.34a127.22 127.22 0 0 0 11.94 7.8H41.22c9.38-31.39 10.9-63.19 9.63-109.19" style="stroke-linejoin:round;fill:#c5c6c8;stroke:#909395"/><circle cx="62.51" cy="43.65" r="32.04" style="stroke:#70327e;fill:#a26daf;stroke-linejoin:round"/><ellipse cx="81.03" cy="47.1" rx="4.02" ry="9.48" style="fill:#70327e"/><ellipse cx="63.44" cy="47.1" rx="4.02" ry="9.48" style="fill:#70327e"/><path d="M77.86 59.68c-4.75 3.6-10.38.63-10.38.63s.2 5.47 3.21 5.47c2.63 0 3.44-3.94 3.44-3.94" style="stroke-linecap:round;fill:#70327e;stroke:#70327e;stroke-linejoin:round"/><path d="M56.22 31.61s1.14-5.18 6.21-4.39M87 36.26a5.23 5.23 0 0 0-4.53-3.9" style="fill:none;stroke-linecap:round;stroke:#70327e;stroke-linejoin:round"/><ellipse cx="61.68" cy="46.41" rx="1.76" ry="3.14" style="fill:#fff"/><ellipse cx="79.36" cy="46.41" rx="1.76" ry="3.14" style="fill:#fff"/></svg>