<svg xmlns="http://www.w3.org/2000/svg" viewBox="0 0 150 150"><path d="m60.59 139.7-3.91 9.8h16.33l-3.25-9.64.19-70.19-9.03-.03zm24.98.02 11.77 9.78H76.52l-.96-79.73 9.04-.1z" style="stroke-linejoin:round;fill:#c5c6c8;stroke:#909395"/><circle cx="72.22" cy="43.61" r="31.92" style="stroke:#70327e;stroke-linejoin:round;fill:#a26daf"/><path d="M96.31 36.61c-.8-5.15-4.3-8.88-7.82-8.34-3.52.55-5.72 5.17-4.91 10.32m-7.04 2.16c-.8-5.15-4.3-8.88-7.82-8.34-3.52.55-5.72 5.17-4.91 10.32m30.25-18.21s-2.2-3.72-6.03-1.88M60.76 33.19s-.95-4.21 3.11-5.5" style="fill:none;stroke-linecap:round;stroke:#70327e;stroke-linejoin:round"/><path d="M52.06 37.45s5.49 28.23 34.48 13.69" style="fill:none;stroke-linecap:round;stroke:#70327e;stroke-linejoin:round"/></svg>