<svg xmlns="http://www.w3.org/2000/svg" viewBox="0 0 150 150"><defs><clipPath id="a"><path d="M.57 5.98h147.98V150H.57z" style="fill:none" transform="rotate(180 74.555 77.99)"/></clipPath></defs><g style="clip-path:url(#a)"><circle cx="75" cy="101.03" r="63.67" style="stroke:#70327e;stroke-linejoin:round;fill:#a26daf"/><path d="M82.63 129.85s-7.25 6.18-15.25-1.17" style="fill:none;stroke-linecap:round;stroke:#70327e;stroke-linejoin:round"/><path d="M51.74 104.76c.17 6.39 1.7 11.99 3.89 15.28.65.97 2.54 0 4.46-.07 2.02-.08 4.07.66 4.72-.51 1.9-3.43 3.06-8.94 2.9-15.12-.27-10.27-4.05-18.5-8.46-18.38-4.41.11-7.77 8.53-7.5 18.79Z" style="fill:#70327e"/><path d="M68.13 120.77s-8.51-2.15-15.96.41m-4.31-38.22s-1.11-7.18 5.32-9.51" style="fill:none;stroke-linecap:round;stroke:#70327e;stroke-linejoin:round"/><ellipse cx="59.71" cy="97.23" rx="2.64" ry="4.61" style="fill:#fff" transform="rotate(-2.25 59.727 97.455)"/><path d="M98.26 104.76c-.17 6.39-1.7 11.99-3.89 15.28-.65.97-2.54 0-4.46-.07-2.02-.08-4.07.66-4.72-.51-1.9-3.43-3.06-8.94-2.9-15.12.27-10.27 4.05-18.5 8.46-18.38 4.41.11 7.77 8.53 7.5 18.79Z" style="fill:#70327e"/><path d="M81.87 120.77s8.51-2.15 15.96.41m4.31-38.22s1.11-7.18-5.32-9.51" style="fill:none;stroke-linecap:round;stroke:#70327e;stroke-linejoin:round"/><ellipse cx="90.29" cy="97.23" rx="4.61" ry="2.64" style="fill:#fff" transform="rotate(-87.75 90.283 97.234)"/></g></svg>