<svg xmlns="http://www.w3.org/2000/svg" viewBox="0 0 150 150"><defs><clipPath id="a"><path transform="rotate(180 74.555 77.99)" style="fill:none" d="M.57 5.98h147.98V150H.57z"/></clipPath></defs><g style="clip-path:url(#a)"><path d="M70.36 110.81c44.7 21.81 48.06 52.34 39.85 114.96v-.04c10.92 9.96 15.1 17.09 15.1 17.09l-31.94-3.22c12.18-81.78 4.12-96.37-27.59-113.35" style="fill:#c5c6c8;stroke:#909395;stroke-width:2.37px;stroke-linejoin:round"/><path d="M29.04 113.46c44.7 21.81 48.06 52.34 39.85 114.96v-.04c10.92 9.96 15.1 17.09 15.1 17.09l-31.94-3.22c12.18-81.78 4.12-96.37-27.59-113.35" style="fill:#c5c6c8;stroke:#909395;stroke-width:2.37px;stroke-linejoin:round"/><circle cx="77.35" cy="101.03" r="63.67" style="fill:#a26daf;stroke-linejoin:round;stroke:#70327e"/><path d="M110.39 115.81s-5.64 7.68-15.11 2.36" style="stroke-linejoin:round;stroke:#70327e;stroke-linecap:round;fill:none"/><path d="M104.93 89.74c1.63 6.18 4.41 11.28 7.3 13.98.88.82 2.65-.28 4.54-.84 1.89-.56 3.9-.59 4.26-1.84 1.06-3.78.92-9.4-.66-15.38-2.62-9.93-8.2-17.07-12.46-15.94-4.26 1.12-5.6 10.09-2.98 20.01Z" style="fill:#70327e"/><path d="M124.56 101.55s-8.77-.14-15.44 4.07M118 63.65s-.94-7.21-7.77-7.65" style="stroke-linejoin:round;stroke:#70327e;stroke-linecap:round;fill:none"/><path d="M76.03 98.15c1.63 6.18 4.41 11.28 7.3 13.98.85.8 2.7 0 4.54-.52 1.95-.55 3.89-.87 4.25-2.15 1.06-3.78.92-9.4-.66-15.38-2.62-9.93-8.2-17.07-12.46-15.94-4.26 1.12-5.6 10.09-2.98 20.01Z" style="fill:#70327e"/><path d="M95.66 109.96s-8.77-.14-15.44 4.07M67.24 77.83s-2.74-6.74 2.99-10.48" style="stroke-linejoin:round;stroke:#70327e;stroke-linecap:round;fill:none"/><ellipse cx="85.09" cy="89.45" rx="2.64" ry="4.61" transform="rotate(-15.54 85.1 89.473)" style="fill:#fff"/><ellipse cx="114.1" cy="80.03" rx="2.64" ry="4.61" transform="rotate(-15.54 114.121 80.033)" style="fill:#fff"/></g></svg>