<svg id="Layer_1" data-name="Layer 1" xmlns="http://www.w3.org/2000/svg" viewBox="0 0 150 150"><defs><style>.cls-1{fill:#c5c6c8;stroke:#909395;}.cls-1,.cls-2,.cls-4,.cls-5{stroke-linejoin:round;}.cls-2{fill:#a26daf;}.cls-2,.cls-4,.cls-5{stroke:#70327e;}.cls-3,.cls-4{fill:#70327e;}.cls-4,.cls-5{stroke-linecap:round;}.cls-5{fill:none;}.cls-6{fill:#fff;}</style></defs><path class="cls-1" d="M19.16,66.54,37.53,101a4.52,4.52,0,0,0,2,1.89,4.61,4.61,0,0,0,1.83.45,4.48,4.48,0,0,0,4-2.07l22-34.48a4.5,4.5,0,1,0-7.58-4.85L41.79,90,21.72,52.42,2.32,63Z"/><path class="cls-1" d="M130.78,117.23,93.14,68.54A4.5,4.5,0,0,0,86,74l45,58.52,17.22-18Z"/><circle class="cls-2" cx="74.57" cy="43.5" r="31.85"/><ellipse class="cls-3" cx="93.03" cy="46.65" rx="3.99" ry="9.42" transform="translate(-0.71 1.44) rotate(-0.88)"/><ellipse class="cls-3" cx="75.54" cy="46.92" rx="3.99" ry="9.42" transform="translate(-0.71 1.17) rotate(-0.88)"/><path class="cls-4" d="M90.07,59.2c-5.89.37-16.23.72-16.23.72s3,6.4,6,6.35c2.61,0,4.72-6.45,4.72-6.45"/><path class="cls-5" d="M68.13,31.63s1.05-5.17,6.1-4.46"/><path class="cls-5" d="M98.83,35.78A5.22,5.22,0,0,0,94.26,32"/><ellipse class="cls-6" cx="76.85" cy="45.24" rx="1.75" ry="3.12" transform="translate(-0.69 1.19) rotate(-0.88)"/><ellipse class="cls-6" cx="94.42" cy="44.97" rx="1.75" ry="3.12" transform="translate(-0.68 1.46) rotate(-0.88)"/></svg>