<?xml version="1.0" encoding="UTF-8"?><svg id="a" xmlns="http://www.w3.org/2000/svg" xmlns:xlink="http://www.w3.org/1999/xlink" viewBox="0 0 150 150"><defs><style>.c,.d{fill:none;}.d{stroke-linecap:round;}.d,.e{stroke:#70327e;stroke-linejoin:round;}.f{fill:#fff;}.g{fill:#70327e;}.h{clip-path:url(#b);}.e{fill:#a26daf;}</style><clipPath id="b"><rect class="c" x=".57" y="5.98" width="147.98" height="144.02" transform="translate(149.11 155.98) rotate(180)"/></clipPath></defs><g class="h"><g><circle class="e" cx="75" cy="101.03" r="63.67"/><path class="d" d="M82.63,129.85s-7.25,6.18-15.25-1.17"/><g><g><g><g><path class="g" d="M51.74,104.76c.17,6.39,1.7,11.99,3.89,15.28,.65,.97,2.54,0,4.46-.07,2.02-.08,4.07,.66,4.72-.51,1.9-3.43,3.06-8.94,2.9-15.12-.27-10.27-4.05-18.5-8.46-18.38-4.41,.11-7.77,8.53-7.5,18.79Z"/><path class="d" d="M68.13,120.77s-8.51-2.15-15.96,.41"/></g><path class="d" d="M47.86,82.96s-1.11-7.18,5.32-9.51"/></g><ellipse class="f" cx="59.71" cy="97.23" rx="2.64" ry="4.61" transform="translate(-3.78 2.42) rotate(-2.25)"/></g><g><g><g><path class="g" d="M98.26,104.76c-.17,6.39-1.7,11.99-3.89,15.28-.65,.97-2.54,0-4.46-.07-2.02-.08-4.07,.66-4.72-.51-1.9-3.43-3.06-8.94-2.9-15.12,.27-10.27,4.05-18.5,8.46-18.38,4.41,.11,7.77,8.53,7.5,18.79Z"/><path class="d" d="M81.87,120.77s8.51-2.15,15.96,.41"/></g><path class="d" d="M102.14,82.96s1.11-7.18-5.32-9.51"/></g><ellipse class="f" cx="90.29" cy="97.23" rx="4.61" ry="2.64" transform="translate(-10.42 183.63) rotate(-87.75)"/></g></g></g></g></svg>