<svg xmlns="http://www.w3.org/2000/svg" viewBox="0 0 150 150"><path style="fill:#c5c6c8;stroke:#909395;stroke-linejoin:round" d="m63.37 139.7-3.91 9.8h16.33l-3.25-9.64.19-70.19-9.03-.03-.33 70.06zM88.35 139.72l11.77 9.78H79.3l-.96-79.73 9.03-.1.98 70.05z"/><circle cx="75" cy="43.61" r="31.92" style="fill:#a26daf;stroke-linejoin:round;stroke:#70327e"/><ellipse cx="70.72" cy="43.24" rx="4" ry="9.44" transform="rotate(-.12 71.575 43.047)" style="fill:#70327e"/><path d="M95.74 32.21s-.91-5.2-5.99-4.63" style="stroke-linejoin:round;stroke:#70327e;fill:none;stroke-linecap:round"/><ellipse cx="71.84" cy="40.07" rx="1.75" ry="3.13" transform="rotate(-.86 71.656 39.847)" style="fill:#fff"/><ellipse cx="70.76" cy="51.35" rx="5.98" ry="4.56" style="fill:#a26daf"/><path d="M65.92 48.28s4.75-3.22 9.71 0" style="stroke-linejoin:round;stroke:#70327e;fill:none;stroke-linecap:round"/><ellipse cx="88.5" cy="43.24" rx="4" ry="9.44" transform="rotate(-.12 85.899 43.062)" style="fill:#70327e"/><ellipse cx="89.62" cy="40.07" rx="1.75" ry="3.13" transform="rotate(-.86 88.978 39.977)" style="fill:#fff"/><ellipse cx="88.54" cy="51.35" rx="5.98" ry="4.56" style="fill:#a26daf"/><path d="M83.7 48.28s4.75-3.22 9.71 0" style="stroke-linejoin:round;stroke:#70327e;fill:none;stroke-linecap:round"/><circle cx="73.02" cy="63.07" r="2.73" style="fill:#70327e"/><path d="M70.87 63.54s-1.11-3.41 4.16-4.61M66.66 34.05h7.85" style="stroke-linejoin:round;stroke:#70327e;fill:none;stroke-linecap:round"/></svg>