<?xml version="1.0" encoding="UTF-8"?><svg id="a" xmlns="http://www.w3.org/2000/svg" viewBox="0 0 150 150"><defs><style>.b,.c{stroke-linecap:round;}.b,.c,.d{stroke:#70327e;}.b,.c,.d,.e{stroke-linejoin:round;}.b,.f{fill:#70327e;}.c{fill:none;}.g{fill:#fff;}.d{fill:#a26daf;}.e{fill:#c5c6c8;stroke:#909395;}</style></defs><g><path class="e" d="M65.47,39.22c5.11,11.88,24.91,54.89,39.9,99.17v-.02c6.53-.04,14.16,1.3,14.16,1.3l-20.99,9.7c-17.15-54.21-32.2-84.94-39.64-102.42"/><path class="e" d="M59.83,35.51c.52,14.71,2.43,64.96-6.44,106.33v-.02c5.97,4.43,11.95,7.8,11.95,7.8h-24.12c9.38-31.39,10.9-63.19,9.63-109.19"/></g><g><circle class="d" cx="62.51" cy="43.65" r="32.04"/><g><ellipse class="f" cx="81.03" cy="47.1" rx="4.02" ry="9.48"/><ellipse class="f" cx="63.44" cy="47.1" rx="4.02" ry="9.48"/><path class="b" d="M77.86,59.68c-4.75,3.6-10.39,.64-10.39,.64,0,0,.21,5.47,3.22,5.47,2.63,0,3.43-3.94,3.43-3.94"/><path class="c" d="M56.22,31.61s1.13-5.17,6.2-4.39"/><path class="c" d="M87.03,36.26s-.8-3.53-4.53-3.9"/><ellipse class="g" cx="61.68" cy="46.41" rx="1.76" ry="3.14"/><ellipse class="g" cx="79.36" cy="46.41" rx="1.76" ry="3.14"/></g></g></svg>