<?xml version="1.0" encoding="UTF-8"?><svg id="a" xmlns="http://www.w3.org/2000/svg" viewBox="0 0 150 150"><defs><style>.b{fill:none;stroke-linecap:round;}.b,.c{stroke:#70327e;}.b,.c,.d{stroke-linejoin:round;}.e{fill:#fff;}.f{fill:#70327e;}.c{fill:#a26daf;}.d{fill:#c5c6c8;stroke:#909395;}</style></defs><polygon class="d" points="88.35 139.72 100.12 149.5 79.3 149.5 78.34 69.77 87.37 69.67 88.35 139.72"/><polygon class="d" points="63.37 139.7 51.71 149.5 72.52 149.5 72.73 69.67 63.7 69.64 63.37 139.7"/><g><circle class="c" cx="75" cy="43.61" r="31.92"/><g><ellipse class="f" cx="56.42" cy="46.25" rx="9.44" ry="4" transform="translate(7.79 100.64) rotate(-87.54)"/><ellipse class="f" cx="73.93" cy="47" rx="9.44" ry="4" transform="translate(23.8 118.85) rotate(-87.54)"/><path class="b" d="M81.71,32.21s-.91-5.2-5.99-4.63"/><ellipse class="e" cx="72.45" cy="44.68" rx="3.13" ry="1.75" transform="translate(24.71 115.15) rotate(-87.54)"/><ellipse class="e" cx="54.86" cy="43.92" rx="3.13" ry="1.75" transform="translate(8.63 96.85) rotate(-87.54)"/><line class="b" x1="53.02" y1="37.07" x2="60.11" y2="37.07"/><line class="b" x1="65.44" y1="61.89" x2="70.85" y2="61.8"/></g></g></svg>