<?xml version="1.0" encoding="UTF-8"?><svg id="a" xmlns="http://www.w3.org/2000/svg" xmlns:xlink="http://www.w3.org/1999/xlink" viewBox="0 0 150 150"><defs><style>.c,.d{fill:none;}.d{stroke-linecap:round;}.d,.e{stroke:#70327e;}.d,.e,.f{stroke-linejoin:round;}.g{fill:#fff;}.h{fill:#70327e;}.i{clip-path:url(#b);}.e{fill:#a26daf;}.f{fill:#c5c6c8;stroke:#909395;stroke-width:2.37px;}</style><clipPath id="b"><rect class="c" x=".57" y="5.98" width="147.98" height="144.02" transform="translate(149.11 155.98) rotate(180)"/></clipPath></defs><g class="i"><g><path class="f" d="M70.36,110.81c44.7,21.81,48.06,52.34,39.85,114.96v-.04c10.92,9.96,15.1,17.09,15.1,17.09l-31.94-3.22c12.18-81.78,4.12-96.37-27.59-113.35"/><path class="f" d="M29.04,113.46c44.7,21.81,48.06,52.34,39.85,114.96v-.04c10.92,9.96,15.1,17.09,15.1,17.09l-31.94-3.22c12.18-81.78,4.12-96.37-27.59-113.35"/><g><circle class="e" cx="77.35" cy="101.03" r="63.67"/><g><path class="d" d="M110.39,115.81s-5.64,7.68-15.11,2.36"/><g><g><g><path class="h" d="M104.93,89.74c1.63,6.18,4.41,11.28,7.3,13.98,.88,.82,2.65-.28,4.54-.84,1.89-.56,3.9-.59,4.26-1.84,1.06-3.78,.92-9.4-.66-15.38-2.62-9.93-8.2-17.07-12.46-15.94-4.26,1.12-5.6,10.09-2.98,20.01Z"/><path class="d" d="M124.56,101.55s-8.77-.14-15.44,4.07"/></g><path class="d" d="M118,63.65s-.94-7.21-7.77-7.65"/></g><g><g><path class="h" d="M76.03,98.15c1.63,6.18,4.41,11.28,7.3,13.98,.85,.8,2.7,0,4.54-.52,1.95-.55,3.89-.87,4.25-2.15,1.06-3.78,.92-9.4-.66-15.38-2.62-9.93-8.2-17.07-12.46-15.94-4.26,1.12-5.6,10.09-2.98,20.01Z"/><path class="d" d="M95.66,109.96s-8.77-.14-15.44,4.07"/></g><path class="d" d="M67.24,77.83s-2.74-6.74,2.99-10.48"/></g></g></g></g><ellipse class="g" cx="85.09" cy="89.45" rx="2.64" ry="4.61" transform="translate(-20.86 26.07) rotate(-15.54)"/><ellipse class="g" cx="114.1" cy="80.03" rx="2.64" ry="4.61" transform="translate(-17.27 33.5) rotate(-15.54)"/></g></g></svg>