<svg data-name="Layer 1" xmlns="http://www.w3.org/2000/svg" viewBox="0 0 150 150"><defs><clipPath id="a"><path transform="rotate(180 74.555 77.99)" style="fill:none" d="M.57 5.98h147.98V150H.57z"/></clipPath></defs><g style="clip-path:url(#a)"><path d="M70.36 110.81c44.7 21.82 48.07 52.34 39.86 115 10.91 10 15.09 17.09 15.09 17.09l-31.93-3.3c12.18-81.78 4.12-96.37-27.59-113.35" style="stroke-linejoin:round;fill:#c5c6c8;stroke:#909395;stroke-width:2.37px"/><path d="M29 113.46c44.7 21.81 48.06 52.34 39.85 115 10.91 10 15.08 17.1 15.08 17.1L52 242.34c12.18-81.78 4.12-96.37-27.59-113.35" style="stroke-linejoin:round;fill:#c5c6c8;stroke:#909395;stroke-width:2.37px"/><circle cx="77.35" cy="101.03" r="63.67" style="stroke:#70327e;fill:#a26daf;stroke-linejoin:round"/><path d="M110.39 115.81s-5.63 7.68-15.11 2.37" style="stroke-linecap:round;stroke:#70327e;stroke-linejoin:round;fill:none"/><path d="M104.93 89.74c1.63 6.18 4.41 11.28 7.3 14 .88.82 2.65-.28 4.54-.84s3.91-.59 4.26-1.84c1.06-3.77.92-9.4-.66-15.37-2.62-9.93-8.2-17.07-12.46-16s-5.6 10.12-2.98 20.05Z" style="fill:#70327e"/><path d="M124.56 101.55s-8.77-.13-15.44 4.08M118 63.65s-1-7.2-7.77-7.64" style="stroke-linecap:round;stroke:#70327e;stroke-linejoin:round;fill:none"/><path d="M76 98.15c1.63 6.18 4.41 11.28 7.3 14 .85.79 2.7 0 4.54-.52s3.89-.87 4.25-2.16c1.07-3.77.92-9.4-.65-15.37C88.85 84.15 83.27 77 79 78.13s-5.59 10.09-3 20.02Z" style="fill:#70327e"/><path d="M95.66 110s-8.78-.13-15.44 4.08M67.24 77.83s-2.74-6.74 3-10.49" style="stroke-linecap:round;stroke:#70327e;stroke-linejoin:round;fill:none"/><ellipse cx="85.09" cy="89.45" rx="2.64" ry="4.61" transform="rotate(-15.54 85.1 89.473)" style="fill:#fff"/><ellipse cx="114.1" cy="80.03" rx="2.64" ry="4.61" transform="rotate(-15.54 114.121 80.033)" style="fill:#fff"/></g></svg>