<svg xmlns="http://www.w3.org/2000/svg" viewBox="0 0 150 150"><path style="fill:#c5c6c8;stroke:#909395;stroke-linejoin:round" d="m88.35 139.72 11.77 9.78H79.3l-.96-79.73 9.03-.1.98 70.05zM63.37 139.7l-3.91 9.8h16.33l-3.25-9.64.19-70.19-9.03-.03-.33 70.06z"/><circle cx="75" cy="43.61" r="31.92" style="fill:#a26daf;stroke:#70327e;stroke-linejoin:round"/><path d="M103.84 35.3s-.91-5.2-5.99-4.63M61.46 35.3s.91-5.2 5.99-4.63" style="stroke:#70327e;fill:none;stroke-linejoin:round;stroke-linecap:round"/><path d="M63.44 39.92H44.29s-3.45-.31-3.45 4.9c0-.41-.25-2.53 3.43-2.53h19.18" style="stroke:#000;stroke-width:1.64px;stroke-linejoin:round;stroke-linecap:round"/><path d="M93.21 38.39h0c4.24 0 7.69 3.45 7.69 7.69v6.23H85.52v-6.23c0-4.24 3.45-7.69 7.69-7.69Z" transform="rotate(-180 93.205 45.35)" style="stroke-width:2.71px;stroke:#000;stroke-linejoin:round;stroke-linecap:round"/><path d="M72.07 38.39h0c4.24 0 7.69 3.45 7.69 7.69v6.23H64.38v-6.23c0-4.24 3.45-7.69 7.69-7.69Z" transform="rotate(180 72.07 45.35)" style="stroke-width:2.71px;stroke:#000;stroke-linejoin:round;stroke-linecap:round"/><path d="M87.9 43.47h-8.26v-4.03h8.26z"/><path d="M75.55 49.91a6.222 6.222 0 0 0 2.74-5.15v-4.15M96.6 49.91a6.222 6.222 0 0 0 2.74-5.15v-4.15" style="stroke:#fff;stroke-width:1.35px;fill:none;stroke-linejoin:round;stroke-linecap:round"/><path d="M63.29 54.65s2.65 4.71 7.65 4.71" style="stroke:#70327e;fill:none;stroke-linejoin:round;stroke-linecap:round"/></svg>