<svg data-name="Layer 1" xmlns="http://www.w3.org/2000/svg" viewBox="0 0 150 150"><path style="stroke-linejoin:round;fill:#c5c6c8;stroke:#909395" d="m88.35 139.72 11.77 9.78H79.3l-.96-79.73 9.03-.1.98 70.05zM63.37 139.7l-11.66 9.8h20.81l.21-79.83-9.03-.03-.33 70.06z"/><circle cx="75" cy="43.61" r="31.92" style="stroke:#70327e;fill:#a26daf;stroke-linejoin:round"/><ellipse cx="56.42" cy="46.25" rx="9.44" ry="4" transform="rotate(-87.54 56.423 46.254)" style="fill:#70327e"/><ellipse cx="73.93" cy="47" rx="9.44" ry="4" transform="rotate(-87.54 73.933 47.003)" style="fill:#70327e"/><path d="M81.71 32.21s-.91-5.2-6-4.63" style="fill:none;stroke-linecap:round;stroke:#70327e;stroke-linejoin:round"/><ellipse cx="72.45" cy="44.68" rx="3.13" ry="1.75" transform="rotate(-87.54 72.457 44.678)" style="fill:#fff"/><ellipse cx="54.86" cy="43.92" rx="3.13" ry="1.75" transform="rotate(-87.54 54.865 43.92)" style="fill:#fff"/><path style="fill:none;stroke-linecap:round;stroke:#70327e;stroke-linejoin:round" d="M53.02 37.07h7.09M65.44 61.89l21.16-5.33"/></svg>