<svg data-name="Layer 1" xmlns="http://www.w3.org/2000/svg" viewBox="0 0 150 150"><path d="M19.16 66.54 37.53 101a4.52 4.52 0 0 0 2 1.89 4.61 4.61 0 0 0 1.83.45 4.48 4.48 0 0 0 4-2.07l22-34.48a4.5 4.5 0 1 0-7.58-4.85L41.79 90 21.72 52.42 2.32 63ZM130.78 117.23 93.14 68.54A4.5 4.5 0 0 0 86 74l45 58.52 17.22-18Z" style="stroke-linejoin:round;fill:#c5c6c8;stroke:#909395"/><circle cx="74.57" cy="43.5" r="31.85" style="stroke:#70327e;fill:#a26daf;stroke-linejoin:round"/><ellipse cx="93.03" cy="46.65" rx="3.99" ry="9.42" transform="rotate(-.88 93.4 46.946)" style="fill:#70327e"/><ellipse cx="75.54" cy="46.92" rx="3.99" ry="9.42" transform="rotate(-.88 75.82 46.811)" style="fill:#70327e"/><path d="M90.07 59.2c-5.89.37-16.23.72-16.23.72s3 6.4 6 6.35c2.61 0 4.72-6.45 4.72-6.45" style="stroke-linecap:round;fill:#70327e;stroke:#70327e;stroke-linejoin:round"/><path d="M68.13 31.63s1.05-5.17 6.1-4.46M98.83 35.78A5.22 5.22 0 0 0 94.26 32" style="fill:none;stroke-linecap:round;stroke:#70327e;stroke-linejoin:round"/><ellipse cx="76.85" cy="45.24" rx="1.75" ry="3.12" transform="rotate(-.88 77.133 45.52)" style="fill:#fff"/><ellipse cx="94.42" cy="44.97" rx="1.75" ry="3.12" transform="rotate(-.88 94.717 45.003)" style="fill:#fff"/></svg>