<svg id="Layer_1" data-name="Layer 1" xmlns="http://www.w3.org/2000/svg" xmlns:xlink="http://www.w3.org/1999/xlink" viewBox="0 0 150 150"><defs><style>.cls-1,.cls-5{fill:none;}.cls-2{clip-path:url(#clip-path);}.cls-3{fill:#c5c6c8;stroke:#909395;stroke-width:2.37px;}.cls-3,.cls-4,.cls-5{stroke-linejoin:round;}.cls-4{fill:#a26daf;}.cls-4,.cls-5{stroke:#70327e;}.cls-5{stroke-linecap:round;}.cls-6{fill:#70327e;}.cls-7{fill:#fff;}</style><clipPath id="clip-path"><rect class="cls-1" x="0.57" y="5.98" width="147.98" height="144.02" transform="translate(149.11 155.98) rotate(180)"/></clipPath></defs><g class="cls-2"><path class="cls-3" d="M70.36,110.81c44.7,21.82,48.07,52.34,39.86,115v0c10.91,10,15.09,17.09,15.09,17.09L93.38,239.6c12.18-81.78,4.12-96.37-27.59-113.35"/><path class="cls-3" d="M29,113.46c44.7,21.81,48.06,52.34,39.85,115l0,0c10.91,10,15.08,17.1,15.08,17.1l-31.93-3.22c12.18-81.78,4.12-96.37-27.59-113.35"/><circle class="cls-4" cx="77.35" cy="101.03" r="63.67"/><path class="cls-5" d="M110.39,115.81s-5.63,7.68-15.11,2.37"/><path class="cls-6" d="M104.93,89.74c1.63,6.18,4.41,11.28,7.3,14,.88.82,2.65-.28,4.54-.84s3.91-.59,4.26-1.84c1.06-3.77.92-9.4-.66-15.37-2.62-9.93-8.2-17.07-12.46-16S102.31,79.81,104.93,89.74Z"/><path class="cls-5" d="M124.56,101.55s-8.77-.13-15.44,4.08"/><path class="cls-5" d="M118,63.65s-1-7.2-7.77-7.64"/><path class="cls-6" d="M76,98.15c1.63,6.18,4.41,11.28,7.3,14,.85.79,2.7,0,4.54-.52s3.89-.87,4.25-2.16c1.07-3.77.92-9.4-.65-15.37C88.85,84.15,83.27,77,79,78.13S73.41,88.22,76,98.15Z"/><path class="cls-5" d="M95.66,110s-8.78-.13-15.44,4.08"/><path class="cls-5" d="M67.24,77.83s-2.74-6.74,3-10.49"/><ellipse class="cls-7" cx="85.09" cy="89.45" rx="2.64" ry="4.61" transform="translate(-20.86 26.07) rotate(-15.54)"/><ellipse class="cls-7" cx="114.1" cy="80.03" rx="2.64" ry="4.61" transform="translate(-17.27 33.5) rotate(-15.54)"/></g></svg>