<?xml version="1.0" encoding="UTF-8"?><svg id="a" xmlns="http://www.w3.org/2000/svg" viewBox="0 0 150 150"><defs><style>.b,.c,.d,.e{stroke-linecap:round;}.b,.c,.d,.e,.f,.g{stroke-linejoin:round;}.b,.e{fill:none;}.b,.f{stroke:#70327e;}.c{stroke-width:1.64px;}.c,.d{stroke:#000;}.d{stroke-width:2.71px;}.e{stroke:#fff;stroke-width:1.35px;}.f{fill:#a26daf;}.g{fill:#c5c6c8;stroke:#909395;}</style></defs><polygon class="g" points="88.35 139.72 100.12 149.5 79.3 149.5 78.34 69.77 87.37 69.67 88.35 139.72"/><polygon class="g" points="63.37 139.7 59.46 149.5 75.79 149.5 72.54 139.86 72.73 69.67 63.7 69.64 63.37 139.7"/><circle class="f" cx="75" cy="43.61" r="31.92"/><path class="b" d="M103.84,35.3s-.91-5.2-5.99-4.63"/><path class="b" d="M61.46,35.3s.91-5.2,5.99-4.63"/><path class="c" d="M63.44,39.92h-19.15s-3.45-.31-3.45,4.9c0-.41-.25-2.53,3.43-2.53h19.18"/><g><path class="d" d="M93.21,38.39h0c4.24,0,7.69,3.45,7.69,7.69v6.23h-15.38v-6.23c0-4.24,3.45-7.69,7.69-7.69Z" transform="translate(186.41 90.7) rotate(-180)"/><path class="d" d="M72.07,38.39h0c4.24,0,7.69,3.45,7.69,7.69v6.23h-15.38v-6.23c0-4.24,3.45-7.69,7.69-7.69Z" transform="translate(144.14 90.7) rotate(180)"/><rect x="79.64" y="39.44" width="8.26" height="4.03" transform="translate(167.54 82.91) rotate(180)"/><path class="e" d="M75.55,49.91c1.65-1.12,2.74-3.01,2.74-5.15v-4.15"/><path class="e" d="M96.6,49.91c1.65-1.12,2.74-3.01,2.74-5.15v-4.15"/></g><path class="b" d="M63.29,54.65s2.65,4.71,7.65,4.71"/></svg>