<svg xmlns="http://www.w3.org/2000/svg" viewBox="0 0 150 150"><path d="M65.47 39.22c5.11 11.88 24.91 54.89 39.9 99.17v-.02c6.53-.04 14.16 1.3 14.16 1.3l-20.99 9.7C81.39 95.16 66.34 64.43 58.9 46.95" style="stroke-linejoin:round;fill:#c5c6c8;stroke:#909395"/><path d="M59.83 35.51c.52 14.71 2.43 64.96-6.44 106.33v-.02c5.97 4.43 11.95 7.8 11.95 7.8H41.22c9.38-31.39 10.9-63.19 9.63-109.19" style="stroke-linejoin:round;fill:#c5c6c8;stroke:#909395"/><circle cx="62.51" cy="43.65" r="32.04" style="stroke:#70327e;stroke-linejoin:round;fill:#a26daf"/><ellipse cx="81.03" cy="47.1" rx="4.02" ry="9.48" style="fill:#70327e"/><ellipse cx="63.44" cy="47.1" rx="4.02" ry="9.48" style="fill:#70327e"/><path d="M77.86 59.68c-4.75 3.6-10.39.64-10.39.64s.21 5.47 3.22 5.47c2.63 0 3.43-3.94 3.43-3.94" style="stroke-linecap:round;stroke:#70327e;stroke-linejoin:round;fill:#70327e"/><path d="M56.22 31.61s1.13-5.17 6.2-4.39m24.61 9.04s-.8-3.53-4.53-3.9" style="stroke-linecap:round;stroke:#70327e;stroke-linejoin:round;fill:none"/><ellipse cx="61.68" cy="46.41" rx="1.76" ry="3.14" style="fill:#fff"/><ellipse cx="79.36" cy="46.41" rx="1.76" ry="3.14" style="fill:#fff"/></svg>