<?xml version="1.0" encoding="UTF-8"?><svg id="a" xmlns="http://www.w3.org/2000/svg" viewBox="0 0 150 150"><defs><style>.b{fill:none;stroke-linecap:round;}.b,.c{stroke:#70327e;}.b,.c,.d{stroke-linejoin:round;}.c{fill:#a26daf;}.d{fill:#c5c6c8;stroke:#909395;}</style></defs><polygon class="d" points="60.59 139.7 56.68 149.5 73.01 149.5 69.76 139.86 69.95 69.67 60.92 69.64 60.59 139.7"/><polygon class="d" points="85.57 139.72 97.34 149.5 76.52 149.5 75.56 69.77 84.6 69.67 85.57 139.72"/><circle class="c" cx="72.22" cy="43.61" r="31.92"/><path class="b" d="M96.31,36.61c-.8-5.15-4.3-8.88-7.82-8.34-3.52,.55-5.72,5.17-4.91,10.32"/><path class="b" d="M76.54,40.75c-.8-5.15-4.3-8.88-7.82-8.34-3.52,.55-5.72,5.17-4.91,10.32"/><path class="b" d="M94.06,24.52s-2.2-3.72-6.03-1.88"/><path class="b" d="M60.76,33.19s-.95-4.21,3.11-5.5"/><path class="b" d="M52.06,37.45s5.49,28.23,34.48,13.69"/></svg>