<?xml version="1.0" encoding="UTF-8"?><svg id="a" xmlns="http://www.w3.org/2000/svg" viewBox="0 0 150 150"><defs><style>.b,.c{stroke-linecap:round;}.b,.c,.d{stroke:#70327e;}.b,.c,.d,.e{stroke-linejoin:round;}.b,.f{fill:#70327e;}.c{fill:none;}.g{fill:#fff;}.d{fill:#a26daf;}.e{fill:#c5c6c8;stroke:#909395;}</style></defs><path class="e" d="M19.16,66.54l18.37,34.42c.45,.83,1.15,1.48,1.97,1.89,.56,.28,1.18,.44,1.83,.46,1.59,.06,3.09-.73,3.95-2.07l22.03-34.48c1.34-2.1,.73-4.88-1.37-6.22-2.1-1.35-4.88-.73-6.22,1.37l-17.93,28.06L21.72,52.42,2.32,63l16.84,3.54Z"/><path class="e" d="M130.78,117.23l-37.64-48.69c-1.5-1.98-4.32-2.38-6.31-.88-1.98,1.5-2.38,4.32-.88,6.31l45,58.51,17.21-18.01-17.4,2.75Z"/><g><circle class="d" cx="74.57" cy="43.5" r="31.85"/><g><ellipse class="f" cx="93.03" cy="46.65" rx="3.99" ry="9.42" transform="translate(-.71 1.44) rotate(-.88)"/><ellipse class="f" cx="75.54" cy="46.92" rx="3.99" ry="9.42" transform="translate(-.71 1.17) rotate(-.88)"/><path class="b" d="M90.07,59.2c-5.89,.37-16.23,.72-16.23,.72,0,0,3.05,6.4,6.04,6.35,2.61-.04,4.72-6.45,4.72-6.45"/><path class="c" d="M68.13,31.63s1.05-5.16,6.1-4.46"/><path class="c" d="M98.83,35.78s-.85-3.49-4.56-3.81"/><ellipse class="g" cx="76.85" cy="45.24" rx="1.75" ry="3.12" transform="translate(-.69 1.19) rotate(-.88)"/><ellipse class="g" cx="94.42" cy="44.97" rx="1.75" ry="3.12" transform="translate(-.68 1.46) rotate(-.88)"/></g></g></svg>