<?xml version="1.0" encoding="UTF-8"?><svg id="a" xmlns="http://www.w3.org/2000/svg" viewBox="0 0 150 150"><defs><style>.b{fill:none;stroke-linecap:round;}.b,.c{stroke:#70327e;}.b,.c,.d{stroke-linejoin:round;}.e{fill:#fff;}.f,.c{fill:#a26daf;}.g{fill:#70327e;}.d{fill:#c5c6c8;stroke:#909395;}</style></defs><polygon class="d" points="63.37 139.7 59.46 149.5 75.79 149.5 72.54 139.86 72.73 69.67 63.7 69.64 63.37 139.7"/><polygon class="d" points="88.35 139.72 100.12 149.5 79.3 149.5 78.34 69.77 87.37 69.67 88.35 139.72"/><circle class="c" cx="75" cy="43.61" r="31.92"/><ellipse class="g" cx="70.72" cy="43.24" rx="4" ry="9.44" transform="translate(-.09 .15) rotate(-.12)"/><path class="b" d="M95.74,32.21s-.91-5.2-5.99-4.63"/><ellipse class="e" cx="71.84" cy="40.07" rx="1.75" ry="3.13" transform="translate(-.59 1.08) rotate(-.86)"/><ellipse class="f" cx="70.76" cy="51.35" rx="5.98" ry="4.56"/><path class="b" d="M65.92,48.28s4.75-3.22,9.71,0"/><ellipse class="g" cx="88.5" cy="43.24" rx="4" ry="9.44" transform="translate(-.09 .18) rotate(-.12)"/><ellipse class="e" cx="89.62" cy="40.07" rx="1.75" ry="3.13" transform="translate(-.59 1.34) rotate(-.86)"/><ellipse class="f" cx="88.54" cy="51.35" rx="5.98" ry="4.56"/><path class="b" d="M83.7,48.28s4.75-3.22,9.71,0"/><g><circle class="g" cx="73.02" cy="63.07" r="2.73"/><path class="b" d="M70.87,63.54s-1.11-3.41,4.16-4.61"/></g><line class="b" x1="66.66" y1="34.05" x2="74.51" y2="34.05"/></svg>