<svg xmlns="http://www.w3.org/2000/svg" viewBox="0 0 150 150"><path d="m88.35 139.72 11.77 9.78H79.3l-.96-79.73 9.03-.1zm-24.98-.02-3.91 9.8h16.33l-3.25-9.64.19-70.19-9.03-.03z" style="stroke-linejoin:round;fill:#c5c6c8;stroke:#909395"/><circle cx="75" cy="43.61" r="31.92" style="stroke-linejoin:round;stroke:#70327e;fill:#a26daf"/><path d="M103.84 35.3s-.91-5.2-5.99-4.63M61.46 35.3s.91-5.2 5.99-4.63" style="stroke-linecap:round;stroke-linejoin:round;fill:none;stroke:#70327e"/><path d="M63.44 39.92H44.29s-3.45-.31-3.45 4.9c0-.41-.25-2.53 3.43-2.53h19.18" style="stroke-linecap:round;stroke-linejoin:round;stroke-width:1.64px;stroke:#000"/><path d="M93.21 38.39c4.24 0 7.69 3.45 7.69 7.69v6.23H85.52v-6.23c0-4.24 3.45-7.69 7.69-7.69" style="stroke-linecap:round;stroke-linejoin:round;stroke:#000;stroke-width:2.71px" transform="rotate(-180 93.205 45.35)"/><path d="M72.07 38.39c4.24 0 7.69 3.45 7.69 7.69v6.23H64.38v-6.23c0-4.24 3.45-7.69 7.69-7.69" style="stroke-linecap:round;stroke-linejoin:round;stroke:#000;stroke-width:2.71px" transform="rotate(180 72.07 45.35)"/><path d="M87.9 43.47h-8.26v-4.03h8.26z"/><path d="M75.55 49.91a6.22 6.22 0 0 0 2.74-5.15v-4.15m18.31 9.3a6.22 6.22 0 0 0 2.74-5.15v-4.15" style="stroke-linecap:round;stroke-linejoin:round;fill:none;stroke:#fff;stroke-width:1.35px"/><path d="M63.29 54.65s2.65 4.71 7.65 4.71" style="stroke-linecap:round;stroke-linejoin:round;fill:none;stroke:#70327e"/></svg>