<svg id="Layer_1" data-name="Layer 1" xmlns="http://www.w3.org/2000/svg" viewBox="0 0 150 150"><defs><style>.cls-1{fill:#c5c6c8;stroke:#909395;}.cls-1,.cls-2,.cls-4{stroke-linejoin:round;}.cls-2{fill:#a26daf;}.cls-2,.cls-4{stroke:#70327e;}.cls-3{fill:#70327e;}.cls-4{fill:none;stroke-linecap:round;}.cls-5{fill:#fff;}</style></defs><polygon class="cls-1" points="88.35 139.72 100.12 149.5 79.3 149.5 78.34 69.77 87.37 69.67 88.35 139.72"/><polygon class="cls-1" points="63.37 139.7 51.71 149.5 72.52 149.5 72.73 69.67 63.7 69.64 63.37 139.7"/><circle class="cls-2" cx="75" cy="43.61" r="31.92"/><ellipse class="cls-3" cx="56.42" cy="46.25" rx="9.44" ry="4" transform="translate(7.79 100.64) rotate(-87.54)"/><ellipse class="cls-3" cx="73.93" cy="47" rx="9.44" ry="4" transform="translate(23.8 118.85) rotate(-87.54)"/><path class="cls-4" d="M81.71,32.21s-.91-5.2-6-4.63"/><ellipse class="cls-5" cx="72.45" cy="44.68" rx="3.13" ry="1.75" transform="translate(24.71 115.15) rotate(-87.54)"/><ellipse class="cls-5" cx="54.86" cy="43.92" rx="3.13" ry="1.75" transform="translate(8.63 96.85) rotate(-87.54)"/><line class="cls-4" x1="53.02" y1="37.07" x2="60.11" y2="37.07"/><line class="cls-4" x1="65.44" y1="61.89" x2="86.6" y2="56.56"/></svg>