<svg xmlns="http://www.w3.org/2000/svg" viewBox="0 0 150 150"><path style="fill:#c5c6c8;stroke:#909395;stroke-linejoin:round" d="m88.35 139.72 11.77 9.78H79.3l-.96-79.73 9.03-.1.98 70.05zM63.37 139.7l-11.66 9.8h20.81l.21-79.83-9.03-.03-.33 70.06z"/><circle cx="75" cy="43.61" r="31.92" style="fill:#a26daf;stroke-linejoin:round;stroke:#70327e"/><ellipse cx="56.42" cy="46.25" rx="9.44" ry="4" transform="rotate(-87.54 56.423 46.254)" style="fill:#70327e"/><ellipse cx="73.93" cy="47" rx="9.44" ry="4" transform="rotate(-87.54 73.933 47.003)" style="fill:#70327e"/><path d="M81.71 32.21s-.91-5.2-5.99-4.63" style="stroke-linejoin:round;stroke:#70327e;fill:none;stroke-linecap:round"/><ellipse cx="72.45" cy="44.68" rx="3.13" ry="1.75" transform="rotate(-87.54 72.457 44.678)" style="fill:#fff"/><ellipse cx="54.86" cy="43.92" rx="3.13" ry="1.75" transform="rotate(-87.54 54.865 43.92)" style="fill:#fff"/><path style="stroke-linejoin:round;stroke:#70327e;fill:none;stroke-linecap:round" d="M53.02 37.07h7.09M65.44 61.89l5.41-.09"/></svg>