<svg xmlns="http://www.w3.org/2000/svg" viewBox="0 0 150 150"><path d="m63.37 139.7-3.91 9.8h16.33l-3.25-9.64.19-70.19-9.03-.03zm24.98.02 11.77 9.78H79.3l-.96-79.73 9.03-.1z" style="stroke-linejoin:round;fill:#c5c6c8;stroke:#909395"/><circle cx="75" cy="43.61" r="31.92" style="stroke:#70327e;stroke-linejoin:round;fill:#a26daf"/><ellipse cx="70.72" cy="43.24" rx="4" ry="9.44" style="fill:#70327e" transform="rotate(-.12 71.575 43.047)"/><path d="M95.74 32.21s-.91-5.2-5.99-4.63" style="fill:none;stroke-linecap:round;stroke:#70327e;stroke-linejoin:round"/><ellipse cx="71.84" cy="40.07" rx="1.75" ry="3.13" style="fill:#fff" transform="rotate(-.86 71.656 39.847)"/><ellipse cx="70.76" cy="51.35" rx="5.98" ry="4.56" style="fill:#a26daf"/><path d="M65.92 48.28s4.75-3.22 9.71 0" style="fill:none;stroke-linecap:round;stroke:#70327e;stroke-linejoin:round"/><ellipse cx="88.5" cy="43.24" rx="4" ry="9.44" style="fill:#70327e" transform="rotate(-.12 85.899 43.062)"/><ellipse cx="89.62" cy="40.07" rx="1.75" ry="3.13" style="fill:#fff" transform="rotate(-.86 88.978 39.977)"/><ellipse cx="88.54" cy="51.35" rx="5.98" ry="4.56" style="fill:#a26daf"/><path d="M83.7 48.28s4.75-3.22 9.71 0" style="fill:none;stroke-linecap:round;stroke:#70327e;stroke-linejoin:round"/><circle cx="73.02" cy="63.07" r="2.73" style="fill:#70327e"/><path d="M70.87 63.54s-1.11-3.41 4.16-4.61m-8.37-24.88h7.85" style="fill:none;stroke-linecap:round;stroke:#70327e;stroke-linejoin:round"/></svg>