<svg xmlns="http://www.w3.org/2000/svg" viewBox="0 0 150 150"><path d="m19.16 66.54 18.37 34.42c.45.83 1.15 1.48 1.97 1.89.56.28 1.18.44 1.83.46 1.59.06 3.09-.73 3.95-2.07l22.03-34.48c1.34-2.1.73-4.88-1.37-6.22a4.49 4.49 0 0 0-6.22 1.37L41.79 89.97 21.72 52.42 2.32 63zm111.62 50.69L93.14 68.54a4.51 4.51 0 0 0-6.31-.88 4.51 4.51 0 0 0-.88 6.31l45 58.51 17.21-18.01-17.4 2.75Z" style="stroke-linejoin:round;fill:#c5c6c8;stroke:#909395"/><circle cx="74.57" cy="43.5" r="31.85" style="stroke:#70327e;stroke-linejoin:round;fill:#a26daf"/><ellipse cx="93.03" cy="46.65" rx="3.99" ry="9.42" style="fill:#70327e" transform="rotate(-.88 93.4 46.946)"/><ellipse cx="75.54" cy="46.92" rx="3.99" ry="9.42" style="fill:#70327e" transform="rotate(-.88 75.82 46.811)"/><path d="M90.07 59.2c-5.89.37-16.23.72-16.23.72s3.05 6.4 6.04 6.35c2.61-.04 4.72-6.45 4.72-6.45" style="stroke-linecap:round;stroke:#70327e;stroke-linejoin:round;fill:#70327e"/><path d="M68.13 31.63s1.05-5.16 6.1-4.46m24.6 8.61s-.85-3.49-4.56-3.81" style="stroke-linecap:round;stroke:#70327e;stroke-linejoin:round;fill:none"/><ellipse cx="76.85" cy="45.24" rx="1.75" ry="3.12" style="fill:#fff" transform="rotate(-.88 77.133 45.52)"/><ellipse cx="94.42" cy="44.97" rx="1.75" ry="3.12" style="fill:#fff" transform="rotate(-.88 94.717 45.003)"/></svg>