<svg id="Layer_1" data-name="Layer 1" xmlns="http://www.w3.org/2000/svg" viewBox="0 0 150 150"><defs><style>.cls-1{fill:#2dc5f4;}</style></defs><path class="cls-1" d="M85.78,48.63a1.37,1.37,0,0,0,1.26.85h0l2-.06,4.12,30.69,1.34-.06L95.84,80l22.44-1,1.33-.06L121,78.9l2.82-30.5,2.2-.07a1.35,1.35,0,0,0,1.22-.85l2.53-6.31a1.35,1.35,0,0,0-.14-1.28,1.34,1.34,0,0,0-1.15-.59L84.48,40.45a1.34,1.34,0,0,0-1.1.61,1.38,1.38,0,0,0-.13,1.26Z"/><path class="cls-1" d="M96.78,128.61a11.59,11.59,0,0,1,8.92-.16,12,12,0,0,1,2,1.05l-3.26-6.85-29,.17a35.77,35.77,0,0,1-.64,3.77,31.43,31.43,0,0,1-1.07,3.62,11.76,11.76,0,0,1,3.14-1.8,11.64,11.64,0,0,1,14.34,5.24A11.54,11.54,0,0,1,96.78,128.61Z"/><path class="cls-1" d="M141,142.85,127.9,122.51h-5.37l-7.36,0h-8.62l6.18,13,.63,1.33.64,1.33,2.79,5.88a1.35,1.35,0,0,0,1.21.76h21.9a1.34,1.34,0,0,0,1.12-2.06Z"/><path class="cls-1" d="M16.77,96.86c.39-.45.8-.88,1.21-1.3s.81-.8,1.23-1.18a33.6,33.6,0,0,1,52,8c.28.49.55,1,.8,1.48.15.3.29.6.43.9.45,1,.85,1.92,1.21,2.91a33.05,33.05,0,0,1,1.78,7.53q.08.58.12,1.17a.92.92,0,0,1,0,.16c0,.44.06.88.07,1.33,0,.13,0,.25,0,.38,0,.44,0,.89,0,1.33s0,.89-.05,1.34l28-.17h10.89l6.93,0h7a1.23,1.23,0,0,0,.39-.07,1.33,1.33,0,0,0,.91-1l4.14-20a1.31,1.31,0,0,0,0-.68l-5.65-17.42a1.32,1.32,0,0,0-1.32-.92L74.74,82.78l.08-1.87,1.8-42.29a1.32,1.32,0,0,0-1.4-1.39L10,40.5a1.34,1.34,0,0,0-1.11,2l3.17,5.84Zm91.74,15.37a1.16,1.16,0,0,1-1.11,1.19h0a1.15,1.15,0,0,1-1.15-1.11l-.72-21.73a1.14,1.14,0,0,1,1.11-1.19,1.18,1.18,0,0,1,1.19,1.11Zm-6.8,0a1.15,1.15,0,0,1-1.11,1.19h0a1.15,1.15,0,0,1-1.15-1.11l-.72-21.73a1.15,1.15,0,0,1,1.11-1.19h0A1.15,1.15,0,0,1,101,90.5Zm10.58-21.65a1.15,1.15,0,0,1,1.11-1.19,1.17,1.17,0,0,1,1.19,1.11l.72,21.73a1.16,1.16,0,0,1-1.11,1.19h0a1.15,1.15,0,0,1-1.15-1.11Zm6.8,0a1.15,1.15,0,0,1,1.11-1.19,1.18,1.18,0,0,1,1.19,1.11l.72,21.73a1.16,1.16,0,0,1-1.11,1.19h0a1.16,1.16,0,0,1-1.15-1.11ZM66.15,48.39l-2,34a56.94,56.94,0,0,0-21.3-4,65.71,65.71,0,0,0-16.09,2l-3.05-30Z"/><path class="cls-1" d="M72.21,122.83c.08-.62.13-1.24.17-1.87a.37.37,0,0,0,0-.11c0-.41,0-.81,0-1.22s0-.89,0-1.33c0-.12,0-.24,0-.36,0-.44,0-.89-.08-1.33a1.1,1.1,0,0,0,0-.18c0-.38-.07-.77-.11-1.15s-.1-.61-.14-.91a31.37,31.37,0,0,0-.66-3.09c-.15-.55-.3-1.09-.48-1.62a30.39,30.39,0,0,0-51.32-11.1c-.41.45-.82.91-1.2,1.39s-.81,1-1.19,1.56a30.4,30.4,0,0,0,48.39,36.76c.35-.43.69-.88,1-1.33s.64-.88.94-1.33a30.27,30.27,0,0,0,4.11-9.75A29.13,29.13,0,0,0,72.21,122.83ZM61.26,133.58A24.13,24.13,0,0,1,56.91,138l-1.74-2.77L51,128.6a12.93,12.93,0,0,0,3-4.19l7.18,1.64.51.11.83.19,1.33.31,1,.23a24.29,24.29,0,0,1-1,2.41,24.71,24.71,0,0,1-1.29,2.38C62.15,132.34,61.72,133,61.26,133.58ZM39.16,143l.73-3.19,1.75-7.69.39,0a12.91,12.91,0,0,0,4.67-.88L50.89,138l1.74,2.77A24,24,0,0,1,39.16,143Zm-16.08-9,2.78-1.75,6.66-4.18a13,13,0,0,0,4.19,3L35,138.7l-.73,3.2A24,24,0,0,1,23.08,134Zm-3.64-23.24a27.4,27.4,0,0,1,1.1-2.54,24.08,24.08,0,0,1,6.6-8l1.74,2.77,4.19,6.66a12.93,12.93,0,0,0-3,4.19L22.42,112l-1.55-.35-1.37-.32-.26-.06C19.3,111.12,19.37,110.93,19.44,110.75ZM61,104.22,58.19,106l-6.66,4.18a12.82,12.82,0,0,0-4.19-3l1.75-7.68.73-3.19A23.93,23.93,0,0,1,61,104.22Zm4.86,11.15c.07.44.12.88.17,1.33s.07.88.09,1.33a2.62,2.62,0,0,0,0,.28c0,.44,0,.89,0,1.33s-.06.89-.09,1.33,0,.66-.08,1l-2.24-.52-1-.21-.38-.09-.77-.18-.57-.13-5.26-1.2-.7-.16c0-.39,0-.78,0-1.17a13.06,13.06,0,0,0-.84-3.89l6.66-4.18,2.77-1.75A24.11,24.11,0,0,1,65.82,115.37ZM52.24,121c0,.15,0,.29-.07.44a10.41,10.41,0,0,1-9.92,8.07,10,10,0,0,1-2.54-.25,10.45,10.45,0,0,1-4.87-2.63,10.63,10.63,0,0,1-1.62-2,10.28,10.28,0,0,1-1.07-2.31A8.92,8.92,0,0,1,31.8,121a9.84,9.84,0,0,1-.15-1.33c0-.11,0-.21,0-.32a8.52,8.52,0,0,1,0-1,10.07,10.07,0,0,1,.22-1.53,10.36,10.36,0,0,1,2.64-4.87,10,10,0,0,1,2-1.62,10.74,10.74,0,0,1,2.31-1.07,10.49,10.49,0,0,1,3-.51l.2,0a10.29,10.29,0,0,1,2.33.27,10.6,10.6,0,0,1,4.87,2.64,10.6,10.6,0,0,1,3.19,6.71c0,.19,0,.38,0,.57a6.43,6.43,0,0,1,0,.76A10.05,10.05,0,0,1,52.24,121ZM44.9,95.17l-.73,3.19L42.42,106a12.72,12.72,0,0,0-5.07.86l-4.19-6.66-1.73-2.75A24,24,0,0,1,42,95,25.56,25.56,0,0,1,44.9,95.17ZM18.1,116.23l.54.12,1.37.31,1.29.3.08,0,5.85,1.33,1.74.4c0,.31,0,.62,0,.93a11.74,11.74,0,0,0,.13,1.33,12.48,12.48,0,0,0,.72,2.81L23.17,128l-2.78,1.74A23.94,23.94,0,0,1,18.1,116.23Z"/><path class="cls-1" d="M77.59,136.94a4.29,4.29,0,0,1,1.51-1.33,4.09,4.09,0,0,1,2-.51H89.7a9.6,9.6,0,0,0-17.4.28c0,.07,0,.15-.09.23a9,9,0,0,0-.44,1.33,10,10,0,0,0-.25,1.33,9.64,9.64,0,0,0,.58,4.46,9.59,9.59,0,0,0,17.58.77H81.07a4.21,4.21,0,0,1-4.2-4.2,3.88,3.88,0,0,1,.14-1A4.17,4.17,0,0,1,77.59,136.94Z"/><path class="cls-1" d="M110.73,136.94a10.36,10.36,0,0,0-.44-1.33c0-.05,0-.1-.05-.14a9.6,9.6,0,0,0-17.44-.37h8.63a4.12,4.12,0,0,1,2,.51,4.18,4.18,0,0,1,1.5,1.33,4,4,0,0,1,.59,1.33,4.34,4.34,0,0,1,.14,1,4.21,4.21,0,0,1-4.2,4.2H92.81A9.6,9.6,0,0,0,111,138.27,10,10,0,0,0,110.73,136.94Z"/><path class="cls-1" d="M108.59,30a1.07,1.07,0,0,0,.79,1,5.42,5.42,0,0,1,3.78,3.78,1.08,1.08,0,0,0,1,.8h0a1.07,1.07,0,0,0,1-.8h0A5.45,5.45,0,0,1,119,31a1.08,1.08,0,0,0,0-2.08,5.47,5.47,0,0,1-3.78-3.78,1.07,1.07,0,0,0-1-.8h0a1.07,1.07,0,0,0-1,.8,5.43,5.43,0,0,1-3.78,3.78A1.07,1.07,0,0,0,108.59,30Z"/><path class="cls-1" d="M89.62,7.46a5.42,5.42,0,0,1,3.78,3.78,1.08,1.08,0,0,0,2.08,0h0a5.45,5.45,0,0,1,3.78-3.78,1.08,1.08,0,0,0,0-2.08A5.45,5.45,0,0,1,95.48,1.6a1.08,1.08,0,0,0-2.08,0,5.42,5.42,0,0,1-3.78,3.78,1.08,1.08,0,0,0,0,2.08Z"/><path class="cls-1" d="M106.57,11.89a2.26,2.26,0,1,0-2.26-2.26A2.27,2.27,0,0,0,106.57,11.89Z"/><path class="cls-1" d="M114.49,18.26a1.4,1.4,0,1,0-1.4-1.4A1.4,1.4,0,0,0,114.49,18.26Z"/><path class="cls-1" d="M97.32,22.8a2.8,2.8,0,1,0,2.8-2.8A2.8,2.8,0,0,0,97.32,22.8Z"/></svg>