<?xml version="1.0" encoding="UTF-8"?><svg id="a" xmlns="http://www.w3.org/2000/svg" viewBox="0 0 150 150"><defs><style>.b{fill:#2dc5f4;}</style></defs><path class="b" d="M85.78,48.63c.21,.52,.71,.85,1.26,.85h.04l1.96-.06,4.12,30.69,1.34-.06,1.34-.06,22.44-.97,1.33-.06,1.34-.06,2.81-30.51,2.2-.07c.54-.02,1.02-.35,1.22-.85l2.53-6.31c.17-.42,.12-.91-.15-1.28s-.7-.61-1.15-.58l-43.95,1.15c-.45,.01-.86,.24-1.1,.61-.25,.37-.29,.84-.13,1.25l2.53,6.31Z"/><path class="b" d="M96.78,128.61c2.86-1.24,6.02-1.3,8.92-.16,.72,.29,1.41,.64,2.05,1.05l-3.26-6.85-29.01,.17c-.14,1.25-.34,2.51-.63,3.77-.28,1.25-.66,2.45-1.07,3.63,.93-.75,1.98-1.36,3.13-1.8,2.91-1.11,6.07-1.02,8.92,.25,2.33,1.04,4.21,2.79,5.42,4.99,1.24-2.24,3.15-4,5.53-5.04Z"/><path class="b" d="M141.02,142.85l-13.12-20.34h-1.58l-1.58,.02h-2.22l-7.36,.06h-1.41l-1.41,.02h-.8l-2.06,.02h-1.47l-1.47,.02,6.18,12.97,.63,1.33,.63,1.33,2.8,5.88c.22,.46,.69,.76,1.2,.76h21.9c.49,0,.94-.27,1.17-.69,.23-.43,.22-.95-.05-1.36Z"/><path class="b" d="M16.77,96.86c.39-.44,.8-.88,1.21-1.3,.4-.41,.81-.8,1.22-1.18,7.88-7.26,19.09-10.65,30.31-8.1,9.54,2.18,17.21,8.24,21.72,16.14,.28,.49,.55,.98,.8,1.49,.15,.29,.29,.59,.43,.89,.45,.95,.85,1.92,1.21,2.91,.87,2.41,1.48,4.94,1.78,7.53,.05,.39,.09,.78,.12,1.18,0,.05,0,.1,.01,.15,.03,.44,.05,.89,.07,1.33,0,.13,.01,.25,.01,.38,.01,.44,.01,.89,0,1.33,0,.44-.03,.89-.05,1.33l28-.16h2.04l1.47-.02h1.47l2.06-.02h2.44l1.41-.02,6.93-.04h2.1l1.58-.02h1.58l1.78-.02c.14,0,.26-.03,.39-.07,.45-.14,.81-.51,.91-.99l4.14-20.04c.05-.23,.03-.46-.04-.68l-5.64-17.42c-.19-.57-.73-.95-1.33-.92l-52.18,2.27,.08-1.87,1.8-42.29c.02-.37-.13-.74-.39-1-.27-.26-.62-.41-1.01-.39l-65.19,3.27c-.46,.02-.87,.28-1.09,.68-.22,.4-.23,.89,0,1.29l3.17,5.84,4.67,48.55Zm91.74,15.37c.02,.63-.48,1.17-1.11,1.19h-.04c-.62,0-1.13-.49-1.15-1.11l-.72-21.73c-.02-.63,.48-1.17,1.11-1.19,.61-.02,1.16,.48,1.19,1.11l.72,21.73Zm-6.8,0c.02,.63-.48,1.16-1.11,1.19h-.04c-.62,0-1.13-.49-1.15-1.11l-.72-21.73c-.02-.63,.48-1.16,1.11-1.19h.04c.62,0,1.13,.49,1.15,1.11l.72,21.73Zm10.59-21.65c-.02-.63,.48-1.17,1.11-1.19,.63-.02,1.16,.48,1.19,1.11l.72,21.73c.02,.63-.48,1.17-1.11,1.19h-.04c-.62,0-1.13-.49-1.15-1.11l-.72-21.73Zm6.8,0c-.02-.63,.48-1.17,1.11-1.19,.61-.02,1.16,.48,1.19,1.11l.72,21.73c.02,.63-.48,1.17-1.11,1.19h-.04c-.62,0-1.13-.49-1.15-1.11l-.72-21.73Zm-52.95-42.19l-1.97,34.03c-7.48-3.02-14.95-3.95-21.31-3.95-7.56,0-13.55,1.32-16.08,1.98l-3.05-30.06,42.41-2Z"/><path class="b" d="M72.21,122.83c.08-.62,.13-1.25,.17-1.87,0-.04,0-.08,0-.12,.02-.41,.04-.81,.05-1.21,0-.45,0-.89,0-1.33,0-.12-.01-.24-.02-.36-.02-.45-.04-.89-.08-1.33,0-.06-.01-.12-.02-.18-.03-.38-.07-.77-.12-1.15-.04-.31-.09-.61-.14-.92-.17-1.04-.38-2.08-.66-3.09-.15-.54-.3-1.08-.48-1.62-3.22-9.81-11.36-17.76-22.14-20.22-11.02-2.51-22.03,1.34-29.18,9.12-.41,.45-.82,.91-1.2,1.39-.41,.51-.81,1.03-1.19,1.56-2.25,3.16-3.93,6.81-4.84,10.82-1.81,7.92-.42,16.07,3.9,22.95,4.32,6.88,11.07,11.66,18.99,13.47,2.27,.52,4.54,.77,6.77,.77,9.23,0,17.87-4.26,23.57-11.25,.35-.43,.7-.88,1.03-1.33,.32-.44,.64-.87,.94-1.33,1.88-2.9,3.3-6.18,4.11-9.74,.23-1.01,.41-2.02,.53-3.03Zm-10.95,10.75c-1.26,1.67-2.72,3.17-4.35,4.44l-1.74-2.77-4.19-6.66c1.24-1.16,2.26-2.58,2.97-4.19l7.18,1.64,.51,.12,.83,.19,1.34,.31,1.03,.23c-.28,.83-.62,1.63-.98,2.41-.39,.82-.82,1.61-1.29,2.38-.4,.66-.84,1.29-1.3,1.91Zm-22.1,9.44l.73-3.2,1.75-7.69c.13,0,.26,.02,.39,.02,1.62,0,3.2-.31,4.67-.88l4.19,6.67,1.74,2.77c-4.07,2-8.73,2.88-13.47,2.31Zm-16.08-9.04l2.77-1.74,6.66-4.19c1.19,1.26,2.61,2.27,4.19,2.97l-1.75,7.67-.73,3.19c-4.42-1.5-8.27-4.23-11.15-7.91Zm-3.64-23.24c.32-.87,.68-1.72,1.09-2.53,1.61-3.18,3.88-5.92,6.61-8.06l1.74,2.77,4.19,6.66c-1.26,1.19-2.27,2.61-2.98,4.19l-7.67-1.75-1.55-.35-1.37-.31-.27-.06c.06-.19,.14-.37,.21-.56Zm41.52-6.53l-2.77,1.74-6.66,4.18c-1.16-1.24-2.58-2.26-4.19-2.97l1.75-7.68,.73-3.19c4.52,1.54,8.33,4.35,11.14,7.92Zm4.86,11.15c.07,.44,.12,.88,.17,1.33,.04,.44,.07,.88,.09,1.33,0,.09,0,.19,0,.28,.01,.44,.05,.88,.03,1.33-.01,.44-.06,.89-.1,1.33-.03,.33-.03,.66-.07,.99l-2.24-.51-.95-.22-.38-.09-.76-.17-.57-.13-5.26-1.2-.7-.16c.01-.39,0-.78-.02-1.17-.08-1.35-.37-2.66-.84-3.89l6.66-4.19,2.77-1.74c1.06,2.15,1.79,4.47,2.17,6.87Zm-13.58,5.61c-.03,.15-.04,.29-.08,.44-.19,.85-.5,1.65-.88,2.39-.47,.92-1.06,1.75-1.76,2.48-1.18,1.23-2.65,2.16-4.28,2.69-.96,.31-1.97,.49-3,.51-.84,.02-1.68-.05-2.54-.25-.84-.19-1.64-.49-2.39-.87-.91-.46-1.75-1.05-2.48-1.76-.61-.58-1.16-1.24-1.62-1.97-.46-.73-.81-1.51-1.07-2.31-.15-.44-.27-.89-.35-1.35-.08-.44-.13-.88-.15-1.33,0-.11,0-.22,0-.33,0-.33,0-.67,.03-1.01,.04-.51,.1-1.02,.22-1.53,.19-.84,.49-1.64,.87-2.39,.46-.91,1.05-1.75,1.76-2.48,.58-.61,1.24-1.16,1.97-1.62,.73-.46,1.51-.8,2.31-1.07,.97-.32,1.98-.5,3-.52,.07,0,.13-.01,.2-.01,.78,0,1.56,.09,2.33,.27,.85,.19,1.65,.5,2.39,.88,.92,.47,1.75,1.06,2.48,1.76,1.23,1.18,2.16,2.65,2.69,4.28,.26,.78,.43,1.6,.5,2.43,.01,.19,.01,.38,.02,.56,0,.25,0,.51-.01,.77-.02,.44-.08,.89-.16,1.33Zm-7.35-25.8l-.73,3.19-1.75,7.68c-1.73-.05-3.45,.24-5.07,.86l-4.18-6.66-1.73-2.76c3.25-1.6,6.86-2.49,10.59-2.49,.95,0,1.91,.06,2.87,.18Zm-26.79,21.06l.54,.12,1.37,.31,1.28,.29,.08,.02,5.85,1.34,1.74,.4c-.01,.31,0,.62,.01,.94,.02,.45,.06,.89,.12,1.33,.14,.96,.37,1.9,.72,2.8l-6.66,4.19-2.77,1.74c-2.07-4.19-2.86-8.84-2.29-13.48Z"/><path class="b" d="M77.59,136.94c.38-.56,.91-1.01,1.51-1.33,.59-.32,1.25-.51,1.97-.51h8.63c-.98-2.03-2.63-3.63-4.71-4.56-2.34-1.05-4.95-1.12-7.35-.2-2.4,.92-4.29,2.71-5.34,5.05-.03,.07-.06,.15-.09,.23-.18,.44-.33,.88-.45,1.33-.11,.44-.2,.88-.24,1.33-.16,1.49,.02,3.01,.58,4.46,.92,2.4,2.71,4.29,5.05,5.34,1.27,.57,2.6,.83,3.9,.83,3.57,0,6.98-2.01,8.63-5.4h-8.61c-2.32,0-4.2-1.89-4.2-4.2,0-.36,.06-.7,.14-1.03,.12-.48,.31-.93,.59-1.33Z"/><path class="b" d="M110.73,136.94c-.12-.45-.26-.9-.44-1.33-.02-.05-.03-.09-.05-.14-1.02-2.35-2.9-4.17-5.29-5.11-2.38-.94-4.99-.89-7.35,.13-2.12,.92-3.8,2.54-4.8,4.6h8.63c.71,0,1.38,.2,1.97,.51,.6,.32,1.13,.77,1.51,1.33,.27,.4,.46,.85,.59,1.33,.08,.33,.14,.67,.14,1.03,0,2.32-1.89,4.2-4.2,4.2h-8.62c1.05,2.17,2.85,3.84,5.1,4.73,1.14,.45,2.33,.67,3.52,.67,1.3,0,2.6-.27,3.83-.8,2.35-1.02,4.17-2.9,5.11-5.29,.58-1.47,.78-3.02,.61-4.55-.05-.45-.14-.89-.25-1.33Z"/><path class="b" d="M108.59,29.96c0,.49,.32,.91,.8,1.04,1.83,.5,3.28,1.95,3.78,3.78,.13,.48,.55,.8,1.04,.8h0c.49,0,.91-.32,1.04-.79h0c.5-1.83,1.95-3.28,3.78-3.78,.48-.13,.8-.55,.8-1.04s-.32-.91-.8-1.04c-1.83-.5-3.28-1.95-3.78-3.78-.13-.48-.55-.79-1.04-.79h0c-.49,0-.91,.32-1.04,.8-.51,1.83-1.95,3.28-3.78,3.78-.48,.13-.8,.55-.8,1.04Z"/><path class="b" d="M89.62,7.46c1.83,.5,3.28,1.95,3.78,3.78,.13,.48,.55,.79,1.04,.79s.91-.32,1.04-.79h0c.5-1.83,1.95-3.28,3.78-3.78,.48-.13,.8-.55,.8-1.04s-.32-.91-.8-1.04c-1.83-.5-3.28-1.95-3.78-3.78-.13-.48-.55-.79-1.04-.79s-.91,.32-1.04,.8c-.5,1.83-1.95,3.28-3.78,3.78-.48,.13-.8,.55-.8,1.04s.32,.91,.8,1.04Z"/><path class="b" d="M106.57,11.89c1.25,0,2.26-1.01,2.26-2.26s-1.01-2.26-2.26-2.26-2.26,1.01-2.26,2.26,1.01,2.26,2.26,2.26Z"/><path class="b" d="M114.49,18.26c.77,0,1.4-.63,1.4-1.4s-.63-1.4-1.4-1.4-1.4,.63-1.4,1.4,.63,1.4,1.4,1.4Z"/><path class="b" d="M97.32,22.8c0,1.55,1.25,2.8,2.8,2.8s2.8-1.25,2.8-2.8-1.25-2.8-2.8-2.8-2.8,1.25-2.8,2.8Z"/></svg>