<svg xmlns="http://www.w3.org/2000/svg" viewBox="0 0 150 150"><path d="M85.78 48.63c.21.52.71.85 1.26.85h.04l1.96-.06 4.12 30.69 1.34-.06 1.34-.06 22.44-.97 1.33-.06 1.34-.06 2.81-30.51 2.2-.07c.54-.02 1.02-.35 1.22-.85l2.53-6.31c.17-.42.12-.91-.15-1.28s-.7-.61-1.15-.58l-43.95 1.15c-.45.01-.86.24-1.1.61-.25.37-.29.84-.13 1.25l2.53 6.31Zm11 79.98c2.86-1.24 6.02-1.3 8.92-.16.72.29 1.41.64 2.05 1.05l-3.26-6.85-29.01.17c-.14 1.25-.34 2.51-.63 3.77-.28 1.25-.66 2.45-1.07 3.63.93-.75 1.98-1.36 3.13-1.8 2.91-1.11 6.07-1.02 8.92.25 2.33 1.04 4.21 2.79 5.42 4.99 1.24-2.24 3.15-4 5.53-5.04Zm44.24 14.24-13.12-20.34h-1.58l-1.58.02h-2.22l-7.36.06h-1.41l-1.41.02h-.8l-2.06.02h-1.47l-1.47.02 6.18 12.97.63 1.33.63 1.33 2.8 5.88c.22.46.69.76 1.2.76h21.9a1.328 1.328 0 0 0 1.12-2.05Z" style="fill:#2dc5f4"/><path d="M16.77 96.86a34 34 0 0 1 2.43-2.48c7.88-7.26 19.09-10.65 30.31-8.1 9.54 2.18 17.21 8.24 21.72 16.14.28.49.55.98.8 1.49.15.29.29.59.43.89a33.6 33.6 0 0 1 2.99 10.44c.05.39.09.78.12 1.18 0 .05 0 .1.01.15.03.44.05.89.07 1.33 0 .13.01.25.01.38.01.44.01.89 0 1.33 0 .44-.03.89-.05 1.33l28-.16h2.04l1.47-.02h1.47l2.06-.02h2.44l1.41-.02 6.93-.04h2.1l1.58-.02h1.58l1.78-.02c.14 0 .26-.03.39-.07.45-.14.81-.51.91-.99l4.14-20.04c.05-.23.03-.46-.04-.68l-5.64-17.42c-.19-.57-.73-.95-1.33-.92l-52.18 2.27.08-1.87 1.8-42.29a1.333 1.333 0 0 0-1.4-1.39l-65.19 3.27c-.46.02-.87.28-1.09.68s-.23.89 0 1.29l3.17 5.84 4.67 48.55Zm91.74 15.37c.02.63-.48 1.17-1.11 1.19h-.04c-.62 0-1.13-.49-1.15-1.11l-.72-21.73c-.02-.63.48-1.17 1.11-1.19.61-.02 1.16.48 1.19 1.11zm-6.8 0c.02.63-.48 1.16-1.11 1.19h-.04c-.62 0-1.13-.49-1.15-1.11l-.72-21.73c-.02-.63.48-1.16 1.11-1.19h.04c.62 0 1.13.49 1.15 1.11zm10.59-21.65c-.02-.63.48-1.17 1.11-1.19s1.16.48 1.19 1.11l.72 21.73c.02.63-.48 1.17-1.11 1.19h-.04c-.62 0-1.13-.49-1.15-1.11zm6.8 0c-.02-.63.48-1.17 1.11-1.19.61-.02 1.16.48 1.19 1.11l.72 21.73c.02.63-.48 1.17-1.11 1.19h-.04c-.62 0-1.13-.49-1.15-1.11zM66.15 48.39l-1.97 34.03c-7.48-3.02-14.95-3.95-21.31-3.95-7.56 0-13.55 1.32-16.08 1.98l-3.05-30.06z" style="fill:#2dc5f4"/><path d="M72.21 122.83c.08-.62.13-1.25.17-1.87v-.12c.02-.41.04-.81.05-1.21v-1.33c0-.12-.01-.24-.02-.36-.02-.45-.04-.89-.08-1.33 0-.06-.01-.12-.02-.18-.03-.38-.07-.77-.12-1.15-.04-.31-.09-.61-.14-.92-.17-1.04-.38-2.08-.66-3.09-.15-.54-.3-1.08-.48-1.62-3.22-9.81-11.36-17.76-22.14-20.22-11.02-2.51-22.03 1.34-29.18 9.12-.41.45-.82.91-1.2 1.39-.41.51-.81 1.03-1.19 1.56a30.1 30.1 0 0 0-4.84 10.82c-1.81 7.92-.42 16.07 3.9 22.95s11.07 11.66 18.99 13.47c2.27.52 4.54.77 6.77.77 9.23 0 17.87-4.26 23.57-11.25.35-.43.7-.88 1.03-1.33.32-.44.64-.87.94-1.33 1.88-2.9 3.3-6.18 4.11-9.74.23-1.01.41-2.02.53-3.03Zm-10.95 10.75a23.8 23.8 0 0 1-4.35 4.44l-1.74-2.77-4.19-6.66c1.24-1.16 2.26-2.58 2.97-4.19l7.18 1.64.51.12.83.19 1.34.31 1.03.23c-.28.83-.62 1.63-.98 2.41a24.7 24.7 0 0 1-2.59 4.29Zm-22.1 9.44.73-3.2 1.75-7.69c.13 0 .26.02.39.02 1.62 0 3.2-.31 4.67-.88l4.19 6.67 1.74 2.77c-4.07 2-8.73 2.88-13.47 2.31m-16.08-9.04 2.77-1.74 6.66-4.19c1.19 1.26 2.61 2.27 4.19 2.97l-1.75 7.67-.73 3.19a23.84 23.84 0 0 1-11.15-7.91Zm-3.64-23.24c.32-.87.68-1.72 1.09-2.53 1.61-3.18 3.88-5.92 6.61-8.06l1.74 2.77 4.19 6.66a13.2 13.2 0 0 0-2.98 4.19l-7.67-1.75-1.55-.35-1.37-.31-.27-.06c.06-.19.14-.37.21-.56m41.52-6.53-2.77 1.74-6.66 4.18a12.8 12.8 0 0 0-4.19-2.97l1.75-7.68.73-3.19c4.52 1.54 8.33 4.35 11.14 7.92m4.86 11.15c.07.44.12.88.17 1.33.04.44.07.88.09 1.33v.28c.01.44.05.88.03 1.33-.01.44-.06.89-.1 1.33-.03.33-.03.66-.07.99l-2.24-.51-.95-.22-.38-.09-.76-.17-.57-.13-5.26-1.2-.7-.16c.01-.39 0-.78-.02-1.17-.08-1.35-.37-2.66-.84-3.89l6.66-4.19 2.77-1.74c1.06 2.15 1.79 4.47 2.17 6.87Zm-13.58 5.61c-.03.15-.04.29-.08.44-.19.85-.5 1.65-.88 2.39a10.39 10.39 0 0 1-9.04 5.68c-.84.02-1.68-.05-2.54-.25-.84-.19-1.64-.49-2.39-.87-.91-.46-1.75-1.05-2.48-1.76a10.3 10.3 0 0 1-1.62-1.97c-.46-.73-.81-1.51-1.07-2.31-.15-.44-.27-.89-.35-1.35-.08-.44-.13-.88-.15-1.33v-.33c0-.33 0-.67.03-1.01.04-.51.1-1.02.22-1.53.19-.84.49-1.64.87-2.39.46-.91 1.05-1.75 1.76-2.48.58-.61 1.24-1.16 1.97-1.62s1.51-.8 2.31-1.07c.97-.32 1.98-.5 3-.52.07 0 .13-.01.2-.01.78 0 1.56.09 2.33.27.85.19 1.65.5 2.39.88a10.4 10.4 0 0 1 5.17 6.04c.26.78.43 1.6.5 2.43.01.19.01.38.02.56 0 .25 0 .51-.01.77-.02.44-.08.89-.16 1.33Zm-7.35-25.8-.73 3.19-1.75 7.68c-1.73-.05-3.45.24-5.07.86l-4.18-6.66-1.73-2.76a24 24 0 0 1 10.59-2.49c.95 0 1.91.06 2.87.18M18.1 116.23l.54.12 1.37.31 1.28.29.08.02 5.85 1.34 1.74.4c-.01.31 0 .62.01.94.02.45.06.89.12 1.33.14.96.37 1.9.72 2.8l-6.66 4.19-2.77 1.74a23.77 23.77 0 0 1-2.29-13.48Zm59.49 20.71c.38-.56.91-1.01 1.51-1.33.59-.32 1.25-.51 1.97-.51h8.63a9.5 9.5 0 0 0-4.71-4.56 9.5 9.5 0 0 0-7.35-.2c-2.4.92-4.29 2.71-5.34 5.05-.03.07-.06.15-.09.23-.18.44-.33.88-.45 1.33-.11.44-.2.88-.24 1.33a9.5 9.5 0 0 0 .58 4.46c.92 2.4 2.71 4.29 5.05 5.34 1.27.57 2.6.83 3.9.83 3.57 0 6.98-2.01 8.63-5.4h-8.61c-2.32 0-4.2-1.89-4.2-4.2 0-.36.06-.7.14-1.03.12-.48.31-.93.59-1.33Zm33.14 0c-.12-.45-.26-.9-.44-1.33-.02-.05-.03-.09-.05-.14a9.54 9.54 0 0 0-5.29-5.11 9.56 9.56 0 0 0-7.35.13 9.52 9.52 0 0 0-4.8 4.6h8.63c.71 0 1.38.2 1.97.51.6.32 1.13.77 1.51 1.33a4.43 4.43 0 0 1 .73 2.36c0 2.32-1.89 4.2-4.2 4.2h-8.62a9.52 9.52 0 0 0 5.1 4.73 9.57 9.57 0 0 0 7.35-.13 9.54 9.54 0 0 0 5.11-5.29c.58-1.47.78-3.02.61-4.55-.05-.45-.14-.89-.25-1.33Zm-2.14-106.98c0 .49.32.91.8 1.04 1.83.5 3.28 1.95 3.78 3.78.13.48.55.8 1.04.8s.91-.32 1.04-.79c.5-1.83 1.95-3.28 3.78-3.78.48-.13.8-.55.8-1.04s-.32-.91-.8-1.04a5.42 5.42 0 0 1-3.78-3.78 1.06 1.06 0 0 0-1.04-.79c-.49 0-.91.32-1.04.8a5.44 5.44 0 0 1-3.78 3.78c-.48.13-.8.55-.8 1.04ZM89.62 7.46c1.83.5 3.28 1.95 3.78 3.78.13.48.55.79 1.04.79s.91-.32 1.04-.79c.5-1.83 1.95-3.28 3.78-3.78.48-.13.8-.55.8-1.04s-.32-.91-.8-1.04a5.42 5.42 0 0 1-3.78-3.78c-.13-.48-.55-.79-1.04-.79s-.91.32-1.04.8a5.42 5.42 0 0 1-3.78 3.78c-.48.13-.8.55-.8 1.04s.32.91.8 1.04Zm16.95 4.43c1.25 0 2.26-1.01 2.26-2.26s-1.01-2.26-2.26-2.26-2.26 1.01-2.26 2.26 1.01 2.26 2.26 2.26m7.92 6.37c.77 0 1.4-.63 1.4-1.4s-.63-1.4-1.4-1.4-1.4.63-1.4 1.4.63 1.4 1.4 1.4M97.32 22.8c0 1.55 1.25 2.8 2.8 2.8s2.8-1.25 2.8-2.8-1.25-2.8-2.8-2.8-2.8 1.25-2.8 2.8" style="fill:#2dc5f4"/></svg>