<svg xmlns="http://www.w3.org/2000/svg" viewBox="0 0 150 150"><path d="M83.34 91.25v-6.37c0-.67.54-1.21 1.21-1.21h4.61c.67 0 1.21.54 1.21 1.21v6.37" style="stroke:#208eb0;stroke-linecap:round;stroke-linejoin:round;fill:#2dc5f4"/><path d="M98.62 56.82c-1.32-9.98-6.3-18.3-14.66-22.54-10.53-5.35-22.59-3.55-32.94 1.29-.53.25-1.05.5-1.57.76" style="stroke-linecap:round;stroke-linejoin:round;fill:none;stroke:#fcee20;stroke-width:10.39px"/><path d="M108.75 58.85c-.18-2.5-1.83-21.07-17.62-31.77-14.16-9.6-33.87-8.91-49.06 2.01" style="stroke-linecap:round;stroke-linejoin:round;fill:none;stroke:#9253a1;stroke-width:12.83px"/><path d="M118.86 57.79c-.9-3.31-.82-22.52-17.85-36.87C85.47 7.84 60.88 5.8 42.05 16.86" style="stroke-linecap:round;stroke-linejoin:round;fill:none;stroke:#f063a4;stroke-width:11px"/><path d="M93.24 55.41S88.53 27.3 57.31 38.49M49.64 6.95c2.2-.78 28.97-9.81 52.13 7.36 19.25 14.27 21.68 36.02 22.01 39.55" style="stroke:#208eb0;stroke-linecap:round;stroke-linejoin:round;fill:none"/><path d="m120.55 89.22 2.49-29.73-28.87 1.02 4.11 29.73" style="stroke:#208eb0;stroke-linejoin:round;fill:#2dc5f4"/><path d="m114.67 135.39-5.38-15.46-43.69.59.31 17.93h47.86z" style="stroke:#208eb0;stroke-linecap:round;stroke-linejoin:round;fill:#2dc5f4"/><path d="m105.62 123.09 10.12 21.26h21.72l-13.7-21.26m-48-31.52 47.01-2.04 4.67 15.76-3.68 17.8H73.05m19.21-59.85-2.28-7.74 37.46-1.02-2.04 7.74z" style="stroke:#208eb0;stroke-linecap:round;stroke-linejoin:round;fill:#2dc5f4"/><path d="m98.93 97.24.65 19.3m5.4-19.3.64 19.3m5.4-19.3.64 19.3m5.4-19.3.64 19.3" style="stroke:#208eb0;stroke-linecap:round;stroke-linejoin:round;fill:none;stroke-width:2.04px"/><path d="m65.09 51.35-1.17-7.15 7.13-2.52-.25 9.63" style="stroke:#208eb0;stroke-linecap:round;stroke-linejoin:round;fill:#2dc5f4"/><path d="M33.52 48.07c-.97 0-1.93-.15-2.84-.43-4-1.27-6.73-5.01-6.79-9.32 0-.4-.25-.77-.63-.92-.4-.16-.73-.34-1.01-.56-1.16-.9-1.76-2.32-1.61-3.81.05-.48-.25-.93-.72-1.07-1.85-.53-3.25-1.47-4.17-2.79-1.82-2.61-2.02-6.33-.51-9.5 2.08-4.35 6.75-5.9 10.42-5.9.81 0 1.62.07 2.4.21a.97.97 0 0 0 .83-.22c.23-.2.36-.49.35-.79-.01-.39 0-.72.03-1.04.44-4.65 4.63-7.75 8.33-8.67.22-.05 1.36-.32 2.9-.32 2.31 0 5.56.6 7.91 3.47 2.43 2.95 2.93 7.05 1.31 10.68-.15.34-.1.73.13 1.02a5.75 5.75 0 0 1 1.04 5.12c-.13.47.1.97.54 1.17 1.61.75 3.83 2.18 5.2 4.78 2.15 4.07 1.32 9.45-2.04 13.07-2.99 3.23-6.98 3.71-9.09 3.71-.85 0-1.45-.08-1.67-.11-.84-.13-1.69-.35-2.5-.66a.98.98 0 0 0-1.04.2c-1.84 1.71-4.3 2.68-6.77 2.68" style="fill:#fff"/><path d="M23.91 37.82c-.16 4.47 2.65 8.49 6.77 9.8 3.51 1.11 7.39.08 9.98-2.61m5.94-17.55c3.07-.77 5.01-3.87 4.35-6.97-.66-3.09-3.69-5.13-6.8-4.59" style="stroke:#208eb0;stroke-linecap:round;stroke-linejoin:round;fill:none"/><path d="M49.49 17.55c1.86-3.69 1.42-8.07-1.09-11.13-3.89-4.73-10.25-3.27-10.8-3.14-3.68.91-7.87 3.99-8.31 8.65-.35 3.73 1.87 6.52 2.47 7.22m-2.67-4.81c-5.09-1.38-11.33.38-13.73 5.39-1.4 2.92-1.39 6.66.5 9.37 1.41 2.02 3.73 2.7 4.87 2.94m14.81 8.68c.53.73 3.28 4.35 8.29 5.11.58.09 6.58.9 10.74-3.59 3.11-3.36 4.32-8.73 2.04-13.05-1.76-3.33-4.89-4.69-5.95-5.1" style="stroke:#208eb0;stroke-linecap:round;stroke-linejoin:round;fill:none"/><path d="M28.18 36.06c-1.42 1.84-4.07 2.19-5.91.77s-2.19-4.07-.77-5.91" style="stroke:#208eb0;stroke-linecap:round;stroke-linejoin:round;fill:none"/><path d="m77.13 51.08-3.06 72.01H28.29l-6.12-63.71-2.93-5.4z" style="stroke:#208eb0;stroke-linecap:round;stroke-linejoin:round;fill:#2dc5f4"/><path d="m68.01 94.12 2.04-35.34-39.78 1.88 3.22 31.65s17.38-5.74 34.52 1.81" style="stroke:#208eb0;stroke-linecap:round;stroke-linejoin:round;fill:#fff"/><circle cx="47.59" cy="122.61" r="24.21" style="stroke:#208eb0;fill:#fff;stroke-width:5.61px;stroke-miterlimit:10"/><path d="m42.54 144.72 10.1-44.23m17.07 27.16-44.23-10.09m34.18 24.25L35.52 103.4m31.28 7.14-38.41 24.14" style="stroke:#208eb0;stroke-linecap:round;stroke-linejoin:round;fill:none;stroke-width:4.49px"/><circle cx="81.83" cy="140.55" r="7.51" style="stroke:#208eb0;fill:#fff;stroke-miterlimit:10;stroke-width:2.04px"/><circle cx="99.91" cy="140.55" r="7.51" style="stroke:#208eb0;fill:#fff;stroke-miterlimit:10;stroke-width:2.04px"/><path d="m78.76 147.4 6.13-13.71m-.38 13.87-5.36-14.03m9.53 10.08-13.71-6.13m13.87.39-14.03 5.36m28.09 4.2-5.98-13.77m9.98 9.64-13.98-5.5m13.88-.25-13.78 5.99m9.64-9.98-5.5 13.97" style="stroke:#208eb0;fill:none;stroke-miterlimit:10;stroke-width:2.04px"/><path d="M99.91 143.1H81.83c-1.41 0-2.55-1.14-2.55-2.55s1.14-2.55 2.55-2.55h18.08c1.41 0 2.55 1.14 2.55 2.55s-1.14 2.55-2.55 2.55" style="stroke:#208eb0;stroke-linecap:round;stroke-linejoin:round;fill:#2dc5f4"/><circle cx="47.59" cy="122.61" r="10.42" style="stroke:#208eb0;stroke-linecap:round;stroke-linejoin:round;fill:#2dc5f4"/></svg>