<?xml version="1.0" encoding="UTF-8"?><svg id="a" xmlns="http://www.w3.org/2000/svg" viewBox="0 0 150 150"><defs><style>.b,.c,.d,.e,.f,.g,.h,.i,.j{stroke:#208eb0;}.b,.c,.d,.k,.l,.m,.g,.i{stroke-linecap:round;}.b,.c,.d,.k,.l,.m,.g,.i,.j{stroke-linejoin:round;}.b,.j{fill:#2dc5f4;}.c,.e,.n,.f{fill:#fff;}.d,.k,.l,.m,.g,.h,.i{fill:none;}.e{stroke-width:5.61px;}.e,.f,.h{stroke-miterlimit:10;}.k{stroke:#9253a1;stroke-width:12.83px;}.l{stroke:#fcee20;stroke-width:10.39px;}.f,.g,.h{stroke-width:2.04px;}.m{stroke:#f063a4;stroke-width:11px;}.i{stroke-width:4.49px;}</style></defs><path class="b" d="M83.34,91.25v-6.37c0-.67,.54-1.21,1.21-1.21h4.61c.67,0,1.21,.54,1.21,1.21v6.37"/><path class="l" d="M98.62,56.82c-1.32-9.98-6.3-18.3-14.66-22.54-10.53-5.35-22.59-3.55-32.94,1.29-.53,.25-1.05,.5-1.57,.76"/><path class="k" d="M108.75,58.85c-.18-2.5-1.83-21.07-17.62-31.77-14.16-9.6-33.87-8.91-49.06,2.01"/><path class="m" d="M118.86,57.79c-.9-3.31-.82-22.52-17.85-36.87-15.54-13.08-40.13-15.12-58.96-4.06"/><path class="d" d="M93.24,55.41s-4.71-28.11-35.93-16.92"/><path class="d" d="M49.64,6.95c2.2-.78,28.97-9.81,52.13,7.36,19.25,14.27,21.68,36.02,22.01,39.55"/><polyline class="j" points="120.55 89.22 123.04 59.49 94.17 60.51 98.28 90.24"/><polygon class="b" points="114.67 135.39 109.29 119.93 65.6 120.52 65.91 138.45 113.77 138.45 114.67 135.39"/><polyline class="b" points="105.62 123.09 115.74 144.35 137.46 144.35 123.76 123.09"/><polyline class="b" points="75.76 91.57 122.77 89.53 127.44 105.29 123.76 123.09 73.05 123.09"/><polygon class="b" points="92.26 63.24 89.98 55.5 127.44 54.48 125.4 62.22 92.26 63.24"/><line class="g" x1="98.93" y1="97.24" x2="99.58" y2="116.54"/><line class="g" x1="104.98" y1="97.24" x2="105.62" y2="116.54"/><line class="g" x1="111.02" y1="97.24" x2="111.66" y2="116.54"/><line class="g" x1="117.06" y1="97.24" x2="117.7" y2="116.54"/><polyline class="b" points="65.09 51.35 63.92 44.2 71.05 41.68 70.8 51.31"/><path class="n" d="M33.52,48.07c-.97,0-1.93-.15-2.84-.43-4-1.27-6.73-5.01-6.79-9.32,0-.4-.25-.77-.63-.92-.4-.16-.73-.34-1.01-.56-1.16-.9-1.76-2.32-1.61-3.81,.05-.48-.25-.93-.72-1.07-1.85-.53-3.25-1.47-4.17-2.79-1.82-2.61-2.02-6.33-.51-9.5,2.08-4.35,6.75-5.9,10.42-5.9,.81,0,1.62,.07,2.4,.21,.06,.01,.12,.02,.18,.02,.24,0,.47-.08,.65-.24,.23-.2,.36-.49,.35-.79-.01-.39,0-.72,.03-1.04,.44-4.65,4.63-7.75,8.33-8.67,.22-.05,1.36-.32,2.9-.32,2.31,0,5.56,.6,7.91,3.47,2.43,2.95,2.93,7.05,1.31,10.68-.15,.34-.1,.73,.13,1.02,.56,.72,.94,1.51,1.12,2.37,.19,.91,.17,1.83-.08,2.75-.13,.47,.1,.97,.54,1.17,1.61,.75,3.83,2.18,5.2,4.78,2.15,4.07,1.32,9.45-2.04,13.07-2.99,3.23-6.98,3.71-9.09,3.71-.85,0-1.45-.08-1.67-.11-.84-.13-1.69-.35-2.5-.66-.12-.04-.24-.07-.36-.07-.25,0-.49,.09-.68,.27-1.84,1.71-4.3,2.68-6.77,2.68Z"/><g><path class="d" d="M23.91,37.82c-.16,4.47,2.65,8.49,6.77,9.8,3.51,1.11,7.39,.08,9.98-2.61"/><path class="d" d="M46.6,27.46c3.07-.77,5.01-3.87,4.35-6.97-.66-3.09-3.69-5.13-6.8-4.59"/><path class="d" d="M49.49,17.55c1.86-3.69,1.42-8.07-1.09-11.13-3.89-4.73-10.25-3.27-10.8-3.14-3.68,.91-7.87,3.99-8.31,8.65-.35,3.73,1.87,6.52,2.47,7.22"/><path class="d" d="M29.09,14.34c-5.09-1.38-11.33,.38-13.73,5.39-1.4,2.92-1.39,6.66,.5,9.37,1.41,2.02,3.73,2.7,4.87,2.94"/><path class="d" d="M35.54,40.72c.53,.73,3.28,4.35,8.29,5.11,.58,.09,6.58,.9,10.74-3.59,3.11-3.36,4.32-8.73,2.04-13.05-1.76-3.33-4.89-4.69-5.95-5.1"/><path class="d" d="M28.18,36.06c-1.42,1.84-4.07,2.19-5.91,.77s-2.19-4.07-.77-5.91"/></g><polygon class="b" points="77.13 51.08 74.07 123.09 28.29 123.09 22.17 59.38 19.24 53.98 77.13 51.08"/><path class="c" d="M68.01,94.12l2.04-35.34-39.78,1.88,3.22,31.65s17.38-5.74,34.52,1.81Z"/><circle class="e" cx="47.59" cy="122.61" r="24.21"/><g><line class="i" x1="42.54" y1="144.72" x2="52.64" y2="100.49"/><line class="i" x1="69.71" y1="127.65" x2="25.48" y2="117.56"/><line class="i" x1="59.66" y1="141.81" x2="35.52" y2="103.4"/><line class="i" x1="66.8" y1="110.54" x2="28.39" y2="134.68"/></g><circle class="f" cx="81.83" cy="140.55" r="7.51"/><circle class="f" cx="99.91" cy="140.55" r="7.51"/><g><line class="h" x1="78.76" y1="147.4" x2="84.89" y2="133.69"/><line class="h" x1="84.51" y1="147.56" x2="79.15" y2="133.53"/><line class="h" x1="88.68" y1="143.61" x2="74.97" y2="137.48"/><line class="h" x1="88.84" y1="137.87" x2="74.81" y2="143.23"/></g><g><line class="h" x1="102.9" y1="147.43" x2="96.92" y2="133.66"/><line class="h" x1="106.9" y1="143.3" x2="92.92" y2="137.8"/><line class="h" x1="106.8" y1="137.55" x2="93.02" y2="143.54"/><line class="h" x1="102.66" y1="133.56" x2="97.16" y2="147.53"/></g><path class="b" d="M99.91,143.1h-18.08c-1.41,0-2.55-1.14-2.55-2.55s1.14-2.55,2.55-2.55h18.08c1.41,0,2.55,1.14,2.55,2.55s-1.14,2.55-2.55,2.55Z"/><circle class="b" cx="47.59" cy="122.61" r="10.42"/></svg>