<svg data-name="Layer 1" xmlns="http://www.w3.org/2000/svg" viewBox="0 0 150 150"><path d="M85.78 48.63a1.37 1.37 0 0 0 1.26.85l2-.06 4.12 30.69 1.34-.06 1.34-.05 22.44-1 1.33-.06 1.39-.04 2.82-30.5 2.2-.07a1.35 1.35 0 0 0 1.22-.85l2.53-6.31a1.35 1.35 0 0 0-.14-1.28 1.34 1.34 0 0 0-1.15-.59l-44 1.15a1.34 1.34 0 0 0-1.1.61 1.38 1.38 0 0 0-.13 1.26ZM96.78 128.61a11.59 11.59 0 0 1 8.92-.16 12 12 0 0 1 2 1.05l-3.26-6.85-29 .17a35.77 35.77 0 0 1-.64 3.77 31.43 31.43 0 0 1-1.07 3.62 11.76 11.76 0 0 1 3.14-1.8 11.64 11.64 0 0 1 14.34 5.24 11.54 11.54 0 0 1 5.57-5.04ZM141 142.85l-13.1-20.34h-21.35l6.18 13 .63 1.33.64 1.33 2.79 5.88a1.35 1.35 0 0 0 1.21.76h21.9a1.34 1.34 0 0 0 1.12-2.06Z" style="fill:#2dc5f4"/><path d="M16.77 96.86c.39-.45.8-.88 1.21-1.3s.81-.8 1.23-1.18a33.6 33.6 0 0 1 52 8c.28.49.55 1 .8 1.48.15.3.29.6.43.9.45 1 .85 1.92 1.21 2.91a33.05 33.05 0 0 1 1.78 7.53q.08.58.12 1.17a.92.92 0 0 1 0 .16c0 .44.06.88.07 1.33v1.71c0 .44 0 .89-.05 1.34l28-.17h24.82a1.23 1.23 0 0 0 .39-.07 1.33 1.33 0 0 0 .91-1l4.14-20a1.31 1.31 0 0 0 0-.68l-5.65-17.42a1.32 1.32 0 0 0-1.32-.92l-52.12 2.13.08-1.87 1.8-42.29a1.32 1.32 0 0 0-1.4-1.39L10 40.5a1.34 1.34 0 0 0-1.11 2l3.17 5.84Zm91.74 15.37a1.16 1.16 0 0 1-1.11 1.19 1.15 1.15 0 0 1-1.15-1.11l-.72-21.73a1.14 1.14 0 0 1 1.11-1.19 1.18 1.18 0 0 1 1.19 1.11Zm-6.8 0a1.15 1.15 0 0 1-1.11 1.19 1.15 1.15 0 0 1-1.15-1.11l-.72-21.73a1.15 1.15 0 0 1 1.11-1.19A1.15 1.15 0 0 1 101 90.5Zm10.58-21.65a1.15 1.15 0 0 1 1.11-1.19 1.17 1.17 0 0 1 1.19 1.11l.72 21.73a1.16 1.16 0 0 1-1.11 1.19 1.15 1.15 0 0 1-1.15-1.11Zm6.8 0a1.15 1.15 0 0 1 1.11-1.19 1.18 1.18 0 0 1 1.19 1.11l.72 21.73a1.16 1.16 0 0 1-1.11 1.19 1.16 1.16 0 0 1-1.15-1.11ZM66.15 48.39l-2 34a56.94 56.94 0 0 0-21.3-4 65.71 65.71 0 0 0-16.09 2l-3.05-30Z" style="fill:#2dc5f4"/><path d="M72.21 122.83c.08-.62.13-1.24.17-1.87a.37.37 0 0 0 0-.11V117.94c0-.44 0-.89-.08-1.33a1.1 1.1 0 0 0 0-.18c0-.38-.07-.77-.11-1.15s-.1-.61-.14-.91a31.37 31.37 0 0 0-.66-3.09c-.15-.55-.3-1.09-.48-1.62a30.39 30.39 0 0 0-51.32-11.1c-.41.45-.82.91-1.2 1.39s-.81 1-1.19 1.56a30.4 30.4 0 0 0 48.39 36.76c.35-.43.69-.88 1-1.33s.64-.88.94-1.33a30.27 30.27 0 0 0 4.11-9.75 29.13 29.13 0 0 0 .57-3.03Zm-10.95 10.75a24.13 24.13 0 0 1-4.35 4.42l-1.74-2.77L51 128.6a12.93 12.93 0 0 0 3-4.19l7.18 1.64.51.11.83.19 1.33.31 1 .23a24.29 24.29 0 0 1-1 2.41 24.71 24.71 0 0 1-1.29 2.38c-.41.66-.84 1.32-1.3 1.9ZM39.16 143l.73-3.19 1.75-7.69h.39a12.91 12.91 0 0 0 4.67-.88l4.19 6.76 1.74 2.77A24 24 0 0 1 39.16 143Zm-16.08-9 2.78-1.75 6.66-4.18a13 13 0 0 0 4.19 3L35 138.7l-.73 3.2a24 24 0 0 1-11.19-7.9Zm-3.64-23.24a27.4 27.4 0 0 1 1.1-2.54 24.08 24.08 0 0 1 6.6-8l1.74 2.77 4.19 6.66a12.93 12.93 0 0 0-3 4.19L22.42 112l-1.55-.35-1.37-.32-.26-.06c.06-.15.13-.34.2-.52ZM61 104.22 58.19 106l-6.66 4.18a12.82 12.82 0 0 0-4.19-3l1.75-7.68.73-3.19A23.93 23.93 0 0 1 61 104.22Zm4.86 11.15c.07.44.12.88.17 1.33s.07.88.09 1.33a2.62 2.62 0 0 0 0 .28v1.33c0 .44-.06.89-.09 1.33s0 .66-.08 1l-2.24-.52-1-.21-.38-.09-.77-.18-.57-.13-5.26-1.2-.7-.16v-1.17a13.06 13.06 0 0 0-.84-3.89l6.66-4.18 2.77-1.75a24.11 24.11 0 0 1 2.2 6.88ZM52.24 121c0 .15 0 .29-.07.44a10.41 10.41 0 0 1-9.92 8.07 10 10 0 0 1-2.54-.25 10.45 10.45 0 0 1-4.87-2.63 10.63 10.63 0 0 1-1.62-2 10.28 10.28 0 0 1-1.07-2.31 8.92 8.92 0 0 1-.35-1.32 9.84 9.84 0 0 1-.15-1.33v-.32a8.52 8.52 0 0 1 0-1 10.07 10.07 0 0 1 .22-1.53 10.36 10.36 0 0 1 2.64-4.87 10 10 0 0 1 2-1.62 10.74 10.74 0 0 1 2.31-1.07 10.49 10.49 0 0 1 3-.51h.2a10.29 10.29 0 0 1 2.33.27 10.6 10.6 0 0 1 4.87 2.64 10.6 10.6 0 0 1 3.19 6.71v.57a6.43 6.43 0 0 1 0 .76 10.05 10.05 0 0 1-.17 1.3ZM44.9 95.17l-.73 3.19-1.75 7.64a12.72 12.72 0 0 0-5.07.86l-4.19-6.66-1.73-2.75A24 24 0 0 1 42 95a25.56 25.56 0 0 1 2.9.17Zm-26.8 21.06.54.12 1.37.31 1.29.3h.08l5.85 1.33 1.74.4v.93a11.74 11.74 0 0 0 .13 1.33 12.48 12.48 0 0 0 .72 2.81L23.17 128l-2.78 1.74a23.94 23.94 0 0 1-2.29-13.51ZM77.59 136.94a4.29 4.29 0 0 1 1.51-1.33 4.09 4.09 0 0 1 2-.51h8.6a9.6 9.6 0 0 0-17.4.28c0 .07 0 .15-.09.23a9 9 0 0 0-.44 1.33 10 10 0 0 0-.25 1.33 9.64 9.64 0 0 0 .58 4.46 9.59 9.59 0 0 0 17.58.77h-8.61a4.21 4.21 0 0 1-4.2-4.2 3.88 3.88 0 0 1 .14-1 4.17 4.17 0 0 1 .58-1.36ZM110.73 136.94a10.36 10.36 0 0 0-.44-1.33c0-.05 0-.1-.05-.14a9.6 9.6 0 0 0-17.44-.37h8.63a4.12 4.12 0 0 1 2 .51 4.18 4.18 0 0 1 1.5 1.33 4 4 0 0 1 .59 1.33 4.34 4.34 0 0 1 .14 1 4.21 4.21 0 0 1-4.2 4.2h-8.65a9.6 9.6 0 0 0 18.19-5.2 10 10 0 0 0-.27-1.33ZM108.59 30a1.07 1.07 0 0 0 .79 1 5.42 5.42 0 0 1 3.78 3.78 1.08 1.08 0 0 0 1 .8 1.07 1.07 0 0 0 1-.8A5.45 5.45 0 0 1 119 31a1.08 1.08 0 0 0 0-2.08 5.47 5.47 0 0 1-3.78-3.78 1.07 1.07 0 0 0-1-.8 1.07 1.07 0 0 0-1 .8 5.43 5.43 0 0 1-3.78 3.78 1.07 1.07 0 0 0-.85 1.08ZM89.62 7.46a5.42 5.42 0 0 1 3.78 3.78 1.08 1.08 0 0 0 2.08 0 5.45 5.45 0 0 1 3.78-3.78 1.08 1.08 0 0 0 0-2.08 5.45 5.45 0 0 1-3.78-3.78 1.08 1.08 0 0 0-2.08 0 5.42 5.42 0 0 1-3.78 3.78 1.08 1.08 0 0 0 0 2.08ZM106.57 11.89a2.26 2.26 0 1 0-2.26-2.26 2.27 2.27 0 0 0 2.26 2.26ZM114.49 18.26a1.4 1.4 0 1 0-1.4-1.4 1.4 1.4 0 0 0 1.4 1.4ZM97.32 22.8a2.8 2.8 0 1 0 2.8-2.8 2.8 2.8 0 0 0-2.8 2.8Z" style="fill:#2dc5f4"/></svg>