<svg xmlns="http://www.w3.org/2000/svg" viewBox="0 0 150 150"><defs><clipPath id="a"><path style="fill:none" d="M-3.98 39.4h157.96V150H-3.98z"/></clipPath></defs><g style="clip-path:url(#a)"><path style="fill:#f89e4f;stroke:#593314;stroke-linejoin:round" d="m67.91 46.4 35.88 62.23 35.89 62.22-71.83-.03-71.83-.03 35.94-62.2L67.91 46.4z"/><path d="M77.3 101.48c.09 8.45 2.76 15.27 5.97 15.24 3.21-.03 5.75-6.91 5.66-15.36-.09-8.45-2.76-12.41-5.97-12.38s-5.75 4.05-5.66 12.5Z" style="fill:#593314"/><ellipse cx="60.74" cy="101.65" rx="5.82" ry="15.3" transform="rotate(-.59 60.66 101.31)" style="fill:#593314"/><path d="M70.47 66.53s11.94-11.61 14.93-8.27c2.43 2.72-8.75 9.62-8.48 10.02s14.26-9.85 16.73-5.54c2.21 3.84-11.55 9.49-10.89 10.57s9.5-3.73 10.79-1.31c.92 1.73-1.24 4.3-7.9 5.72" style="fill:#f89e4f;stroke:#593214;stroke-linejoin:round;stroke-linecap:round"/><ellipse cx="59.37" cy="94.01" rx="1.99" ry="3.46" transform="rotate(-.59 59.724 94.507)" style="fill:#fff"/><ellipse cx="81.86" cy="93.78" rx="1.99" ry="3.46" transform="rotate(-.59 82.064 93.651)" style="fill:#fff"/><path d="M53.41 83.14s4.03-8.24 10.48-4.1M76.69 89.31H88.8" style="stroke:#593314;stroke-linejoin:round;stroke-linecap:round;fill:none"/><ellipse cx="83.29" cy="114.22" rx="8.32" ry="5.03" style="fill:#f89e4f"/><path style="stroke:#593314;stroke-linejoin:round;stroke-linecap:round;fill:none" d="m71.96 117.54 14.37-3"/><path d="M78.61 125.59a7.73 7.73 0 0 0 1.03 5.07c22.84 38.25 28.55 88.32 28.6 88.82a7.785 7.785 0 0 0 8.59 6.89 7.794 7.794 0 0 0 6.9-8.59c-.24-2.18-6.1-53.89-30.72-95.12-2.21-3.69-6.99-4.9-10.68-2.7a7.759 7.759 0 0 0-3.72 5.61Z" style="fill:#c5c6c8;stroke:#909395;stroke-linejoin:round"/></g></svg>