<svg id="Layer_1" data-name="Layer 1" xmlns="http://www.w3.org/2000/svg" xmlns:xlink="http://www.w3.org/1999/xlink" viewBox="0 0 150 150"><defs><style>.cls-1,.cls-7{fill:none;}.cls-2{clip-path:url(#clip-path);}.cls-3,.cls-5,.cls-8{fill:#f89e4f;}.cls-3,.cls-7{stroke:#593314;}.cls-3,.cls-5,.cls-7,.cls-9{stroke-linejoin:round;}.cls-4{fill:#593314;}.cls-5{stroke:#593214;}.cls-5,.cls-7{stroke-linecap:round;}.cls-6{fill:#fff;}.cls-9{fill:#c5c6c8;stroke:#909395;}</style><clipPath id="clip-path"><rect class="cls-1" x="-3.98" y="39.4" width="157.96" height="110.6"/></clipPath></defs><g class="cls-2"><polygon class="cls-3" points="67.91 46.4 103.79 108.63 139.68 170.85 67.85 170.82 -3.98 170.79 31.96 108.59 67.91 46.4"/><path class="cls-4" d="M77.3,101.48c.09,8.45,2.76,15.27,6,15.24s5.75-6.91,5.66-15.36S86.17,89,83,89,77.21,93,77.3,101.48Z"/><ellipse class="cls-4" cx="60.74" cy="101.65" rx="5.82" ry="15.3" transform="translate(-1.04 0.63) rotate(-0.59)"/><path class="cls-5" d="M70.47,66.53S82.41,54.92,85.4,58.26c2.44,2.72-8.74,9.62-8.48,10s14.25-9.85,16.73-5.54c2.21,3.84-11.55,9.49-10.89,10.57s9.5-3.73,10.79-1.31c.92,1.74-1.23,4.3-7.9,5.72"/><ellipse class="cls-6" cx="59.37" cy="94.01" rx="1.99" ry="3.46" transform="translate(-0.97 0.62) rotate(-0.59)"/><ellipse class="cls-6" cx="81.86" cy="93.78" rx="1.99" ry="3.46" transform="translate(-0.96 0.85) rotate(-0.59)"/><path class="cls-7" d="M53.41,83.14s4-8.23,10.49-4.09"/><line class="cls-7" x1="76.69" y1="89.31" x2="88.8" y2="89.31"/><ellipse class="cls-8" cx="83.29" cy="114.22" rx="8.32" ry="5.03"/><line class="cls-7" x1="71.96" y1="117.54" x2="86.33" y2="114.54"/><path class="cls-9" d="M78.61,125.59a7.8,7.8,0,0,0,1,5.07c22.84,38.25,28.55,88.32,28.61,88.82a7.79,7.79,0,0,0,15.49-1.69c-.24-2.18-6.11-53.89-30.72-95.12a7.79,7.79,0,0,0-14.4,2.92Z"/></g></svg>