<?xml version="1.0" encoding="UTF-8"?><svg id="a" xmlns="http://www.w3.org/2000/svg" viewBox="0 0 150 150"><defs><style>.b,.c{stroke:#593214;stroke-linecap:round;}.b,.d,.e{stroke-linejoin:round;}.b,.e{fill:#f89e4f;}.f{fill:#fff;}.g{fill:#593214;}.c{fill:none;stroke-miterlimit:10;}.d{fill:#c5c6c8;stroke:#909395;}.e{stroke:#593314;}</style></defs><g><path class="d" d="M100.41,128.8c1.88-.12,3.41-1.63,3.53-3.56,1.5-25.84-1.18-46.82-1.3-47.7-.27-2.07-2.17-3.53-4.24-3.26-2.07,.27-3.54,2.17-3.26,4.24,.03,.21,2.71,21.19,1.25,46.28-.12,2.09,1.47,3.88,3.56,4,.16,0,.32,0,.47,0Z"/><path class="d" d="M49.78,128.8c-1.88-.11-3.43-1.6-3.56-3.53-1.73-25.83,.77-46.83,.88-47.71,.25-2.08,2.14-3.55,4.22-3.3,2.08,.25,3.55,2.14,3.3,4.22-.03,.21-2.52,21.21-.84,46.29,.14,2.09-1.44,3.89-3.53,4.03-.16,.01-.32,.01-.47,0Z"/></g><g><polygon class="d" points="56.45 149.3 72.87 149.3 68.88 143.05 68.88 81.81 61.3 81.81 61.3 142.96 56.45 149.3"/><polygon class="d" points="93.55 149.3 77.13 149.3 81.12 143.05 81.12 81.81 88.7 81.81 88.7 142.96 93.55 149.3"/></g><polygon class="e" points="75.82 1.44 99.4 42.28 122.97 83.11 75.82 83.11 28.67 83.11 52.24 42.28 75.82 1.44"/><path class="b" d="M70.37,32.22s11.84-11,13.59-7.8c1.3,2.37-5.78,5.54-5.67,5.79s9.43-4.34,10.44-1.54c.91,2.49-7.79,4.4-7.52,5.11s6.49-1.67,7.25-.21c1.3,2.5-6.97,2.39-5.92,4.48"/><g><ellipse class="g" cx="70.76" cy="52.21" rx="7.08" ry="3.15" transform="translate(18.15 122.67) rotate(-89.67)"/><ellipse class="f" cx="70.93" cy="49.39" rx="1.21" ry="2.11" transform="translate(-.08 .12) rotate(-.1)"/><ellipse class="g" cx="80.88" cy="52.21" rx="7.08" ry="3.15" transform="translate(28.21 132.79) rotate(-89.67)"/><ellipse class="f" cx="81.05" cy="49.39" rx="1.21" ry="2.11" transform="translate(-.08 .14) rotate(-.1)"/></g><path class="c" d="M95.73,47.28s.89,20.28-19.91,20.28c-20.8,0-19.91-20.28-19.91-20.28"/></svg>