<?xml version="1.0" encoding="UTF-8"?><svg id="a" xmlns="http://www.w3.org/2000/svg" viewBox="0 0 225 150"><defs><style>.b{fill:none;}.b,.c{stroke:#593214;stroke-linecap:round;}.b,.c,.d,.e{stroke-linejoin:round;}.c,.f,.e{fill:#f89e4f;}.g{fill:#fff;}.h{fill:#593314;}.d{fill:#c4c5c7;stroke:#8f9294;}.e{stroke:#593314;}</style></defs><path class="d" d="M214.3,79.16c-.37-.01-.74,.02-1.12,.1-33.58,7.15-66.59,1.25-66.92,1.19-2.58-.47-5.05,1.23-5.52,3.81-.47,2.58,1.23,5.05,3.81,5.53,1.42,.26,35.14,6.31,70.62-1.24,2.56-.55,4.2-3.07,3.65-5.63-.47-2.19-2.37-3.7-4.51-3.76Z"/><path class="d" d="M76.07,23.95c-1.04-2.41,.27-5.18,2.79-5.93,8.42-2.49,26.35-6.35,38.18,1.35,15.72,10.24,11.65,39.78,11.47,41.03l-8.71-1.25c1-6.99,1.58-26.45-7.56-32.41-8.48-5.52-23.32-2.59-30.88-.34-2.13,.64-4.41-.41-5.29-2.45h0Z"/><path class="d" d="M88.77,78.72c-26.56,3.84-52.33-1.19-61.86-3.35-4.92,4.41-20.83,6.78-20.83,6.78l20.51-17.64c10.48,6.35,34.27,9.79,56.45,6.79l5.73,7.42Z"/><path class="d" d="M102.07,101.72c1.43,.95,2.08,2.73,1.58,4.38-2.26,7.4-12.9,27.72-25.77,16.39-6.28-5.53-12.64-12.17-18.02-20.33-8.9-1.29-21.99-5.76-21.99-5.76l23.54-5.25c6.95,10.91,10.32,14.92,17.48,22.02,9.77,9.71,15.67-4.54,17.34-9.48,.82-2.42,3.73-3.39,5.85-1.97h0Z"/><polygon class="e" points="170.21 58.41 142.78 99.49 115.35 140.56 93.49 96.27 71.64 51.97 120.93 55.19 170.21 58.41"/><path class="c" d="M158.71,73.02s10.1,2.66,10.71-.08c.49-2.24-7.74-2.56-7.72-2.86s10.82,.99,10.85-2.13c.02-2.78-9.23-1.63-9.21-2.42s6.34-.89,6.3-2.61c-.03-1.23-1.51-1.15-3.59-1.01"/><ellipse class="h" cx="128.65" cy="80.13" rx="9.51" ry="4.49" transform="translate(-21.97 63.2) rotate(-25.51)"/><ellipse class="h" cx="134.16" cy="90.08" rx="9.51" ry="4.49" transform="translate(-25.71 66.55) rotate(-25.51)"/><ellipse class="f" cx="123.22" cy="79.51" rx="8.44" ry="4.5" transform="translate(17.25 180.88) rotate(-76.56)"/><g><path class="b" d="M121.82,70.19c1.9,6.69-2.22,13.72-9.21,15.71-6.99,1.99-14.2-1.82-16.1-8.5"/><path class="b" d="M123.97,97.69c-2.49-.85-5.29-.98-8.06-.2-2.77,.79-5.08,2.38-6.75,4.41"/><path class="b" d="M112.6,85.9s-3.39,7.23,3.3,11.6"/></g><ellipse class="g" cx="138.25" cy="89.9" rx="2.69" ry="1.51" transform="translate(-26.66 90.61) rotate(-33.28)"/><ellipse class="g" cx="133.08" cy="79.59" rx="2.69" ry="1.51" transform="translate(-21.85 86.08) rotate(-33.28)"/></svg>