<?xml version="1.0" encoding="UTF-8"?><svg id="a" xmlns="http://www.w3.org/2000/svg" viewBox="0 0 150 150"><defs><style>.b{fill:none;}.b,.c{stroke:#593214;stroke-linecap:round;}.b,.c,.d,.e{stroke-linejoin:round;}.c,.e{fill:#f89e4f;}.f{fill:#fff;}.g{fill:#593214;}.d{fill:#c5c6c8;stroke:#909395;}.e{stroke:#593314;}</style></defs><path class="d" d="M102.12,128.8c1.88-.12,3.41-1.63,3.53-3.56,1.5-25.84-1.18-46.82-1.3-47.7-.27-2.07-2.17-3.53-4.24-3.26-2.07,.27-3.54,2.17-3.26,4.24,.03,.21,2.71,21.19,1.25,46.28-.12,2.09,1.47,3.88,3.56,4,.16,0,.32,0,.47,0Z"/><path class="d" d="M51.5,128.8c-1.88-.11-3.43-1.6-3.56-3.53-1.73-25.83,.77-46.83,.88-47.71,.25-2.08,2.14-3.55,4.22-3.3,2.08,.25,3.55,2.14,3.3,4.22-.03,.21-2.52,21.21-.84,46.29,.14,2.09-1.44,3.89-3.53,4.03-.16,.01-.32,.01-.47,0Z"/><polygon class="d" points="58.96 149.3 75.38 149.3 71.39 143.05 71.39 81.81 63.82 81.81 63.82 142.96 58.96 149.3"/><polygon class="d" points="105.54 149.3 90.26 143.05 88.76 81.81 81.18 81.81 83.4 149.3 105.54 149.3"/><polygon class="e" points="75 1.44 98.58 42.28 122.15 83.11 75 83.11 27.85 83.11 51.42 42.28 75 1.44"/><path class="c" d="M82.15,24.51s15.41-4.88,15.63-1.25c.16,2.7-7.59,2.53-7.6,2.82s10.37,.11,10.1,3.07c-.25,2.64-8.93,.65-8.98,1.41s6.58,1.27,6.64,2.91c.11,2.82-7.32-.81-7.27,1.52"/><ellipse class="g" cx="75.28" cy="52.21" rx="7.08" ry="3.15" transform="translate(22.64 127.18) rotate(-89.67)"/><ellipse class="f" cx="76.04" cy="49.69" rx="1.21" ry="2.11" transform="translate(-.09 .13) rotate(-.1)"/><ellipse class="g" cx="85.4" cy="52.21" rx="7.08" ry="3.15" transform="translate(32.7 137.31) rotate(-89.67)"/><ellipse class="f" cx="86.17" cy="49.69" rx="1.21" ry="2.11" transform="translate(-.09 .15) rotate(-.1)"/><path class="b" d="M62.5,53.21s.95,20.63,20.05,16.04"/></svg>