<svg data-name="Layer 1" xmlns="http://www.w3.org/2000/svg" viewBox="0 0 150 150"><path class="cls-1" d="M78.33 75.65c7 9.86 22.86 35.42 35.53 56.34 4.46-1.88 15.48-7.08 15.48-7.08l-16.9 23.31C99.53 124 78.72 91.22 71.2 80.75a4.39 4.39 0 0 1 1.58-6.48 4.38 4.38 0 0 1 5.55 1.38ZM117.57 106.41a4.06 4.06 0 0 1-3.56-.48c-.88-.6-21.85-14.92-33-44.67a4.09 4.09 0 0 1 7.66-2.88C98.86 85.57 118.38 99 118.58 99.14a4.08 4.08 0 0 1 1.1 5.67 4 4 0 0 1-2.11 1.6Z" style="stroke-linejoin:round;fill:#c5c6c8;stroke:#909395"/><path class="cls-2" style="stroke:#593314;fill:#f89e4f;stroke-linejoin:round" d="m66.72.66 24.83 40.93 24.82 40.92-47.85 1.04-47.86 1.03 23.03-41.96L66.72.66z"/><path class="cls-1" d="M42 113.65a4.09 4.09 0 0 0 5.92-4.19c-2.86-21.13 12.86-49.13 13-49.41a4.09 4.09 0 0 0-7.12-4c-.7 1.24-17.24 30.67-14 54.55a4.1 4.1 0 0 0 2.2 3.05Z" style="stroke-linejoin:round;fill:#c5c6c8;stroke:#909395"/><path class="cls-3" d="M67.51 43.94S68.32 56.79 84.4 51" style="stroke-linecap:round;fill:none;stroke:#593314;stroke-linejoin:round"/><ellipse class="cls-4" cx="72.86" cy="38.35" rx="3.15" ry="7.08" transform="rotate(-2.89 72.815 38.331)" style="fill:#593214"/><ellipse class="cls-5" cx="71.82" cy="35.83" rx="2.11" ry="1.21" transform="matrix(.08 -1 1 .08 30.64 104.72)" style="fill:#fff"/><ellipse class="cls-4" cx="82.27" cy="38.35" rx="3.15" ry="7.08" transform="rotate(-2.89 82.335 38.373)" style="fill:#593214"/><ellipse class="cls-5" cx="81.22" cy="35.83" rx="2.11" ry="1.21" transform="rotate(-85.64 81.23 35.829)" style="fill:#fff"/><path class="cls-6" d="M67.77 32.34S67.21 29 70.08 28" style="stroke:#593214;stroke-linecap:round;fill:none;stroke-linejoin:round"/><path class="cls-7" d="M73.65 15.18s14.6-2.79 14.31 1c-.17 2.21-7.82.55-7.86 1.75 0 .29 10.66 1.27 10.48 4.29-.16 2.68-9.22-2.28-9.2.21 0 .77 7.41 2.42 6.17 4.44-1 1.61-3.2-1.11-6.82-.43" style="stroke:#593214;stroke-linecap:round;fill:#f89e4f;stroke-linejoin:round"/><path class="cls-1" d="M65.08 81.16c3 11.83 7.11 36.53-.14 59.71 4.06 2.62 14.38 8.66 14.38 8.66l-27.51-.21c12.67-25.88 8.67-49.64 4.24-65.77a4.67 4.67 0 0 1 4.52-5.9 4.65 4.65 0 0 1 4.51 3.51Z" style="stroke-linejoin:round;fill:#c5c6c8;stroke:#909395"/></svg>