<svg xmlns="http://www.w3.org/2000/svg" xmlns:xlink="http://www.w3.org/1999/xlink" viewBox="0 0 150 150"><defs><style>.cls-1,.cls-11,.cls-6,.cls-7{fill:none;}.cls-2{isolation:isolate;}.cls-3{fill:#c5c6c8;stroke:#909395;}.cls-3,.cls-4,.cls-5,.cls-6{stroke-linejoin:round;}.cls-4,.cls-5{fill:#f89e4f;}.cls-4{stroke:#593314;}.cls-5,.cls-6{stroke:#593214;}.cls-11,.cls-5,.cls-6,.cls-7{stroke-linecap:round;}.cls-7{stroke:#70327e;stroke-width:1.64px;}.cls-11,.cls-7{stroke-miterlimit:10;}.cls-11,.cls-8{mix-blend-mode:multiply;opacity:0.25;}.cls-9{fill:#855191;}.cls-10{fill:#70327e;}.cls-11{stroke:#855191;stroke-width:2.52px;}.cls-12{clip-path:url(#clip-path);}.cls-13{fill:#b78dc1;}.cls-14{fill:#ceb1d5;}.cls-15{clip-path:url(#clip-path-2);}</style><clipPath id="clip-path"><path class="cls-1" d="M91,44.42h14a1.75,1.75,0,0,1,1.75,1.75v5.78a8.18,8.18,0,0,1-8.18,8.18H97.45a8.18,8.18,0,0,1-8.18-8.18V46.16A1.75,1.75,0,0,1,91,44.42Z"/></clipPath><clipPath id="clip-path-2"><path class="cls-1" d="M68.59,44.42h14a1.75,1.75,0,0,1,1.75,1.75v5.78a8.18,8.18,0,0,1-8.18,8.18H75a8.18,8.18,0,0,1-8.18-8.18V46.16a1.75,1.75,0,0,1,1.75-1.75Z"/></clipPath></defs><g class="cls-2"><g id="Layer_1" data-name="Layer 1"><path class="cls-3" d="M106.67,128.65a3.79,3.79,0,0,0,3.23-3.83,280.19,280.19,0,0,0-5-47.45,3.79,3.79,0,0,0-7.41,1.57,277.14,277.14,0,0,1,4.87,46,3.79,3.79,0,0,0,3.86,3.71Z"/><path class="cls-3" d="M45,128.7a3.77,3.77,0,0,0,3.93-3.1,279.89,279.89,0,0,0,4.48-47.51,3.79,3.79,0,1,0-7.57.06,279,279,0,0,1-4.36,46.09,3.8,3.8,0,0,0,3,4.41Z"/><polygon class="cls-3" points="54.44 149.3 70.86 149.3 66.87 143.06 66.87 81.81 59.3 81.81 59.3 142.96 54.44 149.3"/><polygon class="cls-3" points="113.76 149.3 98.48 143.06 91.57 81.81 84 81.81 91.63 149.3 113.76 149.3"/><polygon class="cls-4" points="75 1.44 98.58 42.28 122.15 83.11 75 83.11 27.85 83.11 51.42 42.28 75 1.44"/><path class="cls-5" d="M82.15,24.51s15.41-4.88,15.62-1.25c.16,2.7-7.59,2.54-7.6,2.82s10.38.1,10.1,3.07c-.25,2.64-8.93.65-9,1.41s6.58,1.26,6.65,2.9c.1,2.82-7.33-.81-7.28,1.52"/><path class="cls-6" d="M61.86,53s3.55,18.86,26.25,11.4c8.35-2.74,6.4,1.64,6.4,1.64"/><path class="cls-7" d="M76.38,48.78a1.63,1.63,0,0,0-3,0"/><g class="cls-8"><path class="cls-9" d="M99,63.09h0a10,10,0,0,1-10-10V47.31a2.14,2.14,0,0,1,2.14-2.14H99c1.18,0,6.78,7.67,9.32,11.49A10,10,0,0,1,99,63.09Z"/></g><g class="cls-8"><path class="cls-9" d="M83.49,45.17H67.75a2.13,2.13,0,0,0-2.13,2.14v2.74c-1.6-2.14-3.45-4.55-3.74-4.59-.48-.05-10.41-5.12-10.52-1.76,0,0,10.47,5.48,14.31,10.42a10,10,0,0,0,10,9h0a10,10,0,0,0,10-10V47.31A2.14,2.14,0,0,0,83.49,45.17Z"/></g><path class="cls-10" d="M63.87,50.81c-2.2-1.79-15.3-12-16.28-6.18a.76.76,0,0,1-.88.69c-.81-.14-.62-1-.59-1.59.19-2.3,2.66-3.43,4.61-3.31,6,.37,11.09,3.08,16.31,5.71a2.84,2.84,0,1,1-3.17,4.68Z"/><path class="cls-11" d="M85.06,50.06s2-2.83,4.27.26"/><path class="cls-9" d="M98.63,60.12H97.45a8.18,8.18,0,0,1-8.18-8.18V46.16A1.74,1.74,0,0,1,91,44.42h14a1.74,1.74,0,0,1,1.74,1.74v5.78A8.17,8.17,0,0,1,98.63,60.12Z"/><g class="cls-12"><rect class="cls-13" x="92.34" y="37.91" width="4.13" height="23.01" transform="translate(64.97 -53) rotate(46.33)"/><rect class="cls-14" x="96.66" y="39.88" width="1.07" height="23.01" transform="translate(67.26 -54.4) rotate(46.33)"/></g><path class="cls-10" d="M105.06,44.42a1.74,1.74,0,0,1,1.74,1.74v5.78a8.17,8.17,0,0,1-8.17,8.18H97.45a8.18,8.18,0,0,1-8.18-8.18V46.16A1.74,1.74,0,0,1,91,44.42h14m0-1.52H91a3.27,3.27,0,0,0-3.26,3.26v5.78a9.7,9.7,0,0,0,9.69,9.69h1.18a9.7,9.7,0,0,0,9.69-9.69V46.16a3.27,3.27,0,0,0-3.26-3.26Z"/><path class="cls-9" d="M76.2,60.12H75a8.18,8.18,0,0,1-8.18-8.18V46.16a1.74,1.74,0,0,1,1.74-1.74h14a1.74,1.74,0,0,1,1.74,1.74v5.78A8.18,8.18,0,0,1,76.2,60.12Z"/><g class="cls-15"><rect class="cls-13" x="69.92" y="37.91" width="4.13" height="23.01" transform="translate(58.03 -36.78) rotate(46.33)"/><rect class="cls-14" x="74.23" y="39.88" width="1.07" height="23.01" transform="translate(60.32 -38.18) rotate(46.33)"/></g><path class="cls-10" d="M82.64,44.42a1.74,1.74,0,0,1,1.74,1.74v5.78a8.18,8.18,0,0,1-8.18,8.18H75a8.18,8.18,0,0,1-8.18-8.18V46.16a1.74,1.74,0,0,1,1.74-1.74h14m0-1.52h-14a3.27,3.27,0,0,0-3.26,3.26v5.78A9.71,9.71,0,0,0,75,61.63H76.2a9.71,9.71,0,0,0,9.7-9.69V46.16a3.27,3.27,0,0,0-3.26-3.26Z"/><path class="cls-7" d="M85.34,48.78a1.63,1.63,0,0,1,3,0"/></g></g></svg>