<svg id="Layer_1" data-name="Layer 1" xmlns="http://www.w3.org/2000/svg" viewBox="0 0 225 150"><defs><style>.cls-1{fill:#c4c5c7;stroke:#8f9294;}.cls-1,.cls-2,.cls-3,.cls-6{stroke-linejoin:round;}.cls-2,.cls-3,.cls-5{fill:#f89e4f;}.cls-2{stroke:#593314;}.cls-3,.cls-6{stroke:#593214;stroke-linecap:round;}.cls-4{fill:#593314;}.cls-6{fill:none;}.cls-7{fill:#fff;}</style></defs><path class="cls-1" d="M214.3,79.16a4.76,4.76,0,0,0-1.12.1c-33.58,7.15-66.59,1.25-66.92,1.19a4.75,4.75,0,0,0-1.72,9.34c1.42.26,35.14,6.31,70.62-1.24a4.75,4.75,0,0,0-.86-9.39Z"/><path class="cls-1" d="M76.07,24A4.38,4.38,0,0,1,78.86,18c8.42-2.49,26.35-6.35,38.18,1.35,15.72,10.23,11.65,39.78,11.47,41l-8.71-1.25c1-7,1.58-26.46-7.56-32.41-8.48-5.52-23.32-2.6-30.88-.34A4.38,4.38,0,0,1,76.07,24Z"/><path class="cls-1" d="M88.77,78.72c-26.56,3.85-52.33-1.18-61.86-3.34C22,79.78,6.08,82.16,6.08,82.16L26.59,64.52C37.07,70.87,60.86,74.31,83,71.31Z"/><path class="cls-1" d="M102.07,101.72a3.91,3.91,0,0,1,1.58,4.38c-2.27,7.4-12.9,27.72-25.78,16.39a102.75,102.75,0,0,1-18-20.34c-8.9-1.28-22-5.76-22-5.76L61.4,91.15c6.95,10.91,10.32,14.92,17.47,22,9.78,9.71,15.68-4.54,17.34-9.48a3.91,3.91,0,0,1,5.86-2Z"/><polygon class="cls-2" points="170.22 58.41 142.78 99.49 115.35 140.56 93.49 96.27 71.64 51.97 120.92 55.19 170.22 58.41"/><path class="cls-3" d="M158.71,73s10.1,2.66,10.7-.09c.49-2.23-7.74-2.56-7.72-2.85s10.82,1,10.85-2.13c0-2.78-9.24-1.63-9.21-2.42s6.34-.89,6.3-2.61c0-1.23-1.51-1.14-3.59-1"/><ellipse class="cls-4" cx="128.65" cy="80.13" rx="9.51" ry="4.49" transform="translate(-21.97 63.2) rotate(-25.51)"/><ellipse class="cls-4" cx="134.16" cy="90.08" rx="9.51" ry="4.49" transform="translate(-25.71 66.55) rotate(-25.51)"/><ellipse class="cls-5" cx="123.22" cy="79.51" rx="8.44" ry="4.5" transform="translate(17.25 180.88) rotate(-76.56)"/><path class="cls-6" d="M121.82,70.19c1.9,6.68-2.22,13.72-9.22,15.71a12.88,12.88,0,0,1-16.1-8.51"/><path class="cls-6" d="M124,97.69a13.57,13.57,0,0,0-14.82,4.22"/><path class="cls-6" d="M112.6,85.9s-3.38,7.23,3.31,11.59"/><ellipse class="cls-7" cx="138.25" cy="89.9" rx="2.69" ry="1.51" transform="translate(-26.66 90.61) rotate(-33.28)"/><ellipse class="cls-7" cx="133.08" cy="79.59" rx="2.69" ry="1.51" transform="translate(-21.85 86.08) rotate(-33.28)"/></svg>