<svg id="Layer_1" data-name="Layer 1" xmlns="http://www.w3.org/2000/svg" viewBox="0 0 225 150"><defs><style>.cls-1{fill:#c5c6c8;stroke:#909395;}.cls-1,.cls-10,.cls-2,.cls-4,.cls-6,.cls-8,.cls-9{stroke-linejoin:round;}.cls-2,.cls-4{fill:#f89e4f;}.cls-2,.cls-9{stroke:#593314;}.cls-3{fill:#593314;}.cls-4,.cls-6{stroke:#593214;}.cls-10,.cls-4,.cls-6,.cls-8,.cls-9{stroke-linecap:round;}.cls-5{fill:#fff;}.cls-10,.cls-6,.cls-8,.cls-9{fill:none;}.cls-7{fill:#f05124;}.cls-8{stroke:#c42f00;stroke-width:0.42px;}.cls-10{stroke:#2dc5f4;}</style></defs><path class="cls-1" d="M109.84,69.5C102,75,80.48,88.57,51.66,89.23,43.91,94.44,31.33,99.7,31.33,99.7L44.49,78.57a88.74,88.74,0,0,0,62.43-17.84"/><path class="cls-1" d="M202.89,65.42a5.05,5.05,0,0,0-3.33-.12c-27.38,8.49-59.56,4.48-59.88,4.44a5,5,0,0,0-1.29,9.94c1.4.18,34.63,4.35,64.14-4.81a5,5,0,0,0,.36-9.45Z"/><polygon class="cls-2" points="176.53 44.55 137.19 80.92 97.85 117.28 86.03 65.02 74.21 12.77 125.37 28.66 176.53 44.55"/><path class="cls-1" d="M189,17.8a5,5,0,0,0-1.7-.32c-1.41,0-34.9-.36-63.17,12.1a5,5,0,1,0,4,9.18c26.29-11.59,58.66-11.26,59-11.26A5,5,0,0,0,189,17.8Z"/><path class="cls-1" d="M101.52,41.24a6.15,6.15,0,0,1,4.2,7.72c-2.85,9.24-10,24-18.46,23.43C79.63,71.86,67,58.54,59.31,51.92A66,66,0,0,1,40.91,55L61.16,39.21c3.09,3.18,13.27,12.12,19.92,17.84,7.93,6.82,11.18-2.87,12.7-11a6.16,6.16,0,0,1,7.74-4.81Z"/><path class="cls-3" d="M135.22,51.72C130.5,55,130.49,57,131.74,58.8s3.29,2.7,8-.59,7.53-7.4,6.28-9.19S139.94,48.44,135.22,51.72Z"/><path class="cls-4" d="M158.69,56.86s14.41,8.29,15.48,4.21c.63-2.4-8.07-3.44-7.68-4.72.1-.31,11.75,2.56,12.66-.7.81-2.9-10.58-1-9.65-3.59.29-.81,8.72.15,8.15-2.44-.46-2.07-3.79,0-7.37-2"/><ellipse class="cls-5" cx="140" cy="55.27" rx="2.36" ry="1.36" transform="translate(-3.82 99.65) rotate(-38.69)"/><path class="cls-3" d="M142.23,60.89c-4.72,3.29-4.73,5.29-3.48,7.09s3.28,2.69,8-.59,7.53-7.4,6.28-9.2S146.94,57.61,142.23,60.89Z"/><ellipse class="cls-5" cx="147" cy="64.44" rx="2.36" ry="1.36" transform="translate(-8.02 106.04) rotate(-38.69)"/><path class="cls-6" d="M143.09,44s6.91-1.13,6.77,5.73"/><path class="cls-6" d="M156.33,67.07s5.26-4.62-.12-8.87"/><path class="cls-7" d="M119.85,61.42s7.05-.15,7.34-3.83-6.48-3.21-6.48-3.21-1.89,3.64-.86,7"/><line class="cls-8" x1="119.69" y1="57.56" x2="125.89" y2="57.61"/><path class="cls-9" d="M127.86,46S108.13,59.35,129,70.79c7.89,4.33-.37,7.23-.37,7.23"/><line class="cls-10" x1="58.87" y1="26.7" x2="71.57" y2="24.53"/><line class="cls-10" x1="53.15" y1="27.68" x2="58.87" y2="26.7"/><line class="cls-10" x1="46.31" y1="28.85" x2="49.18" y2="28.36"/><line class="cls-10" x1="145.73" y1="92.9" x2="158.43" y2="90.73"/><line class="cls-10" x1="137.94" y1="94.23" x2="141.95" y2="93.55"/><line class="cls-10" x1="133.18" y1="95.05" x2="134.27" y2="94.86"/><line class="cls-10" x1="23.44" y1="101.36" x2="27.42" y2="100.67"/><line class="cls-10" x1="18.94" y1="102.13" x2="19.54" y2="102.02"/><line class="cls-10" x1="30" y1="56.52" x2="36.84" y2="55.35"/><line class="cls-10" x1="25.09" y1="57.36" x2="27.06" y2="57.02"/><line class="cls-10" x1="20.85" y1="58.09" x2="21.47" y2="57.98"/><line class="cls-10" x1="82.14" y1="114.78" x2="91.39" y2="113.2"/><line class="cls-10" x1="75.33" y1="115.95" x2="78.23" y2="115.45"/><line class="cls-10" x1="69.67" y1="116.92" x2="71.3" y2="116.64"/></svg>