<svg xmlns="http://www.w3.org/2000/svg" viewBox="0 0 150 150"><defs><clipPath id="a"><path style="fill:none" d="M29.04 0h91.93v140.5H29.04z"/></clipPath><clipPath id="b"><path d="M54.53 44.89c17.3 11.87 19.61-4.74 26.02 2.63 6.14 7.06-6.07 27.02-19.47 16.98-7.73-5.79-10.69-20.55-6.55-19.61Z" style="fill:none"/></clipPath></defs><g style="clip-path:url(#a)"><path d="M57.27 38.72s-8.18-25.1-5.46-48.73" style="fill:#c5c6c8;stroke:#909395;stroke-width:1.66px;stroke-linejoin:round"/><path d="M55.15-12.12c.46.74.69 1.63.58 2.56-2.58 22.46 5.22 46.81 5.3 47.06a3.95 3.95 0 0 1-2.54 4.98c-2.08.68-4.31-.46-4.98-2.53-.35-1.06-8.42-26.2-5.63-50.41a3.949 3.949 0 0 1 4.38-3.47c1.24.14 2.28.84 2.89 1.82ZM57.08 74.78c-1.55 7.41-4.59 27.22 3.96 48.28-1.34 7.24-1.2 17.99-1.2 17.99L71 124.91c-13.34-24.26-7.71-46.33-6.66-50.77M73.98 72.46c-1.55 7.41-4.59 27.22 3.96 48.28-1.34 7.24-1.2 17.99-1.2 17.99l11.16-16.14c-13.34-24.26-7.71-46.33-6.66-50.77" style="fill:#c5c6c8;stroke:#909395;stroke-linejoin:round"/><path style="fill:#f89e4f;stroke:#593314;stroke-linejoin:round" d="M71.43 5.5 51.86 40.34 32.28 75.18l39.96-.46 39.96-.47-20.38-34.38L71.43 5.5z"/><ellipse cx="60.95" cy="35.61" rx="7.76" ry="2.95" transform="rotate(-68.57 60.957 35.607)" style="fill:#593314"/><ellipse cx="71.52" cy="39.75" rx="7.76" ry="2.95" transform="rotate(-68.57 71.527 39.752)" style="fill:#593314"/><path d="M71.68 17.47s-6.16-5.79-7.65-4.07c-1.21 1.4 4.52 4.81 4.39 5.01s-7.32-4.88-8.54-2.67c-1.09 1.97 5.94 4.72 5.62 5.27s-4.85-1.81-5.49-.57c-.45.89.63 1.39 2.16 2.1" style="fill:#f89e4f;stroke:#593214;stroke-linejoin:round;stroke-linecap:round"/><ellipse cx="56.3" cy="55.58" rx="4.77" ry="4.07" transform="rotate(-.67 56.115 55.915)" style="fill:#f89e4f"/><ellipse cx="67.91" cy="55.44" rx="4.77" ry="4.07" transform="rotate(-.67 68.087 55.985)" style="fill:#f89e4f"/><ellipse cx="71.32" cy="36.88" rx="1.76" ry="1.01" transform="rotate(-68.57 71.323 36.884)" style="fill:#fff"/><ellipse cx="60.7" cy="32.71" rx="1.76" ry="1.01" transform="rotate(-68.57 60.704 32.717)" style="fill:#fff"/><path d="M78.51 34.83s.61-4.61-3.28-4.67M55.22 27.58s-.72-4.6 3.17-4.75" style="stroke:#593314;stroke-linejoin:round;stroke-linecap:round;fill:none"/><path d="M54.53 44.89c17.3 11.87 19.61-4.74 26.02 2.63 6.14 7.06-6.07 27.02-19.47 16.98-7.73-5.79-10.69-20.55-6.55-19.61Z" style="fill:#593314"/><g style="clip-path:url(#b)"><path d="M82.98 56.74s-17.61-5.72-25.62 9.4c-1.92 3.63 9.53 8.13 11.21 7.89 5.74-.84 13.54-6.81 14.41-17.29Z" style="fill:#f05124"/></g><path d="M88.87-7.72s5.63 25.8.55 49.03" style="fill:#c5c6c8;stroke:#909395;stroke-width:1.66px;stroke-linejoin:round"/><path d="M92.21-9.83c.24.38.42.8.52 1.27.24 1.09 5.75 26.91.55 50.72a3.964 3.964 0 0 1-4.71 3.02 3.964 3.964 0 0 1-3.02-4.71c4.83-22.14-.5-47.1-.56-47.35-.47-2.13.89-4.24 3.02-4.7a3.98 3.98 0 0 1 4.19 1.75Z" style="fill:#c5c6c8;stroke:#909395;stroke-linejoin:round"/></g></svg>