<?xml version="1.0" encoding="UTF-8"?><svg id="a" xmlns="http://www.w3.org/2000/svg" xmlns:xlink="http://www.w3.org/1999/xlink" viewBox="0 0 150 150"><defs><style>.c,.d{fill:none;}.d,.e{stroke-linecap:round;}.d,.e,.f,.g{stroke-linejoin:round;}.d,.g{stroke:#593314;}.e{stroke:#593214;}.e,.h,.g{fill:#f89e4f;}.i{fill:#fff;}.j{fill:#593314;}.k{clip-path:url(#b);}.f{fill:#c5c6c8;stroke:#909395;}</style><clipPath id="b"><rect class="c" x="-3.98" y="39.4" width="157.96" height="110.6"/></clipPath></defs><g class="k"><g><polygon class="g" points="67.91 46.4 103.79 108.63 139.68 170.85 67.85 170.82 -3.98 170.79 31.96 108.59 67.91 46.4"/><g><path class="j" d="M77.3,101.48c.09,8.45,2.76,15.27,5.97,15.24,3.21-.03,5.75-6.91,5.66-15.36-.09-8.45-2.76-12.41-5.97-12.38s-5.75,4.05-5.66,12.5Z"/><ellipse class="j" cx="60.74" cy="101.65" rx="5.82" ry="15.3" transform="translate(-1.04 .63) rotate(-.59)"/></g><path class="e" d="M70.47,66.53s11.94-11.61,14.93-8.27c2.43,2.72-8.75,9.62-8.48,10.02s14.26-9.85,16.73-5.54c2.21,3.84-11.55,9.49-10.89,10.57s9.5-3.73,10.79-1.31c.92,1.73-1.24,4.3-7.9,5.72"/><ellipse class="i" cx="59.37" cy="94.01" rx="1.99" ry="3.46" transform="translate(-.97 .62) rotate(-.59)"/><ellipse class="i" cx="81.86" cy="93.78" rx="1.99" ry="3.46" transform="translate(-.96 .85) rotate(-.59)"/><path class="d" d="M53.41,83.14s4.03-8.24,10.48-4.1"/><line class="d" x1="76.69" y1="89.31" x2="88.8" y2="89.31"/><ellipse class="h" cx="83.29" cy="114.22" rx="8.32" ry="5.03"/><line class="d" x1="71.96" y1="117.54" x2="86.33" y2="114.54"/><path class="f" d="M78.61,125.59c-.24,1.7,.08,3.48,1.03,5.07,22.84,38.25,28.55,88.32,28.6,88.82,.47,4.28,4.32,7.36,8.59,6.89,4.28-.47,7.36-4.31,6.9-8.59-.24-2.18-6.1-53.89-30.72-95.12-2.21-3.69-6.99-4.9-10.68-2.7-2.11,1.26-3.41,3.36-3.72,5.61Z"/></g></g></svg>