<svg data-name="Layer 1" xmlns="http://www.w3.org/2000/svg" viewBox="0 0 150 150"><defs><clipPath id="a"><path style="fill:none" d="M29.04 0h91.93v140.5H29.04z"/></clipPath><clipPath id="b"><path d="M54.53 44.89c17.29 11.87 19.61-4.73 26 2.63 6.14 7.06-6.07 27-19.47 17-7.71-5.81-10.67-20.52-6.53-19.63Z" style="fill:none"/></clipPath></defs><g style="clip-path:url(#a)"><path d="M57.27 38.72S49.09 13.62 51.81-10" style="stroke-width:1.66px;stroke-linejoin:round;fill:#c5c6c8;stroke:#909395"/><path d="M55.15-12.12a3.94 3.94 0 0 1 .59 2.56C53.15 12.9 61 37.25 61 37.49a4 4 0 1 1-7.52 2.45c-.34-1.06-8.41-26.2-5.63-50.4a4 4 0 0 1 4.38-3.48 3.91 3.91 0 0 1 2.92 1.82ZM57.08 74.78c-1.55 7.41-4.59 27.22 4 48.28-1.33 7.24-1.2 18-1.2 18L71 124.9a70 70 0 0 1-6.66-50.76M74 72.46c-1.55 7.41-4.6 27.22 4 48.28-1.34 7.24-1.2 18-1.2 18l11.1-16.15a70 70 0 0 1-6.66-50.77" style="stroke-linejoin:round;fill:#c5c6c8;stroke:#909395"/><path style="stroke:#593314;fill:#f89e4f;stroke-linejoin:round" d="M71.43 5.5 51.85 40.34 32.28 75.19l39.96-.47 39.96-.47-20.38-34.38L71.43 5.5z"/><ellipse cx="60.95" cy="35.61" rx="7.76" ry="2.95" transform="rotate(-68.57 60.957 35.607)" style="fill:#593314"/><ellipse cx="71.52" cy="39.75" rx="7.76" ry="2.95" transform="rotate(-68.57 71.527 39.752)" style="fill:#593314"/><path d="M71.68 17.47s-6.16-5.78-7.68-4.06c-1.21 1.4 4.52 4.8 4.39 5s-7.32-4.88-8.54-2.67c-1.08 2 5.94 4.71 5.62 5.27s-4.85-1.81-5.49-.57c-.45.88.63 1.39 2.17 2.1" style="stroke-linecap:round;stroke:#593214;fill:#f89e4f;stroke-linejoin:round"/><ellipse cx="56.3" cy="55.58" rx="4.77" ry="4.07" transform="rotate(-.67 56.115 55.915)" style="fill:#f89e4f"/><ellipse cx="67.91" cy="55.44" rx="4.77" ry="4.07" transform="rotate(-.67 68.087 55.985)" style="fill:#f89e4f"/><ellipse cx="71.32" cy="36.88" rx="1.76" ry="1.01" transform="rotate(-68.57 71.323 36.884)" style="fill:#fff"/><ellipse cx="60.7" cy="32.71" rx="1.76" ry="1.01" transform="rotate(-68.57 60.704 32.717)" style="fill:#fff"/><path d="M78.51 34.83s.61-4.61-3.28-4.67M55.22 27.58s-.72-4.6 3.17-4.75" style="stroke-linecap:round;stroke:#593314;stroke-linejoin:round;fill:none"/><path d="M54.53 44.89c17.29 11.87 19.61-4.73 26 2.63 6.14 7.06-6.07 27-19.47 17-7.71-5.81-10.67-20.52-6.53-19.63Z" style="fill:#593314"/><g style="clip-path:url(#b)"><path d="M83 56.74S65.37 51 57.36 66.14c-1.93 3.63 9.53 8.13 11.21 7.88 5.73-.84 13.54-6.81 14.43-17.28Z" style="fill:#f05124"/></g><path d="M88.87-7.72s5.62 25.8.55 49" style="stroke-width:1.66px;stroke-linejoin:round;fill:#c5c6c8;stroke:#909395"/><path d="M92.21-9.83a4 4 0 0 1 .52 1.27c.23 1.09 5.75 26.91.55 50.72a4 4 0 1 1-7.72-1.69c4.83-22.14-.5-47.1-.56-47.35a4 4 0 0 1 3-4.7 4 4 0 0 1 4.21 1.75Z" style="stroke-linejoin:round;fill:#c5c6c8;stroke:#909395"/></g></svg>