<?xml version="1.0" encoding="UTF-8"?><svg id="a" xmlns="http://www.w3.org/2000/svg" viewBox="0 0 225 150"><defs><style>.b{stroke:#2dc5f4;}.b,.c,.d,.e,.f{stroke-linecap:round;}.b,.c,.d,.e,.f,.g,.h{stroke-linejoin:round;}.b,.c,.d,.f{fill:none;}.c,.h{stroke:#593314;}.d,.e{stroke:#593214;}.e,.h{fill:#f89e4f;}.i{fill:#f05124;}.j{fill:#fff;}.k{fill:#593314;}.f{stroke:#c42f00;stroke-width:.42px;}.g{fill:#c5c6c8;stroke:#909395;}</style></defs><g><path class="g" d="M109.84,69.5c-7.84,5.54-29.35,19.06-58.18,19.73-7.75,5.21-20.32,10.46-20.32,10.46l13.16-21.12c34.95,3.29,57.79-14.39,62.43-17.84"/><path class="g" d="M202.89,65.42c-1.03-.41-2.19-.48-3.33-.13-27.38,8.49-59.56,4.48-59.88,4.44-2.75-.35-5.26,1.58-5.61,4.33-.35,2.74,1.58,5.26,4.33,5.61,1.4,.18,34.63,4.34,64.14-4.81,2.64-.82,4.12-3.63,3.3-6.27-.47-1.51-1.58-2.64-2.95-3.18Z"/><polygon class="h" points="176.53 44.55 137.19 80.91 97.85 117.28 86.03 65.02 74.21 12.77 125.37 28.66 176.53 44.55"/><path class="g" d="M189.04,17.8c-.53-.2-1.11-.32-1.71-.32-1.41-.02-34.9-.36-63.17,12.1-2.53,1.12-3.68,4.08-2.57,6.61,1.12,2.53,4.08,3.68,6.61,2.56,26.29-11.59,58.66-11.26,58.98-11.25,2.77,.04,5.04-2.17,5.09-4.94,.03-2.17-1.32-4.03-3.23-4.76Z"/><path class="g" d="M101.52,41.24c3.31,.94,5.22,4.43,4.2,7.72-2.85,9.24-9.98,24.01-18.46,23.43-7.63-.52-20.3-13.84-27.95-20.46-8.84,3.02-18.4,3.07-18.4,3.07l20.26-15.78c3.08,3.18,13.27,12.11,19.92,17.84,7.93,6.82,11.18-2.87,12.7-11,.67-3.57,4.25-5.8,7.74-4.81h0Z"/><path class="k" d="M135.22,51.72c-4.72,3.28-4.73,5.29-3.48,7.08,1.25,1.79,3.28,2.69,8-.59,4.72-3.28,7.53-7.4,6.28-9.19s-6.08-.59-10.8,2.7Z"/><path class="e" d="M158.69,56.86s14.41,8.29,15.48,4.22c.63-2.4-8.07-3.44-7.67-4.72,.09-.31,11.74,2.56,12.66-.7,.81-2.9-10.58-.97-9.65-3.6,.29-.81,8.72,.16,8.15-2.43-.46-2.07-3.79,0-7.37-2.04"/><ellipse class="j" cx="140" cy="55.27" rx="2.36" ry="1.36" transform="translate(-3.82 99.65) rotate(-38.69)"/><path class="k" d="M142.23,60.89c-4.72,3.28-4.73,5.29-3.48,7.08s3.28,2.69,8-.59c4.72-3.28,7.53-7.4,6.28-9.19-1.25-1.79-6.08-.59-10.8,2.7Z"/><ellipse class="j" cx="147" cy="64.44" rx="2.36" ry="1.36" transform="translate(-8.02 106.04) rotate(-38.69)"/><path class="d" d="M143.09,44.02s6.91-1.13,6.77,5.73"/><path class="d" d="M156.33,67.07s5.26-4.62-.12-8.87"/><path class="i" d="M119.85,61.42s7.05-.15,7.34-3.83-6.48-3.21-6.48-3.21c0,0-1.89,3.64-.86,7.04"/><line class="f" x1="119.69" y1="57.56" x2="125.89" y2="57.61"/><path class="c" d="M127.86,46s-19.73,13.35,1.12,24.79c7.89,4.33-.36,7.23-.36,7.23"/></g><g><line class="b" x1="58.87" y1="26.7" x2="71.57" y2="24.53"/><line class="b" x1="53.15" y1="27.68" x2="58.87" y2="26.7"/><line class="b" x1="46.31" y1="28.85" x2="49.18" y2="28.36"/></g><g><line class="b" x1="145.73" y1="92.9" x2="158.43" y2="90.73"/><line class="b" x1="137.94" y1="94.23" x2="141.95" y2="93.55"/><line class="b" x1="133.18" y1="95.05" x2="134.27" y2="94.86"/></g><g><line class="b" x1="23.44" y1="101.36" x2="27.42" y2="100.67"/><line class="b" x1="18.94" y1="102.13" x2="19.54" y2="102.02"/></g><g><line class="b" x1="30" y1="56.52" x2="36.84" y2="55.35"/><line class="b" x1="25.09" y1="57.36" x2="27.06" y2="57.02"/><line class="b" x1="20.85" y1="58.09" x2="21.47" y2="57.98"/></g><g><line class="b" x1="82.14" y1="114.78" x2="91.39" y2="113.2"/><line class="b" x1="75.33" y1="115.95" x2="78.23" y2="115.45"/><line class="b" x1="69.67" y1="116.92" x2="71.3" y2="116.64"/></g></svg>