<svg xmlns="http://www.w3.org/2000/svg" viewBox="0 0 150 150"><defs><clipPath id="a"><path d="M91.02 44.42h14.04c.96 0 1.75.78 1.75 1.75v5.78c0 4.51-3.66 8.18-8.18 8.18h-1.18c-4.51 0-8.18-3.66-8.18-8.18v-5.78c0-.96.78-1.75 1.75-1.75" style="fill:none"/></clipPath><clipPath id="b"><path d="M68.59 44.42h14.04c.96 0 1.75.78 1.75 1.75v5.78c0 4.51-3.66 8.18-8.18 8.18h-1.18c-4.51 0-8.18-3.66-8.18-8.18v-5.78c0-.96.78-1.75 1.75-1.75" style="fill:none"/></clipPath></defs><g style="isolation:isolate"><path d="M106.67 128.65a3.79 3.79 0 0 0 3.24-3.82c-.53-25.88-4.85-46.58-5.03-47.45a3.783 3.783 0 0 0-4.49-2.92 3.783 3.783 0 0 0-2.92 4.49c.04.21 4.36 20.91 4.87 46.04a3.786 3.786 0 0 0 4.33 3.67Zm-61.66.05a3.79 3.79 0 0 0 3.93-3.11c4.62-25.47 4.49-46.62 4.48-47.51a3.786 3.786 0 0 0-7.57.07c0 .21.12 21.36-4.36 46.09-.37 2.06.99 4.03 3.05 4.4.16.03.31.05.47.06Zm9.43 20.6h16.42l-3.99-6.25V81.81H59.3v61.15z" style="stroke-linejoin:round;fill:#c5c6c8;stroke:#909395"/><path d="m113.76 149.3-15.28-6.25-6.91-61.24H84l7.62 67.49z" style="stroke-linejoin:round;fill:#c5c6c8;stroke:#909395"/><path d="m75 1.44 23.58 40.84 23.57 40.83h-94.3l23.57-40.83z" style="stroke-linejoin:round;fill:#f89e4f;stroke:#593314"/><path d="M82.15 24.51s15.41-4.88 15.63-1.25c.16 2.7-7.59 2.53-7.6 2.82s10.37.11 10.1 3.07c-.25 2.64-8.93.65-8.98 1.41s6.58 1.27 6.64 2.91c.11 2.82-7.32-.81-7.27 1.52" style="stroke:#593214;stroke-linecap:round;stroke-linejoin:round;fill:#f89e4f"/><path d="M61.86 52.95s3.55 18.86 26.24 11.4c8.35-2.74 6.4 1.64 6.4 1.64" style="fill:none;stroke:#593214;stroke-linecap:round;stroke-linejoin:round"/><path d="M76.38 48.78c-.2-.56-.79-.97-1.49-.97s-1.29.41-1.49.97" style="fill:none;stroke-linecap:round;stroke-miterlimit:10;stroke:#70327e;stroke-width:1.64px"/><g style="mix-blend-mode:multiply;opacity:.25"><path d="M98.99 63.09c-5.52 0-10-4.48-10-10v-5.78c0-1.18.96-2.13 2.13-2.13h7.89c1.18 0 6.78 7.66 9.32 11.49a10 10 0 0 1-9.34 6.42" style="fill:#855191"/></g><g style="mix-blend-mode:multiply;opacity:.25"><path d="M83.49 45.17H67.76c-1.18 0-2.13.96-2.13 2.13v2.74c-1.6-2.14-3.44-4.56-3.74-4.59-.48-.05-10.41-5.13-10.52-1.76 0 0 10.47 5.48 14.31 10.41.52 5.04 4.77 8.97 9.95 8.97 5.52 0 10-4.48 10-10v-5.78c0-1.18-.96-2.13-2.13-2.13Z" style="fill:#855191"/></g><path d="M63.87 50.81c-2.21-1.79-15.3-11.97-16.29-6.18-.04.44-.44.76-.88.69-.8-.14-.62-1-.59-1.59.19-2.3 2.66-3.43 4.6-3.31 5.97.37 11.1 3.08 16.32 5.7 1.38.75 1.89 2.47 1.14 3.85-.83 1.56-2.96 1.97-4.31.83Z" style="fill:#70327e"/><path d="M85.06 50.06s1.98-2.83 4.27.27" style="fill:none;stroke-linecap:round;stroke:#855191;stroke-width:2.52px;stroke-miterlimit:10;mix-blend-mode:multiply;opacity:.25"/><path d="M98.63 60.12h-1.18c-4.52 0-8.18-3.66-8.18-8.18v-5.78c0-.96.78-1.75 1.75-1.75h14.04c.96 0 1.75.78 1.75 1.75v5.78c0 4.52-3.66 8.18-8.18 8.18" style="fill:#855191"/><g style="clip-path:url(#a)"><path d="M92.34 37.91h4.13v23.01h-4.13z" style="fill:#b78dc1" transform="rotate(46.33 94.419 49.421)"/><path d="M96.66 39.88h1.07v23.01h-1.07z" style="fill:#ceb1d5" transform="rotate(46.33 97.2 51.397)"/></g><path d="M105.06 44.42c.96 0 1.75.78 1.75 1.75v5.78c0 4.52-3.66 8.18-8.18 8.18h-1.18c-4.52 0-8.18-3.66-8.18-8.18v-5.78c0-.96.78-1.75 1.75-1.75zm0-1.51H91.02a3.26 3.26 0 0 0-3.26 3.26v5.78c0 5.34 4.35 9.69 9.69 9.69h1.18c5.34 0 9.69-4.35 9.69-9.69v-5.78c0-1.8-1.46-3.26-3.26-3.26" style="fill:#70327e"/><path d="M76.2 60.12h-1.18c-4.52 0-8.18-3.66-8.18-8.18v-5.78c0-.96.78-1.75 1.75-1.75h14.04c.96 0 1.75.78 1.75 1.75v5.78c0 4.52-3.66 8.18-8.18 8.18" style="fill:#855191"/><g style="clip-path:url(#b)"><path d="M69.92 37.91h4.13v23.01h-4.13z" style="fill:#b78dc1" transform="rotate(46.33 71.995 49.421)"/><path d="M74.23 39.88h1.07v23.01h-1.07z" style="fill:#ceb1d5" transform="rotate(46.33 74.776 51.397)"/></g><path d="M82.64 44.42c.96 0 1.75.78 1.75 1.75v5.78c0 4.52-3.66 8.18-8.18 8.18h-1.18c-4.52 0-8.18-3.66-8.18-8.18v-5.78c0-.96.78-1.75 1.75-1.75zm0-1.51H68.6a3.26 3.26 0 0 0-3.26 3.26v5.78c0 5.34 4.35 9.69 9.69 9.69h1.18c5.34 0 9.69-4.35 9.69-9.69v-5.78c0-1.8-1.46-3.26-3.26-3.26" style="fill:#70327e"/><path d="M85.34 48.78c.2-.56.79-.97 1.49-.97s1.29.41 1.49.97" style="fill:none;stroke-linecap:round;stroke-miterlimit:10;stroke:#70327e;stroke-width:1.64px"/></g></svg>