<svg xmlns="http://www.w3.org/2000/svg" viewBox="0 0 150 150"><path d="M102.12 128.8a3.79 3.79 0 0 0 3.53-3.56c1.5-25.84-1.18-46.82-1.3-47.7a3.783 3.783 0 0 0-4.24-3.26c-2.07.27-3.54 2.17-3.26 4.24.03.21 2.71 21.19 1.25 46.28a3.783 3.783 0 0 0 3.56 4h.47Zm-50.62 0a3.79 3.79 0 0 1-3.56-3.53c-1.73-25.83.77-46.83.88-47.71a3.784 3.784 0 0 1 4.22-3.3c2.08.25 3.55 2.14 3.3 4.22-.03.21-2.52 21.21-.84 46.29a3.785 3.785 0 0 1-4 4.03Zm7.46 20.5h16.42l-3.99-6.25V81.81h-7.57v61.15z" style="stroke-linejoin:round;fill:#c5c6c8;stroke:#909395"/><path d="m105.54 149.3-15.28-6.25-1.5-61.24h-7.58l2.22 67.49z" style="stroke-linejoin:round;fill:#c5c6c8;stroke:#909395"/><path d="m75 1.44 23.58 40.84 23.57 40.83h-94.3l23.57-40.83z" style="stroke-linejoin:round;fill:#f89e4f;stroke:#593314"/><path d="M82.15 24.51s15.41-4.88 15.63-1.25c.16 2.7-7.59 2.53-7.6 2.82s10.37.11 10.1 3.07c-.25 2.64-8.93.65-8.98 1.41s6.58 1.27 6.64 2.91c.11 2.82-7.32-.81-7.27 1.52" style="stroke:#593214;stroke-linecap:round;stroke-linejoin:round;fill:#f89e4f"/><ellipse cx="75.28" cy="52.21" rx="7.08" ry="3.15" style="fill:#593214" transform="rotate(-89.67 75.277 52.205)"/><ellipse cx="76.04" cy="49.69" rx="1.21" ry="2.11" style="fill:#fff" transform="rotate(-.1 74.44 51.631)"/><ellipse cx="85.4" cy="52.21" rx="7.08" ry="3.15" style="fill:#593214" transform="rotate(-89.67 85.402 52.21)"/><ellipse cx="86.17" cy="49.69" rx="1.21" ry="2.11" style="fill:#fff" transform="rotate(-.1 85.899 51.641)"/><path d="M62.5 53.21s.95 20.63 20.05 16.04" style="fill:none;stroke:#593214;stroke-linecap:round;stroke-linejoin:round"/></svg>