<svg xmlns="http://www.w3.org/2000/svg" viewBox="0 0 150 150"><defs><clipPath id="a"><path d="M91 44.42h14a1.75 1.75 0 0 1 1.75 1.75v5.78a8.18 8.18 0 0 1-8.18 8.18h-1.12a8.18 8.18 0 0 1-8.18-8.18v-5.79A1.75 1.75 0 0 1 91 44.42Z" style="fill:none"/></clipPath><clipPath id="b"><path d="M68.59 44.42h14a1.75 1.75 0 0 1 1.75 1.75v5.78a8.18 8.18 0 0 1-8.18 8.18H75a8.18 8.18 0 0 1-8.18-8.18v-5.79a1.75 1.75 0 0 1 1.75-1.75Z" style="fill:none"/></clipPath></defs><g data-name="Layer 1" style="isolation:isolate"><path d="M106.67 128.65a3.79 3.79 0 0 0 3.23-3.83 280.19 280.19 0 0 0-5-47.45 3.79 3.79 0 0 0-7.41 1.57 277.14 277.14 0 0 1 4.87 46 3.79 3.79 0 0 0 3.86 3.71ZM45 128.7a3.77 3.77 0 0 0 3.93-3.1 279.89 279.89 0 0 0 4.48-47.51 3.79 3.79 0 1 0-7.57.06 279 279 0 0 1-4.36 46.09 3.8 3.8 0 0 0 3 4.41ZM54.44 149.3h16.42l-3.99-6.24V81.81H59.3v61.15l-4.86 6.34z" style="stroke-linejoin:round;fill:#c5c6c8;stroke:#909395"/><path style="stroke-linejoin:round;fill:#c5c6c8;stroke:#909395" d="m113.76 149.3-15.28-6.24-6.91-61.25H84l7.63 67.49h22.13z"/><path style="stroke:#593314;fill:#f89e4f;stroke-linejoin:round" d="m75 1.44 23.58 40.84 23.57 40.83h-94.3l23.57-40.83L75 1.44z"/><path d="M82.15 24.51s15.41-4.88 15.62-1.25c.16 2.7-7.59 2.54-7.6 2.82s10.38.1 10.1 3.07c-.25 2.64-8.93.65-9 1.41s6.58 1.26 6.65 2.9c.1 2.82-7.33-.81-7.28 1.52" style="stroke-linecap:round;stroke:#593214;fill:#f89e4f;stroke-linejoin:round"/><path d="M61.86 53s3.55 18.86 26.25 11.4c8.35-2.74 6.4 1.64 6.4 1.64" style="stroke-linecap:round;stroke:#593214;stroke-linejoin:round;fill:none"/><path d="M76.38 48.78a1.63 1.63 0 0 0-3 0" style="stroke-miterlimit:10;stroke:#70327e;stroke-width:1.64px;stroke-linecap:round;fill:none"/><g style="mix-blend-mode:multiply;opacity:.25"><path d="M99 63.09a10 10 0 0 1-10-10v-5.78a2.14 2.14 0 0 1 2.14-2.14H99c1.18 0 6.78 7.67 9.32 11.49A10 10 0 0 1 99 63.09Z" style="fill:#855191"/></g><g style="mix-blend-mode:multiply;opacity:.25"><path d="M83.49 45.17H67.75a2.13 2.13 0 0 0-2.13 2.14v2.74c-1.6-2.14-3.45-4.55-3.74-4.59-.48-.05-10.41-5.12-10.52-1.76 0 0 10.47 5.48 14.31 10.42a10 10 0 0 0 10 9 10 10 0 0 0 10-10v-5.81a2.14 2.14 0 0 0-2.18-2.14Z" style="fill:#855191"/></g><path d="M63.87 50.81c-2.2-1.79-15.3-12-16.28-6.18a.76.76 0 0 1-.88.69c-.81-.14-.62-1-.59-1.59.19-2.3 2.66-3.43 4.61-3.31 6 .37 11.09 3.08 16.31 5.71a2.84 2.84 0 1 1-3.17 4.68Z" style="fill:#70327e"/><path d="M85.06 50.06s2-2.83 4.27.26" style="stroke:#855191;stroke-width:2.52px;mix-blend-mode:multiply;opacity:.25;stroke-miterlimit:10;stroke-linecap:round;fill:none"/><path d="M98.63 60.12h-1.18a8.18 8.18 0 0 1-8.18-8.18v-5.78A1.74 1.74 0 0 1 91 44.42h14a1.74 1.74 0 0 1 1.74 1.74v5.78a8.17 8.17 0 0 1-8.11 8.18Z" style="fill:#855191"/><g style="clip-path:url(#a)"><path transform="rotate(46.33 94.419 49.421)" style="fill:#b78dc1" d="M92.34 37.91h4.13v23.01h-4.13z"/><path transform="rotate(46.33 97.2 51.397)" style="fill:#ceb1d5" d="M96.66 39.88h1.07v23.01h-1.07z"/></g><path d="M105.06 44.42a1.74 1.74 0 0 1 1.74 1.74v5.78a8.17 8.17 0 0 1-8.17 8.18h-1.18a8.18 8.18 0 0 1-8.18-8.18v-5.78A1.74 1.74 0 0 1 91 44.42h14m0-1.52H91a3.27 3.27 0 0 0-3.26 3.26v5.78a9.7 9.7 0 0 0 9.69 9.69h1.18a9.7 9.7 0 0 0 9.69-9.69v-5.78a3.27 3.27 0 0 0-3.26-3.26Z" style="fill:#70327e"/><path d="M76.2 60.12H75a8.18 8.18 0 0 1-8.18-8.18v-5.78a1.74 1.74 0 0 1 1.74-1.74h14a1.74 1.74 0 0 1 1.74 1.74v5.78a8.18 8.18 0 0 1-8.1 8.18Z" style="fill:#855191"/><g style="clip-path:url(#b)"><path transform="rotate(46.33 71.995 49.421)" style="fill:#b78dc1" d="M69.92 37.91h4.13v23.01h-4.13z"/><path transform="rotate(46.33 74.776 51.397)" style="fill:#ceb1d5" d="M74.23 39.88h1.07v23.01h-1.07z"/></g><path d="M82.64 44.42a1.74 1.74 0 0 1 1.74 1.74v5.78a8.18 8.18 0 0 1-8.18 8.18H75a8.18 8.18 0 0 1-8.18-8.18v-5.78a1.74 1.74 0 0 1 1.74-1.74h14m0-1.52h-14a3.27 3.27 0 0 0-3.26 3.26v5.78a9.71 9.71 0 0 0 9.7 9.69h1.2a9.71 9.71 0 0 0 9.7-9.69v-5.78a3.27 3.27 0 0 0-3.26-3.26Z" style="fill:#70327e"/><path d="M85.34 48.78a1.63 1.63 0 0 1 3 0" style="stroke-miterlimit:10;stroke:#70327e;stroke-width:1.64px;stroke-linecap:round;fill:none"/></g></svg>