<svg data-name="Layer 1" xmlns="http://www.w3.org/2000/svg" viewBox="0 0 225 150"><path d="M109.84 69.5C102 75 80.48 88.57 51.66 89.23 43.91 94.44 31.33 99.7 31.33 99.7l13.16-21.13a88.74 88.74 0 0 0 62.43-17.84M202.89 65.42a5.05 5.05 0 0 0-3.33-.12c-27.38 8.49-59.56 4.48-59.88 4.44a5 5 0 0 0-1.29 9.94c1.4.18 34.63 4.35 64.14-4.81a5 5 0 0 0 .36-9.45Z" style="stroke-linejoin:round;fill:#c5c6c8;stroke:#909395"/><path style="stroke:#593314;fill:#f89e4f;stroke-linejoin:round" d="m176.53 44.55-39.34 36.37-39.34 36.36-11.82-52.26-11.82-52.25 51.16 15.89 51.16 15.89z"/><path d="M189 17.8a5 5 0 0 0-1.7-.32c-1.41 0-34.9-.36-63.17 12.1a5 5 0 1 0 4 9.18c26.29-11.59 58.66-11.26 59-11.26a5 5 0 0 0 1.87-9.7ZM101.52 41.24a6.15 6.15 0 0 1 4.2 7.72c-2.85 9.24-10 24-18.46 23.43-7.63-.53-20.26-13.85-27.95-20.47A66 66 0 0 1 40.91 55l20.25-15.79c3.09 3.18 13.27 12.12 19.92 17.84 7.93 6.82 11.18-2.87 12.7-11a6.16 6.16 0 0 1 7.74-4.81Z" style="stroke-linejoin:round;fill:#c5c6c8;stroke:#909395"/><path d="M135.22 51.72c-4.72 3.28-4.73 5.28-3.48 7.08s3.29 2.7 8-.59 7.53-7.4 6.28-9.19-6.08-.58-10.8 2.7Z" style="fill:#593314"/><path d="M158.69 56.86s14.41 8.29 15.48 4.21c.63-2.4-8.07-3.44-7.68-4.72.1-.31 11.75 2.56 12.66-.7.81-2.9-10.58-1-9.65-3.59.29-.81 8.72.15 8.15-2.44-.46-2.07-3.79 0-7.37-2" style="stroke-linecap:round;stroke:#593214;fill:#f89e4f;stroke-linejoin:round"/><ellipse cx="140" cy="55.27" rx="2.36" ry="1.36" transform="rotate(-38.69 140.01 55.265)" style="fill:#fff"/><path d="M142.23 60.89c-4.72 3.29-4.73 5.29-3.48 7.09s3.28 2.69 8-.59 7.53-7.4 6.28-9.2-6.09-.58-10.8 2.7Z" style="fill:#593314"/><ellipse cx="147" cy="64.44" rx="2.36" ry="1.36" transform="rotate(-38.69 147.011 64.442)" style="fill:#fff"/><path d="M143.09 44s6.91-1.13 6.77 5.73M156.33 67.07s5.26-4.62-.12-8.87" style="fill:none;stroke-linecap:round;stroke:#593214;stroke-linejoin:round"/><path d="M119.85 61.42s7.05-.15 7.34-3.83-6.48-3.21-6.48-3.21-1.89 3.64-.86 7" style="fill:#f05124"/><path style="stroke:#c42f00;stroke-width:.42px;fill:none;stroke-linecap:round;stroke-linejoin:round" d="m119.69 57.56 6.2.05"/><path d="M127.86 46S108.13 59.35 129 70.79c7.89 4.33-.37 7.23-.37 7.23" style="fill:none;stroke-linecap:round;stroke:#593314;stroke-linejoin:round"/><path style="stroke:#2dc5f4;fill:none;stroke-linecap:round;stroke-linejoin:round" d="m58.87 26.7 12.7-2.17M53.15 27.68l5.72-.98M46.31 28.85l2.87-.49M145.73 92.9l12.7-2.17M137.94 94.23l4.01-.68M133.18 95.05l1.09-.19M23.44 101.36l3.98-.69M18.94 102.13l.6-.11M30 56.52l6.84-1.17M25.09 57.36l1.97-.34M20.85 58.09l.62-.11M82.14 114.78l9.25-1.58M75.33 115.95l2.9-.5M69.67 116.92l1.63-.28"/></svg>