<svg xmlns="http://www.w3.org/2000/svg" viewBox="0 0 150 150"><path d="M78.33 75.65c6.96 9.86 22.86 35.43 35.53 56.35 4.46-1.88 15.48-7.08 15.48-7.08l-16.91 23.31c-12.9-24.19-33.71-57-41.24-67.47-1.57-2.19-.83-5.26 1.58-6.47 1.94-.98 4.3-.4 5.55 1.37Zm39.24 30.76c-1.16.38-2.47.25-3.56-.48-.89-.6-21.85-14.92-33.01-44.67a4.1 4.1 0 0 1 2.39-5.27c2.11-.79 4.47.28 5.27 2.39 10.2 27.19 29.72 40.62 29.92 40.75a4.097 4.097 0 0 1 1.11 5.68 4.14 4.14 0 0 1-2.11 1.6Z" style="stroke-linejoin:round;fill:#c5c6c8;stroke:#909395"/><path d="m66.72.66 24.83 40.93 24.82 40.92-47.85 1.04-47.86 1.03 23.03-41.96z" style="stroke-linejoin:round;stroke:#593314;fill:#f89e4f"/><path d="M42 113.65c.72.37 1.55.53 2.42.41 2.24-.3 3.81-2.36 3.5-4.6-2.86-21.12 12.86-49.13 13.01-49.41 1.11-1.96.43-4.46-1.54-5.58A4.09 4.09 0 0 0 53.81 56c-.71 1.24-17.24 30.67-14.01 54.55.19 1.38 1.04 2.5 2.19 3.09Z" style="stroke-linejoin:round;fill:#c5c6c8;stroke:#909395"/><path d="M67.51 43.94s.82 12.85 16.89 7.1" style="fill:none;stroke-linecap:round;stroke-linejoin:round;stroke:#593314"/><ellipse cx="72.86" cy="38.35" rx="3.15" ry="7.08" style="fill:#593214" transform="rotate(-2.89 72.815 38.331)"/><ellipse cx="71.82" cy="35.83" rx="2.11" ry="1.21" style="fill:#fff" transform="rotate(-85.64 71.824 35.827)"/><ellipse cx="82.27" cy="38.35" rx="3.15" ry="7.08" style="fill:#593214" transform="rotate(-2.89 82.335 38.373)"/><ellipse cx="81.22" cy="35.83" rx="2.11" ry="1.21" style="fill:#fff" transform="rotate(-85.64 81.23 35.829)"/><path d="M67.77 32.34s-.56-3.34 2.3-4.37" style="fill:none;stroke-linecap:round;stroke-linejoin:round;stroke:#593214"/><path d="M73.65 15.18s14.59-2.79 14.31.96c-.17 2.21-7.82.55-7.86 1.75-.01.29 10.67 1.27 10.48 4.29-.16 2.69-9.22-2.27-9.2.22 0 .77 7.41 2.41 6.17 4.43-.99 1.62-3.2-1.11-6.82-.43" style="stroke-linecap:round;stroke-linejoin:round;stroke:#593214;fill:#f89e4f"/><path d="M65.08 81.16c3.02 11.83 7.11 36.53-.14 59.71 4.06 2.62 14.39 8.66 14.39 8.66l-27.52-.22c12.68-25.87 8.68-49.63 4.25-65.77-.82-2.98 1.43-5.91 4.51-5.9 2.13 0 3.98 1.45 4.51 3.51Z" style="stroke-linejoin:round;fill:#c5c6c8;stroke:#909395"/></svg>