<svg xmlns="http://www.w3.org/2000/svg" viewBox="0 0 225 150"><path d="M214.3 79.16c-.37-.01-.74.02-1.12.1-33.58 7.15-66.59 1.25-66.92 1.19a4.739 4.739 0 0 0-5.52 3.81 4.754 4.754 0 0 0 3.81 5.53c1.42.26 35.14 6.31 70.62-1.24 2.56-.55 4.2-3.07 3.65-5.63a4.755 4.755 0 0 0-4.51-3.76ZM76.07 23.95c-1.04-2.41.27-5.18 2.79-5.93 8.42-2.49 26.35-6.35 38.18 1.35 15.72 10.24 11.65 39.78 11.47 41.03l-8.71-1.25c1-6.99 1.58-26.45-7.56-32.41-8.48-5.52-23.32-2.59-30.88-.34-2.13.64-4.41-.41-5.29-2.45ZM88.77 78.72c-26.56 3.84-52.33-1.19-61.86-3.35-4.92 4.41-20.83 6.78-20.83 6.78l20.51-17.64c10.48 6.35 34.27 9.79 56.45 6.79l5.73 7.42ZM102.07 101.72c1.43.95 2.08 2.73 1.58 4.38-2.26 7.4-12.9 27.72-25.77 16.39-6.28-5.53-12.64-12.17-18.02-20.33-8.9-1.29-21.99-5.76-21.99-5.76l23.54-5.25c6.95 10.91 10.32 14.92 17.48 22.02 9.77 9.71 15.67-4.54 17.34-9.48.82-2.42 3.73-3.39 5.85-1.97Z" style="fill:#c4c5c7;stroke:#8f9294;stroke-linejoin:round"/><path style="stroke:#593314;fill:#f89e4f;stroke-linejoin:round" d="m170.21 58.41-27.43 41.08-27.43 41.07-21.86-44.29-21.85-44.3 49.29 3.22 49.28 3.22z"/><path d="M158.71 73.02s10.1 2.66 10.71-.08c.49-2.24-7.74-2.56-7.72-2.86s10.82.99 10.85-2.13c.02-2.78-9.23-1.63-9.21-2.42s6.34-.89 6.3-2.61c-.03-1.23-1.51-1.15-3.59-1.01" style="fill:#f89e4f;stroke-linejoin:round;stroke:#593214;stroke-linecap:round"/><ellipse cx="128.65" cy="80.13" rx="9.51" ry="4.49" transform="rotate(-25.51 128.61 80.127)" style="fill:#593314"/><ellipse cx="134.16" cy="90.08" rx="9.51" ry="4.49" transform="rotate(-25.51 134.14 90.063)" style="fill:#593314"/><ellipse cx="123.22" cy="79.51" rx="8.44" ry="4.5" transform="rotate(-76.56 123.224 79.511)" style="fill:#f89e4f"/><path d="M121.82 70.19c1.9 6.69-2.22 13.72-9.21 15.71-6.99 1.99-14.2-1.82-16.1-8.5M123.97 97.69c-2.49-.85-5.29-.98-8.06-.2-2.77.79-5.08 2.38-6.75 4.41" style="stroke-linejoin:round;stroke:#593214;stroke-linecap:round;fill:none"/><path d="M112.6 85.9s-3.39 7.23 3.3 11.6" style="stroke-linejoin:round;stroke:#593214;stroke-linecap:round;fill:none"/><ellipse cx="138.25" cy="89.9" rx="2.69" ry="1.51" transform="rotate(-33.28 138.256 89.906)" style="fill:#fff"/><ellipse cx="133.08" cy="79.59" rx="2.69" ry="1.51" transform="rotate(-33.28 133.083 79.594)" style="fill:#fff"/></svg>