<?xml version="1.0" encoding="UTF-8"?><svg id="a" xmlns="http://www.w3.org/2000/svg" xmlns:xlink="http://www.w3.org/1999/xlink" viewBox="0 0 225 150"><defs><style>.c,.d{fill:none;}.d,.e{stroke-linecap:round;}.d,.e,.f,.g{stroke-linejoin:round;}.d,.g{stroke:#593314;}.e{stroke:#593214;}.e,.g{fill:#f89e4f;}.h{fill:#f05124;}.i{fill:#fff;}.j{fill:#593314;}.k{clip-path:url(#b);}.f{fill:#c5c6c8;stroke:#909395;}</style><clipPath id="b"><path class="c" d="M111.58,87.56c5.39-7.04-26.58-27.92-23.98-10.9,1.78,11.66-2.6,18.63,7.94,12.49,10.49-6.11,13.09,2.27,16.04-1.59Z"/></clipPath></defs><path class="f" d="M116.43,58.45c1.04-.22,1.96-.9,2.45-1.94,.3-.65,7.29-16.29-5.52-46.53-.76-1.79-2.81-2.63-4.61-1.87-1.79,.76-2.62,2.82-1.87,4.61,11.44,27.02,5.66,40.71,5.6,40.85-.78,1.76,0,3.84,1.75,4.64,.71,.32,1.48,.39,2.19,.24Z"/><path class="f" d="M92.25,96.37l-6.69-2.16c-1.73,5.32-8.02,19.26-16.33,19.94-4.77,.39-12.7-3.49-23.38-24.18h0l-19.91,9.34,17.54,.9c5.29,8.9,10.52,14.93,15.78,18.17,3.5,2.15,7.01,3.07,10.55,2.78,6.38-.53,12.13-4.99,17.1-13.26,3.45-5.74,5.26-11.29,5.34-11.53Z"/><path class="f" d="M186.51,101.06c-38.09-25.86-66.37-21.01-67.61-20.78l1.28,6.92c.29-.05,31.54-3.56,69.53,24.39l9.36-19.91-12.56,9.38Z"/><polygon class="g" points="89.67 21.81 118.22 53.65 146.78 85.49 104.93 94.3 63.08 103.11 76.37 62.46 89.67 21.81"/><g><ellipse class="j" cx="114.9" cy="62" rx="3.16" ry="8.31" transform="translate(-10.31 25) rotate(-11.89)"/><ellipse class="j" cx="103.01" cy="64.5" rx="3.16" ry="8.31" transform="translate(-11.08 22.61) rotate(-11.89)"/></g><path class="e" d="M107.39,43.33s3.03-8.52,.7-9.24c-1.89-.59-2.77,6.5-3.02,6.46s1.64-9.27-1.05-9.51c-2.4-.22-2.07,7.85-2.75,7.77-.68-.08-.31-5.54-1.8-5.62-1.07-.06-1.1,1.22-1.13,3.02"/><ellipse class="i" cx="101.53" cy="63.77" rx="1.2" ry="2.08" transform="translate(-10.96 22.29) rotate(-11.89)"/><ellipse class="i" cx="113.39" cy="61.28" rx="1.2" ry="2.08" transform="translate(-10.19 24.68) rotate(-11.89)"/><path class="d" d="M93.95,56.25s-1.71-4.68,2.34-5.65"/><path class="d" d="M120.24,49.02s-.32-4.97-4.42-4.22"/><path class="f" d="M79.61,73.08c.14-.03,.29-.07,.43-.12,1.83-.64,2.81-2.64,2.17-4.47-.41-1.18-10.37-29.1-38.02-40.04-1.81-.71-3.85,.17-4.56,1.98-.71,1.81,.17,3.85,1.98,4.56,24.69,9.78,33.88,35.55,33.97,35.81,.59,1.69,2.33,2.65,4.04,2.29Z"/><path class="j" d="M111.58,87.56c5.39-7.04-26.58-27.92-23.98-10.9,1.78,11.66-2.6,18.63,7.94,12.49,10.49-6.11,13.09,2.27,16.04-1.59Z"/><g class="k"><path class="h" d="M105.53,87.89s-7.94-14.56-19.06-5.47c-11.12,9.09-1.76,11.21,.97,10.94,2.74-.26,18.09-5.47,18.09-5.47Z"/></g></svg>