<svg xmlns="http://www.w3.org/2000/svg" viewBox="0 0 150 150"><path d="M100.41 128.8a3.79 3.79 0 0 0 3.53-3.56c1.5-25.84-1.18-46.82-1.3-47.7a3.783 3.783 0 0 0-4.24-3.26c-2.07.27-3.54 2.17-3.26 4.24.03.21 2.71 21.19 1.25 46.28a3.783 3.783 0 0 0 3.56 4h.47Zm-50.63 0a3.79 3.79 0 0 1-3.56-3.53c-1.73-25.83.77-46.83.88-47.71a3.784 3.784 0 0 1 4.22-3.3c2.08.25 3.55 2.14 3.3 4.22-.03.21-2.52 21.21-.84 46.29a3.785 3.785 0 0 1-4 4.03Zm6.67 20.5h16.42l-3.99-6.25V81.81H61.3v61.15zm37.1 0H77.13l3.99-6.25V81.81h7.58v61.15z" style="stroke-linejoin:round;fill:#c5c6c8;stroke:#909395"/><path d="M75.82 1.44 99.4 42.28l23.57 40.83h-94.3l23.57-40.83z" style="stroke-linejoin:round;fill:#f89e4f;stroke:#593314"/><path d="M70.37 32.22s11.84-11 13.59-7.8c1.3 2.37-5.78 5.54-5.67 5.79s9.43-4.34 10.44-1.54c.91 2.49-7.79 4.4-7.52 5.11s6.49-1.67 7.25-.21c1.3 2.5-6.97 2.39-5.92 4.48" style="stroke:#593214;stroke-linecap:round;stroke-linejoin:round;fill:#f89e4f"/><ellipse cx="70.76" cy="52.21" rx="7.08" ry="3.15" style="fill:#593214" transform="rotate(-89.67 70.764 52.208)"/><ellipse cx="70.93" cy="49.39" rx="1.21" ry="2.11" style="fill:#fff" transform="rotate(-.1 68.715 45.897)"/><ellipse cx="80.88" cy="52.21" rx="7.08" ry="3.15" style="fill:#593214" transform="rotate(-89.67 80.884 52.209)"/><ellipse cx="81.05" cy="49.39" rx="1.21" ry="2.11" style="fill:#fff" transform="rotate(-.1 80.174 45.907)"/><path d="M95.73 47.28s.89 20.28-19.91 20.28-19.91-20.28-19.91-20.28" style="stroke:#593214;stroke-linecap:round;fill:none;stroke-miterlimit:10"/></svg>