<svg data-name="Layer 1" xmlns="http://www.w3.org/2000/svg" viewBox="0 0 225 150"><path d="M214.3 79.16a4.76 4.76 0 0 0-1.12.1c-33.58 7.15-66.59 1.25-66.92 1.19a4.75 4.75 0 0 0-1.72 9.34c1.42.26 35.14 6.31 70.62-1.24a4.75 4.75 0 0 0-.86-9.39ZM76.07 24a4.38 4.38 0 0 1 2.79-6c8.42-2.49 26.35-6.35 38.18 1.35 15.72 10.23 11.65 39.78 11.47 41l-8.71-1.25c1-7 1.58-26.46-7.56-32.41-8.48-5.52-23.32-2.6-30.88-.34A4.38 4.38 0 0 1 76.07 24ZM88.77 78.72c-26.56 3.85-52.33-1.18-61.86-3.34-4.91 4.4-20.83 6.78-20.83 6.78l20.51-17.64c10.48 6.35 34.27 9.79 56.41 6.79ZM102.07 101.72a3.91 3.91 0 0 1 1.58 4.38c-2.27 7.4-12.9 27.72-25.78 16.39a102.75 102.75 0 0 1-18-20.34c-8.9-1.28-22-5.76-22-5.76l23.53-5.24c6.95 10.91 10.32 14.92 17.47 22 9.78 9.71 15.68-4.54 17.34-9.48a3.91 3.91 0 0 1 5.86-2Z" style="stroke-linejoin:round;fill:#c4c5c7;stroke:#8f9294"/><path style="stroke:#593314;fill:#f89e4f;stroke-linejoin:round" d="m170.22 58.41-27.44 41.08-27.43 41.07-21.86-44.29-21.85-44.3 49.28 3.22 49.3 3.22z"/><path d="M158.71 73s10.1 2.66 10.7-.09c.49-2.23-7.74-2.56-7.72-2.85s10.82 1 10.85-2.13c0-2.78-9.24-1.63-9.21-2.42s6.34-.89 6.3-2.61c0-1.23-1.51-1.14-3.59-1" style="stroke:#593214;stroke-linecap:round;fill:#f89e4f;stroke-linejoin:round"/><ellipse cx="128.65" cy="80.13" rx="9.51" ry="4.49" transform="rotate(-25.51 128.61 80.127)" style="fill:#593314"/><ellipse cx="134.16" cy="90.08" rx="9.51" ry="4.49" transform="rotate(-25.51 134.14 90.063)" style="fill:#593314"/><ellipse cx="123.22" cy="79.51" rx="8.44" ry="4.5" transform="rotate(-76.56 123.224 79.511)" style="fill:#f89e4f"/><path d="M121.82 70.19c1.9 6.68-2.22 13.72-9.22 15.71a12.88 12.88 0 0 1-16.1-8.51M124 97.69a13.57 13.57 0 0 0-14.82 4.22" style="fill:none;stroke:#593214;stroke-linecap:round;stroke-linejoin:round"/><path d="M112.6 85.9s-3.38 7.23 3.31 11.59" style="fill:none;stroke:#593214;stroke-linecap:round;stroke-linejoin:round"/><ellipse cx="138.25" cy="89.9" rx="2.69" ry="1.51" transform="rotate(-33.28 138.256 89.906)" style="fill:#fff"/><ellipse cx="133.08" cy="79.59" rx="2.69" ry="1.51" transform="rotate(-33.28 133.083 79.594)" style="fill:#fff"/></svg>