<svg data-name="Layer 1" xmlns="http://www.w3.org/2000/svg" viewBox="0 0 225 150"><defs><clipPath id="a"><path d="M111.58 87.56c5.39-7-26.58-27.92-24-10.9 1.78 11.66-2.6 18.63 7.94 12.49s13.11 2.26 16.06-1.59Z" style="fill:none"/></clipPath></defs><path d="M116.43 58.45a3.5 3.5 0 0 0 2.45-1.94c.3-.66 7.29-16.29-5.51-46.53a3.52 3.52 0 0 0-6.48 2.74c11.44 27 5.66 40.71 5.6 40.85a3.52 3.52 0 0 0 3.94 4.88ZM92.25 96.37l-6.7-2.16c-1.72 5.32-8 19.26-16.33 19.94-4.77.39-12.7-3.49-23.38-24.18l-19.91 9.34 17.54.9c5.29 8.9 10.52 14.93 15.78 18.17a17.17 17.17 0 0 0 10.56 2.78c6.37-.53 12.13-5 17.1-13.26a62.61 62.61 0 0 0 5.34-11.53ZM186.51 101.06c-38.09-25.86-66.37-21-67.6-20.78l1.27 6.92c.29 0 31.54-3.56 69.53 24.39l9.36-19.91Z" style="stroke-linejoin:round;fill:#c5c6c8;stroke:#909395"/><path style="stroke:#593314;fill:#f89e4f;stroke-linejoin:round" d="m89.67 21.81 28.55 31.84 28.56 31.84-41.85 8.81-41.85 8.81 13.29-40.65 13.3-40.65z"/><ellipse cx="114.9" cy="62" rx="3.16" ry="8.31" transform="rotate(-11.89 114.883 62.004)" style="fill:#593314"/><ellipse cx="103.01" cy="64.5" rx="3.16" ry="8.31" transform="rotate(-11.89 103.022 64.506)" style="fill:#593314"/><path d="M107.39 43.33s3-8.52.7-9.24c-1.89-.59-2.77 6.5-3 6.45s1.63-9.26-1-9.51c-2.4-.22-2.08 7.85-2.76 7.77s-.31-5.54-1.79-5.62c-1.07-.07-1.1 1.21-1.13 3" style="stroke-linecap:round;stroke:#593214;fill:#f89e4f;stroke-linejoin:round"/><ellipse cx="101.53" cy="63.77" rx="1.2" ry="2.08" transform="rotate(-11.89 101.546 63.77)" style="fill:#fff"/><ellipse cx="113.39" cy="61.28" rx="1.2" ry="2.08" transform="rotate(-11.89 113.406 61.267)" style="fill:#fff"/><path d="M94 56.25s-1.71-4.67 2.34-5.64M120.24 49s-.33-5-4.42-4.22" style="stroke-linecap:round;stroke:#593314;stroke-linejoin:round;fill:none"/><path d="M79.61 73.08A3.45 3.45 0 0 0 80 73a3.51 3.51 0 0 0 2.17-4.48c-.41-1.18-10.37-29.09-38-40A3.52 3.52 0 0 0 41.6 35c24.69 9.77 33.88 35.55 34 35.81a3.51 3.51 0 0 0 4.01 2.27Z" style="stroke-linejoin:round;fill:#c5c6c8;stroke:#909395"/><path d="M111.58 87.56c5.39-7-26.58-27.92-24-10.9 1.78 11.66-2.6 18.63 7.94 12.49s13.11 2.26 16.06-1.59Z" style="fill:#593314"/><g style="clip-path:url(#a)"><path d="M105.53 87.89s-7.94-14.56-19-5.47-1.77 11.2 1 10.94 18-5.47 18-5.47Z" style="fill:#f05124"/></g></svg>