<svg xmlns="http://www.w3.org/2000/svg" viewBox="0 0 225 150"><defs><clipPath id="a"><path d="M111.58 87.56c5.39-7.04-26.58-27.92-23.98-10.9 1.78 11.66-2.6 18.63 7.94 12.49 10.49-6.11 13.09 2.27 16.04-1.59" style="fill:none"/></clipPath></defs><path d="M116.43 58.45a3.49 3.49 0 0 0 2.45-1.94c.3-.65 7.29-16.29-5.52-46.53a3.51 3.51 0 0 0-4.61-1.87 3.524 3.524 0 0 0-1.87 4.61c11.44 27.02 5.66 40.71 5.6 40.85-.78 1.76 0 3.84 1.75 4.64.71.32 1.48.39 2.19.24ZM92.25 96.37l-6.69-2.16c-1.73 5.32-8.02 19.26-16.33 19.94-4.77.39-12.7-3.49-23.38-24.18l-19.91 9.34 17.54.9c5.29 8.9 10.52 14.93 15.78 18.17 3.5 2.15 7.01 3.07 10.55 2.78 6.38-.53 12.13-4.99 17.1-13.26 3.45-5.74 5.26-11.29 5.34-11.53Zm94.26 4.69c-38.09-25.86-66.37-21.01-67.61-20.78l1.28 6.92c.29-.05 31.54-3.56 69.53 24.39l9.36-19.91z" style="stroke-linejoin:round;fill:#c5c6c8;stroke:#909395"/><path d="m89.67 21.81 28.55 31.84 28.56 31.84-41.85 8.81-41.85 8.81 13.29-40.65z" style="stroke-linejoin:round;stroke:#593314;fill:#f89e4f"/><ellipse cx="114.9" cy="62" rx="3.16" ry="8.31" style="fill:#593314" transform="rotate(-11.89 114.883 62.004)"/><ellipse cx="103.01" cy="64.5" rx="3.16" ry="8.31" style="fill:#593314" transform="rotate(-11.89 103.022 64.506)"/><path d="M107.39 43.33s3.03-8.52.7-9.24c-1.89-.59-2.77 6.5-3.02 6.46s1.64-9.27-1.05-9.51c-2.4-.22-2.07 7.85-2.75 7.77s-.31-5.54-1.8-5.62c-1.07-.06-1.1 1.22-1.13 3.02" style="stroke-linecap:round;stroke-linejoin:round;stroke:#593214;fill:#f89e4f"/><ellipse cx="101.53" cy="63.77" rx="1.2" ry="2.08" style="fill:#fff" transform="rotate(-11.89 101.546 63.77)"/><ellipse cx="113.39" cy="61.28" rx="1.2" ry="2.08" style="fill:#fff" transform="rotate(-11.89 113.406 61.267)"/><path d="M93.95 56.25s-1.71-4.68 2.34-5.65m23.95-1.58s-.32-4.97-4.42-4.22" style="fill:none;stroke-linecap:round;stroke-linejoin:round;stroke:#593314"/><path d="M79.61 73.08c.14-.03.29-.07.43-.12 1.83-.64 2.81-2.64 2.17-4.47-.41-1.18-10.37-29.1-38.02-40.04-1.81-.71-3.85.17-4.56 1.98s.17 3.85 1.98 4.56C66.3 44.77 75.49 70.54 75.58 70.8a3.516 3.516 0 0 0 4.04 2.29Z" style="stroke-linejoin:round;fill:#c5c6c8;stroke:#909395"/><path d="M111.58 87.56c5.39-7.04-26.58-27.92-23.98-10.9 1.78 11.66-2.6 18.63 7.94 12.49 10.49-6.11 13.09 2.27 16.04-1.59" style="fill:#593314"/><g style="clip-path:url(#a)"><path d="M105.53 87.89s-7.94-14.56-19.06-5.47-1.76 11.21.97 10.94c2.74-.26 18.09-5.47 18.09-5.47" style="fill:#f05124"/></g></svg>