<?xml version="1.0" encoding="UTF-8"?><svg xmlns="http://www.w3.org/2000/svg" xmlns:xlink="http://www.w3.org/1999/xlink" viewBox="0 0 150 150"><defs><style>.d,.e,.f,.g{fill:none;}.e,.h{stroke:#593214;}.e,.h,.f,.g{stroke-linecap:round;}.e,.h,.i,.j{stroke-linejoin:round;}.h,.j{fill:#f89e4f;}.k{fill:#855191;}.l{fill:#b78dc1;}.m{fill:#ceb1d5;}.n{fill:#70327e;}.f{stroke:#855191;stroke-width:2.52px;}.f,.g{stroke-miterlimit:10;}.f,.o{mix-blend-mode:multiply;opacity:.25;}.g{stroke:#70327e;stroke-width:1.64px;}.p{clip-path:url(#c);}.q{clip-path:url(#b);}.r{isolation:isolate;}.i{fill:#c5c6c8;stroke:#909395;}.j{stroke:#593314;}</style><clipPath id="b"><path class="d" d="M91.02,44.42h14.04c.96,0,1.75,.78,1.75,1.75v5.78c0,4.51-3.66,8.18-8.18,8.18h-1.18c-4.51,0-8.18-3.66-8.18-8.18v-5.78c0-.96,.78-1.75,1.75-1.75Z"/></clipPath><clipPath id="c"><path class="d" d="M68.59,44.42h14.04c.96,0,1.75,.78,1.75,1.75v5.78c0,4.51-3.66,8.18-8.18,8.18h-1.18c-4.51,0-8.18-3.66-8.18-8.18v-5.78c0-.96,.78-1.75,1.75-1.75Z"/></clipPath></defs><g class="r"><g id="a"><g><path class="i" d="M106.67,128.65c1.86-.27,3.28-1.89,3.24-3.82-.53-25.88-4.85-46.58-5.03-47.45-.43-2.05-2.44-3.35-4.49-2.92-2.05,.43-3.35,2.44-2.92,4.49,.04,.21,4.36,20.91,4.87,46.04,.04,2.09,1.77,3.75,3.86,3.71,.16,0,.32-.02,.47-.04Z"/><path class="i" d="M45.01,128.7c1.88,.1,3.59-1.21,3.93-3.11,4.62-25.47,4.49-46.62,4.48-47.51-.02-2.09-1.72-3.77-3.82-3.75-2.09,.02-3.77,1.73-3.75,3.82,0,.21,.12,21.36-4.36,46.09-.37,2.06,.99,4.03,3.05,4.4,.16,.03,.31,.05,.47,.06Z"/><polygon class="i" points="54.44 149.3 70.86 149.3 66.87 143.05 66.87 81.81 59.3 81.81 59.3 142.96 54.44 149.3"/><polygon class="i" points="113.76 149.3 98.48 143.05 91.57 81.81 84 81.81 91.62 149.3 113.76 149.3"/><polygon class="j" points="75 1.44 98.58 42.28 122.15 83.11 75 83.11 27.85 83.11 51.42 42.28 75 1.44"/><path class="h" d="M82.15,24.51s15.41-4.88,15.63-1.25c.16,2.7-7.59,2.53-7.6,2.82s10.37,.11,10.1,3.07c-.25,2.64-8.93,.65-8.98,1.41s6.58,1.27,6.64,2.91c.11,2.82-7.32-.81-7.27,1.52"/><path class="e" d="M61.86,52.95s3.55,18.86,26.24,11.4c8.35-2.74,6.4,1.64,6.4,1.64"/><path class="g" d="M76.38,48.78c-.2-.56-.79-.97-1.49-.97s-1.29,.41-1.49,.97"/><g class="o"><path class="k" d="M98.99,63.09h0c-5.52,0-10-4.48-10-10v-5.78c0-1.18,.96-2.13,2.13-2.13h7.89c1.18,0,6.78,7.66,9.32,11.49-1.44,3.76-5.08,6.42-9.34,6.42Z"/></g><g class="o"><path class="k" d="M83.49,45.17h-15.73c-1.18,0-2.13,.96-2.13,2.13v2.74c-1.6-2.14-3.44-4.56-3.74-4.59-.48-.05-10.41-5.13-10.52-1.76,0,0,10.47,5.48,14.31,10.41,.52,5.04,4.77,8.97,9.95,8.97h0c5.52,0,10-4.48,10-10v-5.78c0-1.18-.96-2.13-2.13-2.13Z"/></g><path class="n" d="M63.87,50.81c-2.21-1.79-15.3-11.97-16.29-6.18-.04,.44-.44,.76-.88,.69-.8-.14-.62-1-.59-1.59,.19-2.3,2.66-3.43,4.6-3.31,5.97,.37,11.1,3.08,16.32,5.7,1.38,.75,1.89,2.47,1.14,3.85-.83,1.56-2.96,1.97-4.31,.83h0Z"/><path class="f" d="M85.06,50.06s1.98-2.83,4.27,.27"/><g><g><g><path class="k" d="M98.63,60.12h-1.18c-4.52,0-8.18-3.66-8.18-8.18v-5.78c0-.96,.78-1.75,1.75-1.75h14.04c.96,0,1.75,.78,1.75,1.75v5.78c0,4.52-3.66,8.18-8.18,8.18Z"/><g class="q"><rect class="l" x="92.34" y="37.91" width="4.13" height="23.01" transform="translate(64.97 -53) rotate(46.33)"/><rect class="m" x="96.66" y="39.88" width="1.07" height="23.01" transform="translate(67.26 -54.4) rotate(46.33)"/></g><path class="n" d="M105.06,44.42c.96,0,1.75,.78,1.75,1.75v5.78c0,4.52-3.66,8.18-8.18,8.18h-1.18c-4.52,0-8.18-3.66-8.18-8.18v-5.78c0-.96,.78-1.75,1.75-1.75h14.04m0-1.51h-14.04c-1.8,0-3.26,1.46-3.26,3.26v5.78c0,5.34,4.35,9.69,9.69,9.69h1.18c5.34,0,9.69-4.35,9.69-9.69v-5.78c0-1.8-1.46-3.26-3.26-3.26h0Z"/></g><g><path class="k" d="M76.2,60.12h-1.18c-4.52,0-8.18-3.66-8.18-8.18v-5.78c0-.96,.78-1.75,1.75-1.75h14.04c.96,0,1.75,.78,1.75,1.75v5.78c0,4.52-3.66,8.18-8.18,8.18Z"/><g class="p"><rect class="l" x="69.92" y="37.91" width="4.13" height="23.01" transform="translate(58.03 -36.78) rotate(46.33)"/><rect class="m" x="74.23" y="39.88" width="1.07" height="23.01" transform="translate(60.32 -38.18) rotate(46.33)"/></g><path class="n" d="M82.64,44.42c.96,0,1.75,.78,1.75,1.75v5.78c0,4.52-3.66,8.18-8.18,8.18h-1.18c-4.52,0-8.18-3.66-8.18-8.18v-5.78c0-.96,.78-1.75,1.75-1.75h14.04m0-1.51h-14.04c-1.8,0-3.26,1.46-3.26,3.26v5.78c0,5.34,4.35,9.69,9.69,9.69h1.18c5.34,0,9.69-4.35,9.69-9.69v-5.78c0-1.8-1.46-3.26-3.26-3.26h0Z"/></g></g><path class="g" d="M85.34,48.78c.2-.56,.79-.97,1.49-.97s1.29,.41,1.49,.97"/></g></g></g></g></svg>