<?xml version="1.0" encoding="UTF-8"?><svg id="a" xmlns="http://www.w3.org/2000/svg" viewBox="0 0 150 150"><defs><style>.b,.c{fill:none;}.b,.c,.d{stroke-linecap:round;}.b,.c,.d,.e,.f{stroke-linejoin:round;}.b,.f{stroke:#593314;}.c,.d{stroke:#593214;}.d,.f{fill:#f89e4f;}.g{fill:#fff;}.h{fill:#593214;}.e{fill:#c5c6c8;stroke:#909395;}</style></defs><path class="e" d="M78.33,75.65c6.96,9.86,22.86,35.43,35.53,56.35,4.46-1.88,15.48-7.08,15.48-7.08l-16.91,23.31c-12.9-24.19-33.71-57-41.24-67.47-1.57-2.19-.83-5.26,1.58-6.47h0c1.94-.98,4.3-.4,5.55,1.37Z"/><path class="e" d="M117.57,106.41c-1.16,.38-2.47,.25-3.56-.48-.89-.6-21.85-14.92-33.01-44.67-.79-2.12,.28-4.47,2.39-5.27,2.11-.79,4.47,.28,5.27,2.39,10.2,27.19,29.72,40.62,29.92,40.75,1.87,1.26,2.37,3.8,1.11,5.68-.53,.78-1.28,1.32-2.11,1.6Z"/><polygon class="f" points="66.72 .66 91.55 41.59 116.37 82.51 68.52 83.55 20.66 84.58 43.69 42.62 66.72 .66"/><path class="e" d="M42,113.65c.72,.37,1.55,.53,2.42,.41,2.24-.3,3.81-2.36,3.5-4.6-2.86-21.12,12.86-49.13,13.01-49.41,1.11-1.96,.43-4.46-1.54-5.58-1.97-1.12-4.46-.43-5.58,1.53-.71,1.24-17.24,30.67-14.01,54.55,.19,1.38,1.04,2.5,2.19,3.09Z"/><path class="b" d="M67.51,43.94s.82,12.85,16.89,7.1"/><ellipse class="h" cx="72.86" cy="38.35" rx="3.15" ry="7.08" transform="translate(-1.84 3.72) rotate(-2.89)"/><ellipse class="g" cx="71.82" cy="35.83" rx="2.11" ry="1.21" transform="translate(30.64 104.72) rotate(-85.64)"/><ellipse class="h" cx="82.27" cy="38.35" rx="3.15" ry="7.08" transform="translate(-1.83 4.2) rotate(-2.89)"/><ellipse class="g" cx="81.22" cy="35.83" rx="2.11" ry="1.21" transform="translate(39.33 114.1) rotate(-85.64)"/><path class="c" d="M67.77,32.34s-.56-3.34,2.3-4.37"/><path class="d" d="M73.65,15.18s14.59-2.79,14.31,.96c-.17,2.21-7.82,.55-7.86,1.75-.01,.29,10.67,1.27,10.48,4.29-.16,2.69-9.22-2.27-9.2,.22,0,.77,7.41,2.41,6.17,4.43-.99,1.62-3.2-1.11-6.82-.43"/><path class="e" d="M65.08,81.16c3.02,11.83,7.11,36.53-.14,59.71,4.06,2.62,14.39,8.66,14.39,8.66l-27.52-.22c12.68-25.87,8.68-49.63,4.25-65.77-.82-2.98,1.43-5.91,4.51-5.9h0c2.13,0,3.98,1.45,4.51,3.51Z"/></svg>