<svg xmlns="http://www.w3.org/2000/svg" viewBox="0 0 225 150"><path d="M109.84 69.5C102 75.04 80.49 88.56 51.66 89.23c-7.75 5.21-20.32 10.46-20.32 10.46L44.5 78.57c34.95 3.29 57.79-14.39 62.43-17.84M202.89 65.42a4.989 4.989 0 0 0-3.33-.13c-27.38 8.49-59.56 4.48-59.88 4.44a5.005 5.005 0 0 0-5.61 4.33c-.35 2.74 1.58 5.26 4.33 5.61 1.4.18 34.63 4.34 64.14-4.81a5.013 5.013 0 0 0 .35-9.45Z" style="fill:#c5c6c8;stroke:#909395;stroke-linejoin:round"/><path style="fill:#f89e4f;stroke:#593314;stroke-linejoin:round" d="m176.53 44.55-39.34 36.36-39.34 36.37-11.82-52.26-11.82-52.25 51.16 15.89 51.16 15.89z"/><path d="M189.04 17.8c-.53-.2-1.11-.32-1.71-.32-1.41-.02-34.9-.36-63.17 12.1a5.027 5.027 0 0 0-2.57 6.61 5.014 5.014 0 0 0 6.61 2.56c26.29-11.59 58.66-11.26 58.98-11.25 2.77.04 5.04-2.17 5.09-4.94a5.021 5.021 0 0 0-3.23-4.76ZM101.52 41.24c3.31.94 5.22 4.43 4.2 7.72-2.85 9.24-9.98 24.01-18.46 23.43-7.63-.52-20.3-13.84-27.95-20.46-8.84 3.02-18.4 3.07-18.4 3.07l20.26-15.78c3.08 3.18 13.27 12.11 19.92 17.84 7.93 6.82 11.18-2.87 12.7-11 .67-3.57 4.25-5.8 7.74-4.81Z" style="fill:#c5c6c8;stroke:#909395;stroke-linejoin:round"/><path d="M135.22 51.72c-4.72 3.28-4.73 5.29-3.48 7.08 1.25 1.79 3.28 2.69 8-.59 4.72-3.28 7.53-7.4 6.28-9.19s-6.08-.59-10.8 2.7Z" style="fill:#593314"/><path d="M158.69 56.86s14.41 8.29 15.48 4.22c.63-2.4-8.07-3.44-7.67-4.72.09-.31 11.74 2.56 12.66-.7.81-2.9-10.58-.97-9.65-3.6.29-.81 8.72.16 8.15-2.43-.46-2.07-3.79 0-7.37-2.04" style="fill:#f89e4f;stroke:#593214;stroke-linejoin:round;stroke-linecap:round"/><ellipse cx="140" cy="55.27" rx="2.36" ry="1.36" transform="rotate(-38.69 140.01 55.265)" style="fill:#fff"/><path d="M142.23 60.89c-4.72 3.28-4.73 5.29-3.48 7.08s3.28 2.69 8-.59c4.72-3.28 7.53-7.4 6.28-9.19-1.25-1.79-6.08-.59-10.8 2.7Z" style="fill:#593314"/><ellipse cx="147" cy="64.44" rx="2.36" ry="1.36" transform="rotate(-38.69 147.011 64.442)" style="fill:#fff"/><path d="M143.09 44.02s6.91-1.13 6.77 5.73M156.33 67.07s5.26-4.62-.12-8.87" style="stroke:#593214;fill:none;stroke-linejoin:round;stroke-linecap:round"/><path d="M119.85 61.42s7.05-.15 7.34-3.83-6.48-3.21-6.48-3.21-1.89 3.64-.86 7.04" style="fill:#f05124"/><path style="stroke:#c42f00;stroke-width:.42px;fill:none;stroke-linejoin:round;stroke-linecap:round" d="m119.69 57.56 6.2.05"/><path d="M127.86 46s-19.73 13.35 1.12 24.79c7.89 4.33-.36 7.23-.36 7.23" style="stroke:#593314;fill:none;stroke-linejoin:round;stroke-linecap:round"/><path style="fill:none;stroke-linejoin:round;stroke-linecap:round;stroke:#2dc5f4" d="m58.87 26.7 12.7-2.17M53.15 27.68l5.72-.98M46.31 28.85l2.87-.49M145.73 92.9l12.7-2.17M137.94 94.23l4.01-.68M133.18 95.05l1.09-.19M23.44 101.36l3.98-.69M18.94 102.13l.6-.11M30 56.52l6.84-1.17M25.09 57.36l1.97-.34M20.85 58.09l.62-.11M82.14 114.78l9.25-1.58M75.33 115.95l2.9-.5M69.67 116.92l1.63-.28"/></svg>