<?xml version="1.0" encoding="UTF-8"?><svg id="a" xmlns="http://www.w3.org/2000/svg" viewBox="0 0 275 150"><defs><style>.b,.c,.d{fill:none;}.b,.c,.d,.e,.f,.g,.h{stroke:#0b6a88;}.b,.d{stroke-linecap:round;}.b,.h{stroke-linejoin:round;}.c{stroke-width:6px;}.c,.d,.e,.f,.g{stroke-miterlimit:10;}.i{fill:#0b6a88;}.e{fill:#fccea7;}.f{fill:#85b4c3;}.g,.h{fill:#f89e4f;}</style></defs><ellipse class="g" cx="231.04" cy="108.88" rx="26.92" ry="14.38" transform="translate(64.13 302.2) rotate(-74.43)"/><g><ellipse class="g" cx="221.34" cy="108.88" rx="14.38" ry="26.92" transform="translate(-19.42 55.19) rotate(-13.62)"/><ellipse class="i" cx="224.55" cy="110.11" rx="7.09" ry="21.37" transform="translate(-19.62 55.98) rotate(-13.62)"/></g><path class="f" d="M112.2,118.41v17.66l-14.79-2.17c-2.71,0-4.91-2.2-4.91-4.91v-3.48c0-2.71,2.2-4.91,4.91-4.91l14.79-2.17Z"/><path class="c" d="M92.5,127.69h0c-26.96,0-48.81-21.85-48.81-48.81h0c0-12.75-10.33-23.08-23.08-23.08H12.4"/><line class="b" x1="107.83" y1="138.11" x2="107.83" y2="116.36"/><line class="b" x1="102.72" y1="137.02" x2="102.72" y2="117.45"/><line class="b" x1="97.61" y1="136.48" x2="97.61" y2="117.99"/><path class="h" d="M250.48,110.82l-132.17-7.61c-3.31-.19-6.11,2.45-6.11,5.77v38.28H255.93v-30.67c0-3.06-2.39-5.59-5.44-5.77Z"/><path class="e" d="M123.32,103.98l-.16,2.52c0,1.87,1.46,3.42,3.33,3.53l51.25,2.95c2.03,.12,3.74-1.5,3.74-3.53l.12-2.16"/><ellipse class="i" cx="245.23" cy="123.24" rx="3.79" ry="6.93"/><path class="i" d="M250.89,134c0,1.84,2.26,3.34,5.04,3.34v-6.68c-2.78,0-5.04,1.49-5.04,3.34Z"/><g><path class="d" d="M167.15,141.51c.67,1.43,1.04,3.02,1.04,4.7"/><path class="d" d="M163.62,141.51c.67,1.43,1.04,3.02,1.04,4.7"/><path class="b" d="M148.24,124.59c5.81,0,10.51,4.71,10.51,10.51h3.85c6.13,0,11.1,4.97,11.1,11.1"/></g><g><path class="d" d="M219.26,141.51c.67,1.43,1.04,3.02,1.04,4.7"/><path class="d" d="M215.72,141.51c.67,1.43,1.04,3.02,1.04,4.7"/><path class="b" d="M200.12,135.1h14.58c6.13,0,11.1,4.97,11.1,11.1"/></g><g><line class="b" x1="242.61" y1="133.43" x2="227.64" y2="133.19"/><line class="b" x1="242.61" y1="133.43" x2="229.13" y2="125.23"/></g><ellipse class="i" cx="255.93" cy="133.19" rx="6.67" ry="4.32"/></svg>