<svg xmlns="http://www.w3.org/2000/svg" viewBox="0 0 150 150"><path d="M109.19 31.22c2.63-8.68 11.77-31.91 30.94-16.38s-1.65 29.29-9.6 33.67" style="stroke:#0b6a88;stroke-linejoin:round;stroke-linecap:round;fill:#f89e4f"/><path d="M127.38 42.08c.49.4 1.17.47 1.73.18 4.25-2.19 20.86-11.84 7.3-22.83-13.57-10.99-19.56 7.27-20.82 11.88-.17.61.05 1.26.54 1.66z" style="fill:#0b6a88"/><path d="M77.37 31.22C74.74 22.54 65.6-.69 46.43 14.84s1.65 29.29 9.6 33.67" style="stroke:#0b6a88;stroke-linejoin:round;stroke-linecap:round;fill:#f89e4f"/><path d="M59.18 42.08c-.49.4-1.17.47-1.73.18-4.25-2.19-20.86-11.84-7.3-22.83C63.72 8.44 69.71 26.7 70.97 31.31c.17.61-.05 1.26-.54 1.66z" style="fill:#0b6a88"/><path d="M74.02 142.69H58.3c-29.99 0-54.31-24.32-54.31-54.31s0-28.02 20.54-28.02" style="stroke:#0b6a88;fill:none;stroke-width:6px;stroke-miterlimit:10"/><path d="M63.84 30.2h58.87c4.35 0 7.96 3.35 8.29 7.68l7.8 103.18c.36 4.82-3.45 8.94-8.29 8.94H56.04c-4.84 0-8.65-4.11-8.29-8.94l7.8-103.18a8.313 8.313 0 0 1 8.29-7.68Z" style="stroke:#0b6a88;stroke-miterlimit:10;fill:#f89e4f"/><ellipse cx="79.03" cy="56.4" rx="4.17" ry="7.62" style="fill:#0b6a88"/><ellipse cx="107.53" cy="56.4" rx="4.17" ry="7.62" style="fill:#0b6a88"/><path d="m103.94 71.56 18.22 4.33m-18.22-4.33 18.09-5.35m-39.41 5.35-18.23 4.33m18.23-4.33-18.1-5.35" style="stroke:#0b6a88;fill:none;stroke-linejoin:round;stroke-linecap:round"/><ellipse cx="93.28" cy="70.72" rx="5.56" ry="3.6" style="fill:#0b6a88"/><path d="M65.82 149.38c0-3.75 3.05-6.79 6.79-6.78s6.79 3.05 6.78 6.79" style="stroke:#0b6a88;fill:none;stroke-linecap:round;stroke-miterlimit:10"/><path d="m69.97 146.71-.01 2.84m5.31-2.84v2.85" style="stroke:#0b6a88;fill:none;stroke-linejoin:round;stroke-linecap:round"/><path d="M120.73 149.38c0-3.75-3.05-6.79-6.79-6.78-3.75 0-6.79 3.05-6.78 6.79" style="stroke:#0b6a88;fill:none;stroke-linecap:round;stroke-miterlimit:10"/><path d="M116.59 146.71v2.84m-5.3-2.84v2.85" style="stroke:#0b6a88;fill:none;stroke-linejoin:round;stroke-linecap:round"/><path d="M79.4 97.61v10.04a6.79 6.79 0 0 1-13.58 0V97.61" style="stroke:#0b6a88;stroke-linejoin:round;stroke-linecap:round;fill:#f89e4f"/><path d="m75.26 113.88.01-5.76m-5.31 5.76v-5.76" style="stroke:#0b6a88;fill:none;stroke-linejoin:round;stroke-linecap:round"/><path d="M120.73 97.61v10.04a6.79 6.79 0 0 1-13.58 0V97.61" style="stroke:#0b6a88;stroke-linejoin:round;stroke-linecap:round;fill:#f89e4f"/><path d="M116.6 113.88v-5.76m-5.31 5.76v-5.76" style="stroke:#0b6a88;fill:none;stroke-linejoin:round;stroke-linecap:round"/></svg>