<svg data-name="Layer 1" xmlns="http://www.w3.org/2000/svg" viewBox="0 0 150 150"><path d="M109.19 31.22c2.62-8.68 11.81-31.91 30.94-16.38s-1.66 29.29-9.6 33.67" style="stroke-linejoin:round;stroke-linecap:round;stroke:#0b6a88;fill:#f89e4f"/><path d="M127.38 42.08a1.58 1.58 0 0 0 1.73.18c4.25-2.19 20.86-11.84 7.3-22.83s-19.56 7.27-20.82 11.88a1.6 1.6 0 0 0 .54 1.66Z" style="fill:#0b6a88"/><path d="M77.37 31.22C74.74 22.54 65.61-.69 46.43 14.84S48.09 44.13 56 48.51" style="stroke-linejoin:round;stroke-linecap:round;stroke:#0b6a88;fill:#f89e4f"/><path d="M59.18 42.08a1.58 1.58 0 0 1-1.73.18c-4.25-2.19-20.87-11.84-7.3-22.83S69.71 26.7 71 31.31a1.62 1.62 0 0 1-.57 1.69Z" style="fill:#0b6a88"/><path d="M74 142.69H58.3A54.32 54.32 0 0 1 4 88.38s0-28 20.54-28" style="stroke-width:6px;stroke-miterlimit:10;fill:none;stroke:#0b6a88"/><path d="M63.84 30.2h58.88a8.3 8.3 0 0 1 8.28 7.68l7.81 103.18a8.31 8.31 0 0 1-8.29 8.94H56a8.31 8.31 0 0 1-8.29-8.94l7.8-103.18a8.31 8.31 0 0 1 8.33-7.68Z" style="stroke-miterlimit:10;stroke:#0b6a88;fill:#f89e4f"/><ellipse cx="79.03" cy="56.4" rx="4.17" ry="7.62" style="fill:#0b6a88"/><ellipse cx="107.53" cy="56.4" rx="4.17" ry="7.62" style="fill:#0b6a88"/><path style="fill:none;stroke-linejoin:round;stroke-linecap:round;stroke:#0b6a88" d="m103.94 71.56 18.22 4.33M103.94 71.56l18.09-5.35M82.62 71.56l-18.23 4.33M82.62 71.56l-18.1-5.35"/><ellipse cx="93.28" cy="70.72" rx="5.56" ry="3.6" style="fill:#0b6a88"/><path d="M65.82 149.38a6.79 6.79 0 1 1 13.58 0" style="stroke-miterlimit:10;fill:none;stroke-linecap:round;stroke:#0b6a88"/><path style="fill:none;stroke-linejoin:round;stroke-linecap:round;stroke:#0b6a88" d="m69.97 146.71-.01 2.84M75.27 146.71v2.85"/><path d="M120.73 149.38a6.79 6.79 0 1 0-13.57 0" style="stroke-miterlimit:10;fill:none;stroke-linecap:round;stroke:#0b6a88"/><path style="fill:none;stroke-linejoin:round;stroke-linecap:round;stroke:#0b6a88" d="M116.59 146.71v2.84M111.29 146.71v2.85"/><path d="M79.4 97.61v10a6.79 6.79 0 0 1-13.58 0v-10" style="stroke-linejoin:round;stroke-linecap:round;stroke:#0b6a88;fill:#f89e4f"/><path style="fill:none;stroke-linejoin:round;stroke-linecap:round;stroke:#0b6a88" d="m75.26 113.88.01-5.76M69.96 113.88v-5.76"/><path d="M120.73 97.61v10a6.79 6.79 0 1 1-13.57 0v-10" style="stroke-linejoin:round;stroke-linecap:round;stroke:#0b6a88;fill:#f89e4f"/><path style="fill:none;stroke-linejoin:round;stroke-linecap:round;stroke:#0b6a88" d="M116.6 113.88v-5.76M111.29 113.88v-5.76"/></svg>