<svg id="Layer_1" data-name="Layer 1" xmlns="http://www.w3.org/2000/svg" viewBox="0 0 265 150"><defs><style>.cls-1,.cls-8{fill:#f89e4f;}.cls-1,.cls-2,.cls-3,.cls-4,.cls-5,.cls-7,.cls-8{stroke:#0b6a88;}.cls-1,.cls-3,.cls-4,.cls-5,.cls-7{stroke-miterlimit:10;}.cls-2,.cls-3,.cls-5{fill:none;}.cls-2,.cls-5,.cls-8{stroke-linecap:round;}.cls-2,.cls-8{stroke-linejoin:round;}.cls-3{stroke-width:6px;}.cls-4{fill:#85b4c3;}.cls-6{fill:#0b6a88;}.cls-7{fill:#fab67b;}</style></defs><path class="cls-1" d="M108.16,25a8.16,8.16,0,0,0,10.44,4.92L139,22.56A8.16,8.16,0,0,0,133.45,7.2l-20.37,7.31A8.17,8.17,0,0,0,108.16,25Z"/><line class="cls-2" x1="144.33" y1="15.35" x2="137.82" y2="17.69"/><line class="cls-2" x1="142.17" y1="9.35" x2="135.66" y2="11.69"/><path class="cls-1" d="M194.74,36.45a8.15,8.15,0,0,0,11.34,2.12l17.85-12.23a8.16,8.16,0,1,0-9.22-13.46L196.86,25.11a8.15,8.15,0,0,0-2.12,11.34Z"/><line class="cls-2" x1="227.3" y1="18" x2="221.59" y2="21.92"/><line class="cls-2" x1="223.69" y1="12.74" x2="217.98" y2="16.66"/><path class="cls-1" d="M108.16,125.07a8.17,8.17,0,0,1,10.44-4.92L139,127.46a8.16,8.16,0,0,1-5.52,15.36l-20.37-7.31a8.16,8.16,0,0,1-4.92-10.44Z"/><line class="cls-2" x1="144.33" y1="134.67" x2="137.82" y2="132.33"/><line class="cls-2" x1="142.17" y1="140.67" x2="135.66" y2="138.33"/><path class="cls-1" d="M194.74,113.57a8.15,8.15,0,0,1,11.34-2.12l17.85,12.23a8.16,8.16,0,1,1-9.22,13.46l-17.85-12.22a8.16,8.16,0,0,1-2.12-11.35Z"/><line class="cls-2" x1="227.3" y1="132.02" x2="221.59" y2="128.1"/><line class="cls-2" x1="223.69" y1="137.28" x2="217.98" y2="133.36"/><line class="cls-2" x1="233.05" y1="83.64" x2="242.29" y2="109.69"/><line class="cls-2" x1="233.05" y1="83.64" x2="249.59" y2="99.15"/><line class="cls-2" x1="233.05" y1="66.38" x2="242.29" y2="40.33"/><line class="cls-2" x1="233.05" y1="66.38" x2="249.59" y2="50.87"/><path class="cls-3" d="M70,75.16H40.64A31.36,31.36,0,0,1,9.28,43.8V30.9"/><path class="cls-4" d="M89.05,66.31V84L74.23,81.83a4.93,4.93,0,0,1-4.92-4.93V73.42a4.93,4.93,0,0,1,4.92-4.93Z"/><line class="cls-5" x1="84.66" y1="86.05" x2="84.66" y2="64.27"/><line class="cls-5" x1="79.54" y1="84.97" x2="79.54" y2="65.35"/><line class="cls-5" x1="74.43" y1="84.42" x2="74.43" y2="65.9"/><path class="cls-1" d="M233.05,39.62V110.4a10,10,0,0,1-9.23,10l-124,9.38a10,10,0,0,1-10.74-10V30.25a10,10,0,0,1,10.74-10l124,9.38A10,10,0,0,1,233.05,39.62Z"/><ellipse class="cls-6" cx="212.9" cy="57.88" rx="9.16" ry="5.01"/><ellipse class="cls-6" cx="212.9" cy="92.14" rx="9.16" ry="5.01"/><path class="cls-7" d="M158.46,39.72V110.3a4.68,4.68,0,0,1-4.37,4.66L105,118.16a4.67,4.67,0,0,1-5-4.66v-77a4.67,4.67,0,0,1,5-4.66l49.09,3.2A4.68,4.68,0,0,1,158.46,39.72Z"/><ellipse class="cls-6" cx="232.95" cy="75.01" rx="4.33" ry="6.69"/><path class="cls-8" d="M200.93,34.56c-6.56-8.71-26.49-31.14-41.7-5.68s14,32.37,24.76,34"/><path class="cls-6" d="M184.89,54.34a1.92,1.92,0,0,1-1.88.93c-5.7-.72-28.45-4.74-17.69-22.75s25.09.11,28.41,4.79a1.91,1.91,0,0,1,.08,2.1Z"/><path class="cls-8" d="M200.93,115.46c-6.56,8.71-26.49,31.14-41.7,5.68s14-32.37,24.76-34"/><path class="cls-6" d="M184.89,95.68a1.92,1.92,0,0,0-1.88-.93c-5.7.72-28.45,4.74-17.69,22.75s25.09-.11,28.41-4.79a1.91,1.91,0,0,0,.08-2.1Z"/></svg>