<svg id="Layer_1" data-name="Layer 1" xmlns="http://www.w3.org/2000/svg" viewBox="0 0 275 150"><defs><style>.cls-1,.cls-6{fill:#f89e4f;}.cls-1,.cls-3,.cls-4,.cls-5,.cls-6,.cls-7,.cls-8{stroke:#0b6a88;}.cls-1,.cls-3,.cls-4,.cls-7,.cls-8{stroke-miterlimit:10;}.cls-2{fill:#0b6a88;}.cls-3{fill:#85b4c3;}.cls-4,.cls-5,.cls-8{fill:none;}.cls-4{stroke-width:6px;}.cls-5,.cls-8{stroke-linecap:round;}.cls-5,.cls-6{stroke-linejoin:round;}.cls-7{fill:#fccea7;}</style></defs><ellipse class="cls-1" cx="231.04" cy="108.88" rx="26.92" ry="14.38" transform="matrix(0.27, -0.96, 0.96, 0.27, 64.13, 302.2)"/><ellipse class="cls-1" cx="221.34" cy="108.88" rx="14.38" ry="26.92" transform="translate(-19.42 55.19) rotate(-13.62)"/><ellipse class="cls-2" cx="224.55" cy="110.11" rx="7.09" ry="21.37" transform="translate(-19.62 55.98) rotate(-13.62)"/><path class="cls-3" d="M112.2,118.41v17.65l-14.78-2.17A4.92,4.92,0,0,1,92.5,129V125.5a4.92,4.92,0,0,1,4.92-4.92Z"/><path class="cls-4" d="M92.5,127.69h0A48.82,48.82,0,0,1,43.69,78.88h0A23.08,23.08,0,0,0,20.61,55.8H12.4"/><line class="cls-5" x1="107.83" y1="138.11" x2="107.83" y2="116.36"/><line class="cls-5" x1="102.72" y1="137.02" x2="102.72" y2="117.45"/><line class="cls-5" x1="97.61" y1="136.48" x2="97.61" y2="117.99"/><path class="cls-6" d="M250.48,110.82l-132.17-7.61A5.77,5.77,0,0,0,112.2,109v38.29H255.93V116.58A5.77,5.77,0,0,0,250.48,110.82Z"/><path class="cls-7" d="M123.32,104l-.17,2.53a3.55,3.55,0,0,0,3.34,3.53L177.74,113a3.54,3.54,0,0,0,3.74-3.53l.11-2.16"/><ellipse class="cls-2" cx="245.23" cy="123.24" rx="3.79" ry="6.93"/><path class="cls-2" d="M250.89,134c0,1.85,2.25,3.34,5,3.34v-6.68C253.14,130.66,250.89,132.16,250.89,134Z"/><path class="cls-8" d="M167.15,141.51a11,11,0,0,1,1,4.69"/><path class="cls-8" d="M163.62,141.51a11.11,11.11,0,0,1,1,4.69"/><path class="cls-5" d="M148.24,124.59a10.52,10.52,0,0,1,10.51,10.51h3.85a11.1,11.1,0,0,1,11.11,11.1"/><path class="cls-8" d="M219.26,141.51a11.11,11.11,0,0,1,1,4.69"/><path class="cls-8" d="M215.72,141.51a11,11,0,0,1,1,4.69"/><path class="cls-5" d="M200.12,135.1h14.59a11.1,11.1,0,0,1,11.1,11.1"/><line class="cls-5" x1="242.61" y1="133.43" x2="227.64" y2="133.19"/><line class="cls-5" x1="242.61" y1="133.43" x2="229.13" y2="125.23"/><ellipse class="cls-2" cx="255.93" cy="133.19" rx="6.67" ry="4.32"/></svg>