<svg xmlns="http://www.w3.org/2000/svg" viewBox="0 0 150 150"><path d="M109.19 31.22c2.63-8.68 11.77-31.91 30.94-16.38 19.17 15.53-1.65 29.29-9.6 33.67" style="fill:#f89e4f;stroke-linecap:round;stroke-linejoin:round;stroke:#0b6a88"/><path d="M127.38 42.08c.49.4 1.17.47 1.73.18 4.25-2.19 20.86-11.84 7.3-22.83-13.57-10.99-19.56 7.27-20.82 11.88-.17.61.05 1.26.54 1.66l11.25 9.11Z" style="fill:#0b6a88"/><path d="M77.37 31.22C74.74 22.54 65.6-.69 46.43 14.84c-19.17 15.53 1.65 29.29 9.6 33.67" style="fill:#f89e4f;stroke-linecap:round;stroke-linejoin:round;stroke:#0b6a88"/><path d="M59.18 42.08c-.49.4-1.17.47-1.73.18-4.25-2.19-20.86-11.84-7.3-22.83C63.72 8.44 69.71 26.7 70.97 31.31c.17.61-.05 1.26-.54 1.66l-11.25 9.11Z" style="fill:#0b6a88"/><path d="M74.02 142.69H58.3c-29.99 0-54.31-24.32-54.31-54.31s0-28.02 20.54-28.02" style="stroke-miterlimit:10;stroke-width:6px;fill:none;stroke:#0b6a88"/><path d="M63.84 30.2h58.87c4.35 0 7.96 3.35 8.29 7.68l7.8 103.18c.36 4.82-3.45 8.94-8.29 8.94H56.04c-4.84 0-8.65-4.11-8.29-8.94l7.8-103.18a8.313 8.313 0 0 1 8.29-7.68Z" style="fill:#f89e4f;stroke-miterlimit:10;stroke:#0b6a88"/><ellipse cx="79.03" cy="56.4" rx="4.17" ry="7.62" style="fill:#0b6a88"/><ellipse cx="107.53" cy="56.4" rx="4.17" ry="7.62" style="fill:#0b6a88"/><path style="stroke-linecap:round;stroke-linejoin:round;fill:none;stroke:#0b6a88" d="m103.94 71.56 18.22 4.33M103.94 71.56l18.09-5.35M82.62 71.56l-18.23 4.33M82.62 71.56l-18.1-5.35"/><ellipse cx="93.28" cy="70.72" rx="5.56" ry="3.6" style="fill:#0b6a88"/><path d="M65.82 149.38c0-3.75 3.05-6.79 6.79-6.78s6.79 3.05 6.78 6.79" style="stroke-miterlimit:10;stroke-linecap:round;fill:none;stroke:#0b6a88"/><path style="stroke-linecap:round;stroke-linejoin:round;fill:none;stroke:#0b6a88" d="m69.97 146.71-.01 2.84M75.27 146.71v2.85"/><path d="M120.73 149.38c0-3.75-3.05-6.79-6.79-6.78-3.75 0-6.79 3.05-6.78 6.79" style="stroke-miterlimit:10;stroke-linecap:round;fill:none;stroke:#0b6a88"/><path style="stroke-linecap:round;stroke-linejoin:round;fill:none;stroke:#0b6a88" d="M116.59 146.71v2.84M111.29 146.71v2.85"/><path d="M79.4 97.61v10.04a6.79 6.79 0 0 1-13.58 0V97.61" style="fill:#f89e4f;stroke-linecap:round;stroke-linejoin:round;stroke:#0b6a88"/><path style="stroke-linecap:round;stroke-linejoin:round;fill:none;stroke:#0b6a88" d="m75.26 113.88.01-5.76M69.96 113.88v-5.76"/><path d="M120.73 97.61v10.04a6.79 6.79 0 0 1-13.58 0V97.61" style="fill:#f89e4f;stroke-linecap:round;stroke-linejoin:round;stroke:#0b6a88"/><path style="stroke-linecap:round;stroke-linejoin:round;fill:none;stroke:#0b6a88" d="M116.6 113.88v-5.76M111.29 113.88v-5.76"/></svg>