<?xml version="1.0" encoding="UTF-8"?><svg id="a" xmlns="http://www.w3.org/2000/svg" viewBox="0 0 265 150"><defs><style>.b,.c,.d,.e,.f,.g,.h{stroke:#0b6a88;}.b,.c,.e{fill:none;}.b,.d{stroke-linejoin:round;}.b,.d,.e{stroke-linecap:round;}.c{stroke-width:6px;}.c,.e,.f,.g,.h{stroke-miterlimit:10;}.d,.g{fill:#f89e4f;}.i{fill:#0b6a88;}.f{fill:#85b4c3;}.h{fill:#fab67b;}</style></defs><g><path class="g" d="M108.16,24.95c1.52,4.24,6.2,6.44,10.44,4.92l20.37-7.31c4.24-1.52,6.44-6.2,4.92-10.44-1.52-4.24-6.2-6.44-10.44-4.92l-20.36,7.31c-4.24,1.52-6.45,6.2-4.92,10.44h0Z"/><g><line class="b" x1="144.33" y1="15.35" x2="137.82" y2="17.69"/><line class="b" x1="142.17" y1="9.35" x2="135.66" y2="11.69"/></g></g><g><path class="g" d="M194.74,36.45c2.55,3.72,7.63,4.66,11.34,2.12l17.85-12.23c3.72-2.55,4.66-7.63,2.12-11.35s-7.63-4.66-11.35-2.12l-17.85,12.23c-3.72,2.55-4.67,7.63-2.12,11.35h0Z"/><g><line class="b" x1="227.3" y1="18" x2="221.59" y2="21.92"/><line class="b" x1="223.69" y1="12.74" x2="217.98" y2="16.66"/></g></g><g><path class="g" d="M108.16,125.07c1.52-4.24,6.2-6.44,10.44-4.92l20.37,7.31c4.24,1.52,6.44,6.2,4.92,10.44-1.52,4.24-6.2,6.44-10.44,4.92l-20.36-7.31c-4.24-1.52-6.45-6.2-4.92-10.44h0Z"/><g><line class="b" x1="144.33" y1="134.67" x2="137.82" y2="132.33"/><line class="b" x1="142.17" y1="140.67" x2="135.66" y2="138.33"/></g></g><g><path class="g" d="M194.74,113.57c2.55-3.72,7.63-4.66,11.34-2.12l17.85,12.23c3.72,2.55,4.66,7.63,2.12,11.35-2.55,3.72-7.63,4.66-11.35,2.12l-17.85-12.23c-3.72-2.55-4.67-7.63-2.12-11.35h0Z"/><g><line class="b" x1="227.3" y1="132.02" x2="221.59" y2="128.1"/><line class="b" x1="223.69" y1="137.28" x2="217.98" y2="133.36"/></g></g><g><line class="b" x1="233.05" y1="83.64" x2="242.29" y2="109.69"/><line class="b" x1="233.05" y1="83.64" x2="249.59" y2="99.15"/></g><g><line class="b" x1="233.05" y1="66.38" x2="242.29" y2="40.33"/><line class="b" x1="233.05" y1="66.38" x2="249.59" y2="50.87"/></g><g><path class="c" d="M69.97,75.16h-29.33c-17.32,0-31.36-14.04-31.36-31.36v-12.9"/><path class="f" d="M89.05,66.31v17.69l-14.81-2.18c-2.72,0-4.92-2.2-4.92-4.92v-3.49c0-2.72,2.2-4.92,4.92-4.92l14.81-2.18Z"/><line class="e" x1="84.66" y1="86.05" x2="84.66" y2="64.27"/><line class="e" x1="79.54" y1="84.97" x2="79.54" y2="65.35"/><line class="e" x1="74.43" y1="84.42" x2="74.43" y2="65.9"/></g><path class="g" d="M233.05,39.62V110.4c0,5.23-4.03,9.57-9.24,9.96l-124.03,9.38c-5.8,.44-10.74-4.15-10.74-9.96V30.25c0-5.81,4.95-10.4,10.74-9.96l124.03,9.38c5.21,.39,9.24,4.74,9.24,9.96Z"/><g><ellipse class="i" cx="212.9" cy="57.88" rx="9.16" ry="5.01"/><ellipse class="i" cx="212.9" cy="92.14" rx="9.16" ry="5.01"/></g><path class="h" d="M158.46,39.72V110.3c0,2.46-1.91,4.5-4.37,4.66l-49.09,3.2c-2.7,.18-4.98-1.96-4.98-4.66V36.52c0-2.7,2.28-4.84,4.98-4.66l49.09,3.2c2.46,.16,4.37,2.2,4.37,4.66Z"/><ellipse class="i" cx="232.95" cy="75.01" rx="4.33" ry="6.69"/><g><path class="d" d="M200.93,34.56c-6.56-8.71-26.48-31.15-41.7-5.69-15.21,25.46,13.99,32.38,24.76,34.02"/><path class="i" d="M184.89,54.34c-.39,.65-1.13,1.02-1.88,.92-5.7-.71-28.44-4.74-17.68-22.75,10.76-18.01,25.08,.11,28.41,4.79,.44,.62,.47,1.44,.08,2.1l-8.93,14.94Z"/></g><g><path class="d" d="M200.93,115.46c-6.56,8.71-26.48,31.15-41.7,5.69-15.21-25.46,13.99-32.38,24.76-34.02"/><path class="i" d="M184.89,95.68c-.39-.65-1.13-1.02-1.88-.92-5.7,.71-28.44,4.74-17.68,22.75,10.76,18.01,25.08-.11,28.41-4.79,.44-.62,.47-1.44,.08-2.1l-8.93-14.94Z"/></g></svg>