<svg xmlns="http://www.w3.org/2000/svg" viewBox="0 0 275 150"><ellipse cx="231.04" cy="108.88" rx="26.92" ry="14.38" style="stroke:#0b6a88;stroke-miterlimit:10;fill:#f89e4f" transform="rotate(-74.43 231.024 108.879)"/><ellipse cx="221.34" cy="108.88" rx="14.38" ry="26.92" style="stroke:#0b6a88;stroke-miterlimit:10;fill:#f89e4f" transform="rotate(-13.62 221.366 108.905)"/><ellipse cx="224.55" cy="110.11" rx="7.09" ry="21.37" style="fill:#0b6a88" transform="rotate(-13.62 224.573 110.137)"/><path d="M112.2 118.41v17.66l-14.79-2.17c-2.71 0-4.91-2.2-4.91-4.91v-3.48c0-2.71 2.2-4.91 4.91-4.91l14.79-2.17Z" style="stroke:#0b6a88;stroke-miterlimit:10;fill:#85b4c3"/><path d="M92.5 127.69c-26.96 0-48.81-21.85-48.81-48.81 0-12.75-10.33-23.08-23.08-23.08H12.4" style="fill:none;stroke:#0b6a88;stroke-width:6px;stroke-miterlimit:10"/><path d="M107.83 138.11v-21.75m-5.11 20.66v-19.57m-5.11 19.03v-18.49" style="fill:none;stroke:#0b6a88;stroke-linecap:round;stroke-linejoin:round"/><path d="m250.48 110.82-132.17-7.61a5.784 5.784 0 0 0-6.11 5.77v38.28h143.73v-30.67c0-3.06-2.39-5.59-5.44-5.77Z" style="stroke:#0b6a88;stroke-linejoin:round;fill:#f89e4f"/><path d="m123.32 103.98-.16 2.52c0 1.87 1.46 3.42 3.33 3.53l51.25 2.95c2.03.12 3.74-1.5 3.74-3.53l.12-2.16" style="stroke:#0b6a88;stroke-miterlimit:10;fill:#fccea7"/><ellipse cx="245.23" cy="123.24" rx="3.79" ry="6.93" style="fill:#0b6a88"/><path d="M250.89 134c0 1.84 2.26 3.34 5.04 3.34v-6.68c-2.78 0-5.04 1.49-5.04 3.34" style="fill:#0b6a88"/><path d="M167.15 141.51c.67 1.43 1.04 3.02 1.04 4.7m-4.57-4.7c.67 1.43 1.04 3.02 1.04 4.7" style="fill:none;stroke:#0b6a88;stroke-linecap:round;stroke-miterlimit:10"/><path d="M148.24 124.59c5.81 0 10.51 4.71 10.51 10.51h3.85c6.13 0 11.1 4.97 11.1 11.1" style="fill:none;stroke:#0b6a88;stroke-linecap:round;stroke-linejoin:round"/><path d="M219.26 141.51c.67 1.43 1.04 3.02 1.04 4.7m-4.58-4.7c.67 1.43 1.04 3.02 1.04 4.7" style="fill:none;stroke:#0b6a88;stroke-linecap:round;stroke-miterlimit:10"/><path d="M200.12 135.1h14.58c6.13 0 11.1 4.97 11.1 11.1m16.81-12.77-14.97-.24m14.97.24-13.48-8.2" style="fill:none;stroke:#0b6a88;stroke-linecap:round;stroke-linejoin:round"/><ellipse cx="255.93" cy="133.19" rx="6.67" ry="4.32" style="fill:#0b6a88"/></svg>