<svg xmlns="http://www.w3.org/2000/svg" viewBox="0 0 265 150"><path d="M108.16 24.95c1.52 4.24 6.2 6.44 10.44 4.92l20.37-7.31c4.24-1.52 6.44-6.2 4.92-10.44s-6.2-6.44-10.44-4.92l-20.36 7.31c-4.24 1.52-6.45 6.2-4.92 10.44Z" style="stroke:#0b6a88;stroke-miterlimit:10;fill:#f89e4f"/><path d="m144.33 15.35-6.51 2.34m4.35-8.34-6.51 2.34" style="stroke:#0b6a88;fill:none;stroke-linejoin:round;stroke-linecap:round"/><path d="M194.74 36.45a8.16 8.16 0 0 0 11.34 2.12l17.85-12.23c3.72-2.55 4.66-7.63 2.12-11.35s-7.63-4.66-11.35-2.12L196.85 25.1a8.163 8.163 0 0 0-2.12 11.35Z" style="stroke:#0b6a88;stroke-miterlimit:10;fill:#f89e4f"/><path d="m227.3 18-5.71 3.92m2.1-9.18-5.71 3.92" style="stroke:#0b6a88;fill:none;stroke-linejoin:round;stroke-linecap:round"/><path d="M108.16 125.07c1.52-4.24 6.2-6.44 10.44-4.92l20.37 7.31c4.24 1.52 6.44 6.2 4.92 10.44s-6.2 6.44-10.44 4.92l-20.36-7.31c-4.24-1.52-6.45-6.2-4.92-10.44Z" style="stroke:#0b6a88;stroke-miterlimit:10;fill:#f89e4f"/><path d="m144.33 134.67-6.51-2.34m4.35 8.34-6.51-2.34" style="stroke:#0b6a88;fill:none;stroke-linejoin:round;stroke-linecap:round"/><path d="M194.74 113.57a8.16 8.16 0 0 1 11.34-2.12l17.85 12.23c3.72 2.55 4.66 7.63 2.12 11.35-2.55 3.72-7.63 4.66-11.35 2.12l-17.85-12.23a8.163 8.163 0 0 1-2.12-11.35Z" style="stroke:#0b6a88;stroke-miterlimit:10;fill:#f89e4f"/><path d="m227.3 132.02-5.71-3.92m2.1 9.18-5.71-3.92m15.07-49.72 9.24 26.05m-9.24-26.05 16.54 15.51m-16.54-32.77 9.24-26.05m-9.24 26.05 16.54-15.51" style="stroke:#0b6a88;fill:none;stroke-linejoin:round;stroke-linecap:round"/><path d="M69.97 75.16H40.64c-17.32 0-31.36-14.04-31.36-31.36V30.9" style="stroke:#0b6a88;fill:none;stroke-width:6px;stroke-miterlimit:10"/><path d="M89.05 66.31V84l-14.81-2.18c-2.72 0-4.92-2.2-4.92-4.92v-3.49c0-2.72 2.2-4.92 4.92-4.92z" style="stroke:#0b6a88;stroke-miterlimit:10;fill:#85b4c3"/><path d="M84.66 86.05V64.27m-5.12 20.7V65.35m-5.11 19.07V65.9" style="stroke:#0b6a88;fill:none;stroke-linecap:round;stroke-miterlimit:10"/><path d="M233.05 39.62v70.78c0 5.23-4.03 9.57-9.24 9.96l-124.03 9.38c-5.8.44-10.74-4.15-10.74-9.96V30.25c0-5.81 4.95-10.4 10.74-9.96l124.03 9.38c5.21.39 9.24 4.74 9.24 9.96Z" style="stroke:#0b6a88;stroke-miterlimit:10;fill:#f89e4f"/><ellipse cx="212.9" cy="57.88" rx="9.16" ry="5.01" style="fill:#0b6a88"/><ellipse cx="212.9" cy="92.14" rx="9.16" ry="5.01" style="fill:#0b6a88"/><path d="M158.46 39.72v70.58c0 2.46-1.91 4.5-4.37 4.66l-49.09 3.2c-2.7.18-4.98-1.96-4.98-4.66V36.52c0-2.7 2.28-4.84 4.98-4.66l49.09 3.2c2.46.16 4.37 2.2 4.37 4.66Z" style="stroke:#0b6a88;stroke-miterlimit:10;fill:#fab67b"/><ellipse cx="232.95" cy="75.01" rx="4.33" ry="6.69" style="fill:#0b6a88"/><path d="M200.93 34.56c-6.56-8.71-26.48-31.15-41.7-5.69-15.21 25.46 13.99 32.38 24.76 34.02" style="stroke:#0b6a88;stroke-linejoin:round;stroke-linecap:round;fill:#f89e4f"/><path d="M184.89 54.34c-.39.65-1.13 1.02-1.88.92-5.7-.71-28.44-4.74-17.68-22.75s25.08.11 28.41 4.79c.44.62.47 1.44.08 2.1z" style="fill:#0b6a88"/><path d="M200.93 115.46c-6.56 8.71-26.48 31.15-41.7 5.69-15.21-25.46 13.99-32.38 24.76-34.02" style="stroke:#0b6a88;stroke-linejoin:round;stroke-linecap:round;fill:#f89e4f"/><path d="M184.89 95.68a1.91 1.91 0 0 0-1.88-.92c-5.7.71-28.44 4.74-17.68 22.75s25.08-.11 28.41-4.79c.44-.62.47-1.44.08-2.1z" style="fill:#0b6a88"/></svg>