<?xml version="1.0" encoding="UTF-8"?><svg id="a" xmlns="http://www.w3.org/2000/svg" viewBox="0 0 150 150"><defs><style>.b,.c,.d,.e,.f{stroke:#0b6a88;}.b,.c,.e{fill:none;}.b,.d{stroke-linejoin:round;}.b,.d,.e{stroke-linecap:round;}.c{stroke-width:6px;}.c,.e,.f{stroke-miterlimit:10;}.d,.f{fill:#f89e4f;}.g{fill:#0b6a88;}</style></defs><g><path class="d" d="M109.19,31.22c2.63-8.68,11.77-31.91,30.94-16.38,19.17,15.53-1.65,29.29-9.6,33.67"/><path class="g" d="M127.38,42.08c.49,.4,1.17,.47,1.73,.18,4.25-2.19,20.86-11.84,7.3-22.83-13.57-10.99-19.56,7.27-20.82,11.88-.17,.61,.05,1.26,.54,1.66l11.25,9.11Z"/></g><g><path class="d" d="M77.37,31.22c-2.63-8.68-11.77-31.91-30.94-16.38-19.17,15.53,1.65,29.29,9.6,33.67"/><path class="g" d="M59.18,42.08c-.49,.4-1.17,.47-1.73,.18-4.25-2.19-20.86-11.84-7.3-22.83,13.57-10.99,19.56,7.27,20.82,11.88,.17,.61-.05,1.26-.54,1.66l-11.25,9.11Z"/></g><path class="c" d="M74.02,142.69h-15.72c-29.99,0-54.31-24.32-54.31-54.31h0s0-28.02,20.54-28.02h0"/><path class="f" d="M63.84,30.2h58.87c4.35,0,7.96,3.35,8.29,7.68l7.8,103.18c.36,4.82-3.45,8.94-8.29,8.94H56.04c-4.84,0-8.65-4.11-8.29-8.94l7.8-103.18c.33-4.33,3.94-7.68,8.29-7.68Z"/><g><ellipse class="g" cx="79.03" cy="56.4" rx="4.17" ry="7.62"/><ellipse class="g" cx="107.53" cy="56.4" rx="4.17" ry="7.62"/></g><g><line class="b" x1="103.94" y1="71.56" x2="122.16" y2="75.89"/><line class="b" x1="103.94" y1="71.56" x2="122.03" y2="66.21"/></g><g><line class="b" x1="82.62" y1="71.56" x2="64.39" y2="75.89"/><line class="b" x1="82.62" y1="71.56" x2="64.52" y2="66.21"/></g><ellipse class="g" cx="93.28" cy="70.72" rx="5.56" ry="3.6"/><g><path class="e" d="M65.82,149.38c0-3.75,3.05-6.79,6.79-6.78s6.79,3.05,6.78,6.79"/><g><line class="b" x1="69.97" y1="146.71" x2="69.96" y2="149.55"/><line class="b" x1="75.27" y1="146.71" x2="75.27" y2="149.56"/></g></g><g><path class="e" d="M120.73,149.38c0-3.75-3.05-6.79-6.79-6.78-3.75,0-6.79,3.05-6.78,6.79"/><g><line class="b" x1="116.59" y1="146.71" x2="116.59" y2="149.55"/><line class="b" x1="111.29" y1="146.71" x2="111.29" y2="149.56"/></g></g><g><path class="d" d="M79.4,97.61v10.04c0,3.75-3.04,6.79-6.79,6.79s-6.79-3.04-6.79-6.79v-10.04"/><g><line class="b" x1="75.26" y1="113.88" x2="75.27" y2="108.12"/><line class="b" x1="69.96" y1="113.88" x2="69.96" y2="108.12"/></g></g><g><path class="d" d="M120.73,97.61v10.04c0,3.75-3.04,6.79-6.79,6.79s-6.79-3.04-6.79-6.79v-10.04"/><g><line class="b" x1="116.6" y1="113.88" x2="116.6" y2="108.12"/><line class="b" x1="111.29" y1="113.88" x2="111.29" y2="108.12"/></g></g></svg>