<svg data-name="Layer 1" xmlns="http://www.w3.org/2000/svg" viewBox="0 0 265 150"><path d="M108.16 25a8.16 8.16 0 0 0 10.44 4.92l20.4-7.36a8.16 8.16 0 0 0-5.55-15.36l-20.37 7.31A8.17 8.17 0 0 0 108.16 25Z" style="stroke-miterlimit:10;stroke:#0b6a88;fill:#f89e4f"/><path style="stroke-linejoin:round;stroke-linecap:round;fill:none;stroke:#0b6a88" d="m144.33 15.35-6.51 2.34M142.17 9.35l-6.51 2.34"/><path d="M194.74 36.45a8.15 8.15 0 0 0 11.34 2.12l17.85-12.23a8.16 8.16 0 1 0-9.22-13.46l-17.85 12.23a8.15 8.15 0 0 0-2.12 11.34Z" style="stroke-miterlimit:10;stroke:#0b6a88;fill:#f89e4f"/><path style="stroke-linejoin:round;stroke-linecap:round;fill:none;stroke:#0b6a88" d="m227.3 18-5.71 3.92M223.69 12.74l-5.71 3.92"/><path d="M108.16 125.07a8.17 8.17 0 0 1 10.44-4.92l20.4 7.31a8.16 8.16 0 0 1-5.52 15.36l-20.37-7.31a8.16 8.16 0 0 1-4.92-10.44Z" style="stroke-miterlimit:10;stroke:#0b6a88;fill:#f89e4f"/><path style="stroke-linejoin:round;stroke-linecap:round;fill:none;stroke:#0b6a88" d="m144.33 134.67-6.51-2.34M142.17 140.67l-6.51-2.34"/><path d="M194.74 113.57a8.15 8.15 0 0 1 11.34-2.12l17.85 12.23a8.16 8.16 0 1 1-9.22 13.46l-17.85-12.22a8.16 8.16 0 0 1-2.12-11.35Z" style="stroke-miterlimit:10;stroke:#0b6a88;fill:#f89e4f"/><path style="stroke-linejoin:round;stroke-linecap:round;fill:none;stroke:#0b6a88" d="m227.3 132.02-5.71-3.92M223.69 137.28l-5.71-3.92M233.05 83.64l9.24 26.05M233.05 83.64l16.54 15.51M233.05 66.38l9.24-26.05M233.05 66.38l16.54-15.51"/><path d="M70 75.16H40.64A31.36 31.36 0 0 1 9.28 43.8V30.9" style="stroke-width:6px;fill:none;stroke-miterlimit:10;stroke:#0b6a88"/><path d="M89.05 66.31V84l-14.82-2.17a4.93 4.93 0 0 1-4.92-4.93v-3.48a4.93 4.93 0 0 1 4.92-4.93Z" style="fill:#85b4c3;stroke-miterlimit:10;stroke:#0b6a88"/><path style="stroke-linecap:round;fill:none;stroke-miterlimit:10;stroke:#0b6a88" d="M84.66 86.05V64.27M79.54 84.97V65.35M74.43 84.42V65.9"/><path d="M233.05 39.62v70.78a10 10 0 0 1-9.23 10l-124 9.38a10 10 0 0 1-10.74-10V30.25a10 10 0 0 1 10.74-10l124 9.38a10 10 0 0 1 9.23 9.99Z" style="stroke-miterlimit:10;stroke:#0b6a88;fill:#f89e4f"/><ellipse cx="212.9" cy="57.88" rx="9.16" ry="5.01" style="fill:#0b6a88"/><ellipse cx="212.9" cy="92.14" rx="9.16" ry="5.01" style="fill:#0b6a88"/><path d="M158.46 39.72v70.58a4.68 4.68 0 0 1-4.37 4.66l-49.09 3.2a4.67 4.67 0 0 1-5-4.66v-77a4.67 4.67 0 0 1 5-4.66l49.09 3.2a4.68 4.68 0 0 1 4.37 4.68Z" style="fill:#fab67b;stroke-miterlimit:10;stroke:#0b6a88"/><ellipse cx="232.95" cy="75.01" rx="4.33" ry="6.69" style="fill:#0b6a88"/><path d="M200.93 34.56c-6.56-8.71-26.49-31.14-41.7-5.68s14 32.37 24.76 34" style="stroke-linejoin:round;stroke-linecap:round;stroke:#0b6a88;fill:#f89e4f"/><path d="M184.89 54.34a1.92 1.92 0 0 1-1.88.93c-5.7-.72-28.45-4.74-17.69-22.75s25.09.11 28.41 4.79a1.91 1.91 0 0 1 .08 2.1Z" style="fill:#0b6a88"/><path d="M200.93 115.46c-6.56 8.71-26.49 31.14-41.7 5.68s14-32.37 24.76-34" style="stroke-linejoin:round;stroke-linecap:round;stroke:#0b6a88;fill:#f89e4f"/><path d="M184.89 95.68a1.92 1.92 0 0 0-1.88-.93c-5.7.72-28.45 4.74-17.69 22.75s25.09-.11 28.41-4.79a1.91 1.91 0 0 0 .08-2.1Z" style="fill:#0b6a88"/></svg>