<svg data-name="Layer 1" xmlns="http://www.w3.org/2000/svg" viewBox="0 0 275 150"><ellipse cx="231.04" cy="108.88" rx="26.92" ry="14.38" transform="matrix(.27 -.96 .96 .27 64.13 302.2)" style="stroke-miterlimit:10;stroke:#0b6a88;fill:#f89e4f"/><ellipse cx="221.34" cy="108.88" rx="14.38" ry="26.92" transform="rotate(-13.62 221.366 108.905)" style="stroke-miterlimit:10;stroke:#0b6a88;fill:#f89e4f"/><ellipse cx="224.55" cy="110.11" rx="7.09" ry="21.37" transform="rotate(-13.62 224.573 110.137)" style="fill:#0b6a88"/><path d="M112.2 118.41v17.65l-14.78-2.17A4.92 4.92 0 0 1 92.5 129v-3.5a4.92 4.92 0 0 1 4.92-4.92Z" style="fill:#85b4c3;stroke-miterlimit:10;stroke:#0b6a88"/><path d="M92.5 127.69a48.82 48.82 0 0 1-48.81-48.81A23.08 23.08 0 0 0 20.61 55.8H12.4" style="stroke-width:6px;fill:none;stroke-miterlimit:10;stroke:#0b6a88"/><path style="stroke-linejoin:round;stroke-linecap:round;fill:none;stroke:#0b6a88" d="M107.83 138.11v-21.75M102.72 137.02v-19.57M97.61 136.48v-18.49"/><path d="m250.48 110.82-132.17-7.61a5.77 5.77 0 0 0-6.11 5.79v38.29h143.73v-30.71a5.77 5.77 0 0 0-5.45-5.76Z" style="stroke-linejoin:round;stroke:#0b6a88;fill:#f89e4f"/><path d="m123.32 104-.17 2.53a3.55 3.55 0 0 0 3.34 3.53l51.25 2.94a3.54 3.54 0 0 0 3.74-3.53l.11-2.16" style="fill:#fccea7;stroke-miterlimit:10;stroke:#0b6a88"/><ellipse cx="245.23" cy="123.24" rx="3.79" ry="6.93" style="fill:#0b6a88"/><path d="M250.89 134c0 1.85 2.25 3.34 5 3.34v-6.68c-2.75 0-5 1.5-5 3.34Z" style="fill:#0b6a88"/><path d="M167.15 141.51a11 11 0 0 1 1 4.69M163.62 141.51a11.11 11.11 0 0 1 1 4.69" style="stroke-linecap:round;fill:none;stroke-miterlimit:10;stroke:#0b6a88"/><path d="M148.24 124.59a10.52 10.52 0 0 1 10.51 10.51h3.85a11.1 11.1 0 0 1 11.11 11.1" style="stroke-linejoin:round;stroke-linecap:round;fill:none;stroke:#0b6a88"/><path d="M219.26 141.51a11.11 11.11 0 0 1 1 4.69M215.72 141.51a11 11 0 0 1 1 4.69" style="stroke-linecap:round;fill:none;stroke-miterlimit:10;stroke:#0b6a88"/><path d="M200.12 135.1h14.59a11.1 11.1 0 0 1 11.1 11.1M242.61 133.43l-14.97-.24M242.61 133.43l-13.48-8.2" style="stroke-linejoin:round;stroke-linecap:round;fill:none;stroke:#0b6a88"/><ellipse cx="255.93" cy="133.19" rx="6.67" ry="4.32" style="fill:#0b6a88"/></svg>