<svg id="Layer_1" data-name="Layer 1" xmlns="http://www.w3.org/2000/svg" viewBox="0 0 150 150"><defs><style>.cls-1,.cls-4{fill:#f89e4f;}.cls-1,.cls-3,.cls-4,.cls-5,.cls-6{stroke:#0b6a88;}.cls-1,.cls-5,.cls-6{stroke-linecap:round;}.cls-1,.cls-5{stroke-linejoin:round;}.cls-2{fill:#0b6a88;}.cls-3,.cls-5,.cls-6{fill:none;}.cls-3,.cls-4,.cls-6{stroke-miterlimit:10;}.cls-3{stroke-width:6px;}</style></defs><path class="cls-1" d="M109.19,31.22C111.81,22.54,121-.69,140.13,14.84s-1.66,29.29-9.6,33.67"/><path class="cls-2" d="M127.38,42.08a1.58,1.58,0,0,0,1.73.18c4.25-2.19,20.86-11.84,7.3-22.83s-19.56,7.27-20.82,11.88a1.6,1.6,0,0,0,.54,1.66Z"/><path class="cls-1" d="M77.37,31.22C74.74,22.54,65.61-.69,46.43,14.84S48.09,44.13,56,48.51"/><path class="cls-2" d="M59.18,42.08a1.58,1.58,0,0,1-1.73.18c-4.25-2.19-20.87-11.84-7.3-22.83S69.71,26.7,71,31.31A1.62,1.62,0,0,1,70.43,33Z"/><path class="cls-3" d="M74,142.69H58.3A54.32,54.32,0,0,1,4,88.38H4s0-28,20.54-28h0"/><path class="cls-4" d="M63.84,30.2h58.88A8.3,8.3,0,0,1,131,37.88l7.81,103.18a8.31,8.31,0,0,1-8.29,8.94H56a8.31,8.31,0,0,1-8.29-8.94l7.8-103.18A8.31,8.31,0,0,1,63.84,30.2Z"/><ellipse class="cls-2" cx="79.03" cy="56.4" rx="4.17" ry="7.62"/><ellipse class="cls-2" cx="107.53" cy="56.4" rx="4.17" ry="7.62"/><line class="cls-5" x1="103.94" y1="71.56" x2="122.16" y2="75.89"/><line class="cls-5" x1="103.94" y1="71.56" x2="122.03" y2="66.21"/><line class="cls-5" x1="82.62" y1="71.56" x2="64.39" y2="75.89"/><line class="cls-5" x1="82.62" y1="71.56" x2="64.52" y2="66.21"/><ellipse class="cls-2" cx="93.28" cy="70.72" rx="5.56" ry="3.6"/><path class="cls-6" d="M65.82,149.38a6.79,6.79,0,1,1,13.58,0"/><line class="cls-5" x1="69.97" y1="146.71" x2="69.96" y2="149.55"/><line class="cls-5" x1="75.27" y1="146.71" x2="75.27" y2="149.56"/><path class="cls-6" d="M120.73,149.38a6.79,6.79,0,1,0-13.57,0"/><line class="cls-5" x1="116.59" y1="146.71" x2="116.59" y2="149.55"/><line class="cls-5" x1="111.29" y1="146.71" x2="111.29" y2="149.56"/><path class="cls-1" d="M79.4,97.61v10a6.79,6.79,0,0,1-13.58,0v-10"/><line class="cls-5" x1="75.26" y1="113.88" x2="75.27" y2="108.12"/><line class="cls-5" x1="69.96" y1="113.88" x2="69.96" y2="108.12"/><path class="cls-1" d="M120.73,97.61v10a6.79,6.79,0,1,1-13.57,0v-10"/><line class="cls-5" x1="116.6" y1="113.88" x2="116.6" y2="108.12"/><line class="cls-5" x1="111.29" y1="113.88" x2="111.29" y2="108.12"/></svg>