<svg xmlns="http://www.w3.org/2000/svg" viewBox="0 0 150 150"><path d="m83.97 52.4-6.19-3.28 3.09 1.64-3.1-1.63c.1-.18 9.7-18.77 12.69-52.77l6.97.61C94.3 32.52 84.38 51.6 83.96 52.39Zm-56.98-1.15c-.46-.89-11.21-22.27-14.11-55.6l6.97-.61c2.78 31.88 13.27 52.82 13.38 53.03zm48.49 38.4c2.89 7.25 18.3 32.75 29.26 45.49 4.38-2.47 17.2-10.55 17.2-10.55l-17.51 19.71c-12.66-15.27-30.91-42.81-33.44-50.31m-20.34-6.54c-.48 7.79-7.13 36.83-13.56 52.36-4.93-.98-19.64-4.65-19.64-4.65l22.8 13.24c7.25-18.46 15.97-50.33 16.02-58.25" style="stroke-linejoin:round;fill:#c5c6c8;stroke:#909395"/><path d="m84.12 15.56-8.73-4.87-4.92 8.83C62.23 10.06 52.25 5.43 43.08 8.04 27.22 12.55 20.67 36.7 28.15 63.03c1.95 6.84 4.63 13.06 7.8 18.44l-7.22 12.96 8.73 4.87 4.92-8.83c8.24 9.46 18.22 14.09 27.39 11.48 15.86-4.51 22.41-28.66 14.93-54.99-1.95-6.84-4.63-13.06-7.8-18.44zM37.76 60.29c-5.02-17.66-2.95-39.51 8.05-42.64 6.37-1.81 13.51 3.31 19.35 11.38L41.8 70.95a69 69 0 0 1-4.04-10.66Zm37.32-10.61c5.02 17.66 2.95 39.51-8.05 42.64-6.37 1.81-13.51-3.31-19.35-11.38l23.36-41.92c1.63 3.43 3.01 7.04 4.04 10.66Z" style="stroke:#ce7328;stroke-linejoin:round;fill:#fcee20"/><path d="M72.85 78.49c-6.08 9.34-14.9 1.9-14.9 1.9s.29 8.68 5.11 9.04c4.68.35 3.71-5.86 3.71-5.86" style="fill:none;stroke-linecap:round;stroke:#ce7328;stroke-linejoin:round"/><ellipse cx="61.86" cy="76.9" rx="2.4" ry="4.5" style="fill:#ce7328" transform="rotate(-6.7 61.839 76.903)"/><ellipse cx="62.63" cy="79" rx=".79" ry="1.3" style="fill:#fff" transform="rotate(-6.7 62.659 79.008)"/><ellipse cx="67.81" cy="76.2" rx="2.4" ry="4.5" style="fill:#ce7328" transform="rotate(-6.7 67.793 76.223)"/><ellipse cx="68.58" cy="78.3" rx=".79" ry="1.3" style="fill:#fff" transform="rotate(-6.7 68.613 78.328)"/></svg>