<svg xmlns="http://www.w3.org/2000/svg" viewBox="0 0 150 150"><path d="M78.41 80.98c.6-.36 1.37-.58 2.22-.58.63 0 1.22.13 1.72.33.17-.79.26-1.7.2-2.68-.15-2.83-1.32-5.06-2.6-4.99s-2.2 2.42-2.05 5.24c.05.99.24 1.9.5 2.67Z" style="fill:#ce7328"/><path d="M54.19 132.32a3.314 3.314 0 0 0 3.19-2.98c2.16-22.44.51-40.78.44-41.55a3.299 3.299 0 1 0-6.57.61c.02.18 1.66 18.52-.44 40.31a3.305 3.305 0 0 0 2.97 3.6c.14.01.28.02.41.01Zm44.56-51.26c-.13-.02-.21-.04-.25-.05-1.89-.4-3.1-2.26-2.7-4.15s2.24-3.14 4.14-2.7c.18.03 9.99 1.94 15.75-3.93 4.94-5.04 5.91-14.91 2.81-28.55a3.501 3.501 0 1 1 6.83-1.55c3.71 16.34 2.14 28.13-4.68 35.05-7.97 8.08-19.98 6.24-21.9 5.88ZM88.1 94.55c.5 13.42 1.17 31.08 1.16 47.68 5.77 2 18.23 7.24 18.23 7.24l-24.55-.03c0-19.06-.58-45.22-1.83-53.81m-16.74.38c-.22 13.42-.1 29.63-.09 46.22-2.04 2.52-4.76 7.24-4.76 7.24l15.27-.03c-1.11-2.31-2.58-4.93-4.16-7.38.13-18.58-.18-37.56.76-45.12" style="stroke-linejoin:round;fill:#c5c6c8;stroke:#909395"/><path d="M111.57 25.87 104.31 19l-6.95 7.34C91.71 15.14 83.18 8.19 73.65 8.46c-16.48.46-28.79 22.25-28.03 49.61.2 7.11 1.26 13.79 3.01 19.79l-10.2 10.78 7.26 6.87 6.95-7.34c5.65 11.2 14.18 18.15 23.71 17.88 16.48-.46 28.79-22.25 28.03-49.61-.2-7.11-1.26-13.79-3.01-19.79zM55.61 57.79c-.51-18.35 6.89-39.02 18.32-39.33 6.62-.18 12.27 6.54 15.95 15.8L56.9 69.12c-.73-3.73-1.18-7.56-1.28-11.33Zm38.78-1.07c.51 18.35-6.89 39.02-18.32 39.34-6.62.18-12.27-6.54-15.95-15.8L93.1 45.4c.73 3.73 1.18 7.56 1.28 11.33Z" style="stroke:#ce7328;stroke-linejoin:round;fill:#fcee20"/><path d="M82.41 84.06s-9.36 7.83-15.96-2.54" style="fill:none;stroke-linecap:round;stroke:#ce7328;stroke-linejoin:round"/><ellipse cx="80.28" cy="77.02" rx=".82" ry="1.59" style="fill:#fff"/><path d="M77.85 81.14s2.22-1.62 5-.18" style="fill:none;stroke-linecap:round;stroke:#ce7328;stroke-linejoin:round"/><path d="M71.25 81.37c.6-.36 1.37-.58 2.22-.58.63 0 1.22.13 1.72.33.17-.79.26-1.7.2-2.68-.15-2.83-1.32-5.06-2.6-4.99s-2.2 2.42-2.05 5.24c.05.99.24 1.9.5 2.67Z" style="fill:#ce7328"/><ellipse cx="73.12" cy="77.41" rx=".82" ry="1.59" style="fill:#fff"/><path d="M70.69 81.53s2.22-1.62 5-.18" style="fill:none;stroke-linecap:round;stroke:#ce7328;stroke-linejoin:round"/></svg>