<svg data-name="Layer 1" xmlns="http://www.w3.org/2000/svg" viewBox="0 0 150 150"><path d="M48.22 101.71C45.71 100.51 27 88.19 16.11 73a2.53 2.53 0 0 0-3.48-.64 2.66 2.66 0 0 0-.31.26 2.51 2.51 0 0 0-.32 3.23C24 93.42 47.79 106.94 48.17 107a2 2 0 0 0 .43.07M68 121.78c-1 9.73-13.4 19.69-26.68 14.21a83.63 83.63 0 0 1-18.84-11.07c-4.05 2.49-18.81 9.65-18.81 9.65l16.42-17.76c9.13 7.84 17.29 12.56 23.39 14.58 10.41 3.45 18.68-3.39 19-10.1M88.21 105.06c6.51 4.32 33.68 16.53 50 20.77 2.19-4.52 8.14-18.46 8.14-18.46l-3.19 26.17C124 128.19 93.33 115.92 87 111.19M88 62.55c2.53-1.49 14.31-15.4 21-26.89a2.5 2.5 0 0 1 4.31 2.52c-10 17.12-21.43 29.26-21.8 29.39" style="stroke-linejoin:round;fill:#c5c6c8;stroke:#909395"/><path d="m92.44 39.05-8.73-4.87L78.78 43c-8.23-9.45-18.21-14.09-27.39-11.48C35.54 36 29 60.19 36.46 86.52a79.19 79.19 0 0 0 7.8 18.48l-7.22 13 8.73 4.87 4.92-8.87c8.24 9.46 18.22 14.09 27.39 11.48 15.86-4.5 22.42-28.66 14.93-55A78.57 78.57 0 0 0 85.22 52ZM46.08 83.79c-5-17.66-2.95-39.52 8.05-42.64 6.37-1.81 13.5 3.31 19.35 11.38L50.12 94.44a68.56 68.56 0 0 1-4.04-10.65ZM83.4 73.18c5 17.66 2.95 39.51-8.05 42.64C69 117.63 61.84 112.5 56 104.44l23.36-41.92a69.05 69.05 0 0 1 4.04 10.66Z" style="stroke:#ce7328;fill:#fcee20;stroke-linejoin:round"/><ellipse cx="73.09" cy="88.71" rx="2.49" ry="5.86" transform="rotate(-15.87 73.062 88.697)" style="fill:#ce7328"/><path d="M70.79 95.87c-1.16-.85-3-2.16-4.33-.92a3.07 3.07 0 0 0-.88 1.93c-.74 6.87 9.25 11.9 14.52 7.71a6.17 6.17 0 0 0 2.29-4.15c.21-1.75-.21-4.58-2.21-5.18-3-.9-5.56 3-8.7 1.08-.24-.15-.48-.34-.69-.47Z" style="fill:none;stroke-linecap:round;stroke:#ce7328;stroke-linejoin:round"/><path d="M79.81 104.33s-4.17-4.47-7.46-2.63c-.13-.51-4.59-2.6-7.85 1.41-1.23 1.51-2.08 4.06-1.29 5s4 3.64 10.57-2.51a7.42 7.42 0 0 0 6.03-1.27Z" style="fill:#2dc5f4"/><path d="M67.17 104.91a10.1 10.1 0 0 1 9.12-3.91" style="stroke:#fff;stroke-width:.79px;fill:none;stroke-linecap:round;stroke-linejoin:round"/><ellipse cx="73.53" cy="86.97" rx=".83" ry="1.57" transform="rotate(-23.49 73.542 86.968)" style="fill:#fff"/><ellipse cx="79.2" cy="86.2" rx="2.49" ry="5.86" transform="rotate(-15.87 79.19 86.187)" style="fill:#ce7328"/><ellipse cx="79.64" cy="84.46" rx=".83" ry="1.57" transform="rotate(-23.49 79.63 84.47)" style="fill:#fff"/></svg>