<?xml version="1.0" encoding="UTF-8"?><svg id="a" xmlns="http://www.w3.org/2000/svg" viewBox="0 0 150 150"><defs><style>.b{fill:none;stroke-linecap:round;}.b,.c{stroke:#ce7328;}.b,.c,.d{stroke-linejoin:round;}.e{fill:#fff;}.f{fill:#ce7328;}.c{fill:#fcee20;}.d{fill:#c5c6c8;stroke:#909395;}</style></defs><path class="d" d="M83.97,52.4l-6.19-3.28,3.09,1.64-3.1-1.63c.1-.18,9.7-18.77,12.69-52.77l6.97,.61c-3.13,35.55-13.05,54.63-13.47,55.42Z"/><path class="d" d="M26.99,51.25c-.46-.89-11.21-22.27-14.11-55.6l6.97-.61c2.78,31.88,13.27,52.82,13.38,53.03l-6.24,3.18Z"/><path class="d" d="M75.48,89.65c2.89,7.25,18.3,32.75,29.26,45.49,4.38-2.47,17.2-10.55,17.2-10.55l-17.51,19.71c-12.66-15.27-30.91-42.81-33.44-50.31"/><path class="d" d="M50.65,87.45c-.48,7.79-7.13,36.83-13.56,52.36-4.93-.98-19.64-4.65-19.64-4.65l22.8,13.24c7.25-18.46,15.97-50.33,16.02-58.25"/><path class="c" d="M84.12,15.56l-8.73-4.87-4.92,8.83c-8.24-9.46-18.22-14.09-27.39-11.48-15.86,4.51-22.41,28.66-14.93,54.99,1.95,6.84,4.63,13.06,7.8,18.44l-7.22,12.96,8.73,4.87,4.92-8.83c8.24,9.46,18.22,14.09,27.39,11.48,15.86-4.51,22.41-28.66,14.93-54.99-1.95-6.84-4.63-13.06-7.8-18.44l7.22-12.96ZM37.76,60.29c-5.02-17.66-2.95-39.51,8.05-42.64,6.37-1.81,13.51,3.31,19.35,11.38l-23.36,41.92c-1.63-3.43-3.01-7.04-4.04-10.66Zm37.32-10.61c5.02,17.66,2.95,39.51-8.05,42.64-6.37,1.81-13.51-3.31-19.35-11.38l23.36-41.92c1.63,3.43,3.01,7.04,4.04,10.66Z"/><path class="b" d="M72.85,78.49c-6.08,9.34-14.9,1.9-14.9,1.9,0,0,.29,8.68,5.11,9.04,4.68,.35,3.71-5.86,3.71-5.86"/><ellipse class="f" cx="61.86" cy="76.9" rx="2.4" ry="4.5" transform="translate(-8.55 7.74) rotate(-6.7)"/><ellipse class="e" cx="62.63" cy="79" rx=".79" ry="1.3" transform="translate(-8.79 7.85) rotate(-6.7)"/><ellipse class="f" cx="67.81" cy="76.2" rx="2.4" ry="4.5" transform="translate(-8.43 8.43) rotate(-6.7)"/><ellipse class="e" cx="68.58" cy="78.3" rx=".79" ry="1.3" transform="translate(-8.67 8.54) rotate(-6.7)"/></svg>