<svg xmlns="http://www.w3.org/2000/svg" viewBox="0 0 150 150"><path d="M56.25 132.32a3.314 3.314 0 0 0 3.19-2.98c2.16-22.44.51-40.78.44-41.55a3.299 3.299 0 1 0-6.57.61c.02.18 1.66 18.52-.44 40.31a3.305 3.305 0 0 0 2.97 3.6c.14.01.28.02.41.01ZM96.56 132.29a3.292 3.292 0 0 0 2.95-3.21c.47-22.54-2.55-40.7-2.68-41.46-.3-1.8-2-3.01-3.8-2.7-1.8.3-3.01 2-2.7 3.8.03.18 3.04 18.35 2.59 40.23a3.289 3.289 0 0 0 3.23 3.36c.14 0 .28 0 .41-.02ZM64.09 96.01c-.22 13.42-.1 29.63-.09 46.22-2.04 2.52-4.76 7.24-4.76 7.24l15.27-.03c-1.11-2.31-2.58-4.93-4.16-7.38.13-18.58-.18-37.56.76-45.12M87.98 96.01c.22 13.42.1 29.63.09 46.22 2.04 2.52 4.76 7.24 4.76 7.24l-15.27-.03c1.11-2.31 2.58-4.93 4.16-7.38-.13-18.58.18-37.56-.76-45.12" style="fill:#c5c6c8;stroke:#909395;stroke-linejoin:round"/><path d="M111.57 25.87 104.31 19l-6.95 7.34C91.71 15.14 83.18 8.19 73.65 8.46c-16.48.46-28.79 22.25-28.03 49.61.2 7.11 1.26 13.79 3.01 19.79l-10.2 10.78 7.26 6.87 6.95-7.34c5.65 11.2 14.18 18.15 23.71 17.88 16.48-.46 28.79-22.25 28.03-49.61-.2-7.11-1.26-13.79-3.01-19.79l10.2-10.78ZM55.61 57.79c-.51-18.35 6.89-39.02 18.32-39.33 6.62-.18 12.27 6.54 15.95 15.8L56.9 69.12c-.73-3.73-1.18-7.56-1.28-11.33Zm38.78-1.07c.51 18.35-6.89 39.02-18.32 39.34-6.62.18-12.27-6.54-15.95-15.8L93.1 45.4c.73 3.73 1.18 7.56 1.28 11.33Z" style="fill:#fcee20;stroke-linejoin:round;stroke:#ce7328"/><path d="M68.35 78.42s2.81-4.88 6.28-.69M78.2 77.7s2.81-4.88 6.28-.69M72.55 83.93s3.88 2.99 8.66-.3" style="stroke-linejoin:round;stroke:#ce7328;fill:none;stroke-linecap:round"/></svg>