<?xml version="1.0" encoding="UTF-8"?><svg id="a" xmlns="http://www.w3.org/2000/svg" viewBox="0 0 150 150"><defs><style>.b{fill:none;stroke-linecap:round;}.b,.c{stroke:#ce7328;}.b,.c,.d{stroke-linejoin:round;}.e{fill:#fff;}.f{fill:#ce7328;}.c{fill:#fcee20;}.d{fill:#c5c6c8;stroke:#909395;}</style></defs><path class="f" d="M78.41,80.98c.6-.36,1.37-.58,2.22-.58,.63,0,1.22,.13,1.72,.33,.17-.79,.26-1.7,.2-2.68-.15-2.83-1.32-5.06-2.6-4.99s-2.2,2.42-2.05,5.24c.05,.99,.24,1.9,.5,2.67Z"/><path class="d" d="M54.19,132.32c1.64-.05,3.02-1.31,3.19-2.98,2.16-22.44,.51-40.78,.44-41.55-.17-1.81-1.77-3.15-3.59-2.98-1.81,.17-3.15,1.77-2.98,3.59,.02,.18,1.66,18.52-.44,40.31-.17,1.81,1.15,3.42,2.97,3.6,.14,.01,.28,.02,.41,.01Z"/><path class="d" d="M98.75,81.06c-.13-.02-.21-.04-.25-.05-1.89-.4-3.1-2.26-2.7-4.15,.4-1.89,2.24-3.14,4.14-2.7,.18,.03,9.99,1.94,15.75-3.93,4.94-5.04,5.91-14.91,2.81-28.55-.43-1.88,.75-3.76,2.64-4.19,1.88-.42,3.76,.75,4.19,2.64,3.71,16.34,2.14,28.13-4.68,35.05-7.97,8.08-19.98,6.24-21.9,5.88Z"/><path class="d" d="M88.1,94.55c.5,13.42,1.17,31.08,1.16,47.68,5.77,2,18.23,7.24,18.23,7.24l-24.55-.03c0-19.06-.58-45.22-1.83-53.81"/><path class="d" d="M64.37,96.01c-.22,13.42-.1,29.63-.09,46.22-2.04,2.52-4.76,7.24-4.76,7.24l15.27-.03c-1.11-2.31-2.58-4.93-4.16-7.38,.13-18.58-.18-37.56,.76-45.12"/><path class="c" d="M111.57,25.87l-7.26-6.87-6.95,7.34c-5.65-11.2-14.18-18.15-23.71-17.88-16.48,.46-28.79,22.25-28.03,49.61,.2,7.11,1.26,13.79,3.01,19.79l-10.2,10.78,7.26,6.87,6.95-7.34c5.65,11.2,14.18,18.15,23.71,17.88,16.48-.46,28.79-22.25,28.03-49.61-.2-7.11-1.26-13.79-3.01-19.79l10.2-10.78Zm-55.96,31.92c-.51-18.35,6.89-39.02,18.32-39.33,6.62-.18,12.27,6.54,15.95,15.8l-32.98,34.86c-.73-3.73-1.18-7.56-1.28-11.33Zm38.78-1.07c.51,18.35-6.89,39.02-18.32,39.34-6.62,.18-12.27-6.54-15.95-15.8l32.98-34.86c.73,3.73,1.18,7.56,1.28,11.33Z"/><path class="b" d="M82.41,84.06s-9.36,7.83-15.96-2.54"/><ellipse class="e" cx="80.28" cy="77.02" rx=".82" ry="1.59"/><path class="b" d="M77.85,81.14s2.22-1.62,5-.18"/><path class="f" d="M71.25,81.37c.6-.36,1.37-.58,2.22-.58,.63,0,1.22,.13,1.72,.33,.17-.79,.26-1.7,.2-2.68-.15-2.83-1.32-5.06-2.6-4.99s-2.2,2.42-2.05,5.24c.05,.99,.24,1.9,.5,2.67Z"/><ellipse class="e" cx="73.12" cy="77.41" rx=".82" ry="1.59"/><path class="b" d="M70.69,81.53s2.22-1.62,5-.18"/></svg>