<svg xmlns="http://www.w3.org/2000/svg" viewBox="0 0 150 150"><path d="M48.22 101.71c-2.52-1.2-21.19-13.52-32.12-28.7-.81-1.12-2.34-1.42-3.48-.64a2.6 2.6 0 0 0-.32.26c-.87.83-1.02 2.19-.32 3.22 11.98 17.57 35.79 31.09 36.17 31.18.14.04.29.06.43.07m19.45 14.68c-.98 9.74-13.4 19.69-26.68 14.22-5.04-2.08-11.52-5.48-18.83-11.07-4.05 2.49-18.81 9.65-18.81 9.65l16.41-17.75c9.13 7.83 17.29 12.56 23.4 14.58 10.41 3.45 18.67-3.39 18.96-10.1m25.73-16.25c6.51 4.32 33.68 16.52 49.95 20.77 2.19-4.52 8.14-18.46 8.14-18.46l-3.19 26.17c-19.1-5.35-49.77-17.62-56.12-22.35m1.04-48.64c2.53-1.49 14.3-15.41 21.02-26.9a2.51 2.51 0 0 1 3.75-.67c.93.77 1.19 2.11.56 3.19-10 17.12-21.44 29.26-21.81 29.38" style="stroke-linejoin:round;fill:#c5c6c8;stroke:#909395"/><path d="m92.44 39.05-8.73-4.87-4.92 8.83c-8.24-9.46-18.22-14.09-27.39-11.48-15.86 4.51-22.41 28.66-14.93 54.99 1.95 6.84 4.63 13.06 7.8 18.44l-7.22 12.96 8.73 4.87 4.92-8.83c8.24 9.46 18.22 14.09 27.39 11.48 15.86-4.51 22.41-28.66 14.93-54.99-1.95-6.84-4.63-13.06-7.8-18.44zM46.08 83.78c-5.02-17.66-2.95-39.51 8.05-42.64 6.37-1.81 13.51 3.31 19.35 11.38L50.12 94.44a69 69 0 0 1-4.04-10.66ZM83.4 73.17c5.02 17.66 2.95 39.51-8.05 42.64-6.37 1.81-13.51-3.31-19.35-11.38l23.36-41.92c1.63 3.43 3.01 7.04 4.04 10.66Z" style="stroke-linejoin:round;stroke:#ce7328;fill:#fcee20"/><ellipse cx="73.09" cy="88.71" rx="2.49" ry="5.86" style="fill:#ce7328" transform="rotate(-15.87 73.062 88.697)"/><path d="M70.79 95.87c-1.16-.85-2.99-2.16-4.33-.92-.53.49-.8 1.21-.87 1.93-.74 6.87 9.25 11.91 14.52 7.71 1.29-1.03 2.09-2.51 2.29-4.14.21-1.76-.21-4.58-2.21-5.18-3.01-.91-5.57 3-8.7 1.08-.24-.15-.47-.31-.69-.47Z" style="fill:none;stroke-linecap:round;stroke-linejoin:round;stroke:#ce7328"/><path d="M79.81 104.33s-4.17-4.47-7.46-2.63c-.13-.51-4.59-2.6-7.85 1.42-1.23 1.51-2.08 4.05-1.29 5 .87 1.03 3.97 3.64 10.57-2.51.34.17 3.81.65 6.03-1.28" style="fill:#2dc5f4"/><path d="M67.17 104.91c.07-.04 3.05-4.51 9.12-3.92" style="fill:none;stroke-linecap:round;stroke-linejoin:round;stroke:#fff;stroke-width:.79px"/><ellipse cx="73.53" cy="86.97" rx=".83" ry="1.57" style="fill:#fff" transform="rotate(-23.49 73.542 86.968)"/><ellipse cx="79.2" cy="86.2" rx="2.49" ry="5.86" style="fill:#ce7328" transform="rotate(-15.87 79.19 86.187)"/><ellipse cx="79.64" cy="84.46" rx=".83" ry="1.57" style="fill:#fff" transform="rotate(-23.49 79.63 84.47)"/></svg>