<svg id="Layer_1" data-name="Layer 1" xmlns="http://www.w3.org/2000/svg" viewBox="0 0 150 150"><defs><style>.cls-1{fill:#c5c6c8;stroke:#909395;}.cls-1,.cls-2,.cls-3{stroke-linejoin:round;}.cls-2{fill:#fcee20;}.cls-2,.cls-3{stroke:#ce7328;}.cls-3{fill:none;stroke-linecap:round;}.cls-4{fill:#ce7328;}.cls-5{fill:#fff;}</style></defs><path class="cls-1" d="M84,52.4l-6.19-3.27,3.09,1.63-3.09-1.63c.1-.18,9.69-18.77,12.69-52.77l7,.62C94.31,32.52,84.39,51.61,84,52.4Z"/><path class="cls-1" d="M27,51.25c-.46-.9-11.21-22.28-14.11-55.6l7-.61c2.78,31.88,13.27,52.82,13.38,53Z"/><path class="cls-1" d="M75.48,89.65c2.9,7.25,18.3,32.75,29.27,45.5,4.37-2.48,17.19-10.56,17.19-10.56L104.43,144.3C91.77,129,73.52,101.49,71,94"/><path class="cls-1" d="M50.65,87.45c-.48,7.8-7.13,36.83-13.56,52.37-4.93-1-19.64-4.65-19.64-4.65l22.81,13.24c7.24-18.46,16-50.33,16-58.24"/><path class="cls-2" d="M84.12,15.56l-8.74-4.87-4.92,8.83C62.23,10.06,52.25,5.43,43.07,8,27.22,12.54,20.66,36.7,28.14,63a79.11,79.11,0,0,0,7.8,18.43l-7.22,13,8.73,4.87,4.92-8.83c8.24,9.45,18.22,14.09,27.39,11.48,15.86-4.51,22.42-28.66,14.93-55A78.49,78.49,0,0,0,76.9,28.52ZM37.76,60.29c-5-17.66-2.95-39.51,8.05-42.64C52.18,15.84,59.31,21,65.16,29L41.8,71A69.05,69.05,0,0,1,37.76,60.29ZM75.08,49.68c5,17.66,3,39.52-8,42.64C60.66,94.13,53.52,89,47.68,80.94L71,39A69.33,69.33,0,0,1,75.08,49.68Z"/><path class="cls-3" d="M72.85,78.49c-6.08,9.34-14.9,1.9-14.9,1.9s.29,8.69,5.11,9,3.7-5.86,3.7-5.86"/><ellipse class="cls-4" cx="61.86" cy="76.9" rx="2.4" ry="4.5" transform="translate(-8.55 7.74) rotate(-6.7)"/><ellipse class="cls-5" cx="62.63" cy="79" rx="0.79" ry="1.3" transform="translate(-8.79 7.85) rotate(-6.7)"/><ellipse class="cls-4" cx="67.81" cy="76.2" rx="2.4" ry="4.5" transform="translate(-8.43 8.43) rotate(-6.7)"/><ellipse class="cls-5" cx="68.58" cy="78.3" rx="0.79" ry="1.3" transform="translate(-8.67 8.54) rotate(-6.7)"/></svg>