<svg data-name="Layer 1" xmlns="http://www.w3.org/2000/svg" viewBox="0 0 150 150"><defs><clipPath id="a"><path style="fill:none" d="M0 0h150v150H0z"/></clipPath></defs><g style="clip-path:url(#a)"><path d="m119.52 49.88-13-11.25-11.35 13.13c-10.54-18.79-25.7-30.07-42-28.9-28.25 2-47.73 40.35-44.36 87.25a135.06 135.06 0 0 0 6.65 33.73l-16.72 19.27 13 11.25 11.37-13.13C33.63 180 48.8 191.3 65.14 190.13c28.24-2 47.73-40.35 44.36-87.25a135.59 135.59 0 0 0-6.66-33.74Zm-93.62 59C23.64 77.42 34.77 41.4 54.36 40c11.35-.82 21.55 10.3 28.56 25.91L29 128.22a117 117 0 0 1-3.1-19.34Zm66.47-4.77c2.26 31.45-8.88 67.48-28.46 68.89-11.36.81-21.56-10.3-28.57-25.91l54-62.32a118.11 118.11 0 0 1 3.03 19.34Z" style="stroke:#ce7328;stroke-linejoin:round;fill:#fcee20;stroke-width:1.36px"/><path d="M72.47 126a18.66 18.66 0 0 1-.11 3.78c-2.41-.59-3.84 0-6.22 1.18a17.74 17.74 0 0 1-.87-4.44c-.33-4.67 1-8.58 3-8.72s3.86 3.57 4.2 8.2Z" style="fill:#ce7328"/><ellipse cx="78.57" cy="121.78" rx="3.61" ry="8.48" transform="translate(-8.52 5.94)" style="fill:#ce7328"/><ellipse cx="79.88" cy="118.75" rx="1.21" ry="2.28" transform="rotate(-7.72 79.903 118.767)" style="fill:#fff"/><ellipse cx="70.14" cy="122.89" rx="1.21" ry="2.28" transform="rotate(-8.98 70.118 122.81)" style="fill:#fff"/><path d="M54.47 131.11s9.5 13.19 31.4.08" style="stroke-linecap:round;stroke:#ce7328;stroke-linejoin:round;fill:none"/><path d="M64.81 131.94s4.34-4.29 8.7-1.82" style="stroke-linecap:round;stroke:#ce7328;stroke-linejoin:round;fill:none"/></g></svg>