<svg xmlns="http://www.w3.org/2000/svg" viewBox="0 0 150 150"><defs><clipPath id="a"><path d="M0 0h150v150H0z" style="fill:none"/></clipPath></defs><g style="clip-path:url(#a)"><path d="m119.52 49.88-12.98-11.24-11.37 13.13c-10.54-18.79-25.7-30.07-42.04-28.9C24.88 24.89 5.4 63.21 8.77 110.11c.88 12.19 3.21 23.58 6.66 33.74l-16.69 19.26 12.98 11.24 11.37-13.13c10.54 18.79 25.7 30.07 42.04 28.9 28.24-2.03 47.73-40.35 44.36-87.25-.88-12.19-3.21-23.58-6.66-33.73l16.68-19.27Zm-93.62 59c-2.26-31.46 8.87-67.48 28.46-68.89 11.36-.82 21.55 10.3 28.57 25.91l-53.97 62.32c-1.54-6.34-2.6-12.89-3.06-19.34Zm66.47-4.77c2.26 31.46-8.87 67.48-28.46 68.89-11.36.82-21.55-10.3-28.57-25.91l53.97-62.32c1.54 6.34 2.6 12.89 3.06 19.34Z" style="stroke:#ce7328;stroke-linejoin:round;fill:#fcee20;stroke-width:1.36px"/><path d="M72.47 126.04c.1 1.35.05 2.63-.1 3.77-2.41-.59-3.84.01-6.22 1.19-.44-1.27-.75-2.8-.87-4.44-.34-4.67 1-8.57 2.99-8.72 1.99-.14 3.87 3.53 4.2 8.2" style="fill:#ce7328"/><ellipse cx="78.57" cy="121.78" rx="3.61" ry="8.48" style="fill:#ce7328" transform="rotate(-4.11 78.512 121.693)"/><ellipse cx="79.88" cy="118.75" rx="1.21" ry="2.28" style="fill:#fff" transform="rotate(-7.72 79.903 118.767)"/><ellipse cx="70.14" cy="122.89" rx="1.21" ry="2.28" style="fill:#fff" transform="rotate(-8.98 70.118 122.81)"/><path d="M54.47 131.11s9.5 13.19 31.4.08" style="fill:none;stroke-linecap:round;stroke:#ce7328;stroke-linejoin:round"/><path d="M64.81 131.94s4.34-4.29 8.7-1.82" style="fill:none;stroke-linecap:round;stroke:#ce7328;stroke-linejoin:round"/></g></svg>