<?xml version="1.0" encoding="UTF-8"?><svg id="a" xmlns="http://www.w3.org/2000/svg" viewBox="0 0 150 150"><defs><style>.b{fill:none;stroke-linecap:round;}.b,.c{stroke:#ce7328;}.b,.c,.d{stroke-linejoin:round;}.c{fill:#fcee20;}.d{fill:#c5c6c8;stroke:#909395;}</style></defs><path class="d" d="M56.25,132.32c1.64-.05,3.02-1.31,3.19-2.98,2.16-22.44,.51-40.78,.44-41.55-.17-1.81-1.77-3.15-3.59-2.98-1.81,.17-3.15,1.77-2.98,3.59,.02,.18,1.66,18.52-.44,40.31-.17,1.81,1.15,3.42,2.97,3.6,.14,.01,.28,.02,.41,.01Z"/><path class="d" d="M96.56,132.29c1.63-.17,2.92-1.53,2.95-3.21,.47-22.54-2.55-40.7-2.68-41.46-.3-1.8-2-3.01-3.8-2.7-1.8,.3-3.01,2-2.7,3.8,.03,.18,3.04,18.35,2.59,40.23-.04,1.82,1.41,3.33,3.23,3.36,.14,0,.28,0,.41-.02Z"/><g><path class="d" d="M64.09,96.01c-.22,13.42-.1,29.63-.09,46.22-2.04,2.52-4.76,7.24-4.76,7.24l15.27-.03c-1.11-2.31-2.58-4.93-4.16-7.38,.13-18.58-.18-37.56,.76-45.12"/><path class="d" d="M87.98,96.01c.22,13.42,.1,29.63,.09,46.22,2.04,2.52,4.76,7.24,4.76,7.24l-15.27-.03c1.11-2.31,2.58-4.93,4.16-7.38-.13-18.58,.18-37.56-.76-45.12"/></g><path class="c" d="M111.57,25.87l-7.26-6.87-6.95,7.34c-5.65-11.2-14.18-18.15-23.71-17.88-16.48,.46-28.79,22.25-28.03,49.61,.2,7.11,1.26,13.79,3.01,19.79l-10.2,10.78,7.26,6.87,6.95-7.34c5.65,11.2,14.18,18.15,23.71,17.88,16.48-.46,28.79-22.25,28.03-49.61-.2-7.11-1.26-13.79-3.01-19.79l10.2-10.78Zm-55.96,31.92c-.51-18.35,6.89-39.02,18.32-39.33,6.62-.18,12.27,6.54,15.95,15.8l-32.98,34.86c-.73-3.73-1.18-7.56-1.28-11.33Zm38.78-1.07c.51,18.35-6.89,39.02-18.32,39.34-6.62,.18-12.27-6.54-15.95-15.8l32.98-34.86c.73,3.73,1.18,7.56,1.28,11.33Z"/><path class="b" d="M68.35,78.42s2.81-4.88,6.28-.69"/><path class="b" d="M78.2,77.7s2.81-4.88,6.28-.69"/><path class="b" d="M72.55,83.93s3.88,2.99,8.66-.3"/></svg>