<svg data-name="Layer 1" xmlns="http://www.w3.org/2000/svg" viewBox="0 0 150 150"><path d="m84 52.4-6.19-3.27 3.09 1.63-3.09-1.63c.1-.18 9.69-18.77 12.69-52.77l7 .62C94.31 32.52 84.39 51.61 84 52.4ZM27 51.25c-.46-.9-11.21-22.28-14.11-55.6l7-.61c2.78 31.88 13.27 52.82 13.38 53ZM75.48 89.65c2.9 7.25 18.3 32.75 29.27 45.5 4.37-2.48 17.19-10.56 17.19-10.56l-17.51 19.71C91.77 129 73.52 101.49 71 94M50.65 87.45c-.48 7.8-7.13 36.83-13.56 52.37-4.93-1-19.64-4.65-19.64-4.65l22.81 13.24c7.24-18.46 16-50.33 16-58.24" style="stroke-linejoin:round;fill:#c5c6c8;stroke:#909395"/><path d="m84.12 15.56-8.74-4.87-4.92 8.83C62.23 10.06 52.25 5.43 43.07 8c-15.85 4.54-22.41 28.7-14.93 55a79.11 79.11 0 0 0 7.8 18.43l-7.22 13 8.73 4.87 4.92-8.83c8.24 9.45 18.22 14.09 27.39 11.48 15.86-4.51 22.42-28.66 14.93-55a78.49 78.49 0 0 0-7.79-18.43ZM37.76 60.29c-5-17.66-2.95-39.51 8.05-42.64C52.18 15.84 59.31 21 65.16 29L41.8 71a69.05 69.05 0 0 1-4.04-10.71Zm37.32-10.61c5 17.66 3 39.52-8 42.64-6.42 1.81-13.56-3.32-19.4-11.38L71 39a69.33 69.33 0 0 1 4.08 10.68Z" style="stroke:#ce7328;fill:#fcee20;stroke-linejoin:round"/><path d="M72.85 78.49c-6.08 9.34-14.9 1.9-14.9 1.9s.29 8.69 5.11 9 3.7-5.86 3.7-5.86" style="fill:none;stroke-linecap:round;stroke:#ce7328;stroke-linejoin:round"/><ellipse cx="61.86" cy="76.9" rx="2.4" ry="4.5" transform="rotate(-6.7 61.839 76.903)" style="fill:#ce7328"/><ellipse cx="62.63" cy="79" rx=".79" ry="1.3" transform="rotate(-6.7 62.659 79.008)" style="fill:#fff"/><ellipse cx="67.81" cy="76.2" rx="2.4" ry="4.5" transform="rotate(-6.7 67.793 76.223)" style="fill:#ce7328"/><ellipse cx="68.58" cy="78.3" rx=".79" ry="1.3" transform="rotate(-6.7 68.613 78.328)" style="fill:#fff"/></svg>