<svg xmlns="http://www.w3.org/2000/svg" xmlns:xlink="http://www.w3.org/1999/xlink" xml:space="preserve" viewBox="0 0 371.3 150"><path d="M179.5 106.4c0-4.6-2.3-5.4-2.3-9.9 0-2.5.7-6.6 2.4-6.6-1.7 0-2.4-4.1-2.4-6.6 0-4.1 2.3-5.6 2.3-10.8 0-8.9-5.5-7.7-5.5-7.7l-.1-4.4s10.1-1.8 10.1 12c0 4.5-1.9 7.8-1.9 11.4 0 3.4 4.2 3.4 4.2 3.4V92s-3.3.4-3.3 4.5c0 4.7 2.5 4.7 2.5 9.3" style="fill:#ff60b2;stroke:#a42963;stroke-linejoin:round;stroke-miterlimit:10"/><path d="M165.4 106.4c0-4.6 2.3-5.4 2.3-9.9 0-2.5-.7-6.6-2.4-6.6 1.7 0 2.4-4.1 2.4-6.6 0-4.1-2.3-5.6-2.3-10.8 0-8.9 5.5-7.7 5.5-7.7l.1-4.4s-10.1-1.8-10.1 12c0 4.5 1.9 7.8 1.9 11.4 0 3.4-4.2 3.4-4.2 3.4l1.2 4.8s2.1.5 2.1 4.6c0 4.7-2.5 4.7-2.5 9.3" style="fill:#ff60b2;stroke:#942359;stroke-linejoin:round;stroke-miterlimit:10"/><path d="M177.5 88.3h1.4c.8 0 1.4-.6 1.4-1.4h.9c0 1.3-1 2.3-2.3 2.3h-1s-.3-.7-.4-.9m-10.1 0H166c-.8 0-1.4-.6-1.4-1.4h-.9c0 1.3 1 2.3 2.3 2.3h1s.4-.7.4-.9" style="opacity:.1"/><path d="M180.4 83.1s2.3-3.2 4.3-4.1c.8-.4 1.8-.3 1.8 1.2" style="fill:none;stroke:#942359;stroke-linecap:round;stroke-linejoin:round;stroke-miterlimit:10"/><path d="M173.4 90.4c0 1.4 0 3.3-1.2 3.3s-1.2-1.9-1.2-3.3" style="fill:none;stroke:#942359;stroke-linecap:round;stroke-miterlimit:10"/><path d="M180.5 87.9h-5.4c-1 0-1.8-.8-1.8-1.8v-7.6c0-1 .8-1.8 1.8-1.8h5.4c1 0 1.8.8 1.8 1.8v7.6c.1 1-.8 1.8-1.8 1.8z" style="fill:#fff;stroke:#942359;stroke-linejoin:round;stroke-miterlimit:10"/><ellipse cx="176.6" cy="82.5" rx="1.9" ry="4.1" style="fill:#942359"/><ellipse cx="176.1" cy="82.8" rx=".8" ry="1.2" style="fill:#fff"/><path d="M169 87.9h-5.4c-1 0-1.8-.8-1.8-1.8v-7.6c0-1 .8-1.8 1.8-1.8h5.4c1 0 1.8.8 1.8 1.8v7.6c0 1-.8 1.8-1.8 1.8z" style="fill:#fff;stroke:#942359;stroke-linejoin:round;stroke-miterlimit:10"/><ellipse cx="164.8" cy="82.5" rx="1.9" ry="4.1" style="fill:#942359"/><ellipse cx="164.3" cy="82.8" rx=".8" ry="1.2" style="fill:#fff"/><path d="M170.8 82.5s1-.9 2.4 0" style="fill:none;stroke:#942359;stroke-linejoin:round;stroke-miterlimit:10"/><path d="M213.8 101.1c-4.1-12.4-2-20.7-1.9-21.1l2.7.7-1.4-.4 1.4.4c0 .1-1.9 7.9 1.8 19.5z" style="fill:#cdced0;stroke:#686869;stroke-linejoin:round;stroke-miterlimit:10"/><path d="M211.1 82.9s1.1 1.2 3.4 1.4c0-.3.1-1.2.2-1.5l-3.4-1.3s-.2.4-.2 1.4" style="opacity:.1"/><path d="M219.4 101.1c-4.1-12.4-2-20.7-1.9-21.1l2.7.7-1.4-.4 1.4.4c0 .1-1.9 7.9 1.8 19.5z" style="fill:#cdced0;stroke:#686869;stroke-linejoin:round;stroke-miterlimit:10"/><path d="M216.6 84.4s2.7-.2 3.6-1c0 0 .1-1.1.1-1.3l-3.7 1c.1 0 .1.6 0 1.3" style="opacity:.1"/><ellipse cx="216" cy="71.9" rx="9.7" ry="11.1" style="fill:#c669ea;stroke:#70327e;stroke-linejoin:round;stroke-miterlimit:10"/><ellipse cx="216.4" cy="72.3" rx="1.5" ry="4.2" style="fill:#70327e"/><ellipse cx="216" cy="73.2" rx=".5" ry="1.2" style="fill:#fff"/><path d="M209.1 67s0-1.4 1-1.6m8 1.6s0-1.4-1-1.6" style="fill:none;stroke:#70327e;stroke-linecap:round;stroke-linejoin:round;stroke-miterlimit:10"/><ellipse cx="210.6" cy="72.3" rx="1.5" ry="4.2" style="fill:#70327e"/><ellipse cx="210.2" cy="73.2" rx=".5" ry="1.2" style="fill:#fff"/><defs><path id="a" d="M216.7 101.9h-12.1c0-4-2.7-7.2-6-7.2s-6 3.3-6 7.2h-12.1c0-12.1 8.1-22 18.1-22s18.1 9.8 18.1 22"/></defs><clipPath id="b"><use xlink:href="#a" style="overflow:visible"/></clipPath><g style="clip-path:url(#b)"><path d="M182.6 102.3c0-10.8 7.2-19.6 16.1-19.6s16.1 8.8 16.1 19.6" style="fill:none;stroke:#2ac5f4;stroke-width:6.1228;stroke-linejoin:round;stroke-miterlimit:10"/></g><g style="clip-path:url(#b)"><path d="M186.6 101.9c0-8.1 5.4-14.6 12-14.6s12 6.6 12 14.6" style="fill:none;stroke:#ff60b2;stroke-width:6.1228;stroke-linejoin:round;stroke-miterlimit:10"/></g><g style="clip-path:url(#b)"><path d="M190.7 101.9c0-5.4 3.6-9.7 8-9.7s8 4.4 8 9.7" style="fill:none;stroke:#fff200;stroke-width:6.1228;stroke-linejoin:round;stroke-miterlimit:10"/></g><path d="M216.7 101.9h-12.1c0-4-2.7-7.2-6-7.2s-6 3.3-6 7.2h-12.1c0-12.1 8.1-22 18.1-22s18.1 9.8 18.1 22z" style="fill:none;stroke:#70327e;stroke-linejoin:round;stroke-miterlimit:10"/><path d="M199.7 90.9s-.2 2.1-1.5 2.1-1.5-2.1-1.5-2.1" style="fill:none;stroke:#70327e;stroke-linecap:round;stroke-linejoin:round;stroke-miterlimit:10"/><path d="m197 93.9-1.7.8.9 1.8 2.7-.6.3-1.6z" style="fill:#f6eb25"/><path d="M195.3 89.6c-.6-5.2-3.3-5.2-3.9 0-.8 1.1-.6-2.5-.4-2.9.3-1.9 2.6-3.1 4-1.4 1 1.2 1 2.9.8 4.3 0 .3-.5.3-.5 0" style="fill:#70327e"/><path d="M190.5 84.6s-.1-1.2 1.1-1.4" style="fill:none;stroke:#70327e;stroke-linecap:round;stroke-linejoin:round;stroke-miterlimit:10"/><path d="M200.7 89.6c-.2-1.4-.2-3.1.8-4.3 1.4-1.6 3.7-.5 4 1.4.2.4.4 4-.4 2.9-.6-5.2-3.3-5.2-3.9 0 0 .3-.4.3-.5 0" style="fill:#70327e"/><path d="M206 84.6s.1-1.2-1.1-1.4" style="fill:none;stroke:#70327e;stroke-linecap:round;stroke-linejoin:round;stroke-miterlimit:10"/><path d="M160.1 85.5c-.9-4.7-1.8-8.5-2.6-11.7 1.2-1.5 3-3.7 4.3-5.2l-1.5-4.1c-1.2 1.3-2.9 3.4-4.1 4.9-2.9-9.3-5.5-10.6-7.7-10.4-.9.1-2.3.6-3.5 2.1-1.7 2.3-2.7 6.6-2.8 12.6-.1 4.3.2 9.1.9 13.3-4 5.8-5.3 8-5.4 8h4.4c0-.1-.6.9 2-3 3.4 14.5 9.1 22.9 15.3 22.2.2 0 .4 0 .6-.1.6-.1 1.5-.5 2.2-1.5 2.3-3.4.9-12.5-1.7-25.2-.1-.7-.3-1.4-.4-1.9zm-12.2-21.6c.4-.5 1.5-.7 2 0 .8 1.3 2 3.8 3.5 9.2-2.5 3.2-4.9 6.4-7.1 9.5-.8-7.6-.4-15.9 1.6-18.7zm11.3 46.8c-3.8.4-9.1-7.1-12.1-22.6v-.2c2.2-3.2 4.7-6.7 7.5-10.3.6 2.5 1.2 5.3 1.9 8.7.1.5.3 1.3.4 2.2.7 3.1 1.8 8.4 2.4 13.2.8 6.8.1 8.6-.1 9z" style="fill:#fff200;stroke:#a1511a;stroke-linejoin:round;stroke-miterlimit:10"/><path d="M145.3 96.7c-.4.1-.4.2-.7.2-.3.1-.6.1-.9.2-.6.1-1.2.2-1.7.3-1.2.1-2.3.2-3.5.2-2.3 0-4.6-.2-6.8-.5l-1.7-.3c-.6-.1-1.1-.2-1.7-.3-1.1-.2-2.2-.5-3.3-.8s-2.1-.7-3.2-1c-1.1-.4-2.1-.8-3.2-1.1-.6-.2-.9-.8-.7-1.4.2-.5.8-.8 1.3-.7h.1c1 .3 2.1.6 3.1.9 1 .2 2.1.5 3.1.8 1.1.2 2.1.4 3.2.6.5.1 1.1.2 1.6.2l1.6.2c2.1.2 4.2.2 6.3.1 1-.1 2.1-.2 3.1-.4l1.5-.3c.2-.1.5-.1.7-.2s.6-.2.6-.2c.6.7 1 2.7 1.2 3.5z" style="fill:#cdced0;stroke:#686869;stroke-linejoin:round;stroke-miterlimit:10"/><path d="M143.5 93.1s0 2.3.5 4.4c.4-.1.9-.2 1.1-.3 0-.1 0-3.8-.9-4.3-.2 0-.5.1-.7.2" style="opacity:.1"/><path d="M144.2 92.2c3.4 14.5 9.1 22.9 15.3 22.2" style="fill:none;stroke:#a1511a;stroke-linecap:round;stroke-linejoin:round;stroke-miterlimit:10"/><ellipse cx="150.3" cy="90.2" rx="1.5" ry="3.5" style="fill:#a1511a" transform="rotate(-18.084 150.254 90.244)"/><ellipse cx="149.4" cy="89.4" rx=".5" ry="1" style="fill:#fff" transform="rotate(-18.084 149.377 89.38)"/><ellipse cx="153.5" cy="88.6" rx="1.5" ry="3.5" style="fill:#a1511a" transform="rotate(-18.084 153.512 88.607)"/><ellipse cx="152.6" cy="87.7" rx=".5" ry="1" style="fill:#fff" transform="rotate(-18.084 152.634 87.742)"/><path d="m234.6 72.7-.7 3.9s-3.7-1-4.2-1c0 .5-2.6 8.5-.6 23.1-3.5.3-6 .2-6 .2s-3-14.6.5-28c.2-.7.9-1.1 1.5-.9 2.9.7 9.5 2.7 9.5 2.7zm5.9 1.3-.7 4s1.8.6 2 .7c-.1.6-1.6 6.6-1.5 19.8 1 0 3.6.1 3.6.1s-1.1-8.1 2.3-22.5c-.8-.5-3.5-1.5-5.7-2.1z" style="fill:#2ac5f4;stroke:#0b6a88;stroke-linejoin:round;stroke-miterlimit:10"/><ellipse cx="233.2" cy="84.3" rx="3.9" ry="1.5" style="fill:#0b6a88" transform="rotate(-86.746 233.153 84.297)scale(1.00001)"/><ellipse cx="233.7" cy="83" rx=".6" ry="1.2" style="fill:#fff" transform="matrix(.9998 -.01822 .01822 .9998 -1.474 4.271)"/><ellipse cx="238" cy="84.8" rx="3.9" ry="1.5" style="fill:#0b6a88" transform="rotate(-86.746 237.968 84.8)scale(1.00001)"/><ellipse cx="238.5" cy="83.5" rx=".6" ry="1.2" style="fill:#fff" transform="matrix(.9998 -.01822 .01822 .9998 -1.482 4.36)"/><path d="M235.7 91.9c-4.4 2.2-5.3-4.6-5.3-4.6s-.5 6.9 1.9 7.7c.4.2 1.3-.4 1.4-2.6" style="fill:#0b6a88;stroke:#0b6a88;stroke-linecap:round;stroke-linejoin:round;stroke-miterlimit:10"/><path d="m241.6 130.3-.3 4.3 16.4.2-1.1-4.4z" style="fill:#5fd3f7"/><path d="m241.3 134.6-88.2.2-4.8-30-3 .1-.4-4.2s49.5-3.7 101.9-3.3c0 2-.6 4.4-.6 4.4h-2.8z" style="fill:#5fd3f7"/><path d="M243.4 104.1s-39.2-1.6-94.6 2.5c-.8-1.3-.4-1.8-.4-1.8s49.6-3.9 95-2.9c-.1 1 0 2.2 0 2.2m-90.1 30.8v-1.2c.6 0 61.1-.7 106.2-.2v1.2c-45.1-.5-105.6.2-106.2.2" style="fill:#2ac5f4"/><path d="M158.9 135.1c-.1-1.2-.1-2.4.1-3.6 1.2-6.3 7.3-10.4 13.6-9.2 4.6.9 8 4.4 9.1 8.7.4 1.5-20.1 3.3-22.8 4.1m45.1 0c-.1-1.2-.1-2.4.1-3.6 1.2-6.3 7.3-10.4 13.6-9.2 4.6.9 8 4.4 9.1 8.7.3 1.5-20.1 3.3-22.8 4.1" style="fill:#2ac5f4"/><path d="M148.2 104.9c.4 2.8 4.8 30 4.8 30h88.1l2.4-32.9m-98 2.9-.7-4.2c57.4-3.5 102.2-3.3 102.2-3.3l-.9 4.4c0 .1-44.7-1-100.6 3.1m96.3 25.6h16.7l-.8 4.3h-16.5" style="fill:none;stroke:#0a566e;stroke-linecap:round;stroke-linejoin:round;stroke-miterlimit:10"/><path d="M216.4 147.9c-1-.2-2-.5-2.9-1-2.9-1.4-5.2-3.9-6.3-6.9-1.1-3.1-.9-6.4.5-9.3 2.4-5 7.9-7.8 13.3-6.7 1 .2 2 .5 2.9 1 2.9 1.4 5.2 3.9 6.3 6.9 1.1 3.1.9 6.4-.5 9.3-2.4 4.9-7.9 7.7-13.3 6.7" style="fill:#fff"/><defs><circle id="c" cx="218.7" cy="135.9" r="13.8"/></defs><clipPath id="d"><use xlink:href="#c" style="overflow:visible"/></clipPath><g style="clip-path:url(#d)"><path d="m228.2 115.8-19.1 40.1m-10.5-29.6 40.1 19.1M211.2 115l14.9 41.8m-28.3-13.5 41.8-14.8" style="fill:none;stroke:#0a566e;stroke-linecap:round;stroke-linejoin:round;stroke-miterlimit:10"/></g><circle cx="218.7" cy="135.9" r="3.4" style="fill:#5fd3f7;stroke:#0a566e;stroke-linecap:round;stroke-linejoin:round;stroke-miterlimit:10"/><path d="M220.7 125.5c.9.2 1.7.5 2.6.8 2.6 1.2 4.5 3.4 5.4 6 .9 2.7.8 5.5-.4 8.1-2.1 4.4-6.8 6.8-11.6 5.9-.9-.2-1.7-.5-2.6-.8-2.6-1.2-4.5-3.4-5.4-6s-.8-5.5.4-8.1c2.1-4.4 6.8-6.8 11.6-5.9m.6-3.2c-6-1.2-12.3 1.8-15.1 7.6-3.3 6.9-.4 15.1 6.5 18.4 1.1.5 2.2.9 3.3 1.1 6 1.2 12.3-1.8 15.1-7.6 3.3-6.9.4-15.1-6.5-18.4-1.1-.5-2.2-.9-3.3-1.1" style="fill:#2ac5f4;stroke:#0a566e;stroke-linecap:round;stroke-linejoin:round;stroke-miterlimit:10"/><path d="M168.1 146.7c-5.7-3-8-9.9-5.4-15.8 2.8-6.1 10-8.9 16.1-6.1.2.1.5.2.7.4 5.7 3 8 9.9 5.4 15.8-2.8 6.1-10 8.9-16.1 6.1-.3-.2-.5-.3-.7-.4" style="fill:#fff"/><defs><circle id="e" cx="173.8" cy="135.9" r="13.8"/></defs><clipPath id="f"><use xlink:href="#e" style="overflow:visible"/></clipPath><g style="clip-path:url(#f)"><path d="m182.8 115.6-18.1 40.5m-11.2-29.3L194 145m-28.1-29.9 15.8 41.5M153 143.8l41.5-15.8" style="fill:none;stroke:#0a566e;stroke-linecap:round;stroke-linejoin:round;stroke-miterlimit:10"/></g><circle cx="173.8" cy="135.9" r="3.4" style="fill:#5fd3f7;stroke:#0a566e;stroke-linecap:round;stroke-linejoin:round;stroke-miterlimit:10"/><path d="M178.7 126.5c4.9 2.6 7 8.6 4.7 13.7-1.2 2.6-3.3 4.6-5.9 5.6s-5.5.9-8.1-.2l-.6-.3c-4.9-2.6-7-8.6-4.7-13.7 1.2-2.6 3.3-4.6 5.9-5.6s5.5-.9 8.1.2zm1.5-2.8c-.3-.1-.5-.3-.8-.4-7-3.1-15.1 0-18.2 7-3 6.7-.2 14.5 6.1 17.8.3.1.5.3.8.4 7 3.1 15.1 0 18.2-7 3.1-6.7.3-14.4-6.1-17.8" style="fill:#2ac5f4;stroke:#0a566e;stroke-linecap:round;stroke-linejoin:round;stroke-miterlimit:10"/><path d="M186 98.3s-.8 2.1 0 3c.5.6 1.5.5 1.7.1.1-.4.2-3.5-1.7-3.1" style="opacity:.1"/><path d="M188.4 96.6c-.7 0-2 .4-2.2 2.4-.1.9.2 2.4 1.2 2.4.8 0 1.6-.9 1.9-2.6.1-.3.5-2.2-.9-2.2z" style="fill:#cdced0;stroke:#686869;stroke-linejoin:round;stroke-miterlimit:10"/><path d="M204.8 97.7s-.3 2.4.6 3.1c.6.5 1.5.2 1.6-.3.1-.4-.5-3.6-2.2-2.8" style="opacity:.1"/><path d="M206.3 96c.7 0 2 .5 2.1 2.5.1.9-.2 2.4-1.3 2.3-.8-.1-1.5-1-1.9-2.7 0-.2-.3-2.2 1.1-2.1z" style="fill:#cdced0;stroke:#686869;stroke-linejoin:round;stroke-miterlimit:10"/><path d="M195.1 98s-.3 4.9 1.3 9.9c.1.5-.5-.1-.5-.1s-2.3-6.3-1.5-9.8z" style="opacity:.1"/><path d="m195.8 108.4-2.5 4.9c-.1.2-.4.1-.4-.1l-.2-1.8" style="opacity:.1;stroke:#000;stroke-width:.2355;stroke-linecap:round;stroke-linejoin:round;stroke-miterlimit:10"/><path d="M198.5 98.1c-1.8-3.6-3.5-3.9-4.7-3.8-1.3.1-2.3 1-2.7 2.5-1.1 3.6.3 8.5 1.2 11.1l-.7 5.6 4.5-5.3c-.8-1.8-2.5-6.9-1.7-10.1" style="fill:#cdced0;stroke:#686869;stroke-linejoin:round;stroke-miterlimit:10"/><path d="M195 96.5s.4.6.6 1.6c0 0-1.1 0-1.1-.1 0 0 .3-1.5.5-1.5" style="opacity:.1"/><path d="M194.2 101.9s-.6-3.2.5-5.2" style="fill:none;stroke:#686869;stroke-linecap:round;stroke-linejoin:round;stroke-miterlimit:10"/><path d="m201.4 108.4-2.5 4.9c-.1.2-.4.1-.4-.1l-.2-1.8" style="opacity:.1;stroke:#000;stroke-width:.2355;stroke-linecap:round;stroke-linejoin:round;stroke-miterlimit:10"/><path d="M200.7 97.9s-.3 4.8 1.3 9.9c.1.5-.5-.1-.5-.1s-2.4-6.1-1.5-9.7c.3 0 .7-.1.7-.1" style="opacity:.1"/><path d="M204.1 97.9c-1.8-3.6-3.5-3.9-4.7-3.8-1.3.1-2.3 1-2.7 2.5-1.1 3.6.3 8.5 1.2 11l-.6 5.6 4.4-5.3c-.8-1.8-2.5-6.9-1.8-10" style="fill:#cdced0;stroke:#686869;stroke-linejoin:round;stroke-miterlimit:10"/><path d="M200.7 96.3s.4.6.6 1.6l-1.1.1c0-.1.3-1.7.5-1.7" style="opacity:.1"/><path d="M199.9 101.7s-.6-3.2.5-5.2" style="fill:none;stroke:#686869;stroke-linecap:round;stroke-linejoin:round;stroke-miterlimit:10"/><path d="M204.6 97.6s-3.8.1-4.2.2c0 .1-.1.2-.1.7.3.1 1.5 0 2.5-.1.5-.1 1.8.2 1.8-.8" style="fill:#0a566e"/><path d="M165.2 101.6c.5.1 1.7-.4 2.4-1.9.2-.4-.8-.1-.8 0 0 .2-1.6 1.9-1.6 1.9" style="opacity:.1"/><path d="M169.2 99.2s-.8-3-3.3-2.5c-1.8.3-3.9 4.9-1.5 4.8 1.4 0 2.6-2.3 2.7-2.4" style="fill:#cdced0;stroke:#686869;stroke-linecap:round;stroke-linejoin:round;stroke-miterlimit:10"/><path d="m170 98.9-2.7.1c0 .1-.1.7-.1.7h2.7z" style="fill:#0a566e"/><path d="M167.7 98.2s.2.2.4.8c0 0-.3.6-.4.6h-.4c-.1 0 .1-.5.1-.6-.1-.1.2-.7.3-.8" style="opacity:.1"/><path d="M166.7 99.7s.7-1 .8-1.2" style="fill:#cdced0;stroke:#686869;stroke-linecap:round;stroke-linejoin:round;stroke-miterlimit:10"/><path d="M149.9 101s1 .6 2 .2c.4-.2.9-.5.8-.7-.2-.2-.4-.1-.8 0-.5 0-1.8.5-2 .5" style="opacity:.1"/><path d="M155.8 100s-1.7-3.9-5.4-2.1c-1.4.7-2.5 3.1-.1 3 .6 0 1.6-.3 2.3-.9" style="fill:#cdced0;stroke:#686869;stroke-linejoin:round;stroke-miterlimit:10"/><path d="m156.3 99.5-3.3.2-.5.7 3.9-.2z" style="fill:#0a566e"/><path d="M227.9 97.2s.1 4 3.2 3.7c.9-.1-1.9-3.9-3.2-3.7m15 0s.1 4 3.2 3.7c.9-.1-2-3.9-3.2-3.7" style="opacity:.1"/><path d="M223.2 97.6s.7-2.9 5-2.9c1.5 0 3.5 1.9 3.5 4.1 0 1-.3 1.9-1.6 1.9s-3.2-.9-3.7-3.4" style="fill:#cdced0;stroke:#686869;stroke-miterlimit:10"/><path d="M222.6 97.2s3-.1 3.6 0v.7h-3.5z" style="fill:#0a566e"/><path d="M226.2 96.4s-.7.1-1.2.7c-.1.1 1.1 1.1 1.2 1s.2-1.5 0-1.7" style="opacity:.1"/><path d="M226.8 98.7s-.4-.7-.6-1.9" style="fill:none;stroke:#686869;stroke-linecap:round;stroke-linejoin:round;stroke-miterlimit:10"/><path d="M240.1 97.4s.7-2.9 5-2.9c1.5 0 3.4 2 3.4 4.1 0 1-.3 1.9-1.7 1.9-1.3 0-3.2-.9-3.7-3.4" style="fill:#cdced0;stroke:#686869;stroke-miterlimit:10"/><path d="M239.6 96.9s2.9-.1 3.5 0v.8h-3.5z" style="fill:#0a566e"/><path d="M243.1 96.2s-.9.1-1 .7c0 .2 1.1 1.9 1.1.3 0-.2-.1-1-.1-1" style="opacity:.1"/><path d="M243.7 98.5s-.4-.7-.5-1.9" style="fill:none;stroke:#686869;stroke-linecap:round;stroke-linejoin:round;stroke-miterlimit:10"/><path d="M172.7 101.3c.5.1 1.7-.4 2.4-1.9.2-.4-.8-.1-.8 0s-1.6 1.9-1.6 1.9" style="opacity:.1"/><path d="M176.7 98.9s-.8-3-3.3-2.5c-1.8.3-3.9 4.9-1.5 4.8 1.4 0 2.6-2.3 2.7-2.4" style="fill:#cdced0;stroke:#686869;stroke-linecap:round;stroke-linejoin:round;stroke-miterlimit:10"/><path d="M177.3 98.5s-2.4.1-2.5.1c0 .1.1.6.1.6l2.5.2z" style="fill:#0a566e"/><path d="M175.2 98s.2.1.4.6c0 0-.3.6-.4.7-.3-.1-.5.1-.3-.6 0 0 .2-.7.3-.7" style="opacity:.1"/><path d="M174.2 99.4s.7-1 .8-1.2" style="fill:#cdced0;stroke:#686869;stroke-linecap:round;stroke-linejoin:round;stroke-miterlimit:10"/><path d="M153.3 98.8s.5.5.5 1.1c0 .2-.9.2-.8 0-.1-.2.3-.7.3-1.1" style="opacity:.1"/><path d="M151.7 100.5s.8-.1 1.3-1.4" style="fill:#cdced0;stroke:#686869;stroke-linecap:round;stroke-linejoin:round;stroke-miterlimit:10"/><path d="m297.9 99.8-8.4 1.6c-.3.1-.7-.2-.7-.5l-1.6-8.4c-.1-.3.2-.7.5-.7l8.4-1.6c.3-.1.7.2.7.5l1.6 8.4c.1.3-.1.6-.5.7z" style="fill:#ff88c5;stroke:#70327e;stroke-linejoin:round;stroke-miterlimit:10"/><path d="M346.4 67.1c.2-.9.3-2.3.3-2.5.6-8-1.3-16.7-5.3-25-5.4-11-14.1-20.3-24.5-26.1s-23.3-8.4-37.2-7.6c-5.5.3-11 1.2-16.3 2.6-8.1 2.1-16 5.3-23.2 9.6-.2.1-3.2 1.9-3.5 2.1" style="fill:none;stroke:#ff4e15;stroke-width:5.7722;stroke-linejoin:round;stroke-miterlimit:10"/><path d="M240.6 24.2c.3-.2 2.9-1.7 3.2-1.9s.5-.3.8-.5c6.3-3.7 13.1-6.5 20.1-8.4q4.5-1.2 9-1.8 2.85-.45 5.7-.6c12.4-.9 24.1 1.3 33.7 6.3s17.7 13.2 23 22.9c3.7 6.7 5.9 13.8 6.1 20.6v3.5c0 .3-.1 1.6-.3 2.5" style="fill:none;stroke:#ff9f4c;stroke-width:5.7722;stroke-linejoin:round;stroke-miterlimit:10"/><path d="M244.5 28.5c.3-.2 2.4-1.5 2.8-1.7.2-.2.5-.3.7-.4 5.6-3.4 11.6-6 17.8-7.7 2.6-.7 5.3-1.3 8-1.8q2.55-.45 5.1-.6c11-1 21.4.7 30.2 4.9s16.4 11.3 21.6 19.8c3.9 6.3 6.5 13 6.8 19.8 0 .8.1 2.1.1 3.4 0 .4-.1 1.6-.2 2.4" style="fill:none;stroke:#fff200;stroke-width:5.7722;stroke-linejoin:round;stroke-miterlimit:10"/><path d="M248.4 32.9c.2-.2 1.9-1.2 2.5-1.5.2-.1.4-.3.6-.4 4.9-3.1 10.1-5.4 15.6-7 2.3-.7 4.7-1.3 7-1.7 1.5-.3 3-.5 4.4-.7 9.5-1 18.7.1 26.7 3.5s15.1 9.4 20.2 16.6c4.2 5.9 7 12.3 7.6 18.9 0 .6.1 1.9.1 3.3 0 .5 0 1.6-.1 2.4" style="fill:none;stroke:#2ac5f4;stroke-width:5.7722;stroke-linejoin:round;stroke-miterlimit:10"/><path d="M252.3 37.2c.2-.1 1.5-.9 2.1-1.4.2-.1.4-.2.5-.4 4.2-2.8 8.7-4.9 13.3-6.4 2-.6 4-1.2 6-1.6 1.3-.3 2.5-.5 3.8-.7 8.1-1.1 16-.4 23.2 2.1 7.3 2.6 13.9 7.4 18.8 13.4 4.5 5.4 7.5 11.6 8.3 18 0 .4.2 1.7.2 3.2v2.3" style="fill:none;stroke:#ff60b2;stroke-width:5.7722;stroke-linejoin:round;stroke-miterlimit:10"/><path d="M256.1 41.7c.2-.1 1.3-.8 2.2-1.5 4.9-3.5 10.5-5.9 16.1-7.3 7.6-1.9 15.5-2 22.9-.1 6.5 1.7 12.7 5.4 17.4 10.2 4.8 4.9 7.9 10.8 9 17.1.1.4.4 3.1.4 5.4" style="fill:none;stroke:#b337e3;stroke-width:5.7722;stroke-linejoin:round;stroke-miterlimit:10"/><circle cx="277.8" cy="21.2" r=".3" style="fill:#fff"/><circle cx="290.4" cy="20.2" r=".3" style="fill:#fff"/><circle cx="283.4" cy="11.5" r=".5" style="fill:#fff"/><circle cx="286.2" cy="26.1" r=".5" style="fill:#fff"/><circle cx="289.5" cy="7.1" r=".5" style="fill:#fff"/><circle cx="277.7" cy="6.7" r=".5" style="fill:#fff"/><path d="m278.9 31.5.2-.5m-.9 1.8.2-.5m-.1-.6-.3-.1m1.3.7-.3-.2" style="fill:none;stroke:#fff;stroke-width:.4497;stroke-linecap:round;stroke-miterlimit:10"/><path d="M257.7 43.9c11.6-9.4 28.9-12.3 42.4-7.1 14.2 5.4 18.8 17.1 20.2 21.2M249.9 9.5c23.7-9.7 51.4-9.9 71.9 3.3 23.8 15.3 26.8 39.7 27.6 45.5" style="fill:none;stroke:#2ac5f4;stroke-linecap:round;stroke-linejoin:round;stroke-miterlimit:10"/><circle cx="323.8" cy="56" r=".3" style="fill:#fff"/><circle cx="344.2" cy="50.8" r=".3" style="fill:#fff"/><circle cx="332.8" cy="54" r=".3" style="fill:#fff"/><circle cx="311.3" cy="35.3" r=".3" style="fill:#fff"/><circle cx="335.4" cy="44.8" r=".3" style="fill:#fff"/><circle cx="340.5" cy="35.8" r=".3" style="fill:#fff"/><circle cx="324.2" cy="27.1" r=".3" style="fill:#fff"/><circle cx="327.6" cy="20.3" r=".3" style="fill:#fff"/><circle cx="336.6" cy="29.3" r=".3" style="fill:#fff"/><circle cx="318.7" cy="43.9" r=".3" style="fill:#fff"/><circle cx="311.9" cy="27.2" r=".5" style="fill:#fff"/><circle cx="326.2" cy="49.9" r=".5" style="fill:#fff"/><circle cx="310.4" cy="39.9" r=".5" style="fill:#fff"/><circle cx="333.6" cy="48.2" r=".5" style="fill:#fff"/><circle cx="310.5" cy="10.6" r=".5" style="fill:#fff"/><circle cx="334" cy="34.9" r=".5" style="fill:#fff"/><circle cx="341" cy="55.2" r=".5" style="fill:#fff"/><circle cx="316.3" cy="22.6" r=".5" style="fill:#fff"/><circle cx="322.1" cy="18.5" r=".5" style="fill:#fff"/><circle cx="344.2" cy="45.2" r=".5" style="fill:#fff"/><circle cx="331.7" cy="26.1" r=".5" style="fill:#fff"/><circle cx="248.2" cy="27.5" r=".3" style="fill:#fff"/><circle cx="247.7" cy="32.1" r=".5" style="fill:#fff"/><circle cx="257.5" cy="27" r=".5" style="fill:#fff"/><circle cx="321" cy="33.3" r=".5" style="fill:#fff"/><path d="m329.2 38.2.4-.4m-1.3 1.5.4-.4m-.1-.6-.2-.2m1.1.9-.2-.2" style="fill:none;stroke:#fff;stroke-width:.4497;stroke-linecap:round;stroke-miterlimit:10"/><circle cx="265.8" cy="24.3" r=".5" style="fill:#fff"/><circle cx="273.5" cy="25.6" r=".5" style="fill:#fff"/><path d="m271 19.1.3-.5m-1.3 1.6.4-.5m0-.6-.3-.2m1.1 1-.2-.2m45.9-5.3.3.5m-1-1.8.3.5m.6.2.2-.1m-1.2.6.2-.1" style="fill:none;stroke:#fff;stroke-width:.4497;stroke-linecap:round;stroke-miterlimit:10"/><circle cx="296.9" cy="23" r=".5" style="fill:#fff"/><circle cx="303.7" cy="35.2" r=".5" style="fill:#fff"/><circle cx="302" cy="26.9" r=".5" style="fill:#fff"/><path d="M297.8 31.3h.6m-2 .1h.6m.4-.5v-.3m0 1.5v-.3" style="fill:none;stroke:#fff;stroke-width:.4497;stroke-linecap:round;stroke-miterlimit:10"/><circle cx="271.1" cy="34.1" r=".3" style="fill:#fff"/><circle cx="302.6" cy="8.9" r=".3" style="fill:#fff"/><circle cx="253.2" cy="13.7" r=".3" style="fill:#fff"/><circle cx="247.5" cy="9.4" r=".5" style="fill:#fff"/><circle cx="309.2" cy="15.7" r=".5" style="fill:#fff"/><circle cx="251.4" cy="16.4" r=".5" style="fill:#fff"/><circle cx="261.7" cy="17.2" r=".5" style="fill:#fff"/><circle cx="296.3" cy="17.3" r=".5" style="fill:#fff"/><circle cx="272.2" cy="13.6" r=".5" style="fill:#fff"/><circle cx="265.1" cy="8.5" r=".3" style="fill:#fff"/><path d="m305.2 19.9.3-.6m-1 1.8.3-.5m-.2-.6-.2-.1m1.2.7-.2-.2m-60.1-4.6.3.5m-1.2-1.6.4.4m.5.1.3-.2m-1.1.9.2-.2" style="fill:none;stroke:#fff;stroke-width:.4497;stroke-linecap:round;stroke-miterlimit:10"/><path d="M262.3 39s-.7-4-4.7-5.5l.1-.3c1.7-1.9 1.8-4.9 0-6.9-.3-.3-.6-.6-1-.8l.1-.1c2.2-5 .7-10.9-3.4-14.2-3.5-2.8-8.4-3.4-12.6-1.4l-.1.1c-.9-.9-1.9-1.7-3.2-2.4-.6-.4-7.1-3.9-13.9-.6-5 2.5-8.8 8.1-8.1 14 .5 4.6 3.5 7.5 4.6 8.5l.3-.1c-1.1 1.1-2 2.5-2.2 4.1-.2 1.4 0 2.8.5 4.1h-.2c-3.8 3.4-5.2 8.6-3.7 13.2 2.4 7.1 10.3 8.3 11 8.4 4.4.6 10.4-1.1 13.1-5.8l.2.2c.2.2 3.1 2.1 6.1 1.2 2.5-.8 3.6-2.5 3.7-2.8 2.8.6 5.2.1 7.8-1.3 4.3-2.6 6-6.7 5.6-11.6" style="fill:#fff"/><path d="M240.3 44.9s1.6 3.3 0 8.8c-.1.3-.8-.2-.8-.2l-.4-.3s1.7-3 1.2-8.3m-16.4-3.1-3.6-2-1.8-2.5-.9 1.1c.1 0 2.4 3.2 6.3 3.4m16.8-32 1.9 2.5 2.3 4.8s.4-4.2-2.7-7.7c-.4-.5-1.5.4-1.5.4m10.2 15.6 2.8-.8 2.9.8.4-1.2c0 .1-4.4-1.5-6.1 1.2m5.6 9.3s1.6 0 2-.6c.1-.1-.8-.5-.8-.5s-.4.6-1.2 1.1m-36.3-5.5 2.4-1.7 3.4-.6s-4.1-1.1-6.5 1.3c-.4.4.5.8.7 1" style="fill:#e5e5e5"/><path d="M256.8 25.4c2.2-5 .7-10.9-3.4-14.2-3.5-2.8-8.4-3.3-12.5-1.4m-14.6 17.5c-3.8-.5-7.4 2.2-8 6s1.9 7.5 5.7 8.2" style="fill:none;stroke:gray;stroke-linecap:round;stroke-linejoin:round;stroke-miterlimit:10"/><path d="M218.6 37.3c-3.8 3.4-5.2 8.6-3.7 13.2 2.4 7.1 10.3 8.3 10.9 8.4 4.6.6 10.7-1.1 13.3-6.2 2-4.1.7-8.3.4-9.3m-.4 9.8c.2.2 2.7 2.2 6 1.3 2.8-.8 4.1-3.1 4.5-3.9M244.7 17c-.3-1.1-1.8-6.4-7.2-9.5-.6-.4-7.1-3.9-13.9-.6-5 2.5-8.8 8.1-8.1 14 .5 4.6 3.5 7.5 4.6 8.4m31-3.7c2.4-1.5 5.6-.7 7.1 1.7s.7 5.6-1.7 7.1" style="fill:none;stroke:gray;stroke-linecap:round;stroke-linejoin:round;stroke-miterlimit:10"/><path d="m244.8 34.9 4.4 21.6 21.9-3.1s-1.6-5.9-5.1-24.7c-1.7.1-20.1 5.7-21.2 6.2z" style="fill:#f16164;stroke:#701616;stroke-linejoin:round;stroke-miterlimit:10"/><ellipse cx="255.7" cy="41.5" rx="1.4" ry="4.1" style="fill:#701616" transform="rotate(-14.187 255.643 41.453)"/><path d="m254.7 37.6-.4-1.4m-.1 2.5-1.3-.7m2.9.2.8-1.2" style="fill:none;stroke:#701616;stroke-linecap:round;stroke-linejoin:round;stroke-miterlimit:10"/><ellipse cx="249.9" cy="42.8" rx="1.4" ry="4.1" style="fill:#701616" transform="rotate(-14.187 249.814 42.777)"/><path d="m248.8 38.9-.3-1.4m-.2 2.5-1.2-.6m2.8.1.8-1.1m5.6 10s-4.1-1.5-3.5 1.1" style="fill:none;stroke:#701616;stroke-linecap:round;stroke-linejoin:round;stroke-miterlimit:10"/><path d="M263.2 42.8s.3 5.6 2.9 10.9c.5-.1 3.3-.4 3.3-.4s-5.5-8.4-6.2-10.5" style="opacity:.1"/><path d="M268.4 53.5c-1.3-1.5-3.4-5.1-4.8-10.4-.3-1 .3-2 1.3-2.3s2 .3 2.3 1.3c1 3.7 3.1 8.2 4.4 8.8.3.1 1.8-.2 2.3.1.3.2.7 1 .3 2.1" style="fill:#cdced0;stroke:#686869;stroke-linecap:round;stroke-linejoin:round;stroke-miterlimit:10"/><path d="M273.1 50.9s-1.9.1-3.1.5m21.3 1.4s-2.5-1.4-3.4-2.1c0-3.6-.8-8.2-1.1-10.5l-1.9.3c.3 2.1 1.3 8.4 1.1 12.4z" style="fill:#cdced0;stroke:#686869;stroke-linecap:round;stroke-linejoin:round;stroke-miterlimit:10"/><path d="m285.6 50.5 3.3 2-3.3.1zm-.7-6.9s3 2.5 3.2 3.2c.1.2 0-.2 0-.2l-.1-1.4-1.4-2.2-2.1-1.8c0-.1.2.9.4 2.4" style="opacity:.1"/><path d="M287.6 52.8s-2.4-1.5-3.4-2.2c0-3.6-.6-8.2-.7-9.3l-1.9.2c.1 1 1 7.2.7 11.2z" style="fill:#cdced0;stroke:#686869;stroke-linecap:round;stroke-linejoin:round;stroke-miterlimit:10"/><path d="M281.6 45.6s.2 1 .2 1.2c.1-.1 2.3-2.3 2.6-2.9 0-.3-.2-1.9-.2-2.1-.1-.1-2.8 2.7-2.6 3.8" style="opacity:.1"/><path d="m288.9 46.2 2-1s-.4-3-2.6-8.9c.7-.7 3.6-3.9 5.1-9.7-.5-.6-1.7-1.9-1.7-1.9s-1.5 3.4-4.5 5.2c-.1-1.1-2.2-8.4-3.2-10.4-.7.2-1.9.6-2.3.7 0 .4.3 8.4-.4 10.3-.8-.2-2.9-.5-5.7-4-.5.5-1.1 1.1-1.6 1.5.1.7 1.6 3.9 5.6 8.7.1 1.9-.2 4.6-1.7 9.3 1.1.8 1.6 1.1 1.9 1.3.4-.3 4.2-6 4.6-6.9.9 1 3.7 4.3 4.5 5.8" style="fill:#fff200;stroke:#06566e;stroke-linecap:round;stroke-linejoin:round;stroke-miterlimit:10"/><ellipse cx="283.4" cy="33.8" rx="1.1" ry="2.5" style="fill:#0a566e" transform="rotate(-6.975 283.277 33.755)"/><ellipse cx="283.5" cy="33.2" rx=".5" ry=".9" style="fill:#fff" transform="rotate(-6.975 283.44 33.137)"/><ellipse cx="286.3" cy="33.5" rx="1.1" ry="2.5" style="fill:#0a566e" transform="rotate(-6.975 286.205 33.434)"/><ellipse cx="286.4" cy="32.9" rx=".5" ry=".9" style="fill:#fff" transform="rotate(-6.975 286.369 32.816)"/><path d="M285.7 37.8s-3 1.8-4.3-1.5m-3.4.7s-2.9 1.5-3.1 1.7m15-1.9 2.9 1.2m-4.9-10.8.8-3.1m-8.8 3.7-1.7-3.3" style="fill:none;stroke:#0a566e;stroke-linecap:round;stroke-linejoin:round;stroke-miterlimit:10"/><path d="m292.8 43.9 1 9.4 4.7.4 1.2-5.6-3.2.9 3-3.3.2-4.1z" style="fill:#5fd3f7"/><path d="m256.1 55.1 13.6-1.6 9.8-.5 12.9-.1 10.7.9 1.8 39.5 5.4-.3-.1-7 .3-.9 1.1-.5 4.2-.1 1.3.9.3 1.1-.1 6.5 6.5-.3-3.3-29.7-.7.2-1.6-4.7 17.5-.5 16.6.9-1 4.2-.8.1-3.4 29.8 3 .2 2.2 15.1-2.2 15.4 16.5 24.8-25.4-.2L334 135l-.3 7.6-28.9.1-.1-7.8-7.7.1-39.7-9.6-7.9-64.2L246 57zm-1.5 6.3 4 36c10.1-1.1 41.6-.7 41.6-.7l-1.7-37.5c-23.3-2-43.9 2.2-43.9 2.2" style="fill:#5fd3f7"/><path d="m327.5 62.7-.5-4.8-8.9.2 2 4.7z" style="fill:#2ac5f4"/><path d="m331 92.5-2.3-29.9-8.2.3 3.3 29.5zm-19.4-8.2.1 8.4-1.5.1-.1-7.3 1.1-1.2zm-19.1-40.6 1.3 9h1.3l-.2-3.8.6-1 .2-5.2zm-46.6 13.2 3.6 4.5 8.1 65.2 1.2-6.6-7.5-60-3.1-3.5zM309.3 93s-3.2 18.2.8 30.4c-1.3.1-3.7 0-3.7 0L305 93.2zm10.3 41.6-14.8.4.1 1.6s-.1 2.9-.2 3c-.8 1.4 13.2 3.7 12.4.3-.4-1.5-1.3-2.8-2.5-3.7 2.8 0 6.1 0 9.5.1-2.1 1.5-3.2 4.2-2.6 6.9.9 3.5 12.5-3.3 12.3-3.8-.3-.5 0-2.5.2-2.5.3-1.2.1-2 .1-2z" style="fill:#2ac5f4"/><path d="m333.3 123.1-.9 11.7 1.8-.1.9-11.3z" style="fill:#5fd3f7"/><path d="m298.3 58.7 1.2.1 2.1 38.3H300zm36.5 66.7s-23.3-.6-36.6.5c-1-1.1-1.1-1.8-1.1-1.8s27.4-1.2 37.7-.7z" style="fill:#2ac5f4"/><path d="M308.7 123.4s27.9-.9 40.9.2c.5-.7.8-1.8.8-1.8s-18.1-1.1-41.8-.1m-51.4 3.6c-.2-6.5 3.2-12.7 9.3-15.5 4.3-2 9.1-1.8 13.2 0 3.7 1.7-22.4 17.8-22.5 15.5" style="fill:#2ac5f4"/><path d="m266.4 97-4.1.2c1.5-1.2.7-3.1.6-3.4-.5.3-1.1.6-2.3.2 1.2-2.1 1.1-4.3 1-5.2 0 0 2.3-.5 2.5-.7" style="fill:#ff9f4c;stroke:#000;stroke-linecap:round;stroke-linejoin:round;stroke-miterlimit:10"/><path d="m304.7 134.8.2 6.2h28.8l1.3-17.3" style="fill:none;stroke:#0a566e;stroke-linecap:round;stroke-linejoin:round;stroke-miterlimit:10"/><path d="M269.6 136.3c32.5-2.3 64.6-1.5 64.6-1.5l7 13.3c9.2-.2 25.3 0 25.3 0L350 123.6" style="fill:none;stroke:#0a566e;stroke-linecap:round;stroke-linejoin:round;stroke-miterlimit:10"/><path d="M305.2 93.2c21.1-1.4 44.8 0 44.8 0l2.2 15.2-2.2 15.2c-27.8-.9-43.8 0-43.8 0" style="fill:none;stroke:#0a566e;stroke-linecap:round;stroke-linejoin:round;stroke-miterlimit:10"/><path d="M257.5 126.8s23.2-2.5 48.7-3.3c-.1-5.1-3.1-70-3.1-70s-22.1-3.3-57.3 3.3c1.1 1.4 3.5 4.4 3.5 4.4zm52.7-34v-6.9c.1-.9 1-1.6 2.1-1.5h3.5c1.1.1 1.8.9 1.8 1.8l-.1 6.4" style="fill:none;stroke:#0a566e;stroke-linecap:round;stroke-linejoin:round;stroke-miterlimit:10"/><path d="m293.7 52.4-1.1-8.7 7.1-2.2-.4 4.3-3.1 3.4 3.7-1.3-1.2 4.8" style="fill:none;stroke:#0a566e;stroke-width:.8026;stroke-linecap:round;stroke-linejoin:round;stroke-miterlimit:10"/><circle cx="310.8" cy="143.1" r="6.7" style="fill:#fff;stroke:#000;stroke-linecap:round;stroke-linejoin:round;stroke-miterlimit:10"/><defs><circle id="g" cx="310.8" cy="143.1" r="6.7"/></defs><clipPath id="h"><use xlink:href="#g" style="overflow:visible"/></clipPath><g style="clip-path:url(#h)"><path d="m300 142.8 21.6.5m-11.1 10.6.5-21.6m-8.1 18.2 15.7-14.9m-.4 15.3-14.9-15.7" style="fill:none;stroke:#0a566e;stroke-linecap:round;stroke-linejoin:round;stroke-miterlimit:10"/></g><use xlink:href="#g" style="overflow:visible;fill:none;stroke:#0a566e;stroke-miterlimit:10"/><circle cx="327.6" cy="143.1" r="6.7" style="fill:#fff;stroke:#000;stroke-linecap:round;stroke-linejoin:round;stroke-miterlimit:10"/><defs><circle id="i" cx="327.6" cy="143.1" r="6.7"/></defs><clipPath id="j"><use xlink:href="#i" style="overflow:visible"/></clipPath><g style="clip-path:url(#j)"><path d="m321 134.5 13.2 17.1m-15.2-2 17.1-13.1m-19.2 5.2 21.4 2.7m-12.1 9.4 2.8-21.5" style="fill:none;stroke:#0a566e;stroke-linecap:round;stroke-linejoin:round;stroke-miterlimit:10"/></g><use xlink:href="#i" style="overflow:visible;fill:none;stroke:#0a566e;stroke-miterlimit:10"/><path d="M258.5 97.4c-.6-3.7-3.9-36.2-3.9-36.2s20.9-3.7 43.8-2.1c.2 5.1 1.7 37.7 1.7 37.7-19.9-.4-21.8-.4-41.6.6m61.3-34.5-1.7-4.7s19.8-.9 34.3.4c-.2.7-.4 1.3-1.3 4.3 0 .1-18.7-1-31.3 0m3.9 29.7-3.2-29.7m26.7 29.9 3.2-29.9" style="fill:none;stroke:#0a566e;stroke-linecap:round;stroke-linejoin:round;stroke-miterlimit:10"/><path d="M280.6 147.5c-8.9 1.6-17.7-3.5-20.9-12-3.6-9.7 1.3-20.6 11-24.3 1.1-.4 2.2-.7 3.4-.9 8.9-1.6 17.7 3.5 20.9 12 3.6 9.7-1.3 20.6-11 24.3-1.1.3-2.3.7-3.4.9" style="fill:#fff"/><defs><circle id="k" cx="277.4" cy="128.9" r="20.9"/></defs><clipPath id="l"><use xlink:href="#k" style="overflow:visible"/></clipPath><g style="clip-path:url(#l)"><path d="m265.6 97.5 23.5 62.8M246 140.6l62.8-23.5m-62-2.1 61.1 27.8m-44.4 16.6 27.7-61" style="fill:none;stroke:#0a566e;stroke-linecap:round;stroke-linejoin:round;stroke-miterlimit:10"/></g><circle cx="277.4" cy="128.9" r="5.1" style="fill:#5fd3f7;stroke:#0a566e;stroke-linecap:round;stroke-linejoin:round;stroke-miterlimit:10"/><path d="M274.5 112.3c8-1.4 15.8 3.1 18.6 10.7 3.3 8.7-1.2 18.4-9.9 21.7-1 .4-2 .6-3 .8-8 1.4-15.8-3.1-18.6-10.7-1.6-4.2-1.4-8.8.4-12.9 1.9-4.1 5.2-7.2 9.4-8.8 1-.4 2.1-.6 3.1-.8m-.7-4c-1.3.2-2.5.6-3.8 1-10.8 4-16.3 16.1-12.2 26.8 3.6 9.5 13.4 14.9 23.1 13.2 1.3-.2 2.5-.6 3.8-1 10.8-4 16.3-16.1 12.2-26.8-3.6-9.5-13.4-14.9-23.1-13.2" style="fill:#2ac5f4;stroke:#0a566e;stroke-linecap:round;stroke-linejoin:round;stroke-miterlimit:10"/><path d="M325.4 116v-15.3m7 15.3v-15.3m6.9 15.3v-15.3m7 15.3v-15.3m11.5 43.2-8-13.1m2.3 13.1-8-13.1m2.3 13.1-8-13.1" style="fill:none;stroke:#0a566e;stroke-width:1.884;stroke-linecap:round;stroke-miterlimit:10"/><path d="M328.1 145.5c-.3.1-.5.1-.8 0-6-.7-12.2-.5-16.4-.2-1.2.1-2.3-.8-2.4-2s.8-2.3 2-2.4c4.4-.4 11-.6 17.3.2 1.2.2 2.1 1.3 1.9 2.5 0 1-.7 1.7-1.6 1.9z" style="fill:#5fd3f7;stroke:#0a566e;stroke-miterlimit:10"/><path d="M328.1 145.5c-.3.1-.5.1-.8 0-6-.7-12.2-.5-16.4-.2-1.2.1-2.3-.8-2.4-2s.8-2.3 2-2.4c4.4-.4 11-.6 17.3.2 1.2.2 2.1 1.3 1.9 2.5 0 1-.7 1.7-1.6 1.9" style="fill:none;stroke:#0a566e;stroke-linecap:round;stroke-linejoin:round;stroke-miterlimit:10"/><path d="m83.5 119.6-3.8.2c0 .1.7 11.8-2.1 18.9-2.1-1.5-5.4-4.5-10-10.4 0 0-5 1.1-9 7.9 1.2-.3 4.7-2.4 8.6-2.5 4.1 4.8 7.6 7.9 10.4 9.3.3.1.5.2.8.2.7 0 1.3-.4 1.7-1 4.3-7.6 3.4-22 3.4-22.6z" style="fill:#cdced0;stroke:#686869;stroke-linejoin:round;stroke-miterlimit:10"/><path d="M79.5 122s2.5.1 4.5-.1v-1.7c-.6 0-4.5.2-4.5.2s-.1 1.3 0 1.6" style="opacity:.1"/><path d="M128.7 125c-.8-.3-5.6 4.2-7.2 5.7-10-12.9-26.3-15.8-27.1-15.9l-.6 3.7c.2 0 18.8 4.5 28.6 18.9 4.9-8.4 6.7-12.3 6.3-12.4z" style="fill:#cdced0;stroke:#686869;stroke-linejoin:round;stroke-miterlimit:10"/><path d="M96.6 119.7s4-1.5 6.1-2.9c-.1 0-1.3-.5-1.5-.6-.3-.1-6.8 2.7-6.8 2.7z" style="opacity:.1"/><path d="M94.3 99.4c.4-.5.7-.9 1.1-1.3s.7-.8 1.1-1.2c.7-.8 1.5-1.6 2.3-2.3 1.6-1.5 3.2-2.9 5-4.1 1.8-1.3 3.7-2.3 5.6-3.2l1.5-.6c.5-.2 1-.4 1.5-.5l.8-.3.8-.2 1.6-.4c.5-.1 1 .2 1.2.7.1.5-.2 1-.6 1.2h-.1l-1.4.5-.7.2-.7.3c-.5.2-.9.4-1.4.6l-1.3.7c-1.7 1-3.4 2.1-5 3.4s-3 2.6-4.4 4.1c-.7.7-1.3 1.5-1.9 2.3l-.9 1.2c-.3.4-.6.8-.8 1.2-.6.9-1.7 1.1-2.6.6-.9-.6-1.1-1.7-.6-2.6-.2-.2-.1-.3-.1-.3z" style="fill:#cdced0;stroke:#686869;stroke-linejoin:round;stroke-miterlimit:10"/><path d="M97.6 95.1s2.1 2.8 2.3 3.7c-.1.2-.4.5-.5.7-.1.1-2.4-3.7-2.3-3.7 0-.2.4-.6.5-.7" style="opacity:.1"/><path d="M74.5 76.1c4.2 1.5 19.3 8.5 30.7 36.3.2.4 0 .9-.3 1.1-2.8 2.3-15.4 10.4-39.4 5.2 1.2-1.9 14.1-15.7 8.1-41.9-.1-.5.4-.9.9-.7z" style="fill:#ff9f4c;stroke:#593314;stroke-linejoin:round;stroke-miterlimit:10"/><path d="M63.6 118.9c-.1.5-.7 4.9-5.1 4.4l-1.1 5s1.4-.6 2.4-2.2c2.2-.2 4.1-1.3 5.3-3.3 1.1-1.7 1.3-3.4 1.3-3.6zm-5.8-2.7c-.2.4-2.4 4.3-6.3 2.4l-2.8 4.4s1.6-.1 3-1.3c2.2.6 4.3.2 6.1-1.3 1.6-1.2 2.4-2.8 2.5-3z" style="fill:#cdced0;stroke:#686869;stroke-linejoin:round;stroke-miterlimit:10"/><path d="M70.7 122.3c-5.8-2.5-11.6-4.9-17.3-7.3 1.1-2.6 1.7-3.9 2.6-6.4 6 2.4 11.9 4.9 17.9 7.4-1.2 2.5-1.8 3.8-3.2 6.3zm4-8.2c-6-2.5-12-4.9-18-7.4.9-2.6 1.3-3.8 2.1-6.4 6.2 2.4 12.4 4.9 18.6 7.3-1 2.6-1.6 3.9-2.7 6.5z" style="fill:#ff9f4c;stroke:#701616;stroke-linejoin:round;stroke-miterlimit:10"/><ellipse cx="138.6" cy="85.5" rx=".4" ry=".3" style="fill:#fff" transform="rotate(-76.367 138.619 85.542)"/><path d="M265.9 96.4s1.8 8.1 4.1 8.5c2.2.3 2.6-.6 2.6-.8-.1-.2-6.4-7.7-6.7-7.7" style="opacity:.1"/><path d="M263.1 79.6s0-1.5-5.1-3c0 0 3.6-4.5 8.8-2" style="fill:#ff9f4c;stroke:#000;stroke-linejoin:round;stroke-miterlimit:10"/><path d="m266.8 98.5-1.7-5.5-1.2-4.8-2 .6-1.9-.7-1.3-3 .5-3.7 2-1.8h2.4l.7-1.4.9-.8 4.9-3.3-.2-1.4 5.1-2.8 2.1-.8 1.1-.1 1.2 2.5 6.1-1.4 4.1-.4 1.5 1 .9 3.3-.3 4.1-1.1 2.4-2.3 2.9-1.5 1.6-1.6.5.4 1.6-.8 1.6-1.9 1-3.5.7.7 2.1 1.3-.2.4 4.4-.8.2-1.7 2.6-3 3.1-2.8 1.6-1.8.3-2.2-1.3-1.9-3.2z" style="fill:#fff"/><path d="M270 75.3s1.7 3.6 2.4 4.5c.2.3 1.2 1 2 1 1.2 0 1.8-.3 1.8-.3l-1.8-.3-2-1.7-2.1-3.8z" style="fill:#e5e5e5"/><path d="m266.5 80 4.9-4.4-.2-.5zm-1.4 2.7c0-.6-1.6-1.3-2.9-.9-.2.1-.7.2-1 .6-.4.5-.6 1.3-.3 1.6.7.8 4.2-.4 4.2-1.3m-3.8 3.4c.2.1.3.1.5.1.2.1.4.1.6.1 1.4.1 2.5-.4 2.6-.2 0 .1-.4.4-.7.6-.9.5-1.8.3-2.5.2-.3 0-.7-.4-.5-.8m15.7 4.6s1.6 1.6 2.5 1.7.5-.4.5-.4l-.5-1.7zm-7.8-6.9c.1.1.1.5.2.6.2.5.6 1 .9 1.5 2.4 2.8 6.4 3 9.8 2.5 1.2-.2 2.4-.4 3.5-.8.4-.1 2.4-.9 1.7-1.7l-2.2.6-6.3 1.3-3.1-.6-3.4-2.2c0-.1-1.1-1.2-1.1-1.2m3.2 20.3s4.1-2.2 8.4-7.4c.1.3-.1.8-.1.8l-3 3.9-1.8 1.8-3.2 1.6zm-5.5-30.6s1.3 1 2.8.5c.7-.2.4.1-.1.4-.6.3-1.4 1.5-1.8 1.2-.5-.3-.8-.9-.9-2.1" style="fill:#e5e5e5"/><path d="M270.2 74.2c-2.9 1.3-5.8 3.2-6.5 5.4m5.7 3.7s1.7 5.5 10.5 3.9c7.8-1.4 10.9-5.8 11.7-9.5.3-1.2.7-4.4-1-7.4-.3-.6-1.5-1.5-11.2.9m-13.9 10s-1.9-2.4-4.2-1.5c-1 .4-2.4 1.4-2.5 4.5 0 1 .6 3.9 1.8 4.4.5.2 2.3.3 4.2-.7" style="fill:none;stroke:#000;stroke-linecap:round;stroke-linejoin:round;stroke-miterlimit:10"/><path d="M267.4 99.5s-2.7-6-3.4-11.2m13.1 2.5s6.1-.6 7.6-2.2c.6-.7 1.1-1.8.6-3m-3.9 6.4c-3.4.8-6.6 5.4-8.2 6 0 0-.6-.7-.9-2" style="fill:none;stroke:#000;stroke-linecap:round;stroke-linejoin:round;stroke-miterlimit:10"/><path d="M281.3 92.1s.4 3.6.4 4.6c.8-.1 4.3-.3 4.3-.2.1-.1-.5-5.3-4.7-4.4" style="stroke:#000;stroke-width:.8026;stroke-linecap:round;stroke-linejoin:round;stroke-miterlimit:10"/><path d="M267.4 83s2.3 1.3 3.6-1.2" style="fill:none;stroke:#000;stroke-linecap:round;stroke-linejoin:round;stroke-miterlimit:10"/><path d="M264.8 86.1s-.5-2.3.1-3.4c-.5-.3-2.1-.9-3.3-.4-.5.2-.9 1-.9 2.1 0 .8.4 2.2 1.3 2.3.9 0 2.4-.4 2.8-.6" style="stroke:#000;stroke-width:.4013;stroke-linecap:round;stroke-linejoin:round;stroke-miterlimit:10"/><path d="m265 80.4 5.1-6 1.1 1-5.7 5.5z"/><path d="M279.5 71s1.2-2.6 2.7-.4" style="fill:none;stroke:#000;stroke-linecap:round;stroke-linejoin:round;stroke-miterlimit:10"/><path d="M288.6 70s-1.7.9-.7 2.7c.4.8 1.6 1.4 2.5 1.3.6-.1 1.4-.4 1.4-.6 0-.1-.7-2.4-.7-2.4l-.8-1.1z"/><path d="M267.4 99.5c.8 1.8 2.5 6 6.1 4.8 3-1.1 6.8-5.5 8.1-7.8m-2.2-5.9s.2 1.4.8 1.7" style="fill:none;stroke:#000;stroke-linecap:round;stroke-linejoin:round;stroke-miterlimit:10"/><path d="m264.1 66.7 2.5 1.1 2.1.2 2.9 3.2-.9.7-1.2.7-2.7-.5-2-1.6z" style="fill:#ff60b2"/><path d="m264.2 66.9 2.4.9 2 .3-4.8-5.6-.2.6z" style="fill:#fff200"/><path d="m264.9 70.8 3 1.6 2.1.7.1.6-3.3 1.8-1 .7-.6-3z" style="fill:#2ac5f4"/><path d="M265.5 76.6 263 61.4l9.1 9.7" style="fill:none;stroke:#000;stroke-linecap:round;stroke-linejoin:round;stroke-miterlimit:10"/><path d="M269.9 72.6c-1.1.1-3.8-.4-5.4-2.3m4.9-1.8s-3 .1-5.5-1.7m5.9 6.1s2.4 5.4 3.1 6.2c.9 1.1 3.3 1.6 5.7.5 1.4-.6 2.9-2.5 2.2-4.6-.5-1.3-1.2-3.4-2.7-6.2-5 1.2-8.3 4.1-8.3 4.1" style="fill:none;stroke:#000;stroke-linecap:round;stroke-linejoin:round;stroke-miterlimit:10"/><ellipse cx="276.7" cy="74.8" rx="2.1" ry="3.9" transform="rotate(-18.997 276.728 74.773)"/><ellipse cx="276.9" cy="73.5" rx=".7" ry="1.2" style="fill:#fff" transform="rotate(-18.997 276.942 73.476)"/><path d="m295.7 88.3-8.4 1.6c-.3.1-.7-.2-.7-.5L285 81c-.1-.3.2-.7.5-.7l8.4-1.6c.3-.1.7.2.7.5l1.6 8.4c.1.3-.2.6-.5.7z" style="fill:#ff88c5;stroke:#70327e;stroke-linejoin:round;stroke-miterlimit:10"/><path d="M284.5 96.6s-.5 2.3.1 3.1 1.7.6 1.8.2c.1-.3-1-3.6-1.9-3.3" style="opacity:.1"/><path d="M287.2 92.7s-1.3.9-2.2 4.9c-.1.3.2 2 1.1 2.1s2.6-.2 4.1-3.6h1.6s-.3-1.8-1.2-1.7c-2.1.1-2.6.7-2.8 1.2-.3-.3-.6-2.9-.6-2.9" style="fill:#cdced0"/><path d="M286.3 97.6s.3-1.1.8-1.9c-.2-1.1-.6-3.1-.4-3.2.4-.1.8 3.2.8 3.3s-.8 1.7-1.2 1.8" style="opacity:.1"/><path d="M286.7 92.5s.6 3.4.7 3.6.5-.8.5-.8-.2-3.1-.8-3.1c-.5.1-.3.2-.4.3" style="fill:#70327e"/><path d="M288.2 99.2c-.7.6-1.6.9-2.4.4-1.8-1.4-.1-4.9 1.1-6.7" style="fill:none;stroke:#686869;stroke-linecap:round;stroke-linejoin:round;stroke-miterlimit:10"/><path d="M286.6 97.7s1.4-3.4 3.4-3.3c1.4.1 1.9 1.5 1.9 2" style="fill:none;stroke:#686869;stroke-linecap:round;stroke-linejoin:round;stroke-miterlimit:10"/><path d="M290.4 95.6s.4 0 .7.5h1.2v.2c-.3.1-1.9 0-1.9 0s-.2-.5 0-.7" style="opacity:.1"/><path d="m286.7 92.4.3 1.6.6-.4-.3-1.2-.4-.2z" style="fill:#70327e"/><path d="M296 96.4s-.9 1.4-.1 2.7c.4.6 1.4.5 1.7-.1.1-.4-.5-2.8-1.6-2.6" style="opacity:.1"/><path d="M298.2 95.2c-.6-.2-1.4.3-1.8 1.4-.2.6-.5 2.1.4 2.5.5.2 1.7-.2 2.2-1.9 0-.2.3-1.7-.8-2" style="fill:#cdced0;stroke:#686869;stroke-linecap:round;stroke-linejoin:round;stroke-miterlimit:10"/><path d="M291.7 87.1c-1.2 1.1-2.6 1-3.6-.6m2.3-2s-.6-3.2-1.8-3-.4 3.5-.4 3.5m5.9-1.3s-.6-3.2-1.8-3-.4 3.5-.4 3.5" style="fill:none;stroke:#70327e;stroke-linecap:round;stroke-linejoin:round;stroke-miterlimit:10"/><path d="M249.7 55.9s-.1 3.1 1 6.7c.2.5-.5.1-.5-.1s-2.2-4.5-.5-6.6" style="opacity:.1"/><path d="M254.1 55.2c-.7-1.6-2.6-3.5-4.5-3.5-1 0-2.4.5-3.6 2.6-1.2 2.2-.5 5.6.2 7.8l-1.3 4.8 5.6-3.9c-1.6-2.7-1.8-5.7-1.2-6.9" style="fill:#cdced0;stroke:#686869;stroke-linecap:round;stroke-linejoin:round;stroke-miterlimit:10"/><path d="M249.5 55.8s2.9-.5 6.1-1c.1.4.1.7.1.7l-6 .9z" style="fill:#0a566e"/><path d="M250 54.9s.8.1.8.7c-.1 0-1.1.2-1.1.2s-.1-.7.3-.9" style="opacity:.1"/><path d="M249 57.4s0-1.2.8-2.2" style="fill:#cdced0;stroke:#686869;stroke-linecap:round;stroke-linejoin:round;stroke-miterlimit:10"/><path d="M255.6 54.7s-.4 3.1.5 6.7c.1.5-.5 0-.5-.1s-1.9-4.7 0-6.6" style="opacity:.1"/><path d="M259.8 54.4c-.7-1.6-2.5-3.6-4.4-3.6-1 0-2.5.4-3.7 2.5-1.2 2.2-.6 5.6 0 7.8l-1.4 4.7L256 62c-1.5-2.7-1.7-5.8-1-6.9" style="fill:#cdced0;stroke:#686869;stroke-linecap:round;stroke-linejoin:round;stroke-miterlimit:10"/><path d="M255.2 54.9s2.9-.6 6.1-1c.1.4.1.7.1.7l-6.4 1.1z" style="fill:#0a566e"/><path d="M255.4 53.9s-.1-.4 1.4.6c-.8.2-1.1.1-1.5.5-.3 0 0-.9.1-1.1" style="opacity:.1"/><path d="M254.6 56.5s0-1.2.9-2.2" style="fill:#cdced0;stroke:#686869;stroke-linecap:round;stroke-linejoin:round;stroke-miterlimit:10"/><path d="M267.7 53.4s3.3-.3 7.2-.6l-.1.4-6.7.5zm26 42.8s-2.2 0-3.1-.1l-.1.6 3.2.2z" style="fill:#0a566e"/><path d="M70.3 106.9s-.7 3.1-2.4 2.5c-1.4-.6 0-3.3 0-3.3m4.4 1.7s-1.6 2.8.2 3.4c1.5.5 2.2-2.5 2.2-2.5m-7.8 6.5 2.6 1.3" style="fill:none;stroke:#701616;stroke-linecap:round;stroke-linejoin:round;stroke-miterlimit:10"/><path d="M64.1 102.2s-.7 2.2-.6 7.8c-.4-.2-.6-.2-.6-.2l-.4-1.6.7-4.6.8-1.1zm-.6 8.9s0 1.3.3 3.6c0 .2-.1.1-.2-.2s-.6-3.5-.6-3.6c.1 0 .5.2.5.2" style="opacity:.1"/><path d="M72.1 105.5c-.9-1.5-1.7-2.6-2.6-3.5s-2-1.8-3.2-2.3c-.3-.1-.6-.3-.9-.4h-.1l-.2-.1c-.1 0-.2-.1-.4-.1-.3 0-.5-.1-.8 0-.6 0-1.1.3-1.6.6-.4.3-.7.7-1 1-.5.7-.7 1.4-.9 2s-.3 1.3-.4 1.9c-.2 1.3-.2 2.5-.1 3.7.1 2.4.6 4.8 1.4 7.1.2.5.8.8 1.3.7.6-.2.9-.8.7-1.4-.6-2.1-.9-4.3-.9-6.5 0-1.1.1-2.2.3-3.2.1-.5.2-1 .4-1.5.2-.4.4-.9.6-1.1l.2-.2h.1" style="fill:#cdced0;stroke:#686869;stroke-linejoin:round;stroke-miterlimit:10"/><path d="M65.1 101.4s.6 1 .6 1.1-.2.3-.4.2-1-.4-.8-.6c.1-.4.3-.6.6-.7" style="opacity:.1"/><path d="m74.2 105.9-10-4-.3.9 10 3.9z" style="fill:#701616"/><path d="M63.3 103.4s.5-1.4 1.5-1.9" style="fill:none;stroke:#686869;stroke-linecap:round;stroke-linejoin:round;stroke-miterlimit:10"/><path d="M95.6 108.5s-15.4 10.7-16.5-6.5" style="fill:none;stroke:#593314;stroke-linecap:round;stroke-linejoin:round;stroke-miterlimit:10"/><path d="M78.3 101.7s.9.7 1.7-.2" style="fill:none;stroke:#593314;stroke-linecap:round;stroke-linejoin:round;stroke-miterlimit:10"/><path d="M87 102.4c.3 1.2.4 2.4.3 3.3-.7-.1-2.1.2-2.8.8-.6-.7-1.1-1.9-1.5-3.1-.7-2.6-.4-4.9.7-5.2 1.1-.2 2.6 1.6 3.3 4.2" style="fill:#593314"/><path d="M84 107s1.2-1.7 4.1-1.1" style="fill:none;stroke:#593314;stroke-width:.75;stroke-linecap:round;stroke-linejoin:round;stroke-miterlimit:10"/><ellipse cx="85.6" cy="102.1" rx=".7" ry="1.3" style="fill:#fff" transform="rotate(-12.163 85.638 102.08)"/><path d="M93.8 100.7c.3 1.2.4 2.4.3 3.3-.7-.1-2.1.2-2.8.8-.6-.7-1.1-1.9-1.5-3.1-.7-2.6-.4-4.9.7-5.2 1.1-.2 2.6 1.6 3.3 4.2" style="fill:#593314"/><path d="M90.8 105.2s1.2-1.7 4.1-1.1" style="fill:none;stroke:#593314;stroke-width:.75;stroke-linecap:round;stroke-linejoin:round;stroke-miterlimit:10"/><ellipse cx="92.4" cy="100.4" rx=".7" ry="1.3" style="fill:#fff" transform="rotate(-12.163 92.423 100.346)"/><path d="M81.3 97.7s.3-2.2 1.9-2c.8.1-1.3-.9-1.8-.3s-.4 1.8-.1 2.3m9.2-2.3s.9-.5 1.6.4c.1.3-1.2-2.5-1.6-.4" style="fill:#593314;stroke:#593314;stroke-width:.2355;stroke-linecap:round;stroke-linejoin:round;stroke-miterlimit:10"/><path d="M290.3 95.9c-.6.7-1.3 2.5-2.2 3.3" style="fill:none;stroke:#686869;stroke-linecap:round;stroke-linejoin:round;stroke-miterlimit:10"/><path d="M78.9 89.6s.2-1.5-.4-2.6c-.3-.4-.6-1.2 0-1.2.3 0 1.2 3 .4 3.8m2-3.8s-.1-1.2-.8-2c-.4-.4-.4-1.3.3-1.1.5.1 1 2 1 3-.1.3-.4.2-.5.1" style="opacity:.1"/><path d="M79.2 89.6c.7-1.7-.9-3.6-.3-4.5.4-.6 1.9.1 2.7 2.4.4-1.2-1.6-4.4-.8-5.2.7-.7 3 .8 3.1 4.9.4-.2.2-1.8.9-2.2.8-.4 2 1.6.5 4.3" style="fill:none;stroke:#593314;stroke-linecap:round;stroke-linejoin:round;stroke-miterlimit:10"/><path d="m192.9 32.2 1.4-2.5 4-3.4s4.9-1.2 5.2-1.2c.2 0 3.8.8 3.8.8l2.4 1.8 2.3 2.9.4 4.6-1.9 5-4.1 2.9v2.8l-1.7 3-.4.7 1.1 2.2.5 3-1.7 4.1-3.2 2.5-4 1.1-3.5-.3-3.2-1.4-2.9-3-1.4-2.9.2-3.5-3.1-.9-3.7-3.2-1-4.4.7-4.5 2.2-3.6 4.4-2.5 4.6-.7z" style="fill:#fff"/><path d="m205 40.3 1.4 2.6 1.1-.6s-1.4-2-2.5-2m-5.2 10.8s2.7.9 5 .2c.3-.1-.8-1.5-.8-1.5s-1.1 1-4.2 1.3m-13.5.5 4-.6s-.3 1.3-3.9 2.2c-.4 0-.1-1.6-.1-1.6m6.7-19.3 2.9 1.2s-.4-1.5-2.2-2.4c-.1 0-.7 1.2-.7 1.2" style="fill:#e5e5e5"/><path d="M199.8 50.6c2.9.2 5.6-1.6 6.4-4.1 1-3.1-1.2-5.6-1.3-5.8m-9.4-7c-.9-.6-4.1-2.5-8.2-1.8-4.2.7-8.4 4.1-9 8.9-.4 3.1.7 7.5 4.3 9.5 3.3 1.8 6.8.5 7.4.3" style="fill:none;stroke:gray;stroke-linecap:round;stroke-linejoin:round;stroke-miterlimit:10"/><path d="M206.4 43.1c.5-.2 4.5-1.9 5.7-6.3 1-3.5-.2-7.4-3-9.7-3.6-3-8.4-2.1-11.3-.5-3.1 1.7-4.4 4.6-4.8 5.6m-6.8 19.1c-.1.9-.4 3.8 1.3 6.5 2.8 4.7 8.4 4.7 8.7 4.7 4 0 8.8-2.5 9.6-6.8.6-2.9-.9-5.4-1.5-6.2" style="fill:none;stroke:gray;stroke-linecap:round;stroke-linejoin:round;stroke-miterlimit:10"/><path d="m160.9 39.3 1.3-1.6 3-.7 2.4 1.5 1 2.6-.6 2.9 1.2 1.4.4 3.5-1.3 2.4-3.1.7-2.9-1-2.3-2.8-2.1.3-2.6-1.2-1.2-2.6.6-2.8 2-2.2 2.9-.6z" style="fill:#fff"/><path d="M161.9 47.5s.1 1.1-.8 1.7c-.4.2-.4-1-.4-1s.2-.1 1.2-.7m3.4-5.1s1.2-.6 2.8-.1c.3.1-.2 1.1-.2 1.1s-1.9-1-2.6-1m-5-2.6.1 2.6 1.2 2.1s-1.8-.7-2.7-4.7c.1-.3 1-.4 1.4 0" style="fill:#e5e5e5"/><path d="M161.9 44.1c-1.7-1.7-1.7-4.4-.2-5.9 1.4-1.4 3.8-1.4 5.3-.2 1.7 1.3 2.1 3.7 1 5.7" style="fill:none;stroke:gray;stroke-linecap:round;stroke-linejoin:round;stroke-miterlimit:10"/><path d="M165.3 42.8c1.8.2 3.4 1.4 4.1 3 .6 1.5.5 3.5-.7 4.8-1.7 1.8-4.7 1.5-6.5.2-1.2-.9-1.6-2.1-1.8-2.7" style="fill:none;stroke:gray;stroke-linecap:round;stroke-linejoin:round;stroke-miterlimit:10"/><path d="M161.5 47.2c-1.6 1.4-3.9 1.7-5.5.7-2.2-1.3-2.4-4.6-1-6.6 1.2-1.7 3.4-2.4 5.6-1.8" style="fill:none;stroke:gray;stroke-linecap:round;stroke-linejoin:round;stroke-miterlimit:10"/><path d="M169.9 35.2c1.4-1.4 3.6-1.4 5 0 1.1 1.1 1.1 2.9 0 4-.9.9-2.3.9-3.2 0-.7-.7-.7-1.9 0-2.6.6-.6 1.5-.6 2.1 0 .5.5.5 1.2 0 1.7-.4.4-1 .4-1.3 0" style="fill:none;stroke:#ff60b2;stroke-linecap:round;stroke-miterlimit:10"/><path d="M203.1 65.4c-1.4-1.4-3.7-1.4-5 .1-1.1 1.1-1.1 2.9 0 4 .9.9 2.3.9 3.2 0 .7-.7.7-1.9 0-2.6-.6-.6-1.5-.6-2.1 0-.5.5-.4 1.2 0 1.7.4.4 1 .4 1.3 0" style="fill:none;stroke:#2ac5f4;stroke-linecap:round;stroke-miterlimit:10"/><path d="M158.2 51.3c-1.7-1-3.9-.4-4.9 1.3-.8 1.4-.3 3.1 1 3.9 1.1.6 2.5.3 3.1-.8.5-.9.2-2-.6-2.5-.7-.4-1.6-.2-2 .5-.3.6-.1 1.3.4 1.6.4.3 1 .1 1.3-.3m34.8-28.7c0-2-1.6-3.6-3.5-3.6-1.6 0-2.9 1.3-2.9 2.8 0 1.3 1 2.3 2.3 2.3 1 0 1.8-.8 1.8-1.8 0-.8-.6-1.5-1.5-1.5-.6 0-1.2.5-1.2 1.2 0 .5.4.9.9.9" style="fill:none;stroke:#fff200;stroke-linecap:round;stroke-miterlimit:10"/><path d="M159.3 35.7c.7-1.8-.3-3.9-2.1-4.6-1.5-.5-3.1.2-3.7 1.7-.4 1.2.2 2.5 1.3 2.9.9.4 2-.1 2.3-1.1.3-.8-.1-1.6-.9-1.9-.6-.2-1.3.1-1.5.7-.2.5.1 1 .6 1.2" style="fill:none;stroke:#ff9f4c;stroke-linecap:round;stroke-miterlimit:10"/><circle cx="180.5" cy="30.2" r=".5" style="fill:#ff9f4c"/><circle cx="211.6" cy="50.1" r=".5" style="fill:#ff9f4c"/><circle cx="226.6" cy="61.9" r=".5" style="fill:#ff9f4c"/><circle cx="174.1" cy="47" r=".5" style="fill:#ff60b2"/><circle cx="160.2" cy="58.4" r=".5" style="fill:#ff9f4c"/><circle cx="150.7" cy="41.4" r=".5" style="fill:#ff60b2"/><circle cx="192" cy="65.2" r=".5" style="fill:#ff9f4c"/><path d="m213.7 24.1.7.2m-2.1-.4.6.1m.5-.4v-.3m-.2 1.5v-.3m34.3-19.9.6.1m-2.1-.4.6.1m.5-.4.1-.3m-.3 1.5v-.3M235.7 63l.6.1m-2.1-.4.6.1m.5-.4.1-.3m-.3 1.5.1-.3m-68.9-7.9-.6-.1m2.1.4-.6-.1m-.5.3-.1.3m.3-1.4v.3" style="fill:none;stroke:#fff200;stroke-linecap:round;stroke-miterlimit:10"/><path d="m149.7 47.4.1-.6m-.1 2.1v-.6m-.4-.4-.3-.1m1.5.1h-.3m62.2-32.1c-1.7-1-3.9-.5-4.9 1.1-.8 1.3-.4 3.1.9 3.9 1.1.7 2.5.4 3.1-.7.5-.9.3-2-.6-2.5-.7-.4-1.6-.2-2 .5-.3.5-.2 1.3.4 1.6.4.3 1 .1 1.3-.3" style="fill:none;stroke:#2ac5f4;stroke-linecap:round;stroke-miterlimit:10"/><circle cx="200.2" cy="20.7" r=".5" style="fill:#ff60b2"/><circle cx="239.8" cy="4.1" r=".5" style="fill:#ff60b2"/><circle cx="182.8" cy="56.1" r=".5" style="fill:#ff60b2"/><circle cx="240" cy="58.8" r=".5" style="fill:#ff60b2"/><circle cx="216.9" cy="6.3" r=".5" style="fill:#ff9f4c"/><circle cx="256.2" cy="2.2" r=".5" style="fill:#2ac5f4"/><path d="m175 54-.3.5m1-1.8-.3.5m.2.6.2.2m-1.3-.8.3.2" style="fill:none;stroke:#2ac5f4;stroke-linecap:round;stroke-miterlimit:10"/><ellipse cx="249.7" cy="44.2" rx=".5" ry="1.3" style="fill:#fff" transform="rotate(-17.536 249.73 44.217)"/><ellipse cx="255.4" cy="42.5" rx=".5" ry="1.3" style="fill:#fff" transform="rotate(-17.536 255.435 42.459)"/><path d="m152.7 95.1 3.4-3-.3 3.6z" style="fill:#a1511a;stroke:#a1511a;stroke-linecap:round;stroke-linejoin:round;stroke-miterlimit:10"/><circle cx="32.6" cy="146.7" r="2.8" style="fill:#cdced0"/><path d="m32.9 147.4 2.5-.9s-.4-2.8-3-2.6-2.5 2.7-2.5 3.4c.4-.8 2.2-1.5 3 .1" style="opacity:5.000000e-02"/><circle cx="32.6" cy="146.7" r="2.8" style="fill:none;stroke:#686869;stroke-linejoin:round;stroke-miterlimit:10"/><path d="m31.8 143.1.3 3.6c0 .4.5.6.8.4l4.1-4.5" style="fill:#cdced0"/><path d="m32.2 145.2 2.5-.1 2.2-2.3-5 .3z" style="opacity:5.000000e-02"/><path d="m31.8 142.9.3 3.8c0 .4.5.6.8.4l3.9-4.6" style="fill:none;stroke:#686869;stroke-linejoin:round;stroke-miterlimit:10"/><circle cx="21.9" cy="146.7" r="2.8" style="fill:#cdced0"/><path d="m22.1 147.4 2.5-.9s-.4-2.8-3-2.6-2.5 2.7-2.5 3.4c.5-.8 2.2-1.5 3 .1" style="opacity:5.000000e-02"/><circle cx="21.9" cy="146.7" r="2.8" style="fill:none;stroke:#686869;stroke-linejoin:round;stroke-miterlimit:10"/><path d="m21.1 144 .2 2.6c0 .4.5.6.8.4l4.6-3.4" style="fill:#cdced0"/><path d="m21.3 145.6 2.5-.2 2.4-1.8-5.1.3z" style="opacity:5.000000e-02"/><path d="m21.1 143.8.3 2.9c0 .4.5.6.8.4l4.7-3.7" style="fill:none;stroke:#686869;stroke-linejoin:round;stroke-miterlimit:10"/><circle cx="10.9" cy="146.6" r="2.8" style="fill:#cdced0"/><path d="m11.1 147.3 2.5-.9s-.4-2.8-3-2.6-2.5 2.7-2.5 3.4c.5-.8 2.2-1.5 3 .1" style="opacity:5.000000e-02"/><circle cx="10.9" cy="146.6" r="2.8" style="fill:none;stroke:#686869;stroke-linejoin:round;stroke-miterlimit:10"/><path d="m10.1 144.5.2 2.2c0 .4.5.6.8.4l4.3-2.9" style="fill:#cdced0"/><path d="m10.3 145.9 2.5-.2 2.3-1.4-4.9.4z" style="opacity:5.000000e-02"/><path d="m10.1 144.5.2 2.2c0 .4.5.6.8.4l4.3-2.9" style="fill:none;stroke:#686869;stroke-linejoin:round;stroke-miterlimit:10"/><path d="m4.9 140.1 34-2.6.2 2c.1 1.5-1 2.8-2.5 2.9l-28.3 2.1c-1.6.1-3-1.1-3.2-2.7z" style="fill:#ff9f4c"/><path d="m5.7 131.1 31.8-2.4 1.4 8.8L5.2 140z" style="fill:#fff200"/><path d="m6.2 123.9 30.1-2.3 1.2 7.1-31.8 2.4z" style="fill:#2ac5f4"/><path d="m6.6 116.7 28.6-2.1 1.1 7-30.1 2.3z" style="fill:#ff60b2"/><path d="m9.9 109.4 21-1.6c2.1-.2 3.9 1.4 4.1 3.5l.2 3.3-28.5 2.1.2-3.8c-.2-1.8 1.1-3.4 3-3.5" style="fill:#b337e3"/><path d="m30.7 143-22.3 1.7c-1.7.1-3.2-1.2-3.4-2.9l1.8-29.1c-.1-1.7 1.2-3.2 2.9-3.4l18.3-1.4" style="fill:none;stroke:#70327e;stroke-linejoin:round;stroke-miterlimit:10"/><path d="m36.3 142.6-16.7 1.3c-1.6.1-3.1-1-3.3-2.6l-4.6-28.6c-.3-1.8 1-3.5 2.9-3.6l16.7-1.3c1.6-.1 3.1 1 3.3 2.6l4.6 28.6c.2 1.7-1.1 3.4-2.9 3.6z" style="fill:none;stroke:#70327e;stroke-linejoin:round;stroke-miterlimit:10"/><path d="m23 108.3 5.7 34.8" style="fill:none;stroke:#70327e;stroke-width:.5;stroke-linecap:round;stroke-linejoin:round;stroke-miterlimit:10;stroke-dasharray:0,1"/><path d="m18.5 132-3.2-17.9c-.2-1.1.5-2.1 1.7-2.2l12.8-1c1.1-.1 2.2.7 2.4 1.9l3.2 17.9c.2 1.1-.5 2.1-1.7 2.2l-12.8 1c-1.2.1-2.2-.8-2.4-1.9" style="fill:#eccdf8"/><ellipse cx="28.5" cy="118.9" rx="2.1" ry="4.5" style="fill:#70327e" transform="rotate(-10.948 28.468 118.905)"/><ellipse cx="29" cy="122.4" rx="2.1" ry="1.7" style="fill:#eccdf8" transform="matrix(.9972 -.07495 .07495 .9972 -9.095 2.519)"/><ellipse cx="29.2" cy="118.1" rx=".8" ry="1.4" style="fill:#fff" transform="rotate(-9.836 29.236 118.094)"/><path d="M29.1 112.9s1.5.1 1.7 1.6m-4 7.4s1.8-2.5 4.1-.4" style="fill:none;stroke:#70327e;stroke-linecap:round;stroke-miterlimit:10"/><ellipse cx="22.4" cy="119.7" rx="2.1" ry="4.5" style="fill:#70327e" transform="rotate(-10.948 22.365 119.75)"/><ellipse cx="22.9" cy="123.3" rx="2.1" ry="1.7" style="fill:#eccdf8" transform="matrix(.9972 -.07495 .07495 .9972 -9.175 2.064)"/><ellipse cx="23.1" cy="118.9" rx=".8" ry="1.4" style="fill:#fff" transform="rotate(-9.836 23.134 118.94)"/><path d="M20.7 122.7s1.8-2.5 4.1-.4" style="fill:none;stroke:#70327e;stroke-linecap:round;stroke-miterlimit:10"/><path d="M29.6 125.9c-6.5 5.5-10.3-1-10.3-1s1 6.7 3.9 6.7c2.6 0 3-3.5 3-3.5" style="fill:#70327e;stroke:#70327e;stroke-linecap:round;stroke-linejoin:round;stroke-miterlimit:10"/><path d="M18.5 124.8s1 .4 1.2-.6" style="fill:none;stroke:#70327e;stroke-linecap:round;stroke-linejoin:round;stroke-miterlimit:10"/><path d="m18.5 132-3.2-17.9c-.2-1.1.5-2.1 1.7-2.2l12.8-1c1.1-.1 2.2.7 2.4 1.9l3.2 17.9c.2 1.1-.5 2.1-1.7 2.2l-12.8 1c-1.2.1-2.2-.8-2.4-1.9z" style="fill:none;stroke:#70327e;stroke-width:.5449;stroke-linejoin:round;stroke-miterlimit:10"/><path d="m6.6 116.7 8.9-.6m16.9-1.3 2.8-.2m-29 9.3 10.4-.8m17.1-1.3 2.6-.2m-30.6 9.5 12.1-1M5.2 140l33.7-2.5m-3.9-8.7 2.5-.1" style="fill:none;stroke:#70327e;stroke-width:.5;stroke-linecap:round;stroke-linejoin:round;stroke-miterlimit:10;stroke-dasharray:0,1"/><path d="m9.5 127.9 1.5-.1c1.1-.1 2.1.8 2.2 1.9l.2 3.1c.1 1.1-.8 2.1-1.9 2.2l-1.5.1c-1.1.1-2.1-.8-2.2-1.9l-.2-3.1c-.1-1.1.8-2.1 1.9-2.2" style="opacity:.15"/><path d="m9.1 127.2 1.5-.1c1.1-.1 2.1.8 2.2 1.9l.2 3c.1 1.1-.8 2.1-1.9 2.2l-1.5.1c-1.1.1-2.1-.8-2.2-1.9l-.2-3.1c-.1-1 .7-2 1.9-2.1" style="fill:#ff4e15"/><path d="m9.1 127.2 1.5-.1c1.1-.1 2.1.8 2.2 1.9l.2 3c.1 1.1-.8 2.1-1.9 2.2l-1.5.1c-1.1.1-2.1-.8-2.2-1.9l-.2-3.1c-.1-1 .7-2 1.9-2.1z" style="fill:none;stroke:#70327e;stroke-linejoin:round;stroke-miterlimit:10"/><path d="m10.1 130.7-7.4-6.3" style="fill:none;stroke:#70327e;stroke-linecap:round;stroke-linejoin:round;stroke-miterlimit:10"/><circle cx="2.7" cy="124.4" r="2" style="fill:#70327e"/><path d="M1.6 124.6c-.1-.3 0-.8.4-1" style="fill:none;stroke:#fff;stroke-width:.5;stroke-linecap:round;stroke-miterlimit:10"/><path d="M36.3 140.6 21 141.8c-.8.1-1.6-.5-1.8-1.3l-.5-3c-.1-.8.4-1.5 1.3-1.5l15.4-1.2c.8-.1 1.6.5 1.8 1.3l.5 3c0 .8-.6 1.4-1.4 1.5" style="fill:#855191"/><path d="m20.8 138.6-.3-1.4.1-.1.3.3.1.8zm-.1-1.7.1-.1 1.2-.1.1.1-.2.4-.9.1zm1.5 1.6.2.2-.1.3-1 .1-.2-.2.1-.3zm.5 2-.1.1-1.2.1-.1-.1.2-.4.9-.1zm-.1-1.7.3 1.4-.1.1-.3-.3-.1-.8zm1.6-.4-.3-1.4.1-.1.3.3.1.8zm1.3-.2.2.2-.1.3-1 .1-.2-.2.1-.3zm.1-1.5.1.1.3 1.4h-.1l-.3-.3-.1-.8zm.3 1.9.3 1.4-.1.1-.3-.3-.1-.8zm1.7-.5-.3-1.4.1-.1.3.3.1.8zm-.2-1.7.1-.1 1.2-.1.1.1-.2.4-.9.1zm1.5 1.5.2.2-.1.3-1 .1-.2-.2.1-.3zm.6 2.1-.1.1-1.2.1-.1-.1.2-.4.9-.1zm-.5-3.5.1.1.3 1.4h-.1l-.3-.3-.1-.8zm.3 1.8.3 1.4-.1.1-.3-.3-.1-.8zm1.4-2.1.1-.1 1.2-.1.1.1-.2.4-.9.1zm1.5 1.5.2.2-.1.3-1 .1-.2-.2.1-.3zm.6 2.1-.1.1-1.2.1-.1-.1.2-.4.9-.1zm-.5-3.6.1.1.3 1.4h-.1l-.3-.3-.1-.8zm.3 1.9.3 1.4-.1.1-.3-.3-.1-.8zm2.5-2.1.1.1.3 1.4h-.1l-.3-.3-.1-.8zm.3 1.9.3 1.4-.1.1-.3-.3-.1-.8z" style="fill:#fff"/><path d="M36.3 140.6 21 141.8c-.8.1-1.6-.5-1.8-1.3l-.5-3c-.1-.8.4-1.5 1.3-1.5l15.4-1.2c.8-.1 1.6.5 1.8 1.3l.5 3c0 .8-.6 1.4-1.4 1.5z" style="fill:none;stroke:#70327e;stroke-linejoin:round;stroke-miterlimit:10"/><path d="M19.5 113.7s-1.4.6-1 2.2" style="fill:none;stroke:#70327e;stroke-linecap:round;stroke-miterlimit:10"/><path d="m15.2 109-.2-2.7" style="fill:none;stroke:#70327e;stroke-width:.9405;stroke-linejoin:round;stroke-miterlimit:10"/><path d="M14.5 101.1c1.6-.1 3 .8 3.1 2l.3 3-5.8.5-.3-3c-.1-1.3 1.1-2.4 2.7-2.5z" style="fill:#ff4e15;stroke:#70327e;stroke-width:.9405;stroke-linejoin:round;stroke-miterlimit:10"/><path d="m12.2 104.2 5.3-.4" style="fill:none;stroke:#70327e;stroke-linejoin:round;stroke-miterlimit:10"/><path d="m26.5 108-.2-2.6" style="fill:none;stroke:#70327e;stroke-width:.9405;stroke-linejoin:round;stroke-miterlimit:10"/><path d="M25.9 100.1c1.6-.1 3 .8 3.1 2l.3 3-5.8.5-.3-3c-.2-1.2 1.1-2.3 2.7-2.5z" style="fill:#ff4e15;stroke:#70327e;stroke-width:.9405;stroke-linejoin:round;stroke-miterlimit:10"/><path d="m23.5 103.3 5.3-.4" style="fill:none;stroke:#70327e;stroke-linejoin:round;stroke-miterlimit:10"/><path d="M213.1 78.9c5.8.8 6.7-4.4 6.7-4.4" style="fill:none;stroke:#70327e;stroke-linecap:round;stroke-linejoin:round;stroke-miterlimit:10"/></svg>