<svg width="24" height="23" viewBox="0 0 24 23" fill="none" xmlns="http://www.w3.org/2000/svg">
<path d="M12.0337 12.1131C12.4036 12.1131 12.7063 11.8105 12.7063 11.4518V2.66372C12.7063 2.30503 12.4261 2.00238 12.0562 2.00238C11.6862 2.00238 11.3836 2.28261 11.3836 2.65251V11.4518C11.3836 11.5078 11.3948 11.5751 11.406 11.6311C11.4621 11.8105 11.5854 11.9674 11.7535 12.0459C11.8432 12.0907 11.9329 12.1131 12.0337 12.1131ZM0.959006 11.4293C0.959006 17.516 5.91349 22.4704 12.0001 22.4704C18.0867 22.4704 23.0412 17.516 23.0412 11.4293C23.0412 5.34273 18.0867 0.388247 12.0001 0.388247C5.91349 0.388247 0.959006 5.34273 0.959006 11.4293ZM2.2817 11.4293C2.2817 6.06012 6.63088 1.71094 12.0001 1.71094C17.3693 1.71094 21.7185 6.06012 21.7185 11.4293C21.7185 16.7986 17.3693 21.1478 12.0001 21.1478C6.63088 21.1478 2.2817 16.7986 2.2817 11.4293ZM2.83095 11.4293C2.83095 11.6647 3.03272 11.8665 3.26811 11.8665H5.0728C5.3194 11.8665 5.50996 11.6647 5.50996 11.4293C5.50996 11.1827 5.3194 10.9922 5.0728 10.9922H3.26811C3.03272 10.9922 2.83095 11.1827 2.83095 11.4293ZM4.06397 16.0139C4.14243 16.1484 4.28815 16.2269 4.44508 16.2269C4.51234 16.2269 4.5908 16.2157 4.65806 16.1709L6.21614 15.2741C6.42911 15.1508 6.50758 14.8818 6.38428 14.6688C6.26098 14.4558 5.99195 14.3886 5.77898 14.5119L4.22089 15.4086C4.00792 15.5319 3.94066 15.801 4.06397 16.0139ZM4.06397 6.84477C3.94066 7.05774 4.00792 7.32677 4.22089 7.45007L5.77898 8.34681C5.84623 8.38043 5.9247 8.40285 6.00316 8.40285C6.14888 8.40285 6.30581 8.32439 6.38428 8.17867C6.50758 7.9769 6.42911 7.70788 6.21614 7.58458L4.65806 6.68784C4.45629 6.56454 4.18727 6.63179 4.06397 6.84477ZM7.2586 18.7602C7.1353 18.9732 7.20255 19.2422 7.41553 19.3655C7.48278 19.4103 7.56125 19.4215 7.63971 19.4215C7.78543 19.4215 7.94236 19.3431 8.02083 19.2086L8.91757 17.6505C9.04087 17.4375 8.9624 17.1685 8.76064 17.0452C8.54766 16.9219 8.27864 17.0003 8.15534 17.2021L7.2586 18.7602ZM7.2586 4.0873L8.15534 5.64538C8.2338 5.7911 8.37952 5.86957 8.53645 5.86957C8.61492 5.86957 8.68217 5.84715 8.76064 5.81352C8.9624 5.69022 9.04087 5.4212 8.91757 5.20822L8.02083 3.65014C7.89753 3.43716 7.6285 3.3699 7.41553 3.49321C7.20255 3.6053 7.1353 3.87432 7.2586 4.0873ZM11.5629 20.1501C11.5629 20.3967 11.7535 20.5985 12.0001 20.5985C12.2467 20.5985 12.4373 20.3967 12.4373 20.1501V18.3567C12.4373 18.1101 12.2467 17.9083 12.0001 17.9083C11.7535 17.9083 11.5629 18.1101 11.5629 18.3567V20.1501ZM15.0826 17.6505L15.9794 19.2086C16.0579 19.3431 16.2148 19.4215 16.3605 19.4215C16.439 19.4215 16.5174 19.4103 16.5847 19.3655C16.7977 19.2422 16.8649 18.9732 16.7416 18.7602L15.8449 17.2021C15.7216 17.0003 15.4526 16.9219 15.2396 17.0452C15.0378 17.1685 14.9593 17.4375 15.0826 17.6505ZM15.0826 5.20822C14.9593 5.4212 15.0378 5.69022 15.2396 5.81352C15.318 5.84715 15.3853 5.86957 15.4638 5.86957C15.6095 5.86957 15.7664 5.7911 15.8449 5.64538L16.7416 4.0873C16.8649 3.87432 16.7977 3.6053 16.5847 3.49321C16.3717 3.3699 16.1027 3.43716 15.9794 3.65014L15.0826 5.20822ZM17.6159 14.6688C17.4926 14.8818 17.5711 15.1508 17.7841 15.2741L19.3422 16.1709C19.4094 16.2157 19.4879 16.2269 19.5551 16.2269C19.7121 16.2269 19.8578 16.1484 19.9362 16.0139C20.0595 15.801 19.9923 15.5319 19.7793 15.4086L18.2212 14.5119C18.0083 14.3886 17.7392 14.4558 17.6159 14.6688ZM17.6159 8.17867C17.6944 8.32439 17.8513 8.40285 17.997 8.40285C18.0755 8.40285 18.154 8.38043 18.2212 8.34681L19.7793 7.45007C19.9923 7.32677 20.0595 7.05774 19.9362 6.84477C19.8129 6.63179 19.5439 6.56454 19.3422 6.68784L17.7841 7.58458C17.5711 7.70788 17.4926 7.9769 17.6159 8.17867ZM18.4903 11.4293C18.4903 11.6647 18.6808 11.8665 18.9274 11.8665H20.7321C20.9675 11.8665 21.1693 11.6647 21.1693 11.4293C21.1693 11.1827 20.9675 10.9922 20.7321 10.9922H18.9274C18.6808 10.9922 18.4903 11.1827 18.4903 11.4293Z" fill="#3C3C3C"/>
</svg>
