<svg xmlns="http://www.w3.org/2000/svg" width="24" height="23" fill="none"><path fill="#3C3C3C" d="M12.034 12.113c.37 0 .672-.303.672-.661V2.664a.653.653 0 0 0-.65-.662c-.37 0-.672.28-.672.65v8.8c0 .056.01.123.022.18a.68.68 0 0 0 .348.414c.09.045.179.067.28.067M.959 11.43c0 6.086 4.954 11.04 11.041 11.04s11.041-4.954 11.041-11.04c0-6.087-4.954-11.042-11.04-11.042C5.912.388.958 5.343.958 11.43m1.323 0A9.717 9.717 0 0 1 12 1.711c5.37 0 9.718 4.35 9.718 9.718A9.716 9.716 0 0 1 12 21.148a9.716 9.716 0 0 1-9.718-9.719m.549 0c0 .236.202.438.437.438h1.805a.438.438 0 0 0 0-.875H3.268a.44.44 0 0 0-.437.437m1.233 4.585a.44.44 0 0 0 .381.213.4.4 0 0 0 .213-.056l1.558-.897a.443.443 0 0 0 .168-.605.44.44 0 0 0-.605-.157l-1.558.897a.44.44 0 0 0-.157.605m0-9.17a.44.44 0 0 0 .157.606l1.558.897a.5.5 0 0 0 .224.056.44.44 0 0 0 .381-.224c.124-.202.045-.471-.168-.594l-1.558-.897a.43.43 0 0 0-.594.157M7.259 18.76a.44.44 0 0 0 .157.605.4.4 0 0 0 .224.057.45.45 0 0 0 .38-.213l.898-1.558a.45.45 0 0 0-.157-.606.45.45 0 0 0-.606.157zm0-14.673.896 1.558a.43.43 0 0 0 .381.225.55.55 0 0 0 .225-.056.45.45 0 0 0 .157-.606L8.02 3.65a.44.44 0 0 0-.605-.157.424.424 0 0 0-.157.594m4.304 16.063c0 .247.19.449.437.449a.44.44 0 0 0 .437-.449v-1.793a.44.44 0 0 0-.437-.449.44.44 0 0 0-.437.449zm3.52-2.5.896 1.559a.45.45 0 0 0 .381.213.4.4 0 0 0 .225-.056.44.44 0 0 0 .157-.606l-.897-1.558a.45.45 0 0 0-.605-.157.45.45 0 0 0-.157.605m0-12.442a.45.45 0 0 0 .157.606.55.55 0 0 0 .224.056.44.44 0 0 0 .38-.225l.898-1.558a.424.424 0 0 0-.157-.594.44.44 0 0 0-.606.157zm2.533 9.46a.443.443 0 0 0 .168.606l1.558.897a.4.4 0 0 0 .213.056.44.44 0 0 0 .224-.818l-1.558-.897a.44.44 0 0 0-.605.157m0-6.49a.44.44 0 0 0 .381.225.5.5 0 0 0 .224-.056l1.558-.897a.44.44 0 0 0 .157-.605.43.43 0 0 0-.594-.157l-1.558.897a.433.433 0 0 0-.168.594m.874 3.251c0 .236.19.438.437.438h1.805a.445.445 0 0 0 .437-.438.44.44 0 0 0-.437-.437h-1.805a.43.43 0 0 0-.437.437"/></svg>