<svg width="30" height="30" viewBox="0 0 30 30" fill="none" xmlns="http://www.w3.org/2000/svg">
<path fill-rule="evenodd" clip-rule="evenodd" d="M15 0C6.71573 0 0 6.71573 0 15C0 23.2843 6.71573 30 15 30C23.2843 30 30 23.2843 30 15C30 6.71573 23.2843 0 15 0ZM9.31587 6.50001H21.1844C22.1853 6.50001 23.0002 7.30501 23.0002 8.30251V24L21.0959 22.3375L20.0242 21.3575L18.8904 20.3163L19.3599 21.935H9.31587C8.31501 21.935 7.50015 21.13 7.50015 20.1325V8.30251C7.50015 7.30501 8.31501 6.50001 9.31587 6.50001Z" fill="#3c3c3c"/>
<path fill-rule="evenodd" clip-rule="evenodd" d="M17.7656 17.9275C17.7656 17.9275 17.4467 17.5512 17.181 17.2187C18.3413 16.895 18.7842 16.1775 18.7842 16.1775C18.421 16.4137 18.0756 16.58 17.7656 16.6937C17.3227 16.8775 16.8976 17 16.4813 17.07C15.631 17.2275 14.8516 17.1837 14.1873 17.0612C13.6825 16.965 13.2485 16.825 12.8853 16.685C12.6816 16.6062 12.4602 16.51 12.2387 16.3875C12.2255 16.3787 12.2122 16.3722 12.1989 16.3656C12.1856 16.359 12.1723 16.3525 12.159 16.3437C12.1413 16.335 12.1325 16.3262 12.1236 16.3175C11.9642 16.23 11.8756 16.1687 11.8756 16.1687C11.8756 16.1687 12.3007 16.8687 13.4256 17.2012C13.1599 17.5337 12.8322 17.9275 12.8322 17.9275C10.8747 17.8662 10.1307 16.5975 10.1307 16.5975C10.1307 13.78 11.4062 11.4962 11.4062 11.4962C12.6816 10.5512 13.895 10.5775 13.895 10.5775L13.9836 10.6825C12.3893 11.1375 11.6542 11.8287 11.6542 11.8287C11.6542 11.8287 11.849 11.7237 12.1767 11.575C13.1245 11.1637 13.8773 11.05 14.1873 11.0237L14.2072 11.0204C14.2518 11.0129 14.2915 11.0062 14.3379 11.0062C14.8782 10.9362 15.4893 10.9187 16.127 10.9887C16.9685 11.085 17.8719 11.33 18.793 11.8287C18.793 11.8287 18.0933 11.1725 16.5876 10.7175L16.7116 10.5775C16.7116 10.5775 17.925 10.5512 19.2005 11.4962C19.2005 11.4962 20.4759 13.78 20.4759 16.5975C20.4759 16.5975 19.723 17.8662 17.7656 17.9275ZM13.8964 14C13.3955 14 13.0001 14.4505 13.0001 15C13.0001 15.5496 13.4043 16 13.8964 16C14.3973 16 14.7927 15.5496 14.7927 15C14.8015 14.4505 14.3973 14 13.8964 14ZM16.2076 15C16.2076 14.4505 16.603 14 17.1039 14C17.6048 14 18.0002 14.4505 18.0002 15C18.0002 15.5496 17.6048 16 17.1039 16C16.6118 16 16.2076 15.5496 16.2076 15Z" fill="#3c3c3c"/>
</svg>
