<svg width="30" height="30" viewBox="0 0 30 30" fill="none" xmlns="http://www.w3.org/2000/svg">
<path d="M15.027 0.112427C6.75919 0.112427 0.0548096 6.92987 0.0548096 15.3403C0.0548096 22.0684 4.34481 27.7766 10.2937 29.7902C11.042 29.9311 11.3167 29.4598 11.3167 29.0576C11.3167 28.6945 11.3028 27.4949 11.2964 26.2225C7.13109 27.1436 6.25216 24.4257 6.25216 24.4257C5.57109 22.6656 4.58977 22.1976 4.58977 22.1976C3.23134 21.2524 4.69216 21.2718 4.69216 21.2718C6.19564 21.379 6.98729 22.8411 6.98729 22.8411C8.32266 25.1691 10.4899 24.4961 11.3442 24.107C11.4786 23.123 11.8666 22.4507 12.2948 22.0707C8.96927 21.6856 5.4734 20.3799 5.4734 14.5449C5.4734 12.8824 6.05828 11.5239 7.01605 10.4575C6.86059 10.0737 6.34812 8.5251 7.16109 6.42754C7.16109 6.42754 8.41836 6.01827 11.2795 7.98848C12.4738 7.65108 13.7546 7.48187 15.027 7.47607C16.2994 7.48187 17.5813 7.65108 18.7778 7.98848C21.6355 6.01827 22.891 6.42754 22.891 6.42754C23.706 8.5251 23.1932 10.0737 23.0378 10.4575C23.9978 11.5239 24.5787 12.8824 24.5787 14.5449C24.5787 20.3938 21.0761 21.6816 17.7422 22.0586C18.2792 22.5312 18.7577 23.4579 18.7577 24.8786C18.7577 26.9159 18.7403 28.5558 18.7403 29.0576C18.7403 29.4629 19.0099 29.9377 19.7688 29.7882C25.7145 27.7723 29.999 22.0662 29.999 15.3403C29.999 6.92987 23.2956 0.112427 15.027 0.112427Z" fill="#666666"/>
<path d="M5.72568 21.9764C5.69271 22.0523 5.57568 22.0748 5.46907 22.0228C5.36048 21.9732 5.29948 21.87 5.33469 21.7941C5.36692 21.7162 5.4842 21.6948 5.59254 21.7465C5.70139 21.7964 5.76337 21.9005 5.72568 21.9764Z" fill="#666666"/>
<path d="M6.33212 22.6644C6.26071 22.7317 6.12113 22.7004 6.02642 22.594C5.92848 22.4879 5.91013 22.3459 5.98253 22.2775C6.05617 22.2102 6.19154 22.2417 6.28972 22.3479C6.38766 22.4553 6.40675 22.5963 6.33212 22.6644Z" fill="#666666"/>
<path d="M6.92243 23.5414C6.83069 23.6062 6.68069 23.5454 6.58796 23.41C6.49623 23.2746 6.49623 23.1122 6.58995 23.0471C6.68292 22.9821 6.83069 23.0406 6.92466 23.175C7.01615 23.3124 7.01615 23.4751 6.92243 23.5414Z" fill="#666666"/>
<path d="M7.73135 24.3887C7.64928 24.4807 7.47449 24.456 7.34655 24.3305C7.21564 24.2076 7.1792 24.0334 7.26151 23.9414C7.34457 23.8491 7.52035 23.875 7.64928 23.9996C7.7792 24.1222 7.81887 24.2977 7.73135 24.3887Z" fill="#666666"/>
<path d="M8.84687 24.8806C8.81067 24.9999 8.64232 25.0541 8.47273 25.0034C8.3034 24.9512 8.19257 24.8115 8.22678 24.691C8.26199 24.571 8.43108 24.5145 8.60191 24.5687C8.771 24.6206 8.88207 24.7593 8.84687 24.8806Z" fill="#666666"/>
<path d="M10.0722 24.9719C10.0764 25.0975 9.93263 25.2017 9.75462 25.2037C9.57561 25.208 9.43082 25.1064 9.42883 24.9828C9.42883 24.8559 9.56941 24.7528 9.74842 24.7498C9.92644 24.7463 10.0722 24.8471 10.0722 24.9719Z" fill="#666666"/>
<path d="M11.2126 24.7745C11.2339 24.8971 11.1102 25.0229 10.9334 25.0562C10.7596 25.0887 10.5987 25.0131 10.5766 24.8915C10.5551 24.7659 10.681 24.6401 10.8546 24.6076C11.0316 24.5763 11.19 24.6499 11.2126 24.7745Z" fill="#666666"/>
</svg>
