<svg width="30" height="30" viewBox="0 0 30 30" fill="none" xmlns="http://www.w3.org/2000/svg">
<path fill-rule="evenodd" clip-rule="evenodd" d="M15 0C6.71573 0 0 6.71573 0 15C0 23.2843 6.71573 30 15 30C23.2843 30 30 23.2843 30 15C30 6.71573 23.2843 0 15 0ZM11.7022 7.04834C12.5555 7.00951 12.8282 7.00001 15.0009 7.00001H14.9984C17.1717 7.00001 17.4434 7.00951 18.2967 7.04834C19.1484 7.08734 19.7301 7.22217 20.2401 7.42001C20.7668 7.62418 21.2118 7.89752 21.6568 8.34252C22.1018 8.78719 22.3751 9.23353 22.5801 9.7597C22.7768 10.2684 22.9118 10.8497 22.9518 11.7014C22.9901 12.5547 23.0001 12.8274 23.0001 15.0001C23.0001 17.1728 22.9901 17.4448 22.9518 18.2981C22.9118 19.1495 22.7768 19.731 22.5801 20.2398C22.3751 20.7658 22.1018 21.2122 21.6568 21.6568C21.2123 22.1018 20.7666 22.3758 20.2406 22.5802C19.7316 22.778 19.1496 22.9128 18.2979 22.9518C17.4446 22.9907 17.1727 23.0002 14.9999 23.0002C12.8274 23.0002 12.5548 22.9907 11.7015 22.9518C10.85 22.9128 10.2685 22.778 9.75949 22.5802C9.23365 22.3758 8.78731 22.1018 8.3428 21.6568C7.89797 21.2122 7.62463 20.7658 7.42013 20.2396C7.22246 19.731 7.08762 19.1496 7.04846 18.298C7.00979 17.4446 7.00012 17.1728 7.00012 15.0001C7.00012 12.8274 7.01012 12.5546 7.04829 11.7012C7.08662 10.8499 7.22163 10.2684 7.41996 9.75953C7.62496 9.23353 7.8983 8.78719 8.3433 8.34252C8.78798 7.89768 9.23431 7.62435 9.76049 7.42001C10.2692 7.22217 10.8505 7.08734 11.7022 7.04834Z" fill="#666666"/>
<path fill-rule="evenodd" clip-rule="evenodd" d="M14.283 8.4417C14.4223 8.44148 14.5723 8.44155 14.734 8.44162L15.0007 8.4417C17.1367 8.4417 17.3899 8.44936 18.2334 8.4877C19.0134 8.52336 19.4367 8.6537 19.7187 8.7632C20.092 8.9082 20.3582 9.08154 20.6381 9.36154C20.9181 9.64154 21.0914 9.90821 21.2367 10.2815C21.3462 10.5632 21.4767 10.9866 21.5122 11.7666C21.5506 12.6099 21.5589 12.8632 21.5589 14.9983C21.5589 17.1333 21.5506 17.3866 21.5122 18.23C21.4766 19.01 21.3462 19.4333 21.2367 19.715C21.0917 20.0883 20.9181 20.3542 20.6381 20.634C20.3581 20.914 20.0922 21.0873 19.7187 21.2323C19.437 21.3423 19.0134 21.4723 18.2334 21.508C17.39 21.5463 17.1367 21.5547 15.0007 21.5547C12.8645 21.5547 12.6113 21.5463 11.768 21.508C10.988 21.472 10.5646 21.3417 10.2824 21.2322C9.90911 21.0872 9.64244 20.9138 9.36244 20.6338C9.08243 20.3538 8.9091 20.0878 8.76376 19.7143C8.65426 19.4326 8.52376 19.0093 8.48826 18.2293C8.44993 17.386 8.44226 17.1326 8.44226 14.9963C8.44226 12.8599 8.44993 12.6079 8.48826 11.7646C8.52393 10.9846 8.65426 10.5612 8.76376 10.2792C8.90877 9.90588 9.08243 9.63921 9.36244 9.35921C9.64244 9.0792 9.90911 8.90587 10.2824 8.76053C10.5644 8.65053 10.988 8.52053 11.768 8.4847C12.506 8.45136 12.792 8.44136 14.283 8.4397V8.4417ZM19.2711 9.77003C18.741 9.77003 18.311 10.1995 18.311 10.7297C18.311 11.2597 18.741 11.6897 19.2711 11.6897C19.8011 11.6897 20.2311 11.2597 20.2311 10.7297C20.2311 10.1997 19.8011 9.76969 19.2711 9.76969V9.77003ZM10.8922 15.0001C10.8922 12.7313 12.7316 10.8918 15.0004 10.8917C17.2692 10.8917 19.1083 12.7312 19.1083 15.0001C19.1083 17.2689 17.2694 19.1076 15.0006 19.1076C12.7317 19.1076 10.8922 17.2689 10.8922 15.0001Z" fill="#666666"/>
<path d="M15.0008 12.3334C16.4735 12.3334 17.6675 13.5272 17.6675 15.0001C17.6675 16.4728 16.4735 17.6668 15.0008 17.6668C13.528 17.6668 12.3341 16.4728 12.3341 15.0001C12.3341 13.5272 13.528 12.3334 15.0008 12.3334Z" fill="#666666"/>
</svg>
