<svg width="326" height="30" viewBox="0 0 326 30" fill="none" xmlns="http://www.w3.org/2000/svg">
<path d="M10.7031 29.793C13.8672 29.793 15.8203 27.5859 15.8203 24.3828V13.2109C14.5508 13.2109 13.4375 13.0547 12.6758 12.6641C12.2852 12.4688 12.0508 12.1172 12.0508 11.7266C12.0508 11.2578 12.4609 10.8281 12.9492 10.8281C13.2031 10.8281 13.3984 10.8867 13.5742 10.9453C14.1406 11.1406 14.8047 11.2578 15.8203 11.2578C19.1406 11.2578 21.0938 9.36328 21.0938 6.33594C21.0938 3.38672 19.1016 1.375 16.1719 1.375H5.21484C2.30469 1.375 0.292969 3.38672 0.292969 6.33594C0.292969 9.36328 2.26562 11.2578 5.58594 11.2578C6.60156 11.2578 7.26562 11.1406 7.83203 10.9453C8.00781 10.8867 8.20312 10.8281 8.45703 10.8281C8.94531 10.8281 9.35547 11.2578 9.35547 11.7266C9.35547 12.1172 9.12109 12.4688 8.73047 12.6641C7.96875 13.0547 6.85547 13.2109 5.58594 13.2109V24.3828C5.58594 27.5859 7.53906 29.793 10.7031 29.793ZM27.3047 29.793C30.2734 29.793 32.207 27.6055 32.207 24.4023V20.8477C31.543 20.8477 30.8398 20.75 30.4492 20.6719C29.8242 20.5547 29.4336 20.3008 29.4336 19.6562C29.4336 19.0898 29.7266 18.7383 30.3711 18.7383C30.5273 18.7383 30.7422 18.7578 31.1523 18.7969C31.7969 18.8555 32.6172 18.8945 33.1836 18.8945C33.75 18.8945 34.5703 18.8555 35.2148 18.7969C35.625 18.7578 35.8398 18.7383 35.9961 18.7383C36.6406 18.7383 36.9336 19.0898 36.9336 19.6562C36.9336 20.3008 36.543 20.5547 35.918 20.6719C35.5273 20.75 34.8242 20.8477 34.1602 20.8477V24.4023C34.1602 27.6055 36.0938 29.793 39.0625 29.793C41.9531 29.793 43.7891 27.6055 43.7891 24.4023V6.47266C43.7891 3.26953 41.9531 1.08203 39.0625 1.08203C36.0938 1.08203 34.1602 3.26953 34.1602 6.47266V10.0273C34.8242 10.0273 35.5273 10.125 35.918 10.2031C36.543 10.3203 36.9336 10.5742 36.9336 11.2188C36.9336 11.7852 36.6406 12.1367 35.9961 12.1367C35.8398 12.1367 35.625 12.1172 35.2148 12.0781C34.5703 12.0195 33.75 11.9805 33.1836 11.9805C32.6172 11.9805 31.7969 12.0195 31.1523 12.0781C30.7422 12.1172 30.5273 12.1367 30.3711 12.1367C29.7266 12.1367 29.4336 11.7852 29.4336 11.2188C29.4336 10.5742 29.8242 10.3203 30.4492 10.2031C30.8398 10.125 31.543 10.0273 32.207 10.0273V6.47266C32.207 3.26953 30.2734 1.08203 27.3047 1.08203C24.4141 1.08203 22.5781 3.26953 22.5781 6.47266V24.4023C22.5781 27.6055 24.4141 29.793 27.3047 29.793ZM51.0156 29.5H59.043C62.0117 29.5 63.9648 27.5273 63.9648 24.5391C63.9648 21.3359 62.1484 20.3398 58.3398 20.3398C57.2266 20.3398 56.1133 20.4961 55.4883 20.7109C55.2344 20.7891 54.9414 20.8672 54.7461 20.8672C54.2188 20.8672 53.7891 20.457 53.7891 19.9102C53.7891 19.3828 54.1797 19.0703 54.5312 18.9531C55.4102 18.6602 56.875 18.3867 58.3398 18.3867C59.668 18.3867 61.0547 18.6211 61.8164 18.8359C62.5977 18.2891 63.3789 17.1172 63.3789 15.4375C63.3789 13.7578 62.5977 12.5859 61.8164 12.0391C61.0547 12.2539 59.668 12.4883 58.3398 12.4883C56.875 12.4883 55.4102 12.2148 54.5312 11.9219C54.1797 11.8047 53.7891 11.4922 53.7891 10.9648C53.7891 10.418 54.2188 10.0078 54.7461 10.0078C54.9414 10.0078 55.2344 10.0859 55.4883 10.1641C56.1133 10.3789 57.2266 10.5352 58.3398 10.5352C62.1484 10.5352 63.9648 9.53906 63.9648 6.33594C63.9648 3.34766 62.0117 1.375 59.043 1.375H51.0156C48.0859 1.375 46.1328 3.38672 46.1328 6.41406V24.4609C46.1328 27.4883 48.0859 29.5 51.0156 29.5Z" fill="#9253A1"/>
<path d="M90.5625 29.8906C96.7148 29.8906 100.953 26.4922 100.953 21.668C100.953 18.4453 98.8047 16.4531 95.3867 16.4531C94.1172 16.4531 92.5352 16.4531 91.5781 17.625V21.7461C91.5781 22.3516 91.2852 22.8008 90.6016 22.8008C89.918 22.8008 89.625 22.3516 89.625 21.7461V9.26562C89.625 8.66016 89.918 8.21094 90.6016 8.21094C91.2852 8.21094 91.5781 8.66016 91.5781 9.26562V13.3281C92.5352 14.5 94.1172 14.5 95.3867 14.5C98.8047 14.5 100.953 12.4883 100.953 9.24609C100.953 4.40234 96.6758 0.984375 90.5625 0.984375C83.2188 0.984375 79.8398 5.90625 79.8398 15.4375C79.8398 24.9688 83.2188 29.8906 90.5625 29.8906ZM113.668 29.8906C121.129 29.8906 124.41 25.0469 124.41 15.4375C124.41 5.82812 121.129 0.984375 113.668 0.984375C106.207 0.984375 102.926 5.82812 102.926 15.4375C102.926 25.0469 106.207 29.8906 113.668 29.8906ZM112.691 21.668V9.1875C112.691 8.58203 112.984 8.13281 113.668 8.13281C114.352 8.13281 114.645 8.58203 114.645 9.1875V21.668C114.645 22.2734 114.352 22.7227 113.668 22.7227C112.984 22.7227 112.691 22.2734 112.691 21.668ZM131.539 29.5H136.5C144.098 29.5 147.34 23.5625 147.34 15.4375C147.34 7.33203 144.098 1.375 136.5 1.375H131.539C128.57 1.375 126.656 3.46484 126.656 6.53125V24.4609C126.656 27.4688 128.57 29.5 131.539 29.5ZM135.426 21.668V9.1875C135.426 8.58203 135.719 8.13281 136.402 8.13281C137.086 8.13281 137.379 8.58203 137.379 9.1875V21.668C137.379 22.2734 137.086 22.7227 136.402 22.7227C135.719 22.7227 135.426 22.2734 135.426 21.668ZM154.703 29.793C157.828 29.793 159.82 27.5859 159.82 24.3828V6.47266C159.82 3.26953 157.828 1.08203 154.703 1.08203C151.578 1.08203 149.586 3.26953 149.586 6.47266V24.3828C149.586 27.5859 151.578 29.793 154.703 29.793ZM166.969 29.793C169.84 29.793 171.48 28.1133 171.852 26.043L168.883 18.7773C168.414 17.6055 167.77 16.668 167.262 16.1406C167.047 15.9258 166.91 15.6328 166.91 15.3594C166.91 14.8516 167.34 14.4219 167.848 14.4219C168.141 14.4219 168.375 14.5195 168.609 14.7539C169.293 15.4375 170.113 16.5898 170.68 18.0156L173.551 25.1055C174.684 27.8984 175.758 29.793 179.117 29.793C181.832 29.793 183.941 27.8594 183.941 25.1055V6.96094C183.941 3.44531 182.164 1.08203 178.844 1.08203C176.715 1.08203 175.68 1.72656 174.723 2.95703L177.77 10.0078C178.238 11.082 178.961 12.1172 179.371 12.5859C179.586 12.8398 179.723 13.0938 179.723 13.4062C179.723 13.9336 179.293 14.3438 178.785 14.3438C178.512 14.3438 178.258 14.207 178.062 14.0117C177.457 13.4062 176.5 12.0586 175.953 10.7695L173.902 5.96484C172.613 2.9375 171.402 1.08203 168.18 1.08203C164.723 1.08203 162.164 3.44531 162.164 6.96094V25.1055C162.164 27.8594 164.273 29.793 166.969 29.793ZM194.684 29.8906C198.473 29.8906 199.723 26.707 200.23 25.5352C200.543 24.8125 200.797 24.5 201.344 24.5C201.891 24.5 202.242 24.8906 202.242 25.418C202.242 25.6914 202.164 25.9844 201.988 26.4141C201.656 27.1953 201.031 28.5039 200.27 29.2656C200.68 29.5391 201.617 29.8906 202.867 29.8906C205.406 29.8906 207.32 28.1719 207.32 25.3203V21.9023C207.32 18.543 205.172 16.4531 201.754 16.4531C200.484 16.4531 198.902 16.4531 197.945 17.625V21.3555C197.945 21.9609 197.652 22.4102 196.969 22.4102C196.285 22.4102 195.992 21.9609 195.992 21.3555V9.65625C195.992 9.05078 196.285 8.60156 196.969 8.60156C197.652 8.60156 197.945 9.05078 197.945 9.65625V13.3281C198.902 14.5 200.484 14.5 201.754 14.5C205.172 14.5 207.32 12.4883 207.32 9.24609C207.32 4.40234 203.043 0.984375 196.91 0.984375C189.625 0.984375 186.207 5.90625 186.207 15.3594C186.207 24.9688 189.586 29.8906 194.684 29.8906Z" fill="#F16164"/>
<path d="M233.312 29.793C236.477 29.793 238.43 27.5859 238.43 24.3828V13.2109C237.16 13.2109 236.047 13.0547 235.285 12.6641C234.895 12.4688 234.66 12.1172 234.66 11.7266C234.66 11.2578 235.07 10.8281 235.559 10.8281C235.812 10.8281 236.008 10.8867 236.184 10.9453C236.75 11.1406 237.414 11.2578 238.43 11.2578C241.75 11.2578 243.703 9.36328 243.703 6.33594C243.703 3.38672 241.711 1.375 238.781 1.375H227.824C224.914 1.375 222.902 3.38672 222.902 6.33594C222.902 9.36328 224.875 11.2578 228.195 11.2578C229.211 11.2578 229.875 11.1406 230.441 10.9453C230.617 10.8867 230.812 10.8281 231.066 10.8281C231.555 10.8281 231.965 11.2578 231.965 11.7266C231.965 12.1172 231.73 12.4688 231.34 12.6641C230.578 13.0547 229.465 13.2109 228.195 13.2109V24.3828C228.195 27.5859 230.148 29.793 233.312 29.793ZM250.07 29.793C253.059 29.793 254.426 27.6836 254.699 26.5508L254.172 25.5742C253.723 24.7539 253 24.0508 252.648 23.7773C252.336 23.543 252.199 23.2695 252.199 22.9375C252.199 22.4102 252.609 21.9805 253.137 21.9805C253.508 21.9805 253.781 22.1367 254.113 22.4297C254.543 22.8203 255.285 23.5625 255.832 24.5781L257.219 27.1367C257.961 28.4844 259.387 29.793 260.988 29.793C263.43 29.793 266.027 28.4648 266.027 25.5547C266.027 24.3828 265.754 23.4648 264.836 21.9805L263.527 19.8516C262.688 20.418 261.926 20.8281 261.555 20.9648C261.262 21.082 261.105 21.1016 260.91 21.1016C260.383 21.1016 259.953 20.6719 259.953 20.1445C259.953 19.6367 260.324 19.3242 260.676 19.207C261.223 19.0117 262.551 18.25 263.039 17.8203C265.109 15.9648 266.066 14.0508 266.066 11.2578C266.066 5.10547 262.023 1.375 254.836 1.375H250.07C247.102 1.375 245.188 3.42578 245.188 6.41406V24.7539C245.188 27.7422 247.102 29.793 250.07 29.793ZM254.348 13.6992V9.32422C254.348 8.71875 254.641 8.26953 255.324 8.26953C256.008 8.26953 256.301 8.71875 256.301 9.32422V13.6992C256.301 14.3047 256.008 14.7539 255.324 14.7539C254.641 14.7539 254.348 14.3047 254.348 13.6992ZM272.238 29.793C274.953 29.793 276.496 28.4844 277.258 25.0078C277.414 24.3242 277.492 23.6602 277.551 22.5078C276.887 22.5078 276.184 22.3906 275.793 22.3125C275.168 22.1953 274.777 21.9219 274.777 21.2773C274.777 20.7305 275.07 20.3789 275.715 20.3789C275.871 20.3789 276.086 20.3984 276.496 20.4375C277.141 20.4961 277.961 20.5352 278.527 20.5352C279.094 20.5352 279.914 20.4961 280.559 20.4375C280.969 20.3984 281.184 20.3789 281.34 20.3789C281.984 20.3789 282.277 20.7305 282.277 21.2773C282.277 21.9219 281.887 22.1953 281.262 22.3125C280.871 22.3906 280.168 22.5078 279.504 22.5078C279.562 23.6602 279.641 24.3242 279.797 25.0078C280.559 28.4844 282.102 29.793 284.816 29.793C287.59 29.793 289.426 27.9766 289.426 24.7734C289.426 24.2266 289.387 22.6836 289.309 21.7266L288.488 11.4727C287.941 4.55859 284.23 1.08203 278.527 1.08203C272.824 1.08203 269.113 4.55859 268.566 11.4727L267.746 21.7266C267.668 22.6836 267.629 24.2266 267.629 24.7734C267.629 27.9766 269.465 29.793 272.238 29.793ZM274.777 13.3477C274.777 12.7031 275.168 12.4492 275.793 12.332C276.184 12.2539 276.887 12.1562 277.551 12.1562V10.1641C277.551 9.55859 277.844 9.10938 278.527 9.10938C279.211 9.10938 279.504 9.55859 279.504 10.1641V12.1562C280.168 12.1562 280.871 12.2539 281.262 12.332C281.887 12.4492 282.277 12.7031 282.277 13.3477C282.277 13.9141 281.984 14.2656 281.34 14.2656C281.184 14.2656 280.969 14.2461 280.559 14.207C279.914 14.1484 279.094 14.1094 278.527 14.1094C277.961 14.1094 277.141 14.1484 276.496 14.207C276.086 14.2461 275.871 14.2656 275.715 14.2656C275.07 14.2656 274.777 13.9141 274.777 13.3477ZM296.398 29.793C299.523 29.793 301.516 27.5859 301.516 24.3828V6.47266C301.516 3.26953 299.523 1.08203 296.398 1.08203C293.273 1.08203 291.281 3.26953 291.281 6.47266V24.3828C291.281 27.5859 293.273 29.793 296.398 29.793ZM308.664 29.793C311.535 29.793 313.176 28.1133 313.547 26.043L310.578 18.7773C310.109 17.6055 309.465 16.668 308.957 16.1406C308.742 15.9258 308.605 15.6328 308.605 15.3594C308.605 14.8516 309.035 14.4219 309.543 14.4219C309.836 14.4219 310.07 14.5195 310.305 14.7539C310.988 15.4375 311.809 16.5898 312.375 18.0156L315.246 25.1055C316.379 27.8984 317.453 29.793 320.812 29.793C323.527 29.793 325.637 27.8594 325.637 25.1055V6.96094C325.637 3.44531 323.859 1.08203 320.539 1.08203C318.41 1.08203 317.375 1.72656 316.418 2.95703L319.465 10.0078C319.934 11.082 320.656 12.1172 321.066 12.5859C321.281 12.8398 321.418 13.0938 321.418 13.4062C321.418 13.9336 320.988 14.3438 320.48 14.3438C320.207 14.3438 319.953 14.207 319.758 14.0117C319.152 13.4062 318.195 12.0586 317.648 10.7695L315.598 5.96484C314.309 2.9375 313.098 1.08203 309.875 1.08203C306.418 1.08203 303.859 3.44531 303.859 6.96094V25.1055C303.859 27.8594 305.969 29.793 308.664 29.793Z" fill="#F89E4F"/>
</svg>
