<svg xmlns="http://www.w3.org/2000/svg" width="326" height="30" fill="none" viewBox="0 0 326 30"><path fill="#9253A1" d="M10.703 29.793c3.164 0 5.117-2.207 5.117-5.41V13.21c-1.27 0-2.383-.156-3.144-.547-.39-.195-.625-.547-.625-.937 0-.47.41-.899.898-.899.254 0 .45.059.625.117.567.196 1.23.313 2.246.313 3.32 0 5.274-1.895 5.274-4.922 0-2.95-1.992-4.961-4.922-4.961H5.215c-2.91 0-4.922 2.012-4.922 4.96 0 3.028 1.973 4.923 5.293 4.923 1.016 0 1.68-.117 2.246-.313a1.9 1.9 0 0 1 .625-.117c.488 0 .898.43.898.899 0 .39-.234.742-.625.937-.761.39-1.875.547-3.144.547v11.172c0 3.203 1.953 5.41 5.117 5.41m16.602 0c2.968 0 4.902-2.187 4.902-5.39v-3.555a10 10 0 0 1-1.758-.176c-.625-.117-1.015-.371-1.015-1.016 0-.566.293-.918.937-.918.156 0 .371.02.781.059.645.058 1.465.098 2.032.098.566 0 1.386-.04 2.03-.098.411-.04.626-.059.782-.059.645 0 .938.352.938.918 0 .645-.391.899-1.016 1.016a10 10 0 0 1-1.758.176v3.554c0 3.203 1.934 5.391 4.903 5.391 2.89 0 4.726-2.187 4.726-5.39V6.472c0-3.203-1.836-5.391-4.727-5.391-2.968 0-4.902 2.188-4.902 5.39v3.555c.664 0 1.367.098 1.758.176.625.117 1.016.371 1.016 1.016 0 .566-.293.918-.938.918a10 10 0 0 1-.781-.059 25 25 0 0 0-2.031-.098c-.567 0-1.387.04-2.032.098a9 9 0 0 1-.78.059c-.645 0-.938-.352-.938-.918 0-.645.39-.899 1.015-1.016a10 10 0 0 1 1.758-.176V6.473c0-3.203-1.934-5.391-4.902-5.391-2.89 0-4.727 2.188-4.727 5.39v17.93c0 3.203 1.836 5.391 4.727 5.391m23.71-.293h8.028c2.969 0 4.922-1.973 4.922-4.96 0-3.204-1.817-4.2-5.625-4.2-1.113 0-2.227.156-2.852.37-.254.08-.547.157-.742.157a.946.946 0 0 1-.957-.957c0-.527.39-.84.742-.957.88-.293 2.344-.566 3.809-.566 1.328 0 2.715.234 3.476.449.782-.547 1.563-1.719 1.563-3.398s-.781-2.852-1.563-3.399c-.761.215-2.148.45-3.476.45-1.465 0-2.93-.274-3.809-.567-.351-.117-.742-.43-.742-.957 0-.547.43-.957.957-.957.195 0 .488.078.742.156.625.215 1.739.371 2.852.371 3.808 0 5.625-.996 5.625-4.2 0-2.987-1.953-4.96-4.922-4.96h-8.027c-2.93 0-4.883 2.012-4.883 5.04V24.46c0 3.027 1.953 5.039 4.883 5.039"/><path fill="#F16164" d="M90.563 29.89c6.152 0 10.39-3.398 10.39-8.222 0-3.223-2.148-5.215-5.566-5.215-1.27 0-2.852 0-3.809 1.172v4.121c0 .606-.293 1.055-.976 1.055-.684 0-.977-.45-.977-1.055V9.266c0-.606.293-1.055.977-1.055s.976.45.976 1.055v4.062c.957 1.172 2.54 1.172 3.809 1.172 3.418 0 5.566-2.012 5.566-5.254 0-4.844-4.277-8.262-10.39-8.262-7.344 0-10.723 4.922-10.723 14.454 0 9.53 3.379 14.453 10.722 14.453m23.105 0c7.461 0 10.742-4.843 10.742-14.452S121.129.983 113.668.983s-10.742 4.844-10.742 14.454 3.281 14.453 10.742 14.453m-.977-8.222V9.188c0-.606.293-1.055.977-1.055s.977.449.977 1.055v12.48c0 .605-.293 1.055-.977 1.055s-.977-.45-.977-1.055m18.848 7.832h4.961c7.598 0 10.84-5.937 10.84-14.062 0-8.106-3.242-14.063-10.84-14.063h-4.961c-2.969 0-4.883 2.09-4.883 5.156v17.93c0 3.008 1.914 5.039 4.883 5.039m3.887-7.832V9.188c0-.606.293-1.055.976-1.055.684 0 .977.449.977 1.055v12.48c0 .605-.293 1.055-.977 1.055s-.976-.45-.976-1.055m19.277 8.125c3.125 0 5.117-2.207 5.117-5.41V6.473c0-3.203-1.992-5.391-5.117-5.391s-5.117 2.188-5.117 5.39v17.91c0 3.204 1.992 5.411 5.117 5.411m12.266 0c2.871 0 4.511-1.68 4.883-3.75l-2.969-7.266c-.469-1.172-1.113-2.109-1.621-2.636-.215-.215-.352-.508-.352-.782a.95.95 0 0 1 .938-.937c.293 0 .527.098.761.332.684.684 1.504 1.836 2.071 3.262l2.871 7.09c1.133 2.792 2.207 4.687 5.566 4.687 2.715 0 4.824-1.934 4.824-4.687V6.96c0-3.516-1.777-5.879-5.097-5.879-2.129 0-3.164.645-4.121 1.875l3.047 7.05c.468 1.075 1.191 2.11 1.601 2.579.215.254.352.508.352.82 0 .528-.43.938-.938.938-.273 0-.527-.137-.723-.332-.605-.606-1.562-1.953-2.109-3.242l-2.051-4.805c-1.289-3.027-2.5-4.883-5.722-4.883-3.457 0-6.016 2.363-6.016 5.879v18.144c0 2.754 2.109 4.688 4.805 4.688m27.715.098c3.789 0 5.039-3.184 5.546-4.356.313-.723.567-1.035 1.114-1.035s.898.39.898.918c0 .273-.078.566-.254.996-.332.781-.957 2.09-1.718 2.852.41.273 1.347.625 2.597.625 2.539 0 4.453-1.72 4.453-4.57v-3.419c0-3.359-2.148-5.449-5.566-5.449-1.27 0-2.852 0-3.809 1.172v3.73c0 .606-.293 1.055-.976 1.055-.684 0-.977-.45-.977-1.055V9.657c0-.605.293-1.054.977-1.054s.976.449.976 1.054v3.672c.957 1.172 2.539 1.172 3.809 1.172 3.418 0 5.566-2.012 5.566-5.254 0-4.844-4.277-8.262-10.41-8.262-7.285 0-10.703 4.922-10.703 14.375 0 9.61 3.379 14.532 8.477 14.532"/><path fill="#F89E4F" d="M233.312 29.793c3.165 0 5.118-2.207 5.118-5.41V13.21c-1.27 0-2.383-.156-3.145-.547-.39-.195-.625-.547-.625-.937 0-.47.41-.899.899-.899.253 0 .449.059.625.117.566.196 1.23.313 2.246.313 3.32 0 5.273-1.895 5.273-4.922 0-2.95-1.992-4.961-4.922-4.961h-10.957c-2.91 0-4.922 2.012-4.922 4.96 0 3.028 1.973 4.923 5.293 4.923 1.016 0 1.68-.117 2.246-.313a1.9 1.9 0 0 1 .625-.117c.489 0 .899.43.899.899 0 .39-.235.742-.625.937-.762.39-1.875.547-3.145.547v11.172c0 3.203 1.953 5.41 5.117 5.41m16.758 0c2.989 0 4.356-2.11 4.629-3.242l-.527-.977c-.449-.82-1.172-1.523-1.524-1.797-.312-.234-.449-.508-.449-.84 0-.527.41-.957.938-.957.371 0 .644.157.976.45.43.39 1.172 1.133 1.719 2.148l1.387 2.559c.742 1.347 2.168 2.656 3.769 2.656 2.442 0 5.039-1.328 5.039-4.238 0-1.172-.273-2.09-1.191-3.575l-1.309-2.128c-.839.566-1.601.976-1.972 1.113-.293.117-.45.137-.645.137a.96.96 0 0 1-.957-.957c0-.508.371-.82.723-.938.547-.195 1.875-.957 2.363-1.387 2.07-1.855 3.027-3.77 3.027-6.562 0-6.153-4.043-9.883-11.23-9.883h-4.766c-2.968 0-4.882 2.05-4.882 5.04v18.339c0 2.988 1.914 5.039 4.882 5.039m4.278-16.094V9.324c0-.605.293-1.054.976-1.054.684 0 .977.449.977 1.054V13.7c0 .606-.293 1.055-.977 1.055s-.976-.45-.976-1.055m17.89 16.094c2.715 0 4.258-1.309 5.02-4.785.156-.684.234-1.348.293-2.5-.664 0-1.367-.117-1.758-.195-.625-.118-1.016-.391-1.016-1.036 0-.547.293-.898.938-.898.156 0 .371.02.781.058.645.06 1.465.098 2.031.098s1.387-.039 2.032-.098c.41-.039.625-.058.781-.058.644 0 .937.351.937.898 0 .645-.39.918-1.015 1.035-.391.079-1.094.196-1.758.196.058 1.152.137 1.816.293 2.5.762 3.476 2.305 4.785 5.019 4.785 2.774 0 4.61-1.816 4.61-5.02 0-.546-.039-2.09-.117-3.046l-.821-10.254c-.547-6.914-4.258-10.391-9.961-10.391s-9.414 3.477-9.961 10.39l-.82 10.255c-.078.957-.117 2.5-.117 3.046 0 3.204 1.836 5.02 4.609 5.02m2.539-16.445c0-.645.391-.899 1.016-1.016a10 10 0 0 1 1.758-.176v-1.992c0-.605.293-1.055.976-1.055.684 0 .977.45.977 1.055v1.992c.664 0 1.367.098 1.758.176.625.117 1.015.371 1.015 1.016 0 .566-.293.918-.937.918-.156 0-.371-.02-.781-.059a25 25 0 0 0-2.032-.098c-.566 0-1.386.04-2.031.098-.41.04-.625.059-.781.059-.645 0-.938-.352-.938-.918m21.621 16.445c3.125 0 5.118-2.207 5.118-5.41V6.473c0-3.203-1.993-5.391-5.118-5.391s-5.117 2.188-5.117 5.39v17.91c0 3.204 1.992 5.411 5.117 5.411m12.266 0c2.871 0 4.512-1.68 4.883-3.75l-2.969-7.266c-.469-1.172-1.113-2.109-1.621-2.636-.215-.215-.352-.508-.352-.782a.95.95 0 0 1 .938-.937c.293 0 .527.098.762.332.683.684 1.504 1.836 2.07 3.262l2.871 7.09c1.133 2.792 2.207 4.687 5.566 4.687 2.715 0 4.825-1.934 4.825-4.687V6.96c0-3.516-1.778-5.879-5.098-5.879-2.129 0-3.164.645-4.121 1.875l3.047 7.05c.469 1.075 1.191 2.11 1.601 2.579.215.254.352.508.352.82 0 .528-.43.938-.938.938-.273 0-.527-.137-.722-.332-.606-.606-1.563-1.953-2.11-3.242l-2.05-4.805c-1.289-3.027-2.5-4.883-5.723-4.883-3.457 0-6.016 2.363-6.016 5.879v18.144c0 2.754 2.11 4.688 4.805 4.688"/></svg>