<?xml version="1.0" encoding="utf-8"?>
<svg version="1.1"
	xmlns="http://www.w3.org/2000/svg" viewBox="0 0 488.95 400">
	<path class="st0" fill="#9254A2" d="M48.74,171.22c-6.47,0-11.71-5.25-11.71-11.71V88.04H24.25c-6.47,0-11.71-5.25-11.71-11.71V25.55
				c0-6.47,5.24-11.71,11.71-11.71h216.99c6.47,0,11.71,5.25,11.71,11.71v92.19c0,6.47-5.24,11.71-11.71,11.71
				c-6.47,0-11.71-5.25-11.71-11.71V37.26H35.96v27.35h12.78c6.47,0,11.71,5.25,11.71,11.71v83.19
				C60.45,165.98,55.21,171.22,48.74,171.22z"/>

	<path class="st1" fill="#33C5F2" d="M375.22,129.45c-0.6,0-1.22-0.05-1.84-0.15c-6.39-1.01-10.74-7.01-9.73-13.4l12.44-78.64h-76.28l12.44,78.64
				c1.01,6.39-3.35,12.39-9.73,13.4c-6.43,1.08-12.38-3.35-13.39-9.73l-14.59-92.19c-0.54-3.39,0.44-6.83,2.66-9.43
				c2.23-2.61,5.48-4.11,8.9-4.11h103.69c3.42,0,6.67,1.5,8.9,4.11c2.22,2.6,3.2,6.05,2.66,9.43l-14.59,92.19
				C385.86,125.34,380.88,129.45,375.22,129.45z"/>

	<path class="st2" fill="#ED64A3" d="M470.17,346.93c-3.47,0-6.91-1.55-9.22-4.49l-46.2-59.04c-2.5-3.19-3.17-7.45-1.77-11.26l29.37-79.9
				l-29.86-69.91c-2.54-5.94,0.22-12.82,6.16-15.36c5.95-2.52,12.83,0.22,15.36,6.17l31.69,74.18c1.18,2.73,1.26,5.82,0.23,8.63
				L437.2,274.1l42.18,53.9c3.98,5.1,3.09,12.45-2,16.44C475.24,346.12,472.69,346.93,470.17,346.93z"/>

	<path class="st0" fill="#9254A2" d="M124.78,390.89c-65.02,0-117.91-52.9-117.91-117.93c0-65.01,52.89-117.91,117.91-117.91
				s117.91,52.9,117.91,117.91C242.7,337.99,189.81,390.89,124.78,390.89z M124.78,178.48c-52.11,0-94.5,42.39-94.5,94.49
				c0,52.12,42.39,94.5,94.5,94.5s94.5-42.39,94.5-94.5C219.29,220.86,176.89,178.48,124.78,178.48z"/>

	<path class="st1" fill="#33C5F2" d="M286.9,391.2c-26.18,0-47.49-21.3-47.49-47.49s21.3-47.49,47.49-47.49s47.49,21.3,47.49,47.49
				S313.08,391.2,286.9,391.2z M286.9,318.69c-13.8,0-25.02,11.23-25.02,25.02s11.22,25.02,25.02,25.02s25.02-11.23,25.02-25.02
				S300.7,318.69,286.9,318.69z"/>

	<path class="st1" fill="#33C5F2" d="M389.3,391.1c-25.95,0-47.07-21.12-47.07-47.07c0-25.96,21.12-47.08,47.07-47.08
				c25.95,0,47.07,21.12,47.07,47.08C436.37,369.98,415.25,391.1,389.3,391.1z M389.3,319.22c-13.68,0-24.81,11.13-24.81,24.81
				c0,13.68,11.13,24.8,24.81,24.8c13.68,0,24.81-11.12,24.81-24.8C414.11,330.35,402.98,319.22,389.3,319.22z"/>

	<path class="st3" fill="#F89E53" d="M378.28,239.64c-6.47,0-11.71-5.25-11.71-11.71v-68.42c0-6.47,5.24-11.71,11.71-11.71
					s11.71,5.25,11.71,11.71v68.42C389.98,234.4,384.74,239.64,378.28,239.64z"/>

	<path class="st3" fill="#F89E53" d="M337.95,239.64c-6.47,0-11.71-5.25-11.71-11.71v-68.42c0-6.47,5.24-11.71,11.71-11.71
					s11.71,5.25,11.71,11.71v68.42C349.65,234.4,344.41,239.64,337.95,239.64z"/>

	<path class="st3" fill="#F89E53" d="M297.62,239.64c-6.47,0-11.71-5.25-11.71-11.71v-68.42c0-6.47,5.24-11.71,11.71-11.71
					s11.71,5.25,11.71,11.71v68.42C309.32,234.4,304.08,239.64,297.62,239.64z"/>

	<path class="st3" fill="#F89E53" d="M388.91,287.33H286.98c-6.47,0-11.71-5.25-11.71-11.71s5.24-11.71,11.71-11.71h101.92
				c6.47,0,11.71,5.25,11.71,11.71S395.37,287.33,388.91,287.33z"/>
</svg>
