<svg xmlns="http://www.w3.org/2000/svg" viewBox="0 0 488.95 400"><path fill="#9254A2" d="M48.74 171.22c-6.47 0-11.71-5.25-11.71-11.71V88.04H24.25c-6.47 0-11.71-5.25-11.71-11.71V25.55c0-6.47 5.24-11.71 11.71-11.71h216.99c6.47 0 11.71 5.25 11.71 11.71v92.19c0 6.47-5.24 11.71-11.71 11.71s-11.71-5.25-11.71-11.71V37.26H35.96v27.35h12.78c6.47 0 11.71 5.25 11.71 11.71v83.19c0 6.47-5.24 11.71-11.71 11.71"/><path fill="#33C5F2" d="M375.22 129.45c-.6 0-1.22-.05-1.84-.15-6.39-1.01-10.74-7.01-9.73-13.4l12.44-78.64h-76.28l12.44 78.64c1.01 6.39-3.35 12.39-9.73 13.4-6.43 1.08-12.38-3.35-13.39-9.73l-14.59-92.19c-.54-3.39.44-6.83 2.66-9.43 2.23-2.61 5.48-4.11 8.9-4.11h103.69c3.42 0 6.67 1.5 8.9 4.11 2.22 2.6 3.2 6.05 2.66 9.43l-14.59 92.19c-.9 5.77-5.88 9.88-11.54 9.88"/><path fill="#ED64A3" d="M470.17 346.93c-3.47 0-6.91-1.55-9.22-4.49l-46.2-59.04c-2.5-3.19-3.17-7.45-1.77-11.26l29.37-79.9-29.86-69.91c-2.54-5.94.22-12.82 6.16-15.36 5.95-2.52 12.83.22 15.36 6.17l31.69 74.18c1.18 2.73 1.26 5.82.23 8.63L437.2 274.1l42.18 53.9c3.98 5.1 3.09 12.45-2 16.44a11.65 11.65 0 0 1-7.21 2.49"/><path fill="#9254A2" d="M124.78 390.89c-65.02 0-117.91-52.9-117.91-117.93 0-65.01 52.89-117.91 117.91-117.91s117.91 52.9 117.91 117.91c.01 65.03-52.88 117.93-117.91 117.93m0-212.41c-52.11 0-94.5 42.39-94.5 94.49 0 52.12 42.39 94.5 94.5 94.5s94.5-42.39 94.5-94.5c.01-52.11-42.39-94.49-94.5-94.49"/><path fill="#33C5F2" d="M286.9 391.2c-26.18 0-47.49-21.3-47.49-47.49s21.3-47.49 47.49-47.49 47.49 21.3 47.49 47.49-21.31 47.49-47.49 47.49m0-72.51c-13.8 0-25.02 11.23-25.02 25.02s11.22 25.02 25.02 25.02 25.02-11.23 25.02-25.02-11.22-25.02-25.02-25.02m102.4 72.41c-25.95 0-47.07-21.12-47.07-47.07 0-25.96 21.12-47.08 47.07-47.08s47.07 21.12 47.07 47.08c0 25.95-21.12 47.07-47.07 47.07m0-71.88c-13.68 0-24.81 11.13-24.81 24.81s11.13 24.8 24.81 24.8 24.81-11.12 24.81-24.8-11.13-24.81-24.81-24.81"/><path fill="#F89E53" d="M378.28 239.64c-6.47 0-11.71-5.25-11.71-11.71v-68.42c0-6.47 5.24-11.71 11.71-11.71s11.71 5.25 11.71 11.71v68.42c-.01 6.47-5.25 11.71-11.71 11.71m-40.33 0c-6.47 0-11.71-5.25-11.71-11.71v-68.42c0-6.47 5.24-11.71 11.71-11.71s11.71 5.25 11.71 11.71v68.42c-.01 6.47-5.25 11.71-11.71 11.71m-40.33 0c-6.47 0-11.71-5.25-11.71-11.71v-68.42c0-6.47 5.24-11.71 11.71-11.71s11.71 5.25 11.71 11.71v68.42c-.01 6.47-5.25 11.71-11.71 11.71m91.29 47.69H286.98c-6.47 0-11.71-5.25-11.71-11.71s5.24-11.71 11.71-11.71H388.9c6.47 0 11.71 5.25 11.71 11.71s-5.24 11.71-11.7 11.71"/></svg>