<svg width="37" height="17" viewBox="0 0 37 17" fill="none" xmlns="http://www.w3.org/2000/svg">
<path d="M2.40592 4.12058V5.31326H2.45905C2.56487 5.14729 2.70325 4.97803 2.87419 4.80594C3.04483 4.63386 3.2541 4.47966 3.50156 4.34292C3.74887 4.20692 4.02859 4.09388 4.34087 4.00471C4.6527 3.91583 5.00346 3.87109 5.39211 3.87109C5.99299 3.87109 6.54651 3.98696 7.05311 4.21825C7.55957 4.45014 7.99558 4.76762 8.36084 5.171C8.72581 5.57467 9.00849 6.04948 9.20888 6.59527C9.40913 7.14136 9.50932 7.7289 9.50932 8.3579C9.50932 8.9869 9.41209 9.57743 9.21761 10.1293C9.02344 10.6812 8.74623 11.1619 8.38719 11.5713C8.02769 11.9808 7.59213 12.3077 7.07961 12.5505C6.56708 12.7937 5.98677 12.9154 5.33913 12.9154C4.73825 12.9154 4.18754 12.7907 3.687 12.5417C3.18602 12.2924 2.80048 11.9543 2.52964 11.5266H2.49442V16.939H0.374023V4.12058H2.40592ZM7.35355 8.35775C7.35355 8.02536 7.30338 7.69594 7.20333 7.36951C7.10299 7.04323 6.95292 6.74946 6.75267 6.4882C6.55228 6.22753 6.2992 6.01667 5.99284 5.85622C5.68648 5.69606 5.32729 5.61598 4.91511 5.61598C4.52631 5.61598 4.17866 5.69904 3.8726 5.86531C3.56624 6.03158 3.30398 6.24543 3.08627 6.50609C2.86812 6.76736 2.7034 7.06411 2.59151 7.39651C2.47932 7.7289 2.42368 8.06144 2.42368 8.39354C2.42368 8.72593 2.47932 9.05535 2.59151 9.38148C2.7034 9.70821 2.86812 10.0018 3.08627 10.2631C3.30413 10.5241 3.56624 10.7349 3.8726 10.8948C4.17866 11.0552 4.52631 11.135 4.91511 11.135C5.32729 11.135 5.68648 11.0522 5.99284 10.886C6.29906 10.7197 6.55228 10.5062 6.75267 10.2449C6.95292 9.98393 7.10299 9.68718 7.20333 9.35479C7.30338 9.02239 7.35355 8.69 7.35355 8.35775Z" fill="#ED225D"/>
<path d="M28.022 3.71228V13.1825C28.022 13.6928 27.9807 14.1765 27.8983 14.6334C27.8156 15.0904 27.6599 15.4879 27.43 15.8264C27.2005 16.1649 26.888 16.4345 26.4935 16.6365C26.0986 16.8384 25.5836 16.939 24.9473 16.939C24.7708 16.939 24.594 16.9271 24.4172 16.9035C24.2406 16.8797 24.0993 16.8558 23.9932 16.8321L24.17 15.0161C24.2643 15.0399 24.3642 15.0577 24.4703 15.0696C24.5764 15.0813 24.6704 15.0874 24.753 15.0874C25.0002 15.0874 25.2004 15.0399 25.3537 14.945C25.5066 14.8497 25.6246 14.7192 25.7073 14.5532C25.7894 14.3869 25.8426 14.1941 25.8663 13.9745C25.8896 13.7548 25.9015 13.5207 25.9015 13.2714V3.71228H28.022Z" fill="#ED225D"/>
<path d="M35.2482 6.39932C35.0595 6.14999 34.8005 5.93361 34.4706 5.74959C34.1408 5.56558 33.7816 5.47342 33.3928 5.47342C33.051 5.47342 32.7392 5.54485 32.4565 5.68726C32.1735 5.82937 32.0325 6.06708 32.0325 6.39932C32.0325 6.73157 32.1883 6.96644 32.5005 7.10244C32.8126 7.23903 33.2693 7.37861 33.8701 7.52102C34.188 7.59245 34.5088 7.6873 34.8329 7.80585C35.1571 7.9244 35.4516 8.08173 35.7167 8.27767C35.9814 8.47332 36.1965 8.71684 36.3615 9.00763C36.5262 9.29857 36.6089 9.65154 36.6089 10.067C36.6089 10.5895 36.5116 11.0317 36.3172 11.3934C36.1231 11.7555 35.8638 12.0493 35.5397 12.2748C35.2155 12.5002 34.8387 12.6635 34.4088 12.7643C33.9787 12.8651 33.5344 12.9155 33.0747 12.9155C32.4148 12.9155 31.773 12.7939 31.1486 12.5506C30.5242 12.3077 30.0059 11.9603 29.5938 11.5095L30.9897 10.1918C31.2253 10.5005 31.5314 10.7556 31.9086 10.9573C32.2856 11.1592 32.7035 11.2598 33.1632 11.2598C33.3161 11.2598 33.4722 11.2424 33.6315 11.2066C33.7904 11.1711 33.9376 11.1149 34.0731 11.0376C34.2084 10.9604 34.3173 10.8568 34.4001 10.726C34.4822 10.5952 34.5235 10.4353 34.5235 10.2451C34.5235 9.8888 34.3616 9.63395 34.0379 9.4796C33.7136 9.32526 33.2276 9.17092 32.5801 9.01673C32.2619 8.9453 31.9526 8.85359 31.6521 8.74055C31.3518 8.62781 31.0838 8.47959 30.8482 8.29557C30.6123 8.11155 30.4242 7.88339 30.2828 7.6099C30.1415 7.33701 30.0706 6.9988 30.0706 6.59512C30.0706 6.12031 30.1677 5.71112 30.3623 5.36694C30.5565 5.02232 30.813 4.74108 31.1309 4.52082C31.4488 4.30146 31.8081 4.13817 32.2088 4.03155C32.6091 3.92463 33.0216 3.87109 33.4456 3.87109C34.0579 3.87109 34.6559 3.97801 35.2389 4.19141C35.8219 4.40525 36.2841 4.73198 36.6261 5.17085L35.2482 6.39932Z" fill="#ED225D"/>
<path d="M22.7268 10.8586L23.9897 10.4744L24.2377 11.2433L22.98 11.6755L23.7607 12.7909L23.1026 13.272L22.2807 12.1762L21.4803 13.2431L20.8411 12.7526L21.6218 11.6755L20.3545 11.2147L20.6027 10.4452L21.8753 10.8584V9.53198H22.7269V10.8586H22.7268Z" fill="#ED225D"/>
<path d="M18.3653 6.83533C18.1473 6.34308 17.8442 5.92747 17.4554 5.58911C17.0668 5.2509 16.6102 4.99262 16.0861 4.81472C15.5618 4.63681 14.9933 4.54764 14.381 4.54764C14.1571 4.54764 13.9068 4.55987 13.6301 4.58313C13.3532 4.60729 13.1147 4.6486 12.9145 4.7081L13.0381 1.98392H18.1447V0.0612793H11.0238L10.8117 6.9509C10.9998 6.85621 11.215 6.76718 11.4565 6.68382C11.6979 6.60106 11.9452 6.5268 12.1986 6.46163C12.4518 6.39632 12.7111 6.34606 12.9762 6.31012C13.2413 6.27463 13.4914 6.25689 13.7272 6.25689C14.0686 6.25689 14.4044 6.29536 14.7343 6.37246C15.064 6.4497 15.3615 6.5863 15.6266 6.78195C15.8917 6.9776 16.1064 7.23603 16.2716 7.55634C16.4363 7.87666 16.5189 8.28033 16.5189 8.76707C16.5189 9.14689 16.457 9.48823 16.3333 9.7908C16.2097 10.0931 16.0417 10.3457 15.8299 10.5471C15.6177 10.7492 15.3706 10.9034 15.0876 11.01C14.8049 11.1172 14.5046 11.1705 14.1864 11.1705C13.6212 11.1705 13.1321 11.019 12.7199 10.7164C12.3074 10.4138 12.0132 10.0133 11.8363 9.51462L11.8128 9.52342L10.2783 10.9721C10.5887 11.4821 10.9887 11.9088 11.483 12.2476C12.2014 12.7399 13.0848 12.9865 14.1336 12.9865C14.7578 12.9865 15.3467 12.8854 15.9004 12.6839C16.4539 12.4823 16.937 12.1914 17.3493 11.8113C17.7615 11.4317 18.0884 10.9657 18.3301 10.4138C18.5714 9.86193 18.6921 9.23606 18.6921 8.53548C18.6923 7.89455 18.5833 7.32818 18.3653 6.83533Z" fill="#ED225D"/>
</svg>