<svg xmlns="http://www.w3.org/2000/svg" width="37" height="17" fill="none" viewBox="0 0 37 17"><path fill="#ED225D" d="M2.406 4.12v1.193h.053a3 3 0 0 1 .415-.507q.255-.258.628-.463.37-.205.839-.338a3.8 3.8 0 0 1 1.051-.134 3.95 3.95 0 0 1 2.969 1.3q.547.606.848 1.424.3.82.3 1.763 0 .944-.291 1.771a4.4 4.4 0 0 1-.83 1.442q-.54.615-1.308.98-.77.364-1.74.364-.902 0-1.653-.373-.752-.375-1.157-1.015h-.036v5.412H.374V4.121zm4.948 4.238q0-.5-.15-.988-.151-.49-.451-.882-.3-.39-.76-.632-.46-.24-1.078-.24-.583 0-1.042.25a2.68 2.68 0 0 0-1.281 1.53 3.02 3.02 0 0 0 0 1.985q.167.49.494.882t.787.632 1.042.24q.618 0 1.078-.249.46-.25.76-.641.3-.392.45-.89.15-.5.15-.997m20.669-4.646v9.47q0 .766-.124 1.451a3.1 3.1 0 0 1-.468 1.193q-.345.508-.936.81t-1.547.303q-.264 0-.53-.035a5 5 0 0 1-.424-.072l.177-1.816q.141.036.3.054.159.017.283.017.37 0 .6-.142a.95.95 0 0 0 .354-.392q.123-.25.16-.578.034-.33.034-.704V3.712zM35.248 6.4a2.5 2.5 0 0 0-.777-.65 2.2 2.2 0 0 0-1.078-.277 2.05 2.05 0 0 0-.937.214q-.424.213-.424.712 0 .5.469.703.468.206 1.37.419.476.107.962.285t.884.472.645.73.247 1.059q0 .784-.292 1.326a2.5 2.5 0 0 1-.777.882 3.3 3.3 0 0 1-1.131.49q-.645.15-1.334.15a5.3 5.3 0 0 1-1.926-.364 4.1 4.1 0 0 1-1.555-1.042l1.396-1.317q.352.463.919.765.565.303 1.254.303.23 0 .469-.053a1.6 1.6 0 0 0 .441-.17.9.9 0 0 0 .327-.311.9.9 0 0 0 .123-.48q0-.535-.485-.766-.486-.233-1.458-.463a7 7 0 0 1-.928-.276 3 3 0 0 1-.804-.445 2.05 2.05 0 0 1-.565-.686q-.212-.41-.212-1.015 0-.712.291-1.228a2.5 2.5 0 0 1 .769-.846q.477-.33 1.078-.49.6-.16 1.237-.16.918 0 1.793.32.874.321 1.387.98zm-12.521 4.459 1.263-.385.248.77-1.258.431.78 1.116-.657.481-.822-1.096-.8 1.067-.64-.49.78-1.078-1.266-.46.248-.77 1.272.413V9.532h.852zm-4.362-4.024a3.5 3.5 0 0 0-.91-1.246 4 4 0 0 0-1.369-.774 5.3 5.3 0 0 0-1.705-.267 9 9 0 0 0-.75.035 3.7 3.7 0 0 0-.716.125l.123-2.724h5.107V.06h-7.121l-.212 6.89q.282-.142.645-.267a10 10 0 0 1 .742-.222q.38-.098.777-.152a6 6 0 0 1 .751-.053q.512 0 1.007.115.495.117.893.41.398.294.645.774t.247 1.211q0 .57-.186 1.024a2.15 2.15 0 0 1-.503.756q-.319.303-.742.463a2.5 2.5 0 0 1-.902.16q-.848 0-1.466-.454a2.5 2.5 0 0 1-.884-1.201l-.023.008-1.535 1.45q.464.766 1.205 1.275 1.078.739 2.65.739.938 0 1.767-.303a4.3 4.3 0 0 0 1.45-.873q.617-.57.98-1.397.362-.828.362-1.879 0-.96-.327-1.7"/></svg>