<svg width="39" height="38" viewBox="0 0 39 38" fill="#9253A1" xmlns="http://www.w3.org/2000/svg">
<path d="M0.121094 19C0.121094 8.50659 8.62768 0 19.1211 0C29.6145 0 38.1211 8.50659 38.1211 19C38.1211 29.4934 29.6145 38 19.1211 38C8.62768 38 0.121094 29.4934 0.121094 19Z" />
<path d="M24.6211 19L15.6211 25L15.6211 13L24.6211 19Z" fill="white" stroke="white" stroke-width="1.5" stroke-linecap="round" stroke-linejoin="round"/>
<path d="M19.1211 37C9.17997 37 1.12109 28.9411 1.12109 19H-0.878906C-0.878906 30.0457 8.0754 39 19.1211 39V37ZM37.1211 19C37.1211 28.9411 29.0622 37 19.1211 37V39C30.1668 39 39.1211 30.0457 39.1211 19H37.1211ZM19.1211 1C29.0622 1 37.1211 9.05888 37.1211 19H39.1211C39.1211 7.95431 30.1668 -1 19.1211 -1V1ZM19.1211 -1C8.0754 -1 -0.878906 7.95431 -0.878906 19H1.12109C1.12109 9.05888 9.17997 1 19.1211 1V-1Z"/>
</svg>
