<svg id="Layer_1" data-name="Layer 1" xmlns="http://www.w3.org/2000/svg" viewBox="0 0 150 150"><defs><style>.cls-1,.cls-2{fill:#c5c6c8;stroke:#909395;}.cls-1,.cls-10,.cls-11,.cls-12,.cls-13,.cls-15,.cls-2,.cls-3,.cls-8,.cls-9{stroke-linejoin:round;}.cls-10,.cls-11,.cls-12,.cls-13,.cls-15,.cls-2,.cls-8{stroke-linecap:round;}.cls-3,.cls-5{fill:#70327e;}.cls-10,.cls-11,.cls-12,.cls-3,.cls-9{stroke:#70327e;}.cls-4{fill:#fff;}.cls-11,.cls-12,.cls-13,.cls-15,.cls-6{fill:none;}.cls-6,.cls-8{stroke:#929497;}.cls-6{stroke-miterlimit:10;}.cls-7{fill:#929497;opacity:0.25;}.cls-8{fill:#c5c7c9;}.cls-16,.cls-9{fill:#f063a4;}.cls-10{fill:#2dc5f4;}.cls-11{stroke-width:0.9px;}.cls-13{stroke:#fff;stroke-width:0.36px;}.cls-14{fill:#662d91;}.cls-15{stroke:#662d91;}</style></defs><path class="cls-1" d="M68.94,90.1A6.77,6.77,0,0,1,67.85,90c-8.08-1.26-12.92-12.7-14-16.61a4,4,0,1,1,7.72-2.09c1,3.8,4.55,9.85,7.16,10.72,1.51-1.12,4.07-6.5,5.44-11.52a4,4,0,1,1,7.72,2.1C80.44,78,76.32,90.1,68.94,90.1Z"/><path class="cls-1" d="M120.75,96.59c-3.41,0-6.46-.63-7.73-3.38a4.93,4.93,0,0,1,1-5.49l.08-.09c7-6.86,8-10.56,7.49-11.66-.73-1.63-6.25-3.14-12.56-2.72a4,4,0,0,1-.54-8c2.77-.19,16.73-.71,20.39,7.41,2,4.4.37,9.7-4.93,16.08a4,4,0,0,1-1.11,7.77C122.14,96.57,121.44,96.59,120.75,96.59Z"/><path class="cls-2" d="M126.17,85.83A40,40,0,0,1,120.82,92"/><polygon class="cls-1" points="84.59 116.61 84.59 141.84 74.95 149.49 92.59 149.49 92.59 116.61 84.59 116.61"/><polygon class="cls-1" points="95.89 116.61 95.89 141.84 86.26 149.49 103.89 149.49 103.89 116.61 95.89 116.61"/><polygon class="cls-3" points="66.74 103.62 29.21 103.62 20.3 53.25 57.82 53.25 66.74 103.62"/><polygon class="cls-4" points="64.28 101.35 30.88 101.35 22.68 55.03 56.08 55.03 64.28 101.35"/><path class="cls-5" d="M47.54,58.78h-15a4.43,4.43,0,0,1-4-3.7l-.7-4a.46.46,0,0,1,.43-.59H48.92a.7.7,0,0,1,.64.59l.7,4C50.62,57.12,49.4,58.78,47.54,58.78Z"/><polygon class="cls-6" points="35.73 70.85 29.05 70.85 27.76 63.54 34.44 63.54 35.73 70.85"/><polygon class="cls-6" points="37.94 82.65 31.26 82.65 29.96 75.35 36.64 75.35 37.94 82.65"/><polygon class="cls-6" points="40.14 94.46 33.46 94.46 32.17 87.15 38.85 87.15 40.14 94.46"/><polygon class="cls-7" points="55.46 70.85 39.03 70.85 37.74 63.54 54.16 63.54 55.46 70.85"/><polygon class="cls-7" points="57.66 82.65 41.23 82.65 39.94 75.35 56.37 75.35 57.66 82.65"/><polygon class="cls-7" points="59.87 94.46 43.44 94.46 42.15 87.15 58.57 87.15 59.87 94.46"/><ellipse class="cls-8" cx="59.55" cy="71.29" rx="3.19" ry="2.34" transform="matrix(0.84, -0.55, 0.55, 0.84, -29.37, 44.42)"/><rect class="cls-9" x="75.43" y="20.33" width="37.03" height="37.03" transform="translate(187.89 77.68) rotate(180)"/><path class="cls-9" d="M112.46,82.17v-17h-37v33.2s-.94,31.28,35.8,31.28v-11.3s-12.45-1.1-12.45-20v0h13.68V82.17Z"/><path class="cls-10" d="M84.18,2.25h20.2a11.06,11.06,0,0,1,11.06,11.06v12a0,0,0,0,1,0,0H73.12a0,0,0,0,1,0,0v-12A11.06,11.06,0,0,1,84.18,2.25Z" transform="translate(1.35 -7.26) rotate(4.44)"/><path class="cls-11" d="M93.51,2.16A11.06,11.06,0,0,1,103.69,14l-.93,12"/><line class="cls-12" x1="76.7" y1="24.01" x2="48.9" y2="21.85"/><path class="cls-4" d="M83.15,11.17a.11.11,0,0,1-.11.06h0l-.17,0-.54,2.56-.12,0H82.1l-1.88-.23h-.11l-.11,0,0-2.58-.19,0a.11.11,0,0,1-.09-.08l-.18-.55a.12.12,0,0,1,0-.1.16.16,0,0,1,.11-.05l3.68.39a.09.09,0,0,1,.09.06.12.12,0,0,1,0,.1Z"/><path class="cls-4" d="M81.7,17.82a1,1,0,0,0-.75-.07l-.17.08.31-.56,2.44.21,0,.32c0,.1,0,.21.07.31a.85.85,0,0,0-.25-.17,1,1,0,0,0-1.24.34A1,1,0,0,0,81.7,17.82Z"/><path class="cls-4" d="M77.89,18.73l1.24-1.62h.26l.19,0,.62.05h.3l.17,0h.25l-.6,1-.07.11-.06.1-.27.48a.11.11,0,0,1-.11.06L78,18.91a.09.09,0,0,1-.09-.06A.11.11,0,0,1,77.89,18.73Z"/><path class="cls-4" d="M89.35,11.62l.31-.47a.11.11,0,0,0,0-.11.09.09,0,0,0-.08-.06l-5.47-.7a.08.08,0,0,0-.08,0,.09.09,0,0,0,0,.08L83.86,14v.16l-4.38-.53a.09.09,0,0,0-.11.07l-.59,1.43a.13.13,0,0,0,0,.06L79,16.85a.11.11,0,0,0,.07.09h.44l.18,0,.58,0h.33l.17,0h.42l2.35.2s0-.08,0-.11a.49.49,0,0,1,0-.12v0a.43.43,0,0,1,0-.11h0a.3.3,0,0,1,0-.1,2.49,2.49,0,0,1,.19-.62L83.9,16l0-.07.07-.12a2.83,2.83,0,0,1,4.43-.34l.1.11.09.12ZM81,14.55a.09.09,0,0,1,.1-.09.09.09,0,0,1,.09.11L81,16.39a.11.11,0,0,1-.11.09h0a.12.12,0,0,1-.09-.11Zm.57,0a.11.11,0,0,1,.1-.09h0a.08.08,0,0,1,.08.1l-.2,1.83a.09.09,0,0,1-.1.08h0a.09.09,0,0,1-.08-.11Zm-1.16,1.76a.08.08,0,0,1-.1.08h0a.09.09,0,0,1-.09-.1l.21-1.83a.08.08,0,0,1,.1-.08.09.09,0,0,1,.09.1Zm-.57-.05a.1.1,0,0,1-.1.09h0a.1.1,0,0,1-.09-.11l.2-1.82a.11.11,0,0,1,.11-.09.12.12,0,0,1,.09.11Zm8.49-4.58-.45,2.51A5.79,5.79,0,0,0,86.57,14a4.94,4.94,0,0,0-1.82.19l.06-2.87Z"/><path class="cls-4" d="M83.83,17.76a2.61,2.61,0,0,0,.29.84.75.75,0,0,0,.07.12l.07.12a2.58,2.58,0,0,0,1.91,1.1,2.27,2.27,0,0,0,.58,0A2.57,2.57,0,0,0,88.91,17a2.51,2.51,0,0,0-.34-1,.8.8,0,0,0-.09-.14.94.94,0,0,0-.09-.12,2.56,2.56,0,0,0-4.39.6s0,.09,0,.13a2.5,2.5,0,0,0-.07.26.19.19,0,0,0,0,.07s0,.07,0,.1h0s0,.08,0,.12v0s0,.07,0,.11v.1h0v.16A2.46,2.46,0,0,0,83.83,17.76Zm.73.55-.09-.21a1.72,1.72,0,0,1-.07-.21h.09l.12,0h.11l.61-.09a1,1,0,0,0,.23.37l-.4.54-.16.22a2.25,2.25,0,0,1-.34-.41Zm.78.82.16-.22.4-.53a1.24,1.24,0,0,0,.39.1h0l.1.66,0,.27A2,2,0,0,1,85.34,19.13Zm1.54.22,0-.27-.1-.66a1,1,0,0,0,.37-.22l.54.39.22.17A2.06,2.06,0,0,1,86.88,19.35Zm1.46-2.48h0l-.12,0-.13,0-.66.09a1.07,1.07,0,0,0-.22-.37l.39-.53.17-.22a1.94,1.94,0,0,1,.5.72,1.43,1.43,0,0,1,.08.22S88.34,16.86,88.34,16.87Zm-2.47-1.46,0,.28.09.65a1.1,1.1,0,0,0-.37.23l-.53-.4L84.88,16A2,2,0,0,1,85.87,15.41Zm-1.25.94.22.16.54.4a1.19,1.19,0,0,0-.1.32s0,.07,0,.1h-.06l-.45.06h-.23l-.19,0v-.2s0-.07,0-.11v0s0-.07,0-.11l0-.11A1.82,1.82,0,0,1,84.62,16.35Zm.88,1V17.3a.07.07,0,0,1,0-.05,1.17,1.17,0,0,1,0-.2,1,1,0,0,1,.26-.35,1.16,1.16,0,0,1,.22-.13.7.7,0,0,1,.4-.06h0a1.14,1.14,0,0,1,.25.06.93.93,0,0,1,.19.11.71.71,0,0,1,.15.15.61.61,0,0,1,.13.22.66.66,0,0,1,.06.2.62.62,0,0,1,0,.13v.12a.52.52,0,0,1,0,.11.76.76,0,0,1,0,.11.64.64,0,0,1-.1.18l-.15.16a1,1,0,0,1-.22.13l-.21.06a.74.74,0,0,1-.21,0,.71.71,0,0,1-.25-.06.87.87,0,0,1-.35-.25,1.59,1.59,0,0,1-.13-.22l-.06-.21v-.15Zm1-2a2.27,2.27,0,0,1,.88.28l-.17.22-.39.54a1.09,1.09,0,0,0-.42-.11l-.1-.66,0-.27Zm1.59,3.07-.22-.17-.53-.39a2.25,2.25,0,0,0,.08-.24s0-.07,0-.11v-.08l.15,0,.5-.07h0l.11,0,.12,0h0A2,2,0,0,1,88.12,18.42Z"/><path class="cls-4" d="M83.26,18.65a.32.32,0,0,0-.11-.12.49.49,0,0,0-.17-.06l-.26,0-.24,0h-.22a.78.78,0,0,1,.42-.36.82.82,0,0,1,1,.49v0a.5.5,0,0,1,0,.12s0,.07,0,.11a.91.91,0,0,1-.08.37.79.79,0,0,1-.8.46.8.8,0,0,1-.69-.51h.23l.24,0,.26,0a.36.36,0,0,0,.38-.33.19.19,0,0,0,0-.08A.25.25,0,0,0,83.26,18.65Z"/><path class="cls-4" d="M80.48,18.43a.76.76,0,0,1,0-.11h0a.78.78,0,0,1,.48-.39.81.81,0,0,1,.61.06.78.78,0,0,1,.38.42h-.23l-.24,0-.26,0a.35.35,0,0,0-.3.13.24.24,0,0,0-.06.11.29.29,0,0,0,0,.09.36.36,0,0,0,.33.38l.26,0,.24,0h.22a.79.79,0,0,1-.76.4.9.9,0,0,1-.32-.09.78.78,0,0,1-.39-.48.74.74,0,0,1,0-.39A.26.26,0,0,1,80.48,18.43Z"/><path class="cls-4" d="M81.36,9.45a.11.11,0,0,1-.08.08.44.44,0,0,0-.34.29s0,.07-.09.06h0a.09.09,0,0,1-.09-.07h0a.44.44,0,0,0-.29-.34.1.1,0,0,1-.06-.1.08.08,0,0,1,.07-.08A.47.47,0,0,0,80.83,9a.09.09,0,0,1,.09-.06h0A.08.08,0,0,1,81,9a.46.46,0,0,0,.3.35A.1.1,0,0,1,81.36,9.45Z"/><path class="cls-4" d="M83.1,7.68a.47.47,0,0,0-.35.29.08.08,0,0,1-.09.06A.08.08,0,0,1,82.58,8h0a.44.44,0,0,0-.29-.34.1.1,0,0,1-.06-.1.08.08,0,0,1,.07-.08.44.44,0,0,0,.34-.29.09.09,0,0,1,.1-.06.08.08,0,0,1,.08.07.44.44,0,0,0,.29.34.11.11,0,0,1,.06.1A.08.08,0,0,1,83.1,7.68Z"/><path class="cls-4" d="M81.64,7.94a.19.19,0,0,1,0-.38.19.19,0,1,1,0,.38Z"/><path class="cls-4" d="M80.94,8.43a.12.12,0,0,1-.11-.13A.11.11,0,0,1,81,8.19a.11.11,0,0,1,.11.13A.12.12,0,0,1,80.94,8.43Z"/><path class="cls-4" d="M82.35,8.92a.24.24,0,0,1-.25.22.24.24,0,0,1-.22-.26.23.23,0,0,1,.25-.21A.24.24,0,0,1,82.35,8.92Z"/><line class="cls-12" x1="96.87" y1="1.56" x2="93.4" y2="1.29"/><path class="cls-12" d="M94,65.58S90.79,84.69,83.38,84.69c-5.41,0-6.79-19.11-6.79-19.11"/><circle class="cls-5" cx="83.83" cy="87.39" r="3.01"/><rect class="cls-5" x="80.82" y="87.39" width="2.4" height="6.97"/><path class="cls-13" d="M81.52,87.18a2.1,2.1,0,0,1,2.1-2.09"/><line class="cls-13" x1="81.4" y1="90.92" x2="81.4" y2="93.59"/><ellipse class="cls-14" cx="82.57" cy="35.91" rx="2.99" ry="6.15"/><path class="cls-14" d="M94.71,35.91c0,3.4-1.34,6.15-3,6.15s-3-2.75-3-6.15a10,10,0,0,1,1-4.56c.53-1,1.24.15,2,.15s1.52-1.11,2-.08A10.07,10.07,0,0,1,94.71,35.91Z"/><line class="cls-15" x1="79" y1="30.12" x2="85.46" y2="30.12"/><line class="cls-15" x1="88.36" y1="31.43" x2="94.81" y2="31.43"/><line class="cls-15" x1="83.98" y1="43.37" x2="89.91" y2="44.05"/><ellipse class="cls-4" cx="80.87" cy="34.42" rx="0.84" ry="1.51"/><ellipse class="cls-4" cx="90.24" cy="34.42" rx="0.84" ry="1.51"/><polygon class="cls-16" points="88.01 37.83 95.68 36.67 95.68 41.87 89.06 42.6 88.01 37.83"/><line class="cls-15" x1="88.21" y1="37.29" x2="95.66" y2="37.21"/></svg>