<?xml version="1.0" encoding="utf-8"?>
<svg version="1.1" id="Layer_1" xmlns="http://www.w3.org/2000/svg" xmlns:xlink="http://www.w3.org/1999/xlink" x="0px" y="0px"
	 viewBox="0 0 150 150" style="enable-background:new 0 0 150 150;" xml:space="preserve">
<circle fill="#FFF200" stroke="#FF9F4C" stroke-miterlimit="10" cx="75.2" cy="75.4" r="30.6"/>
<g>
	<g>
		<path fill="#FFF200" stroke="#FF9F4C" stroke-miterlimit="10" d="M93.4,46.8c-0.5,0-1-0.1-1.5-0.4c-1.4-0.8-1.9-2.7-1.1-4.1l5-8.7c0.8-1.4,2.7-1.9,4.1-1.1
			c1.4,0.8,1.9,2.7,1.1,4.1l-5,8.7C95.4,46.2,94.4,46.8,93.4,46.8z"/>
	</g>
	<g>
		<path fill="#FFF200" stroke="#FF9F4C" stroke-miterlimit="10" d="M52.2,118.8c-0.5,0-1-0.1-1.5-0.4c-1.4-0.8-1.9-2.7-1.1-4.1l5-8.7c0.8-1.4,2.7-1.9,4.1-1.1
			c1.4,0.8,1.9,2.7,1.1,4.1l-5,8.7C54.2,118.2,53.2,118.8,52.2,118.8z"/>
	</g>
	<g>
		<path fill="#FFF200" stroke="#FF9F4C" stroke-miterlimit="10" d="M43.6,60.3c-0.5,0-1-0.1-1.5-0.4l-8.7-5c-1.4-0.8-1.9-2.7-1.1-4.1c0.8-1.4,2.7-1.9,4.1-1.1l8.7,5
			c1.4,0.8,1.9,2.7,1.1,4.1C45.6,59.8,44.6,60.3,43.6,60.3z"/>
	</g>
	<g>
		<path fill="#FFF200" stroke="#FF9F4C" stroke-miterlimit="10" d="M115.6,101.5c-0.5,0-1-0.1-1.5-0.4l-8.7-5c-1.4-0.8-1.9-2.7-1.1-4.1c0.8-1.4,2.7-1.9,4.1-1.1l8.7,5
			c1.4,0.8,1.9,2.7,1.1,4.1C117.6,101,116.6,101.5,115.6,101.5z"/>
	</g>
	<g>
		<path fill="#FFF200" stroke="#FF9F4C" stroke-miterlimit="10" d="M65.7,43.2c-1.3,0-2.5-0.9-2.9-2.2l-4.7-17.3c-0.4-1.6,0.5-3.2,2.1-3.7c1.6-0.4,3.2,0.5,3.7,2.1l4.7,17.3
			c0.4,1.6-0.5,3.2-2.1,3.7C66.2,43.2,65.9,43.2,65.7,43.2z"/>
	</g>
	<g>
		<path fill="#FFF200" stroke="#FF9F4C" stroke-miterlimit="10" d="M89.5,130.9c-1.3,0-2.5-0.9-2.9-2.2l-4.7-17.3c-0.4-1.6,0.5-3.2,2.1-3.7c1.6-0.4,3.2,0.5,3.7,2.1l4.7,17.3
			c0.4,1.6-0.5,3.2-2.1,3.7C90.1,130.9,89.8,130.9,89.5,130.9z"/>
	</g>
	<g>
		<path fill="#FFF200" stroke="#FF9F4C" stroke-miterlimit="10" d="M22.8,92.7c-1.3,0-2.5-0.9-2.9-2.2c-0.4-1.6,0.5-3.2,2.1-3.7l17.3-4.7c1.6-0.4,3.2,0.5,3.7,2.1
			s-0.5,3.2-2.1,3.7l-17.3,4.7C23.3,92.7,23,92.7,22.8,92.7z"/>
	</g>
	<g>
		<path fill="#FFF200" stroke="#FF9F4C" stroke-miterlimit="10" d="M110.5,68.9c-1.3,0-2.5-0.9-2.9-2.2c-0.4-1.6,0.5-3.2,2.1-3.7l17.3-4.7c1.6-0.4,3.2,0.5,3.7,2.1
			c0.4,1.6-0.5,3.2-2.1,3.7l-17.3,4.7C111,68.8,110.7,68.9,110.5,68.9z"/>
	</g>
</g>
<g>
	<path fill="none" stroke="#FF9F4C" stroke-width="2.12" stroke-linecap="round" stroke-linejoin="round" stroke-miterlimit="10" d="M60.1,72.5c-1.1-6.7,0.6-12.6,3.7-13.1C67,59,70.4,64,71.5,70.7"/>
	<path fill="none" stroke="#FF9F4C" stroke-width="2.12" stroke-linecap="round" stroke-linejoin="round" stroke-miterlimit="10" d="M85.7,68.5c-1.1-6.7,0.6-12.6,3.7-13.1c3.1-0.5,6.5,4.5,7.6,11.3"/>
	<path fill="#FF9F4C" stroke="#FF9F4C" stroke-width="2.12" stroke-linecap="round" stroke-linejoin="round" stroke-miterlimit="10" d="M93.1,73.9c1.2,7.3-3.8,14.1-11,15.2s-14.1-3.8-15.2-11C71.5,77.4,88.9,74.6,93.1,73.9z"/>
</g>
</svg>
