<svg xmlns="http://www.w3.org/2000/svg" xml:space="preserve" viewBox="0 0 150 150"><circle cx="75.2" cy="75.4" r="30.6" fill="#FFF200" stroke="#FF9F4C" stroke-miterlimit="10"/><path fill="#FFF200" stroke="#FF9F4C" stroke-miterlimit="10" d="M93.4 46.8c-.5 0-1-.1-1.5-.4-1.4-.8-1.9-2.7-1.1-4.1l5-8.7c.8-1.4 2.7-1.9 4.1-1.1s1.9 2.7 1.1 4.1l-5 8.7c-.6.9-1.6 1.5-2.6 1.5zm-41.2 72c-.5 0-1-.1-1.5-.4-1.4-.8-1.9-2.7-1.1-4.1l5-8.7c.8-1.4 2.7-1.9 4.1-1.1s1.9 2.7 1.1 4.1l-5 8.7c-.6.9-1.6 1.5-2.6 1.5zm-8.6-58.5c-.5 0-1-.1-1.5-.4l-8.7-5c-1.4-.8-1.9-2.7-1.1-4.1s2.7-1.9 4.1-1.1l8.7 5c1.4.8 1.9 2.7 1.1 4.1-.6 1-1.6 1.5-2.6 1.5zm72 41.2c-.5 0-1-.1-1.5-.4l-8.7-5c-1.4-.8-1.9-2.7-1.1-4.1s2.7-1.9 4.1-1.1l8.7 5c1.4.8 1.9 2.7 1.1 4.1-.6 1-1.6 1.5-2.6 1.5zM65.7 43.2c-1.3 0-2.5-.9-2.9-2.2l-4.7-17.3c-.4-1.6.5-3.2 2.1-3.7 1.6-.4 3.2.5 3.7 2.1l4.7 17.3c.4 1.6-.5 3.2-2.1 3.7-.3.1-.6.1-.8.1zm23.8 87.7c-1.3 0-2.5-.9-2.9-2.2l-4.7-17.3c-.4-1.6.5-3.2 2.1-3.7 1.6-.4 3.2.5 3.7 2.1l4.7 17.3c.4 1.6-.5 3.2-2.1 3.7-.2.1-.5.1-.8.1zM22.8 92.7c-1.3 0-2.5-.9-2.9-2.2-.4-1.6.5-3.2 2.1-3.7l17.3-4.7c1.6-.4 3.2.5 3.7 2.1s-.5 3.2-2.1 3.7l-17.3 4.7c-.3.1-.6.1-.8.1zm87.7-23.8c-1.3 0-2.5-.9-2.9-2.2-.4-1.6.5-3.2 2.1-3.7l17.3-4.7c1.6-.4 3.2.5 3.7 2.1.4 1.6-.5 3.2-2.1 3.7l-17.3 4.7c-.3 0-.6.1-.8.1z"/><g stroke="#FF9F4C" stroke-linecap="round" stroke-linejoin="round" stroke-miterlimit="10" stroke-width="2.12"><path fill="none" d="M60.1 72.5c-1.1-6.7.6-12.6 3.7-13.1 3.2-.4 6.6 4.6 7.7 11.3m14.2-2.2c-1.1-6.7.6-12.6 3.7-13.1s6.5 4.5 7.6 11.3"/><path fill="#FF9F4C" d="M93.1 73.9c1.2 7.3-3.8 14.1-11 15.2s-14.1-3.8-15.2-11c4.6-.7 22-3.5 26.2-4.2"/></g></svg>