<svg xmlns="http://www.w3.org/2000/svg" xml:space="preserve" viewBox="0 0 1335 18.5"><g fill="#cfcfcf"><path d="M170.5 8H194v10.5h-23.5zm48.3 0h23.5v10.5h-23.5zm48.4 0h23.5v10.5h-23.5zm48.4 0h23.5v10.5h-23.5zm48.3 0h23.5v10.5h-23.5zm48.4 0h23.5v10.5h-23.5zm48.4 0h23.5v10.5h-23.5zM509 8h23.5v10.5H509zm48.4 0h23.5v10.5h-23.5zm48.4 0h23.5v10.5h-23.5zm48.3 0h23.5v10.5h-23.5zm48.4 0H726v10.5h-23.5zm48.4 0h23.5v10.5h-23.5zm48.3 0h23.5v10.5h-23.5zm48.4 0h23.5v10.5h-23.5zm48.3 0h23.5v10.5h-23.5zm48.4 0h23.5v10.5h-23.5zm48.4 0h23.5v10.5h-23.5zm48.3 0h23.5v10.5H1041zm48.4 0h23.5v10.5h-23.5zm48.4 0h23.5v10.5h-23.5zm48.3 0h23.5v10.5h-23.5zm48.4 0h23.5v10.5h-23.5zm48.4 0h23.5v10.5h-23.5zm48.3 0h23.5v10.5h-23.5zm48.4 0h23.5v10.5h-23.5zm48.3 0h23.5v10.5h-23.5zm48.4 0h23.5v10.5h-23.5zm48.4 0h23.5v10.5h-23.5zm-2708.4 0h23.5v10.5h-23.5zm48.3 0h23.5v10.5h-23.5zm48.4 0h23.5v10.5h-23.5zm48.4 0h23.5v10.5h-23.5zm48.3 0h23.5v10.5h-23.5zm48.4 0h23.5v10.5h-23.5zm48.4 0h23.5v10.5h-23.5zm48.3 0h23.5v10.5h-23.5zm48.4 0h23.5v10.5h-23.5zm48.4 0h23.5v10.5h-23.5zm48.3 0h23.5v10.5h-23.5zm48.4 0h23.5v10.5h-23.5zm48.4 0h23.5v10.5h-23.5zm48.3 0h23.5v10.5H-555zm48.4 0h23.5v10.5h-23.5zm48.3 0h23.5v10.5h-23.5zm48.4 0h23.5v10.5h-23.5zm48.4 0h23.5v10.5h-23.5zm48.3 0h23.5v10.5h-23.5zm48.4 0h23.5v10.5h-23.5zm48.4 0h23.5v10.5h-23.5zm48.3 0h23.5v10.5h-23.5zm48.4 0h23.5v10.5h-23.5zm48.4 0h23.5v10.5h-23.5zM-23 8H.5v10.5H-23zm48.4 0h23.5v10.5H25.4zm48.4 0h23.5v10.5H73.8zm48.3 0h23.5v10.5h-23.5z"/><path d="M170.5 8H194v10.5h-23.5z"/></g><path fill="none" stroke="#cfcfcf" stroke-miterlimit="10" stroke-width="6" d="M1511.1 8H-8.6"/></svg>