<?xml version="1.0" encoding="utf-8"?>
<svg version="1.1" xmlns="http://www.w3.org/2000/svg" xmlns:xlink="http://www.w3.org/1999/xlink" x="0px" y="0px"
	 viewBox="0 0 1335 18.5" style="enable-background:new 0 0 1335 18.5;" xml:space="preserve">
<g>
	<g fill="#cfcfcf">
		<rect x="170.5" y="8" width="23.5" height="10.5"/>
		<rect x="218.8" y="8" width="23.5" height="10.5"/>
		<rect x="267.2" y="8" width="23.5" height="10.5"/>
		<rect x="315.6" y="8" width="23.5" height="10.5"/>
		<rect x="363.9" y="8" width="23.5" height="10.5"/>
		<rect x="412.3" y="8" width="23.5" height="10.5"/>
		<rect x="460.7" y="8" width="23.5" height="10.5"/>
		<rect x="509" y="8" width="23.5" height="10.5"/>
		<rect x="557.4" y="8" width="23.5" height="10.5"/>
		<rect x="605.8" y="8" width="23.5" height="10.5"/>
		<rect x="654.1" y="8" width="23.5" height="10.5"/>
		<rect x="702.5" y="8" width="23.5" height="10.5"/>
		<rect x="750.9" y="8" width="23.5" height="10.5"/>
		<rect x="799.2" y="8" width="23.5" height="10.5"/>
		<rect x="847.6" y="8" width="23.5" height="10.5"/>
		<rect x="895.9" y="8" width="23.5" height="10.5"/>
		<rect x="944.3" y="8" width="23.5" height="10.5"/>
		<rect x="992.7" y="8" width="23.5" height="10.5"/>
		<rect x="1041" y="8" width="23.5" height="10.5"/>
		<rect x="1089.4" y="8" width="23.5" height="10.5"/>
		<rect x="1137.8" y="8" width="23.5" height="10.5"/>
		<rect x="1186.1" y="8" width="23.5" height="10.5"/>
		<rect x="1234.5" y="8" width="23.5" height="10.5"/>
		<rect x="1282.9" y="8" width="23.5" height="10.5"/>
		<rect x="1331.2" y="8" width="23.5" height="10.5"/>
		<rect x="1379.6" y="8" width="23.5" height="10.5"/>
		<rect x="1427.9" y="8" width="23.5" height="10.5"/>
		<rect x="1476.3" y="8" width="23.5" height="10.5"/>
		<rect x="1524.7" y="8" width="23.5" height="10.5"/>
	</g>
	<g fill="#cfcfcf">
		<rect x="-1183.7" y="8" width="23.5" height="10.5"/>
		<rect x="-1135.4" y="8" width="23.5" height="10.5"/>
		<rect x="-1087" y="8" width="23.5" height="10.5"/>
		<rect x="-1038.6" y="8" width="23.5" height="10.5"/>
		<rect x="-990.3" y="8" width="23.5" height="10.5"/>
		<rect x="-941.9" y="8" width="23.5" height="10.5"/>
		<rect x="-893.5" y="8" width="23.5" height="10.5"/>
		<rect x="-845.2" y="8" width="23.5" height="10.5"/>
		<rect x="-796.8" y="8" width="23.5" height="10.5"/>
		<rect x="-748.4" y="8" width="23.5" height="10.5"/>
		<rect x="-700.1" y="8" width="23.5" height="10.5"/>
		<rect x="-651.7" y="8" width="23.5" height="10.5"/>
		<rect x="-603.3" y="8" width="23.5" height="10.5"/>
		<rect x="-555" y="8" width="23.5" height="10.5"/>
		<rect x="-506.6" y="8" width="23.5" height="10.5"/>
		<rect x="-458.3" y="8" width="23.5" height="10.5"/>
		<rect x="-409.9" y="8" width="23.5" height="10.5"/>
		<rect x="-361.5" y="8" width="23.5" height="10.5"/>
		<rect x="-313.2" y="8" width="23.5" height="10.5"/>
		<rect x="-264.8" y="8" width="23.5" height="10.5"/>
		<rect x="-216.4" y="8" width="23.5" height="10.5"/>
		<rect x="-168.1" y="8" width="23.5" height="10.5"/>
		<rect x="-119.7" y="8" width="23.5" height="10.5"/>
		<rect x="-71.3" y="8" width="23.5" height="10.5"/>
		<rect x="-23" y="8" width="23.5" height="10.5"/>
		<rect x="25.4" y="8" width="23.5" height="10.5"/>
		<rect x="73.8" y="8" width="23.5" height="10.5"/>
		<rect x="122.1" y="8" width="23.5" height="10.5"/>
		<rect x="170.5" y="8" width="23.5" height="10.5"/>
	</g>
</g>
<line fill="none" stroke="#cfcfcf" stroke-width="6" stroke-miterlimit="10" x1="1511.1" y1="8" x2="-8.6" y2="8"/>
</svg>
