<svg xmlns="http://www.w3.org/2000/svg" width="2681" height="27" fill="none"><path fill="#B337E3" d="M0 0h2681v12H0zm245 12h48v15h-48zm-97 0h48v15h-48zm-97 0h48v15H51zm388 0h48v15h-48zm-97 0h48v15h-48zm873 0h48v15h-48zm-97 0h48v15h-48zm-97 0h48v15h-48zm388 0h48v15h-48zm-97 0h48v15h-48zm-582 0h48v15h-48zm-97 0h48v15h-48zm-97 0h48v15h-48zm388 0h48v15h-48zm-97 0h48v15h-48zm873 0h48v15h-48zm-97 0h48v15h-48zm-97 0h48v15h-48zm388 0h48v15h-48zm-97 0h48v15h-48zm776 0h48v15h-48zm-97 0h48v15h-48zm-291 0h48v15h-48zm-97 0h48v15h-48zm-97 0h48v15h-48zm388 0h48v15h-48zm-97 0h48v15h-48z"/></svg>