<svg version="1.1" xmlns="http://www.w3.org/2000/svg" xmlns:xlink="http://www.w3.org/1999/xlink" x="0" y="0" viewBox="0 0 371.34 150" style="enable-background:new 0 0 371.34 150" xml:space="preserve"><path d="M179.52 106.39c0-4.63-2.31-5.35-2.31-9.91 0-2.53.72-6.58 2.39-6.58-1.66 0-2.39-4.05-2.39-6.58 0-4.14 2.31-5.64 2.31-10.85 0-8.91-5.5-7.74-5.5-7.74l-.14-4.41s10.05-1.81 10.05 12.05c0 4.53-1.87 7.81-1.87 11.39 0 3.43 4.19 3.43 4.19 3.43v4.86s-3.29.42-3.29 4.51c0 4.74 2.47 4.74 2.47 9.31" style="fill:#ff60b2;stroke:#a42963;stroke-linejoin:round;stroke-miterlimit:10"/><path d="M165.4 106.39c0-4.63 2.31-5.35 2.31-9.91 0-2.53-.72-6.58-2.39-6.58 1.66 0 2.39-4.05 2.39-6.58 0-4.14-2.31-5.64-2.31-10.85 0-8.91 5.5-7.74 5.5-7.74l.14-4.41s-10.05-1.81-10.05 12.05c0 4.53 1.87 7.81 1.87 11.39 0 3.43-4.19 3.43-4.19 3.43l1.16 4.81s2.13.47 2.13 4.56c0 4.74-2.47 4.74-2.47 9.31" style="fill:#ff60b2;stroke:#942359;stroke-linejoin:round;stroke-miterlimit:10"/><path d="M177.52 88.25h1.42c.75 0 1.37-.61 1.37-1.37h.94c0 1.27-1.04 2.31-2.31 2.31h-1s-.37-.65-.42-.94zM167.39 88.25h-1.42c-.75 0-1.37-.61-1.37-1.37h-.94c0 1.27 1.04 2.31 2.31 2.31h1c.01 0 .38-.65.42-.94z" style="opacity:.1"/><path d="M180.44 83.11s2.34-3.21 4.34-4.11c.85-.38 1.84-.26 1.84 1.25" style="fill:none;stroke:#942359;stroke-linecap:round;stroke-linejoin:round;stroke-miterlimit:10"/><path d="M173.37 90.38c0 1.41 0 3.35-1.16 3.35s-1.16-1.93-1.16-3.35" style="fill:none;stroke:#942359;stroke-linecap:round;stroke-miterlimit:10"/><path d="M180.52 87.92h-5.45c-1.02 0-1.84-.82-1.84-1.84v-7.56c0-1.02.82-1.84 1.84-1.84h5.45c1.02 0 1.84.82 1.84 1.84v7.56a1.848 1.848 0 0 1-1.84 1.84z" style="fill:#fff;stroke:#942359;stroke-linejoin:round;stroke-miterlimit:10"/><ellipse cx="176.6" cy="82.51" rx="1.92" ry="4.08" style="fill:#942359"/><ellipse cx="176.08" cy="82.76" rx=".76" ry="1.21" style="fill:#fff"/><path d="M168.98 87.92h-5.45c-1.02 0-1.84-.82-1.84-1.84v-7.56c0-1.02.82-1.84 1.84-1.84h5.45c1.02 0 1.84.82 1.84 1.84v7.56a1.848 1.848 0 0 1-1.84 1.84z" style="fill:#fff;stroke:#942359;stroke-linejoin:round;stroke-miterlimit:10"/><ellipse cx="164.8" cy="82.51" rx="1.92" ry="4.08" style="fill:#942359"/><ellipse cx="164.28" cy="82.76" rx=".76" ry="1.21" style="fill:#fff"/><path d="M170.81 82.55s1-.89 2.42 0" style="fill:none;stroke:#942359;stroke-linejoin:round;stroke-miterlimit:10"/><path d="M213.77 101.12c-4.07-12.41-1.99-20.72-1.9-21.06l2.73.71-1.37-.36 1.37.35c-.02.08-1.95 7.91 1.85 19.47l-2.68.89z" style="fill:#cdced0;stroke:#686869;stroke-linejoin:round;stroke-miterlimit:10"/><path d="M211.06 82.95s1.11 1.15 3.44 1.39c.01-.33.09-1.2.15-1.49l-3.36-1.31s-.15.37-.23 1.41z" style="opacity:.1"/><path d="M219.44 101.12c-4.07-12.41-1.99-20.72-1.9-21.06l2.73.71-1.37-.36 1.37.35c-.02.08-1.95 7.91 1.85 19.47l-2.68.89z" style="fill:#cdced0;stroke:#686869;stroke-linejoin:round;stroke-miterlimit:10"/><path d="M216.63 84.39s2.68-.15 3.62-.97c0 0 .11-1.1.15-1.29l-3.68 1.01s-.06.58-.09 1.25z" style="opacity:.1"/><ellipse cx="216.02" cy="71.9" rx="9.7" ry="11.13" style="fill:#c669ea;stroke:#70327e;stroke-linejoin:round;stroke-miterlimit:10"/><ellipse cx="216.38" cy="72.26" rx="1.46" ry="4.17" style="fill:#70327e"/><ellipse cx="216" cy="73.23" rx=".55" ry="1.21" style="fill:#fff"/><path d="M209.15 67.02s-.03-1.43 1-1.61M218.13 67.02s.03-1.43-1-1.61" style="fill:none;stroke:#70327e;stroke-linecap:round;stroke-linejoin:round;stroke-miterlimit:10"/><ellipse cx="210.6" cy="72.26" rx="1.46" ry="4.17" style="fill:#70327e"/><ellipse cx="210.17" cy="73.23" rx=".55" ry="1.21" style="fill:#fff"/><defs><path id="SVGID_1_" d="M216.71 101.87h-12.12c0-4-2.67-7.25-5.95-7.25s-5.95 3.25-5.95 7.25h-12.12c0-12.14 8.11-22.02 18.07-22.02s18.07 9.88 18.07 22.02z"/></defs><clipPath id="SVGID_00000070076961592607648180000017105852381366775173_"><use xlink:href="#SVGID_1_" style="overflow:visible"/></clipPath><g style="clip-path:url(#SVGID_00000070076961592607648180000017105852381366775173_)"><path d="M182.59 102.28c0-10.78 7.2-19.55 16.05-19.55s16.05 8.77 16.05 19.55" style="fill:none;stroke:#2ac5f4;stroke-width:6.1228;stroke-linejoin:round;stroke-miterlimit:10"/></g><g style="clip-path:url(#SVGID_00000070076961592607648180000017105852381366775173_)"><path d="M186.63 101.86c0-8.07 5.39-14.63 12.01-14.63s12.01 6.56 12.01 14.63" style="fill:none;stroke:#ff60b2;stroke-width:6.1228;stroke-linejoin:round;stroke-miterlimit:10"/></g><g style="clip-path:url(#SVGID_00000070076961592607648180000017105852381366775173_)"><path d="M190.67 101.86c0-5.35 3.58-9.71 7.97-9.71 4.4 0 7.97 4.36 7.97 9.71" style="fill:none;stroke:#fff200;stroke-width:6.1228;stroke-linejoin:round;stroke-miterlimit:10"/></g><path d="M216.71 101.87h-12.12c0-4-2.67-7.25-5.95-7.25s-5.95 3.25-5.95 7.25h-12.12c0-12.14 8.11-22.02 18.07-22.02s18.07 9.88 18.07 22.02z" style="fill:none;stroke:#70327e;stroke-linejoin:round;stroke-miterlimit:10"/><path d="M199.73 90.9s-.17 2.08-1.48 2.08c-1.32 0-1.48-2.08-1.48-2.08" style="fill:none;stroke:#70327e;stroke-linecap:round;stroke-linejoin:round;stroke-miterlimit:10"/><path style="fill:#f6eb25" d="m197.05 93.87-1.74.81.88 1.81 2.74-.63.24-1.56z"/><path d="M195.33 89.61c-.59-5.21-3.31-5.16-3.88.01-.79 1.1-.61-2.49-.41-2.88.31-1.9 2.56-3.07 4-1.45.99 1.25.99 2.89.76 4.34-.04.27-.46.24-.47-.02z" style="fill:#70327e"/><path d="M190.5 84.57s-.06-1.23 1.14-1.38" style="fill:none;stroke:#70327e;stroke-linecap:round;stroke-linejoin:round;stroke-miterlimit:10"/><path d="M200.72 89.63c-.22-1.45-.23-3.09.76-4.34 1.43-1.62 3.68-.46 4 1.45.21.39.36 4.03-.41 2.87-.58-5.19-3.3-5.18-3.88 0-.02.27-.43.28-.47.02z" style="fill:#70327e"/><path d="M206.02 84.57s.06-1.23-1.14-1.38" style="fill:none;stroke:#70327e;stroke-linecap:round;stroke-linejoin:round;stroke-miterlimit:10"/><path d="M160.14 85.5c-.9-4.65-1.77-8.5-2.61-11.69 1.24-1.53 3.04-3.73 4.32-5.17l-1.45-4.07c-1.19 1.34-2.92 3.45-4.11 4.91-2.94-9.26-5.51-10.64-7.72-10.41-.94.1-2.32.55-3.5 2.14-1.73 2.33-2.67 6.58-2.81 12.63-.1 4.27.24 9.12.93 13.31-3.99 5.8-5.33 7.96-5.39 8.05l4.39.03c.05-.07-.59.94 2.02-3.02 3.35 14.51 9.08 22.86 15.33 22.21.19-.02.38-.05.57-.08.63-.12 1.53-.48 2.23-1.53 2.25-3.38.93-12.52-1.75-25.2-.2-.88-.36-1.6-.45-2.11zm-12.22-21.56c.37-.5 1.55-.67 1.96 0 .76 1.26 2 3.83 3.52 9.16-2.48 3.18-4.87 6.45-7.05 9.51-.83-7.66-.5-15.88 1.57-18.67zm11.3 46.73c-.02 0-.04 0-.05.01-3.76.39-9.02-7.14-12-22.6-.01-.07-.03-.14-.04-.21 2.18-3.17 4.72-6.74 7.45-10.3.59 2.45 1.22 5.31 1.87 8.65.1.52.26 1.26.45 2.17.66 3.14 1.77 8.4 2.38 13.17.86 6.91.15 8.73-.06 9.11z" style="fill:#fff200;stroke:#a1511a;stroke-linejoin:round;stroke-miterlimit:10"/><path d="M145.34 96.73c-.39.12-.43.17-.74.24-.3.07-.59.12-.89.18-.59.1-1.17.19-1.75.25-1.16.14-2.31.19-3.46.21-2.3.03-4.57-.15-6.81-.46l-1.68-.27c-.56-.09-1.11-.22-1.66-.33-1.11-.21-2.19-.51-3.28-.79-1.09-.28-2.15-.65-3.22-.98-1.06-.37-2.1-.76-3.15-1.14a1.1 1.1 0 0 1 .68-2.09l.06.02c1.04.31 2.07.63 3.1.92 1.05.25 2.08.55 3.14.75 1.05.2 2.1.43 3.16.57.53.07 1.06.17 1.59.22l1.59.16c2.12.17 4.24.21 6.34.06 1.04-.08 2.08-.19 3.1-.37.51-.08 1.01-.19 1.5-.31.24-.06.49-.12.72-.19.22-.06.63-.2.63-.2.38.72.77 2.76 1.03 3.55z" style="fill:#cdced0;stroke:#686869;stroke-linejoin:round;stroke-miterlimit:10"/><path d="M143.47 93.05s-.03 2.34.54 4.39c.42-.09.88-.17 1.08-.26.01-.08.01-3.8-.93-4.33-.19.05-.44.13-.69.2z" style="opacity:.1"/><path d="M144.19 92.23c3.35 14.51 9.08 22.86 15.33 22.21" style="fill:none;stroke:#a1511a;stroke-linecap:round;stroke-linejoin:round;stroke-miterlimit:10"/><ellipse transform="rotate(-18.084 150.254 90.244)" cx="150.27" cy="90.25" rx="1.47" ry="3.49" style="fill:#a1511a"/><ellipse transform="rotate(-18.084 149.377 89.38)" cx="149.39" cy="89.38" rx=".5" ry="1" style="fill:#fff"/><ellipse transform="rotate(-18.084 153.512 88.607)" cx="153.53" cy="88.61" rx="1.47" ry="3.49" style="fill:#a1511a"/><ellipse transform="rotate(-18.084 152.634 87.742)" cx="152.65" cy="87.74" rx=".5" ry="1" style="fill:#fff"/><path d="m234.62 72.7-.66 3.94s-3.65-.95-4.23-.95c-.04.5-2.61 8.51-.58 23.07-3.49.29-6.02.25-6.02.25s-2.98-14.57.51-28.03c.18-.68.86-1.11 1.54-.94 2.87.7 9.44 2.66 9.44 2.66zM240.49 74.02l-.66 4.03s1.78.58 2.03.66c-.12.62-1.62 6.6-1.54 19.84 1.04 0 3.57.08 3.57.08s-1.08-8.13 2.28-22.49c-.78-.51-3.48-1.58-5.68-2.12z" style="fill:#2ac5f4;stroke:#0b6a88;stroke-linejoin:round;stroke-miterlimit:10"/><ellipse transform="rotate(-86.744 233.158 84.292)" cx="233.15" cy="84.3" rx="3.92" ry="1.55" style="fill:#0b6a88"/><ellipse transform="rotate(-1.043 233.93 83.102)" cx="233.7" cy="83.02" rx=".57" ry="1.24" style="fill:#fff"/><ellipse transform="rotate(-86.744 237.973 84.795)" cx="237.97" cy="84.8" rx="3.92" ry="1.55" style="fill:#0b6a88"/><ellipse transform="rotate(-1.043 238.75 83.601)" cx="238.52" cy="83.52" rx=".57" ry="1.24" style="fill:#fff"/><path d="M235.7 91.89c-4.41 2.24-5.32-4.56-5.32-4.56s-.49 6.87 1.94 7.75c.44.16 1.27-.43 1.42-2.64" style="fill:#0b6a88;stroke:#0b6a88;stroke-linecap:round;stroke-linejoin:round;stroke-miterlimit:10"/><path style="fill:#5fd3f7" d="m241.61 130.26-.34 4.36 16.45.14-1.07-4.37z"/><path d="m241.27 134.62-88.21.2-4.77-30.01-2.95.07-.4-4.16s49.54-3.69 101.9-3.29c0 2.01-.6 4.43-.6 4.43h-2.82l-2.15 32.76z" style="fill:#5fd3f7"/><path d="M243.35 104.11s-39.23-1.59-94.59 2.53c-.8-1.33-.44-1.82-.44-1.82s49.6-3.9 95.03-2.92c-.08.97 0 2.21 0 2.21zM153.3 134.91l-.01-1.2c.61-.01 61.1-.7 106.2-.18l-.01 1.2c-45.1-.52-105.58.18-106.18.18z" style="fill:#2ac5f4"/><path d="M158.93 135.1c-.14-1.17-.11-2.39.12-3.61 1.21-6.28 7.28-10.38 13.55-9.18 4.6.89 8.04 4.39 9.07 8.67.38 1.56-20.08 3.35-22.74 4.12zM204.01 135.1c-.14-1.17-.11-2.39.12-3.61 1.21-6.28 7.28-10.38 13.55-9.18 4.6.89 8.04 4.39 9.07 8.67.38 1.56-20.08 3.35-22.74 4.12z" style="fill:#2ac5f4"/><path d="M148.23 104.87c.4 2.82 4.82 29.97 4.82 29.97h88.13l2.37-32.94" style="fill:none;stroke:#0a566e;stroke-linecap:round;stroke-linejoin:round;stroke-miterlimit:10"/><path d="m145.45 104.87-.67-4.17c57.4-3.47 102.23-3.3 102.23-3.3l-.86 4.44c0 .01-44.8-1.06-100.7 3.03zM241.84 130.48c7.17 0 13 .03 16.67.03l-.84 4.33h-16.5" style="fill:none;stroke:#0a566e;stroke-linecap:round;stroke-linejoin:round;stroke-miterlimit:10"/><path d="M216.38 147.87c-1.01-.2-2.01-.52-2.95-.97-2.94-1.4-5.16-3.86-6.25-6.94-1.09-3.07-.92-6.38.48-9.33 2.39-5.02 7.87-7.79 13.32-6.74 1.01.2 2.01.52 2.95.97 2.94 1.4 5.16 3.86 6.25 6.94 1.09 3.07.92 6.38-.48 9.33-2.4 5.02-7.87 7.79-13.32 6.74z" style="fill:#fff"/><defs><circle id="SVGID_00000017484358945726475420000003324905642483123628_" cx="218.68" cy="135.88" r="13.81"/></defs><clipPath id="SVGID_00000004541916042460609060000012096825146137909182_"><use xlink:href="#SVGID_00000017484358945726475420000003324905642483123628_" style="overflow:visible"/></clipPath><g style="clip-path:url(#SVGID_00000004541916042460609060000012096825146137909182_)"><path style="fill:none;stroke:#0a566e;stroke-linecap:round;stroke-linejoin:round;stroke-miterlimit:10" d="m228.22 115.83-19.09 40.1M198.63 126.34l40.09 19.09M211.25 114.96l14.85 41.85M197.75 143.31l41.85-14.85"/></g><circle cx="218.68" cy="135.88" r="3.4" style="fill:#5fd3f7;stroke:#0a566e;stroke-linecap:round;stroke-linejoin:round;stroke-miterlimit:10"/><path d="M220.67 125.47h0c.88.17 1.74.45 2.56.84 2.56 1.22 4.48 3.36 5.43 6.02.95 2.67.8 5.54-.42 8.1-2.08 4.36-6.83 6.77-11.56 5.86-.88-.17-1.74-.45-2.56-.84-2.56-1.22-4.48-3.36-5.43-6.02s-.8-5.54.42-8.1c2.07-4.36 6.83-6.77 11.56-5.86m.61-3.15c-6.03-1.16-12.31 1.83-15.07 7.63-3.28 6.88-.35 15.12 6.53 18.4 1.09.52 2.21.88 3.33 1.1 6.03 1.16 12.31-1.83 15.07-7.63 3.28-6.88.35-15.12-6.53-18.4-1.08-.52-2.2-.88-3.33-1.1h0z" style="fill:#2ac5f4;stroke:#0a566e;stroke-linecap:round;stroke-linejoin:round;stroke-miterlimit:10"/><path d="M168.05 146.66c-5.66-2.99-8.04-9.92-5.42-15.77 2.75-6.14 9.98-8.9 16.12-6.15.25.11.49.23.73.36 5.66 2.99 8.04 9.92 5.42 15.77-2.75 6.14-9.98 8.9-16.12 6.15a9.88 9.88 0 0 1-.73-.36z" style="fill:#fff"/><defs><circle id="SVGID_00000046307656563827621940000010768318311088700857_" cx="173.77" cy="135.88" r="13.81"/></defs><clipPath id="SVGID_00000124841268843303788220000009574419520811840439_"><use xlink:href="#SVGID_00000046307656563827621940000010768318311088700857_" style="overflow:visible"/></clipPath><g style="clip-path:url(#SVGID_00000124841268843303788220000009574419520811840439_)"><path style="fill:none;stroke:#0a566e;stroke-linecap:round;stroke-linejoin:round;stroke-miterlimit:10" d="m182.84 115.62-18.15 40.53M153.5 126.81l40.53 18.15M165.85 115.14l15.83 41.49M153.02 143.79l41.49-15.82"/></g><circle cx="173.77" cy="135.88" r="3.4" style="fill:#5fd3f7;stroke:#0a566e;stroke-linecap:round;stroke-linejoin:round;stroke-miterlimit:10"/><path d="M178.73 126.52c4.91 2.6 6.98 8.61 4.71 13.69a10.545 10.545 0 0 1-5.9 5.57c-2.64 1.01-5.52.93-8.11-.23-.21-.1-.43-.2-.63-.31-4.91-2.6-6.98-8.61-4.71-13.69 1.16-2.58 3.25-4.56 5.9-5.57 2.64-1.01 5.52-.93 8.11.23.21.1.43.2.63.31h0zm1.5-2.84c-.27-.14-.54-.28-.82-.4-6.96-3.12-15.13 0-18.24 6.96-2.99 6.68-.24 14.47 6.14 17.84.27.14.54.28.82.4 6.96 3.12 15.13 0 18.24-6.96 2.99-6.67.24-14.47-6.14-17.84h0z" style="fill:#2ac5f4;stroke:#0a566e;stroke-linecap:round;stroke-linejoin:round;stroke-miterlimit:10"/><path d="M186.02 98.25s-.82 2.13.01 3.03c.51.56 1.53.49 1.67.1.15-.39.25-3.46-1.68-3.13z" style="opacity:.1"/><path d="M188.4 96.56c-.74-.01-1.99.42-2.19 2.44-.09.86.15 2.42 1.23 2.37.8-.03 1.58-.92 1.94-2.6.06-.27.39-2.19-.98-2.21z" style="fill:#cdced0;stroke:#686869;stroke-linejoin:round;stroke-miterlimit:10"/><path d="M204.81 97.67s-.32 2.38.64 3.13c.59.46 1.53.15 1.58-.28.05-.44-.49-3.63-2.22-2.85z" style="opacity:.1"/><path d="M206.28 95.95c.74.01 1.97.48 2.11 2.51.06.86-.23 2.41-1.31 2.33-.8-.06-1.54-.97-1.85-2.66-.05-.27-.31-2.2 1.05-2.18z" style="fill:#cdced0;stroke:#686869;stroke-linejoin:round;stroke-miterlimit:10"/><path d="M195.06 98.03s-.31 4.85 1.27 9.88c.15.47-.51-.08-.51-.08s-2.34-6.31-1.45-9.8c.27-.02.69 0 .69 0z" style="opacity:.1"/><path d="m195.84 108.44-2.51 4.87c-.1.19-.39.13-.41-.08l-.15-1.84" style="opacity:.1;stroke:#000;stroke-width:.2355;stroke-linecap:round;stroke-linejoin:round;stroke-miterlimit:10"/><path d="M198.46 98.07c-1.75-3.59-3.49-3.9-4.73-3.8-1.25.1-2.26 1.02-2.69 2.46-1.09 3.63.28 8.53 1.16 11.06l-.67 5.6 4.45-5.31c-.76-1.76-2.49-6.88-1.74-10.06" style="fill:#cdced0;stroke:#686869;stroke-linejoin:round;stroke-miterlimit:10"/><path d="M195.02 96.45s.42.56.63 1.6c0 0-1.11-.03-1.12-.06-.01-.03.26-1.54.49-1.54z" style="opacity:.1"/><path d="M194.23 101.88s-.6-3.22.51-5.2" style="fill:none;stroke:#686869;stroke-linecap:round;stroke-linejoin:round;stroke-miterlimit:10"/><path d="m201.43 108.44-2.51 4.87c-.1.19-.39.13-.41-.08l-.15-1.84" style="opacity:.1;stroke:#000;stroke-width:.2355;stroke-linecap:round;stroke-linejoin:round;stroke-miterlimit:10"/><path d="M200.73 97.86s-.28 4.78 1.3 9.92c.15.48-.51-.08-.51-.08s-2.42-6.14-1.53-9.71c.27-.02.74-.13.74-.13z" style="opacity:.1"/><path d="M204.14 97.88c-1.77-3.58-3.51-3.89-4.75-3.78-1.25.11-2.25 1.03-2.68 2.47-1.07 3.63.33 8.53 1.22 11.05l-.64 5.6 4.42-5.33c-.77-1.76-2.53-6.87-1.79-10.05" style="fill:#cdced0;stroke:#686869;stroke-linejoin:round;stroke-miterlimit:10"/><path d="M200.7 96.29s.42.56.63 1.6c0 0-1.14.1-1.15.07-.01-.03.29-1.67.52-1.67z" style="opacity:.1"/><path d="M199.93 101.71s-.61-3.21.48-5.21" style="fill:none;stroke:#686869;stroke-linecap:round;stroke-linejoin:round;stroke-miterlimit:10"/><path d="M204.64 97.57s-3.77.15-4.17.16c-.03.11-.05.18-.13.67.35.14 1.48-.02 2.45-.1.49-.04 1.8.27 1.85-.73z" style="fill:#0a566e"/><path d="M165.23 101.6c.5.05 1.7-.42 2.45-1.88.2-.4-.77-.14-.84.03-.07.16-1.61 1.85-1.61 1.85z" style="opacity:.1"/><path d="M169.17 99.19s-.81-3.02-3.31-2.53c-1.76.35-3.85 4.88-1.5 4.83 1.41-.03 2.57-2.27 2.7-2.37" style="fill:#cdced0;stroke:#686869;stroke-linecap:round;stroke-linejoin:round;stroke-miterlimit:10"/><path d="M170.03 98.87s-2.68.06-2.74.07c-.01.07-.09.74-.09.74l2.71.05.12-.86z" style="fill:#0a566e"/><path d="M167.74 98.25s.24.22.39.8c0 0-.34.58-.44.62-.1-.01-.29-.01-.41 0-.1-.01.13-.52.09-.62-.02-.1.19-.77.37-.8z" style="opacity:.1"/><path d="M166.69 99.66s.69-1 .78-1.18" style="fill:#cdced0;stroke:#686869;stroke-linecap:round;stroke-linejoin:round;stroke-miterlimit:10"/><path d="M149.88 100.96s1.01.58 2.01.17c.37-.15.94-.51.79-.74-.15-.23-.36-.13-.82.01-.45.14-1.76.58-1.98.56z" style="opacity:.1"/><path d="M155.81 99.98s-1.75-3.89-5.45-2.14c-1.42.67-2.54 3.13-.11 3.04.55-.02 1.63-.26 2.26-.89" style="fill:#cdced0;stroke:#686869;stroke-linejoin:round;stroke-miterlimit:10"/><path style="fill:#0a566e" d="m156.31 99.55-3.34.18-.5.65 3.89-.14z"/><path d="M227.93 97.16s.09 4.03 3.24 3.74c.82-.07-2.02-3.94-3.24-3.74zM242.92 97.16s.09 4.03 3.24 3.74c.81-.07-2.03-3.94-3.24-3.74z" style="opacity:.1"/><path d="M223.24 97.64s.7-2.94 4.99-2.92c1.47.01 3.46 1.93 3.49 4.09.01 1.04-.26 1.89-1.65 1.9-1.27.01-3.21-.86-3.72-3.35" style="fill:#cdced0;stroke:#686869;stroke-miterlimit:10"/><path d="M222.56 97.16s3.01-.05 3.6-.03c-.01.28.01.71.01.71l-3.54.05-.07-.73z" style="fill:#0a566e"/><path d="M226.21 96.43s-.72.06-1.19.69c-.11.14 1.13 1.13 1.21 1s.12-1.52-.02-1.69z" style="opacity:.1"/><path d="M226.82 98.66s-.42-.66-.57-1.88" style="fill:none;stroke:#686869;stroke-linecap:round;stroke-linejoin:round;stroke-miterlimit:10"/><path d="M240.15 97.42s.73-2.94 5.02-2.86c1.47.03 3.44 1.98 3.44 4.13 0 1.04-.28 1.89-1.67 1.88-1.27 0-3.19-.89-3.68-3.4" style="fill:#cdced0;stroke:#686869;stroke-miterlimit:10"/><path d="M239.6 96.93s2.89-.05 3.48-.02l-.03.8-3.53-.01.08-.77z" style="fill:#0a566e"/><path d="M243.11 96.25s-.87.1-1 .66c-.04.15 1.1 1.95 1.07.3-.01-.23-.07-.96-.07-.96z" style="opacity:.1"/><path d="M243.71 98.49s-.41-.67-.54-1.88" style="fill:none;stroke:#686869;stroke-linecap:round;stroke-linejoin:round;stroke-miterlimit:10"/><path d="M172.72 101.32c.5.05 1.7-.42 2.45-1.88.2-.4-.77-.14-.84.03s-1.61 1.85-1.61 1.85z" style="opacity:.1"/><path d="M176.67 98.91s-.81-3.02-3.31-2.53c-1.76.35-3.85 4.88-1.5 4.83 1.41-.03 2.57-2.27 2.7-2.37" style="fill:#cdced0;stroke:#686869;stroke-linecap:round;stroke-linejoin:round;stroke-miterlimit:10"/><path d="M177.25 98.55s-2.44.11-2.5.12c-.01.07.06.61.06.61l2.49.24-.05-.97z" style="fill:#0a566e"/><path d="M175.23 97.97s.23.06.39.65c0 0-.3.57-.42.7-.34-.09-.53.08-.32-.55.03-.11.18-.77.35-.8z" style="opacity:.1"/><path d="M174.18 99.38s.69-1 .78-1.18" style="fill:#cdced0;stroke:#686869;stroke-linecap:round;stroke-linejoin:round;stroke-miterlimit:10"/><path d="M153.25 98.83s.5.54.48 1.05c-.01.22-.88.16-.83-.01.04-.17.41-.66.35-1.04z" style="opacity:.1"/><path d="M151.7 100.52s.79-.12 1.32-1.43" style="fill:#cdced0;stroke:#686869;stroke-linecap:round;stroke-linejoin:round;stroke-miterlimit:10"/><path d="m297.94 99.77-8.39 1.62a.638.638 0 0 1-.75-.51l-1.62-8.39c-.07-.35.16-.68.51-.75l8.39-1.62c.35-.07.68.16.75.51l1.62 8.39a.65.65 0 0 1-.51.75z" style="fill:#ff88c5;stroke:#70327e;stroke-linejoin:round;stroke-miterlimit:10"/><path d="M346.38 67.07c.17-.9.31-2.3.33-2.52.59-8.05-1.25-16.69-5.35-25.03-5.41-11.03-14.11-20.28-24.51-26.05-10.45-5.8-23.3-8.43-37.19-7.58a86.44 86.44 0 0 0-16.3 2.56 88.172 88.172 0 0 0-23.2 9.6c-.16.09-3.16 1.88-3.53 2.11" style="fill:none;stroke:#ff4e15;stroke-width:5.7722;stroke-linejoin:round;stroke-miterlimit:10"/><path d="M240.63 24.22c.33-.21 2.9-1.73 3.18-1.91.27-.17.54-.32.81-.48a79.46 79.46 0 0 1 20.07-8.36c2.97-.79 5.98-1.4 9.02-1.84 1.89-.27 3.78-.48 5.68-.62 12.43-.89 24.06 1.28 33.67 6.28 9.6 4.99 17.7 13.19 23.04 22.95 3.69 6.74 5.91 13.76 6.12 20.63.03 1 .01 2.21-.03 3.46-.01.32-.12 1.6-.26 2.47" style="fill:none;stroke:#ff9f4c;stroke-width:5.7722;stroke-linejoin:round;stroke-miterlimit:10"/><path d="M244.51 28.54c.29-.18 2.42-1.46 2.83-1.72.24-.15.48-.29.72-.44 5.57-3.39 11.59-5.96 17.82-7.7 2.64-.74 5.32-1.33 8.02-1.77 1.68-.27 3.37-.49 5.06-.64 10.98-.97 21.38.7 30.16 4.88 8.83 4.18 16.38 11.29 21.63 19.78 3.91 6.32 6.49 13.02 6.84 19.76.04.81.05 2.06.06 3.37 0 .43-.07 1.59-.19 2.42" style="fill:none;stroke:#fff200;stroke-width:5.7722;stroke-linejoin:round;stroke-miterlimit:10"/><path d="M248.39 32.89c.24-.16 1.94-1.19 2.48-1.54.21-.14.42-.27.63-.4 4.86-3.07 10.12-5.42 15.57-7.05a66.522 66.522 0 0 1 11.47-2.35c9.52-1.05 18.71.13 26.66 3.48 8.05 3.37 15.11 9.37 20.23 16.61 4.17 5.9 7.04 12.29 7.56 18.89.05.62.11 1.9.14 3.29.01.54-.03 1.57-.11 2.37" style="fill:none;stroke:#2ac5f4;stroke-width:5.7722;stroke-linejoin:round;stroke-miterlimit:10"/><path d="M252.27 37.21c.2-.14 1.46-.91 2.13-1.35.18-.12.36-.24.54-.35 4.15-2.75 8.66-4.87 13.31-6.39 1.99-.65 4.01-1.19 6.04-1.62 1.27-.27 2.54-.5 3.82-.68 8.07-1.13 16.03-.44 23.16 2.08 7.27 2.56 13.87 7.41 18.82 13.45 4.46 5.44 7.55 11.55 8.28 18.02.05.43.16 1.74.23 3.2.03.64.02 1.55-.04 2.32" style="fill:none;stroke:#ff60b2;stroke-width:5.7722;stroke-linejoin:round;stroke-miterlimit:10"/><path d="M256.09 41.69c.19-.14 1.33-.84 2.22-1.48 4.92-3.5 10.46-5.87 16.09-7.31 7.62-1.94 15.53-2.02 22.86-.06 6.5 1.74 12.69 5.37 17.43 10.24 4.8 4.93 7.91 10.83 9.04 17.13.07.37.44 3.15.36 5.38" style="fill:none;stroke:#b337e3;stroke-width:5.7722;stroke-linejoin:round;stroke-miterlimit:10"/><circle cx="277.76" cy="21.24" r=".31" style="fill:#fff"/><circle cx="290.43" cy="20.23" r=".31" style="fill:#fff"/><circle cx="283.4" cy="11.54" r=".5" style="fill:#fff"/><circle cx="286.17" cy="26.11" r=".5" style="fill:#fff"/><circle cx="289.53" cy="7.08" r=".5" style="fill:#fff"/><circle cx="277.69" cy="6.71" r=".5" style="fill:#fff"/><path style="fill:none;stroke:#fff;stroke-width:.4497;stroke-linecap:round;stroke-miterlimit:10" d="m278.86 31.54.29-.51M278.16 32.8l.29-.52M278.29 31.71l-.26-.15M279.28 32.26l-.26-.14"/><path d="M257.71 43.89c11.6-9.37 28.92-12.29 42.44-7.13 14.18 5.42 18.78 17.11 20.24 21.24M249.9 9.48c23.73-9.71 51.4-9.95 71.94 3.29 23.81 15.35 26.83 39.7 27.61 45.47" style="fill:none;stroke:#2ac5f4;stroke-linecap:round;stroke-linejoin:round;stroke-miterlimit:10"/><circle cx="323.75" cy="55.96" r=".31" style="fill:#fff"/><circle cx="344.19" cy="50.77" r=".31" style="fill:#fff"/><circle cx="332.76" cy="53.99" r=".31" style="fill:#fff"/><circle cx="311.31" cy="35.28" r=".31" style="fill:#fff"/><circle cx="335.37" cy="44.81" r=".31" style="fill:#fff"/><circle cx="340.45" cy="35.78" r=".31" style="fill:#fff"/><circle cx="324.22" cy="27.11" r=".31" style="fill:#fff"/><circle cx="327.64" cy="20.33" r=".31" style="fill:#fff"/><circle cx="336.63" cy="29.27" r=".31" style="fill:#fff"/><circle cx="318.69" cy="43.91" r=".31" style="fill:#fff"/><circle cx="311.91" cy="27.19" r=".5" style="fill:#fff"/><circle cx="326.17" cy="49.88" r=".5" style="fill:#fff"/><circle cx="310.4" cy="39.93" r=".5" style="fill:#fff"/><circle cx="333.63" cy="48.25" r=".5" style="fill:#fff"/><circle cx="310.52" cy="10.65" r=".5" style="fill:#fff"/><circle cx="333.99" cy="34.88" r=".5" style="fill:#fff"/><circle cx="340.98" cy="55.21" r=".5" style="fill:#fff"/><circle cx="316.34" cy="22.64" r=".5" style="fill:#fff"/><circle cx="322.09" cy="18.49" r=".5" style="fill:#fff"/><circle cx="344.19" cy="45.22" r=".5" style="fill:#fff"/><circle cx="331.69" cy="26.11" r=".5" style="fill:#fff"/><circle cx="248.21" cy="27.51" r=".31" style="fill:#fff"/><circle cx="247.73" cy="32.14" r=".5" style="fill:#fff"/><circle cx="257.47" cy="27.04" r=".5" style="fill:#fff"/><circle cx="321.02" cy="33.27" r=".5" style="fill:#fff"/><path style="fill:none;stroke:#fff;stroke-width:.4497;stroke-linecap:round;stroke-miterlimit:10" d="m329.24 38.22.38-.45M328.31 39.31l.38-.45M328.65 38.27l-.23-.19M329.52 39.01l-.23-.2"/><circle cx="265.81" cy="24.3" r=".5" style="fill:#fff"/><circle cx="273.49" cy="25.65" r=".5" style="fill:#fff"/><path style="fill:none;stroke:#fff;stroke-width:.4497;stroke-linecap:round;stroke-miterlimit:10" d="m270.95 19.09.38-.45M270.02 20.18l.38-.44M270.36 19.14l-.23-.19M271.22 19.88l-.22-.19M316.89 14.37l.27.53M316.23 13.1l.27.52M317.07 13.8l.26-.13M316.05 14.33l.27-.14"/><circle cx="296.87" cy="22.95" r=".5" style="fill:#fff"/><circle cx="303.73" cy="35.21" r=".5" style="fill:#fff"/><circle cx="302.05" cy="26.95" r=".5" style="fill:#fff"/><path style="fill:none;stroke:#fff;stroke-width:.4497;stroke-linecap:round;stroke-miterlimit:10" d="M297.8 31.35h.59M296.37 31.35h.59M297.38 30.93v-.3M297.38 32.07v-.3"/><circle cx="271.06" cy="34.07" r=".31" style="fill:#fff"/><circle cx="302.56" cy="8.91" r=".31" style="fill:#fff"/><circle cx="253.17" cy="13.67" r=".31" style="fill:#fff"/><circle cx="247.52" cy="9.39" r=".5" style="fill:#fff"/><circle cx="309.22" cy="15.66" r=".5" style="fill:#fff"/><circle cx="251.37" cy="16.41" r=".5" style="fill:#fff"/><circle cx="261.74" cy="17.23" r=".5" style="fill:#fff"/><circle cx="296.28" cy="17.29" r=".5" style="fill:#fff"/><circle cx="272.18" cy="13.61" r=".5" style="fill:#fff"/><circle cx="265.08" cy="8.45" r=".31" style="fill:#fff"/><path style="fill:none;stroke:#fff;stroke-width:.4497;stroke-linecap:round;stroke-miterlimit:10" d="m305.21 19.85.29-.51M304.52 21.1l.28-.51M304.64 20.02l-.26-.15M305.64 20.57l-.26-.14M245.28 15.81l.37.46M244.39 14.68l.36.47M245.35 15.21l.23-.18M244.45 15.92l.24-.18"/><path d="M262.34 38.98s-.68-4.02-4.75-5.47l.06-.27a5.175 5.175 0 0 0-.02-6.88c-.29-.33-.62-.6-.97-.83l.06-.08c2.16-5.04.73-10.88-3.42-14.2-3.52-2.82-8.42-3.35-12.57-1.43l-.11.09c-.87-.88-1.91-1.71-3.16-2.43-.62-.36-7.13-3.94-13.87-.63-5.04 2.47-8.8 8.08-8.1 14.02.54 4.59 3.53 7.53 4.56 8.46l.28-.14a7.16 7.16 0 0 0-2.21 4.14c-.23 1.42-.01 2.82.54 4.06l-.17-.05c-3.76 3.4-5.2 8.6-3.67 13.21 2.36 7.13 10.29 8.28 10.96 8.36 4.43.56 10.38-1.1 13.11-5.78l.22.17c.19.16 3.08 2.12 6.09 1.2 2.48-.77 3.59-2.5 3.72-2.84 2.84.62 5.24.08 7.84-1.33 4.26-2.3 5.97-6.43 5.58-11.35z" style="fill:#fff"/><path d="M240.31 44.91s1.61 3.33-.04 8.78c-.09.3-.8-.19-.8-.19l-.36-.33s1.71-2.98 1.2-8.26zM223.92 41.82l-3.56-1.98-1.78-2.47-.91 1.07c0 .01 2.32 3.18 6.25 3.38zM240.73 9.84l1.94 2.47 2.26 4.82s.39-4.17-2.67-7.7c-.45-.5-1.53.41-1.53.41zM250.86 25.42l2.83-.79 2.92.82.43-1.18s-4.39-1.6-6.18 1.15zM256.49 34.7s1.59-.03 1.97-.6c.07-.11-.76-.46-.76-.46s-.39.56-1.21 1.06zM220.23 29.24l2.39-1.69 3.39-.61s-4.09-1.12-6.54 1.29c-.33.34.54.81.76 1.01z" style="fill:#e5e5e5"/><path d="M256.75 25.43c2.16-5.03.72-10.87-3.41-14.18-3.52-2.81-8.4-3.35-12.55-1.43M226.26 27.25c-3.85-.48-7.43 2.21-8.04 6.04-.61 3.82 1.95 7.49 5.75 8.24" style="fill:none;stroke:gray;stroke-linecap:round;stroke-linejoin:round;stroke-miterlimit:10"/><path d="M218.59 37.3c-3.75 3.39-5.19 8.59-3.67 13.19 2.35 7.12 10.27 8.26 10.95 8.35 4.6.59 10.75-1.09 13.31-6.21 2.05-4.1.74-8.27.37-9.33M239.11 53.24c.24.2 2.72 2.15 5.97 1.29 2.84-.75 4.1-3.09 4.46-3.92M244.75 16.99c-.28-1.07-1.83-6.41-7.21-9.5-.62-.36-7.11-3.93-13.85-.63-5.03 2.46-8.78 8.06-8.08 14 .54 4.58 3.52 7.52 4.55 8.45M251.1 25.56c2.44-1.48 5.61-.7 7.09 1.73s.7 5.61-1.73 7.09" style="fill:none;stroke:gray;stroke-linecap:round;stroke-linejoin:round;stroke-miterlimit:10"/><path d="m244.84 34.86 4.4 21.65 21.9-3.1s-1.63-5.95-5.11-24.71c-1.76.13-20.1 5.7-21.19 6.16z" style="fill:#f16164;stroke:#701616;stroke-linejoin:round;stroke-miterlimit:10"/><ellipse transform="rotate(-14.187 255.643 41.453)" cx="255.69" cy="41.46" rx="1.42" ry="4.15" style="fill:#701616"/><path style="fill:none;stroke:#701616;stroke-linecap:round;stroke-linejoin:round;stroke-miterlimit:10" d="m254.67 37.57-.34-1.35M254.15 38.71l-1.21-.68M255.76 38.17l.81-1.13"/><ellipse transform="rotate(-14.187 249.814 42.777)" cx="249.86" cy="42.78" rx="1.42" ry="4.15" style="fill:#701616"/><path style="fill:none;stroke:#701616;stroke-linecap:round;stroke-linejoin:round;stroke-miterlimit:10" d="m248.84 38.9-.34-1.35M248.32 40.03l-1.21-.68M249.93 39.5l.81-1.13M256.33 48.45s-4.14-1.47-3.5 1.09"/><path d="M263.17 42.85s.29 5.58 2.9 10.85c.55-.06 3.27-.38 3.27-.38s-5.43-8.43-6.17-10.47z" style="opacity:.1"/><path d="M268.42 53.52c-1.34-1.51-3.37-5.08-4.84-10.36-.28-1 .31-2.04 1.31-2.32 1-.28 2.04.31 2.32 1.31 1.05 3.75 3.07 8.18 4.42 8.79.3.14 1.77-.2 2.25.07.34.19.66 1 .33 2.13" style="fill:#cdced0;stroke:#686869;stroke-linecap:round;stroke-linejoin:round;stroke-miterlimit:10"/><path d="M273.08 50.9s-1.92.06-3.09.48M291.29 52.77s-2.47-1.42-3.4-2.14c-.05-3.65-.76-8.18-1.09-10.48l-1.86.28c.31 2.14 1.3 8.38 1.08 12.39l5.27-.05z" style="fill:#cdced0;stroke:#686869;stroke-linecap:round;stroke-linejoin:round;stroke-miterlimit:10"/><path d="m285.56 50.51 3.3 2s-3.32.1-3.32.06c.03-.9.02-2.06.02-2.06zM284.91 43.57s2.97 2.54 3.24 3.21c.07.17-.02-.19-.02-.19l-.12-1.41-1.4-2.21-2.08-1.84c-.01-.01.19.95.38 2.44z" style="opacity:.1"/><path d="M287.63 52.82s-2.45-1.47-3.37-2.2c.02-3.65-.6-8.19-.71-9.33l-1.87.25c.08.97.95 7.22.67 11.24l5.28.04z" style="fill:#cdced0;stroke:#686869;stroke-linecap:round;stroke-linejoin:round;stroke-miterlimit:10"/><path d="M281.59 45.58s.18 1.02.17 1.21c.15-.15 2.34-2.34 2.58-2.88-.02-.26-.2-1.93-.24-2.08-.03-.15-2.72 2.69-2.51 3.75z" style="opacity:.1"/><path d="m288.92 46.2 1.99-.98s-.42-3.02-2.58-8.94c.73-.69 3.65-3.89 5.05-9.66-.47-.61-1.73-1.88-1.73-1.88s-1.46 3.42-4.46 5.22c-.08-1.06-2.18-8.35-3.22-10.39-.66.18-1.92.56-2.26.71 0 .42.33 8.42-.43 10.28-.79-.22-2.85-.53-5.69-4.01-.48.49-1.11 1.07-1.55 1.48.14.68 1.57 3.87 5.57 8.7.08 1.94-.19 4.61-1.66 9.35 1.11.78 1.58 1.1 1.92 1.29.38-.27 4.18-6.02 4.6-6.93.88.93 3.67 4.26 4.45 5.76z" style="fill:#fff200;stroke:#06566e;stroke-linecap:round;stroke-linejoin:round;stroke-miterlimit:10"/><ellipse transform="rotate(-6.975 283.277 33.755)" cx="283.35" cy="33.81" rx="1.06" ry="2.52" style="fill:#0a566e"/><ellipse transform="rotate(-6.975 283.44 33.137)" cx="283.52" cy="33.19" rx=".5" ry=".85" style="fill:#fff"/><ellipse transform="rotate(-6.975 286.205 33.434)" cx="286.28" cy="33.49" rx="1.06" ry="2.52" style="fill:#0a566e"/><ellipse transform="rotate(-6.975 286.369 32.816)" cx="286.45" cy="32.87" rx=".5" ry=".85" style="fill:#fff"/><path d="M285.65 37.84s-2.97 1.77-4.25-1.51M278.04 37s-2.88 1.53-3.15 1.7M289.87 36.83l2.96 1.15M287.94 27.21l.78-3.14M279.95 27.8l-1.7-3.25" style="fill:none;stroke:#0a566e;stroke-linecap:round;stroke-linejoin:round;stroke-miterlimit:10"/><path style="fill:#5fd3f7" d="m292.76 43.93 1.01 9.33 4.76.47 1.21-5.64-3.22.94 2.95-3.35.27-4.03z"/><path d="m256.11 55.07 13.63-1.61 9.8-.54 12.89-.13 10.67.87 1.81 39.54 5.37-.34-.13-7.05.34-.94 1.14-.47 4.16-.13 1.28.87.34 1.07-.13 6.51 6.51-.27-3.29-29.67-.74.2-1.61-4.7 17.52-.47 16.65.94-1.01 4.16-.81.13L347.14 93l2.95.2 2.22 15.1-2.22 15.37 16.51 24.77-25.44-.2-7.18-13.22-.27 7.59-28.93.07-.13-7.79-7.72.07-39.74-9.6-7.92-64.24-3.29-4.09 10.13-1.96zm-1.48 6.31s3.83 34.17 3.96 36.05c10.14-1.14 41.55-.74 41.55-.74l-1.68-37.53c-23.29-2-43.83 2.22-43.83 2.22z" style="fill:#5fd3f7"/><path style="fill:#2ac5f4" d="m327.48 62.73-.51-4.87-8.83.2 1.94 4.71z"/><path style="fill:#2ac5f4" d="m330.99 92.49-2.3-29.86-8.17.25 3.23 29.53zM311.63 84.33l.09 8.35-1.47.1-.12-7.26 1.08-1.2zM292.49 43.71l1.3 8.99 1.29-.03-.13-3.79.53-1.01.26-5.15zM245.93 56.9l3.54 4.53 8.15 65.19 1.15-6.58-7.52-60.01-3-3.53zM309.25 92.99s-3.21 18.24.76 30.45c-1.3.06-3.72-.01-3.72-.01L305 93.24l4.25-.25zM319.55 134.59l-14.82.44.12 1.6s-.11 2.94-.16 3.03c-.8 1.4 13.24 3.75 12.37.27a6.532 6.532 0 0 0-2.49-3.68c2.84-.05 6.09-.04 9.47.06-2.14 1.5-3.25 4.21-2.58 6.89.87 3.48 12.54-3.3 12.29-3.76-.26-.49-.02-2.51.22-2.48.31-1.2.11-1.99.11-1.99l-14.53-.38z"/><path style="fill:#5fd3f7" d="m333.28 123.14-.92 11.64 1.84-.03.85-11.38z"/><path style="fill:#2ac5f4" d="m298.3 58.75 1.24.1 2.06 38.28-1.62-.03zM334.76 125.35s-23.28-.56-36.56.5c-.96-1.06-1.11-1.79-1.11-1.79s27.38-1.25 37.72-.67c0 .84-.05 1.96-.05 1.96z"/><path d="M308.7 123.37s27.86-.88 40.91.17c.53-.66.85-1.82.85-1.82s-18.15-1.13-41.79-.06M257.19 125.28c-.19-6.53 3.24-12.71 9.25-15.48 4.31-1.99 9.1-1.82 13.24.05 3.72 1.68-22.43 17.79-22.49 15.43z" style="fill:#2ac5f4"/><path d="m266.38 97.04-4.08.2c1.47-1.25.7-3.07.61-3.43-.47.34-1.13.63-2.29.15 1.25-2.13 1.1-4.26.99-5.24 0 0 2.3-.5 2.54-.72" style="fill:#ff9f4c;stroke:#000;stroke-linecap:round;stroke-linejoin:round;stroke-miterlimit:10"/><path style="fill:none;stroke:#0a566e;stroke-linecap:round;stroke-linejoin:round;stroke-miterlimit:10" d="m304.73 134.85.14 6.1h28.79l1.36-17.24"/><path d="M269.57 136.34c32.51-2.33 64.57-1.49 64.57-1.49l6.99 13.31c9.16-.23 25.35-.01 25.35-.01L350 123.56M305.18 93.17c21.08-1.39 44.82 0 44.82 0l2.23 15.19-2.23 15.19c-27.85-.93-43.83 0-43.83 0" style="fill:none;stroke:#0a566e;stroke-linecap:round;stroke-linejoin:round;stroke-miterlimit:10"/><path d="M257.5 126.84s23.23-2.53 48.67-3.29c-.09-5.15-3.06-69.98-3.06-69.98s-22.1-3.29-57.34 3.28c1.05 1.41 3.47 4.4 3.47 4.4l8.26 65.59zM310.16 92.77l-.05-6.9c.08-.9 1.01-1.55 2.07-1.46h3.47c1.06.1 1.77.89 1.76 1.78l-.09 6.36" style="fill:none;stroke:#0a566e;stroke-linecap:round;stroke-linejoin:round;stroke-miterlimit:10"/><path style="fill:none;stroke:#0a566e;stroke-width:.8026;stroke-linecap:round;stroke-linejoin:round;stroke-miterlimit:10" d="m293.71 52.37-1.07-8.65 7.07-2.22-.41 4.31-3.14 3.36 3.72-1.23-1.21 4.8"/><circle cx="310.76" cy="143.05" r="6.72" style="fill:#fff;stroke:#000;stroke-linecap:round;stroke-linejoin:round;stroke-miterlimit:10"/><defs><circle id="SVGID_00000114759390898092101010000008663246816314452891_" cx="310.76" cy="143.05" r="6.72"/></defs><clipPath id="SVGID_00000150081196633589992650000018023024772152376505_"><use xlink:href="#SVGID_00000114759390898092101010000008663246816314452891_" style="overflow:visible"/></clipPath><g style="clip-path:url(#SVGID_00000150081196633589992650000018023024772152376505_)"><path style="fill:none;stroke:#0a566e;stroke-linecap:round;stroke-linejoin:round;stroke-miterlimit:10" d="m299.96 142.77 21.6.57M310.48 153.85l.57-21.59M302.93 150.49l15.67-14.87M318.2 150.89l-14.87-15.67"/></g><use xlink:href="#SVGID_00000114759390898092101010000008663246816314452891_" style="overflow:visible;fill:none;stroke:#0a566e;stroke-miterlimit:10"/><circle cx="327.58" cy="143.05" r="6.72" style="fill:#fff;stroke:#000;stroke-linecap:round;stroke-linejoin:round;stroke-miterlimit:10"/><defs><circle id="SVGID_00000140707945960220472650000000085771152238697601_" cx="327.58" cy="143.05" r="6.72"/></defs><clipPath id="SVGID_00000088837894875871396320000007289173577701378204_"><use xlink:href="#SVGID_00000140707945960220472650000000085771152238697601_" style="overflow:visible"/></clipPath><g style="clip-path:url(#SVGID_00000088837894875871396320000007289173577701378204_)"><path style="fill:none;stroke:#0a566e;stroke-linecap:round;stroke-linejoin:round;stroke-miterlimit:10" d="m320.99 134.49 13.17 17.12M319.02 149.64l17.12-13.17M316.87 141.66l21.42 2.79M326.18 153.76l2.79-21.42"/></g><use xlink:href="#SVGID_00000140707945960220472650000000085771152238697601_" style="overflow:visible;fill:none;stroke:#0a566e;stroke-miterlimit:10"/><path d="M258.51 97.45c-.61-3.75-3.9-36.2-3.9-36.2s20.91-3.74 43.8-2.11c.16 5.14 1.7 37.67 1.7 37.67-19.89-.45-21.77-.43-41.6.64zM319.84 62.88l-1.75-4.66s19.82-.93 34.29.43c-.23.66-.41 1.34-1.32 4.31 0 0-18.7-1.02-31.22-.08zM323.72 92.55l-3.24-29.62M347.15 92.77l3.27-29.84" style="fill:none;stroke:#0a566e;stroke-linecap:round;stroke-linejoin:round;stroke-miterlimit:10"/><path d="M280.57 147.46c-8.91 1.55-17.68-3.48-20.86-11.96-3.65-9.73 1.3-20.62 11.04-24.26 1.11-.41 2.25-.73 3.4-.93 8.91-1.55 17.68 3.48 20.86 11.96 3.65 9.73-1.3 20.62-11.04 24.26-1.1.41-2.24.73-3.4.93z" style="fill:#fff"/><defs><circle id="SVGID_00000000939309655284748980000010679795945058452651_" cx="277.36" cy="128.88" r="20.85"/></defs><clipPath id="SVGID_00000070828921113757069530000015272698251209290928_"><use xlink:href="#SVGID_00000000939309655284748980000010679795945058452651_" style="overflow:visible"/></clipPath><g style="clip-path:url(#SVGID_00000070828921113757069530000015272698251209290928_)"><path style="fill:none;stroke:#0a566e;stroke-linecap:round;stroke-linejoin:round;stroke-miterlimit:10" d="m265.59 97.48 23.54 62.8M245.96 140.65l62.81-23.54M246.83 114.99l61.06 27.77M263.48 159.41l27.77-61.06"/></g><circle cx="277.36" cy="128.88" r="5.13" style="fill:#5fd3f7;stroke:#0a566e;stroke-linecap:round;stroke-linejoin:round;stroke-miterlimit:10"/><path d="M274.49 112.28c7.96-1.39 15.8 3.11 18.64 10.69 3.26 8.7-1.16 18.42-9.86 21.68-.99.37-2.01.65-3.04.83-7.96 1.39-15.8-3.11-18.64-10.69a16.73 16.73 0 0 1 .44-12.88c1.86-4.1 5.21-7.22 9.42-8.8.99-.37 2.01-.65 3.04-.83h0m-.69-3.95c-1.26.22-2.52.56-3.76 1.02-10.79 4.04-16.25 16.06-12.21 26.85 3.58 9.54 13.4 14.92 23.09 13.23 1.26-.22 2.52-.56 3.76-1.02 10.79-4.04 16.25-16.06 12.21-26.85-3.58-9.54-13.4-14.92-23.09-13.23h0z" style="fill:#2ac5f4;stroke:#0a566e;stroke-linecap:round;stroke-linejoin:round;stroke-miterlimit:10"/><path style="fill:none;stroke:#0a566e;stroke-width:1.884;stroke-linecap:round;stroke-miterlimit:10" d="M325.4 116v-15.28M332.37 116v-15.28M339.33 116v-15.28M346.3 116v-15.28M357.81 143.88l-7.96-13.04M352.09 143.88l-7.96-13.04M346.38 143.88l-7.96-13.04"/><path d="M328.14 145.5c-.26.06-.53.08-.81.05-5.97-.75-12.22-.5-16.42-.17a2.208 2.208 0 0 1-.36-4.4c4.4-.35 10.98-.6 17.32.19 1.21.15 2.07 1.25 1.92 2.46a2.19 2.19 0 0 1-1.65 1.87z" style="fill:#5fd3f7;stroke:#0a566e;stroke-miterlimit:10"/><path d="M328.14 145.5c-.26.06-.53.08-.81.05-5.97-.75-12.22-.5-16.42-.17a2.208 2.208 0 0 1-.36-4.4c4.4-.35 10.98-.6 17.32.19 1.21.15 2.07 1.25 1.92 2.46a2.19 2.19 0 0 1-1.65 1.87z" style="fill:none;stroke:#0a566e;stroke-linecap:round;stroke-linejoin:round;stroke-miterlimit:10"/><path d="m83.49 119.57-3.76.24c.01.13.72 11.75-2.08 18.92-2.14-1.49-5.36-4.47-10.03-10.36 0 0-5 1.14-8.96 7.94 1.2-.27 4.69-2.35 8.59-2.46 4.1 4.8 7.6 7.91 10.42 9.26.26.13.54.18.81.18.67 0 1.31-.35 1.65-.97 4.28-7.76 3.4-22.14 3.36-22.75z" style="fill:#cdced0;stroke:#686869;stroke-linejoin:round;stroke-miterlimit:10"/><path d="M79.45 122.04s2.47.13 4.47-.09c-.01-.44-.03-1.37-.05-1.68-.59.02-4.47.25-4.47.25s.05 1.21.05 1.52z" style="opacity:.1"/><path d="M128.66 124.95c-.78-.26-5.57 4.15-7.21 5.69-9.98-12.92-26.32-15.76-27.09-15.88l-.61 3.72c.19.03 18.82 4.48 28.6 18.86 4.96-8.35 6.79-12.23 6.31-12.39z" style="fill:#cdced0;stroke:#686869;stroke-linejoin:round;stroke-miterlimit:10"/><path d="M96.58 119.68s3.98-1.47 6.12-2.87c-.14-.05-1.26-.48-1.54-.56-.28-.08-6.78 2.73-6.78 2.73s1.16.31 2.2.7z" style="opacity:.1"/><path d="M94.3 99.41c.37-.5.7-.9 1.06-1.33.35-.42.71-.83 1.08-1.23.73-.8 1.49-1.57 2.27-2.32 1.57-1.49 3.24-2.86 5.01-4.09 1.76-1.25 3.66-2.31 5.62-3.22l1.49-.64c.51-.19 1.02-.36 1.53-.53l.77-.26.79-.2 1.57-.39a.976.976 0 0 1 .55 1.87l-.09.03-1.43.47-.71.23-.69.3c-.46.2-.92.39-1.38.59l-1.33.7c-1.75.97-3.43 2.07-4.97 3.35a41.51 41.51 0 0 0-4.36 4.13c-.67.75-1.32 1.5-1.94 2.29-.31.39-.61.79-.9 1.19-.28.39-.58.82-.81 1.18l-.02.03c-.56.88-1.72 1.14-2.6.59a1.892 1.892 0 0 1-.59-2.6c.03-.07.06-.11.08-.14z" style="fill:#cdced0;stroke:#686869;stroke-linejoin:round;stroke-miterlimit:10"/><path d="M97.59 95.13s2.06 2.82 2.26 3.69c-.13.16-.44.55-.53.66-.06.08-2.38-3.65-2.32-3.73.09-.11.49-.51.59-.62z" style="opacity:.1"/><path d="M74.51 76.05c4.2 1.47 19.27 8.49 30.7 36.34.17.4.05.87-.29 1.14-2.77 2.28-15.37 10.43-39.37 5.15 1.22-1.86 14.11-15.73 8.1-41.86a.66.66 0 0 1 .86-.77z" style="fill:#ff9f4c;stroke:#593314;stroke-linejoin:round;stroke-miterlimit:10"/><path d="M63.58 118.92c-.06.5-.75 4.87-5.07 4.43l-1.12 5.04s1.45-.63 2.39-2.21c2.24-.18 4.09-1.31 5.3-3.28 1.05-1.71 1.29-3.44 1.31-3.64l-2.81-.34zM57.85 116.22c-.23.45-2.37 4.32-6.28 2.43L48.79 123s1.58-.1 3-1.26c2.16.59 4.29.16 6.1-1.27 1.57-1.24 2.39-2.8 2.47-2.97l-2.51-1.28z" style="fill:#cdced0;stroke:#686869;stroke-linejoin:round;stroke-miterlimit:10"/><path d="M70.72 122.33c-5.77-2.48-11.55-4.93-17.35-7.34 1.14-2.57 1.67-3.85 2.64-6.42 5.98 2.41 11.93 4.86 17.88 7.35-1.18 2.56-1.82 3.85-3.17 6.41zM74.72 114.06c-5.99-2.49-12.01-4.93-18.03-7.35.92-2.56 1.33-3.84 2.07-6.39 6.2 2.41 12.39 4.85 18.56 7.32-.95 2.57-1.47 3.85-2.6 6.42z" style="fill:#ff9f4c;stroke:#701616;stroke-linejoin:round;stroke-miterlimit:10"/><ellipse transform="rotate(-76.367 138.619 85.542)" cx="138.62" cy="85.54" rx=".43" ry=".25" style="fill:#fff"/><path d="M265.85 96.44s1.81 8.13 4.06 8.47c2.25.34 2.57-.64 2.59-.82.02-.18-6.29-7.69-6.65-7.65z" style="opacity:.1"/><path d="M263.12 79.64s-.03-1.52-5.05-3.02c0 0 3.59-4.52 8.8-2" style="fill:#ff9f4c;stroke:#000;stroke-linejoin:round;stroke-miterlimit:10"/><path style="fill:#fff" d="m266.83 98.51-1.7-5.48-1.2-4.83-2.03.62-1.86-.77-1.3-2.98.44-3.65 2.06-1.84 2.38.01.67-1.41.89-.78 4.96-3.26-.22-1.48 5.13-2.75 2.02-.8 1.17-.1 1.2 2.49 6.05-1.35 4.14-.41 1.46.99.9 3.29-.29 4.12-1.05 2.38-2.37 2.88-1.48 1.55-1.62.58.38 1.61-.77 1.61-1.94.98-3.44.65.67 2.11 1.28-.2.42 4.37-.76.28-1.75 2.53-2.96 3.09-2.83 1.68-1.8.23-2.14-1.23-1.95-3.23z"/><path d="M269.98 75.25s1.71 3.6 2.44 4.51c.25.31 1.18 1.02 2.04 1.05 1.18.03 1.84-.33 1.84-.33l-1.81-.34-1.96-1.71-2.08-3.79-.47.61z" style="fill:#e5e5e5"/><path style="fill:#e5e5e5" d="m266.47 80.03 4.94-4.45-.21-.45zM265.09 82.69c-.02-.6-1.64-1.28-2.9-.94-.22.06-.66.18-1 .59-.39.48-.57 1.28-.28 1.63.69.83 4.21-.38 4.18-1.28zM261.27 86.13c.16.06.34.07.5.12.19.05.39.08.58.1 1.41.09 2.54-.4 2.61-.19.05.13-.4.42-.68.57-.9.46-1.8.31-2.46.19-.3-.06-.71-.43-.55-.79zM277.05 90.69s1.55 1.62 2.54 1.75.45-.38.45-.38l-.55-1.66-2.44.29zM269.19 83.78c.1.11.14.47.2.61.23.53.56 1.02.95 1.46 2.45 2.76 6.39 2.95 9.8 2.46 1.18-.17 2.37-.37 3.49-.8.39-.15 2.41-.92 1.65-1.66l-2.17.56-6.34 1.33-3.09-.56-3.44-2.24c.01-.01-1.05-1.16-1.05-1.16zM272.42 104.07s4.14-2.16 8.44-7.45c.12.33-.12.8-.12.8l-3.03 3.9-1.77 1.81-3.23 1.61-.29-.67zM266.85 73.47s1.32 1.03 2.79.52c.69-.24.43.11-.14.38-.57.27-1.38 1.45-1.78 1.17-.41-.27-.71-.86-.87-2.07z"/><path d="M270.2 74.15c-2.86 1.3-5.81 3.15-6.5 5.42M269.44 83.31s1.72 5.5 10.55 3.94c7.76-1.37 10.87-5.79 11.7-9.48.28-1.22.65-4.39-1.01-7.38-.34-.61-1.53-1.5-11.2.95M265.49 81.18s-1.89-2.35-4.22-1.53c-1.05.37-2.42 1.37-2.54 4.49-.04 1.05.58 3.93 1.79 4.41.53.21 2.29.34 4.24-.74M267.4 99.54s-2.66-5.98-3.44-11.21" style="fill:none;stroke:#000;stroke-linecap:round;stroke-linejoin:round;stroke-miterlimit:10"/><path d="M277.06 90.8s6.11-.64 7.63-2.23c.62-.65 1.07-1.81.61-2.96M281.36 92.04c-3.42.78-6.58 5.36-8.2 5.97 0 0-.58-.75-.94-1.97" style="fill:none;stroke:#000;stroke-linecap:round;stroke-linejoin:round;stroke-miterlimit:10"/><path d="M281.32 92.08s.44 3.58.42 4.57c.85-.09 4.33-.26 4.32-.22-.01-.01-.56-5.23-4.74-4.35z" style="stroke:#000;stroke-width:.8026;stroke-linecap:round;stroke-linejoin:round;stroke-miterlimit:10"/><path d="M267.4 82.98s2.29 1.35 3.65-1.18" style="fill:none;stroke:#000;stroke-linecap:round;stroke-linejoin:round;stroke-miterlimit:10"/><path d="M264.81 86.13s-.47-2.28.09-3.38c-.52-.32-2.12-.91-3.35-.36-.45.2-.89.98-.87 2.05.01.78.39 2.22 1.3 2.25.9.03 2.41-.42 2.83-.56z" style="stroke:#000;stroke-width:.4013;stroke-linecap:round;stroke-linejoin:round;stroke-miterlimit:10"/><path d="m264.96 80.39 5.16-6.02 1.07.99-5.64 5.58-.59-.55z"/><path d="M279.5 71.02s1.18-2.63 2.74-.36" style="fill:none;stroke:#000;stroke-linecap:round;stroke-linejoin:round;stroke-miterlimit:10"/><path d="M288.61 69.98s-1.66.94-.69 2.74c.42.78 1.61 1.36 2.45 1.27.6-.07 1.42-.44 1.39-.57-.02-.12-.72-2.36-.72-2.36l-.75-1.09-1.68.01z"/><path d="M267.4 99.54c.78 1.76 2.53 5.99 6.08 4.75 3.02-1.05 6.81-5.46 8.14-7.85M279.43 90.64s.16 1.4.8 1.67" style="fill:none;stroke:#000;stroke-linecap:round;stroke-linejoin:round;stroke-miterlimit:10"/><path style="fill:#ff60b2" d="m264.13 66.68 2.46 1.17 2.13.17 2.89 3.22-.92.7-1.15.64-2.7-.5-2.01-1.54z"/><path style="fill:#fff200" d="m264.18 66.87 2.39.94 2.07.29-4.85-5.63-.16.61z"/><path style="fill:#2ac5f4" d="m264.92 70.77 3 1.67 2.11.64.04.65-3.28 1.73-1 .77-.6-3.07z"/><path style="fill:none;stroke:#000;stroke-linecap:round;stroke-linejoin:round;stroke-miterlimit:10" d="M265.48 76.57 263 61.39l9.07 9.7"/><path d="M269.88 72.63c-1.12.06-3.76-.38-5.41-2.34M269.42 68.48s-3.04.09-5.48-1.67M269.79 72.85s2.37 5.36 3.1 6.24c.9 1.09 3.27 1.64 5.72.49 1.36-.63 2.94-2.45 2.2-4.64a36.76 36.76 0 0 0-2.69-6.17c-4.98 1.26-8.33 4.08-8.33 4.08z" style="fill:none;stroke:#000;stroke-linecap:round;stroke-linejoin:round;stroke-miterlimit:10"/><ellipse transform="rotate(-18.997 276.728 74.773)" cx="276.7" cy="74.77" rx="2.12" ry="3.92"/><ellipse transform="rotate(-18.997 276.942 73.476)" cx="276.92" cy="73.47" rx=".75" ry="1.19" style="fill:#fff"/><path d="m295.7 88.3-8.39 1.62a.638.638 0 0 1-.75-.51l-1.62-8.39c-.07-.35.16-.68.51-.75l8.39-1.62c.35-.07.68.16.75.51l1.62 8.39c.06.35-.17.69-.51.75z" style="fill:#ff88c5;stroke:#70327e;stroke-linejoin:round;stroke-miterlimit:10"/><path d="M284.47 96.56s-.52 2.29.1 3.13 1.69.56 1.81.24c.12-.32-1.01-3.67-1.91-3.37z" style="opacity:.1"/><path d="M287.19 92.69s-1.27.91-2.18 4.95c-.07.3.24 1.97 1.11 2.15s2.58-.24 4.13-3.55c.25.02 1.61.04 1.61.04s-.34-1.76-1.19-1.73c-2.13.1-2.56.68-2.83 1.19-.37-.45-.65-3.05-.65-3.05z" style="fill:#cdced0"/><path d="M286.27 97.64s.26-1.08.83-1.93c-.22-1.14-.6-3.13-.4-3.19.43-.12.8 3.2.77 3.28-.02.08-.81 1.69-1.2 1.84z" style="opacity:.1"/><path d="M286.7 92.5s.65 3.4.72 3.65c.07.25.54-.8.54-.8s-.16-3.1-.78-3.07c-.61.03-.39.09-.48.22z" style="fill:#70327e"/><path d="M288.15 99.19c-.7.57-1.61.92-2.35.36-1.8-1.36-.1-4.94 1.1-6.72" style="fill:none;stroke:#686869;stroke-linecap:round;stroke-linejoin:round;stroke-miterlimit:10"/><path d="M286.64 97.69s1.38-3.4 3.43-3.31c1.4.06 1.85 1.52 1.89 1.95" style="fill:none;stroke:#686869;stroke-linecap:round;stroke-linejoin:round;stroke-miterlimit:10"/><path d="M290.41 95.64s.35-.03.66.46c.02.02.88 0 1.2.04.03.13.03.17.04.21-.32.06-1.89-.02-1.89-.02s-.17-.57-.01-.69z" style="opacity:.1"/><path style="fill:#70327e" d="m286.67 92.38.32 1.63.65-.44-.37-1.14-.4-.25z"/><path d="M295.96 96.4s-.93 1.44-.1 2.67c.38.56 1.43.54 1.67-.1.15-.42-.43-2.74-1.57-2.57z" style="opacity:.1"/><path d="M298.23 95.23c-.62-.17-1.4.33-1.81 1.38-.22.56-.48 2.1.37 2.48.47.21 1.71-.17 2.15-1.86.05-.21.32-1.73-.71-2z" style="fill:#cdced0;stroke:#686869;stroke-linecap:round;stroke-linejoin:round;stroke-miterlimit:10"/><path d="M291.71 87.05c-1.18 1.1-2.62.96-3.61-.63M290.42 84.45s-.64-3.25-1.8-3-.42 3.47-.42 3.47M294.06 83.69s-.64-3.25-1.8-3c-1.16.25-.42 3.47-.42 3.47" style="fill:none;stroke:#70327e;stroke-linecap:round;stroke-linejoin:round;stroke-miterlimit:10"/><path d="M249.7 55.94s-.12 3.08 1.03 6.65c.15.47-.46.08-.47-.07s-2.27-4.57-.56-6.58z" style="opacity:.1"/><path d="M254.06 55.19c-.73-1.57-2.6-3.53-4.5-3.52-1.01.01-2.45.46-3.59 2.57-1.18 2.19-.48 5.64.22 7.83l-1.31 4.75 5.59-3.88c-1.62-2.66-1.82-5.74-1.19-6.92" style="fill:#cdced0;stroke:#686869;stroke-linecap:round;stroke-linejoin:round;stroke-miterlimit:10"/><path d="M249.51 55.79s2.93-.55 6.12-1.01c.09.36.15.74.15.74l-6.02.86-.25-.59z" style="fill:#0a566e"/><path d="M250.02 54.9s.77.09.8.65c-.09.01-1.05.22-1.05.22s-.16-.62.25-.87z" style="opacity:.1"/><path d="M248.97 57.43s0-1.21.85-2.24" style="fill:#cdced0;stroke:#686869;stroke-linecap:round;stroke-linejoin:round;stroke-miterlimit:10"/><path d="M255.58 54.7s-.38 3.06.48 6.71c.11.48-.46.04-.46-.11-.01-.15-1.89-4.73-.02-6.6z" style="opacity:.1"/><path d="M259.79 54.37c-.69-1.59-2.5-3.6-4.4-3.64-1.01-.02-2.46.39-3.66 2.47-1.24 2.15-.64 5.63 0 7.84l-1.44 4.72 5.7-3.72c-1.54-2.71-1.66-5.79-.99-6.95" style="fill:#cdced0;stroke:#686869;stroke-linecap:round;stroke-linejoin:round;stroke-miterlimit:10"/><path d="M255.21 54.91s2.88-.6 6.09-.98c.08.36.15.74.15.74l-6.37 1.1.13-.86z" style="fill:#0a566e"/><path d="M255.42 53.94s-.05-.44 1.39.65c-.75.16-1.15.12-1.48.49-.34-.12-.06-.96.09-1.14z" style="opacity:.1"/><path d="M254.63 56.46s.03-1.21.91-2.22" style="fill:#cdced0;stroke:#686869;stroke-linecap:round;stroke-linejoin:round;stroke-miterlimit:10"/><path d="M267.68 53.39s3.28-.33 7.21-.58l-.1.43-6.69.47-.42-.32zM293.71 96.16s-2.16-.05-3.13-.05l-.15.64 3.24.24.04-.83z" style="fill:#0a566e"/><path d="M70.28 106.95s-.66 3.14-2.4 2.48c-1.45-.59.02-3.29.02-3.29M72.34 107.79s-1.58 2.79.16 3.45c1.48.51 2.16-2.48 2.16-2.48M66.9 115.25s1.03.52 2.6 1.3" style="fill:none;stroke:#701616;stroke-linecap:round;stroke-linejoin:round;stroke-miterlimit:10"/><path d="M64.14 102.2s-.68 2.24-.64 7.75c-.42-.17-.61-.24-.61-.24l-.37-1.6.66-4.61.78-1.14.18-.16zM63.55 111.12s.01 1.25.31 3.59c.02.19-.1.14-.19-.21s-.67-3.53-.61-3.6c.01.03.49.22.49.22z" style="opacity:.1"/><path d="M72.1 105.5c-.86-1.53-1.7-2.59-2.59-3.5-.91-.93-1.97-1.81-3.18-2.35-.3-.13-.61-.25-.93-.36l-.12-.04-.18-.05c-.11-.04-.25-.06-.37-.09-.26-.04-.54-.06-.83-.04-.58.04-1.15.27-1.57.58-.43.3-.73.66-.97 1-.46.69-.71 1.36-.9 2-.18.65-.3 1.28-.38 1.91-.15 1.25-.17 2.48-.1 3.7.15 2.43.6 4.81 1.42 7.1.19.54.78.85 1.34.68.58-.17.92-.78.75-1.36v-.01c-.61-2.09-.9-4.31-.89-6.49.01-1.09.09-2.17.28-3.2.1-.51.22-1.01.38-1.46.16-.45.36-.86.57-1.11.1-.13.2-.2.25-.22.05-.02.05.02.07.02" style="fill:#cdced0;stroke:#686869;stroke-linejoin:round;stroke-miterlimit:10"/><path d="M65.09 101.41s.6.96.58 1.07c-.02.11-.2.25-.44.16s-1.03-.36-.82-.64c.2-.28.44-.55.68-.59z" style="opacity:.1"/><path style="fill:#701616" d="m74.24 105.9-10.01-4-.35.85 10.06 3.95z"/><path d="M63.29 103.43s.52-1.4 1.48-1.87" style="fill:none;stroke:#686869;stroke-linecap:round;stroke-linejoin:round;stroke-miterlimit:10"/><path d="M95.61 108.52s-15.35 10.73-16.5-6.49M78.28 101.69s.88.73 1.7-.17" style="fill:none;stroke:#593314;stroke-linecap:round;stroke-linejoin:round;stroke-miterlimit:10"/><path d="M86.97 102.42c.34 1.24.44 2.42.34 3.35-.7-.08-2.09.15-2.76.84-.58-.75-1.11-1.85-1.46-3.14-.7-2.58-.4-4.9.67-5.19 1.07-.29 2.51 1.56 3.21 4.14z" style="fill:#593314"/><path d="M83.99 106.97s1.24-1.74 4.06-1.11" style="fill:none;stroke:#593314;stroke-width:.75;stroke-linecap:round;stroke-linejoin:round;stroke-miterlimit:10"/><ellipse transform="rotate(-12.163 85.638 102.08)" cx="85.65" cy="102.09" rx=".74" ry="1.26" style="fill:#fff"/><path d="M93.76 100.68c.34 1.24.44 2.42.34 3.35-.7-.08-2.09.15-2.76.84-.58-.75-1.11-1.85-1.46-3.14-.7-2.58-.4-4.9.67-5.19 1.07-.28 2.5 1.57 3.21 4.14z" style="fill:#593314"/><path d="M90.78 105.23s1.24-1.74 4.06-1.11" style="fill:none;stroke:#593314;stroke-width:.75;stroke-linecap:round;stroke-linejoin:round;stroke-miterlimit:10"/><ellipse transform="rotate(-12.163 92.423 100.346)" cx="92.43" cy="100.35" rx=".74" ry="1.26" style="fill:#fff"/><path d="M81.26 97.67s.33-2.18 1.94-1.96c.76.1-1.32-.92-1.84-.26s-.34 1.77-.1 2.22zM90.48 95.4s.93-.5 1.62.45c.15.2-1.21-2.55-1.62-.45z" style="fill:#593314;stroke:#593314;stroke-width:.2355;stroke-linecap:round;stroke-linejoin:round;stroke-miterlimit:10"/><path d="M290.34 95.9c-.65.65-1.29 2.55-2.19 3.28" style="fill:none;stroke:#686869;stroke-linecap:round;stroke-linejoin:round;stroke-miterlimit:10"/><path d="M78.86 89.59s.24-1.47-.42-2.57c-.27-.44-.6-1.21.02-1.24.29-.01 1.24 3.05.4 3.81zM80.87 85.81s-.14-1.22-.85-2.04c-.36-.41-.45-1.25.32-1.11.53.1.99 2 .96 2.96-.02.4-.29.27-.43.19z" style="opacity:.1"/><path d="M79.24 89.62c.74-1.7-.93-3.64-.33-4.54.39-.59 1.89.11 2.72 2.37.42-1.2-1.64-4.43-.8-5.22.72-.68 2.97.8 3.15 4.91.42-.21.25-1.81.91-2.16.78-.41 2.03 1.65.46 4.29" style="fill:none;stroke:#593314;stroke-linecap:round;stroke-linejoin:round;stroke-miterlimit:10"/><path d="m192.95 32.21 1.38-2.52 4.02-3.41s4.94-1.19 5.16-1.18c.22 0 3.78.83 3.78.83l2.39 1.79 2.34 2.93.38 4.65-1.93 4.96-4.07 2.87-.05 2.76-1.67 3-.39.71 1.13 2.22.53 3-1.68 4.08-3.25 2.48-4.04 1.13-3.46-.33-3.19-1.37-2.95-3.04-1.41-2.95.18-3.48-3.14-.86-3.74-3.2-1-4.39.69-4.46 2.23-3.59 4.42-2.46 4.58-.74 2.76.57z" style="fill:#fff"/><path d="m205 40.31 1.44 2.6 1.07-.57c.01 0-1.4-2.09-2.51-2.03zM199.76 51.06s2.74.89 5.04.22c.33-.1-.75-1.52-.75-1.52s-1.11 1-4.29 1.3zM186.3 51.57l4-.64s-.25 1.27-3.9 2.18c-.38.08-.1-1.54-.1-1.54zM193.01 32.35l2.88 1.22s-.37-1.48-2.16-2.36c-.17-.09-.72 1.14-.72 1.14z" style="fill:#e5e5e5"/><path d="M199.83 50.62c2.95.16 5.57-1.6 6.37-4.14.97-3.05-1.18-5.63-1.31-5.78M195.54 33.67c-.88-.56-4.1-2.47-8.17-1.76-4.21.74-8.42 4.12-9.04 8.9-.4 3.13.65 7.49 4.32 9.48 3.33 1.8 6.81.55 7.41.32" style="fill:none;stroke:gray;stroke-linecap:round;stroke-linejoin:round;stroke-miterlimit:10"/><path d="M206.41 43.12c.49-.2 4.51-1.91 5.72-6.34.97-3.53-.23-7.41-3.02-9.71-3.62-2.98-8.43-2.12-11.31-.5-3.12 1.75-4.43 4.61-4.84 5.64M186.15 51.34c-.13.94-.39 3.75 1.28 6.52 2.82 4.65 8.43 4.7 8.72 4.7 3.95-.04 8.77-2.47 9.62-6.76.58-2.93-.95-5.41-1.47-6.2" style="fill:none;stroke:gray;stroke-linecap:round;stroke-linejoin:round;stroke-miterlimit:10"/><path style="fill:#fff" d="m160.92 39.34 1.3-1.67 3.03-.68 2.33 1.54 1.03 2.59-.62 2.87 1.2 1.42.38 3.53-1.27 2.31-3.11.7-2.85-.95-2.3-2.82-2.18.36-2.6-1.2-1.11-2.64.54-2.83 1.98-2.16 2.9-.64z"/><path d="M161.89 47.47s.07 1.08-.82 1.67c-.36.24-.37-.98-.37-.98s.24-.09 1.19-.69zM165.27 42.39s1.23-.59 2.79-.05c.31.11-.24 1.07-.24 1.07s-1.79-1.03-2.55-1.02zM160.35 39.75l.14 2.58 1.19 2.08s-1.79-.7-2.65-4.72c-.05-.21.87-.31 1.32.06z" style="fill:#e5e5e5"/><path d="M161.86 44.11c-1.71-1.7-1.69-4.4-.16-5.9 1.43-1.41 3.79-1.38 5.32-.2 1.66 1.28 2.12 3.74.96 5.67" style="fill:none;stroke:gray;stroke-linecap:round;stroke-linejoin:round;stroke-miterlimit:10"/><path d="M165.29 42.83c1.83.21 3.39 1.37 4.06 3.02.62 1.52.51 3.52-.73 4.85-1.69 1.81-4.7 1.5-6.46.18-1.19-.89-1.64-2.13-1.82-2.72" style="fill:none;stroke:gray;stroke-linecap:round;stroke-linejoin:round;stroke-miterlimit:10"/><path d="M161.53 47.25c-1.65 1.44-3.92 1.71-5.51.72-2.17-1.34-2.43-4.61-1-6.65 1.17-1.67 3.41-2.43 5.58-1.85" style="fill:none;stroke:gray;stroke-linecap:round;stroke-linejoin:round;stroke-miterlimit:10"/><path d="M169.87 35.15a3.58 3.58 0 0 1 5.05-.03 2.858 2.858 0 0 1 .02 4.04c-.89.9-2.33.9-3.23.02a1.82 1.82 0 0 1-.01-2.58c.57-.57 1.49-.58 2.07-.01.46.45.46 1.19.01 1.65-.36.37-.96.37-1.32.01" style="fill:none;stroke:#ff60b2;stroke-linecap:round;stroke-miterlimit:10"/><path d="M203.08 65.43a3.567 3.567 0 0 0-5.04.05 2.867 2.867 0 0 0 .04 4.04c.9.88 2.35.87 3.23-.04.71-.72.69-1.88-.03-2.58-.58-.56-1.5-.55-2.07.02-.45.46-.44 1.2.02 1.65.37.36.96.35 1.32-.01" style="fill:none;stroke:#2ac5f4;stroke-linecap:round;stroke-miterlimit:10"/><path d="M158.15 51.27c-1.7-1-3.88-.44-4.88 1.26-.8 1.36-.35 3.11 1.01 3.91 1.09.64 2.49.28 3.13-.81.51-.87.22-1.99-.65-2.5-.7-.41-1.59-.18-2 .52-.33.56-.14 1.27.41 1.6.44.26 1.02.11 1.28-.33M191.35 26.29a3.564 3.564 0 0 0-3.54-3.59 2.849 2.849 0 0 0-2.87 2.83 2.288 2.288 0 0 0 2.27 2.3c1.01.01 1.83-.81 1.84-1.81a1.45 1.45 0 0 0-1.45-1.47c-.65 0-1.17.52-1.18 1.16 0 .52.41.94.93.94" style="fill:none;stroke:#fff200;stroke-linecap:round;stroke-miterlimit:10"/><path d="M159.3 35.66c.69-1.85-.25-3.9-2.1-4.59a2.85 2.85 0 0 0-3.67 1.68c-.44 1.18.16 2.5 1.34 2.94.95.35 2-.13 2.35-1.08.28-.76-.1-1.6-.86-1.88-.61-.22-1.28.08-1.5.69-.18.48.07 1.02.55 1.2" style="fill:none;stroke:#ff9f4c;stroke-linecap:round;stroke-miterlimit:10"/><circle cx="180.48" cy="30.25" r=".52" style="fill:#ff9f4c"/><circle cx="211.59" cy="50.09" r=".52" style="fill:#ff9f4c"/><circle cx="226.57" cy="61.85" r=".52" style="fill:#ff9f4c"/><circle cx="174.11" cy="46.96" r=".52" style="fill:#ff60b2"/><circle cx="160.15" cy="58.35" r=".52" style="fill:#ff9f4c"/><circle cx="150.68" cy="41.42" r=".52" style="fill:#ff60b2"/><circle cx="191.98" cy="65.19" r=".52" style="fill:#ff9f4c"/><path style="fill:none;stroke:#fff200;stroke-linecap:round;stroke-miterlimit:10" d="m213.74 24.14.61.12M212.27 23.87l.61.11M213.39 23.63l.06-.31M213.17 24.8l.06-.3M247.45 4.55l.61.12M245.98 4.27l.61.12M247.1 4.04l.06-.31M246.88 5.21l.06-.31M235.68 62.95l.61.12M234.21 62.68l.6.11M235.33 62.44l.05-.31M235.11 63.61l.05-.3M166.35 55.41l-.61-.12M167.82 55.69l-.6-.12M166.7 55.93l-.06.3M166.92 54.75l-.06.31"/><path style="fill:none;stroke:#2ac5f4;stroke-linecap:round;stroke-miterlimit:10" d="m149.73 47.44.03-.62M149.66 48.94l.03-.62M149.27 47.86l-.31-.01M150.46 47.91l-.31-.01M212.39 15.81a3.565 3.565 0 0 0-4.92 1.12c-.84 1.33-.44 3.1.9 3.94 1.07.67 2.48.35 3.15-.72.54-.85.28-1.98-.57-2.52-.68-.43-1.59-.22-2.01.46-.34.55-.18 1.27.37 1.61.44.28 1.01.14 1.29-.29"/><circle cx="200.19" cy="20.75" r=".52" style="fill:#ff60b2"/><circle cx="239.81" cy="4.13" r=".52" style="fill:#ff60b2"/><circle cx="182.75" cy="56.07" r=".52" style="fill:#ff60b2"/><circle cx="240.02" cy="58.83" r=".52" style="fill:#ff60b2"/><circle cx="216.88" cy="6.3" r=".52" style="fill:#ff9f4c"/><circle cx="256.2" cy="2.25" r=".52" style="fill:#2ac5f4"/><path style="fill:none;stroke:#2ac5f4;stroke-linecap:round;stroke-miterlimit:10" d="m174.96 53.99-.3.54M175.68 52.67l-.3.54M175.56 53.81l.27.15M174.51 53.24l.27.15"/><ellipse transform="rotate(-17.536 249.73 44.217)" cx="249.74" cy="44.22" rx=".51" ry="1.34" style="fill:#fff"/><ellipse transform="rotate(-17.536 255.435 42.459)" cx="255.44" cy="42.46" rx=".51" ry="1.34" style="fill:#fff"/><path style="fill:#a1511a;stroke:#a1511a;stroke-linecap:round;stroke-linejoin:round;stroke-miterlimit:10" d="m152.66 95.14 3.45-3.02-.27 3.6z"/><circle cx="32.63" cy="146.69" r="2.78" style="fill:#cdced0"/><path d="m32.89 147.39 2.51-.9s-.37-2.76-2.98-2.56-2.53 2.73-2.48 3.43c.4-.86 2.11-1.56 2.95.03z" style="opacity:.05"/><circle cx="32.63" cy="146.69" r="2.78" style="fill:none;stroke:#686869;stroke-linejoin:round;stroke-miterlimit:10"/><path d="m31.77 143.09.3 3.59c.03.38.46.59.78.38l4.13-4.5" style="fill:#cdced0"/><path style="opacity:.05" d="m32.17 145.25 2.54-.19 2.19-2.3-5.04.36z"/><path d="m31.8 142.9.27 3.79c.03.38.46.59.78.38l3.94-4.56" style="fill:none;stroke:#686869;stroke-linejoin:round;stroke-miterlimit:10"/><circle cx="21.87" cy="146.69" r="2.78" style="fill:#cdced0"/><path d="m22.13 147.39 2.51-.9s-.37-2.76-2.98-2.56-2.53 2.73-2.48 3.43c.4-.86 2.11-1.56 2.95.03z" style="opacity:.05"/><circle cx="21.87" cy="146.69" r="2.78" style="fill:none;stroke:#686869;stroke-linejoin:round;stroke-miterlimit:10"/><path d="m21.11 144.03.2 2.65c.03.38.46.59.78.38l4.56-3.44" style="fill:#cdced0"/><path style="opacity:.05" d="m21.3 145.57 2.54-.19 2.4-1.82-5.15.36z"/><path d="m21.06 143.75.25 2.93c.03.38.46.59.78.38l4.7-3.69" style="fill:none;stroke:#686869;stroke-linejoin:round;stroke-miterlimit:10"/><circle cx="10.87" cy="146.64" r="2.78" style="fill:#cdced0"/><path d="m11.12 147.34 2.51-.9s-.37-2.76-2.98-2.56-2.53 2.73-2.48 3.43c.4-.86 2.11-1.56 2.95.03z" style="opacity:.05"/><circle cx="10.87" cy="146.64" r="2.78" style="fill:none;stroke:#686869;stroke-linejoin:round;stroke-miterlimit:10"/><path d="m10.14 144.46.16 2.17c.03.38.46.59.78.38l4.34-2.86" style="fill:#cdced0"/><path style="opacity:.05" d="m10.26 145.91 2.54-.19 2.3-1.42-4.95.38z"/><path d="m10.14 144.46.16 2.17c.03.38.46.59.78.38l4.34-2.86" style="fill:none;stroke:#686869;stroke-linejoin:round;stroke-miterlimit:10"/><path d="m4.94 140.07 33.98-2.55.15 2.04c.11 1.5-1.01 2.8-2.51 2.92L8.23 144.6a2.946 2.946 0 0 1-3.16-2.72l-.13-1.81z" style="fill:#ff9f4c"/><path style="fill:#fff200" d="m5.67 131.05 31.8-2.39 1.45 8.85-33.75 2.54z"/><path style="fill:#2ac5f4" d="m6.18 123.89 30.16-2.27 1.13 7.04-31.8 2.39z"/><path style="fill:#ff60b2" d="m6.64 116.73 28.56-2.15 1.14 7.04-30.16 2.27z"/><path d="m9.86 109.36 20.98-1.58a3.796 3.796 0 0 1 4.07 3.5l.25 3.3-28.52 2.14.19-3.84c-.14-1.8 1.22-3.38 3.03-3.52z" style="fill:#b337e3"/><path d="m30.73 142.97-22.3 1.68a3.146 3.146 0 0 1-3.37-2.9l1.83-29.13a3.146 3.146 0 0 1 2.9-3.37l18.3-1.38" style="fill:none;stroke:#70327e;stroke-linejoin:round;stroke-miterlimit:10"/><path d="m36.26 142.55-16.67 1.25a3.144 3.144 0 0 1-3.34-2.63l-4.61-28.64a3.14 3.14 0 0 1 2.87-3.63l16.67-1.25a3.144 3.144 0 0 1 3.34 2.63l4.61 28.64c.29 1.82-1.04 3.5-2.87 3.63z" style="fill:none;stroke:#70327e;stroke-linejoin:round;stroke-miterlimit:10"/><path style="fill:none;stroke:#70327e;stroke-width:.5;stroke-linecap:round;stroke-linejoin:round;stroke-miterlimit:10;stroke-dasharray:0,1" d="m23.02 108.26 5.66 34.8"/><path d="m18.48 132.01-3.22-17.86c-.2-1.11.54-2.07 1.66-2.16l12.78-.96c1.12-.08 2.18.75 2.38 1.85l3.22 17.86c.2 1.11-.54 2.07-1.66 2.16l-12.78.96c-1.11.09-2.18-.74-2.38-1.85z" style="fill:#eccdf8"/><ellipse transform="rotate(-10.948 28.468 118.905)" cx="28.48" cy="118.89" rx="2.13" ry="4.51" style="fill:#70327e"/><ellipse transform="rotate(-4.289 29.015 122.347)" cx="29.01" cy="122.43" rx="2.07" ry="1.73" style="fill:#eccdf8"/><ellipse transform="rotate(-9.836 29.236 118.094)" cx="29.23" cy="118.1" rx=".8" ry="1.4" style="fill:#fff"/><path d="M29.1 112.91s1.5.07 1.75 1.65M26.84 121.89s1.77-2.53 4.15-.41" style="fill:none;stroke:#70327e;stroke-linecap:round;stroke-miterlimit:10"/><ellipse transform="rotate(-10.948 22.365 119.75)" cx="22.38" cy="119.73" rx="2.13" ry="4.51" style="fill:#70327e"/><ellipse transform="rotate(-4.289 22.917 123.193)" cx="22.91" cy="123.28" rx="2.07" ry="1.73" style="fill:#eccdf8"/><ellipse transform="rotate(-9.836 23.134 118.94)" cx="23.13" cy="118.95" rx=".8" ry="1.4" style="fill:#fff"/><path d="M20.74 122.73s1.77-2.53 4.15-.41" style="fill:none;stroke:#70327e;stroke-linecap:round;stroke-miterlimit:10"/><path d="M29.63 125.94c-6.46 5.53-10.25-1.02-10.25-1.02s.98 6.66 3.95 6.65c2.62-.01 3.03-3.51 3.03-3.51" style="fill:#70327e;stroke:#70327e;stroke-linecap:round;stroke-linejoin:round;stroke-miterlimit:10"/><path d="M18.54 124.78s.97.44 1.25-.58" style="fill:none;stroke:#70327e;stroke-linecap:round;stroke-linejoin:round;stroke-miterlimit:10"/><path d="m18.48 132.01-3.22-17.86c-.2-1.11.54-2.07 1.66-2.16l12.78-.96c1.12-.08 2.18.75 2.38 1.85l3.22 17.86c.2 1.11-.54 2.07-1.66 2.16l-12.78.96c-1.11.09-2.18-.74-2.38-1.85z" style="fill:none;stroke:#70327e;stroke-width:.5449;stroke-linejoin:round;stroke-miterlimit:10"/><path style="fill:none;stroke:#70327e;stroke-width:.5;stroke-linecap:round;stroke-linejoin:round;stroke-miterlimit:10;stroke-dasharray:0,1" d="m6.64 116.73 8.88-.67M32.42 114.79l2.78-.21M6.18 123.91l10.46-.79M33.68 121.82l2.66-.2M5.67 131.05l12.1-.91M5.17 140.05l33.75-2.54M34.97 128.85l2.5-.19"/><path d="m9.53 127.93 1.47-.11c1.14-.09 2.13.77 2.22 1.91l.23 3.05c.09 1.14-.77 2.13-1.91 2.22l-1.47.11c-1.14.09-2.13-.77-2.22-1.91l-.23-3.05c-.08-1.14.77-2.14 1.91-2.22z" style="opacity:.15"/><path d="m9.07 127.19 1.47-.11c1.14-.09 2.13.77 2.22 1.91l.23 3.05c.09 1.14-.77 2.13-1.91 2.22l-1.47.11c-1.14.09-2.13-.77-2.22-1.91l-.23-3.05a2.06 2.06 0 0 1 1.91-2.22z" style="fill:#ff4e15"/><path d="m9.07 127.19 1.47-.11c1.14-.09 2.13.77 2.22 1.91l.23 3.05c.09 1.14-.77 2.13-1.91 2.22l-1.47.11c-1.14.09-2.13-.77-2.22-1.91l-.23-3.05a2.06 2.06 0 0 1 1.91-2.22z" style="fill:none;stroke:#70327e;stroke-linejoin:round;stroke-miterlimit:10"/><path style="fill:none;stroke:#70327e;stroke-linecap:round;stroke-linejoin:round;stroke-miterlimit:10" d="m10.07 130.67-7.39-6.27"/><circle cx="2.68" cy="124.4" r="2" style="fill:#70327e"/><path d="M1.56 124.58c-.11-.31-.03-.79.39-1" style="fill:none;stroke:#fff;stroke-width:.5;stroke-linecap:round;stroke-miterlimit:10"/><path d="m36.32 140.61-15.35 1.15c-.83.06-1.62-.52-1.76-1.3l-.54-2.98c-.14-.78.42-1.46 1.25-1.53l15.35-1.15c.83-.06 1.62.52 1.76 1.3l.54 2.98c.14.78-.42 1.47-1.25 1.53z" style="fill:#855191"/><text transform="matrix(.755 -.0567 .1783 .984 20.624 140.811)" style="font-size:3.9999px;font-family:'DSEG7ClassicMini-Bold';fill:#fff">54931</text><path d="m36.32 140.61-15.35 1.15c-.83.06-1.62-.52-1.76-1.3l-.54-2.98c-.14-.78.42-1.46 1.25-1.53l15.35-1.15c.83-.06 1.62.52 1.76 1.3l.54 2.98c.14.78-.42 1.47-1.25 1.53z" style="fill:none;stroke:#70327e;stroke-linejoin:round;stroke-miterlimit:10"/><path d="M19.49 113.69s-1.38.6-1.04 2.17" style="fill:none;stroke:#70327e;stroke-linecap:round;stroke-miterlimit:10"/><path style="fill:none;stroke:#70327e;stroke-width:.9405;stroke-linejoin:round;stroke-miterlimit:10" d="m15.18 108.95-.21-2.65"/><path d="M14.53 101.06c1.61-.13 3 .77 3.1 2l.27 3.01-5.85.46-.27-3.01c-.1-1.23 1.13-2.33 2.75-2.46z" style="fill:#ff4e15;stroke:#70327e;stroke-width:.9405;stroke-linejoin:round;stroke-miterlimit:10"/><path style="fill:none;stroke:#70327e;stroke-linejoin:round;stroke-miterlimit:10" d="m12.17 104.24 5.31-.47"/><path style="fill:none;stroke:#70327e;stroke-width:.9405;stroke-linejoin:round;stroke-miterlimit:10" d="m26.54 108.03-.21-2.65"/><path d="M25.89 100.14c1.61-.13 3 .77 3.1 2l.27 3.01-5.85.46-.27-3.01c-.09-1.23 1.14-2.33 2.75-2.46z" style="fill:#ff4e15;stroke:#70327e;stroke-width:.9405;stroke-linejoin:round;stroke-miterlimit:10"/><path style="fill:none;stroke:#70327e;stroke-linejoin:round;stroke-miterlimit:10" d="m23.53 103.32 5.32-.46"/><path d="M213.06 78.92c5.78.79 6.69-4.4 6.69-4.4" style="fill:none;stroke:#70327e;stroke-linecap:round;stroke-linejoin:round;stroke-miterlimit:10"/></svg>