<svg width="166" height="166" viewBox="0 0 166 166" fill="#FF9839" xmlns="http://www.w3.org/2000/svg">
<g clip-path="url(#clip0)">
<path d="M88.1184 90.3482C98.2942 100.137 115.481 120.676 134.665 141.902C139.368 138.759 150.877 130.338 150.877 130.338L136.618 160.859C116.438 135.926 92.0138 108.149 81.0578 97.785C78.767 95.6214 78.9441 91.9252 81.4396 89.9996C83.4482 88.4447 86.2924 88.5886 88.1184 90.3482Z" fill="#C5C6C8" stroke="#909395" stroke-miterlimit="10" stroke-linejoin="round"/>
<path d="M151.702 98.6757C151.984 97.2758 151.646 95.7707 150.645 94.6032C149.832 93.657 130.277 71.2968 94.1606 62.4711C91.5932 61.8459 89.0036 63.4173 88.3783 65.9848C87.7586 68.5467 89.3245 71.1419 91.892 71.7671C124.887 79.8292 143.214 100.635 143.396 100.845C145.123 102.842 148.144 103.064 150.141 101.337C150.971 100.623 151.497 99.6773 151.702 98.6757Z" fill="#C5C6C8" stroke="#909395" stroke-miterlimit="10" stroke-linejoin="round"/>
<path d="M73.6818 4.1333L98.8751 54.1491L124.074 104.159L68.1595 100.972L12.2507 97.785L42.9663 50.9619L73.6818 4.1333Z" fill="" stroke="#593314" stroke-miterlimit="10" stroke-linejoin="round"/>
<path d="M19.3113 125.463C20.0528 126.049 20.9713 126.426 21.9895 126.486C24.6289 126.647 26.8975 124.644 27.0635 122.004C28.6018 97.1099 53.0259 68.569 53.2749 68.2868C55.0013 66.2893 54.7855 63.2625 52.7825 61.5361C50.7794 59.7987 47.7637 60.0255 46.0318 62.0231C44.9417 63.2847 19.2449 93.2753 17.5075 121.412C17.4079 123.039 18.1272 124.522 19.3113 125.463Z" fill="#C5C6C8" stroke="#909395" stroke-miterlimit="10" stroke-linejoin="round"/>
<path d="M70.6219 54.6802C70.6219 54.6802 70.3951 69.7475 89.6677 64.5074" stroke="#593314" stroke-miterlimit="10" stroke-linecap="round" stroke-linejoin="round"/>
<path d="M81.0595 48.7588C81.1882 44.1828 79.6457 40.4269 77.6142 40.3698C75.5828 40.3127 73.8318 43.976 73.7031 48.552C73.5745 53.128 75.117 56.8839 77.1484 56.941C79.1798 56.9982 80.9309 53.3348 81.0595 48.7588Z" fill="#593214"/>
<path d="M80.3414 49.2223C80.5508 47.8785 80.0939 46.6916 79.3209 46.5711C78.5479 46.4506 77.7515 47.4422 77.542 48.786C77.3326 50.1297 77.7895 51.3167 78.5625 51.4371C79.3355 51.5576 80.132 50.566 80.3414 49.2223Z" fill="white"/>
<path d="M92.0285 49.6253C92.1572 45.0493 90.6147 41.2934 88.5832 41.2363C86.5518 41.1792 84.8008 44.8425 84.6721 49.4185C84.5435 53.9945 86.086 57.7504 88.1174 57.8075C90.1488 57.8646 91.8999 54.2013 92.0285 49.6253Z" fill="#593214"/>
<path d="M91.3106 50.0882C91.5201 48.7445 91.0632 47.5575 90.2902 47.437C89.5171 47.3166 88.7207 48.3082 88.5113 49.6519C88.3019 50.9957 88.7587 52.1826 89.5318 52.3031C90.3048 52.4236 91.1012 51.4319 91.3106 50.0882Z" fill="white"/>
<path d="M71.994 41.1788C71.994 41.1788 71.6455 37.228 75.0816 36.2874" stroke="#593214" stroke-miterlimit="10" stroke-linecap="round" stroke-linejoin="round"/>
<path d="M80.427 21.7073C80.427 21.7073 97.7021 19.7928 97.0215 24.142C96.6231 26.7039 87.8527 24.0645 87.6923 25.4589C87.6535 25.7909 100.015 27.9157 99.5281 31.4183C99.0909 34.5391 88.9871 27.9212 88.7823 30.8317C88.7215 31.7281 97.2041 34.3288 95.5717 36.5698C94.2659 38.3626 91.9419 34.9817 87.6591 35.4465" fill=""/>
<path d="M80.427 21.7073C80.427 21.7073 97.7021 19.7928 97.0215 24.142C96.6231 26.7039 87.8527 24.0645 87.6923 25.4589C87.6535 25.7909 100.015 27.9157 99.5281 31.4183C99.0909 34.5391 88.9871 27.9212 88.7823 30.8317C88.7215 31.7281 97.2041 34.3288 95.5717 36.5698C94.2659 38.3626 91.9419 34.9817 87.6591 35.4465" stroke="#593214" stroke-miterlimit="10" stroke-linecap="round" stroke-linejoin="round"/>
<path d="M60.7836 87.7031C63.2238 101.78 66.4331 129.104 55.8423 155.475C63.2183 160.295 72.2874 165.718 72.2874 165.718L40.9189 165.745C52.9595 139.119 53.7231 108.885 50.0379 89.6619C49.3573 86.115 52.2457 82.9002 55.8423 83.1934C58.3268 83.3982 60.3575 85.2518 60.7836 87.7031Z" fill="#C5C6C8" stroke="#909395" stroke-miterlimit="10" stroke-linejoin="round"/>
</g>
<defs>
<clipPath id="clip0">
<rect width="166" height="166" fill="white"/>
</clipPath>
</defs>
</svg>
