<svg xmlns="http://www.w3.org/2000/svg" viewBox="0 0 333334 333334" shape-rendering="geometricPrecision" text-rendering="geometricPrecision" image-rendering="optimizeQuality" fill-rule="evenodd" clip-rule="evenodd"><path d="M166667 0c92047 0 166667 74620 166667 166667s-74620 166667-166667 166667S0 258714 0 166667 74620 0 166667 0zm-55369 98779v105771h35251v20048c545-519 851-797 1144-1090 5944-5930 11904-11845 17813-17811 843-851 1685-1196 2882-1192 12319 40 24639 48 36958-24 905-5 2030-472 2674-1108 7680-7575 15274-15237 22935-22831 859-851 1170-1700 1169-2885-30-25681-22-51361-22-77043v-1836H111299zm95369 75234h-14630v-44767h14630v44767zm-40077-44764v44706h-14896v-44706h14896zm-40007 120108v-19807H86463c-40-830-98-1472-98-2115-4-37267-4-74534 18-111802 1-1078 192-2200 529-3224 2956-8996 5991-17968 8931-26969 381-1166 861-1584 2105-1596h60c49098 38 98194 33 147291 33 481-1 963 0 1647 0v2079c0 32119-8 64237 29 96356v63c-11 1306-409 2217-1339 3143-14244 14187-28460 28404-42648 42649-941 945-1864 1340-3205 1331-8642-61-17285 9-25927-67-1656-15-2839 418-4017 1622-5701 5827-11486 11572-17287 17300-551 545-1418 1083-2144 1090-3620 35-7240 47-10860 49h-2173c-3379-2-6758-8-10137-13-170 0-341-61-654-121z"></path></svg>
