<svg width="30" height="30" viewBox="0 0 30 30" fill="none" xmlns="http://www.w3.org/2000/svg">
<path fill-rule="evenodd" clip-rule="evenodd" d="M15 0C6.71573 0 0 6.71573 0 15C0 23.2843 6.71573 30 15 30C23.2843 30 30 23.2843 30 15C30 6.71573 23.2843 0 15 0ZM21.2511 9.84334C21.9396 10.0323 22.4818 10.5889 22.6658 11.2958C23.0001 12.5769 23.0001 15.25 23.0001 15.25C23.0001 15.25 23.0001 17.923 22.6658 19.2042C22.4818 19.9111 21.9396 20.4678 21.2511 20.6568C20.0035 21 15.0001 21 15.0001 21C15.0001 21 9.99676 21 8.74903 20.6568C8.06058 20.4678 7.5184 19.9111 7.3344 19.2042C7.00012 17.923 7.00012 15.25 7.00012 15.25C7.00012 15.25 7.00012 12.5769 7.3344 11.2958C7.5184 10.5889 8.06058 10.0323 8.74903 9.84334C9.99676 9.5 15.0001 9.5 15.0001 9.5C15.0001 9.5 20.0035 9.5 21.2511 9.84334Z" fill="#3c3c3c"/>
<path d="M13.4999 18V13L17.4999 15.5001L13.4999 18Z" fill="#3c3c3c"/>
</svg>
