<svg width="1070" height="1070" viewBox="0 0 1070 1070" fill="none" xmlns="http://www.w3.org/2000/svg">
<circle cx="535" cy="535" r="535" transform="rotate(-180 535 535)" fill="#D9D9D9"/>
<mask id="mask0_2719_86279" style="mask-type:alpha" maskUnits="userSpaceOnUse" x="0" y="0" width="1070" height="1070">
<circle cx="535" cy="535" r="535" transform="rotate(-180 535 535)" fill="#D9D9D9"/>
</mask>
<g mask="url(#mask0_2719_86279)">
<path d="M739.493 780.367C727.563 784.368 717.016 792.66 710.324 804.517C696.067 829.831 704.941 861.982 730.182 876.311C739.275 881.622 941.928 1003.1 964.478 1342.79C966.442 1371.89 991.61 1393.93 1020.71 1391.97C1049.8 1390 1071.84 1364.83 1069.88 1335.74C1043.33 936.031 792.884 790.405 782.264 784.441C768.662 776.803 753.168 775.785 739.493 780.367Z" fill="#C5C6C8" stroke="#909395" stroke-width="7.27401" stroke-linejoin="round"/>
<path d="M464.027 775.856C474.574 782.766 482.648 793.532 486.067 806.625C493.414 834.775 476.538 863.508 448.46 870.927C438.277 873.691 211.255 939.157 102.363 1261.76C93.0521 1289.4 63.0832 1304.24 35.4419 1294.93C7.80066 1285.62 -7.0383 1255.65 2.27244 1228.01C130.441 848.378 409.835 771.928 421.619 768.8C436.676 764.872 451.952 767.927 464.027 775.856Z" fill="#C5C6C8" stroke="#909395" stroke-width="7.27401" stroke-linejoin="round"/>
<path d="M737.559 222.931L316.917 247.922L341.908 668.564L762.55 643.573L737.559 222.931Z" fill="#F063A4" stroke="#70327E" stroke-width="7.27401" stroke-linejoin="round"/>
<path d="M358.625 950.432L347.132 757.38L767.788 732.357L790.192 1109.59C790.192 1109.59 821.979 1464.2 404.669 1489L397.032 1360.69C397.032 1360.69 537.784 1339.81 524.982 1124.94L524.982 1125.37L369.536 1134.61L364.008 1041.58L358.625 950.505L358.625 950.432Z" fill="#F063A4" stroke="#70327E" stroke-width="7.27401" stroke-linejoin="round"/>
<path d="M626.963 331.703C626.963 331.703 628.855 297.224 602.304 294.897" stroke="#70327E" stroke-width="7.27401" stroke-linecap="round" stroke-linejoin="round"/>
<path d="M389.176 345.744C389.176 345.744 383.721 311.629 409.907 306.537" stroke="#70327E" stroke-width="7.27401" stroke-linecap="round" stroke-linejoin="round"/>
<path d="M558.442 571.383C558.442 571.383 664.788 550.506 659.26 443.869C659.26 443.869 682.319 601.497 631.037 604.188C612.052 605.207 607.76 574.147 606.815 556.18" fill="#70327E"/>
<path d="M558.442 571.383C558.442 571.383 664.788 550.506 659.26 443.869C659.26 443.869 682.319 601.497 631.037 604.188C612.052 605.207 607.76 574.147 606.815 556.18" stroke="#70327E" stroke-width="7.27401" stroke-linecap="round" stroke-linejoin="round"/>
<path d="M641.221 433.103C641.221 433.103 659.334 447.214 677.882 431.212" stroke="#70327E" stroke-width="7.27401" stroke-linecap="round" stroke-linejoin="round"/>
<path d="M436.877 335.398C418.751 336.478 405.674 364.499 407.669 397.984C409.665 431.469 425.976 457.739 444.103 456.659C462.229 455.579 475.305 427.558 473.31 394.073C471.315 360.587 455.003 334.318 436.877 335.398Z" fill="#70327E"/>
<path d="M440.449 342.819C434.714 343.161 430.494 350.623 431.022 359.485C431.55 368.348 436.627 375.255 442.361 374.914C448.096 374.572 452.317 367.11 451.788 358.248C451.26 349.385 446.183 342.478 440.449 342.819Z" fill="white"/>
<path d="M566.295 325.968C548.168 327.048 535.092 355.069 537.087 388.554C539.082 422.04 555.394 448.309 573.52 447.229C591.646 446.149 604.723 418.128 602.728 384.643C600.732 351.158 584.421 324.888 566.295 325.968Z" fill="#70327E"/>
<path d="M569.939 333.39C564.204 333.731 559.983 341.193 560.511 350.055C561.039 358.918 566.116 365.826 571.851 365.484C577.586 365.142 581.806 357.681 581.278 348.818C580.75 339.956 575.673 333.048 569.939 333.39Z" fill="white"/>
</g>
</svg>
