<?xml version="1.0" standalone="no"?>
<!DOCTYPE svg PUBLIC "-//W3C//DTD SVG 20010904//EN"
 "http://www.w3.org/TR/2001/REC-SVG-20010904/DTD/svg10.dtd">
<svg version="1.0" xmlns="http://www.w3.org/2000/svg"
 width="700.000000pt" height="700.000000pt" viewBox="0 0 700.000000 700.000000"
 preserveAspectRatio="xMidYMid meet">
<metadata>
Created by potrace 1.14, written by Peter Selinger 2001-2017
</metadata>
<g transform="translate(0.000000,700.000000) scale(0.100000,-0.100000)"
fill="#000000" stroke="none">
<path d="M3477 5964 c-1 -1 -67 -4 -146 -8 -79 -4 -147 -8 -150 -10 -3 -2 -35
-7 -70 -10 -35 -4 -85 -11 -110 -16 -25 -5 -59 -11 -76 -14 -16 -2 -70 -14
-120 -26 -544 -132 -1058 -424 -1442 -820 -119 -122 -138 -143 -262 -295 -34
-42 -119 -163 -165 -235 -26 -41 -57 -87 -67 -102 -10 -15 -19 -29 -19 -32 0
-3 -13 -27 -28 -53 -105 -177 -215 -430 -294 -668 -82 -250 -151 -577 -174
-825 -3 -36 -8 -76 -10 -90 -2 -14 -7 -109 -11 -211 -7 -220 2 -262 70 -328
107 -105 280 -90 363 32 28 40 33 44 39 28 8 -26 70 -88 108 -107 97 -51 231
-16 301 77 l29 37 31 -41 c18 -25 54 -54 86 -70 49 -26 62 -28 122 -23 47 3
78 12 105 29 38 24 84 71 97 99 5 10 7 10 12 0 16 -35 74 -87 119 -108 114
-54 247 -9 309 103 22 39 28 63 31 143 17 381 96 664 265 950 167 283 436 511
715 608 144 50 199 57 390 56 125 -2 166 -6 246 -27 423 -111 782 -465 954
-942 76 -210 108 -381 120 -646 4 -97 18 -139 64 -191 90 -103 265 -100 358 5
17 19 33 41 36 49 5 10 8 9 17 -5 97 -154 300 -169 406 -30 32 42 32 42 47 20
63 -97 184 -140 288 -103 50 18 103 60 124 100 l18 34 27 -40 c111 -165 364
-132 426 54 14 43 16 78 10 232 -3 99 -8 201 -11 226 -3 25 -7 65 -10 90 -6
58 -15 128 -21 160 -2 14 -9 54 -14 90 -5 36 -19 108 -31 160 -11 52 -22 103
-24 112 -12 54 -61 226 -90 313 -190 575 -515 1083 -942 1475 -276 253 -610
461 -954 594 -158 61 -415 133 -534 151 -23 3 -51 7 -64 10 -13 2 -49 7 -80
11 -31 3 -64 8 -73 9 -26 5 -337 22 -341 19z"/>
</g>
</svg>
